G04 #@! TF.GenerationSoftware,KiCad,Pcbnew,5.1.5+dfsg1-2build2*
G04 #@! TF.CreationDate,2022-08-21T18:45:02-05:00*
G04 #@! TF.ProjectId,ms88sf2-breakout,6d733838-7366-4322-9d62-7265616b6f75,rev?*
G04 #@! TF.SameCoordinates,Original*
G04 #@! TF.FileFunction,Copper,L1,Top*
G04 #@! TF.FilePolarity,Positive*
%FSLAX46Y46*%
G04 Gerber Fmt 4.6, Leading zero omitted, Abs format (unit mm)*
G04 Created by KiCad (PCBNEW 5.1.5+dfsg1-2build2) date 2022-08-21 18:45:02*
%MOMM*%
%LPD*%
G04 APERTURE LIST*
%ADD10R,2.000000X0.800000*%
%ADD11O,1.700000X1.700000*%
%ADD12R,1.700000X1.700000*%
%ADD13C,0.800000*%
%ADD14C,0.250000*%
G04 APERTURE END LIST*
D10*
X71928900Y-60990000D03*
X71928900Y-62090000D03*
X71928900Y-63190000D03*
X71928900Y-64290000D03*
X71928900Y-65390000D03*
X71928900Y-66490000D03*
X71928900Y-67590000D03*
X71928900Y-68690000D03*
X71928900Y-69790000D03*
X71928900Y-70890000D03*
X71928900Y-71990000D03*
X71928900Y-73090000D03*
X71928900Y-74190000D03*
X71928900Y-75290000D03*
X54928900Y-60990000D03*
X54928900Y-62090000D03*
X54928900Y-63190000D03*
X54928900Y-64290000D03*
X54928900Y-65390000D03*
X54928900Y-66490000D03*
X54928900Y-67590000D03*
X54928900Y-68690000D03*
X54928900Y-69790000D03*
X54928900Y-70890000D03*
X54928900Y-71990000D03*
X54928900Y-73090000D03*
X54928900Y-74190000D03*
X54928900Y-75290000D03*
D11*
X77400000Y-84890000D03*
X77400000Y-82350000D03*
X77400000Y-79810000D03*
X77400000Y-77270000D03*
X77400000Y-74730000D03*
X77400000Y-72190000D03*
X77400000Y-69650000D03*
X77400000Y-67110000D03*
X77400000Y-64570000D03*
X77400000Y-62030000D03*
X77400000Y-59490000D03*
X77400000Y-56950000D03*
X77400000Y-54410000D03*
D12*
X77400000Y-51870000D03*
D11*
X74860000Y-84890000D03*
X74860000Y-82350000D03*
X74860000Y-79810000D03*
X74860000Y-77270000D03*
X74860000Y-74730000D03*
X74860000Y-72190000D03*
X74860000Y-69650000D03*
X74860000Y-67110000D03*
X74860000Y-64570000D03*
X74860000Y-62030000D03*
X74860000Y-59490000D03*
X74860000Y-56950000D03*
X74860000Y-54410000D03*
D12*
X74860000Y-51870000D03*
D11*
X52000000Y-84890000D03*
X52000000Y-82350000D03*
X52000000Y-79810000D03*
X52000000Y-77270000D03*
X52000000Y-74730000D03*
X52000000Y-72190000D03*
X52000000Y-69650000D03*
X52000000Y-67110000D03*
X52000000Y-64570000D03*
X52000000Y-62030000D03*
X52000000Y-59490000D03*
X52000000Y-56950000D03*
X52000000Y-54410000D03*
D12*
X52000000Y-51870000D03*
D13*
X68625720Y-74711560D03*
X56177000Y-79019100D03*
X57236360Y-77851000D03*
X58988960Y-62260480D03*
X57536080Y-61432440D03*
X68320920Y-62116500D03*
X68976240Y-61117480D03*
D14*
X53603600Y-62090000D02*
X54928900Y-62090000D01*
X53340000Y-61826400D02*
X53603600Y-62090000D01*
X53340000Y-56306720D02*
X53340000Y-61826400D01*
X52618580Y-55585300D02*
X53340000Y-56306720D01*
X52000000Y-55585300D02*
X52618580Y-55585300D01*
X52000000Y-54410000D02*
X52000000Y-55585300D01*
X53838400Y-54178760D02*
X53838400Y-59899500D01*
X53838400Y-59899500D02*
X54928900Y-60990000D01*
X52704940Y-53045300D02*
X53838400Y-54178760D01*
X52000000Y-53045300D02*
X52704940Y-53045300D01*
X52000000Y-51870000D02*
X52000000Y-53045300D01*
X71928900Y-67590000D02*
X73254200Y-67590000D01*
X74860000Y-67110000D02*
X73684700Y-67110000D01*
X73684700Y-67110000D02*
X73254200Y-67540500D01*
X73254200Y-67540500D02*
X73254200Y-67590000D01*
X71928900Y-68690000D02*
X73254200Y-68690000D01*
X74860000Y-69650000D02*
X73684700Y-69650000D01*
X73684700Y-69650000D02*
X73254200Y-69219500D01*
X73254200Y-69219500D02*
X73254200Y-68690000D01*
X74860000Y-70937120D02*
X74860000Y-72190000D01*
X73907320Y-70937120D02*
X74860000Y-70937120D01*
X72760200Y-69790000D02*
X73907320Y-70937120D01*
X71928900Y-69790000D02*
X72760200Y-69790000D01*
X70603600Y-70890000D02*
X71928900Y-70890000D01*
X68625720Y-74711560D02*
X68625720Y-72867880D01*
X68625720Y-72867880D02*
X70603600Y-70890000D01*
X70356320Y-74190000D02*
X71928900Y-74190000D01*
X69895720Y-74650600D02*
X70356320Y-74190000D01*
X69895720Y-81638720D02*
X69895720Y-74650600D01*
X74356100Y-86099100D02*
X69895720Y-81638720D01*
X75320800Y-86099100D02*
X74356100Y-86099100D01*
X76045700Y-85374200D02*
X75320800Y-86099100D01*
X76045700Y-83535700D02*
X76045700Y-85374200D01*
X74860000Y-82350000D02*
X76045700Y-83535700D01*
X71928900Y-81585980D02*
X71928900Y-75290000D01*
X74057620Y-83714700D02*
X71928900Y-81585980D01*
X74860000Y-83714700D02*
X74057620Y-83714700D01*
X74860000Y-84890000D02*
X74860000Y-83714700D01*
X53304440Y-80421480D02*
X53304440Y-74190000D01*
X53304440Y-74190000D02*
X54928900Y-74190000D01*
X52551220Y-81174700D02*
X53304440Y-80421480D01*
X52000000Y-81174700D02*
X52551220Y-81174700D01*
X52000000Y-82350000D02*
X52000000Y-81174700D01*
X56114300Y-78956400D02*
X56177000Y-79019100D01*
X56114300Y-76392420D02*
X56114300Y-78956400D01*
X56774080Y-75732640D02*
X56114300Y-76392420D01*
X56774080Y-72928480D02*
X56774080Y-75732640D01*
X55090420Y-72928480D02*
X56774080Y-72928480D01*
X54928900Y-73090000D02*
X55090420Y-72928480D01*
X57602120Y-72958960D02*
X56633160Y-71990000D01*
X57602120Y-77485240D02*
X57602120Y-72958960D01*
X56633160Y-71990000D02*
X54928900Y-71990000D01*
X57236360Y-77851000D02*
X57602120Y-77485240D01*
X52000000Y-73554700D02*
X52000000Y-74730000D01*
X52602020Y-73554700D02*
X52000000Y-73554700D01*
X53289200Y-72867520D02*
X52602020Y-73554700D01*
X53289200Y-71757700D02*
X53289200Y-72867520D01*
X54156900Y-70890000D02*
X53289200Y-71757700D01*
X54928900Y-70890000D02*
X54156900Y-70890000D01*
X52000000Y-72190000D02*
X52000000Y-71014700D01*
X52000000Y-71014700D02*
X52891800Y-71014700D01*
X52891800Y-71014700D02*
X54116500Y-69790000D01*
X54116500Y-69790000D02*
X54928900Y-69790000D01*
X54928900Y-68690000D02*
X53603600Y-68690000D01*
X52000000Y-69650000D02*
X53175300Y-69650000D01*
X53175300Y-69650000D02*
X53603600Y-69221700D01*
X53603600Y-69221700D02*
X53603600Y-68690000D01*
X54928900Y-67590000D02*
X53603600Y-67590000D01*
X52000000Y-67110000D02*
X53175300Y-67110000D01*
X53175300Y-67110000D02*
X53603600Y-67538300D01*
X53603600Y-67538300D02*
X53603600Y-67590000D01*
X52000000Y-64570000D02*
X52000000Y-65745300D01*
X54928900Y-66490000D02*
X53603600Y-66490000D01*
X52000000Y-65745300D02*
X52858900Y-65745300D01*
X52858900Y-65745300D02*
X53603600Y-66490000D01*
X53603600Y-65390000D02*
X54928900Y-65390000D01*
X53603600Y-64134440D02*
X53603600Y-65390000D01*
X52674460Y-63205300D02*
X53603600Y-64134440D01*
X52000000Y-63205300D02*
X52674460Y-63205300D01*
X52000000Y-62030000D02*
X52000000Y-63205300D01*
X56254200Y-64290000D02*
X54928900Y-64290000D01*
X58283720Y-62260480D02*
X56254200Y-64290000D01*
X58988960Y-62260480D02*
X58283720Y-62260480D01*
X57536080Y-61908120D02*
X56254200Y-63190000D01*
X56254200Y-63190000D02*
X54928900Y-63190000D01*
X57536080Y-61432440D02*
X57536080Y-61908120D01*
X73254200Y-65390000D02*
X71928900Y-65390000D01*
X73254200Y-64281720D02*
X73254200Y-65390000D01*
X74244200Y-63291720D02*
X73254200Y-64281720D01*
X74691240Y-63291720D02*
X74244200Y-63291720D01*
X74860000Y-63122960D02*
X74691240Y-63291720D01*
X74860000Y-62030000D02*
X74860000Y-63122960D01*
X70603600Y-64290000D02*
X71928900Y-64290000D01*
X68430100Y-62116500D02*
X70603600Y-64290000D01*
X68320920Y-62116500D02*
X68430100Y-62116500D01*
X70603600Y-62744840D02*
X70603600Y-63190000D01*
X68976240Y-61117480D02*
X70603600Y-62744840D01*
X70603600Y-63190000D02*
X71928900Y-63190000D01*
X73254200Y-62090000D02*
X71928900Y-62090000D01*
X73254200Y-56539800D02*
X73254200Y-62090000D01*
X74208700Y-55585300D02*
X73254200Y-56539800D01*
X74860000Y-55585300D02*
X74208700Y-55585300D01*
X74860000Y-54410000D02*
X74860000Y-55585300D01*
X54928900Y-81555460D02*
X54928900Y-75290000D01*
X52769660Y-83714700D02*
X54928900Y-81555460D01*
X52000000Y-83714700D02*
X52769660Y-83714700D01*
X52000000Y-84890000D02*
X52000000Y-83714700D01*
X73254200Y-73090000D02*
X71928900Y-73090000D01*
X73254200Y-77663640D02*
X73254200Y-73090000D01*
X74225260Y-78634700D02*
X73254200Y-77663640D01*
X74860000Y-78634700D02*
X74225260Y-78634700D01*
X74860000Y-79810000D02*
X74860000Y-78634700D01*
X73522840Y-72085200D02*
X73427640Y-71990000D01*
X74279760Y-73472040D02*
X73522840Y-72715120D01*
X75266840Y-73472040D02*
X74279760Y-73472040D01*
X76144120Y-74349320D02*
X75266840Y-73472040D01*
X76144120Y-75509120D02*
X76144120Y-74349320D01*
X73427640Y-71990000D02*
X71928900Y-71990000D01*
X74860000Y-76793240D02*
X76144120Y-75509120D01*
X73522840Y-72715120D02*
X73522840Y-72085200D01*
X74860000Y-77270000D02*
X74860000Y-76793240D01*
X73254200Y-66490000D02*
X71928900Y-66490000D01*
X73917560Y-65826640D02*
X73254200Y-66490000D01*
X74860000Y-65826640D02*
X73917560Y-65826640D01*
X74860000Y-64570000D02*
X74860000Y-65826640D01*
X72471700Y-60447200D02*
X71928900Y-60990000D01*
X72471700Y-54751820D02*
X72471700Y-60447200D01*
X74178220Y-53045300D02*
X72471700Y-54751820D01*
X74860000Y-53045300D02*
X74178220Y-53045300D01*
X74860000Y-51870000D02*
X74860000Y-53045300D01*
M02*
