G04 #@! TF.GenerationSoftware,KiCad,Pcbnew,5.1.5+dfsg1-2build2*
G04 #@! TF.CreationDate,2022-08-21T18:45:02-05:00*
G04 #@! TF.ProjectId,ms88sf2-breakout,6d733838-7366-4322-9d62-7265616b6f75,rev?*
G04 #@! TF.SameCoordinates,Original*
G04 #@! TF.FileFunction,Copper,L2,Bot*
G04 #@! TF.FilePolarity,Positive*
%FSLAX46Y46*%
G04 Gerber Fmt 4.6, Leading zero omitted, Abs format (unit mm)*
G04 Created by KiCad (PCBNEW 5.1.5+dfsg1-2build2) date 2022-08-21 18:45:02*
%MOMM*%
%LPD*%
G04 APERTURE LIST*
%ADD10O,1.700000X1.700000*%
%ADD11R,1.700000X1.700000*%
%ADD12C,0.800000*%
%ADD13C,0.250000*%
G04 APERTURE END LIST*
D10*
X77400000Y-84890000D03*
X77400000Y-82350000D03*
X77400000Y-79810000D03*
X77400000Y-77270000D03*
X77400000Y-74730000D03*
X77400000Y-72190000D03*
X77400000Y-69650000D03*
X77400000Y-67110000D03*
X77400000Y-64570000D03*
X77400000Y-62030000D03*
X77400000Y-59490000D03*
X77400000Y-56950000D03*
X77400000Y-54410000D03*
D11*
X77400000Y-51870000D03*
D10*
X74860000Y-84890000D03*
X74860000Y-82350000D03*
X74860000Y-79810000D03*
X74860000Y-77270000D03*
X74860000Y-74730000D03*
X74860000Y-72190000D03*
X74860000Y-69650000D03*
X74860000Y-67110000D03*
X74860000Y-64570000D03*
X74860000Y-62030000D03*
X74860000Y-59490000D03*
X74860000Y-56950000D03*
X74860000Y-54410000D03*
D11*
X74860000Y-51870000D03*
D10*
X52000000Y-84890000D03*
X52000000Y-82350000D03*
X52000000Y-79810000D03*
X52000000Y-77270000D03*
X52000000Y-74730000D03*
X52000000Y-72190000D03*
X52000000Y-69650000D03*
X52000000Y-67110000D03*
X52000000Y-64570000D03*
X52000000Y-62030000D03*
X52000000Y-59490000D03*
X52000000Y-56950000D03*
X52000000Y-54410000D03*
D11*
X52000000Y-51870000D03*
D12*
X68625720Y-74711560D03*
X56177000Y-79019100D03*
X57236360Y-77851000D03*
X58988960Y-62260480D03*
X57536080Y-61432440D03*
X68320920Y-62116500D03*
X68976240Y-61117480D03*
D13*
X54813200Y-51429920D02*
X53175300Y-53067820D01*
X72191880Y-51429920D02*
X54813200Y-51429920D01*
X73929240Y-53167280D02*
X72191880Y-51429920D01*
X75534520Y-53167280D02*
X73929240Y-53167280D01*
X76224700Y-53857460D02*
X75534520Y-53167280D01*
X76224700Y-54410000D02*
X76224700Y-53857460D01*
X53175300Y-54410000D02*
X52000000Y-54410000D01*
X53175300Y-53067820D02*
X53175300Y-54410000D01*
X77400000Y-54410000D02*
X76224700Y-54410000D01*
X52000000Y-51870000D02*
X53175300Y-51870000D01*
X77400000Y-51870000D02*
X76224700Y-51870000D01*
X76224700Y-51870000D02*
X76224700Y-51062000D01*
X76224700Y-51062000D02*
X75857400Y-50694700D01*
X75857400Y-50694700D02*
X54350600Y-50694700D01*
X54350600Y-50694700D02*
X53175300Y-51870000D01*
X68644160Y-74730000D02*
X68625720Y-74711560D01*
X74860000Y-74730000D02*
X68644160Y-74730000D01*
X53175300Y-82350000D02*
X52000000Y-82350000D01*
X54467500Y-83642200D02*
X53175300Y-82350000D01*
X76224700Y-82799620D02*
X75382120Y-83642200D01*
X75382120Y-83642200D02*
X54467500Y-83642200D01*
X76224700Y-82350000D02*
X76224700Y-82799620D01*
X77400000Y-82350000D02*
X76224700Y-82350000D01*
X56177000Y-79810000D02*
X56177000Y-79019100D01*
X56177000Y-79810000D02*
X53175300Y-79810000D01*
X52000000Y-79810000D02*
X53175300Y-79810000D01*
X57464120Y-81097120D02*
X56177000Y-79810000D01*
X76224700Y-80371380D02*
X75498960Y-81097120D01*
X76224700Y-79810000D02*
X76224700Y-80371380D01*
X75498960Y-81097120D02*
X57464120Y-81097120D01*
X77400000Y-79810000D02*
X76224700Y-79810000D01*
X57236360Y-77851000D02*
X56655360Y-77270000D01*
X56655360Y-77270000D02*
X52000000Y-77270000D01*
X76224700Y-77270000D02*
X77400000Y-77270000D01*
X76224700Y-77795820D02*
X76224700Y-77270000D01*
X75432920Y-78587600D02*
X76224700Y-77795820D01*
X57972960Y-78587600D02*
X75432920Y-78587600D01*
X57236360Y-77851000D02*
X57972960Y-78587600D01*
X53175300Y-74730000D02*
X52000000Y-74730000D01*
X56103100Y-74730000D02*
X53175300Y-74730000D01*
X57334340Y-75961240D02*
X56103100Y-74730000D01*
X75483720Y-75961240D02*
X57334340Y-75961240D01*
X76224700Y-75220260D02*
X75483720Y-75961240D01*
X76224700Y-74730000D02*
X76224700Y-75220260D01*
X77400000Y-74730000D02*
X76224700Y-74730000D01*
X53175300Y-72190000D02*
X52000000Y-72190000D01*
X54452260Y-73466960D02*
X53175300Y-72190000D01*
X75565000Y-73466960D02*
X54452260Y-73466960D01*
X76224700Y-72807260D02*
X75565000Y-73466960D01*
X76224700Y-72190000D02*
X76224700Y-72807260D01*
X77400000Y-72190000D02*
X76224700Y-72190000D01*
X53175300Y-69650000D02*
X52000000Y-69650000D01*
X75524360Y-70932040D02*
X54457340Y-70932040D01*
X76224700Y-70231700D02*
X75524360Y-70932040D01*
X76224700Y-69650000D02*
X76224700Y-70231700D01*
X54457340Y-70932040D02*
X53175300Y-69650000D01*
X77400000Y-69650000D02*
X76224700Y-69650000D01*
X52000000Y-67110000D02*
X53175300Y-67110000D01*
X77400000Y-67110000D02*
X76224700Y-67110000D01*
X76224700Y-67110000D02*
X76224700Y-67477300D01*
X76224700Y-67477300D02*
X75416700Y-68285300D01*
X75416700Y-68285300D02*
X54350600Y-68285300D01*
X54350600Y-68285300D02*
X53175300Y-67110000D01*
X53175300Y-64570000D02*
X52000000Y-64570000D01*
X75335360Y-65826640D02*
X54431940Y-65826640D01*
X76224700Y-64937300D02*
X75335360Y-65826640D01*
X54431940Y-65826640D02*
X53175300Y-64570000D01*
X76224700Y-64570000D02*
X76224700Y-64937300D01*
X77400000Y-64570000D02*
X76224700Y-64570000D01*
X76224700Y-62030000D02*
X77400000Y-62030000D01*
X76224700Y-62662500D02*
X76224700Y-62030000D01*
X75575160Y-63312040D02*
X76224700Y-62662500D01*
X54457340Y-63312040D02*
X75575160Y-63312040D01*
X53175300Y-62030000D02*
X54457340Y-63312040D01*
X52000000Y-62030000D02*
X53175300Y-62030000D01*
X58988960Y-62260480D02*
X55211180Y-62260480D01*
X55211180Y-62260480D02*
X53175300Y-60224600D01*
X53175300Y-59490000D02*
X52000000Y-59490000D01*
X53175300Y-60224600D02*
X53175300Y-59490000D01*
X76224700Y-59490000D02*
X77400000Y-59490000D01*
X76224700Y-59857400D02*
X76224700Y-59490000D01*
X75416800Y-60665300D02*
X76224700Y-59857400D01*
X73783200Y-60665300D02*
X75416800Y-60665300D01*
X71593100Y-62855400D02*
X73783200Y-60665300D01*
X67452800Y-62855400D02*
X71593100Y-62855400D01*
X66857880Y-62260480D02*
X67452800Y-62855400D01*
X58988960Y-62260480D02*
X66857880Y-62260480D01*
X53675300Y-56950000D02*
X53175300Y-56950000D01*
X52000000Y-56950000D02*
X53175300Y-56950000D01*
X53675300Y-60052000D02*
X53675300Y-56950000D01*
X57536080Y-61432440D02*
X55055740Y-61432440D01*
X55055740Y-61432440D02*
X53675300Y-60052000D01*
X71821360Y-52181760D02*
X54889340Y-52181760D01*
X73173300Y-54429900D02*
X73173300Y-53533700D01*
X74404960Y-55661560D02*
X73173300Y-54429900D01*
X75549760Y-55661560D02*
X74404960Y-55661560D01*
X53675300Y-53395800D02*
X53675300Y-56950000D01*
X73173300Y-53533700D02*
X71821360Y-52181760D01*
X76224700Y-56336500D02*
X75549760Y-55661560D01*
X76224700Y-56950000D02*
X76224700Y-56336500D01*
X54889340Y-52181760D02*
X53675300Y-53395800D01*
X77400000Y-56950000D02*
X76224700Y-56950000D01*
X73684700Y-59490000D02*
X74860000Y-59490000D01*
X73684700Y-59808400D02*
X73684700Y-59490000D01*
X71376600Y-62116500D02*
X73684700Y-59808400D01*
X68320920Y-62116500D02*
X71376600Y-62116500D01*
X73119000Y-59394700D02*
X74388400Y-58125300D01*
X73119000Y-59711300D02*
X73119000Y-59394700D01*
X71712820Y-61117480D02*
X73119000Y-59711300D01*
X74860000Y-58125300D02*
X74860000Y-56950000D01*
X74388400Y-58125300D02*
X74860000Y-58125300D01*
X68976240Y-61117480D02*
X71712820Y-61117480D01*
X53175300Y-84890000D02*
X52000000Y-84890000D01*
X54543700Y-86258400D02*
X53175300Y-84890000D01*
X75336400Y-86258400D02*
X54543700Y-86258400D01*
X76093320Y-85501480D02*
X75336400Y-86258400D01*
X76093320Y-84890000D02*
X76093320Y-85501480D01*
X77400000Y-84890000D02*
X76093320Y-84890000D01*
M02*
