G04 #@! TF.GenerationSoftware,KiCad,Pcbnew,5.1.5+dfsg1-2build2*
G04 #@! TF.CreationDate,2022-08-21T18:45:02-05:00*
G04 #@! TF.ProjectId,ms88sf2-breakout,6d733838-7366-4322-9d62-7265616b6f75,rev?*
G04 #@! TF.SameCoordinates,Original*
G04 #@! TF.FileFunction,Legend,Top*
G04 #@! TF.FilePolarity,Positive*
%FSLAX46Y46*%
G04 Gerber Fmt 4.6, Leading zero omitted, Abs format (unit mm)*
G04 Created by KiCad (PCBNEW 5.1.5+dfsg1-2build2) date 2022-08-21 18:45:02*
%MOMM*%
%LPD*%
G04 APERTURE LIST*
%ADD10C,0.120000*%
%ADD11C,0.125000*%
%ADD12C,0.150000*%
%ADD13C,0.010000*%
G04 APERTURE END LIST*
D10*
X71749920Y-77109320D02*
X72669400Y-77109320D01*
X71749920Y-82483960D02*
X71749920Y-77109320D01*
X70932040Y-82483960D02*
X71744840Y-82483960D01*
X66553080Y-77221080D02*
X67472560Y-77221080D01*
X65735200Y-82595720D02*
X66548000Y-82595720D01*
X66553080Y-82595720D02*
X66553080Y-77221080D01*
X54970680Y-77053440D02*
X55890160Y-77053440D01*
X54970680Y-82428080D02*
X54970680Y-77053440D01*
X54152800Y-82428080D02*
X54965600Y-82428080D01*
D11*
X71357468Y-77972348D02*
X71014611Y-77972348D01*
X71186040Y-77972348D02*
X71186040Y-77372348D01*
X71128897Y-77458062D01*
X71071754Y-77515205D01*
X71014611Y-77543777D01*
X71014611Y-78454491D02*
X71043182Y-78425920D01*
X71100325Y-78397348D01*
X71243182Y-78397348D01*
X71300325Y-78425920D01*
X71328897Y-78454491D01*
X71357468Y-78511634D01*
X71357468Y-78568777D01*
X71328897Y-78654491D01*
X70986040Y-78997348D01*
X71357468Y-78997348D01*
X70986040Y-79422348D02*
X71357468Y-79422348D01*
X71157468Y-79650920D01*
X71243182Y-79650920D01*
X71300325Y-79679491D01*
X71328897Y-79708062D01*
X71357468Y-79765205D01*
X71357468Y-79908062D01*
X71328897Y-79965205D01*
X71300325Y-79993777D01*
X71243182Y-80022348D01*
X71071754Y-80022348D01*
X71014611Y-79993777D01*
X70986040Y-79965205D01*
X71300325Y-80647348D02*
X71300325Y-81047348D01*
X71157468Y-80418777D02*
X71014611Y-80847348D01*
X71386040Y-80847348D01*
X71328897Y-81472348D02*
X71043182Y-81472348D01*
X71014611Y-81758062D01*
X71043182Y-81729491D01*
X71100325Y-81700920D01*
X71243182Y-81700920D01*
X71300325Y-81729491D01*
X71328897Y-81758062D01*
X71357468Y-81815205D01*
X71357468Y-81958062D01*
X71328897Y-82015205D01*
X71300325Y-82043777D01*
X71243182Y-82072348D01*
X71100325Y-82072348D01*
X71043182Y-82043777D01*
X71014611Y-82015205D01*
X72687165Y-77405148D02*
X72572880Y-77405148D01*
X72515737Y-77433720D01*
X72487165Y-77462291D01*
X72430022Y-77548005D01*
X72401451Y-77662291D01*
X72401451Y-77890862D01*
X72430022Y-77948005D01*
X72458594Y-77976577D01*
X72515737Y-78005148D01*
X72630022Y-78005148D01*
X72687165Y-77976577D01*
X72715737Y-77948005D01*
X72744308Y-77890862D01*
X72744308Y-77748005D01*
X72715737Y-77690862D01*
X72687165Y-77662291D01*
X72630022Y-77633720D01*
X72515737Y-77633720D01*
X72458594Y-77662291D01*
X72430022Y-77690862D01*
X72401451Y-77748005D01*
X72372880Y-78430148D02*
X72772880Y-78430148D01*
X72515737Y-79030148D01*
X72515737Y-79712291D02*
X72458594Y-79683720D01*
X72430022Y-79655148D01*
X72401451Y-79598005D01*
X72401451Y-79569434D01*
X72430022Y-79512291D01*
X72458594Y-79483720D01*
X72515737Y-79455148D01*
X72630022Y-79455148D01*
X72687165Y-79483720D01*
X72715737Y-79512291D01*
X72744308Y-79569434D01*
X72744308Y-79598005D01*
X72715737Y-79655148D01*
X72687165Y-79683720D01*
X72630022Y-79712291D01*
X72515737Y-79712291D01*
X72458594Y-79740862D01*
X72430022Y-79769434D01*
X72401451Y-79826577D01*
X72401451Y-79940862D01*
X72430022Y-79998005D01*
X72458594Y-80026577D01*
X72515737Y-80055148D01*
X72630022Y-80055148D01*
X72687165Y-80026577D01*
X72715737Y-79998005D01*
X72744308Y-79940862D01*
X72744308Y-79826577D01*
X72715737Y-79769434D01*
X72687165Y-79740862D01*
X72630022Y-79712291D01*
X72458594Y-81080148D02*
X72572880Y-81080148D01*
X72630022Y-81051577D01*
X72658594Y-81023005D01*
X72715737Y-80937291D01*
X72744308Y-80823005D01*
X72744308Y-80594434D01*
X72715737Y-80537291D01*
X72687165Y-80508720D01*
X72630022Y-80480148D01*
X72515737Y-80480148D01*
X72458594Y-80508720D01*
X72430022Y-80537291D01*
X72401451Y-80594434D01*
X72401451Y-80737291D01*
X72430022Y-80794434D01*
X72458594Y-80823005D01*
X72515737Y-80851577D01*
X72630022Y-80851577D01*
X72687165Y-80823005D01*
X72715737Y-80794434D01*
X72744308Y-80737291D01*
X72458594Y-82105148D02*
X72115737Y-82105148D01*
X72287165Y-82105148D02*
X72287165Y-81505148D01*
X72230022Y-81590862D01*
X72172880Y-81648005D01*
X72115737Y-81676577D01*
X72830022Y-81505148D02*
X72887165Y-81505148D01*
X72944308Y-81533720D01*
X72972880Y-81562291D01*
X73001451Y-81619434D01*
X73030022Y-81733720D01*
X73030022Y-81876577D01*
X73001451Y-81990862D01*
X72972880Y-82048005D01*
X72944308Y-82076577D01*
X72887165Y-82105148D01*
X72830022Y-82105148D01*
X72772880Y-82076577D01*
X72744308Y-82048005D01*
X72715737Y-81990862D01*
X72687165Y-81876577D01*
X72687165Y-81733720D01*
X72715737Y-81619434D01*
X72744308Y-81562291D01*
X72772880Y-81533720D01*
X72830022Y-81505148D01*
X72458594Y-83130148D02*
X72115737Y-83130148D01*
X72287165Y-83130148D02*
X72287165Y-82530148D01*
X72230022Y-82615862D01*
X72172880Y-82673005D01*
X72115737Y-82701577D01*
X73030022Y-83130148D02*
X72687165Y-83130148D01*
X72858594Y-83130148D02*
X72858594Y-82530148D01*
X72801451Y-82615862D01*
X72744308Y-82673005D01*
X72687165Y-82701577D01*
X72458594Y-84155148D02*
X72115737Y-84155148D01*
X72287165Y-84155148D02*
X72287165Y-83555148D01*
X72230022Y-83640862D01*
X72172880Y-83698005D01*
X72115737Y-83726577D01*
X72687165Y-83612291D02*
X72715737Y-83583720D01*
X72772880Y-83555148D01*
X72915737Y-83555148D01*
X72972880Y-83583720D01*
X73001451Y-83612291D01*
X73030022Y-83669434D01*
X73030022Y-83726577D01*
X73001451Y-83812291D01*
X72658594Y-84155148D01*
X73030022Y-84155148D01*
X72458594Y-85180148D02*
X72115737Y-85180148D01*
X72287165Y-85180148D02*
X72287165Y-84580148D01*
X72230022Y-84665862D01*
X72172880Y-84723005D01*
X72115737Y-84751577D01*
X72658594Y-84580148D02*
X73030022Y-84580148D01*
X72830022Y-84808720D01*
X72915737Y-84808720D01*
X72972880Y-84837291D01*
X73001451Y-84865862D01*
X73030022Y-84923005D01*
X73030022Y-85065862D01*
X73001451Y-85123005D01*
X72972880Y-85151577D01*
X72915737Y-85180148D01*
X72744308Y-85180148D01*
X72687165Y-85151577D01*
X72658594Y-85123005D01*
X72458594Y-86205148D02*
X72115737Y-86205148D01*
X72287165Y-86205148D02*
X72287165Y-85605148D01*
X72230022Y-85690862D01*
X72172880Y-85748005D01*
X72115737Y-85776577D01*
X72972880Y-85805148D02*
X72972880Y-86205148D01*
X72830022Y-85576577D02*
X72687165Y-86005148D01*
X73058594Y-86005148D01*
X65267897Y-77602211D02*
X65296468Y-77573640D01*
X65353611Y-77545068D01*
X65496468Y-77545068D01*
X65553611Y-77573640D01*
X65582182Y-77602211D01*
X65610754Y-77659354D01*
X65610754Y-77716497D01*
X65582182Y-77802211D01*
X65239325Y-78145068D01*
X65610754Y-78145068D01*
X65953611Y-77802211D02*
X65896468Y-77773640D01*
X65867897Y-77745068D01*
X65839325Y-77687925D01*
X65839325Y-77659354D01*
X65867897Y-77602211D01*
X65896468Y-77573640D01*
X65953611Y-77545068D01*
X66067897Y-77545068D01*
X66125040Y-77573640D01*
X66153611Y-77602211D01*
X66182182Y-77659354D01*
X66182182Y-77687925D01*
X66153611Y-77745068D01*
X66125040Y-77773640D01*
X66067897Y-77802211D01*
X65953611Y-77802211D01*
X65896468Y-77830782D01*
X65867897Y-77859354D01*
X65839325Y-77916497D01*
X65839325Y-78030782D01*
X65867897Y-78087925D01*
X65896468Y-78116497D01*
X65953611Y-78145068D01*
X66067897Y-78145068D01*
X66125040Y-78116497D01*
X66153611Y-78087925D01*
X66182182Y-78030782D01*
X66182182Y-77916497D01*
X66153611Y-77859354D01*
X66125040Y-77830782D01*
X66067897Y-77802211D01*
X65267897Y-78627211D02*
X65296468Y-78598640D01*
X65353611Y-78570068D01*
X65496468Y-78570068D01*
X65553611Y-78598640D01*
X65582182Y-78627211D01*
X65610754Y-78684354D01*
X65610754Y-78741497D01*
X65582182Y-78827211D01*
X65239325Y-79170068D01*
X65610754Y-79170068D01*
X65810754Y-78570068D02*
X66210754Y-78570068D01*
X65953611Y-79170068D01*
X65267897Y-79652211D02*
X65296468Y-79623640D01*
X65353611Y-79595068D01*
X65496468Y-79595068D01*
X65553611Y-79623640D01*
X65582182Y-79652211D01*
X65610754Y-79709354D01*
X65610754Y-79766497D01*
X65582182Y-79852211D01*
X65239325Y-80195068D01*
X65610754Y-80195068D01*
X66125040Y-79595068D02*
X66010754Y-79595068D01*
X65953611Y-79623640D01*
X65925040Y-79652211D01*
X65867897Y-79737925D01*
X65839325Y-79852211D01*
X65839325Y-80080782D01*
X65867897Y-80137925D01*
X65896468Y-80166497D01*
X65953611Y-80195068D01*
X66067897Y-80195068D01*
X66125040Y-80166497D01*
X66153611Y-80137925D01*
X66182182Y-80080782D01*
X66182182Y-79937925D01*
X66153611Y-79880782D01*
X66125040Y-79852211D01*
X66067897Y-79823640D01*
X65953611Y-79823640D01*
X65896468Y-79852211D01*
X65867897Y-79880782D01*
X65839325Y-79937925D01*
X65267897Y-80677211D02*
X65296468Y-80648640D01*
X65353611Y-80620068D01*
X65496468Y-80620068D01*
X65553611Y-80648640D01*
X65582182Y-80677211D01*
X65610754Y-80734354D01*
X65610754Y-80791497D01*
X65582182Y-80877211D01*
X65239325Y-81220068D01*
X65610754Y-81220068D01*
X66153611Y-80620068D02*
X65867897Y-80620068D01*
X65839325Y-80905782D01*
X65867897Y-80877211D01*
X65925040Y-80848640D01*
X66067897Y-80848640D01*
X66125040Y-80877211D01*
X66153611Y-80905782D01*
X66182182Y-80962925D01*
X66182182Y-81105782D01*
X66153611Y-81162925D01*
X66125040Y-81191497D01*
X66067897Y-81220068D01*
X65925040Y-81220068D01*
X65867897Y-81191497D01*
X65839325Y-81162925D01*
X65267897Y-81702211D02*
X65296468Y-81673640D01*
X65353611Y-81645068D01*
X65496468Y-81645068D01*
X65553611Y-81673640D01*
X65582182Y-81702211D01*
X65610754Y-81759354D01*
X65610754Y-81816497D01*
X65582182Y-81902211D01*
X65239325Y-82245068D01*
X65610754Y-82245068D01*
X66125040Y-81845068D02*
X66125040Y-82245068D01*
X65982182Y-81616497D02*
X65839325Y-82045068D01*
X66210754Y-82045068D01*
X54451228Y-77952028D02*
X54108371Y-77952028D01*
X54279800Y-77952028D02*
X54279800Y-77352028D01*
X54222657Y-77437742D01*
X54165514Y-77494885D01*
X54108371Y-77523457D01*
X54108371Y-78434171D02*
X54136942Y-78405600D01*
X54194085Y-78377028D01*
X54336942Y-78377028D01*
X54394085Y-78405600D01*
X54422657Y-78434171D01*
X54451228Y-78491314D01*
X54451228Y-78548457D01*
X54422657Y-78634171D01*
X54079800Y-78977028D01*
X54451228Y-78977028D01*
X54079800Y-79402028D02*
X54451228Y-79402028D01*
X54251228Y-79630600D01*
X54336942Y-79630600D01*
X54394085Y-79659171D01*
X54422657Y-79687742D01*
X54451228Y-79744885D01*
X54451228Y-79887742D01*
X54422657Y-79944885D01*
X54394085Y-79973457D01*
X54336942Y-80002028D01*
X54165514Y-80002028D01*
X54108371Y-79973457D01*
X54079800Y-79944885D01*
X54394085Y-80627028D02*
X54394085Y-81027028D01*
X54251228Y-80398457D02*
X54108371Y-80827028D01*
X54479800Y-80827028D01*
X54422657Y-81452028D02*
X54136942Y-81452028D01*
X54108371Y-81737742D01*
X54136942Y-81709171D01*
X54194085Y-81680600D01*
X54336942Y-81680600D01*
X54394085Y-81709171D01*
X54422657Y-81737742D01*
X54451228Y-81794885D01*
X54451228Y-81937742D01*
X54422657Y-81994885D01*
X54394085Y-82023457D01*
X54336942Y-82052028D01*
X54194085Y-82052028D01*
X54136942Y-82023457D01*
X54108371Y-81994885D01*
X66949377Y-77604531D02*
X66977948Y-77575960D01*
X67035091Y-77547388D01*
X67177948Y-77547388D01*
X67235091Y-77575960D01*
X67263662Y-77604531D01*
X67292234Y-77661674D01*
X67292234Y-77718817D01*
X67263662Y-77804531D01*
X66920805Y-78147388D01*
X67292234Y-78147388D01*
X67492234Y-77547388D02*
X67863662Y-77547388D01*
X67663662Y-77775960D01*
X67749377Y-77775960D01*
X67806520Y-77804531D01*
X67835091Y-77833102D01*
X67863662Y-77890245D01*
X67863662Y-78033102D01*
X67835091Y-78090245D01*
X67806520Y-78118817D01*
X67749377Y-78147388D01*
X67577948Y-78147388D01*
X67520805Y-78118817D01*
X67492234Y-78090245D01*
X66949377Y-78629531D02*
X66977948Y-78600960D01*
X67035091Y-78572388D01*
X67177948Y-78572388D01*
X67235091Y-78600960D01*
X67263662Y-78629531D01*
X67292234Y-78686674D01*
X67292234Y-78743817D01*
X67263662Y-78829531D01*
X66920805Y-79172388D01*
X67292234Y-79172388D01*
X67520805Y-78629531D02*
X67549377Y-78600960D01*
X67606520Y-78572388D01*
X67749377Y-78572388D01*
X67806520Y-78600960D01*
X67835091Y-78629531D01*
X67863662Y-78686674D01*
X67863662Y-78743817D01*
X67835091Y-78829531D01*
X67492234Y-79172388D01*
X67863662Y-79172388D01*
X66949377Y-79654531D02*
X66977948Y-79625960D01*
X67035091Y-79597388D01*
X67177948Y-79597388D01*
X67235091Y-79625960D01*
X67263662Y-79654531D01*
X67292234Y-79711674D01*
X67292234Y-79768817D01*
X67263662Y-79854531D01*
X66920805Y-80197388D01*
X67292234Y-80197388D01*
X67863662Y-80197388D02*
X67520805Y-80197388D01*
X67692234Y-80197388D02*
X67692234Y-79597388D01*
X67635091Y-79683102D01*
X67577948Y-79740245D01*
X67520805Y-79768817D01*
X66949377Y-80679531D02*
X66977948Y-80650960D01*
X67035091Y-80622388D01*
X67177948Y-80622388D01*
X67235091Y-80650960D01*
X67263662Y-80679531D01*
X67292234Y-80736674D01*
X67292234Y-80793817D01*
X67263662Y-80879531D01*
X66920805Y-81222388D01*
X67292234Y-81222388D01*
X67663662Y-80622388D02*
X67720805Y-80622388D01*
X67777948Y-80650960D01*
X67806520Y-80679531D01*
X67835091Y-80736674D01*
X67863662Y-80850960D01*
X67863662Y-80993817D01*
X67835091Y-81108102D01*
X67806520Y-81165245D01*
X67777948Y-81193817D01*
X67720805Y-81222388D01*
X67663662Y-81222388D01*
X67606520Y-81193817D01*
X67577948Y-81165245D01*
X67549377Y-81108102D01*
X67520805Y-80993817D01*
X67520805Y-80850960D01*
X67549377Y-80736674D01*
X67577948Y-80679531D01*
X67606520Y-80650960D01*
X67663662Y-80622388D01*
X67292234Y-82247388D02*
X66949377Y-82247388D01*
X67120805Y-82247388D02*
X67120805Y-81647388D01*
X67063662Y-81733102D01*
X67006520Y-81790245D01*
X66949377Y-81818817D01*
X67577948Y-82247388D02*
X67692234Y-82247388D01*
X67749377Y-82218817D01*
X67777948Y-82190245D01*
X67835091Y-82104531D01*
X67863662Y-81990245D01*
X67863662Y-81761674D01*
X67835091Y-81704531D01*
X67806520Y-81675960D01*
X67749377Y-81647388D01*
X67635091Y-81647388D01*
X67577948Y-81675960D01*
X67549377Y-81704531D01*
X67520805Y-81761674D01*
X67520805Y-81904531D01*
X67549377Y-81961674D01*
X67577948Y-81990245D01*
X67635091Y-82018817D01*
X67749377Y-82018817D01*
X67806520Y-81990245D01*
X67835091Y-81961674D01*
X67863662Y-81904531D01*
X67292234Y-83272388D02*
X66949377Y-83272388D01*
X67120805Y-83272388D02*
X67120805Y-82672388D01*
X67063662Y-82758102D01*
X67006520Y-82815245D01*
X66949377Y-82843817D01*
X67635091Y-82929531D02*
X67577948Y-82900960D01*
X67549377Y-82872388D01*
X67520805Y-82815245D01*
X67520805Y-82786674D01*
X67549377Y-82729531D01*
X67577948Y-82700960D01*
X67635091Y-82672388D01*
X67749377Y-82672388D01*
X67806520Y-82700960D01*
X67835091Y-82729531D01*
X67863662Y-82786674D01*
X67863662Y-82815245D01*
X67835091Y-82872388D01*
X67806520Y-82900960D01*
X67749377Y-82929531D01*
X67635091Y-82929531D01*
X67577948Y-82958102D01*
X67549377Y-82986674D01*
X67520805Y-83043817D01*
X67520805Y-83158102D01*
X67549377Y-83215245D01*
X67577948Y-83243817D01*
X67635091Y-83272388D01*
X67749377Y-83272388D01*
X67806520Y-83243817D01*
X67835091Y-83215245D01*
X67863662Y-83158102D01*
X67863662Y-83043817D01*
X67835091Y-82986674D01*
X67806520Y-82958102D01*
X67749377Y-82929531D01*
X67292234Y-84297388D02*
X66949377Y-84297388D01*
X67120805Y-84297388D02*
X67120805Y-83697388D01*
X67063662Y-83783102D01*
X67006520Y-83840245D01*
X66949377Y-83868817D01*
X67492234Y-83697388D02*
X67892234Y-83697388D01*
X67635091Y-84297388D01*
X67292234Y-85322388D02*
X66949377Y-85322388D01*
X67120805Y-85322388D02*
X67120805Y-84722388D01*
X67063662Y-84808102D01*
X67006520Y-84865245D01*
X66949377Y-84893817D01*
X67806520Y-84722388D02*
X67692234Y-84722388D01*
X67635091Y-84750960D01*
X67606520Y-84779531D01*
X67549377Y-84865245D01*
X67520805Y-84979531D01*
X67520805Y-85208102D01*
X67549377Y-85265245D01*
X67577948Y-85293817D01*
X67635091Y-85322388D01*
X67749377Y-85322388D01*
X67806520Y-85293817D01*
X67835091Y-85265245D01*
X67863662Y-85208102D01*
X67863662Y-85065245D01*
X67835091Y-85008102D01*
X67806520Y-84979531D01*
X67749377Y-84950960D01*
X67635091Y-84950960D01*
X67577948Y-84979531D01*
X67549377Y-85008102D01*
X67520805Y-85065245D01*
X67292234Y-86347388D02*
X66949377Y-86347388D01*
X67120805Y-86347388D02*
X67120805Y-85747388D01*
X67063662Y-85833102D01*
X67006520Y-85890245D01*
X66949377Y-85918817D01*
X67835091Y-85747388D02*
X67549377Y-85747388D01*
X67520805Y-86033102D01*
X67549377Y-86004531D01*
X67606520Y-85975960D01*
X67749377Y-85975960D01*
X67806520Y-86004531D01*
X67835091Y-86033102D01*
X67863662Y-86090245D01*
X67863662Y-86233102D01*
X67835091Y-86290245D01*
X67806520Y-86318817D01*
X67749377Y-86347388D01*
X67606520Y-86347388D01*
X67549377Y-86318817D01*
X67520805Y-86290245D01*
X55872365Y-77313708D02*
X55758080Y-77313708D01*
X55700937Y-77342280D01*
X55672365Y-77370851D01*
X55615222Y-77456565D01*
X55586651Y-77570851D01*
X55586651Y-77799422D01*
X55615222Y-77856565D01*
X55643794Y-77885137D01*
X55700937Y-77913708D01*
X55815222Y-77913708D01*
X55872365Y-77885137D01*
X55900937Y-77856565D01*
X55929508Y-77799422D01*
X55929508Y-77656565D01*
X55900937Y-77599422D01*
X55872365Y-77570851D01*
X55815222Y-77542280D01*
X55700937Y-77542280D01*
X55643794Y-77570851D01*
X55615222Y-77599422D01*
X55586651Y-77656565D01*
X55558080Y-78338708D02*
X55958080Y-78338708D01*
X55700937Y-78938708D01*
X55700937Y-79620851D02*
X55643794Y-79592280D01*
X55615222Y-79563708D01*
X55586651Y-79506565D01*
X55586651Y-79477994D01*
X55615222Y-79420851D01*
X55643794Y-79392280D01*
X55700937Y-79363708D01*
X55815222Y-79363708D01*
X55872365Y-79392280D01*
X55900937Y-79420851D01*
X55929508Y-79477994D01*
X55929508Y-79506565D01*
X55900937Y-79563708D01*
X55872365Y-79592280D01*
X55815222Y-79620851D01*
X55700937Y-79620851D01*
X55643794Y-79649422D01*
X55615222Y-79677994D01*
X55586651Y-79735137D01*
X55586651Y-79849422D01*
X55615222Y-79906565D01*
X55643794Y-79935137D01*
X55700937Y-79963708D01*
X55815222Y-79963708D01*
X55872365Y-79935137D01*
X55900937Y-79906565D01*
X55929508Y-79849422D01*
X55929508Y-79735137D01*
X55900937Y-79677994D01*
X55872365Y-79649422D01*
X55815222Y-79620851D01*
X55643794Y-80988708D02*
X55758080Y-80988708D01*
X55815222Y-80960137D01*
X55843794Y-80931565D01*
X55900937Y-80845851D01*
X55929508Y-80731565D01*
X55929508Y-80502994D01*
X55900937Y-80445851D01*
X55872365Y-80417280D01*
X55815222Y-80388708D01*
X55700937Y-80388708D01*
X55643794Y-80417280D01*
X55615222Y-80445851D01*
X55586651Y-80502994D01*
X55586651Y-80645851D01*
X55615222Y-80702994D01*
X55643794Y-80731565D01*
X55700937Y-80760137D01*
X55815222Y-80760137D01*
X55872365Y-80731565D01*
X55900937Y-80702994D01*
X55929508Y-80645851D01*
X55643794Y-82013708D02*
X55300937Y-82013708D01*
X55472365Y-82013708D02*
X55472365Y-81413708D01*
X55415222Y-81499422D01*
X55358080Y-81556565D01*
X55300937Y-81585137D01*
X56015222Y-81413708D02*
X56072365Y-81413708D01*
X56129508Y-81442280D01*
X56158080Y-81470851D01*
X56186651Y-81527994D01*
X56215222Y-81642280D01*
X56215222Y-81785137D01*
X56186651Y-81899422D01*
X56158080Y-81956565D01*
X56129508Y-81985137D01*
X56072365Y-82013708D01*
X56015222Y-82013708D01*
X55958080Y-81985137D01*
X55929508Y-81956565D01*
X55900937Y-81899422D01*
X55872365Y-81785137D01*
X55872365Y-81642280D01*
X55900937Y-81527994D01*
X55929508Y-81470851D01*
X55958080Y-81442280D01*
X56015222Y-81413708D01*
X55643794Y-83038708D02*
X55300937Y-83038708D01*
X55472365Y-83038708D02*
X55472365Y-82438708D01*
X55415222Y-82524422D01*
X55358080Y-82581565D01*
X55300937Y-82610137D01*
X56215222Y-83038708D02*
X55872365Y-83038708D01*
X56043794Y-83038708D02*
X56043794Y-82438708D01*
X55986651Y-82524422D01*
X55929508Y-82581565D01*
X55872365Y-82610137D01*
X55643794Y-84063708D02*
X55300937Y-84063708D01*
X55472365Y-84063708D02*
X55472365Y-83463708D01*
X55415222Y-83549422D01*
X55358080Y-83606565D01*
X55300937Y-83635137D01*
X55872365Y-83520851D02*
X55900937Y-83492280D01*
X55958080Y-83463708D01*
X56100937Y-83463708D01*
X56158080Y-83492280D01*
X56186651Y-83520851D01*
X56215222Y-83577994D01*
X56215222Y-83635137D01*
X56186651Y-83720851D01*
X55843794Y-84063708D01*
X56215222Y-84063708D01*
X55643794Y-85088708D02*
X55300937Y-85088708D01*
X55472365Y-85088708D02*
X55472365Y-84488708D01*
X55415222Y-84574422D01*
X55358080Y-84631565D01*
X55300937Y-84660137D01*
X55843794Y-84488708D02*
X56215222Y-84488708D01*
X56015222Y-84717280D01*
X56100937Y-84717280D01*
X56158080Y-84745851D01*
X56186651Y-84774422D01*
X56215222Y-84831565D01*
X56215222Y-84974422D01*
X56186651Y-85031565D01*
X56158080Y-85060137D01*
X56100937Y-85088708D01*
X55929508Y-85088708D01*
X55872365Y-85060137D01*
X55843794Y-85031565D01*
X55643794Y-86113708D02*
X55300937Y-86113708D01*
X55472365Y-86113708D02*
X55472365Y-85513708D01*
X55415222Y-85599422D01*
X55358080Y-85656565D01*
X55300937Y-85685137D01*
X56158080Y-85713708D02*
X56158080Y-86113708D01*
X56015222Y-85485137D02*
X55872365Y-85913708D01*
X56243794Y-85913708D01*
D12*
X58532075Y-51377340D02*
X58532075Y-50377340D01*
X58865408Y-51091626D01*
X59198741Y-50377340D01*
X59198741Y-51377340D01*
X59627313Y-51329721D02*
X59770170Y-51377340D01*
X60008265Y-51377340D01*
X60103503Y-51329721D01*
X60151122Y-51282102D01*
X60198741Y-51186864D01*
X60198741Y-51091626D01*
X60151122Y-50996388D01*
X60103503Y-50948769D01*
X60008265Y-50901150D01*
X59817789Y-50853531D01*
X59722551Y-50805912D01*
X59674932Y-50758293D01*
X59627313Y-50663055D01*
X59627313Y-50567817D01*
X59674932Y-50472579D01*
X59722551Y-50424960D01*
X59817789Y-50377340D01*
X60055884Y-50377340D01*
X60198741Y-50424960D01*
X60770170Y-50805912D02*
X60674932Y-50758293D01*
X60627313Y-50710674D01*
X60579694Y-50615436D01*
X60579694Y-50567817D01*
X60627313Y-50472579D01*
X60674932Y-50424960D01*
X60770170Y-50377340D01*
X60960646Y-50377340D01*
X61055884Y-50424960D01*
X61103503Y-50472579D01*
X61151122Y-50567817D01*
X61151122Y-50615436D01*
X61103503Y-50710674D01*
X61055884Y-50758293D01*
X60960646Y-50805912D01*
X60770170Y-50805912D01*
X60674932Y-50853531D01*
X60627313Y-50901150D01*
X60579694Y-50996388D01*
X60579694Y-51186864D01*
X60627313Y-51282102D01*
X60674932Y-51329721D01*
X60770170Y-51377340D01*
X60960646Y-51377340D01*
X61055884Y-51329721D01*
X61103503Y-51282102D01*
X61151122Y-51186864D01*
X61151122Y-50996388D01*
X61103503Y-50901150D01*
X61055884Y-50853531D01*
X60960646Y-50805912D01*
X61722551Y-50805912D02*
X61627313Y-50758293D01*
X61579694Y-50710674D01*
X61532075Y-50615436D01*
X61532075Y-50567817D01*
X61579694Y-50472579D01*
X61627313Y-50424960D01*
X61722551Y-50377340D01*
X61913027Y-50377340D01*
X62008265Y-50424960D01*
X62055884Y-50472579D01*
X62103503Y-50567817D01*
X62103503Y-50615436D01*
X62055884Y-50710674D01*
X62008265Y-50758293D01*
X61913027Y-50805912D01*
X61722551Y-50805912D01*
X61627313Y-50853531D01*
X61579694Y-50901150D01*
X61532075Y-50996388D01*
X61532075Y-51186864D01*
X61579694Y-51282102D01*
X61627313Y-51329721D01*
X61722551Y-51377340D01*
X61913027Y-51377340D01*
X62008265Y-51329721D01*
X62055884Y-51282102D01*
X62103503Y-51186864D01*
X62103503Y-50996388D01*
X62055884Y-50901150D01*
X62008265Y-50853531D01*
X61913027Y-50805912D01*
X62484456Y-51329721D02*
X62627313Y-51377340D01*
X62865408Y-51377340D01*
X62960646Y-51329721D01*
X63008265Y-51282102D01*
X63055884Y-51186864D01*
X63055884Y-51091626D01*
X63008265Y-50996388D01*
X62960646Y-50948769D01*
X62865408Y-50901150D01*
X62674932Y-50853531D01*
X62579694Y-50805912D01*
X62532075Y-50758293D01*
X62484456Y-50663055D01*
X62484456Y-50567817D01*
X62532075Y-50472579D01*
X62579694Y-50424960D01*
X62674932Y-50377340D01*
X62913027Y-50377340D01*
X63055884Y-50424960D01*
X63817789Y-50853531D02*
X63484456Y-50853531D01*
X63484456Y-51377340D02*
X63484456Y-50377340D01*
X63960646Y-50377340D01*
X64293980Y-50472579D02*
X64341599Y-50424960D01*
X64436837Y-50377340D01*
X64674932Y-50377340D01*
X64770170Y-50424960D01*
X64817789Y-50472579D01*
X64865408Y-50567817D01*
X64865408Y-50663055D01*
X64817789Y-50805912D01*
X64246360Y-51377340D01*
X64865408Y-51377340D01*
X58865408Y-52503531D02*
X59008265Y-52551150D01*
X59055884Y-52598769D01*
X59103503Y-52694007D01*
X59103503Y-52836864D01*
X59055884Y-52932102D01*
X59008265Y-52979721D01*
X58913027Y-53027340D01*
X58532075Y-53027340D01*
X58532075Y-52027340D01*
X58865408Y-52027340D01*
X58960646Y-52074960D01*
X59008265Y-52122579D01*
X59055884Y-52217817D01*
X59055884Y-52313055D01*
X59008265Y-52408293D01*
X58960646Y-52455912D01*
X58865408Y-52503531D01*
X58532075Y-52503531D01*
X60103503Y-53027340D02*
X59770170Y-52551150D01*
X59532075Y-53027340D02*
X59532075Y-52027340D01*
X59913027Y-52027340D01*
X60008265Y-52074960D01*
X60055884Y-52122579D01*
X60103503Y-52217817D01*
X60103503Y-52360674D01*
X60055884Y-52455912D01*
X60008265Y-52503531D01*
X59913027Y-52551150D01*
X59532075Y-52551150D01*
X60532075Y-52503531D02*
X60865408Y-52503531D01*
X61008265Y-53027340D02*
X60532075Y-53027340D01*
X60532075Y-52027340D01*
X61008265Y-52027340D01*
X61389218Y-52741626D02*
X61865408Y-52741626D01*
X61293980Y-53027340D02*
X61627313Y-52027340D01*
X61960646Y-53027340D01*
X62293980Y-53027340D02*
X62293980Y-52027340D01*
X62865408Y-53027340D02*
X62436837Y-52455912D01*
X62865408Y-52027340D02*
X62293980Y-52598769D01*
X63484456Y-52027340D02*
X63674932Y-52027340D01*
X63770170Y-52074960D01*
X63865408Y-52170198D01*
X63913027Y-52360674D01*
X63913027Y-52694007D01*
X63865408Y-52884483D01*
X63770170Y-52979721D01*
X63674932Y-53027340D01*
X63484456Y-53027340D01*
X63389218Y-52979721D01*
X63293980Y-52884483D01*
X63246360Y-52694007D01*
X63246360Y-52360674D01*
X63293980Y-52170198D01*
X63389218Y-52074960D01*
X63484456Y-52027340D01*
X64341599Y-52027340D02*
X64341599Y-52836864D01*
X64389218Y-52932102D01*
X64436837Y-52979721D01*
X64532075Y-53027340D01*
X64722551Y-53027340D01*
X64817789Y-52979721D01*
X64865408Y-52932102D01*
X64913027Y-52836864D01*
X64913027Y-52027340D01*
X65246360Y-52027340D02*
X65817789Y-52027340D01*
X65532075Y-53027340D02*
X65532075Y-52027340D01*
X66770170Y-52027340D02*
X67103503Y-53027340D01*
X67436837Y-52027340D01*
X67960646Y-52027340D02*
X68055884Y-52027340D01*
X68151122Y-52074960D01*
X68198741Y-52122579D01*
X68246360Y-52217817D01*
X68293980Y-52408293D01*
X68293980Y-52646388D01*
X68246360Y-52836864D01*
X68198741Y-52932102D01*
X68151122Y-52979721D01*
X68055884Y-53027340D01*
X67960646Y-53027340D01*
X67865408Y-52979721D01*
X67817789Y-52932102D01*
X67770170Y-52836864D01*
X67722551Y-52646388D01*
X67722551Y-52408293D01*
X67770170Y-52217817D01*
X67817789Y-52122579D01*
X67865408Y-52074960D01*
X67960646Y-52027340D01*
D10*
X54608900Y-53280000D02*
X55428900Y-53280000D01*
X72248900Y-54100000D02*
X72248900Y-53280000D01*
X72248900Y-53280000D02*
X71428900Y-53280000D01*
X54608900Y-75900000D02*
X54608900Y-76720000D01*
X55428900Y-76720000D02*
X54608900Y-76720000D01*
X72248900Y-75900000D02*
X72248900Y-76720000D01*
X71428900Y-76720000D02*
X72248900Y-76720000D01*
X76070000Y-50540000D02*
X77400000Y-50540000D01*
X76070000Y-51870000D02*
X76070000Y-50540000D01*
X76070000Y-53140000D02*
X78730000Y-53140000D01*
X78730000Y-53140000D02*
X78730000Y-86220000D01*
X76070000Y-53140000D02*
X76070000Y-86220000D01*
X76070000Y-86220000D02*
X78730000Y-86220000D01*
X73530000Y-50540000D02*
X74860000Y-50540000D01*
X73530000Y-51870000D02*
X73530000Y-50540000D01*
X73530000Y-53140000D02*
X76190000Y-53140000D01*
X76190000Y-53140000D02*
X76190000Y-86220000D01*
X73530000Y-53140000D02*
X73530000Y-86220000D01*
X73530000Y-86220000D02*
X76190000Y-86220000D01*
X50670000Y-50540000D02*
X52000000Y-50540000D01*
X50670000Y-51870000D02*
X50670000Y-50540000D01*
X50670000Y-53140000D02*
X53330000Y-53140000D01*
X53330000Y-53140000D02*
X53330000Y-86220000D01*
X50670000Y-53140000D02*
X50670000Y-86220000D01*
X50670000Y-86220000D02*
X53330000Y-86220000D01*
D13*
G36*
X63827214Y-54151571D02*
G01*
X63911035Y-54596195D01*
X64220320Y-54723693D01*
X64529606Y-54851191D01*
X64900646Y-54598886D01*
X65004557Y-54528636D01*
X65098487Y-54465912D01*
X65178052Y-54413578D01*
X65238870Y-54374497D01*
X65276557Y-54351533D01*
X65286821Y-54346582D01*
X65305310Y-54359316D01*
X65344820Y-54394522D01*
X65400922Y-54447702D01*
X65469187Y-54514358D01*
X65545186Y-54589994D01*
X65624492Y-54670112D01*
X65702675Y-54750214D01*
X65775307Y-54825804D01*
X65837959Y-54892385D01*
X65886203Y-54945458D01*
X65915610Y-54980527D01*
X65922641Y-54992263D01*
X65912523Y-55013900D01*
X65884159Y-55061302D01*
X65840529Y-55129833D01*
X65784618Y-55214855D01*
X65719406Y-55311733D01*
X65681619Y-55366990D01*
X65612743Y-55467888D01*
X65551540Y-55558939D01*
X65500978Y-55635610D01*
X65464028Y-55693368D01*
X65443658Y-55727683D01*
X65440597Y-55734894D01*
X65447536Y-55755388D01*
X65466451Y-55803153D01*
X65494487Y-55871472D01*
X65528791Y-55953629D01*
X65566509Y-56042910D01*
X65604787Y-56132598D01*
X65640770Y-56215978D01*
X65671606Y-56286334D01*
X65694439Y-56336950D01*
X65706417Y-56361111D01*
X65707124Y-56362062D01*
X65725931Y-56366676D01*
X65776018Y-56376968D01*
X65852193Y-56391927D01*
X65949265Y-56410541D01*
X66062043Y-56431799D01*
X66127842Y-56444058D01*
X66248350Y-56467002D01*
X66357197Y-56488835D01*
X66448876Y-56508362D01*
X66517881Y-56524388D01*
X66558704Y-56535719D01*
X66566911Y-56539314D01*
X66574948Y-56563646D01*
X66581433Y-56618599D01*
X66586370Y-56697748D01*
X66589764Y-56794666D01*
X66591618Y-56902927D01*
X66591938Y-57016105D01*
X66590727Y-57127775D01*
X66587990Y-57231508D01*
X66583731Y-57320881D01*
X66577955Y-57389466D01*
X66570667Y-57430837D01*
X66566295Y-57439450D01*
X66540164Y-57449773D01*
X66484793Y-57464532D01*
X66407507Y-57481992D01*
X66315630Y-57500420D01*
X66283558Y-57506381D01*
X66128924Y-57534706D01*
X66006775Y-57557516D01*
X65913073Y-57575720D01*
X65843784Y-57590223D01*
X65794871Y-57601932D01*
X65762297Y-57611755D01*
X65742028Y-57620596D01*
X65730026Y-57629364D01*
X65728347Y-57631097D01*
X65711584Y-57659011D01*
X65686014Y-57713335D01*
X65654188Y-57787417D01*
X65618660Y-57874605D01*
X65581983Y-57968248D01*
X65546711Y-58061692D01*
X65515396Y-58148287D01*
X65490593Y-58221380D01*
X65474854Y-58274318D01*
X65470732Y-58300451D01*
X65471076Y-58301366D01*
X65485041Y-58322726D01*
X65516722Y-58369724D01*
X65562791Y-58437467D01*
X65619918Y-58521063D01*
X65684773Y-58615622D01*
X65703243Y-58642494D01*
X65769099Y-58739915D01*
X65827050Y-58828803D01*
X65873938Y-58904052D01*
X65906607Y-58960560D01*
X65921900Y-58993221D01*
X65922641Y-58997233D01*
X65909792Y-59018324D01*
X65874288Y-59060104D01*
X65820693Y-59118085D01*
X65753571Y-59187775D01*
X65677487Y-59264685D01*
X65597004Y-59344323D01*
X65516687Y-59422201D01*
X65441099Y-59493826D01*
X65374805Y-59554710D01*
X65322369Y-59600361D01*
X65288355Y-59626290D01*
X65278945Y-59630523D01*
X65257043Y-59620552D01*
X65212200Y-59593660D01*
X65151721Y-59554376D01*
X65105189Y-59522757D01*
X65020875Y-59464738D01*
X64921026Y-59396424D01*
X64820873Y-59328219D01*
X64767027Y-59291715D01*
X64584771Y-59168440D01*
X64431781Y-59251160D01*
X64362082Y-59287399D01*
X64302814Y-59315566D01*
X64262711Y-59331631D01*
X64252503Y-59333866D01*
X64240229Y-59317362D01*
X64216013Y-59270722D01*
X64181663Y-59198249D01*
X64138988Y-59104246D01*
X64089794Y-58993014D01*
X64035890Y-58868855D01*
X63979084Y-58736072D01*
X63921182Y-58598967D01*
X63863993Y-58461842D01*
X63809324Y-58328998D01*
X63758984Y-58204738D01*
X63714780Y-58093365D01*
X63678519Y-57999179D01*
X63652009Y-57926484D01*
X63637058Y-57879581D01*
X63634654Y-57863473D01*
X63653711Y-57842926D01*
X63695436Y-57809573D01*
X63751106Y-57770342D01*
X63755778Y-57767239D01*
X63899664Y-57652063D01*
X64015683Y-57517693D01*
X64102830Y-57368424D01*
X64160099Y-57208553D01*
X64186486Y-57042377D01*
X64180985Y-56874192D01*
X64142590Y-56708295D01*
X64070295Y-56548982D01*
X64049026Y-56514127D01*
X63938396Y-56373377D01*
X63807702Y-56260354D01*
X63661464Y-56175643D01*
X63504208Y-56119834D01*
X63340457Y-56093514D01*
X63174733Y-56097270D01*
X63011562Y-56131690D01*
X62855465Y-56197363D01*
X62710967Y-56294875D01*
X62666269Y-56334453D01*
X62552512Y-56458343D01*
X62469618Y-56588764D01*
X62412756Y-56734955D01*
X62381087Y-56879728D01*
X62373269Y-57042500D01*
X62399338Y-57206080D01*
X62456645Y-57364938D01*
X62542544Y-57513546D01*
X62654386Y-57646375D01*
X62789523Y-57757896D01*
X62807283Y-57769651D01*
X62863550Y-57808148D01*
X62906323Y-57841503D01*
X62926772Y-57862800D01*
X62927069Y-57863473D01*
X62922679Y-57886511D01*
X62905276Y-57938797D01*
X62876668Y-58016030D01*
X62838665Y-58113908D01*
X62793074Y-58228131D01*
X62741703Y-58354398D01*
X62686362Y-58488407D01*
X62628858Y-58625858D01*
X62571001Y-58762448D01*
X62514598Y-58893877D01*
X62461458Y-59015845D01*
X62413390Y-59124049D01*
X62372201Y-59214189D01*
X62339701Y-59281963D01*
X62317697Y-59323070D01*
X62308836Y-59333866D01*
X62281760Y-59325459D01*
X62231097Y-59302912D01*
X62165583Y-59270253D01*
X62129559Y-59251160D01*
X61976568Y-59168440D01*
X61794312Y-59291715D01*
X61701275Y-59354868D01*
X61599415Y-59424367D01*
X61503962Y-59489805D01*
X61456150Y-59522757D01*
X61388905Y-59567913D01*
X61331964Y-59603697D01*
X61292754Y-59625578D01*
X61280019Y-59630203D01*
X61261483Y-59617725D01*
X61220459Y-59582892D01*
X61160925Y-59529318D01*
X61086858Y-59460623D01*
X61002235Y-59380421D01*
X60948715Y-59328926D01*
X60855081Y-59236926D01*
X60774159Y-59154639D01*
X60709223Y-59085585D01*
X60663542Y-59033284D01*
X60640389Y-59001256D01*
X60638168Y-58994756D01*
X60648476Y-58970034D01*
X60676961Y-58920045D01*
X60720463Y-58849852D01*
X60775823Y-58764515D01*
X60839880Y-58669096D01*
X60858097Y-58642494D01*
X60924473Y-58545807D01*
X60984022Y-58458757D01*
X61033416Y-58386235D01*
X61069325Y-58333133D01*
X61088419Y-58304343D01*
X61090264Y-58301366D01*
X61087505Y-58278422D01*
X61072862Y-58227976D01*
X61048887Y-58156681D01*
X61018134Y-58071187D01*
X60983156Y-57978147D01*
X60946507Y-57884214D01*
X60910739Y-57796039D01*
X60878406Y-57720274D01*
X60852062Y-57663571D01*
X60834258Y-57632583D01*
X60832993Y-57631097D01*
X60822106Y-57622241D01*
X60803718Y-57613483D01*
X60773794Y-57603917D01*
X60728297Y-57592636D01*
X60663191Y-57578733D01*
X60574439Y-57561303D01*
X60458007Y-57539438D01*
X60309858Y-57512231D01*
X60277782Y-57506381D01*
X60182714Y-57488014D01*
X60099835Y-57470045D01*
X60036470Y-57454209D01*
X59999942Y-57442240D01*
X59995044Y-57439450D01*
X59986973Y-57414712D01*
X59980413Y-57359430D01*
X59975367Y-57280029D01*
X59971841Y-57182936D01*
X59969839Y-57074578D01*
X59969364Y-56961380D01*
X59970423Y-56849768D01*
X59973018Y-56746169D01*
X59977154Y-56657008D01*
X59982837Y-56588712D01*
X59990069Y-56547706D01*
X59994429Y-56539314D01*
X60018702Y-56530848D01*
X60073974Y-56517075D01*
X60154738Y-56499190D01*
X60255488Y-56478388D01*
X60370717Y-56455863D01*
X60433498Y-56444058D01*
X60552613Y-56421791D01*
X60658835Y-56401619D01*
X60746973Y-56384555D01*
X60811834Y-56371609D01*
X60848226Y-56363795D01*
X60854216Y-56362062D01*
X60864339Y-56342530D01*
X60885738Y-56295483D01*
X60915561Y-56227643D01*
X60950955Y-56145731D01*
X60989068Y-56056468D01*
X61027047Y-55966575D01*
X61062040Y-55882775D01*
X61091194Y-55811787D01*
X61111657Y-55760334D01*
X61120577Y-55735137D01*
X61120743Y-55734036D01*
X61110631Y-55714159D01*
X61082283Y-55668417D01*
X61038677Y-55601357D01*
X60982794Y-55517524D01*
X60917613Y-55421466D01*
X60879721Y-55366290D01*
X60810675Y-55265121D01*
X60749350Y-55173270D01*
X60698737Y-55095384D01*
X60661829Y-55036109D01*
X60641618Y-55000091D01*
X60638699Y-54992017D01*
X60651247Y-54973224D01*
X60685937Y-54933097D01*
X60738337Y-54876133D01*
X60804016Y-54806825D01*
X60878544Y-54729671D01*
X60957487Y-54649165D01*
X61036417Y-54569803D01*
X61110900Y-54496080D01*
X61176506Y-54432492D01*
X61228804Y-54383534D01*
X61263361Y-54353701D01*
X61274922Y-54346582D01*
X61293746Y-54356593D01*
X61338769Y-54384718D01*
X61405613Y-54428094D01*
X61489901Y-54483858D01*
X61587256Y-54549146D01*
X61660693Y-54598886D01*
X62031733Y-54851191D01*
X62650305Y-54596195D01*
X62734125Y-54151571D01*
X62817946Y-53706947D01*
X63743394Y-53706947D01*
X63827214Y-54151571D01*
G37*
X63827214Y-54151571D02*
X63911035Y-54596195D01*
X64220320Y-54723693D01*
X64529606Y-54851191D01*
X64900646Y-54598886D01*
X65004557Y-54528636D01*
X65098487Y-54465912D01*
X65178052Y-54413578D01*
X65238870Y-54374497D01*
X65276557Y-54351533D01*
X65286821Y-54346582D01*
X65305310Y-54359316D01*
X65344820Y-54394522D01*
X65400922Y-54447702D01*
X65469187Y-54514358D01*
X65545186Y-54589994D01*
X65624492Y-54670112D01*
X65702675Y-54750214D01*
X65775307Y-54825804D01*
X65837959Y-54892385D01*
X65886203Y-54945458D01*
X65915610Y-54980527D01*
X65922641Y-54992263D01*
X65912523Y-55013900D01*
X65884159Y-55061302D01*
X65840529Y-55129833D01*
X65784618Y-55214855D01*
X65719406Y-55311733D01*
X65681619Y-55366990D01*
X65612743Y-55467888D01*
X65551540Y-55558939D01*
X65500978Y-55635610D01*
X65464028Y-55693368D01*
X65443658Y-55727683D01*
X65440597Y-55734894D01*
X65447536Y-55755388D01*
X65466451Y-55803153D01*
X65494487Y-55871472D01*
X65528791Y-55953629D01*
X65566509Y-56042910D01*
X65604787Y-56132598D01*
X65640770Y-56215978D01*
X65671606Y-56286334D01*
X65694439Y-56336950D01*
X65706417Y-56361111D01*
X65707124Y-56362062D01*
X65725931Y-56366676D01*
X65776018Y-56376968D01*
X65852193Y-56391927D01*
X65949265Y-56410541D01*
X66062043Y-56431799D01*
X66127842Y-56444058D01*
X66248350Y-56467002D01*
X66357197Y-56488835D01*
X66448876Y-56508362D01*
X66517881Y-56524388D01*
X66558704Y-56535719D01*
X66566911Y-56539314D01*
X66574948Y-56563646D01*
X66581433Y-56618599D01*
X66586370Y-56697748D01*
X66589764Y-56794666D01*
X66591618Y-56902927D01*
X66591938Y-57016105D01*
X66590727Y-57127775D01*
X66587990Y-57231508D01*
X66583731Y-57320881D01*
X66577955Y-57389466D01*
X66570667Y-57430837D01*
X66566295Y-57439450D01*
X66540164Y-57449773D01*
X66484793Y-57464532D01*
X66407507Y-57481992D01*
X66315630Y-57500420D01*
X66283558Y-57506381D01*
X66128924Y-57534706D01*
X66006775Y-57557516D01*
X65913073Y-57575720D01*
X65843784Y-57590223D01*
X65794871Y-57601932D01*
X65762297Y-57611755D01*
X65742028Y-57620596D01*
X65730026Y-57629364D01*
X65728347Y-57631097D01*
X65711584Y-57659011D01*
X65686014Y-57713335D01*
X65654188Y-57787417D01*
X65618660Y-57874605D01*
X65581983Y-57968248D01*
X65546711Y-58061692D01*
X65515396Y-58148287D01*
X65490593Y-58221380D01*
X65474854Y-58274318D01*
X65470732Y-58300451D01*
X65471076Y-58301366D01*
X65485041Y-58322726D01*
X65516722Y-58369724D01*
X65562791Y-58437467D01*
X65619918Y-58521063D01*
X65684773Y-58615622D01*
X65703243Y-58642494D01*
X65769099Y-58739915D01*
X65827050Y-58828803D01*
X65873938Y-58904052D01*
X65906607Y-58960560D01*
X65921900Y-58993221D01*
X65922641Y-58997233D01*
X65909792Y-59018324D01*
X65874288Y-59060104D01*
X65820693Y-59118085D01*
X65753571Y-59187775D01*
X65677487Y-59264685D01*
X65597004Y-59344323D01*
X65516687Y-59422201D01*
X65441099Y-59493826D01*
X65374805Y-59554710D01*
X65322369Y-59600361D01*
X65288355Y-59626290D01*
X65278945Y-59630523D01*
X65257043Y-59620552D01*
X65212200Y-59593660D01*
X65151721Y-59554376D01*
X65105189Y-59522757D01*
X65020875Y-59464738D01*
X64921026Y-59396424D01*
X64820873Y-59328219D01*
X64767027Y-59291715D01*
X64584771Y-59168440D01*
X64431781Y-59251160D01*
X64362082Y-59287399D01*
X64302814Y-59315566D01*
X64262711Y-59331631D01*
X64252503Y-59333866D01*
X64240229Y-59317362D01*
X64216013Y-59270722D01*
X64181663Y-59198249D01*
X64138988Y-59104246D01*
X64089794Y-58993014D01*
X64035890Y-58868855D01*
X63979084Y-58736072D01*
X63921182Y-58598967D01*
X63863993Y-58461842D01*
X63809324Y-58328998D01*
X63758984Y-58204738D01*
X63714780Y-58093365D01*
X63678519Y-57999179D01*
X63652009Y-57926484D01*
X63637058Y-57879581D01*
X63634654Y-57863473D01*
X63653711Y-57842926D01*
X63695436Y-57809573D01*
X63751106Y-57770342D01*
X63755778Y-57767239D01*
X63899664Y-57652063D01*
X64015683Y-57517693D01*
X64102830Y-57368424D01*
X64160099Y-57208553D01*
X64186486Y-57042377D01*
X64180985Y-56874192D01*
X64142590Y-56708295D01*
X64070295Y-56548982D01*
X64049026Y-56514127D01*
X63938396Y-56373377D01*
X63807702Y-56260354D01*
X63661464Y-56175643D01*
X63504208Y-56119834D01*
X63340457Y-56093514D01*
X63174733Y-56097270D01*
X63011562Y-56131690D01*
X62855465Y-56197363D01*
X62710967Y-56294875D01*
X62666269Y-56334453D01*
X62552512Y-56458343D01*
X62469618Y-56588764D01*
X62412756Y-56734955D01*
X62381087Y-56879728D01*
X62373269Y-57042500D01*
X62399338Y-57206080D01*
X62456645Y-57364938D01*
X62542544Y-57513546D01*
X62654386Y-57646375D01*
X62789523Y-57757896D01*
X62807283Y-57769651D01*
X62863550Y-57808148D01*
X62906323Y-57841503D01*
X62926772Y-57862800D01*
X62927069Y-57863473D01*
X62922679Y-57886511D01*
X62905276Y-57938797D01*
X62876668Y-58016030D01*
X62838665Y-58113908D01*
X62793074Y-58228131D01*
X62741703Y-58354398D01*
X62686362Y-58488407D01*
X62628858Y-58625858D01*
X62571001Y-58762448D01*
X62514598Y-58893877D01*
X62461458Y-59015845D01*
X62413390Y-59124049D01*
X62372201Y-59214189D01*
X62339701Y-59281963D01*
X62317697Y-59323070D01*
X62308836Y-59333866D01*
X62281760Y-59325459D01*
X62231097Y-59302912D01*
X62165583Y-59270253D01*
X62129559Y-59251160D01*
X61976568Y-59168440D01*
X61794312Y-59291715D01*
X61701275Y-59354868D01*
X61599415Y-59424367D01*
X61503962Y-59489805D01*
X61456150Y-59522757D01*
X61388905Y-59567913D01*
X61331964Y-59603697D01*
X61292754Y-59625578D01*
X61280019Y-59630203D01*
X61261483Y-59617725D01*
X61220459Y-59582892D01*
X61160925Y-59529318D01*
X61086858Y-59460623D01*
X61002235Y-59380421D01*
X60948715Y-59328926D01*
X60855081Y-59236926D01*
X60774159Y-59154639D01*
X60709223Y-59085585D01*
X60663542Y-59033284D01*
X60640389Y-59001256D01*
X60638168Y-58994756D01*
X60648476Y-58970034D01*
X60676961Y-58920045D01*
X60720463Y-58849852D01*
X60775823Y-58764515D01*
X60839880Y-58669096D01*
X60858097Y-58642494D01*
X60924473Y-58545807D01*
X60984022Y-58458757D01*
X61033416Y-58386235D01*
X61069325Y-58333133D01*
X61088419Y-58304343D01*
X61090264Y-58301366D01*
X61087505Y-58278422D01*
X61072862Y-58227976D01*
X61048887Y-58156681D01*
X61018134Y-58071187D01*
X60983156Y-57978147D01*
X60946507Y-57884214D01*
X60910739Y-57796039D01*
X60878406Y-57720274D01*
X60852062Y-57663571D01*
X60834258Y-57632583D01*
X60832993Y-57631097D01*
X60822106Y-57622241D01*
X60803718Y-57613483D01*
X60773794Y-57603917D01*
X60728297Y-57592636D01*
X60663191Y-57578733D01*
X60574439Y-57561303D01*
X60458007Y-57539438D01*
X60309858Y-57512231D01*
X60277782Y-57506381D01*
X60182714Y-57488014D01*
X60099835Y-57470045D01*
X60036470Y-57454209D01*
X59999942Y-57442240D01*
X59995044Y-57439450D01*
X59986973Y-57414712D01*
X59980413Y-57359430D01*
X59975367Y-57280029D01*
X59971841Y-57182936D01*
X59969839Y-57074578D01*
X59969364Y-56961380D01*
X59970423Y-56849768D01*
X59973018Y-56746169D01*
X59977154Y-56657008D01*
X59982837Y-56588712D01*
X59990069Y-56547706D01*
X59994429Y-56539314D01*
X60018702Y-56530848D01*
X60073974Y-56517075D01*
X60154738Y-56499190D01*
X60255488Y-56478388D01*
X60370717Y-56455863D01*
X60433498Y-56444058D01*
X60552613Y-56421791D01*
X60658835Y-56401619D01*
X60746973Y-56384555D01*
X60811834Y-56371609D01*
X60848226Y-56363795D01*
X60854216Y-56362062D01*
X60864339Y-56342530D01*
X60885738Y-56295483D01*
X60915561Y-56227643D01*
X60950955Y-56145731D01*
X60989068Y-56056468D01*
X61027047Y-55966575D01*
X61062040Y-55882775D01*
X61091194Y-55811787D01*
X61111657Y-55760334D01*
X61120577Y-55735137D01*
X61120743Y-55734036D01*
X61110631Y-55714159D01*
X61082283Y-55668417D01*
X61038677Y-55601357D01*
X60982794Y-55517524D01*
X60917613Y-55421466D01*
X60879721Y-55366290D01*
X60810675Y-55265121D01*
X60749350Y-55173270D01*
X60698737Y-55095384D01*
X60661829Y-55036109D01*
X60641618Y-55000091D01*
X60638699Y-54992017D01*
X60651247Y-54973224D01*
X60685937Y-54933097D01*
X60738337Y-54876133D01*
X60804016Y-54806825D01*
X60878544Y-54729671D01*
X60957487Y-54649165D01*
X61036417Y-54569803D01*
X61110900Y-54496080D01*
X61176506Y-54432492D01*
X61228804Y-54383534D01*
X61263361Y-54353701D01*
X61274922Y-54346582D01*
X61293746Y-54356593D01*
X61338769Y-54384718D01*
X61405613Y-54428094D01*
X61489901Y-54483858D01*
X61587256Y-54549146D01*
X61660693Y-54598886D01*
X62031733Y-54851191D01*
X62650305Y-54596195D01*
X62734125Y-54151571D01*
X62817946Y-53706947D01*
X63743394Y-53706947D01*
X63827214Y-54151571D01*
D12*
X55082535Y-51187100D02*
X55082535Y-51996624D01*
X55130154Y-52091862D01*
X55177773Y-52139481D01*
X55273011Y-52187100D01*
X55463487Y-52187100D01*
X55558725Y-52139481D01*
X55606344Y-52091862D01*
X55653963Y-51996624D01*
X55653963Y-51187100D01*
X56653963Y-52187100D02*
X56082535Y-52187100D01*
X56368249Y-52187100D02*
X56368249Y-51187100D01*
X56273011Y-51329958D01*
X56177773Y-51425196D01*
X56082535Y-51472815D01*
X69470946Y-77277980D02*
X69470946Y-77992266D01*
X69423327Y-78135123D01*
X69328089Y-78230361D01*
X69185232Y-78277980D01*
X69089994Y-78277980D01*
X69851899Y-77277980D02*
X70470946Y-77277980D01*
X70137613Y-77658933D01*
X70280470Y-77658933D01*
X70375708Y-77706552D01*
X70423327Y-77754171D01*
X70470946Y-77849409D01*
X70470946Y-78087504D01*
X70423327Y-78182742D01*
X70375708Y-78230361D01*
X70280470Y-78277980D01*
X69994756Y-78277980D01*
X69899518Y-78230361D01*
X69851899Y-78182742D01*
X63694986Y-77303380D02*
X63694986Y-78017666D01*
X63647367Y-78160523D01*
X63552129Y-78255761D01*
X63409272Y-78303380D01*
X63314034Y-78303380D01*
X64123558Y-77398619D02*
X64171177Y-77351000D01*
X64266415Y-77303380D01*
X64504510Y-77303380D01*
X64599748Y-77351000D01*
X64647367Y-77398619D01*
X64694986Y-77493857D01*
X64694986Y-77589095D01*
X64647367Y-77731952D01*
X64075939Y-78303380D01*
X64694986Y-78303380D01*
X57187506Y-77313540D02*
X57187506Y-78027826D01*
X57139887Y-78170683D01*
X57044649Y-78265921D01*
X56901792Y-78313540D01*
X56806554Y-78313540D01*
X58187506Y-78313540D02*
X57616078Y-78313540D01*
X57901792Y-78313540D02*
X57901792Y-77313540D01*
X57806554Y-77456398D01*
X57711316Y-77551636D01*
X57616078Y-77599255D01*
M02*
