M48
; DRILL file {KiCad 5.1.5+dfsg1-2build2} date lun 04 oct 2021 21:44:47
; FORMAT={-:-/ absolute / metric / decimal}
; #@! TF.CreationDate,2021-10-04T21:44:47-05:00
; #@! TF.GenerationSoftware,Kicad,Pcbnew,5.1.5+dfsg1-2build2
; #@! TF.FileFunction,Plated,1,2,PTH
FMAT,2
METRIC
T1C0.400
T2C1.000
%
G90
G05
T1
X120.904Y-69.85
X120.904Y-71.755
X120.904Y-118.11
X120.904Y-120.015
X121.158Y-68.072
X121.158Y-116.332
X121.285Y-74.422
X121.285Y-122.682
X122.555Y-67.056
X122.555Y-115.316
X123.571Y-69.342
X123.571Y-117.602
X124.587Y-62.992
X124.587Y-111.252
X124.968Y-68.072
X124.968Y-74.422
X124.968Y-116.332
X124.968Y-122.682
X125.222Y-65.659
X125.222Y-113.919
X125.984Y-70.104
X125.984Y-71.12
X125.984Y-118.364
X125.984Y-119.38
X126.492Y-75.946
X126.492Y-78.105
X126.492Y-124.206
X126.492Y-126.365
X127.381Y-71.247
X127.381Y-74.295
X127.381Y-119.507
X127.381Y-122.555
X127.889Y-66.167
X127.889Y-114.427
X128.651Y-74.422
X128.651Y-76.073
X128.651Y-122.682
X128.651Y-124.333
X128.905Y-78.105
X128.905Y-126.365
X130.429Y-71.501
X130.429Y-119.761
X131.953Y-74.676
X131.953Y-78.105
X131.953Y-122.936
X131.953Y-126.365
X132.08Y-76.454
X132.08Y-124.714
X132.334Y-66.294
X132.334Y-114.554
X133.477Y-71.374
X133.477Y-74.422
X133.477Y-119.634
X133.477Y-122.682
X134.747Y-76.327
X134.747Y-124.587
X134.874Y-74.549
X134.874Y-122.809
X135.001Y-78.105
X135.001Y-126.365
X136.525Y-71.628
X136.525Y-119.888
X138.176Y-74.549
X138.176Y-122.809
X138.303Y-76.327
X138.303Y-77.978
X138.303Y-124.587
X138.303Y-126.238
X139.446Y-71.247
X139.446Y-74.422
X139.446Y-119.507
X139.446Y-122.682
X140.716Y-74.549
X140.716Y-76.327
X140.716Y-78.105
X140.716Y-122.809
X140.716Y-124.587
X140.716Y-126.365
X141.859Y-71.501
X141.859Y-119.761
X143.764Y-78.105
X143.764Y-126.365
X144.145Y-74.041
X144.145Y-76.327
X144.145Y-122.301
X144.145Y-124.587
X144.907Y-71.501
X144.907Y-119.761
X145.542Y-76.454
X145.542Y-124.714
X145.669Y-74.041
X145.669Y-78.232
X145.669Y-122.301
X145.669Y-126.492
X147.066Y-74.422
X147.066Y-122.682
X147.193Y-71.501
X147.193Y-119.761
X147.447Y-69.215
X147.447Y-117.475
X147.701Y-67.437
X147.701Y-115.697
X149.352Y-72.771
X149.352Y-121.031
X150.241Y-74.549
X150.241Y-122.809
X151.638Y-76.581
X151.638Y-124.841
X151.765Y-78.105
X151.765Y-126.365
X154.559Y-78.105
X154.559Y-126.365
X154.94Y-67.31
X154.94Y-115.57
X156.904Y-69.85
X156.904Y-71.755
X156.904Y-118.11
X156.904Y-120.015
X157.158Y-68.072
X157.158Y-116.332
X157.285Y-74.422
X157.285Y-122.682
X158.555Y-67.056
X158.555Y-115.316
X159.571Y-69.342
X159.571Y-117.602
X160.587Y-62.992
X160.587Y-111.252
X160.968Y-68.072
X160.968Y-74.422
X160.968Y-116.332
X160.968Y-122.682
X161.222Y-65.659
X161.222Y-113.919
X161.984Y-70.104
X161.984Y-71.12
X161.984Y-118.364
X161.984Y-119.38
X162.492Y-75.946
X162.492Y-78.105
X162.492Y-124.206
X162.492Y-126.365
X163.381Y-71.247
X163.381Y-74.295
X163.381Y-119.507
X163.381Y-122.555
X163.889Y-66.167
X163.889Y-114.427
X164.651Y-74.422
X164.651Y-76.073
X164.651Y-122.682
X164.651Y-124.333
X164.905Y-78.105
X164.905Y-126.365
X166.429Y-71.501
X166.429Y-119.761
X167.953Y-74.676
X167.953Y-78.105
X167.953Y-122.936
X167.953Y-126.365
X168.08Y-76.454
X168.08Y-124.714
X168.334Y-66.294
X168.334Y-114.554
X169.477Y-71.374
X169.477Y-74.422
X169.477Y-119.634
X169.477Y-122.682
X170.747Y-76.327
X170.747Y-124.587
X170.874Y-74.549
X170.874Y-122.809
X171.001Y-78.105
X171.001Y-126.365
X172.525Y-71.628
X172.525Y-119.888
X174.176Y-74.549
X174.176Y-122.809
X174.303Y-76.327
X174.303Y-77.978
X174.303Y-124.587
X174.303Y-126.238
X175.446Y-71.247
X175.446Y-74.422
X175.446Y-119.507
X175.446Y-122.682
X176.716Y-74.549
X176.716Y-76.327
X176.716Y-78.105
X176.716Y-122.809
X176.716Y-124.587
X176.716Y-126.365
X177.859Y-71.501
X177.859Y-119.761
X179.764Y-78.105
X179.764Y-126.365
X180.145Y-74.041
X180.145Y-76.327
X180.145Y-122.301
X180.145Y-124.587
X180.907Y-71.501
X180.907Y-119.761
X181.542Y-76.454
X181.542Y-124.714
X181.669Y-74.041
X181.669Y-78.232
X181.669Y-122.301
X181.669Y-126.492
X183.066Y-74.422
X183.066Y-122.682
X183.193Y-71.501
X183.193Y-119.761
X183.447Y-69.215
X183.447Y-117.475
X183.701Y-67.437
X183.701Y-115.697
X185.352Y-72.771
X185.352Y-121.031
X186.241Y-74.549
X186.241Y-122.809
X187.638Y-76.581
X187.638Y-124.841
X187.765Y-78.105
X187.765Y-126.365
X190.559Y-78.105
X190.559Y-126.365
X190.94Y-67.31
X190.94Y-115.57
T2
X157.92Y-93.142
X157.92Y-95.682
X157.92Y-98.222
X157.92Y-100.762
X157.92Y-103.302
X157.92Y-105.842
X157.92Y-108.382
X157.92Y-110.922
X157.92Y-113.462
X185.86Y-93.142
X185.86Y-95.682
X185.86Y-98.222
X185.86Y-100.762
X185.86Y-103.302
X185.86Y-105.842
X185.86Y-108.382
X185.86Y-110.922
X185.86Y-113.462
X188.4Y-93.142
X188.4Y-95.682
X188.4Y-98.222
X188.4Y-100.762
X188.4Y-103.302
X188.4Y-105.842
X188.4Y-108.382
X188.4Y-110.922
X188.4Y-113.462
X185.86Y-44.882
X185.86Y-47.422
X185.86Y-49.962
X185.86Y-52.502
X185.86Y-55.042
X185.86Y-57.582
X185.86Y-60.122
X185.86Y-62.662
X185.86Y-65.202
X188.4Y-44.882
X188.4Y-47.422
X188.4Y-49.962
X188.4Y-52.502
X188.4Y-55.042
X188.4Y-57.582
X188.4Y-60.122
X188.4Y-62.662
X188.4Y-65.202
X121.92Y-44.882
X121.92Y-47.422
X121.92Y-49.962
X121.92Y-52.502
X121.92Y-55.042
X121.92Y-57.582
X121.92Y-60.122
X121.92Y-62.662
X121.92Y-65.202
X149.86Y-93.142
X149.86Y-95.682
X149.86Y-98.222
X149.86Y-100.762
X149.86Y-103.302
X149.86Y-105.842
X149.86Y-108.382
X149.86Y-110.922
X149.86Y-113.462
X152.4Y-93.142
X152.4Y-95.682
X152.4Y-98.222
X152.4Y-100.762
X152.4Y-103.302
X152.4Y-105.842
X152.4Y-108.382
X152.4Y-110.922
X152.4Y-113.462
X157.92Y-44.882
X157.92Y-47.422
X157.92Y-49.962
X157.92Y-52.502
X157.92Y-55.042
X157.92Y-57.582
X157.92Y-60.122
X157.92Y-62.662
X157.92Y-65.202
X121.92Y-93.142
X121.92Y-95.682
X121.92Y-98.222
X121.92Y-100.762
X121.92Y-103.302
X121.92Y-105.842
X121.92Y-108.382
X121.92Y-110.922
X121.92Y-113.462
X149.86Y-44.882
X149.86Y-47.422
X149.86Y-49.962
X149.86Y-52.502
X149.86Y-55.042
X149.86Y-57.582
X149.86Y-60.122
X149.86Y-62.662
X149.86Y-65.202
X152.4Y-44.882
X152.4Y-47.422
X152.4Y-49.962
X152.4Y-52.502
X152.4Y-55.042
X152.4Y-57.582
X152.4Y-60.122
X152.4Y-62.662
X152.4Y-65.202
T0
M30
