G04 #@! TF.GenerationSoftware,KiCad,Pcbnew,5.1.5+dfsg1-2build2*
G04 #@! TF.CreationDate,2021-10-04T21:44:55-05:00*
G04 #@! TF.ProjectId,,58585858-5858-4585-9858-585858585858,rev?*
G04 #@! TF.SameCoordinates,Original*
G04 #@! TF.FileFunction,Soldermask,Top*
G04 #@! TF.FilePolarity,Negative*
%FSLAX46Y46*%
G04 Gerber Fmt 4.6, Leading zero omitted, Abs format (unit mm)*
G04 Created by KiCad (PCBNEW 5.1.5+dfsg1-2build2) date 2021-10-04 21:44:55*
%MOMM*%
%LPD*%
G04 APERTURE LIST*
%ADD10C,0.100000*%
G04 APERTURE END LIST*
D10*
G36*
X125490000Y-126086000D02*
G01*
X124338000Y-126086000D01*
X124338000Y-123784000D01*
X125490000Y-123784000D01*
X125490000Y-126086000D01*
G37*
G36*
X122540000Y-126086000D02*
G01*
X121388000Y-126086000D01*
X121388000Y-123784000D01*
X122540000Y-123784000D01*
X122540000Y-126086000D01*
G37*
G36*
X161490000Y-126086000D02*
G01*
X160338000Y-126086000D01*
X160338000Y-123784000D01*
X161490000Y-123784000D01*
X161490000Y-126086000D01*
G37*
G36*
X158540000Y-126086000D02*
G01*
X157388000Y-126086000D01*
X157388000Y-123784000D01*
X158540000Y-123784000D01*
X158540000Y-126086000D01*
G37*
G36*
X150641000Y-126086000D02*
G01*
X149489000Y-126086000D01*
X149489000Y-123784000D01*
X150641000Y-123784000D01*
X150641000Y-126086000D01*
G37*
G36*
X147691000Y-126086000D02*
G01*
X146539000Y-126086000D01*
X146539000Y-123784000D01*
X147691000Y-123784000D01*
X147691000Y-126086000D01*
G37*
G36*
X186641000Y-126086000D02*
G01*
X185489000Y-126086000D01*
X185489000Y-123784000D01*
X186641000Y-123784000D01*
X186641000Y-126086000D01*
G37*
G36*
X183691000Y-126086000D02*
G01*
X182539000Y-126086000D01*
X182539000Y-123784000D01*
X183691000Y-123784000D01*
X183691000Y-126086000D01*
G37*
G36*
X166890674Y-124482465D02*
G01*
X166928367Y-124493899D01*
X166963103Y-124512466D01*
X166993548Y-124537452D01*
X167018534Y-124567897D01*
X167037101Y-124602633D01*
X167048535Y-124640326D01*
X167053000Y-124685661D01*
X167053000Y-125522339D01*
X167048535Y-125567674D01*
X167037101Y-125605367D01*
X167018534Y-125640103D01*
X166993548Y-125670548D01*
X166963103Y-125695534D01*
X166928367Y-125714101D01*
X166890674Y-125725535D01*
X166845339Y-125730000D01*
X165758661Y-125730000D01*
X165713326Y-125725535D01*
X165675633Y-125714101D01*
X165640897Y-125695534D01*
X165610452Y-125670548D01*
X165585466Y-125640103D01*
X165566899Y-125605367D01*
X165555465Y-125567674D01*
X165551000Y-125522339D01*
X165551000Y-124685661D01*
X165555465Y-124640326D01*
X165566899Y-124602633D01*
X165585466Y-124567897D01*
X165610452Y-124537452D01*
X165640897Y-124512466D01*
X165675633Y-124493899D01*
X165713326Y-124482465D01*
X165758661Y-124478000D01*
X166845339Y-124478000D01*
X166890674Y-124482465D01*
G37*
G36*
X178955674Y-124482465D02*
G01*
X178993367Y-124493899D01*
X179028103Y-124512466D01*
X179058548Y-124537452D01*
X179083534Y-124567897D01*
X179102101Y-124602633D01*
X179113535Y-124640326D01*
X179118000Y-124685661D01*
X179118000Y-125522339D01*
X179113535Y-125567674D01*
X179102101Y-125605367D01*
X179083534Y-125640103D01*
X179058548Y-125670548D01*
X179028103Y-125695534D01*
X178993367Y-125714101D01*
X178955674Y-125725535D01*
X178910339Y-125730000D01*
X177823661Y-125730000D01*
X177778326Y-125725535D01*
X177740633Y-125714101D01*
X177705897Y-125695534D01*
X177675452Y-125670548D01*
X177650466Y-125640103D01*
X177631899Y-125605367D01*
X177620465Y-125567674D01*
X177616000Y-125522339D01*
X177616000Y-124685661D01*
X177620465Y-124640326D01*
X177631899Y-124602633D01*
X177650466Y-124567897D01*
X177675452Y-124537452D01*
X177705897Y-124512466D01*
X177740633Y-124493899D01*
X177778326Y-124482465D01*
X177823661Y-124478000D01*
X178910339Y-124478000D01*
X178955674Y-124482465D01*
G37*
G36*
X173113674Y-124482465D02*
G01*
X173151367Y-124493899D01*
X173186103Y-124512466D01*
X173216548Y-124537452D01*
X173241534Y-124567897D01*
X173260101Y-124602633D01*
X173271535Y-124640326D01*
X173276000Y-124685661D01*
X173276000Y-125522339D01*
X173271535Y-125567674D01*
X173260101Y-125605367D01*
X173241534Y-125640103D01*
X173216548Y-125670548D01*
X173186103Y-125695534D01*
X173151367Y-125714101D01*
X173113674Y-125725535D01*
X173068339Y-125730000D01*
X171981661Y-125730000D01*
X171936326Y-125725535D01*
X171898633Y-125714101D01*
X171863897Y-125695534D01*
X171833452Y-125670548D01*
X171808466Y-125640103D01*
X171789899Y-125605367D01*
X171778465Y-125567674D01*
X171774000Y-125522339D01*
X171774000Y-124685661D01*
X171778465Y-124640326D01*
X171789899Y-124602633D01*
X171808466Y-124567897D01*
X171833452Y-124537452D01*
X171863897Y-124512466D01*
X171898633Y-124493899D01*
X171936326Y-124482465D01*
X171981661Y-124478000D01*
X173068339Y-124478000D01*
X173113674Y-124482465D01*
G37*
G36*
X137113674Y-124482465D02*
G01*
X137151367Y-124493899D01*
X137186103Y-124512466D01*
X137216548Y-124537452D01*
X137241534Y-124567897D01*
X137260101Y-124602633D01*
X137271535Y-124640326D01*
X137276000Y-124685661D01*
X137276000Y-125522339D01*
X137271535Y-125567674D01*
X137260101Y-125605367D01*
X137241534Y-125640103D01*
X137216548Y-125670548D01*
X137186103Y-125695534D01*
X137151367Y-125714101D01*
X137113674Y-125725535D01*
X137068339Y-125730000D01*
X135981661Y-125730000D01*
X135936326Y-125725535D01*
X135898633Y-125714101D01*
X135863897Y-125695534D01*
X135833452Y-125670548D01*
X135808466Y-125640103D01*
X135789899Y-125605367D01*
X135778465Y-125567674D01*
X135774000Y-125522339D01*
X135774000Y-124685661D01*
X135778465Y-124640326D01*
X135789899Y-124602633D01*
X135808466Y-124567897D01*
X135833452Y-124537452D01*
X135863897Y-124512466D01*
X135898633Y-124493899D01*
X135936326Y-124482465D01*
X135981661Y-124478000D01*
X137068339Y-124478000D01*
X137113674Y-124482465D01*
G37*
G36*
X130890674Y-124482465D02*
G01*
X130928367Y-124493899D01*
X130963103Y-124512466D01*
X130993548Y-124537452D01*
X131018534Y-124567897D01*
X131037101Y-124602633D01*
X131048535Y-124640326D01*
X131053000Y-124685661D01*
X131053000Y-125522339D01*
X131048535Y-125567674D01*
X131037101Y-125605367D01*
X131018534Y-125640103D01*
X130993548Y-125670548D01*
X130963103Y-125695534D01*
X130928367Y-125714101D01*
X130890674Y-125725535D01*
X130845339Y-125730000D01*
X129758661Y-125730000D01*
X129713326Y-125725535D01*
X129675633Y-125714101D01*
X129640897Y-125695534D01*
X129610452Y-125670548D01*
X129585466Y-125640103D01*
X129566899Y-125605367D01*
X129555465Y-125567674D01*
X129551000Y-125522339D01*
X129551000Y-124685661D01*
X129555465Y-124640326D01*
X129566899Y-124602633D01*
X129585466Y-124567897D01*
X129610452Y-124537452D01*
X129640897Y-124512466D01*
X129675633Y-124493899D01*
X129713326Y-124482465D01*
X129758661Y-124478000D01*
X130845339Y-124478000D01*
X130890674Y-124482465D01*
G37*
G36*
X142955674Y-124482465D02*
G01*
X142993367Y-124493899D01*
X143028103Y-124512466D01*
X143058548Y-124537452D01*
X143083534Y-124567897D01*
X143102101Y-124602633D01*
X143113535Y-124640326D01*
X143118000Y-124685661D01*
X143118000Y-125522339D01*
X143113535Y-125567674D01*
X143102101Y-125605367D01*
X143083534Y-125640103D01*
X143058548Y-125670548D01*
X143028103Y-125695534D01*
X142993367Y-125714101D01*
X142955674Y-125725535D01*
X142910339Y-125730000D01*
X141823661Y-125730000D01*
X141778326Y-125725535D01*
X141740633Y-125714101D01*
X141705897Y-125695534D01*
X141675452Y-125670548D01*
X141650466Y-125640103D01*
X141631899Y-125605367D01*
X141620465Y-125567674D01*
X141616000Y-125522339D01*
X141616000Y-124685661D01*
X141620465Y-124640326D01*
X141631899Y-124602633D01*
X141650466Y-124567897D01*
X141675452Y-124537452D01*
X141705897Y-124512466D01*
X141740633Y-124493899D01*
X141778326Y-124482465D01*
X141823661Y-124478000D01*
X142910339Y-124478000D01*
X142955674Y-124482465D01*
G37*
G36*
X149141000Y-123986000D02*
G01*
X148039000Y-123986000D01*
X148039000Y-122834000D01*
X149141000Y-122834000D01*
X149141000Y-123986000D01*
G37*
G36*
X185141000Y-123986000D02*
G01*
X184039000Y-123986000D01*
X184039000Y-122834000D01*
X185141000Y-122834000D01*
X185141000Y-123986000D01*
G37*
G36*
X123990000Y-123986000D02*
G01*
X122888000Y-123986000D01*
X122888000Y-122834000D01*
X123990000Y-122834000D01*
X123990000Y-123986000D01*
G37*
G36*
X159990000Y-123986000D02*
G01*
X158888000Y-123986000D01*
X158888000Y-122834000D01*
X159990000Y-122834000D01*
X159990000Y-123986000D01*
G37*
G36*
X173113674Y-122432465D02*
G01*
X173151367Y-122443899D01*
X173186103Y-122462466D01*
X173216548Y-122487452D01*
X173241534Y-122517897D01*
X173260101Y-122552633D01*
X173271535Y-122590326D01*
X173276000Y-122635661D01*
X173276000Y-123472339D01*
X173271535Y-123517674D01*
X173260101Y-123555367D01*
X173241534Y-123590103D01*
X173216548Y-123620548D01*
X173186103Y-123645534D01*
X173151367Y-123664101D01*
X173113674Y-123675535D01*
X173068339Y-123680000D01*
X171981661Y-123680000D01*
X171936326Y-123675535D01*
X171898633Y-123664101D01*
X171863897Y-123645534D01*
X171833452Y-123620548D01*
X171808466Y-123590103D01*
X171789899Y-123555367D01*
X171778465Y-123517674D01*
X171774000Y-123472339D01*
X171774000Y-122635661D01*
X171778465Y-122590326D01*
X171789899Y-122552633D01*
X171808466Y-122517897D01*
X171833452Y-122487452D01*
X171863897Y-122462466D01*
X171898633Y-122443899D01*
X171936326Y-122432465D01*
X171981661Y-122428000D01*
X173068339Y-122428000D01*
X173113674Y-122432465D01*
G37*
G36*
X137113674Y-122432465D02*
G01*
X137151367Y-122443899D01*
X137186103Y-122462466D01*
X137216548Y-122487452D01*
X137241534Y-122517897D01*
X137260101Y-122552633D01*
X137271535Y-122590326D01*
X137276000Y-122635661D01*
X137276000Y-123472339D01*
X137271535Y-123517674D01*
X137260101Y-123555367D01*
X137241534Y-123590103D01*
X137216548Y-123620548D01*
X137186103Y-123645534D01*
X137151367Y-123664101D01*
X137113674Y-123675535D01*
X137068339Y-123680000D01*
X135981661Y-123680000D01*
X135936326Y-123675535D01*
X135898633Y-123664101D01*
X135863897Y-123645534D01*
X135833452Y-123620548D01*
X135808466Y-123590103D01*
X135789899Y-123555367D01*
X135778465Y-123517674D01*
X135774000Y-123472339D01*
X135774000Y-122635661D01*
X135778465Y-122590326D01*
X135789899Y-122552633D01*
X135808466Y-122517897D01*
X135833452Y-122487452D01*
X135863897Y-122462466D01*
X135898633Y-122443899D01*
X135936326Y-122432465D01*
X135981661Y-122428000D01*
X137068339Y-122428000D01*
X137113674Y-122432465D01*
G37*
G36*
X166890674Y-122432465D02*
G01*
X166928367Y-122443899D01*
X166963103Y-122462466D01*
X166993548Y-122487452D01*
X167018534Y-122517897D01*
X167037101Y-122552633D01*
X167048535Y-122590326D01*
X167053000Y-122635661D01*
X167053000Y-123472339D01*
X167048535Y-123517674D01*
X167037101Y-123555367D01*
X167018534Y-123590103D01*
X166993548Y-123620548D01*
X166963103Y-123645534D01*
X166928367Y-123664101D01*
X166890674Y-123675535D01*
X166845339Y-123680000D01*
X165758661Y-123680000D01*
X165713326Y-123675535D01*
X165675633Y-123664101D01*
X165640897Y-123645534D01*
X165610452Y-123620548D01*
X165585466Y-123590103D01*
X165566899Y-123555367D01*
X165555465Y-123517674D01*
X165551000Y-123472339D01*
X165551000Y-122635661D01*
X165555465Y-122590326D01*
X165566899Y-122552633D01*
X165585466Y-122517897D01*
X165610452Y-122487452D01*
X165640897Y-122462466D01*
X165675633Y-122443899D01*
X165713326Y-122432465D01*
X165758661Y-122428000D01*
X166845339Y-122428000D01*
X166890674Y-122432465D01*
G37*
G36*
X130890674Y-122432465D02*
G01*
X130928367Y-122443899D01*
X130963103Y-122462466D01*
X130993548Y-122487452D01*
X131018534Y-122517897D01*
X131037101Y-122552633D01*
X131048535Y-122590326D01*
X131053000Y-122635661D01*
X131053000Y-123472339D01*
X131048535Y-123517674D01*
X131037101Y-123555367D01*
X131018534Y-123590103D01*
X130993548Y-123620548D01*
X130963103Y-123645534D01*
X130928367Y-123664101D01*
X130890674Y-123675535D01*
X130845339Y-123680000D01*
X129758661Y-123680000D01*
X129713326Y-123675535D01*
X129675633Y-123664101D01*
X129640897Y-123645534D01*
X129610452Y-123620548D01*
X129585466Y-123590103D01*
X129566899Y-123555367D01*
X129555465Y-123517674D01*
X129551000Y-123472339D01*
X129551000Y-122635661D01*
X129555465Y-122590326D01*
X129566899Y-122552633D01*
X129585466Y-122517897D01*
X129610452Y-122487452D01*
X129640897Y-122462466D01*
X129675633Y-122443899D01*
X129713326Y-122432465D01*
X129758661Y-122428000D01*
X130845339Y-122428000D01*
X130890674Y-122432465D01*
G37*
G36*
X142955674Y-122432465D02*
G01*
X142993367Y-122443899D01*
X143028103Y-122462466D01*
X143058548Y-122487452D01*
X143083534Y-122517897D01*
X143102101Y-122552633D01*
X143113535Y-122590326D01*
X143118000Y-122635661D01*
X143118000Y-123472339D01*
X143113535Y-123517674D01*
X143102101Y-123555367D01*
X143083534Y-123590103D01*
X143058548Y-123620548D01*
X143028103Y-123645534D01*
X142993367Y-123664101D01*
X142955674Y-123675535D01*
X142910339Y-123680000D01*
X141823661Y-123680000D01*
X141778326Y-123675535D01*
X141740633Y-123664101D01*
X141705897Y-123645534D01*
X141675452Y-123620548D01*
X141650466Y-123590103D01*
X141631899Y-123555367D01*
X141620465Y-123517674D01*
X141616000Y-123472339D01*
X141616000Y-122635661D01*
X141620465Y-122590326D01*
X141631899Y-122552633D01*
X141650466Y-122517897D01*
X141675452Y-122487452D01*
X141705897Y-122462466D01*
X141740633Y-122443899D01*
X141778326Y-122432465D01*
X141823661Y-122428000D01*
X142910339Y-122428000D01*
X142955674Y-122432465D01*
G37*
G36*
X178955674Y-122432465D02*
G01*
X178993367Y-122443899D01*
X179028103Y-122462466D01*
X179058548Y-122487452D01*
X179083534Y-122517897D01*
X179102101Y-122552633D01*
X179113535Y-122590326D01*
X179118000Y-122635661D01*
X179118000Y-123472339D01*
X179113535Y-123517674D01*
X179102101Y-123555367D01*
X179083534Y-123590103D01*
X179058548Y-123620548D01*
X179028103Y-123645534D01*
X178993367Y-123664101D01*
X178955674Y-123675535D01*
X178910339Y-123680000D01*
X177823661Y-123680000D01*
X177778326Y-123675535D01*
X177740633Y-123664101D01*
X177705897Y-123645534D01*
X177675452Y-123620548D01*
X177650466Y-123590103D01*
X177631899Y-123555367D01*
X177620465Y-123517674D01*
X177616000Y-123472339D01*
X177616000Y-122635661D01*
X177620465Y-122590326D01*
X177631899Y-122552633D01*
X177650466Y-122517897D01*
X177675452Y-122487452D01*
X177705897Y-122462466D01*
X177740633Y-122443899D01*
X177778326Y-122432465D01*
X177823661Y-122428000D01*
X178910339Y-122428000D01*
X178955674Y-122432465D01*
G37*
G36*
X170965674Y-120411465D02*
G01*
X171003367Y-120422899D01*
X171038103Y-120441466D01*
X171068548Y-120466452D01*
X171093534Y-120496897D01*
X171112101Y-120531633D01*
X171123535Y-120569326D01*
X171128000Y-120614661D01*
X171128000Y-121701339D01*
X171123535Y-121746674D01*
X171112101Y-121784367D01*
X171093534Y-121819103D01*
X171068548Y-121849548D01*
X171038103Y-121874534D01*
X171003367Y-121893101D01*
X170965674Y-121904535D01*
X170920339Y-121909000D01*
X170083661Y-121909000D01*
X170038326Y-121904535D01*
X170000633Y-121893101D01*
X169965897Y-121874534D01*
X169935452Y-121849548D01*
X169910466Y-121819103D01*
X169891899Y-121784367D01*
X169880465Y-121746674D01*
X169876000Y-121701339D01*
X169876000Y-120614661D01*
X169880465Y-120569326D01*
X169891899Y-120531633D01*
X169910466Y-120496897D01*
X169935452Y-120466452D01*
X169965897Y-120441466D01*
X170000633Y-120422899D01*
X170038326Y-120411465D01*
X170083661Y-120407000D01*
X170920339Y-120407000D01*
X170965674Y-120411465D01*
G37*
G36*
X168915674Y-120411465D02*
G01*
X168953367Y-120422899D01*
X168988103Y-120441466D01*
X169018548Y-120466452D01*
X169043534Y-120496897D01*
X169062101Y-120531633D01*
X169073535Y-120569326D01*
X169078000Y-120614661D01*
X169078000Y-121701339D01*
X169073535Y-121746674D01*
X169062101Y-121784367D01*
X169043534Y-121819103D01*
X169018548Y-121849548D01*
X168988103Y-121874534D01*
X168953367Y-121893101D01*
X168915674Y-121904535D01*
X168870339Y-121909000D01*
X168033661Y-121909000D01*
X167988326Y-121904535D01*
X167950633Y-121893101D01*
X167915897Y-121874534D01*
X167885452Y-121849548D01*
X167860466Y-121819103D01*
X167841899Y-121784367D01*
X167830465Y-121746674D01*
X167826000Y-121701339D01*
X167826000Y-120614661D01*
X167830465Y-120569326D01*
X167841899Y-120531633D01*
X167860466Y-120496897D01*
X167885452Y-120466452D01*
X167915897Y-120441466D01*
X167950633Y-120422899D01*
X167988326Y-120411465D01*
X168033661Y-120407000D01*
X168870339Y-120407000D01*
X168915674Y-120411465D01*
G37*
G36*
X132915674Y-120411465D02*
G01*
X132953367Y-120422899D01*
X132988103Y-120441466D01*
X133018548Y-120466452D01*
X133043534Y-120496897D01*
X133062101Y-120531633D01*
X133073535Y-120569326D01*
X133078000Y-120614661D01*
X133078000Y-121701339D01*
X133073535Y-121746674D01*
X133062101Y-121784367D01*
X133043534Y-121819103D01*
X133018548Y-121849548D01*
X132988103Y-121874534D01*
X132953367Y-121893101D01*
X132915674Y-121904535D01*
X132870339Y-121909000D01*
X132033661Y-121909000D01*
X131988326Y-121904535D01*
X131950633Y-121893101D01*
X131915897Y-121874534D01*
X131885452Y-121849548D01*
X131860466Y-121819103D01*
X131841899Y-121784367D01*
X131830465Y-121746674D01*
X131826000Y-121701339D01*
X131826000Y-120614661D01*
X131830465Y-120569326D01*
X131841899Y-120531633D01*
X131860466Y-120496897D01*
X131885452Y-120466452D01*
X131915897Y-120441466D01*
X131950633Y-120422899D01*
X131988326Y-120411465D01*
X132033661Y-120407000D01*
X132870339Y-120407000D01*
X132915674Y-120411465D01*
G37*
G36*
X134965674Y-120411465D02*
G01*
X135003367Y-120422899D01*
X135038103Y-120441466D01*
X135068548Y-120466452D01*
X135093534Y-120496897D01*
X135112101Y-120531633D01*
X135123535Y-120569326D01*
X135128000Y-120614661D01*
X135128000Y-121701339D01*
X135123535Y-121746674D01*
X135112101Y-121784367D01*
X135093534Y-121819103D01*
X135068548Y-121849548D01*
X135038103Y-121874534D01*
X135003367Y-121893101D01*
X134965674Y-121904535D01*
X134920339Y-121909000D01*
X134083661Y-121909000D01*
X134038326Y-121904535D01*
X134000633Y-121893101D01*
X133965897Y-121874534D01*
X133935452Y-121849548D01*
X133910466Y-121819103D01*
X133891899Y-121784367D01*
X133880465Y-121746674D01*
X133876000Y-121701339D01*
X133876000Y-120614661D01*
X133880465Y-120569326D01*
X133891899Y-120531633D01*
X133910466Y-120496897D01*
X133935452Y-120466452D01*
X133965897Y-120441466D01*
X134000633Y-120422899D01*
X134038326Y-120411465D01*
X134083661Y-120407000D01*
X134920339Y-120407000D01*
X134965674Y-120411465D01*
G37*
G36*
X128869674Y-120284465D02*
G01*
X128907367Y-120295899D01*
X128942103Y-120314466D01*
X128972548Y-120339452D01*
X128997534Y-120369897D01*
X129016101Y-120404633D01*
X129027535Y-120442326D01*
X129032000Y-120487661D01*
X129032000Y-121574339D01*
X129027535Y-121619674D01*
X129016101Y-121657367D01*
X128997534Y-121692103D01*
X128972548Y-121722548D01*
X128942103Y-121747534D01*
X128907367Y-121766101D01*
X128869674Y-121777535D01*
X128824339Y-121782000D01*
X127987661Y-121782000D01*
X127942326Y-121777535D01*
X127904633Y-121766101D01*
X127869897Y-121747534D01*
X127839452Y-121722548D01*
X127814466Y-121692103D01*
X127795899Y-121657367D01*
X127784465Y-121619674D01*
X127780000Y-121574339D01*
X127780000Y-120487661D01*
X127784465Y-120442326D01*
X127795899Y-120404633D01*
X127814466Y-120369897D01*
X127839452Y-120339452D01*
X127869897Y-120314466D01*
X127904633Y-120295899D01*
X127942326Y-120284465D01*
X127987661Y-120280000D01*
X128824339Y-120280000D01*
X128869674Y-120284465D01*
G37*
G36*
X122755674Y-120284465D02*
G01*
X122793367Y-120295899D01*
X122828103Y-120314466D01*
X122858548Y-120339452D01*
X122883534Y-120369897D01*
X122902101Y-120404633D01*
X122913535Y-120442326D01*
X122918000Y-120487661D01*
X122918000Y-121574339D01*
X122913535Y-121619674D01*
X122902101Y-121657367D01*
X122883534Y-121692103D01*
X122858548Y-121722548D01*
X122828103Y-121747534D01*
X122793367Y-121766101D01*
X122755674Y-121777535D01*
X122710339Y-121782000D01*
X121873661Y-121782000D01*
X121828326Y-121777535D01*
X121790633Y-121766101D01*
X121755897Y-121747534D01*
X121725452Y-121722548D01*
X121700466Y-121692103D01*
X121681899Y-121657367D01*
X121670465Y-121619674D01*
X121666000Y-121574339D01*
X121666000Y-120487661D01*
X121670465Y-120442326D01*
X121681899Y-120404633D01*
X121700466Y-120369897D01*
X121725452Y-120339452D01*
X121755897Y-120314466D01*
X121790633Y-120295899D01*
X121828326Y-120284465D01*
X121873661Y-120280000D01*
X122710339Y-120280000D01*
X122755674Y-120284465D01*
G37*
G36*
X124805674Y-120284465D02*
G01*
X124843367Y-120295899D01*
X124878103Y-120314466D01*
X124908548Y-120339452D01*
X124933534Y-120369897D01*
X124952101Y-120404633D01*
X124963535Y-120442326D01*
X124968000Y-120487661D01*
X124968000Y-121574339D01*
X124963535Y-121619674D01*
X124952101Y-121657367D01*
X124933534Y-121692103D01*
X124908548Y-121722548D01*
X124878103Y-121747534D01*
X124843367Y-121766101D01*
X124805674Y-121777535D01*
X124760339Y-121782000D01*
X123923661Y-121782000D01*
X123878326Y-121777535D01*
X123840633Y-121766101D01*
X123805897Y-121747534D01*
X123775452Y-121722548D01*
X123750466Y-121692103D01*
X123731899Y-121657367D01*
X123720465Y-121619674D01*
X123716000Y-121574339D01*
X123716000Y-120487661D01*
X123720465Y-120442326D01*
X123731899Y-120404633D01*
X123750466Y-120369897D01*
X123775452Y-120339452D01*
X123805897Y-120314466D01*
X123840633Y-120295899D01*
X123878326Y-120284465D01*
X123923661Y-120280000D01*
X124760339Y-120280000D01*
X124805674Y-120284465D01*
G37*
G36*
X138884674Y-120284465D02*
G01*
X138922367Y-120295899D01*
X138957103Y-120314466D01*
X138987548Y-120339452D01*
X139012534Y-120369897D01*
X139031101Y-120404633D01*
X139042535Y-120442326D01*
X139047000Y-120487661D01*
X139047000Y-121574339D01*
X139042535Y-121619674D01*
X139031101Y-121657367D01*
X139012534Y-121692103D01*
X138987548Y-121722548D01*
X138957103Y-121747534D01*
X138922367Y-121766101D01*
X138884674Y-121777535D01*
X138839339Y-121782000D01*
X138002661Y-121782000D01*
X137957326Y-121777535D01*
X137919633Y-121766101D01*
X137884897Y-121747534D01*
X137854452Y-121722548D01*
X137829466Y-121692103D01*
X137810899Y-121657367D01*
X137799465Y-121619674D01*
X137795000Y-121574339D01*
X137795000Y-120487661D01*
X137799465Y-120442326D01*
X137810899Y-120404633D01*
X137829466Y-120369897D01*
X137854452Y-120339452D01*
X137884897Y-120314466D01*
X137919633Y-120295899D01*
X137957326Y-120284465D01*
X138002661Y-120280000D01*
X138839339Y-120280000D01*
X138884674Y-120284465D01*
G37*
G36*
X140934674Y-120284465D02*
G01*
X140972367Y-120295899D01*
X141007103Y-120314466D01*
X141037548Y-120339452D01*
X141062534Y-120369897D01*
X141081101Y-120404633D01*
X141092535Y-120442326D01*
X141097000Y-120487661D01*
X141097000Y-121574339D01*
X141092535Y-121619674D01*
X141081101Y-121657367D01*
X141062534Y-121692103D01*
X141037548Y-121722548D01*
X141007103Y-121747534D01*
X140972367Y-121766101D01*
X140934674Y-121777535D01*
X140889339Y-121782000D01*
X140052661Y-121782000D01*
X140007326Y-121777535D01*
X139969633Y-121766101D01*
X139934897Y-121747534D01*
X139904452Y-121722548D01*
X139879466Y-121692103D01*
X139860899Y-121657367D01*
X139849465Y-121619674D01*
X139845000Y-121574339D01*
X139845000Y-120487661D01*
X139849465Y-120442326D01*
X139860899Y-120404633D01*
X139879466Y-120369897D01*
X139904452Y-120339452D01*
X139934897Y-120314466D01*
X139969633Y-120295899D01*
X140007326Y-120284465D01*
X140052661Y-120280000D01*
X140889339Y-120280000D01*
X140934674Y-120284465D01*
G37*
G36*
X160805674Y-120284465D02*
G01*
X160843367Y-120295899D01*
X160878103Y-120314466D01*
X160908548Y-120339452D01*
X160933534Y-120369897D01*
X160952101Y-120404633D01*
X160963535Y-120442326D01*
X160968000Y-120487661D01*
X160968000Y-121574339D01*
X160963535Y-121619674D01*
X160952101Y-121657367D01*
X160933534Y-121692103D01*
X160908548Y-121722548D01*
X160878103Y-121747534D01*
X160843367Y-121766101D01*
X160805674Y-121777535D01*
X160760339Y-121782000D01*
X159923661Y-121782000D01*
X159878326Y-121777535D01*
X159840633Y-121766101D01*
X159805897Y-121747534D01*
X159775452Y-121722548D01*
X159750466Y-121692103D01*
X159731899Y-121657367D01*
X159720465Y-121619674D01*
X159716000Y-121574339D01*
X159716000Y-120487661D01*
X159720465Y-120442326D01*
X159731899Y-120404633D01*
X159750466Y-120369897D01*
X159775452Y-120339452D01*
X159805897Y-120314466D01*
X159840633Y-120295899D01*
X159878326Y-120284465D01*
X159923661Y-120280000D01*
X160760339Y-120280000D01*
X160805674Y-120284465D01*
G37*
G36*
X162819674Y-120284465D02*
G01*
X162857367Y-120295899D01*
X162892103Y-120314466D01*
X162922548Y-120339452D01*
X162947534Y-120369897D01*
X162966101Y-120404633D01*
X162977535Y-120442326D01*
X162982000Y-120487661D01*
X162982000Y-121574339D01*
X162977535Y-121619674D01*
X162966101Y-121657367D01*
X162947534Y-121692103D01*
X162922548Y-121722548D01*
X162892103Y-121747534D01*
X162857367Y-121766101D01*
X162819674Y-121777535D01*
X162774339Y-121782000D01*
X161937661Y-121782000D01*
X161892326Y-121777535D01*
X161854633Y-121766101D01*
X161819897Y-121747534D01*
X161789452Y-121722548D01*
X161764466Y-121692103D01*
X161745899Y-121657367D01*
X161734465Y-121619674D01*
X161730000Y-121574339D01*
X161730000Y-120487661D01*
X161734465Y-120442326D01*
X161745899Y-120404633D01*
X161764466Y-120369897D01*
X161789452Y-120339452D01*
X161819897Y-120314466D01*
X161854633Y-120295899D01*
X161892326Y-120284465D01*
X161937661Y-120280000D01*
X162774339Y-120280000D01*
X162819674Y-120284465D01*
G37*
G36*
X126819674Y-120284465D02*
G01*
X126857367Y-120295899D01*
X126892103Y-120314466D01*
X126922548Y-120339452D01*
X126947534Y-120369897D01*
X126966101Y-120404633D01*
X126977535Y-120442326D01*
X126982000Y-120487661D01*
X126982000Y-121574339D01*
X126977535Y-121619674D01*
X126966101Y-121657367D01*
X126947534Y-121692103D01*
X126922548Y-121722548D01*
X126892103Y-121747534D01*
X126857367Y-121766101D01*
X126819674Y-121777535D01*
X126774339Y-121782000D01*
X125937661Y-121782000D01*
X125892326Y-121777535D01*
X125854633Y-121766101D01*
X125819897Y-121747534D01*
X125789452Y-121722548D01*
X125764466Y-121692103D01*
X125745899Y-121657367D01*
X125734465Y-121619674D01*
X125730000Y-121574339D01*
X125730000Y-120487661D01*
X125734465Y-120442326D01*
X125745899Y-120404633D01*
X125764466Y-120369897D01*
X125789452Y-120339452D01*
X125819897Y-120314466D01*
X125854633Y-120295899D01*
X125892326Y-120284465D01*
X125937661Y-120280000D01*
X126774339Y-120280000D01*
X126819674Y-120284465D01*
G37*
G36*
X158755674Y-120284465D02*
G01*
X158793367Y-120295899D01*
X158828103Y-120314466D01*
X158858548Y-120339452D01*
X158883534Y-120369897D01*
X158902101Y-120404633D01*
X158913535Y-120442326D01*
X158918000Y-120487661D01*
X158918000Y-121574339D01*
X158913535Y-121619674D01*
X158902101Y-121657367D01*
X158883534Y-121692103D01*
X158858548Y-121722548D01*
X158828103Y-121747534D01*
X158793367Y-121766101D01*
X158755674Y-121777535D01*
X158710339Y-121782000D01*
X157873661Y-121782000D01*
X157828326Y-121777535D01*
X157790633Y-121766101D01*
X157755897Y-121747534D01*
X157725452Y-121722548D01*
X157700466Y-121692103D01*
X157681899Y-121657367D01*
X157670465Y-121619674D01*
X157666000Y-121574339D01*
X157666000Y-120487661D01*
X157670465Y-120442326D01*
X157681899Y-120404633D01*
X157700466Y-120369897D01*
X157725452Y-120339452D01*
X157755897Y-120314466D01*
X157790633Y-120295899D01*
X157828326Y-120284465D01*
X157873661Y-120280000D01*
X158710339Y-120280000D01*
X158755674Y-120284465D01*
G37*
G36*
X164869674Y-120284465D02*
G01*
X164907367Y-120295899D01*
X164942103Y-120314466D01*
X164972548Y-120339452D01*
X164997534Y-120369897D01*
X165016101Y-120404633D01*
X165027535Y-120442326D01*
X165032000Y-120487661D01*
X165032000Y-121574339D01*
X165027535Y-121619674D01*
X165016101Y-121657367D01*
X164997534Y-121692103D01*
X164972548Y-121722548D01*
X164942103Y-121747534D01*
X164907367Y-121766101D01*
X164869674Y-121777535D01*
X164824339Y-121782000D01*
X163987661Y-121782000D01*
X163942326Y-121777535D01*
X163904633Y-121766101D01*
X163869897Y-121747534D01*
X163839452Y-121722548D01*
X163814466Y-121692103D01*
X163795899Y-121657367D01*
X163784465Y-121619674D01*
X163780000Y-121574339D01*
X163780000Y-120487661D01*
X163784465Y-120442326D01*
X163795899Y-120404633D01*
X163814466Y-120369897D01*
X163839452Y-120339452D01*
X163869897Y-120314466D01*
X163904633Y-120295899D01*
X163942326Y-120284465D01*
X163987661Y-120280000D01*
X164824339Y-120280000D01*
X164869674Y-120284465D01*
G37*
G36*
X176934674Y-120284465D02*
G01*
X176972367Y-120295899D01*
X177007103Y-120314466D01*
X177037548Y-120339452D01*
X177062534Y-120369897D01*
X177081101Y-120404633D01*
X177092535Y-120442326D01*
X177097000Y-120487661D01*
X177097000Y-121574339D01*
X177092535Y-121619674D01*
X177081101Y-121657367D01*
X177062534Y-121692103D01*
X177037548Y-121722548D01*
X177007103Y-121747534D01*
X176972367Y-121766101D01*
X176934674Y-121777535D01*
X176889339Y-121782000D01*
X176052661Y-121782000D01*
X176007326Y-121777535D01*
X175969633Y-121766101D01*
X175934897Y-121747534D01*
X175904452Y-121722548D01*
X175879466Y-121692103D01*
X175860899Y-121657367D01*
X175849465Y-121619674D01*
X175845000Y-121574339D01*
X175845000Y-120487661D01*
X175849465Y-120442326D01*
X175860899Y-120404633D01*
X175879466Y-120369897D01*
X175904452Y-120339452D01*
X175934897Y-120314466D01*
X175969633Y-120295899D01*
X176007326Y-120284465D01*
X176052661Y-120280000D01*
X176889339Y-120280000D01*
X176934674Y-120284465D01*
G37*
G36*
X174884674Y-120284465D02*
G01*
X174922367Y-120295899D01*
X174957103Y-120314466D01*
X174987548Y-120339452D01*
X175012534Y-120369897D01*
X175031101Y-120404633D01*
X175042535Y-120442326D01*
X175047000Y-120487661D01*
X175047000Y-121574339D01*
X175042535Y-121619674D01*
X175031101Y-121657367D01*
X175012534Y-121692103D01*
X174987548Y-121722548D01*
X174957103Y-121747534D01*
X174922367Y-121766101D01*
X174884674Y-121777535D01*
X174839339Y-121782000D01*
X174002661Y-121782000D01*
X173957326Y-121777535D01*
X173919633Y-121766101D01*
X173884897Y-121747534D01*
X173854452Y-121722548D01*
X173829466Y-121692103D01*
X173810899Y-121657367D01*
X173799465Y-121619674D01*
X173795000Y-121574339D01*
X173795000Y-120487661D01*
X173799465Y-120442326D01*
X173810899Y-120404633D01*
X173829466Y-120369897D01*
X173854452Y-120339452D01*
X173884897Y-120314466D01*
X173919633Y-120295899D01*
X173957326Y-120284465D01*
X174002661Y-120280000D01*
X174839339Y-120280000D01*
X174884674Y-120284465D01*
G37*
G36*
X160805674Y-118252465D02*
G01*
X160843367Y-118263899D01*
X160878103Y-118282466D01*
X160908548Y-118307452D01*
X160933534Y-118337897D01*
X160952101Y-118372633D01*
X160963535Y-118410326D01*
X160968000Y-118455661D01*
X160968000Y-119542339D01*
X160963535Y-119587674D01*
X160952101Y-119625367D01*
X160933534Y-119660103D01*
X160908548Y-119690548D01*
X160878103Y-119715534D01*
X160843367Y-119734101D01*
X160805674Y-119745535D01*
X160760339Y-119750000D01*
X159923661Y-119750000D01*
X159878326Y-119745535D01*
X159840633Y-119734101D01*
X159805897Y-119715534D01*
X159775452Y-119690548D01*
X159750466Y-119660103D01*
X159731899Y-119625367D01*
X159720465Y-119587674D01*
X159716000Y-119542339D01*
X159716000Y-118455661D01*
X159720465Y-118410326D01*
X159731899Y-118372633D01*
X159750466Y-118337897D01*
X159775452Y-118307452D01*
X159805897Y-118282466D01*
X159840633Y-118263899D01*
X159878326Y-118252465D01*
X159923661Y-118248000D01*
X160760339Y-118248000D01*
X160805674Y-118252465D01*
G37*
G36*
X158755674Y-118252465D02*
G01*
X158793367Y-118263899D01*
X158828103Y-118282466D01*
X158858548Y-118307452D01*
X158883534Y-118337897D01*
X158902101Y-118372633D01*
X158913535Y-118410326D01*
X158918000Y-118455661D01*
X158918000Y-119542339D01*
X158913535Y-119587674D01*
X158902101Y-119625367D01*
X158883534Y-119660103D01*
X158858548Y-119690548D01*
X158828103Y-119715534D01*
X158793367Y-119734101D01*
X158755674Y-119745535D01*
X158710339Y-119750000D01*
X157873661Y-119750000D01*
X157828326Y-119745535D01*
X157790633Y-119734101D01*
X157755897Y-119715534D01*
X157725452Y-119690548D01*
X157700466Y-119660103D01*
X157681899Y-119625367D01*
X157670465Y-119587674D01*
X157666000Y-119542339D01*
X157666000Y-118455661D01*
X157670465Y-118410326D01*
X157681899Y-118372633D01*
X157700466Y-118337897D01*
X157725452Y-118307452D01*
X157755897Y-118282466D01*
X157790633Y-118263899D01*
X157828326Y-118252465D01*
X157873661Y-118248000D01*
X158710339Y-118248000D01*
X158755674Y-118252465D01*
G37*
G36*
X122755674Y-118252465D02*
G01*
X122793367Y-118263899D01*
X122828103Y-118282466D01*
X122858548Y-118307452D01*
X122883534Y-118337897D01*
X122902101Y-118372633D01*
X122913535Y-118410326D01*
X122918000Y-118455661D01*
X122918000Y-119542339D01*
X122913535Y-119587674D01*
X122902101Y-119625367D01*
X122883534Y-119660103D01*
X122858548Y-119690548D01*
X122828103Y-119715534D01*
X122793367Y-119734101D01*
X122755674Y-119745535D01*
X122710339Y-119750000D01*
X121873661Y-119750000D01*
X121828326Y-119745535D01*
X121790633Y-119734101D01*
X121755897Y-119715534D01*
X121725452Y-119690548D01*
X121700466Y-119660103D01*
X121681899Y-119625367D01*
X121670465Y-119587674D01*
X121666000Y-119542339D01*
X121666000Y-118455661D01*
X121670465Y-118410326D01*
X121681899Y-118372633D01*
X121700466Y-118337897D01*
X121725452Y-118307452D01*
X121755897Y-118282466D01*
X121790633Y-118263899D01*
X121828326Y-118252465D01*
X121873661Y-118248000D01*
X122710339Y-118248000D01*
X122755674Y-118252465D01*
G37*
G36*
X124805674Y-118252465D02*
G01*
X124843367Y-118263899D01*
X124878103Y-118282466D01*
X124908548Y-118307452D01*
X124933534Y-118337897D01*
X124952101Y-118372633D01*
X124963535Y-118410326D01*
X124968000Y-118455661D01*
X124968000Y-119542339D01*
X124963535Y-119587674D01*
X124952101Y-119625367D01*
X124933534Y-119660103D01*
X124908548Y-119690548D01*
X124878103Y-119715534D01*
X124843367Y-119734101D01*
X124805674Y-119745535D01*
X124760339Y-119750000D01*
X123923661Y-119750000D01*
X123878326Y-119745535D01*
X123840633Y-119734101D01*
X123805897Y-119715534D01*
X123775452Y-119690548D01*
X123750466Y-119660103D01*
X123731899Y-119625367D01*
X123720465Y-119587674D01*
X123716000Y-119542339D01*
X123716000Y-118455661D01*
X123720465Y-118410326D01*
X123731899Y-118372633D01*
X123750466Y-118337897D01*
X123775452Y-118307452D01*
X123805897Y-118282466D01*
X123840633Y-118263899D01*
X123878326Y-118252465D01*
X123923661Y-118248000D01*
X124760339Y-118248000D01*
X124805674Y-118252465D01*
G37*
G36*
X134608000Y-117484000D02*
G01*
X132706000Y-117484000D01*
X132706000Y-114782000D01*
X134608000Y-114782000D01*
X134608000Y-117484000D01*
G37*
G36*
X130008000Y-117484000D02*
G01*
X128106000Y-117484000D01*
X128106000Y-114782000D01*
X130008000Y-114782000D01*
X130008000Y-117484000D01*
G37*
G36*
X179808000Y-117484000D02*
G01*
X177906000Y-117484000D01*
X177906000Y-114782000D01*
X179808000Y-114782000D01*
X179808000Y-117484000D01*
G37*
G36*
X139358000Y-117484000D02*
G01*
X137456000Y-117484000D01*
X137456000Y-114782000D01*
X139358000Y-114782000D01*
X139358000Y-117484000D01*
G37*
G36*
X143808000Y-117484000D02*
G01*
X141906000Y-117484000D01*
X141906000Y-114782000D01*
X143808000Y-114782000D01*
X143808000Y-117484000D01*
G37*
G36*
X166008000Y-117484000D02*
G01*
X164106000Y-117484000D01*
X164106000Y-114782000D01*
X166008000Y-114782000D01*
X166008000Y-117484000D01*
G37*
G36*
X170608000Y-117484000D02*
G01*
X168706000Y-117484000D01*
X168706000Y-114782000D01*
X170608000Y-114782000D01*
X170608000Y-117484000D01*
G37*
G36*
X175358000Y-117484000D02*
G01*
X173456000Y-117484000D01*
X173456000Y-114782000D01*
X175358000Y-114782000D01*
X175358000Y-117484000D01*
G37*
G36*
X158033512Y-112565927D02*
G01*
X158182812Y-112595624D01*
X158346784Y-112663544D01*
X158494354Y-112762147D01*
X158619853Y-112887646D01*
X158718456Y-113035216D01*
X158786376Y-113199188D01*
X158821000Y-113373259D01*
X158821000Y-113550741D01*
X158786376Y-113724812D01*
X158718456Y-113888784D01*
X158619853Y-114036354D01*
X158494354Y-114161853D01*
X158346784Y-114260456D01*
X158182812Y-114328376D01*
X158033512Y-114358073D01*
X158008742Y-114363000D01*
X157831258Y-114363000D01*
X157806488Y-114358073D01*
X157657188Y-114328376D01*
X157493216Y-114260456D01*
X157345646Y-114161853D01*
X157220147Y-114036354D01*
X157121544Y-113888784D01*
X157053624Y-113724812D01*
X157019000Y-113550741D01*
X157019000Y-113373259D01*
X157053624Y-113199188D01*
X157121544Y-113035216D01*
X157220147Y-112887646D01*
X157345646Y-112762147D01*
X157493216Y-112663544D01*
X157657188Y-112595624D01*
X157806488Y-112565927D01*
X157831258Y-112561000D01*
X158008742Y-112561000D01*
X158033512Y-112565927D01*
G37*
G36*
X188513512Y-112565927D02*
G01*
X188662812Y-112595624D01*
X188826784Y-112663544D01*
X188974354Y-112762147D01*
X189099853Y-112887646D01*
X189198456Y-113035216D01*
X189266376Y-113199188D01*
X189301000Y-113373259D01*
X189301000Y-113550741D01*
X189266376Y-113724812D01*
X189198456Y-113888784D01*
X189099853Y-114036354D01*
X188974354Y-114161853D01*
X188826784Y-114260456D01*
X188662812Y-114328376D01*
X188513512Y-114358073D01*
X188488742Y-114363000D01*
X188311258Y-114363000D01*
X188286488Y-114358073D01*
X188137188Y-114328376D01*
X187973216Y-114260456D01*
X187825646Y-114161853D01*
X187700147Y-114036354D01*
X187601544Y-113888784D01*
X187533624Y-113724812D01*
X187499000Y-113550741D01*
X187499000Y-113373259D01*
X187533624Y-113199188D01*
X187601544Y-113035216D01*
X187700147Y-112887646D01*
X187825646Y-112762147D01*
X187973216Y-112663544D01*
X188137188Y-112595624D01*
X188286488Y-112565927D01*
X188311258Y-112561000D01*
X188488742Y-112561000D01*
X188513512Y-112565927D01*
G37*
G36*
X122033512Y-112565927D02*
G01*
X122182812Y-112595624D01*
X122346784Y-112663544D01*
X122494354Y-112762147D01*
X122619853Y-112887646D01*
X122718456Y-113035216D01*
X122786376Y-113199188D01*
X122821000Y-113373259D01*
X122821000Y-113550741D01*
X122786376Y-113724812D01*
X122718456Y-113888784D01*
X122619853Y-114036354D01*
X122494354Y-114161853D01*
X122346784Y-114260456D01*
X122182812Y-114328376D01*
X122033512Y-114358073D01*
X122008742Y-114363000D01*
X121831258Y-114363000D01*
X121806488Y-114358073D01*
X121657188Y-114328376D01*
X121493216Y-114260456D01*
X121345646Y-114161853D01*
X121220147Y-114036354D01*
X121121544Y-113888784D01*
X121053624Y-113724812D01*
X121019000Y-113550741D01*
X121019000Y-113373259D01*
X121053624Y-113199188D01*
X121121544Y-113035216D01*
X121220147Y-112887646D01*
X121345646Y-112762147D01*
X121493216Y-112663544D01*
X121657188Y-112595624D01*
X121806488Y-112565927D01*
X121831258Y-112561000D01*
X122008742Y-112561000D01*
X122033512Y-112565927D01*
G37*
G36*
X149973512Y-112565927D02*
G01*
X150122812Y-112595624D01*
X150286784Y-112663544D01*
X150434354Y-112762147D01*
X150559853Y-112887646D01*
X150658456Y-113035216D01*
X150726376Y-113199188D01*
X150761000Y-113373259D01*
X150761000Y-113550741D01*
X150726376Y-113724812D01*
X150658456Y-113888784D01*
X150559853Y-114036354D01*
X150434354Y-114161853D01*
X150286784Y-114260456D01*
X150122812Y-114328376D01*
X149973512Y-114358073D01*
X149948742Y-114363000D01*
X149771258Y-114363000D01*
X149746488Y-114358073D01*
X149597188Y-114328376D01*
X149433216Y-114260456D01*
X149285646Y-114161853D01*
X149160147Y-114036354D01*
X149061544Y-113888784D01*
X148993624Y-113724812D01*
X148959000Y-113550741D01*
X148959000Y-113373259D01*
X148993624Y-113199188D01*
X149061544Y-113035216D01*
X149160147Y-112887646D01*
X149285646Y-112762147D01*
X149433216Y-112663544D01*
X149597188Y-112595624D01*
X149746488Y-112565927D01*
X149771258Y-112561000D01*
X149948742Y-112561000D01*
X149973512Y-112565927D01*
G37*
G36*
X152513512Y-112565927D02*
G01*
X152662812Y-112595624D01*
X152826784Y-112663544D01*
X152974354Y-112762147D01*
X153099853Y-112887646D01*
X153198456Y-113035216D01*
X153266376Y-113199188D01*
X153301000Y-113373259D01*
X153301000Y-113550741D01*
X153266376Y-113724812D01*
X153198456Y-113888784D01*
X153099853Y-114036354D01*
X152974354Y-114161853D01*
X152826784Y-114260456D01*
X152662812Y-114328376D01*
X152513512Y-114358073D01*
X152488742Y-114363000D01*
X152311258Y-114363000D01*
X152286488Y-114358073D01*
X152137188Y-114328376D01*
X151973216Y-114260456D01*
X151825646Y-114161853D01*
X151700147Y-114036354D01*
X151601544Y-113888784D01*
X151533624Y-113724812D01*
X151499000Y-113550741D01*
X151499000Y-113373259D01*
X151533624Y-113199188D01*
X151601544Y-113035216D01*
X151700147Y-112887646D01*
X151825646Y-112762147D01*
X151973216Y-112663544D01*
X152137188Y-112595624D01*
X152286488Y-112565927D01*
X152311258Y-112561000D01*
X152488742Y-112561000D01*
X152513512Y-112565927D01*
G37*
G36*
X185973512Y-112565927D02*
G01*
X186122812Y-112595624D01*
X186286784Y-112663544D01*
X186434354Y-112762147D01*
X186559853Y-112887646D01*
X186658456Y-113035216D01*
X186726376Y-113199188D01*
X186761000Y-113373259D01*
X186761000Y-113550741D01*
X186726376Y-113724812D01*
X186658456Y-113888784D01*
X186559853Y-114036354D01*
X186434354Y-114161853D01*
X186286784Y-114260456D01*
X186122812Y-114328376D01*
X185973512Y-114358073D01*
X185948742Y-114363000D01*
X185771258Y-114363000D01*
X185746488Y-114358073D01*
X185597188Y-114328376D01*
X185433216Y-114260456D01*
X185285646Y-114161853D01*
X185160147Y-114036354D01*
X185061544Y-113888784D01*
X184993624Y-113724812D01*
X184959000Y-113550741D01*
X184959000Y-113373259D01*
X184993624Y-113199188D01*
X185061544Y-113035216D01*
X185160147Y-112887646D01*
X185285646Y-112762147D01*
X185433216Y-112663544D01*
X185597188Y-112595624D01*
X185746488Y-112565927D01*
X185771258Y-112561000D01*
X185948742Y-112561000D01*
X185973512Y-112565927D01*
G37*
G36*
X128468000Y-113234000D02*
G01*
X125766000Y-113234000D01*
X125766000Y-111332000D01*
X128468000Y-111332000D01*
X128468000Y-113234000D01*
G37*
G36*
X146268000Y-113234000D02*
G01*
X143566000Y-113234000D01*
X143566000Y-111332000D01*
X146268000Y-111332000D01*
X146268000Y-113234000D01*
G37*
G36*
X182268000Y-113234000D02*
G01*
X179566000Y-113234000D01*
X179566000Y-111332000D01*
X182268000Y-111332000D01*
X182268000Y-113234000D01*
G37*
G36*
X164468000Y-113234000D02*
G01*
X161766000Y-113234000D01*
X161766000Y-111332000D01*
X164468000Y-111332000D01*
X164468000Y-113234000D01*
G37*
G36*
X152513512Y-110025927D02*
G01*
X152662812Y-110055624D01*
X152826784Y-110123544D01*
X152974354Y-110222147D01*
X153099853Y-110347646D01*
X153198456Y-110495216D01*
X153266376Y-110659188D01*
X153301000Y-110833259D01*
X153301000Y-111010741D01*
X153266376Y-111184812D01*
X153198456Y-111348784D01*
X153099853Y-111496354D01*
X152974354Y-111621853D01*
X152826784Y-111720456D01*
X152662812Y-111788376D01*
X152513512Y-111818073D01*
X152488742Y-111823000D01*
X152311258Y-111823000D01*
X152286488Y-111818073D01*
X152137188Y-111788376D01*
X151973216Y-111720456D01*
X151825646Y-111621853D01*
X151700147Y-111496354D01*
X151601544Y-111348784D01*
X151533624Y-111184812D01*
X151499000Y-111010741D01*
X151499000Y-110833259D01*
X151533624Y-110659188D01*
X151601544Y-110495216D01*
X151700147Y-110347646D01*
X151825646Y-110222147D01*
X151973216Y-110123544D01*
X152137188Y-110055624D01*
X152286488Y-110025927D01*
X152311258Y-110021000D01*
X152488742Y-110021000D01*
X152513512Y-110025927D01*
G37*
G36*
X158033512Y-110025927D02*
G01*
X158182812Y-110055624D01*
X158346784Y-110123544D01*
X158494354Y-110222147D01*
X158619853Y-110347646D01*
X158718456Y-110495216D01*
X158786376Y-110659188D01*
X158821000Y-110833259D01*
X158821000Y-111010741D01*
X158786376Y-111184812D01*
X158718456Y-111348784D01*
X158619853Y-111496354D01*
X158494354Y-111621853D01*
X158346784Y-111720456D01*
X158182812Y-111788376D01*
X158033512Y-111818073D01*
X158008742Y-111823000D01*
X157831258Y-111823000D01*
X157806488Y-111818073D01*
X157657188Y-111788376D01*
X157493216Y-111720456D01*
X157345646Y-111621853D01*
X157220147Y-111496354D01*
X157121544Y-111348784D01*
X157053624Y-111184812D01*
X157019000Y-111010741D01*
X157019000Y-110833259D01*
X157053624Y-110659188D01*
X157121544Y-110495216D01*
X157220147Y-110347646D01*
X157345646Y-110222147D01*
X157493216Y-110123544D01*
X157657188Y-110055624D01*
X157806488Y-110025927D01*
X157831258Y-110021000D01*
X158008742Y-110021000D01*
X158033512Y-110025927D01*
G37*
G36*
X149973512Y-110025927D02*
G01*
X150122812Y-110055624D01*
X150286784Y-110123544D01*
X150434354Y-110222147D01*
X150559853Y-110347646D01*
X150658456Y-110495216D01*
X150726376Y-110659188D01*
X150761000Y-110833259D01*
X150761000Y-111010741D01*
X150726376Y-111184812D01*
X150658456Y-111348784D01*
X150559853Y-111496354D01*
X150434354Y-111621853D01*
X150286784Y-111720456D01*
X150122812Y-111788376D01*
X149973512Y-111818073D01*
X149948742Y-111823000D01*
X149771258Y-111823000D01*
X149746488Y-111818073D01*
X149597188Y-111788376D01*
X149433216Y-111720456D01*
X149285646Y-111621853D01*
X149160147Y-111496354D01*
X149061544Y-111348784D01*
X148993624Y-111184812D01*
X148959000Y-111010741D01*
X148959000Y-110833259D01*
X148993624Y-110659188D01*
X149061544Y-110495216D01*
X149160147Y-110347646D01*
X149285646Y-110222147D01*
X149433216Y-110123544D01*
X149597188Y-110055624D01*
X149746488Y-110025927D01*
X149771258Y-110021000D01*
X149948742Y-110021000D01*
X149973512Y-110025927D01*
G37*
G36*
X188513512Y-110025927D02*
G01*
X188662812Y-110055624D01*
X188826784Y-110123544D01*
X188974354Y-110222147D01*
X189099853Y-110347646D01*
X189198456Y-110495216D01*
X189266376Y-110659188D01*
X189301000Y-110833259D01*
X189301000Y-111010741D01*
X189266376Y-111184812D01*
X189198456Y-111348784D01*
X189099853Y-111496354D01*
X188974354Y-111621853D01*
X188826784Y-111720456D01*
X188662812Y-111788376D01*
X188513512Y-111818073D01*
X188488742Y-111823000D01*
X188311258Y-111823000D01*
X188286488Y-111818073D01*
X188137188Y-111788376D01*
X187973216Y-111720456D01*
X187825646Y-111621853D01*
X187700147Y-111496354D01*
X187601544Y-111348784D01*
X187533624Y-111184812D01*
X187499000Y-111010741D01*
X187499000Y-110833259D01*
X187533624Y-110659188D01*
X187601544Y-110495216D01*
X187700147Y-110347646D01*
X187825646Y-110222147D01*
X187973216Y-110123544D01*
X188137188Y-110055624D01*
X188286488Y-110025927D01*
X188311258Y-110021000D01*
X188488742Y-110021000D01*
X188513512Y-110025927D01*
G37*
G36*
X122033512Y-110025927D02*
G01*
X122182812Y-110055624D01*
X122346784Y-110123544D01*
X122494354Y-110222147D01*
X122619853Y-110347646D01*
X122718456Y-110495216D01*
X122786376Y-110659188D01*
X122821000Y-110833259D01*
X122821000Y-111010741D01*
X122786376Y-111184812D01*
X122718456Y-111348784D01*
X122619853Y-111496354D01*
X122494354Y-111621853D01*
X122346784Y-111720456D01*
X122182812Y-111788376D01*
X122033512Y-111818073D01*
X122008742Y-111823000D01*
X121831258Y-111823000D01*
X121806488Y-111818073D01*
X121657188Y-111788376D01*
X121493216Y-111720456D01*
X121345646Y-111621853D01*
X121220147Y-111496354D01*
X121121544Y-111348784D01*
X121053624Y-111184812D01*
X121019000Y-111010741D01*
X121019000Y-110833259D01*
X121053624Y-110659188D01*
X121121544Y-110495216D01*
X121220147Y-110347646D01*
X121345646Y-110222147D01*
X121493216Y-110123544D01*
X121657188Y-110055624D01*
X121806488Y-110025927D01*
X121831258Y-110021000D01*
X122008742Y-110021000D01*
X122033512Y-110025927D01*
G37*
G36*
X185973512Y-110025927D02*
G01*
X186122812Y-110055624D01*
X186286784Y-110123544D01*
X186434354Y-110222147D01*
X186559853Y-110347646D01*
X186658456Y-110495216D01*
X186726376Y-110659188D01*
X186761000Y-110833259D01*
X186761000Y-111010741D01*
X186726376Y-111184812D01*
X186658456Y-111348784D01*
X186559853Y-111496354D01*
X186434354Y-111621853D01*
X186286784Y-111720456D01*
X186122812Y-111788376D01*
X185973512Y-111818073D01*
X185948742Y-111823000D01*
X185771258Y-111823000D01*
X185746488Y-111818073D01*
X185597188Y-111788376D01*
X185433216Y-111720456D01*
X185285646Y-111621853D01*
X185160147Y-111496354D01*
X185061544Y-111348784D01*
X184993624Y-111184812D01*
X184959000Y-111010741D01*
X184959000Y-110833259D01*
X184993624Y-110659188D01*
X185061544Y-110495216D01*
X185160147Y-110347646D01*
X185285646Y-110222147D01*
X185433216Y-110123544D01*
X185597188Y-110055624D01*
X185746488Y-110025927D01*
X185771258Y-110021000D01*
X185948742Y-110021000D01*
X185973512Y-110025927D01*
G37*
G36*
X149973512Y-107485927D02*
G01*
X150122812Y-107515624D01*
X150286784Y-107583544D01*
X150434354Y-107682147D01*
X150559853Y-107807646D01*
X150658456Y-107955216D01*
X150726376Y-108119188D01*
X150761000Y-108293259D01*
X150761000Y-108470741D01*
X150726376Y-108644812D01*
X150658456Y-108808784D01*
X150559853Y-108956354D01*
X150434354Y-109081853D01*
X150286784Y-109180456D01*
X150122812Y-109248376D01*
X149973512Y-109278073D01*
X149948742Y-109283000D01*
X149771258Y-109283000D01*
X149746488Y-109278073D01*
X149597188Y-109248376D01*
X149433216Y-109180456D01*
X149285646Y-109081853D01*
X149160147Y-108956354D01*
X149061544Y-108808784D01*
X148993624Y-108644812D01*
X148959000Y-108470741D01*
X148959000Y-108293259D01*
X148993624Y-108119188D01*
X149061544Y-107955216D01*
X149160147Y-107807646D01*
X149285646Y-107682147D01*
X149433216Y-107583544D01*
X149597188Y-107515624D01*
X149746488Y-107485927D01*
X149771258Y-107481000D01*
X149948742Y-107481000D01*
X149973512Y-107485927D01*
G37*
G36*
X122033512Y-107485927D02*
G01*
X122182812Y-107515624D01*
X122346784Y-107583544D01*
X122494354Y-107682147D01*
X122619853Y-107807646D01*
X122718456Y-107955216D01*
X122786376Y-108119188D01*
X122821000Y-108293259D01*
X122821000Y-108470741D01*
X122786376Y-108644812D01*
X122718456Y-108808784D01*
X122619853Y-108956354D01*
X122494354Y-109081853D01*
X122346784Y-109180456D01*
X122182812Y-109248376D01*
X122033512Y-109278073D01*
X122008742Y-109283000D01*
X121831258Y-109283000D01*
X121806488Y-109278073D01*
X121657188Y-109248376D01*
X121493216Y-109180456D01*
X121345646Y-109081853D01*
X121220147Y-108956354D01*
X121121544Y-108808784D01*
X121053624Y-108644812D01*
X121019000Y-108470741D01*
X121019000Y-108293259D01*
X121053624Y-108119188D01*
X121121544Y-107955216D01*
X121220147Y-107807646D01*
X121345646Y-107682147D01*
X121493216Y-107583544D01*
X121657188Y-107515624D01*
X121806488Y-107485927D01*
X121831258Y-107481000D01*
X122008742Y-107481000D01*
X122033512Y-107485927D01*
G37*
G36*
X158033512Y-107485927D02*
G01*
X158182812Y-107515624D01*
X158346784Y-107583544D01*
X158494354Y-107682147D01*
X158619853Y-107807646D01*
X158718456Y-107955216D01*
X158786376Y-108119188D01*
X158821000Y-108293259D01*
X158821000Y-108470741D01*
X158786376Y-108644812D01*
X158718456Y-108808784D01*
X158619853Y-108956354D01*
X158494354Y-109081853D01*
X158346784Y-109180456D01*
X158182812Y-109248376D01*
X158033512Y-109278073D01*
X158008742Y-109283000D01*
X157831258Y-109283000D01*
X157806488Y-109278073D01*
X157657188Y-109248376D01*
X157493216Y-109180456D01*
X157345646Y-109081853D01*
X157220147Y-108956354D01*
X157121544Y-108808784D01*
X157053624Y-108644812D01*
X157019000Y-108470741D01*
X157019000Y-108293259D01*
X157053624Y-108119188D01*
X157121544Y-107955216D01*
X157220147Y-107807646D01*
X157345646Y-107682147D01*
X157493216Y-107583544D01*
X157657188Y-107515624D01*
X157806488Y-107485927D01*
X157831258Y-107481000D01*
X158008742Y-107481000D01*
X158033512Y-107485927D01*
G37*
G36*
X188513512Y-107485927D02*
G01*
X188662812Y-107515624D01*
X188826784Y-107583544D01*
X188974354Y-107682147D01*
X189099853Y-107807646D01*
X189198456Y-107955216D01*
X189266376Y-108119188D01*
X189301000Y-108293259D01*
X189301000Y-108470741D01*
X189266376Y-108644812D01*
X189198456Y-108808784D01*
X189099853Y-108956354D01*
X188974354Y-109081853D01*
X188826784Y-109180456D01*
X188662812Y-109248376D01*
X188513512Y-109278073D01*
X188488742Y-109283000D01*
X188311258Y-109283000D01*
X188286488Y-109278073D01*
X188137188Y-109248376D01*
X187973216Y-109180456D01*
X187825646Y-109081853D01*
X187700147Y-108956354D01*
X187601544Y-108808784D01*
X187533624Y-108644812D01*
X187499000Y-108470741D01*
X187499000Y-108293259D01*
X187533624Y-108119188D01*
X187601544Y-107955216D01*
X187700147Y-107807646D01*
X187825646Y-107682147D01*
X187973216Y-107583544D01*
X188137188Y-107515624D01*
X188286488Y-107485927D01*
X188311258Y-107481000D01*
X188488742Y-107481000D01*
X188513512Y-107485927D01*
G37*
G36*
X185973512Y-107485927D02*
G01*
X186122812Y-107515624D01*
X186286784Y-107583544D01*
X186434354Y-107682147D01*
X186559853Y-107807646D01*
X186658456Y-107955216D01*
X186726376Y-108119188D01*
X186761000Y-108293259D01*
X186761000Y-108470741D01*
X186726376Y-108644812D01*
X186658456Y-108808784D01*
X186559853Y-108956354D01*
X186434354Y-109081853D01*
X186286784Y-109180456D01*
X186122812Y-109248376D01*
X185973512Y-109278073D01*
X185948742Y-109283000D01*
X185771258Y-109283000D01*
X185746488Y-109278073D01*
X185597188Y-109248376D01*
X185433216Y-109180456D01*
X185285646Y-109081853D01*
X185160147Y-108956354D01*
X185061544Y-108808784D01*
X184993624Y-108644812D01*
X184959000Y-108470741D01*
X184959000Y-108293259D01*
X184993624Y-108119188D01*
X185061544Y-107955216D01*
X185160147Y-107807646D01*
X185285646Y-107682147D01*
X185433216Y-107583544D01*
X185597188Y-107515624D01*
X185746488Y-107485927D01*
X185771258Y-107481000D01*
X185948742Y-107481000D01*
X185973512Y-107485927D01*
G37*
G36*
X152513512Y-107485927D02*
G01*
X152662812Y-107515624D01*
X152826784Y-107583544D01*
X152974354Y-107682147D01*
X153099853Y-107807646D01*
X153198456Y-107955216D01*
X153266376Y-108119188D01*
X153301000Y-108293259D01*
X153301000Y-108470741D01*
X153266376Y-108644812D01*
X153198456Y-108808784D01*
X153099853Y-108956354D01*
X152974354Y-109081853D01*
X152826784Y-109180456D01*
X152662812Y-109248376D01*
X152513512Y-109278073D01*
X152488742Y-109283000D01*
X152311258Y-109283000D01*
X152286488Y-109278073D01*
X152137188Y-109248376D01*
X151973216Y-109180456D01*
X151825646Y-109081853D01*
X151700147Y-108956354D01*
X151601544Y-108808784D01*
X151533624Y-108644812D01*
X151499000Y-108470741D01*
X151499000Y-108293259D01*
X151533624Y-108119188D01*
X151601544Y-107955216D01*
X151700147Y-107807646D01*
X151825646Y-107682147D01*
X151973216Y-107583544D01*
X152137188Y-107515624D01*
X152286488Y-107485927D01*
X152311258Y-107481000D01*
X152488742Y-107481000D01*
X152513512Y-107485927D01*
G37*
G36*
X164468000Y-108784000D02*
G01*
X161766000Y-108784000D01*
X161766000Y-106882000D01*
X164468000Y-106882000D01*
X164468000Y-108784000D01*
G37*
G36*
X182268000Y-108784000D02*
G01*
X179566000Y-108784000D01*
X179566000Y-106882000D01*
X182268000Y-106882000D01*
X182268000Y-108784000D01*
G37*
G36*
X128468000Y-108784000D02*
G01*
X125766000Y-108784000D01*
X125766000Y-106882000D01*
X128468000Y-106882000D01*
X128468000Y-108784000D01*
G37*
G36*
X146268000Y-108784000D02*
G01*
X143566000Y-108784000D01*
X143566000Y-106882000D01*
X146268000Y-106882000D01*
X146268000Y-108784000D01*
G37*
G36*
X122033512Y-104945927D02*
G01*
X122182812Y-104975624D01*
X122346784Y-105043544D01*
X122494354Y-105142147D01*
X122619853Y-105267646D01*
X122718456Y-105415216D01*
X122786376Y-105579188D01*
X122821000Y-105753259D01*
X122821000Y-105930741D01*
X122786376Y-106104812D01*
X122718456Y-106268784D01*
X122619853Y-106416354D01*
X122494354Y-106541853D01*
X122346784Y-106640456D01*
X122182812Y-106708376D01*
X122033512Y-106738073D01*
X122008742Y-106743000D01*
X121831258Y-106743000D01*
X121806488Y-106738073D01*
X121657188Y-106708376D01*
X121493216Y-106640456D01*
X121345646Y-106541853D01*
X121220147Y-106416354D01*
X121121544Y-106268784D01*
X121053624Y-106104812D01*
X121019000Y-105930741D01*
X121019000Y-105753259D01*
X121053624Y-105579188D01*
X121121544Y-105415216D01*
X121220147Y-105267646D01*
X121345646Y-105142147D01*
X121493216Y-105043544D01*
X121657188Y-104975624D01*
X121806488Y-104945927D01*
X121831258Y-104941000D01*
X122008742Y-104941000D01*
X122033512Y-104945927D01*
G37*
G36*
X149973512Y-104945927D02*
G01*
X150122812Y-104975624D01*
X150286784Y-105043544D01*
X150434354Y-105142147D01*
X150559853Y-105267646D01*
X150658456Y-105415216D01*
X150726376Y-105579188D01*
X150761000Y-105753259D01*
X150761000Y-105930741D01*
X150726376Y-106104812D01*
X150658456Y-106268784D01*
X150559853Y-106416354D01*
X150434354Y-106541853D01*
X150286784Y-106640456D01*
X150122812Y-106708376D01*
X149973512Y-106738073D01*
X149948742Y-106743000D01*
X149771258Y-106743000D01*
X149746488Y-106738073D01*
X149597188Y-106708376D01*
X149433216Y-106640456D01*
X149285646Y-106541853D01*
X149160147Y-106416354D01*
X149061544Y-106268784D01*
X148993624Y-106104812D01*
X148959000Y-105930741D01*
X148959000Y-105753259D01*
X148993624Y-105579188D01*
X149061544Y-105415216D01*
X149160147Y-105267646D01*
X149285646Y-105142147D01*
X149433216Y-105043544D01*
X149597188Y-104975624D01*
X149746488Y-104945927D01*
X149771258Y-104941000D01*
X149948742Y-104941000D01*
X149973512Y-104945927D01*
G37*
G36*
X188513512Y-104945927D02*
G01*
X188662812Y-104975624D01*
X188826784Y-105043544D01*
X188974354Y-105142147D01*
X189099853Y-105267646D01*
X189198456Y-105415216D01*
X189266376Y-105579188D01*
X189301000Y-105753259D01*
X189301000Y-105930741D01*
X189266376Y-106104812D01*
X189198456Y-106268784D01*
X189099853Y-106416354D01*
X188974354Y-106541853D01*
X188826784Y-106640456D01*
X188662812Y-106708376D01*
X188513512Y-106738073D01*
X188488742Y-106743000D01*
X188311258Y-106743000D01*
X188286488Y-106738073D01*
X188137188Y-106708376D01*
X187973216Y-106640456D01*
X187825646Y-106541853D01*
X187700147Y-106416354D01*
X187601544Y-106268784D01*
X187533624Y-106104812D01*
X187499000Y-105930741D01*
X187499000Y-105753259D01*
X187533624Y-105579188D01*
X187601544Y-105415216D01*
X187700147Y-105267646D01*
X187825646Y-105142147D01*
X187973216Y-105043544D01*
X188137188Y-104975624D01*
X188286488Y-104945927D01*
X188311258Y-104941000D01*
X188488742Y-104941000D01*
X188513512Y-104945927D01*
G37*
G36*
X185973512Y-104945927D02*
G01*
X186122812Y-104975624D01*
X186286784Y-105043544D01*
X186434354Y-105142147D01*
X186559853Y-105267646D01*
X186658456Y-105415216D01*
X186726376Y-105579188D01*
X186761000Y-105753259D01*
X186761000Y-105930741D01*
X186726376Y-106104812D01*
X186658456Y-106268784D01*
X186559853Y-106416354D01*
X186434354Y-106541853D01*
X186286784Y-106640456D01*
X186122812Y-106708376D01*
X185973512Y-106738073D01*
X185948742Y-106743000D01*
X185771258Y-106743000D01*
X185746488Y-106738073D01*
X185597188Y-106708376D01*
X185433216Y-106640456D01*
X185285646Y-106541853D01*
X185160147Y-106416354D01*
X185061544Y-106268784D01*
X184993624Y-106104812D01*
X184959000Y-105930741D01*
X184959000Y-105753259D01*
X184993624Y-105579188D01*
X185061544Y-105415216D01*
X185160147Y-105267646D01*
X185285646Y-105142147D01*
X185433216Y-105043544D01*
X185597188Y-104975624D01*
X185746488Y-104945927D01*
X185771258Y-104941000D01*
X185948742Y-104941000D01*
X185973512Y-104945927D01*
G37*
G36*
X158033512Y-104945927D02*
G01*
X158182812Y-104975624D01*
X158346784Y-105043544D01*
X158494354Y-105142147D01*
X158619853Y-105267646D01*
X158718456Y-105415216D01*
X158786376Y-105579188D01*
X158821000Y-105753259D01*
X158821000Y-105930741D01*
X158786376Y-106104812D01*
X158718456Y-106268784D01*
X158619853Y-106416354D01*
X158494354Y-106541853D01*
X158346784Y-106640456D01*
X158182812Y-106708376D01*
X158033512Y-106738073D01*
X158008742Y-106743000D01*
X157831258Y-106743000D01*
X157806488Y-106738073D01*
X157657188Y-106708376D01*
X157493216Y-106640456D01*
X157345646Y-106541853D01*
X157220147Y-106416354D01*
X157121544Y-106268784D01*
X157053624Y-106104812D01*
X157019000Y-105930741D01*
X157019000Y-105753259D01*
X157053624Y-105579188D01*
X157121544Y-105415216D01*
X157220147Y-105267646D01*
X157345646Y-105142147D01*
X157493216Y-105043544D01*
X157657188Y-104975624D01*
X157806488Y-104945927D01*
X157831258Y-104941000D01*
X158008742Y-104941000D01*
X158033512Y-104945927D01*
G37*
G36*
X152513512Y-104945927D02*
G01*
X152662812Y-104975624D01*
X152826784Y-105043544D01*
X152974354Y-105142147D01*
X153099853Y-105267646D01*
X153198456Y-105415216D01*
X153266376Y-105579188D01*
X153301000Y-105753259D01*
X153301000Y-105930741D01*
X153266376Y-106104812D01*
X153198456Y-106268784D01*
X153099853Y-106416354D01*
X152974354Y-106541853D01*
X152826784Y-106640456D01*
X152662812Y-106708376D01*
X152513512Y-106738073D01*
X152488742Y-106743000D01*
X152311258Y-106743000D01*
X152286488Y-106738073D01*
X152137188Y-106708376D01*
X151973216Y-106640456D01*
X151825646Y-106541853D01*
X151700147Y-106416354D01*
X151601544Y-106268784D01*
X151533624Y-106104812D01*
X151499000Y-105930741D01*
X151499000Y-105753259D01*
X151533624Y-105579188D01*
X151601544Y-105415216D01*
X151700147Y-105267646D01*
X151825646Y-105142147D01*
X151973216Y-105043544D01*
X152137188Y-104975624D01*
X152286488Y-104945927D01*
X152311258Y-104941000D01*
X152488742Y-104941000D01*
X152513512Y-104945927D01*
G37*
G36*
X164468000Y-104334000D02*
G01*
X161766000Y-104334000D01*
X161766000Y-102432000D01*
X164468000Y-102432000D01*
X164468000Y-104334000D01*
G37*
G36*
X182268000Y-104334000D02*
G01*
X179566000Y-104334000D01*
X179566000Y-102432000D01*
X182268000Y-102432000D01*
X182268000Y-104334000D01*
G37*
G36*
X146268000Y-104334000D02*
G01*
X143566000Y-104334000D01*
X143566000Y-102432000D01*
X146268000Y-102432000D01*
X146268000Y-104334000D01*
G37*
G36*
X128468000Y-104334000D02*
G01*
X125766000Y-104334000D01*
X125766000Y-102432000D01*
X128468000Y-102432000D01*
X128468000Y-104334000D01*
G37*
G36*
X152513512Y-102405927D02*
G01*
X152662812Y-102435624D01*
X152826784Y-102503544D01*
X152974354Y-102602147D01*
X153099853Y-102727646D01*
X153198456Y-102875216D01*
X153266376Y-103039188D01*
X153301000Y-103213259D01*
X153301000Y-103390741D01*
X153266376Y-103564812D01*
X153198456Y-103728784D01*
X153099853Y-103876354D01*
X152974354Y-104001853D01*
X152826784Y-104100456D01*
X152662812Y-104168376D01*
X152513512Y-104198073D01*
X152488742Y-104203000D01*
X152311258Y-104203000D01*
X152286488Y-104198073D01*
X152137188Y-104168376D01*
X151973216Y-104100456D01*
X151825646Y-104001853D01*
X151700147Y-103876354D01*
X151601544Y-103728784D01*
X151533624Y-103564812D01*
X151499000Y-103390741D01*
X151499000Y-103213259D01*
X151533624Y-103039188D01*
X151601544Y-102875216D01*
X151700147Y-102727646D01*
X151825646Y-102602147D01*
X151973216Y-102503544D01*
X152137188Y-102435624D01*
X152286488Y-102405927D01*
X152311258Y-102401000D01*
X152488742Y-102401000D01*
X152513512Y-102405927D01*
G37*
G36*
X185973512Y-102405927D02*
G01*
X186122812Y-102435624D01*
X186286784Y-102503544D01*
X186434354Y-102602147D01*
X186559853Y-102727646D01*
X186658456Y-102875216D01*
X186726376Y-103039188D01*
X186761000Y-103213259D01*
X186761000Y-103390741D01*
X186726376Y-103564812D01*
X186658456Y-103728784D01*
X186559853Y-103876354D01*
X186434354Y-104001853D01*
X186286784Y-104100456D01*
X186122812Y-104168376D01*
X185973512Y-104198073D01*
X185948742Y-104203000D01*
X185771258Y-104203000D01*
X185746488Y-104198073D01*
X185597188Y-104168376D01*
X185433216Y-104100456D01*
X185285646Y-104001853D01*
X185160147Y-103876354D01*
X185061544Y-103728784D01*
X184993624Y-103564812D01*
X184959000Y-103390741D01*
X184959000Y-103213259D01*
X184993624Y-103039188D01*
X185061544Y-102875216D01*
X185160147Y-102727646D01*
X185285646Y-102602147D01*
X185433216Y-102503544D01*
X185597188Y-102435624D01*
X185746488Y-102405927D01*
X185771258Y-102401000D01*
X185948742Y-102401000D01*
X185973512Y-102405927D01*
G37*
G36*
X158033512Y-102405927D02*
G01*
X158182812Y-102435624D01*
X158346784Y-102503544D01*
X158494354Y-102602147D01*
X158619853Y-102727646D01*
X158718456Y-102875216D01*
X158786376Y-103039188D01*
X158821000Y-103213259D01*
X158821000Y-103390741D01*
X158786376Y-103564812D01*
X158718456Y-103728784D01*
X158619853Y-103876354D01*
X158494354Y-104001853D01*
X158346784Y-104100456D01*
X158182812Y-104168376D01*
X158033512Y-104198073D01*
X158008742Y-104203000D01*
X157831258Y-104203000D01*
X157806488Y-104198073D01*
X157657188Y-104168376D01*
X157493216Y-104100456D01*
X157345646Y-104001853D01*
X157220147Y-103876354D01*
X157121544Y-103728784D01*
X157053624Y-103564812D01*
X157019000Y-103390741D01*
X157019000Y-103213259D01*
X157053624Y-103039188D01*
X157121544Y-102875216D01*
X157220147Y-102727646D01*
X157345646Y-102602147D01*
X157493216Y-102503544D01*
X157657188Y-102435624D01*
X157806488Y-102405927D01*
X157831258Y-102401000D01*
X158008742Y-102401000D01*
X158033512Y-102405927D01*
G37*
G36*
X188513512Y-102405927D02*
G01*
X188662812Y-102435624D01*
X188826784Y-102503544D01*
X188974354Y-102602147D01*
X189099853Y-102727646D01*
X189198456Y-102875216D01*
X189266376Y-103039188D01*
X189301000Y-103213259D01*
X189301000Y-103390741D01*
X189266376Y-103564812D01*
X189198456Y-103728784D01*
X189099853Y-103876354D01*
X188974354Y-104001853D01*
X188826784Y-104100456D01*
X188662812Y-104168376D01*
X188513512Y-104198073D01*
X188488742Y-104203000D01*
X188311258Y-104203000D01*
X188286488Y-104198073D01*
X188137188Y-104168376D01*
X187973216Y-104100456D01*
X187825646Y-104001853D01*
X187700147Y-103876354D01*
X187601544Y-103728784D01*
X187533624Y-103564812D01*
X187499000Y-103390741D01*
X187499000Y-103213259D01*
X187533624Y-103039188D01*
X187601544Y-102875216D01*
X187700147Y-102727646D01*
X187825646Y-102602147D01*
X187973216Y-102503544D01*
X188137188Y-102435624D01*
X188286488Y-102405927D01*
X188311258Y-102401000D01*
X188488742Y-102401000D01*
X188513512Y-102405927D01*
G37*
G36*
X122033512Y-102405927D02*
G01*
X122182812Y-102435624D01*
X122346784Y-102503544D01*
X122494354Y-102602147D01*
X122619853Y-102727646D01*
X122718456Y-102875216D01*
X122786376Y-103039188D01*
X122821000Y-103213259D01*
X122821000Y-103390741D01*
X122786376Y-103564812D01*
X122718456Y-103728784D01*
X122619853Y-103876354D01*
X122494354Y-104001853D01*
X122346784Y-104100456D01*
X122182812Y-104168376D01*
X122033512Y-104198073D01*
X122008742Y-104203000D01*
X121831258Y-104203000D01*
X121806488Y-104198073D01*
X121657188Y-104168376D01*
X121493216Y-104100456D01*
X121345646Y-104001853D01*
X121220147Y-103876354D01*
X121121544Y-103728784D01*
X121053624Y-103564812D01*
X121019000Y-103390741D01*
X121019000Y-103213259D01*
X121053624Y-103039188D01*
X121121544Y-102875216D01*
X121220147Y-102727646D01*
X121345646Y-102602147D01*
X121493216Y-102503544D01*
X121657188Y-102435624D01*
X121806488Y-102405927D01*
X121831258Y-102401000D01*
X122008742Y-102401000D01*
X122033512Y-102405927D01*
G37*
G36*
X149973512Y-102405927D02*
G01*
X150122812Y-102435624D01*
X150286784Y-102503544D01*
X150434354Y-102602147D01*
X150559853Y-102727646D01*
X150658456Y-102875216D01*
X150726376Y-103039188D01*
X150761000Y-103213259D01*
X150761000Y-103390741D01*
X150726376Y-103564812D01*
X150658456Y-103728784D01*
X150559853Y-103876354D01*
X150434354Y-104001853D01*
X150286784Y-104100456D01*
X150122812Y-104168376D01*
X149973512Y-104198073D01*
X149948742Y-104203000D01*
X149771258Y-104203000D01*
X149746488Y-104198073D01*
X149597188Y-104168376D01*
X149433216Y-104100456D01*
X149285646Y-104001853D01*
X149160147Y-103876354D01*
X149061544Y-103728784D01*
X148993624Y-103564812D01*
X148959000Y-103390741D01*
X148959000Y-103213259D01*
X148993624Y-103039188D01*
X149061544Y-102875216D01*
X149160147Y-102727646D01*
X149285646Y-102602147D01*
X149433216Y-102503544D01*
X149597188Y-102435624D01*
X149746488Y-102405927D01*
X149771258Y-102401000D01*
X149948742Y-102401000D01*
X149973512Y-102405927D01*
G37*
G36*
X188513512Y-99865927D02*
G01*
X188662812Y-99895624D01*
X188826784Y-99963544D01*
X188974354Y-100062147D01*
X189099853Y-100187646D01*
X189198456Y-100335216D01*
X189266376Y-100499188D01*
X189301000Y-100673259D01*
X189301000Y-100850741D01*
X189266376Y-101024812D01*
X189198456Y-101188784D01*
X189099853Y-101336354D01*
X188974354Y-101461853D01*
X188826784Y-101560456D01*
X188662812Y-101628376D01*
X188513512Y-101658073D01*
X188488742Y-101663000D01*
X188311258Y-101663000D01*
X188286488Y-101658073D01*
X188137188Y-101628376D01*
X187973216Y-101560456D01*
X187825646Y-101461853D01*
X187700147Y-101336354D01*
X187601544Y-101188784D01*
X187533624Y-101024812D01*
X187499000Y-100850741D01*
X187499000Y-100673259D01*
X187533624Y-100499188D01*
X187601544Y-100335216D01*
X187700147Y-100187646D01*
X187825646Y-100062147D01*
X187973216Y-99963544D01*
X188137188Y-99895624D01*
X188286488Y-99865927D01*
X188311258Y-99861000D01*
X188488742Y-99861000D01*
X188513512Y-99865927D01*
G37*
G36*
X122033512Y-99865927D02*
G01*
X122182812Y-99895624D01*
X122346784Y-99963544D01*
X122494354Y-100062147D01*
X122619853Y-100187646D01*
X122718456Y-100335216D01*
X122786376Y-100499188D01*
X122821000Y-100673259D01*
X122821000Y-100850741D01*
X122786376Y-101024812D01*
X122718456Y-101188784D01*
X122619853Y-101336354D01*
X122494354Y-101461853D01*
X122346784Y-101560456D01*
X122182812Y-101628376D01*
X122033512Y-101658073D01*
X122008742Y-101663000D01*
X121831258Y-101663000D01*
X121806488Y-101658073D01*
X121657188Y-101628376D01*
X121493216Y-101560456D01*
X121345646Y-101461853D01*
X121220147Y-101336354D01*
X121121544Y-101188784D01*
X121053624Y-101024812D01*
X121019000Y-100850741D01*
X121019000Y-100673259D01*
X121053624Y-100499188D01*
X121121544Y-100335216D01*
X121220147Y-100187646D01*
X121345646Y-100062147D01*
X121493216Y-99963544D01*
X121657188Y-99895624D01*
X121806488Y-99865927D01*
X121831258Y-99861000D01*
X122008742Y-99861000D01*
X122033512Y-99865927D01*
G37*
G36*
X149973512Y-99865927D02*
G01*
X150122812Y-99895624D01*
X150286784Y-99963544D01*
X150434354Y-100062147D01*
X150559853Y-100187646D01*
X150658456Y-100335216D01*
X150726376Y-100499188D01*
X150761000Y-100673259D01*
X150761000Y-100850741D01*
X150726376Y-101024812D01*
X150658456Y-101188784D01*
X150559853Y-101336354D01*
X150434354Y-101461853D01*
X150286784Y-101560456D01*
X150122812Y-101628376D01*
X149973512Y-101658073D01*
X149948742Y-101663000D01*
X149771258Y-101663000D01*
X149746488Y-101658073D01*
X149597188Y-101628376D01*
X149433216Y-101560456D01*
X149285646Y-101461853D01*
X149160147Y-101336354D01*
X149061544Y-101188784D01*
X148993624Y-101024812D01*
X148959000Y-100850741D01*
X148959000Y-100673259D01*
X148993624Y-100499188D01*
X149061544Y-100335216D01*
X149160147Y-100187646D01*
X149285646Y-100062147D01*
X149433216Y-99963544D01*
X149597188Y-99895624D01*
X149746488Y-99865927D01*
X149771258Y-99861000D01*
X149948742Y-99861000D01*
X149973512Y-99865927D01*
G37*
G36*
X152513512Y-99865927D02*
G01*
X152662812Y-99895624D01*
X152826784Y-99963544D01*
X152974354Y-100062147D01*
X153099853Y-100187646D01*
X153198456Y-100335216D01*
X153266376Y-100499188D01*
X153301000Y-100673259D01*
X153301000Y-100850741D01*
X153266376Y-101024812D01*
X153198456Y-101188784D01*
X153099853Y-101336354D01*
X152974354Y-101461853D01*
X152826784Y-101560456D01*
X152662812Y-101628376D01*
X152513512Y-101658073D01*
X152488742Y-101663000D01*
X152311258Y-101663000D01*
X152286488Y-101658073D01*
X152137188Y-101628376D01*
X151973216Y-101560456D01*
X151825646Y-101461853D01*
X151700147Y-101336354D01*
X151601544Y-101188784D01*
X151533624Y-101024812D01*
X151499000Y-100850741D01*
X151499000Y-100673259D01*
X151533624Y-100499188D01*
X151601544Y-100335216D01*
X151700147Y-100187646D01*
X151825646Y-100062147D01*
X151973216Y-99963544D01*
X152137188Y-99895624D01*
X152286488Y-99865927D01*
X152311258Y-99861000D01*
X152488742Y-99861000D01*
X152513512Y-99865927D01*
G37*
G36*
X185973512Y-99865927D02*
G01*
X186122812Y-99895624D01*
X186286784Y-99963544D01*
X186434354Y-100062147D01*
X186559853Y-100187646D01*
X186658456Y-100335216D01*
X186726376Y-100499188D01*
X186761000Y-100673259D01*
X186761000Y-100850741D01*
X186726376Y-101024812D01*
X186658456Y-101188784D01*
X186559853Y-101336354D01*
X186434354Y-101461853D01*
X186286784Y-101560456D01*
X186122812Y-101628376D01*
X185973512Y-101658073D01*
X185948742Y-101663000D01*
X185771258Y-101663000D01*
X185746488Y-101658073D01*
X185597188Y-101628376D01*
X185433216Y-101560456D01*
X185285646Y-101461853D01*
X185160147Y-101336354D01*
X185061544Y-101188784D01*
X184993624Y-101024812D01*
X184959000Y-100850741D01*
X184959000Y-100673259D01*
X184993624Y-100499188D01*
X185061544Y-100335216D01*
X185160147Y-100187646D01*
X185285646Y-100062147D01*
X185433216Y-99963544D01*
X185597188Y-99895624D01*
X185746488Y-99865927D01*
X185771258Y-99861000D01*
X185948742Y-99861000D01*
X185973512Y-99865927D01*
G37*
G36*
X158033512Y-99865927D02*
G01*
X158182812Y-99895624D01*
X158346784Y-99963544D01*
X158494354Y-100062147D01*
X158619853Y-100187646D01*
X158718456Y-100335216D01*
X158786376Y-100499188D01*
X158821000Y-100673259D01*
X158821000Y-100850741D01*
X158786376Y-101024812D01*
X158718456Y-101188784D01*
X158619853Y-101336354D01*
X158494354Y-101461853D01*
X158346784Y-101560456D01*
X158182812Y-101628376D01*
X158033512Y-101658073D01*
X158008742Y-101663000D01*
X157831258Y-101663000D01*
X157806488Y-101658073D01*
X157657188Y-101628376D01*
X157493216Y-101560456D01*
X157345646Y-101461853D01*
X157220147Y-101336354D01*
X157121544Y-101188784D01*
X157053624Y-101024812D01*
X157019000Y-100850741D01*
X157019000Y-100673259D01*
X157053624Y-100499188D01*
X157121544Y-100335216D01*
X157220147Y-100187646D01*
X157345646Y-100062147D01*
X157493216Y-99963544D01*
X157657188Y-99895624D01*
X157806488Y-99865927D01*
X157831258Y-99861000D01*
X158008742Y-99861000D01*
X158033512Y-99865927D01*
G37*
G36*
X128468000Y-99884000D02*
G01*
X125766000Y-99884000D01*
X125766000Y-97982000D01*
X128468000Y-97982000D01*
X128468000Y-99884000D01*
G37*
G36*
X182268000Y-99884000D02*
G01*
X179566000Y-99884000D01*
X179566000Y-97982000D01*
X182268000Y-97982000D01*
X182268000Y-99884000D01*
G37*
G36*
X146268000Y-99884000D02*
G01*
X143566000Y-99884000D01*
X143566000Y-97982000D01*
X146268000Y-97982000D01*
X146268000Y-99884000D01*
G37*
G36*
X164468000Y-99884000D02*
G01*
X161766000Y-99884000D01*
X161766000Y-97982000D01*
X164468000Y-97982000D01*
X164468000Y-99884000D01*
G37*
G36*
X122033512Y-97325927D02*
G01*
X122182812Y-97355624D01*
X122346784Y-97423544D01*
X122494354Y-97522147D01*
X122619853Y-97647646D01*
X122718456Y-97795216D01*
X122786376Y-97959188D01*
X122821000Y-98133259D01*
X122821000Y-98310741D01*
X122786376Y-98484812D01*
X122718456Y-98648784D01*
X122619853Y-98796354D01*
X122494354Y-98921853D01*
X122346784Y-99020456D01*
X122182812Y-99088376D01*
X122033512Y-99118073D01*
X122008742Y-99123000D01*
X121831258Y-99123000D01*
X121806488Y-99118073D01*
X121657188Y-99088376D01*
X121493216Y-99020456D01*
X121345646Y-98921853D01*
X121220147Y-98796354D01*
X121121544Y-98648784D01*
X121053624Y-98484812D01*
X121019000Y-98310741D01*
X121019000Y-98133259D01*
X121053624Y-97959188D01*
X121121544Y-97795216D01*
X121220147Y-97647646D01*
X121345646Y-97522147D01*
X121493216Y-97423544D01*
X121657188Y-97355624D01*
X121806488Y-97325927D01*
X121831258Y-97321000D01*
X122008742Y-97321000D01*
X122033512Y-97325927D01*
G37*
G36*
X149973512Y-97325927D02*
G01*
X150122812Y-97355624D01*
X150286784Y-97423544D01*
X150434354Y-97522147D01*
X150559853Y-97647646D01*
X150658456Y-97795216D01*
X150726376Y-97959188D01*
X150761000Y-98133259D01*
X150761000Y-98310741D01*
X150726376Y-98484812D01*
X150658456Y-98648784D01*
X150559853Y-98796354D01*
X150434354Y-98921853D01*
X150286784Y-99020456D01*
X150122812Y-99088376D01*
X149973512Y-99118073D01*
X149948742Y-99123000D01*
X149771258Y-99123000D01*
X149746488Y-99118073D01*
X149597188Y-99088376D01*
X149433216Y-99020456D01*
X149285646Y-98921853D01*
X149160147Y-98796354D01*
X149061544Y-98648784D01*
X148993624Y-98484812D01*
X148959000Y-98310741D01*
X148959000Y-98133259D01*
X148993624Y-97959188D01*
X149061544Y-97795216D01*
X149160147Y-97647646D01*
X149285646Y-97522147D01*
X149433216Y-97423544D01*
X149597188Y-97355624D01*
X149746488Y-97325927D01*
X149771258Y-97321000D01*
X149948742Y-97321000D01*
X149973512Y-97325927D01*
G37*
G36*
X152513512Y-97325927D02*
G01*
X152662812Y-97355624D01*
X152826784Y-97423544D01*
X152974354Y-97522147D01*
X153099853Y-97647646D01*
X153198456Y-97795216D01*
X153266376Y-97959188D01*
X153301000Y-98133259D01*
X153301000Y-98310741D01*
X153266376Y-98484812D01*
X153198456Y-98648784D01*
X153099853Y-98796354D01*
X152974354Y-98921853D01*
X152826784Y-99020456D01*
X152662812Y-99088376D01*
X152513512Y-99118073D01*
X152488742Y-99123000D01*
X152311258Y-99123000D01*
X152286488Y-99118073D01*
X152137188Y-99088376D01*
X151973216Y-99020456D01*
X151825646Y-98921853D01*
X151700147Y-98796354D01*
X151601544Y-98648784D01*
X151533624Y-98484812D01*
X151499000Y-98310741D01*
X151499000Y-98133259D01*
X151533624Y-97959188D01*
X151601544Y-97795216D01*
X151700147Y-97647646D01*
X151825646Y-97522147D01*
X151973216Y-97423544D01*
X152137188Y-97355624D01*
X152286488Y-97325927D01*
X152311258Y-97321000D01*
X152488742Y-97321000D01*
X152513512Y-97325927D01*
G37*
G36*
X185973512Y-97325927D02*
G01*
X186122812Y-97355624D01*
X186286784Y-97423544D01*
X186434354Y-97522147D01*
X186559853Y-97647646D01*
X186658456Y-97795216D01*
X186726376Y-97959188D01*
X186761000Y-98133259D01*
X186761000Y-98310741D01*
X186726376Y-98484812D01*
X186658456Y-98648784D01*
X186559853Y-98796354D01*
X186434354Y-98921853D01*
X186286784Y-99020456D01*
X186122812Y-99088376D01*
X185973512Y-99118073D01*
X185948742Y-99123000D01*
X185771258Y-99123000D01*
X185746488Y-99118073D01*
X185597188Y-99088376D01*
X185433216Y-99020456D01*
X185285646Y-98921853D01*
X185160147Y-98796354D01*
X185061544Y-98648784D01*
X184993624Y-98484812D01*
X184959000Y-98310741D01*
X184959000Y-98133259D01*
X184993624Y-97959188D01*
X185061544Y-97795216D01*
X185160147Y-97647646D01*
X185285646Y-97522147D01*
X185433216Y-97423544D01*
X185597188Y-97355624D01*
X185746488Y-97325927D01*
X185771258Y-97321000D01*
X185948742Y-97321000D01*
X185973512Y-97325927D01*
G37*
G36*
X188513512Y-97325927D02*
G01*
X188662812Y-97355624D01*
X188826784Y-97423544D01*
X188974354Y-97522147D01*
X189099853Y-97647646D01*
X189198456Y-97795216D01*
X189266376Y-97959188D01*
X189301000Y-98133259D01*
X189301000Y-98310741D01*
X189266376Y-98484812D01*
X189198456Y-98648784D01*
X189099853Y-98796354D01*
X188974354Y-98921853D01*
X188826784Y-99020456D01*
X188662812Y-99088376D01*
X188513512Y-99118073D01*
X188488742Y-99123000D01*
X188311258Y-99123000D01*
X188286488Y-99118073D01*
X188137188Y-99088376D01*
X187973216Y-99020456D01*
X187825646Y-98921853D01*
X187700147Y-98796354D01*
X187601544Y-98648784D01*
X187533624Y-98484812D01*
X187499000Y-98310741D01*
X187499000Y-98133259D01*
X187533624Y-97959188D01*
X187601544Y-97795216D01*
X187700147Y-97647646D01*
X187825646Y-97522147D01*
X187973216Y-97423544D01*
X188137188Y-97355624D01*
X188286488Y-97325927D01*
X188311258Y-97321000D01*
X188488742Y-97321000D01*
X188513512Y-97325927D01*
G37*
G36*
X158033512Y-97325927D02*
G01*
X158182812Y-97355624D01*
X158346784Y-97423544D01*
X158494354Y-97522147D01*
X158619853Y-97647646D01*
X158718456Y-97795216D01*
X158786376Y-97959188D01*
X158821000Y-98133259D01*
X158821000Y-98310741D01*
X158786376Y-98484812D01*
X158718456Y-98648784D01*
X158619853Y-98796354D01*
X158494354Y-98921853D01*
X158346784Y-99020456D01*
X158182812Y-99088376D01*
X158033512Y-99118073D01*
X158008742Y-99123000D01*
X157831258Y-99123000D01*
X157806488Y-99118073D01*
X157657188Y-99088376D01*
X157493216Y-99020456D01*
X157345646Y-98921853D01*
X157220147Y-98796354D01*
X157121544Y-98648784D01*
X157053624Y-98484812D01*
X157019000Y-98310741D01*
X157019000Y-98133259D01*
X157053624Y-97959188D01*
X157121544Y-97795216D01*
X157220147Y-97647646D01*
X157345646Y-97522147D01*
X157493216Y-97423544D01*
X157657188Y-97355624D01*
X157806488Y-97325927D01*
X157831258Y-97321000D01*
X158008742Y-97321000D01*
X158033512Y-97325927D01*
G37*
G36*
X188513512Y-94785927D02*
G01*
X188662812Y-94815624D01*
X188826784Y-94883544D01*
X188974354Y-94982147D01*
X189099853Y-95107646D01*
X189198456Y-95255216D01*
X189266376Y-95419188D01*
X189301000Y-95593259D01*
X189301000Y-95770741D01*
X189266376Y-95944812D01*
X189198456Y-96108784D01*
X189099853Y-96256354D01*
X188974354Y-96381853D01*
X188826784Y-96480456D01*
X188662812Y-96548376D01*
X188513512Y-96578073D01*
X188488742Y-96583000D01*
X188311258Y-96583000D01*
X188286488Y-96578073D01*
X188137188Y-96548376D01*
X187973216Y-96480456D01*
X187825646Y-96381853D01*
X187700147Y-96256354D01*
X187601544Y-96108784D01*
X187533624Y-95944812D01*
X187499000Y-95770741D01*
X187499000Y-95593259D01*
X187533624Y-95419188D01*
X187601544Y-95255216D01*
X187700147Y-95107646D01*
X187825646Y-94982147D01*
X187973216Y-94883544D01*
X188137188Y-94815624D01*
X188286488Y-94785927D01*
X188311258Y-94781000D01*
X188488742Y-94781000D01*
X188513512Y-94785927D01*
G37*
G36*
X122033512Y-94785927D02*
G01*
X122182812Y-94815624D01*
X122346784Y-94883544D01*
X122494354Y-94982147D01*
X122619853Y-95107646D01*
X122718456Y-95255216D01*
X122786376Y-95419188D01*
X122821000Y-95593259D01*
X122821000Y-95770741D01*
X122786376Y-95944812D01*
X122718456Y-96108784D01*
X122619853Y-96256354D01*
X122494354Y-96381853D01*
X122346784Y-96480456D01*
X122182812Y-96548376D01*
X122033512Y-96578073D01*
X122008742Y-96583000D01*
X121831258Y-96583000D01*
X121806488Y-96578073D01*
X121657188Y-96548376D01*
X121493216Y-96480456D01*
X121345646Y-96381853D01*
X121220147Y-96256354D01*
X121121544Y-96108784D01*
X121053624Y-95944812D01*
X121019000Y-95770741D01*
X121019000Y-95593259D01*
X121053624Y-95419188D01*
X121121544Y-95255216D01*
X121220147Y-95107646D01*
X121345646Y-94982147D01*
X121493216Y-94883544D01*
X121657188Y-94815624D01*
X121806488Y-94785927D01*
X121831258Y-94781000D01*
X122008742Y-94781000D01*
X122033512Y-94785927D01*
G37*
G36*
X149973512Y-94785927D02*
G01*
X150122812Y-94815624D01*
X150286784Y-94883544D01*
X150434354Y-94982147D01*
X150559853Y-95107646D01*
X150658456Y-95255216D01*
X150726376Y-95419188D01*
X150761000Y-95593259D01*
X150761000Y-95770741D01*
X150726376Y-95944812D01*
X150658456Y-96108784D01*
X150559853Y-96256354D01*
X150434354Y-96381853D01*
X150286784Y-96480456D01*
X150122812Y-96548376D01*
X149973512Y-96578073D01*
X149948742Y-96583000D01*
X149771258Y-96583000D01*
X149746488Y-96578073D01*
X149597188Y-96548376D01*
X149433216Y-96480456D01*
X149285646Y-96381853D01*
X149160147Y-96256354D01*
X149061544Y-96108784D01*
X148993624Y-95944812D01*
X148959000Y-95770741D01*
X148959000Y-95593259D01*
X148993624Y-95419188D01*
X149061544Y-95255216D01*
X149160147Y-95107646D01*
X149285646Y-94982147D01*
X149433216Y-94883544D01*
X149597188Y-94815624D01*
X149746488Y-94785927D01*
X149771258Y-94781000D01*
X149948742Y-94781000D01*
X149973512Y-94785927D01*
G37*
G36*
X152513512Y-94785927D02*
G01*
X152662812Y-94815624D01*
X152826784Y-94883544D01*
X152974354Y-94982147D01*
X153099853Y-95107646D01*
X153198456Y-95255216D01*
X153266376Y-95419188D01*
X153301000Y-95593259D01*
X153301000Y-95770741D01*
X153266376Y-95944812D01*
X153198456Y-96108784D01*
X153099853Y-96256354D01*
X152974354Y-96381853D01*
X152826784Y-96480456D01*
X152662812Y-96548376D01*
X152513512Y-96578073D01*
X152488742Y-96583000D01*
X152311258Y-96583000D01*
X152286488Y-96578073D01*
X152137188Y-96548376D01*
X151973216Y-96480456D01*
X151825646Y-96381853D01*
X151700147Y-96256354D01*
X151601544Y-96108784D01*
X151533624Y-95944812D01*
X151499000Y-95770741D01*
X151499000Y-95593259D01*
X151533624Y-95419188D01*
X151601544Y-95255216D01*
X151700147Y-95107646D01*
X151825646Y-94982147D01*
X151973216Y-94883544D01*
X152137188Y-94815624D01*
X152286488Y-94785927D01*
X152311258Y-94781000D01*
X152488742Y-94781000D01*
X152513512Y-94785927D01*
G37*
G36*
X158033512Y-94785927D02*
G01*
X158182812Y-94815624D01*
X158346784Y-94883544D01*
X158494354Y-94982147D01*
X158619853Y-95107646D01*
X158718456Y-95255216D01*
X158786376Y-95419188D01*
X158821000Y-95593259D01*
X158821000Y-95770741D01*
X158786376Y-95944812D01*
X158718456Y-96108784D01*
X158619853Y-96256354D01*
X158494354Y-96381853D01*
X158346784Y-96480456D01*
X158182812Y-96548376D01*
X158033512Y-96578073D01*
X158008742Y-96583000D01*
X157831258Y-96583000D01*
X157806488Y-96578073D01*
X157657188Y-96548376D01*
X157493216Y-96480456D01*
X157345646Y-96381853D01*
X157220147Y-96256354D01*
X157121544Y-96108784D01*
X157053624Y-95944812D01*
X157019000Y-95770741D01*
X157019000Y-95593259D01*
X157053624Y-95419188D01*
X157121544Y-95255216D01*
X157220147Y-95107646D01*
X157345646Y-94982147D01*
X157493216Y-94883544D01*
X157657188Y-94815624D01*
X157806488Y-94785927D01*
X157831258Y-94781000D01*
X158008742Y-94781000D01*
X158033512Y-94785927D01*
G37*
G36*
X185973512Y-94785927D02*
G01*
X186122812Y-94815624D01*
X186286784Y-94883544D01*
X186434354Y-94982147D01*
X186559853Y-95107646D01*
X186658456Y-95255216D01*
X186726376Y-95419188D01*
X186761000Y-95593259D01*
X186761000Y-95770741D01*
X186726376Y-95944812D01*
X186658456Y-96108784D01*
X186559853Y-96256354D01*
X186434354Y-96381853D01*
X186286784Y-96480456D01*
X186122812Y-96548376D01*
X185973512Y-96578073D01*
X185948742Y-96583000D01*
X185771258Y-96583000D01*
X185746488Y-96578073D01*
X185597188Y-96548376D01*
X185433216Y-96480456D01*
X185285646Y-96381853D01*
X185160147Y-96256354D01*
X185061544Y-96108784D01*
X184993624Y-95944812D01*
X184959000Y-95770741D01*
X184959000Y-95593259D01*
X184993624Y-95419188D01*
X185061544Y-95255216D01*
X185160147Y-95107646D01*
X185285646Y-94982147D01*
X185433216Y-94883544D01*
X185597188Y-94815624D01*
X185746488Y-94785927D01*
X185771258Y-94781000D01*
X185948742Y-94781000D01*
X185973512Y-94785927D01*
G37*
G36*
X182268000Y-95434000D02*
G01*
X179566000Y-95434000D01*
X179566000Y-93532000D01*
X182268000Y-93532000D01*
X182268000Y-95434000D01*
G37*
G36*
X146268000Y-95434000D02*
G01*
X143566000Y-95434000D01*
X143566000Y-93532000D01*
X146268000Y-93532000D01*
X146268000Y-95434000D01*
G37*
G36*
X164468000Y-95134000D02*
G01*
X161766000Y-95134000D01*
X161766000Y-93232000D01*
X164468000Y-93232000D01*
X164468000Y-95134000D01*
G37*
G36*
X128468000Y-95134000D02*
G01*
X125766000Y-95134000D01*
X125766000Y-93232000D01*
X128468000Y-93232000D01*
X128468000Y-95134000D01*
G37*
G36*
X122821000Y-94043000D02*
G01*
X121019000Y-94043000D01*
X121019000Y-92241000D01*
X122821000Y-92241000D01*
X122821000Y-94043000D01*
G37*
G36*
X186761000Y-94043000D02*
G01*
X184959000Y-94043000D01*
X184959000Y-92241000D01*
X186761000Y-92241000D01*
X186761000Y-94043000D01*
G37*
G36*
X188513512Y-92245927D02*
G01*
X188662812Y-92275624D01*
X188826784Y-92343544D01*
X188974354Y-92442147D01*
X189099853Y-92567646D01*
X189198456Y-92715216D01*
X189266376Y-92879188D01*
X189301000Y-93053259D01*
X189301000Y-93230741D01*
X189266376Y-93404812D01*
X189198456Y-93568784D01*
X189099853Y-93716354D01*
X188974354Y-93841853D01*
X188826784Y-93940456D01*
X188662812Y-94008376D01*
X188513512Y-94038073D01*
X188488742Y-94043000D01*
X188311258Y-94043000D01*
X188286488Y-94038073D01*
X188137188Y-94008376D01*
X187973216Y-93940456D01*
X187825646Y-93841853D01*
X187700147Y-93716354D01*
X187601544Y-93568784D01*
X187533624Y-93404812D01*
X187499000Y-93230741D01*
X187499000Y-93053259D01*
X187533624Y-92879188D01*
X187601544Y-92715216D01*
X187700147Y-92567646D01*
X187825646Y-92442147D01*
X187973216Y-92343544D01*
X188137188Y-92275624D01*
X188286488Y-92245927D01*
X188311258Y-92241000D01*
X188488742Y-92241000D01*
X188513512Y-92245927D01*
G37*
G36*
X158821000Y-94043000D02*
G01*
X157019000Y-94043000D01*
X157019000Y-92241000D01*
X158821000Y-92241000D01*
X158821000Y-94043000D01*
G37*
G36*
X152513512Y-92245927D02*
G01*
X152662812Y-92275624D01*
X152826784Y-92343544D01*
X152974354Y-92442147D01*
X153099853Y-92567646D01*
X153198456Y-92715216D01*
X153266376Y-92879188D01*
X153301000Y-93053259D01*
X153301000Y-93230741D01*
X153266376Y-93404812D01*
X153198456Y-93568784D01*
X153099853Y-93716354D01*
X152974354Y-93841853D01*
X152826784Y-93940456D01*
X152662812Y-94008376D01*
X152513512Y-94038073D01*
X152488742Y-94043000D01*
X152311258Y-94043000D01*
X152286488Y-94038073D01*
X152137188Y-94008376D01*
X151973216Y-93940456D01*
X151825646Y-93841853D01*
X151700147Y-93716354D01*
X151601544Y-93568784D01*
X151533624Y-93404812D01*
X151499000Y-93230741D01*
X151499000Y-93053259D01*
X151533624Y-92879188D01*
X151601544Y-92715216D01*
X151700147Y-92567646D01*
X151825646Y-92442147D01*
X151973216Y-92343544D01*
X152137188Y-92275624D01*
X152286488Y-92245927D01*
X152311258Y-92241000D01*
X152488742Y-92241000D01*
X152513512Y-92245927D01*
G37*
G36*
X150761000Y-94043000D02*
G01*
X148959000Y-94043000D01*
X148959000Y-92241000D01*
X150761000Y-92241000D01*
X150761000Y-94043000D01*
G37*
G36*
X128468000Y-90984000D02*
G01*
X125766000Y-90984000D01*
X125766000Y-89082000D01*
X128468000Y-89082000D01*
X128468000Y-90984000D01*
G37*
G36*
X146268000Y-90984000D02*
G01*
X143566000Y-90984000D01*
X143566000Y-89082000D01*
X146268000Y-89082000D01*
X146268000Y-90984000D01*
G37*
G36*
X182268000Y-90984000D02*
G01*
X179566000Y-90984000D01*
X179566000Y-89082000D01*
X182268000Y-89082000D01*
X182268000Y-90984000D01*
G37*
G36*
X164468000Y-90984000D02*
G01*
X161766000Y-90984000D01*
X161766000Y-89082000D01*
X164468000Y-89082000D01*
X164468000Y-90984000D01*
G37*
G36*
X146268000Y-86534000D02*
G01*
X143566000Y-86534000D01*
X143566000Y-84632000D01*
X146268000Y-84632000D01*
X146268000Y-86534000D01*
G37*
G36*
X128468000Y-86534000D02*
G01*
X125766000Y-86534000D01*
X125766000Y-84632000D01*
X128468000Y-84632000D01*
X128468000Y-86534000D01*
G37*
G36*
X164468000Y-86534000D02*
G01*
X161766000Y-86534000D01*
X161766000Y-84632000D01*
X164468000Y-84632000D01*
X164468000Y-86534000D01*
G37*
G36*
X182268000Y-86534000D02*
G01*
X179566000Y-86534000D01*
X179566000Y-84632000D01*
X182268000Y-84632000D01*
X182268000Y-86534000D01*
G37*
G36*
X161490000Y-77826000D02*
G01*
X160338000Y-77826000D01*
X160338000Y-75524000D01*
X161490000Y-75524000D01*
X161490000Y-77826000D01*
G37*
G36*
X183691000Y-77826000D02*
G01*
X182539000Y-77826000D01*
X182539000Y-75524000D01*
X183691000Y-75524000D01*
X183691000Y-77826000D01*
G37*
G36*
X186641000Y-77826000D02*
G01*
X185489000Y-77826000D01*
X185489000Y-75524000D01*
X186641000Y-75524000D01*
X186641000Y-77826000D01*
G37*
G36*
X122540000Y-77826000D02*
G01*
X121388000Y-77826000D01*
X121388000Y-75524000D01*
X122540000Y-75524000D01*
X122540000Y-77826000D01*
G37*
G36*
X147691000Y-77826000D02*
G01*
X146539000Y-77826000D01*
X146539000Y-75524000D01*
X147691000Y-75524000D01*
X147691000Y-77826000D01*
G37*
G36*
X150641000Y-77826000D02*
G01*
X149489000Y-77826000D01*
X149489000Y-75524000D01*
X150641000Y-75524000D01*
X150641000Y-77826000D01*
G37*
G36*
X158540000Y-77826000D02*
G01*
X157388000Y-77826000D01*
X157388000Y-75524000D01*
X158540000Y-75524000D01*
X158540000Y-77826000D01*
G37*
G36*
X125490000Y-77826000D02*
G01*
X124338000Y-77826000D01*
X124338000Y-75524000D01*
X125490000Y-75524000D01*
X125490000Y-77826000D01*
G37*
G36*
X173113674Y-76222465D02*
G01*
X173151367Y-76233899D01*
X173186103Y-76252466D01*
X173216548Y-76277452D01*
X173241534Y-76307897D01*
X173260101Y-76342633D01*
X173271535Y-76380326D01*
X173276000Y-76425661D01*
X173276000Y-77262339D01*
X173271535Y-77307674D01*
X173260101Y-77345367D01*
X173241534Y-77380103D01*
X173216548Y-77410548D01*
X173186103Y-77435534D01*
X173151367Y-77454101D01*
X173113674Y-77465535D01*
X173068339Y-77470000D01*
X171981661Y-77470000D01*
X171936326Y-77465535D01*
X171898633Y-77454101D01*
X171863897Y-77435534D01*
X171833452Y-77410548D01*
X171808466Y-77380103D01*
X171789899Y-77345367D01*
X171778465Y-77307674D01*
X171774000Y-77262339D01*
X171774000Y-76425661D01*
X171778465Y-76380326D01*
X171789899Y-76342633D01*
X171808466Y-76307897D01*
X171833452Y-76277452D01*
X171863897Y-76252466D01*
X171898633Y-76233899D01*
X171936326Y-76222465D01*
X171981661Y-76218000D01*
X173068339Y-76218000D01*
X173113674Y-76222465D01*
G37*
G36*
X130890674Y-76222465D02*
G01*
X130928367Y-76233899D01*
X130963103Y-76252466D01*
X130993548Y-76277452D01*
X131018534Y-76307897D01*
X131037101Y-76342633D01*
X131048535Y-76380326D01*
X131053000Y-76425661D01*
X131053000Y-77262339D01*
X131048535Y-77307674D01*
X131037101Y-77345367D01*
X131018534Y-77380103D01*
X130993548Y-77410548D01*
X130963103Y-77435534D01*
X130928367Y-77454101D01*
X130890674Y-77465535D01*
X130845339Y-77470000D01*
X129758661Y-77470000D01*
X129713326Y-77465535D01*
X129675633Y-77454101D01*
X129640897Y-77435534D01*
X129610452Y-77410548D01*
X129585466Y-77380103D01*
X129566899Y-77345367D01*
X129555465Y-77307674D01*
X129551000Y-77262339D01*
X129551000Y-76425661D01*
X129555465Y-76380326D01*
X129566899Y-76342633D01*
X129585466Y-76307897D01*
X129610452Y-76277452D01*
X129640897Y-76252466D01*
X129675633Y-76233899D01*
X129713326Y-76222465D01*
X129758661Y-76218000D01*
X130845339Y-76218000D01*
X130890674Y-76222465D01*
G37*
G36*
X137113674Y-76222465D02*
G01*
X137151367Y-76233899D01*
X137186103Y-76252466D01*
X137216548Y-76277452D01*
X137241534Y-76307897D01*
X137260101Y-76342633D01*
X137271535Y-76380326D01*
X137276000Y-76425661D01*
X137276000Y-77262339D01*
X137271535Y-77307674D01*
X137260101Y-77345367D01*
X137241534Y-77380103D01*
X137216548Y-77410548D01*
X137186103Y-77435534D01*
X137151367Y-77454101D01*
X137113674Y-77465535D01*
X137068339Y-77470000D01*
X135981661Y-77470000D01*
X135936326Y-77465535D01*
X135898633Y-77454101D01*
X135863897Y-77435534D01*
X135833452Y-77410548D01*
X135808466Y-77380103D01*
X135789899Y-77345367D01*
X135778465Y-77307674D01*
X135774000Y-77262339D01*
X135774000Y-76425661D01*
X135778465Y-76380326D01*
X135789899Y-76342633D01*
X135808466Y-76307897D01*
X135833452Y-76277452D01*
X135863897Y-76252466D01*
X135898633Y-76233899D01*
X135936326Y-76222465D01*
X135981661Y-76218000D01*
X137068339Y-76218000D01*
X137113674Y-76222465D01*
G37*
G36*
X178955674Y-76222465D02*
G01*
X178993367Y-76233899D01*
X179028103Y-76252466D01*
X179058548Y-76277452D01*
X179083534Y-76307897D01*
X179102101Y-76342633D01*
X179113535Y-76380326D01*
X179118000Y-76425661D01*
X179118000Y-77262339D01*
X179113535Y-77307674D01*
X179102101Y-77345367D01*
X179083534Y-77380103D01*
X179058548Y-77410548D01*
X179028103Y-77435534D01*
X178993367Y-77454101D01*
X178955674Y-77465535D01*
X178910339Y-77470000D01*
X177823661Y-77470000D01*
X177778326Y-77465535D01*
X177740633Y-77454101D01*
X177705897Y-77435534D01*
X177675452Y-77410548D01*
X177650466Y-77380103D01*
X177631899Y-77345367D01*
X177620465Y-77307674D01*
X177616000Y-77262339D01*
X177616000Y-76425661D01*
X177620465Y-76380326D01*
X177631899Y-76342633D01*
X177650466Y-76307897D01*
X177675452Y-76277452D01*
X177705897Y-76252466D01*
X177740633Y-76233899D01*
X177778326Y-76222465D01*
X177823661Y-76218000D01*
X178910339Y-76218000D01*
X178955674Y-76222465D01*
G37*
G36*
X142955674Y-76222465D02*
G01*
X142993367Y-76233899D01*
X143028103Y-76252466D01*
X143058548Y-76277452D01*
X143083534Y-76307897D01*
X143102101Y-76342633D01*
X143113535Y-76380326D01*
X143118000Y-76425661D01*
X143118000Y-77262339D01*
X143113535Y-77307674D01*
X143102101Y-77345367D01*
X143083534Y-77380103D01*
X143058548Y-77410548D01*
X143028103Y-77435534D01*
X142993367Y-77454101D01*
X142955674Y-77465535D01*
X142910339Y-77470000D01*
X141823661Y-77470000D01*
X141778326Y-77465535D01*
X141740633Y-77454101D01*
X141705897Y-77435534D01*
X141675452Y-77410548D01*
X141650466Y-77380103D01*
X141631899Y-77345367D01*
X141620465Y-77307674D01*
X141616000Y-77262339D01*
X141616000Y-76425661D01*
X141620465Y-76380326D01*
X141631899Y-76342633D01*
X141650466Y-76307897D01*
X141675452Y-76277452D01*
X141705897Y-76252466D01*
X141740633Y-76233899D01*
X141778326Y-76222465D01*
X141823661Y-76218000D01*
X142910339Y-76218000D01*
X142955674Y-76222465D01*
G37*
G36*
X166890674Y-76222465D02*
G01*
X166928367Y-76233899D01*
X166963103Y-76252466D01*
X166993548Y-76277452D01*
X167018534Y-76307897D01*
X167037101Y-76342633D01*
X167048535Y-76380326D01*
X167053000Y-76425661D01*
X167053000Y-77262339D01*
X167048535Y-77307674D01*
X167037101Y-77345367D01*
X167018534Y-77380103D01*
X166993548Y-77410548D01*
X166963103Y-77435534D01*
X166928367Y-77454101D01*
X166890674Y-77465535D01*
X166845339Y-77470000D01*
X165758661Y-77470000D01*
X165713326Y-77465535D01*
X165675633Y-77454101D01*
X165640897Y-77435534D01*
X165610452Y-77410548D01*
X165585466Y-77380103D01*
X165566899Y-77345367D01*
X165555465Y-77307674D01*
X165551000Y-77262339D01*
X165551000Y-76425661D01*
X165555465Y-76380326D01*
X165566899Y-76342633D01*
X165585466Y-76307897D01*
X165610452Y-76277452D01*
X165640897Y-76252466D01*
X165675633Y-76233899D01*
X165713326Y-76222465D01*
X165758661Y-76218000D01*
X166845339Y-76218000D01*
X166890674Y-76222465D01*
G37*
G36*
X123990000Y-75726000D02*
G01*
X122888000Y-75726000D01*
X122888000Y-74574000D01*
X123990000Y-74574000D01*
X123990000Y-75726000D01*
G37*
G36*
X159990000Y-75726000D02*
G01*
X158888000Y-75726000D01*
X158888000Y-74574000D01*
X159990000Y-74574000D01*
X159990000Y-75726000D01*
G37*
G36*
X149141000Y-75726000D02*
G01*
X148039000Y-75726000D01*
X148039000Y-74574000D01*
X149141000Y-74574000D01*
X149141000Y-75726000D01*
G37*
G36*
X185141000Y-75726000D02*
G01*
X184039000Y-75726000D01*
X184039000Y-74574000D01*
X185141000Y-74574000D01*
X185141000Y-75726000D01*
G37*
G36*
X178955674Y-74172465D02*
G01*
X178993367Y-74183899D01*
X179028103Y-74202466D01*
X179058548Y-74227452D01*
X179083534Y-74257897D01*
X179102101Y-74292633D01*
X179113535Y-74330326D01*
X179118000Y-74375661D01*
X179118000Y-75212339D01*
X179113535Y-75257674D01*
X179102101Y-75295367D01*
X179083534Y-75330103D01*
X179058548Y-75360548D01*
X179028103Y-75385534D01*
X178993367Y-75404101D01*
X178955674Y-75415535D01*
X178910339Y-75420000D01*
X177823661Y-75420000D01*
X177778326Y-75415535D01*
X177740633Y-75404101D01*
X177705897Y-75385534D01*
X177675452Y-75360548D01*
X177650466Y-75330103D01*
X177631899Y-75295367D01*
X177620465Y-75257674D01*
X177616000Y-75212339D01*
X177616000Y-74375661D01*
X177620465Y-74330326D01*
X177631899Y-74292633D01*
X177650466Y-74257897D01*
X177675452Y-74227452D01*
X177705897Y-74202466D01*
X177740633Y-74183899D01*
X177778326Y-74172465D01*
X177823661Y-74168000D01*
X178910339Y-74168000D01*
X178955674Y-74172465D01*
G37*
G36*
X173113674Y-74172465D02*
G01*
X173151367Y-74183899D01*
X173186103Y-74202466D01*
X173216548Y-74227452D01*
X173241534Y-74257897D01*
X173260101Y-74292633D01*
X173271535Y-74330326D01*
X173276000Y-74375661D01*
X173276000Y-75212339D01*
X173271535Y-75257674D01*
X173260101Y-75295367D01*
X173241534Y-75330103D01*
X173216548Y-75360548D01*
X173186103Y-75385534D01*
X173151367Y-75404101D01*
X173113674Y-75415535D01*
X173068339Y-75420000D01*
X171981661Y-75420000D01*
X171936326Y-75415535D01*
X171898633Y-75404101D01*
X171863897Y-75385534D01*
X171833452Y-75360548D01*
X171808466Y-75330103D01*
X171789899Y-75295367D01*
X171778465Y-75257674D01*
X171774000Y-75212339D01*
X171774000Y-74375661D01*
X171778465Y-74330326D01*
X171789899Y-74292633D01*
X171808466Y-74257897D01*
X171833452Y-74227452D01*
X171863897Y-74202466D01*
X171898633Y-74183899D01*
X171936326Y-74172465D01*
X171981661Y-74168000D01*
X173068339Y-74168000D01*
X173113674Y-74172465D01*
G37*
G36*
X166890674Y-74172465D02*
G01*
X166928367Y-74183899D01*
X166963103Y-74202466D01*
X166993548Y-74227452D01*
X167018534Y-74257897D01*
X167037101Y-74292633D01*
X167048535Y-74330326D01*
X167053000Y-74375661D01*
X167053000Y-75212339D01*
X167048535Y-75257674D01*
X167037101Y-75295367D01*
X167018534Y-75330103D01*
X166993548Y-75360548D01*
X166963103Y-75385534D01*
X166928367Y-75404101D01*
X166890674Y-75415535D01*
X166845339Y-75420000D01*
X165758661Y-75420000D01*
X165713326Y-75415535D01*
X165675633Y-75404101D01*
X165640897Y-75385534D01*
X165610452Y-75360548D01*
X165585466Y-75330103D01*
X165566899Y-75295367D01*
X165555465Y-75257674D01*
X165551000Y-75212339D01*
X165551000Y-74375661D01*
X165555465Y-74330326D01*
X165566899Y-74292633D01*
X165585466Y-74257897D01*
X165610452Y-74227452D01*
X165640897Y-74202466D01*
X165675633Y-74183899D01*
X165713326Y-74172465D01*
X165758661Y-74168000D01*
X166845339Y-74168000D01*
X166890674Y-74172465D01*
G37*
G36*
X130890674Y-74172465D02*
G01*
X130928367Y-74183899D01*
X130963103Y-74202466D01*
X130993548Y-74227452D01*
X131018534Y-74257897D01*
X131037101Y-74292633D01*
X131048535Y-74330326D01*
X131053000Y-74375661D01*
X131053000Y-75212339D01*
X131048535Y-75257674D01*
X131037101Y-75295367D01*
X131018534Y-75330103D01*
X130993548Y-75360548D01*
X130963103Y-75385534D01*
X130928367Y-75404101D01*
X130890674Y-75415535D01*
X130845339Y-75420000D01*
X129758661Y-75420000D01*
X129713326Y-75415535D01*
X129675633Y-75404101D01*
X129640897Y-75385534D01*
X129610452Y-75360548D01*
X129585466Y-75330103D01*
X129566899Y-75295367D01*
X129555465Y-75257674D01*
X129551000Y-75212339D01*
X129551000Y-74375661D01*
X129555465Y-74330326D01*
X129566899Y-74292633D01*
X129585466Y-74257897D01*
X129610452Y-74227452D01*
X129640897Y-74202466D01*
X129675633Y-74183899D01*
X129713326Y-74172465D01*
X129758661Y-74168000D01*
X130845339Y-74168000D01*
X130890674Y-74172465D01*
G37*
G36*
X137113674Y-74172465D02*
G01*
X137151367Y-74183899D01*
X137186103Y-74202466D01*
X137216548Y-74227452D01*
X137241534Y-74257897D01*
X137260101Y-74292633D01*
X137271535Y-74330326D01*
X137276000Y-74375661D01*
X137276000Y-75212339D01*
X137271535Y-75257674D01*
X137260101Y-75295367D01*
X137241534Y-75330103D01*
X137216548Y-75360548D01*
X137186103Y-75385534D01*
X137151367Y-75404101D01*
X137113674Y-75415535D01*
X137068339Y-75420000D01*
X135981661Y-75420000D01*
X135936326Y-75415535D01*
X135898633Y-75404101D01*
X135863897Y-75385534D01*
X135833452Y-75360548D01*
X135808466Y-75330103D01*
X135789899Y-75295367D01*
X135778465Y-75257674D01*
X135774000Y-75212339D01*
X135774000Y-74375661D01*
X135778465Y-74330326D01*
X135789899Y-74292633D01*
X135808466Y-74257897D01*
X135833452Y-74227452D01*
X135863897Y-74202466D01*
X135898633Y-74183899D01*
X135936326Y-74172465D01*
X135981661Y-74168000D01*
X137068339Y-74168000D01*
X137113674Y-74172465D01*
G37*
G36*
X142955674Y-74172465D02*
G01*
X142993367Y-74183899D01*
X143028103Y-74202466D01*
X143058548Y-74227452D01*
X143083534Y-74257897D01*
X143102101Y-74292633D01*
X143113535Y-74330326D01*
X143118000Y-74375661D01*
X143118000Y-75212339D01*
X143113535Y-75257674D01*
X143102101Y-75295367D01*
X143083534Y-75330103D01*
X143058548Y-75360548D01*
X143028103Y-75385534D01*
X142993367Y-75404101D01*
X142955674Y-75415535D01*
X142910339Y-75420000D01*
X141823661Y-75420000D01*
X141778326Y-75415535D01*
X141740633Y-75404101D01*
X141705897Y-75385534D01*
X141675452Y-75360548D01*
X141650466Y-75330103D01*
X141631899Y-75295367D01*
X141620465Y-75257674D01*
X141616000Y-75212339D01*
X141616000Y-74375661D01*
X141620465Y-74330326D01*
X141631899Y-74292633D01*
X141650466Y-74257897D01*
X141675452Y-74227452D01*
X141705897Y-74202466D01*
X141740633Y-74183899D01*
X141778326Y-74172465D01*
X141823661Y-74168000D01*
X142910339Y-74168000D01*
X142955674Y-74172465D01*
G37*
G36*
X132915674Y-72151465D02*
G01*
X132953367Y-72162899D01*
X132988103Y-72181466D01*
X133018548Y-72206452D01*
X133043534Y-72236897D01*
X133062101Y-72271633D01*
X133073535Y-72309326D01*
X133078000Y-72354661D01*
X133078000Y-73441339D01*
X133073535Y-73486674D01*
X133062101Y-73524367D01*
X133043534Y-73559103D01*
X133018548Y-73589548D01*
X132988103Y-73614534D01*
X132953367Y-73633101D01*
X132915674Y-73644535D01*
X132870339Y-73649000D01*
X132033661Y-73649000D01*
X131988326Y-73644535D01*
X131950633Y-73633101D01*
X131915897Y-73614534D01*
X131885452Y-73589548D01*
X131860466Y-73559103D01*
X131841899Y-73524367D01*
X131830465Y-73486674D01*
X131826000Y-73441339D01*
X131826000Y-72354661D01*
X131830465Y-72309326D01*
X131841899Y-72271633D01*
X131860466Y-72236897D01*
X131885452Y-72206452D01*
X131915897Y-72181466D01*
X131950633Y-72162899D01*
X131988326Y-72151465D01*
X132033661Y-72147000D01*
X132870339Y-72147000D01*
X132915674Y-72151465D01*
G37*
G36*
X134965674Y-72151465D02*
G01*
X135003367Y-72162899D01*
X135038103Y-72181466D01*
X135068548Y-72206452D01*
X135093534Y-72236897D01*
X135112101Y-72271633D01*
X135123535Y-72309326D01*
X135128000Y-72354661D01*
X135128000Y-73441339D01*
X135123535Y-73486674D01*
X135112101Y-73524367D01*
X135093534Y-73559103D01*
X135068548Y-73589548D01*
X135038103Y-73614534D01*
X135003367Y-73633101D01*
X134965674Y-73644535D01*
X134920339Y-73649000D01*
X134083661Y-73649000D01*
X134038326Y-73644535D01*
X134000633Y-73633101D01*
X133965897Y-73614534D01*
X133935452Y-73589548D01*
X133910466Y-73559103D01*
X133891899Y-73524367D01*
X133880465Y-73486674D01*
X133876000Y-73441339D01*
X133876000Y-72354661D01*
X133880465Y-72309326D01*
X133891899Y-72271633D01*
X133910466Y-72236897D01*
X133935452Y-72206452D01*
X133965897Y-72181466D01*
X134000633Y-72162899D01*
X134038326Y-72151465D01*
X134083661Y-72147000D01*
X134920339Y-72147000D01*
X134965674Y-72151465D01*
G37*
G36*
X168915674Y-72151465D02*
G01*
X168953367Y-72162899D01*
X168988103Y-72181466D01*
X169018548Y-72206452D01*
X169043534Y-72236897D01*
X169062101Y-72271633D01*
X169073535Y-72309326D01*
X169078000Y-72354661D01*
X169078000Y-73441339D01*
X169073535Y-73486674D01*
X169062101Y-73524367D01*
X169043534Y-73559103D01*
X169018548Y-73589548D01*
X168988103Y-73614534D01*
X168953367Y-73633101D01*
X168915674Y-73644535D01*
X168870339Y-73649000D01*
X168033661Y-73649000D01*
X167988326Y-73644535D01*
X167950633Y-73633101D01*
X167915897Y-73614534D01*
X167885452Y-73589548D01*
X167860466Y-73559103D01*
X167841899Y-73524367D01*
X167830465Y-73486674D01*
X167826000Y-73441339D01*
X167826000Y-72354661D01*
X167830465Y-72309326D01*
X167841899Y-72271633D01*
X167860466Y-72236897D01*
X167885452Y-72206452D01*
X167915897Y-72181466D01*
X167950633Y-72162899D01*
X167988326Y-72151465D01*
X168033661Y-72147000D01*
X168870339Y-72147000D01*
X168915674Y-72151465D01*
G37*
G36*
X170965674Y-72151465D02*
G01*
X171003367Y-72162899D01*
X171038103Y-72181466D01*
X171068548Y-72206452D01*
X171093534Y-72236897D01*
X171112101Y-72271633D01*
X171123535Y-72309326D01*
X171128000Y-72354661D01*
X171128000Y-73441339D01*
X171123535Y-73486674D01*
X171112101Y-73524367D01*
X171093534Y-73559103D01*
X171068548Y-73589548D01*
X171038103Y-73614534D01*
X171003367Y-73633101D01*
X170965674Y-73644535D01*
X170920339Y-73649000D01*
X170083661Y-73649000D01*
X170038326Y-73644535D01*
X170000633Y-73633101D01*
X169965897Y-73614534D01*
X169935452Y-73589548D01*
X169910466Y-73559103D01*
X169891899Y-73524367D01*
X169880465Y-73486674D01*
X169876000Y-73441339D01*
X169876000Y-72354661D01*
X169880465Y-72309326D01*
X169891899Y-72271633D01*
X169910466Y-72236897D01*
X169935452Y-72206452D01*
X169965897Y-72181466D01*
X170000633Y-72162899D01*
X170038326Y-72151465D01*
X170083661Y-72147000D01*
X170920339Y-72147000D01*
X170965674Y-72151465D01*
G37*
G36*
X140934674Y-72024465D02*
G01*
X140972367Y-72035899D01*
X141007103Y-72054466D01*
X141037548Y-72079452D01*
X141062534Y-72109897D01*
X141081101Y-72144633D01*
X141092535Y-72182326D01*
X141097000Y-72227661D01*
X141097000Y-73314339D01*
X141092535Y-73359674D01*
X141081101Y-73397367D01*
X141062534Y-73432103D01*
X141037548Y-73462548D01*
X141007103Y-73487534D01*
X140972367Y-73506101D01*
X140934674Y-73517535D01*
X140889339Y-73522000D01*
X140052661Y-73522000D01*
X140007326Y-73517535D01*
X139969633Y-73506101D01*
X139934897Y-73487534D01*
X139904452Y-73462548D01*
X139879466Y-73432103D01*
X139860899Y-73397367D01*
X139849465Y-73359674D01*
X139845000Y-73314339D01*
X139845000Y-72227661D01*
X139849465Y-72182326D01*
X139860899Y-72144633D01*
X139879466Y-72109897D01*
X139904452Y-72079452D01*
X139934897Y-72054466D01*
X139969633Y-72035899D01*
X140007326Y-72024465D01*
X140052661Y-72020000D01*
X140889339Y-72020000D01*
X140934674Y-72024465D01*
G37*
G36*
X176934674Y-72024465D02*
G01*
X176972367Y-72035899D01*
X177007103Y-72054466D01*
X177037548Y-72079452D01*
X177062534Y-72109897D01*
X177081101Y-72144633D01*
X177092535Y-72182326D01*
X177097000Y-72227661D01*
X177097000Y-73314339D01*
X177092535Y-73359674D01*
X177081101Y-73397367D01*
X177062534Y-73432103D01*
X177037548Y-73462548D01*
X177007103Y-73487534D01*
X176972367Y-73506101D01*
X176934674Y-73517535D01*
X176889339Y-73522000D01*
X176052661Y-73522000D01*
X176007326Y-73517535D01*
X175969633Y-73506101D01*
X175934897Y-73487534D01*
X175904452Y-73462548D01*
X175879466Y-73432103D01*
X175860899Y-73397367D01*
X175849465Y-73359674D01*
X175845000Y-73314339D01*
X175845000Y-72227661D01*
X175849465Y-72182326D01*
X175860899Y-72144633D01*
X175879466Y-72109897D01*
X175904452Y-72079452D01*
X175934897Y-72054466D01*
X175969633Y-72035899D01*
X176007326Y-72024465D01*
X176052661Y-72020000D01*
X176889339Y-72020000D01*
X176934674Y-72024465D01*
G37*
G36*
X138884674Y-72024465D02*
G01*
X138922367Y-72035899D01*
X138957103Y-72054466D01*
X138987548Y-72079452D01*
X139012534Y-72109897D01*
X139031101Y-72144633D01*
X139042535Y-72182326D01*
X139047000Y-72227661D01*
X139047000Y-73314339D01*
X139042535Y-73359674D01*
X139031101Y-73397367D01*
X139012534Y-73432103D01*
X138987548Y-73462548D01*
X138957103Y-73487534D01*
X138922367Y-73506101D01*
X138884674Y-73517535D01*
X138839339Y-73522000D01*
X138002661Y-73522000D01*
X137957326Y-73517535D01*
X137919633Y-73506101D01*
X137884897Y-73487534D01*
X137854452Y-73462548D01*
X137829466Y-73432103D01*
X137810899Y-73397367D01*
X137799465Y-73359674D01*
X137795000Y-73314339D01*
X137795000Y-72227661D01*
X137799465Y-72182326D01*
X137810899Y-72144633D01*
X137829466Y-72109897D01*
X137854452Y-72079452D01*
X137884897Y-72054466D01*
X137919633Y-72035899D01*
X137957326Y-72024465D01*
X138002661Y-72020000D01*
X138839339Y-72020000D01*
X138884674Y-72024465D01*
G37*
G36*
X158755674Y-72024465D02*
G01*
X158793367Y-72035899D01*
X158828103Y-72054466D01*
X158858548Y-72079452D01*
X158883534Y-72109897D01*
X158902101Y-72144633D01*
X158913535Y-72182326D01*
X158918000Y-72227661D01*
X158918000Y-73314339D01*
X158913535Y-73359674D01*
X158902101Y-73397367D01*
X158883534Y-73432103D01*
X158858548Y-73462548D01*
X158828103Y-73487534D01*
X158793367Y-73506101D01*
X158755674Y-73517535D01*
X158710339Y-73522000D01*
X157873661Y-73522000D01*
X157828326Y-73517535D01*
X157790633Y-73506101D01*
X157755897Y-73487534D01*
X157725452Y-73462548D01*
X157700466Y-73432103D01*
X157681899Y-73397367D01*
X157670465Y-73359674D01*
X157666000Y-73314339D01*
X157666000Y-72227661D01*
X157670465Y-72182326D01*
X157681899Y-72144633D01*
X157700466Y-72109897D01*
X157725452Y-72079452D01*
X157755897Y-72054466D01*
X157790633Y-72035899D01*
X157828326Y-72024465D01*
X157873661Y-72020000D01*
X158710339Y-72020000D01*
X158755674Y-72024465D01*
G37*
G36*
X160805674Y-72024465D02*
G01*
X160843367Y-72035899D01*
X160878103Y-72054466D01*
X160908548Y-72079452D01*
X160933534Y-72109897D01*
X160952101Y-72144633D01*
X160963535Y-72182326D01*
X160968000Y-72227661D01*
X160968000Y-73314339D01*
X160963535Y-73359674D01*
X160952101Y-73397367D01*
X160933534Y-73432103D01*
X160908548Y-73462548D01*
X160878103Y-73487534D01*
X160843367Y-73506101D01*
X160805674Y-73517535D01*
X160760339Y-73522000D01*
X159923661Y-73522000D01*
X159878326Y-73517535D01*
X159840633Y-73506101D01*
X159805897Y-73487534D01*
X159775452Y-73462548D01*
X159750466Y-73432103D01*
X159731899Y-73397367D01*
X159720465Y-73359674D01*
X159716000Y-73314339D01*
X159716000Y-72227661D01*
X159720465Y-72182326D01*
X159731899Y-72144633D01*
X159750466Y-72109897D01*
X159775452Y-72079452D01*
X159805897Y-72054466D01*
X159840633Y-72035899D01*
X159878326Y-72024465D01*
X159923661Y-72020000D01*
X160760339Y-72020000D01*
X160805674Y-72024465D01*
G37*
G36*
X162819674Y-72024465D02*
G01*
X162857367Y-72035899D01*
X162892103Y-72054466D01*
X162922548Y-72079452D01*
X162947534Y-72109897D01*
X162966101Y-72144633D01*
X162977535Y-72182326D01*
X162982000Y-72227661D01*
X162982000Y-73314339D01*
X162977535Y-73359674D01*
X162966101Y-73397367D01*
X162947534Y-73432103D01*
X162922548Y-73462548D01*
X162892103Y-73487534D01*
X162857367Y-73506101D01*
X162819674Y-73517535D01*
X162774339Y-73522000D01*
X161937661Y-73522000D01*
X161892326Y-73517535D01*
X161854633Y-73506101D01*
X161819897Y-73487534D01*
X161789452Y-73462548D01*
X161764466Y-73432103D01*
X161745899Y-73397367D01*
X161734465Y-73359674D01*
X161730000Y-73314339D01*
X161730000Y-72227661D01*
X161734465Y-72182326D01*
X161745899Y-72144633D01*
X161764466Y-72109897D01*
X161789452Y-72079452D01*
X161819897Y-72054466D01*
X161854633Y-72035899D01*
X161892326Y-72024465D01*
X161937661Y-72020000D01*
X162774339Y-72020000D01*
X162819674Y-72024465D01*
G37*
G36*
X128869674Y-72024465D02*
G01*
X128907367Y-72035899D01*
X128942103Y-72054466D01*
X128972548Y-72079452D01*
X128997534Y-72109897D01*
X129016101Y-72144633D01*
X129027535Y-72182326D01*
X129032000Y-72227661D01*
X129032000Y-73314339D01*
X129027535Y-73359674D01*
X129016101Y-73397367D01*
X128997534Y-73432103D01*
X128972548Y-73462548D01*
X128942103Y-73487534D01*
X128907367Y-73506101D01*
X128869674Y-73517535D01*
X128824339Y-73522000D01*
X127987661Y-73522000D01*
X127942326Y-73517535D01*
X127904633Y-73506101D01*
X127869897Y-73487534D01*
X127839452Y-73462548D01*
X127814466Y-73432103D01*
X127795899Y-73397367D01*
X127784465Y-73359674D01*
X127780000Y-73314339D01*
X127780000Y-72227661D01*
X127784465Y-72182326D01*
X127795899Y-72144633D01*
X127814466Y-72109897D01*
X127839452Y-72079452D01*
X127869897Y-72054466D01*
X127904633Y-72035899D01*
X127942326Y-72024465D01*
X127987661Y-72020000D01*
X128824339Y-72020000D01*
X128869674Y-72024465D01*
G37*
G36*
X174884674Y-72024465D02*
G01*
X174922367Y-72035899D01*
X174957103Y-72054466D01*
X174987548Y-72079452D01*
X175012534Y-72109897D01*
X175031101Y-72144633D01*
X175042535Y-72182326D01*
X175047000Y-72227661D01*
X175047000Y-73314339D01*
X175042535Y-73359674D01*
X175031101Y-73397367D01*
X175012534Y-73432103D01*
X174987548Y-73462548D01*
X174957103Y-73487534D01*
X174922367Y-73506101D01*
X174884674Y-73517535D01*
X174839339Y-73522000D01*
X174002661Y-73522000D01*
X173957326Y-73517535D01*
X173919633Y-73506101D01*
X173884897Y-73487534D01*
X173854452Y-73462548D01*
X173829466Y-73432103D01*
X173810899Y-73397367D01*
X173799465Y-73359674D01*
X173795000Y-73314339D01*
X173795000Y-72227661D01*
X173799465Y-72182326D01*
X173810899Y-72144633D01*
X173829466Y-72109897D01*
X173854452Y-72079452D01*
X173884897Y-72054466D01*
X173919633Y-72035899D01*
X173957326Y-72024465D01*
X174002661Y-72020000D01*
X174839339Y-72020000D01*
X174884674Y-72024465D01*
G37*
G36*
X126819674Y-72024465D02*
G01*
X126857367Y-72035899D01*
X126892103Y-72054466D01*
X126922548Y-72079452D01*
X126947534Y-72109897D01*
X126966101Y-72144633D01*
X126977535Y-72182326D01*
X126982000Y-72227661D01*
X126982000Y-73314339D01*
X126977535Y-73359674D01*
X126966101Y-73397367D01*
X126947534Y-73432103D01*
X126922548Y-73462548D01*
X126892103Y-73487534D01*
X126857367Y-73506101D01*
X126819674Y-73517535D01*
X126774339Y-73522000D01*
X125937661Y-73522000D01*
X125892326Y-73517535D01*
X125854633Y-73506101D01*
X125819897Y-73487534D01*
X125789452Y-73462548D01*
X125764466Y-73432103D01*
X125745899Y-73397367D01*
X125734465Y-73359674D01*
X125730000Y-73314339D01*
X125730000Y-72227661D01*
X125734465Y-72182326D01*
X125745899Y-72144633D01*
X125764466Y-72109897D01*
X125789452Y-72079452D01*
X125819897Y-72054466D01*
X125854633Y-72035899D01*
X125892326Y-72024465D01*
X125937661Y-72020000D01*
X126774339Y-72020000D01*
X126819674Y-72024465D01*
G37*
G36*
X124805674Y-72024465D02*
G01*
X124843367Y-72035899D01*
X124878103Y-72054466D01*
X124908548Y-72079452D01*
X124933534Y-72109897D01*
X124952101Y-72144633D01*
X124963535Y-72182326D01*
X124968000Y-72227661D01*
X124968000Y-73314339D01*
X124963535Y-73359674D01*
X124952101Y-73397367D01*
X124933534Y-73432103D01*
X124908548Y-73462548D01*
X124878103Y-73487534D01*
X124843367Y-73506101D01*
X124805674Y-73517535D01*
X124760339Y-73522000D01*
X123923661Y-73522000D01*
X123878326Y-73517535D01*
X123840633Y-73506101D01*
X123805897Y-73487534D01*
X123775452Y-73462548D01*
X123750466Y-73432103D01*
X123731899Y-73397367D01*
X123720465Y-73359674D01*
X123716000Y-73314339D01*
X123716000Y-72227661D01*
X123720465Y-72182326D01*
X123731899Y-72144633D01*
X123750466Y-72109897D01*
X123775452Y-72079452D01*
X123805897Y-72054466D01*
X123840633Y-72035899D01*
X123878326Y-72024465D01*
X123923661Y-72020000D01*
X124760339Y-72020000D01*
X124805674Y-72024465D01*
G37*
G36*
X122755674Y-72024465D02*
G01*
X122793367Y-72035899D01*
X122828103Y-72054466D01*
X122858548Y-72079452D01*
X122883534Y-72109897D01*
X122902101Y-72144633D01*
X122913535Y-72182326D01*
X122918000Y-72227661D01*
X122918000Y-73314339D01*
X122913535Y-73359674D01*
X122902101Y-73397367D01*
X122883534Y-73432103D01*
X122858548Y-73462548D01*
X122828103Y-73487534D01*
X122793367Y-73506101D01*
X122755674Y-73517535D01*
X122710339Y-73522000D01*
X121873661Y-73522000D01*
X121828326Y-73517535D01*
X121790633Y-73506101D01*
X121755897Y-73487534D01*
X121725452Y-73462548D01*
X121700466Y-73432103D01*
X121681899Y-73397367D01*
X121670465Y-73359674D01*
X121666000Y-73314339D01*
X121666000Y-72227661D01*
X121670465Y-72182326D01*
X121681899Y-72144633D01*
X121700466Y-72109897D01*
X121725452Y-72079452D01*
X121755897Y-72054466D01*
X121790633Y-72035899D01*
X121828326Y-72024465D01*
X121873661Y-72020000D01*
X122710339Y-72020000D01*
X122755674Y-72024465D01*
G37*
G36*
X164869674Y-72024465D02*
G01*
X164907367Y-72035899D01*
X164942103Y-72054466D01*
X164972548Y-72079452D01*
X164997534Y-72109897D01*
X165016101Y-72144633D01*
X165027535Y-72182326D01*
X165032000Y-72227661D01*
X165032000Y-73314339D01*
X165027535Y-73359674D01*
X165016101Y-73397367D01*
X164997534Y-73432103D01*
X164972548Y-73462548D01*
X164942103Y-73487534D01*
X164907367Y-73506101D01*
X164869674Y-73517535D01*
X164824339Y-73522000D01*
X163987661Y-73522000D01*
X163942326Y-73517535D01*
X163904633Y-73506101D01*
X163869897Y-73487534D01*
X163839452Y-73462548D01*
X163814466Y-73432103D01*
X163795899Y-73397367D01*
X163784465Y-73359674D01*
X163780000Y-73314339D01*
X163780000Y-72227661D01*
X163784465Y-72182326D01*
X163795899Y-72144633D01*
X163814466Y-72109897D01*
X163839452Y-72079452D01*
X163869897Y-72054466D01*
X163904633Y-72035899D01*
X163942326Y-72024465D01*
X163987661Y-72020000D01*
X164824339Y-72020000D01*
X164869674Y-72024465D01*
G37*
G36*
X160805674Y-69992465D02*
G01*
X160843367Y-70003899D01*
X160878103Y-70022466D01*
X160908548Y-70047452D01*
X160933534Y-70077897D01*
X160952101Y-70112633D01*
X160963535Y-70150326D01*
X160968000Y-70195661D01*
X160968000Y-71282339D01*
X160963535Y-71327674D01*
X160952101Y-71365367D01*
X160933534Y-71400103D01*
X160908548Y-71430548D01*
X160878103Y-71455534D01*
X160843367Y-71474101D01*
X160805674Y-71485535D01*
X160760339Y-71490000D01*
X159923661Y-71490000D01*
X159878326Y-71485535D01*
X159840633Y-71474101D01*
X159805897Y-71455534D01*
X159775452Y-71430548D01*
X159750466Y-71400103D01*
X159731899Y-71365367D01*
X159720465Y-71327674D01*
X159716000Y-71282339D01*
X159716000Y-70195661D01*
X159720465Y-70150326D01*
X159731899Y-70112633D01*
X159750466Y-70077897D01*
X159775452Y-70047452D01*
X159805897Y-70022466D01*
X159840633Y-70003899D01*
X159878326Y-69992465D01*
X159923661Y-69988000D01*
X160760339Y-69988000D01*
X160805674Y-69992465D01*
G37*
G36*
X158755674Y-69992465D02*
G01*
X158793367Y-70003899D01*
X158828103Y-70022466D01*
X158858548Y-70047452D01*
X158883534Y-70077897D01*
X158902101Y-70112633D01*
X158913535Y-70150326D01*
X158918000Y-70195661D01*
X158918000Y-71282339D01*
X158913535Y-71327674D01*
X158902101Y-71365367D01*
X158883534Y-71400103D01*
X158858548Y-71430548D01*
X158828103Y-71455534D01*
X158793367Y-71474101D01*
X158755674Y-71485535D01*
X158710339Y-71490000D01*
X157873661Y-71490000D01*
X157828326Y-71485535D01*
X157790633Y-71474101D01*
X157755897Y-71455534D01*
X157725452Y-71430548D01*
X157700466Y-71400103D01*
X157681899Y-71365367D01*
X157670465Y-71327674D01*
X157666000Y-71282339D01*
X157666000Y-70195661D01*
X157670465Y-70150326D01*
X157681899Y-70112633D01*
X157700466Y-70077897D01*
X157725452Y-70047452D01*
X157755897Y-70022466D01*
X157790633Y-70003899D01*
X157828326Y-69992465D01*
X157873661Y-69988000D01*
X158710339Y-69988000D01*
X158755674Y-69992465D01*
G37*
G36*
X124805674Y-69992465D02*
G01*
X124843367Y-70003899D01*
X124878103Y-70022466D01*
X124908548Y-70047452D01*
X124933534Y-70077897D01*
X124952101Y-70112633D01*
X124963535Y-70150326D01*
X124968000Y-70195661D01*
X124968000Y-71282339D01*
X124963535Y-71327674D01*
X124952101Y-71365367D01*
X124933534Y-71400103D01*
X124908548Y-71430548D01*
X124878103Y-71455534D01*
X124843367Y-71474101D01*
X124805674Y-71485535D01*
X124760339Y-71490000D01*
X123923661Y-71490000D01*
X123878326Y-71485535D01*
X123840633Y-71474101D01*
X123805897Y-71455534D01*
X123775452Y-71430548D01*
X123750466Y-71400103D01*
X123731899Y-71365367D01*
X123720465Y-71327674D01*
X123716000Y-71282339D01*
X123716000Y-70195661D01*
X123720465Y-70150326D01*
X123731899Y-70112633D01*
X123750466Y-70077897D01*
X123775452Y-70047452D01*
X123805897Y-70022466D01*
X123840633Y-70003899D01*
X123878326Y-69992465D01*
X123923661Y-69988000D01*
X124760339Y-69988000D01*
X124805674Y-69992465D01*
G37*
G36*
X122755674Y-69992465D02*
G01*
X122793367Y-70003899D01*
X122828103Y-70022466D01*
X122858548Y-70047452D01*
X122883534Y-70077897D01*
X122902101Y-70112633D01*
X122913535Y-70150326D01*
X122918000Y-70195661D01*
X122918000Y-71282339D01*
X122913535Y-71327674D01*
X122902101Y-71365367D01*
X122883534Y-71400103D01*
X122858548Y-71430548D01*
X122828103Y-71455534D01*
X122793367Y-71474101D01*
X122755674Y-71485535D01*
X122710339Y-71490000D01*
X121873661Y-71490000D01*
X121828326Y-71485535D01*
X121790633Y-71474101D01*
X121755897Y-71455534D01*
X121725452Y-71430548D01*
X121700466Y-71400103D01*
X121681899Y-71365367D01*
X121670465Y-71327674D01*
X121666000Y-71282339D01*
X121666000Y-70195661D01*
X121670465Y-70150326D01*
X121681899Y-70112633D01*
X121700466Y-70077897D01*
X121725452Y-70047452D01*
X121755897Y-70022466D01*
X121790633Y-70003899D01*
X121828326Y-69992465D01*
X121873661Y-69988000D01*
X122710339Y-69988000D01*
X122755674Y-69992465D01*
G37*
G36*
X175358000Y-69224000D02*
G01*
X173456000Y-69224000D01*
X173456000Y-66522000D01*
X175358000Y-66522000D01*
X175358000Y-69224000D01*
G37*
G36*
X130008000Y-69224000D02*
G01*
X128106000Y-69224000D01*
X128106000Y-66522000D01*
X130008000Y-66522000D01*
X130008000Y-69224000D01*
G37*
G36*
X134608000Y-69224000D02*
G01*
X132706000Y-69224000D01*
X132706000Y-66522000D01*
X134608000Y-66522000D01*
X134608000Y-69224000D01*
G37*
G36*
X139358000Y-69224000D02*
G01*
X137456000Y-69224000D01*
X137456000Y-66522000D01*
X139358000Y-66522000D01*
X139358000Y-69224000D01*
G37*
G36*
X143808000Y-69224000D02*
G01*
X141906000Y-69224000D01*
X141906000Y-66522000D01*
X143808000Y-66522000D01*
X143808000Y-69224000D01*
G37*
G36*
X166008000Y-69224000D02*
G01*
X164106000Y-69224000D01*
X164106000Y-66522000D01*
X166008000Y-66522000D01*
X166008000Y-69224000D01*
G37*
G36*
X170608000Y-69224000D02*
G01*
X168706000Y-69224000D01*
X168706000Y-66522000D01*
X170608000Y-66522000D01*
X170608000Y-69224000D01*
G37*
G36*
X179808000Y-69224000D02*
G01*
X177906000Y-69224000D01*
X177906000Y-66522000D01*
X179808000Y-66522000D01*
X179808000Y-69224000D01*
G37*
G36*
X158033512Y-64305927D02*
G01*
X158182812Y-64335624D01*
X158346784Y-64403544D01*
X158494354Y-64502147D01*
X158619853Y-64627646D01*
X158718456Y-64775216D01*
X158786376Y-64939188D01*
X158821000Y-65113259D01*
X158821000Y-65290741D01*
X158786376Y-65464812D01*
X158718456Y-65628784D01*
X158619853Y-65776354D01*
X158494354Y-65901853D01*
X158346784Y-66000456D01*
X158182812Y-66068376D01*
X158033512Y-66098073D01*
X158008742Y-66103000D01*
X157831258Y-66103000D01*
X157806488Y-66098073D01*
X157657188Y-66068376D01*
X157493216Y-66000456D01*
X157345646Y-65901853D01*
X157220147Y-65776354D01*
X157121544Y-65628784D01*
X157053624Y-65464812D01*
X157019000Y-65290741D01*
X157019000Y-65113259D01*
X157053624Y-64939188D01*
X157121544Y-64775216D01*
X157220147Y-64627646D01*
X157345646Y-64502147D01*
X157493216Y-64403544D01*
X157657188Y-64335624D01*
X157806488Y-64305927D01*
X157831258Y-64301000D01*
X158008742Y-64301000D01*
X158033512Y-64305927D01*
G37*
G36*
X122033512Y-64305927D02*
G01*
X122182812Y-64335624D01*
X122346784Y-64403544D01*
X122494354Y-64502147D01*
X122619853Y-64627646D01*
X122718456Y-64775216D01*
X122786376Y-64939188D01*
X122821000Y-65113259D01*
X122821000Y-65290741D01*
X122786376Y-65464812D01*
X122718456Y-65628784D01*
X122619853Y-65776354D01*
X122494354Y-65901853D01*
X122346784Y-66000456D01*
X122182812Y-66068376D01*
X122033512Y-66098073D01*
X122008742Y-66103000D01*
X121831258Y-66103000D01*
X121806488Y-66098073D01*
X121657188Y-66068376D01*
X121493216Y-66000456D01*
X121345646Y-65901853D01*
X121220147Y-65776354D01*
X121121544Y-65628784D01*
X121053624Y-65464812D01*
X121019000Y-65290741D01*
X121019000Y-65113259D01*
X121053624Y-64939188D01*
X121121544Y-64775216D01*
X121220147Y-64627646D01*
X121345646Y-64502147D01*
X121493216Y-64403544D01*
X121657188Y-64335624D01*
X121806488Y-64305927D01*
X121831258Y-64301000D01*
X122008742Y-64301000D01*
X122033512Y-64305927D01*
G37*
G36*
X149973512Y-64305927D02*
G01*
X150122812Y-64335624D01*
X150286784Y-64403544D01*
X150434354Y-64502147D01*
X150559853Y-64627646D01*
X150658456Y-64775216D01*
X150726376Y-64939188D01*
X150761000Y-65113259D01*
X150761000Y-65290741D01*
X150726376Y-65464812D01*
X150658456Y-65628784D01*
X150559853Y-65776354D01*
X150434354Y-65901853D01*
X150286784Y-66000456D01*
X150122812Y-66068376D01*
X149973512Y-66098073D01*
X149948742Y-66103000D01*
X149771258Y-66103000D01*
X149746488Y-66098073D01*
X149597188Y-66068376D01*
X149433216Y-66000456D01*
X149285646Y-65901853D01*
X149160147Y-65776354D01*
X149061544Y-65628784D01*
X148993624Y-65464812D01*
X148959000Y-65290741D01*
X148959000Y-65113259D01*
X148993624Y-64939188D01*
X149061544Y-64775216D01*
X149160147Y-64627646D01*
X149285646Y-64502147D01*
X149433216Y-64403544D01*
X149597188Y-64335624D01*
X149746488Y-64305927D01*
X149771258Y-64301000D01*
X149948742Y-64301000D01*
X149973512Y-64305927D01*
G37*
G36*
X188513512Y-64305927D02*
G01*
X188662812Y-64335624D01*
X188826784Y-64403544D01*
X188974354Y-64502147D01*
X189099853Y-64627646D01*
X189198456Y-64775216D01*
X189266376Y-64939188D01*
X189301000Y-65113259D01*
X189301000Y-65290741D01*
X189266376Y-65464812D01*
X189198456Y-65628784D01*
X189099853Y-65776354D01*
X188974354Y-65901853D01*
X188826784Y-66000456D01*
X188662812Y-66068376D01*
X188513512Y-66098073D01*
X188488742Y-66103000D01*
X188311258Y-66103000D01*
X188286488Y-66098073D01*
X188137188Y-66068376D01*
X187973216Y-66000456D01*
X187825646Y-65901853D01*
X187700147Y-65776354D01*
X187601544Y-65628784D01*
X187533624Y-65464812D01*
X187499000Y-65290741D01*
X187499000Y-65113259D01*
X187533624Y-64939188D01*
X187601544Y-64775216D01*
X187700147Y-64627646D01*
X187825646Y-64502147D01*
X187973216Y-64403544D01*
X188137188Y-64335624D01*
X188286488Y-64305927D01*
X188311258Y-64301000D01*
X188488742Y-64301000D01*
X188513512Y-64305927D01*
G37*
G36*
X185973512Y-64305927D02*
G01*
X186122812Y-64335624D01*
X186286784Y-64403544D01*
X186434354Y-64502147D01*
X186559853Y-64627646D01*
X186658456Y-64775216D01*
X186726376Y-64939188D01*
X186761000Y-65113259D01*
X186761000Y-65290741D01*
X186726376Y-65464812D01*
X186658456Y-65628784D01*
X186559853Y-65776354D01*
X186434354Y-65901853D01*
X186286784Y-66000456D01*
X186122812Y-66068376D01*
X185973512Y-66098073D01*
X185948742Y-66103000D01*
X185771258Y-66103000D01*
X185746488Y-66098073D01*
X185597188Y-66068376D01*
X185433216Y-66000456D01*
X185285646Y-65901853D01*
X185160147Y-65776354D01*
X185061544Y-65628784D01*
X184993624Y-65464812D01*
X184959000Y-65290741D01*
X184959000Y-65113259D01*
X184993624Y-64939188D01*
X185061544Y-64775216D01*
X185160147Y-64627646D01*
X185285646Y-64502147D01*
X185433216Y-64403544D01*
X185597188Y-64335624D01*
X185746488Y-64305927D01*
X185771258Y-64301000D01*
X185948742Y-64301000D01*
X185973512Y-64305927D01*
G37*
G36*
X152513512Y-64305927D02*
G01*
X152662812Y-64335624D01*
X152826784Y-64403544D01*
X152974354Y-64502147D01*
X153099853Y-64627646D01*
X153198456Y-64775216D01*
X153266376Y-64939188D01*
X153301000Y-65113259D01*
X153301000Y-65290741D01*
X153266376Y-65464812D01*
X153198456Y-65628784D01*
X153099853Y-65776354D01*
X152974354Y-65901853D01*
X152826784Y-66000456D01*
X152662812Y-66068376D01*
X152513512Y-66098073D01*
X152488742Y-66103000D01*
X152311258Y-66103000D01*
X152286488Y-66098073D01*
X152137188Y-66068376D01*
X151973216Y-66000456D01*
X151825646Y-65901853D01*
X151700147Y-65776354D01*
X151601544Y-65628784D01*
X151533624Y-65464812D01*
X151499000Y-65290741D01*
X151499000Y-65113259D01*
X151533624Y-64939188D01*
X151601544Y-64775216D01*
X151700147Y-64627646D01*
X151825646Y-64502147D01*
X151973216Y-64403544D01*
X152137188Y-64335624D01*
X152286488Y-64305927D01*
X152311258Y-64301000D01*
X152488742Y-64301000D01*
X152513512Y-64305927D01*
G37*
G36*
X128468000Y-64974000D02*
G01*
X125766000Y-64974000D01*
X125766000Y-63072000D01*
X128468000Y-63072000D01*
X128468000Y-64974000D01*
G37*
G36*
X146268000Y-64974000D02*
G01*
X143566000Y-64974000D01*
X143566000Y-63072000D01*
X146268000Y-63072000D01*
X146268000Y-64974000D01*
G37*
G36*
X164468000Y-64974000D02*
G01*
X161766000Y-64974000D01*
X161766000Y-63072000D01*
X164468000Y-63072000D01*
X164468000Y-64974000D01*
G37*
G36*
X182268000Y-64974000D02*
G01*
X179566000Y-64974000D01*
X179566000Y-63072000D01*
X182268000Y-63072000D01*
X182268000Y-64974000D01*
G37*
G36*
X122033512Y-61765927D02*
G01*
X122182812Y-61795624D01*
X122346784Y-61863544D01*
X122494354Y-61962147D01*
X122619853Y-62087646D01*
X122718456Y-62235216D01*
X122786376Y-62399188D01*
X122821000Y-62573259D01*
X122821000Y-62750741D01*
X122786376Y-62924812D01*
X122718456Y-63088784D01*
X122619853Y-63236354D01*
X122494354Y-63361853D01*
X122346784Y-63460456D01*
X122182812Y-63528376D01*
X122033512Y-63558073D01*
X122008742Y-63563000D01*
X121831258Y-63563000D01*
X121806488Y-63558073D01*
X121657188Y-63528376D01*
X121493216Y-63460456D01*
X121345646Y-63361853D01*
X121220147Y-63236354D01*
X121121544Y-63088784D01*
X121053624Y-62924812D01*
X121019000Y-62750741D01*
X121019000Y-62573259D01*
X121053624Y-62399188D01*
X121121544Y-62235216D01*
X121220147Y-62087646D01*
X121345646Y-61962147D01*
X121493216Y-61863544D01*
X121657188Y-61795624D01*
X121806488Y-61765927D01*
X121831258Y-61761000D01*
X122008742Y-61761000D01*
X122033512Y-61765927D01*
G37*
G36*
X158033512Y-61765927D02*
G01*
X158182812Y-61795624D01*
X158346784Y-61863544D01*
X158494354Y-61962147D01*
X158619853Y-62087646D01*
X158718456Y-62235216D01*
X158786376Y-62399188D01*
X158821000Y-62573259D01*
X158821000Y-62750741D01*
X158786376Y-62924812D01*
X158718456Y-63088784D01*
X158619853Y-63236354D01*
X158494354Y-63361853D01*
X158346784Y-63460456D01*
X158182812Y-63528376D01*
X158033512Y-63558073D01*
X158008742Y-63563000D01*
X157831258Y-63563000D01*
X157806488Y-63558073D01*
X157657188Y-63528376D01*
X157493216Y-63460456D01*
X157345646Y-63361853D01*
X157220147Y-63236354D01*
X157121544Y-63088784D01*
X157053624Y-62924812D01*
X157019000Y-62750741D01*
X157019000Y-62573259D01*
X157053624Y-62399188D01*
X157121544Y-62235216D01*
X157220147Y-62087646D01*
X157345646Y-61962147D01*
X157493216Y-61863544D01*
X157657188Y-61795624D01*
X157806488Y-61765927D01*
X157831258Y-61761000D01*
X158008742Y-61761000D01*
X158033512Y-61765927D01*
G37*
G36*
X149973512Y-61765927D02*
G01*
X150122812Y-61795624D01*
X150286784Y-61863544D01*
X150434354Y-61962147D01*
X150559853Y-62087646D01*
X150658456Y-62235216D01*
X150726376Y-62399188D01*
X150761000Y-62573259D01*
X150761000Y-62750741D01*
X150726376Y-62924812D01*
X150658456Y-63088784D01*
X150559853Y-63236354D01*
X150434354Y-63361853D01*
X150286784Y-63460456D01*
X150122812Y-63528376D01*
X149973512Y-63558073D01*
X149948742Y-63563000D01*
X149771258Y-63563000D01*
X149746488Y-63558073D01*
X149597188Y-63528376D01*
X149433216Y-63460456D01*
X149285646Y-63361853D01*
X149160147Y-63236354D01*
X149061544Y-63088784D01*
X148993624Y-62924812D01*
X148959000Y-62750741D01*
X148959000Y-62573259D01*
X148993624Y-62399188D01*
X149061544Y-62235216D01*
X149160147Y-62087646D01*
X149285646Y-61962147D01*
X149433216Y-61863544D01*
X149597188Y-61795624D01*
X149746488Y-61765927D01*
X149771258Y-61761000D01*
X149948742Y-61761000D01*
X149973512Y-61765927D01*
G37*
G36*
X152513512Y-61765927D02*
G01*
X152662812Y-61795624D01*
X152826784Y-61863544D01*
X152974354Y-61962147D01*
X153099853Y-62087646D01*
X153198456Y-62235216D01*
X153266376Y-62399188D01*
X153301000Y-62573259D01*
X153301000Y-62750741D01*
X153266376Y-62924812D01*
X153198456Y-63088784D01*
X153099853Y-63236354D01*
X152974354Y-63361853D01*
X152826784Y-63460456D01*
X152662812Y-63528376D01*
X152513512Y-63558073D01*
X152488742Y-63563000D01*
X152311258Y-63563000D01*
X152286488Y-63558073D01*
X152137188Y-63528376D01*
X151973216Y-63460456D01*
X151825646Y-63361853D01*
X151700147Y-63236354D01*
X151601544Y-63088784D01*
X151533624Y-62924812D01*
X151499000Y-62750741D01*
X151499000Y-62573259D01*
X151533624Y-62399188D01*
X151601544Y-62235216D01*
X151700147Y-62087646D01*
X151825646Y-61962147D01*
X151973216Y-61863544D01*
X152137188Y-61795624D01*
X152286488Y-61765927D01*
X152311258Y-61761000D01*
X152488742Y-61761000D01*
X152513512Y-61765927D01*
G37*
G36*
X188513512Y-61765927D02*
G01*
X188662812Y-61795624D01*
X188826784Y-61863544D01*
X188974354Y-61962147D01*
X189099853Y-62087646D01*
X189198456Y-62235216D01*
X189266376Y-62399188D01*
X189301000Y-62573259D01*
X189301000Y-62750741D01*
X189266376Y-62924812D01*
X189198456Y-63088784D01*
X189099853Y-63236354D01*
X188974354Y-63361853D01*
X188826784Y-63460456D01*
X188662812Y-63528376D01*
X188513512Y-63558073D01*
X188488742Y-63563000D01*
X188311258Y-63563000D01*
X188286488Y-63558073D01*
X188137188Y-63528376D01*
X187973216Y-63460456D01*
X187825646Y-63361853D01*
X187700147Y-63236354D01*
X187601544Y-63088784D01*
X187533624Y-62924812D01*
X187499000Y-62750741D01*
X187499000Y-62573259D01*
X187533624Y-62399188D01*
X187601544Y-62235216D01*
X187700147Y-62087646D01*
X187825646Y-61962147D01*
X187973216Y-61863544D01*
X188137188Y-61795624D01*
X188286488Y-61765927D01*
X188311258Y-61761000D01*
X188488742Y-61761000D01*
X188513512Y-61765927D01*
G37*
G36*
X185973512Y-61765927D02*
G01*
X186122812Y-61795624D01*
X186286784Y-61863544D01*
X186434354Y-61962147D01*
X186559853Y-62087646D01*
X186658456Y-62235216D01*
X186726376Y-62399188D01*
X186761000Y-62573259D01*
X186761000Y-62750741D01*
X186726376Y-62924812D01*
X186658456Y-63088784D01*
X186559853Y-63236354D01*
X186434354Y-63361853D01*
X186286784Y-63460456D01*
X186122812Y-63528376D01*
X185973512Y-63558073D01*
X185948742Y-63563000D01*
X185771258Y-63563000D01*
X185746488Y-63558073D01*
X185597188Y-63528376D01*
X185433216Y-63460456D01*
X185285646Y-63361853D01*
X185160147Y-63236354D01*
X185061544Y-63088784D01*
X184993624Y-62924812D01*
X184959000Y-62750741D01*
X184959000Y-62573259D01*
X184993624Y-62399188D01*
X185061544Y-62235216D01*
X185160147Y-62087646D01*
X185285646Y-61962147D01*
X185433216Y-61863544D01*
X185597188Y-61795624D01*
X185746488Y-61765927D01*
X185771258Y-61761000D01*
X185948742Y-61761000D01*
X185973512Y-61765927D01*
G37*
G36*
X122033512Y-59225927D02*
G01*
X122182812Y-59255624D01*
X122346784Y-59323544D01*
X122494354Y-59422147D01*
X122619853Y-59547646D01*
X122718456Y-59695216D01*
X122786376Y-59859188D01*
X122821000Y-60033259D01*
X122821000Y-60210741D01*
X122786376Y-60384812D01*
X122718456Y-60548784D01*
X122619853Y-60696354D01*
X122494354Y-60821853D01*
X122346784Y-60920456D01*
X122182812Y-60988376D01*
X122033512Y-61018073D01*
X122008742Y-61023000D01*
X121831258Y-61023000D01*
X121806488Y-61018073D01*
X121657188Y-60988376D01*
X121493216Y-60920456D01*
X121345646Y-60821853D01*
X121220147Y-60696354D01*
X121121544Y-60548784D01*
X121053624Y-60384812D01*
X121019000Y-60210741D01*
X121019000Y-60033259D01*
X121053624Y-59859188D01*
X121121544Y-59695216D01*
X121220147Y-59547646D01*
X121345646Y-59422147D01*
X121493216Y-59323544D01*
X121657188Y-59255624D01*
X121806488Y-59225927D01*
X121831258Y-59221000D01*
X122008742Y-59221000D01*
X122033512Y-59225927D01*
G37*
G36*
X185973512Y-59225927D02*
G01*
X186122812Y-59255624D01*
X186286784Y-59323544D01*
X186434354Y-59422147D01*
X186559853Y-59547646D01*
X186658456Y-59695216D01*
X186726376Y-59859188D01*
X186761000Y-60033259D01*
X186761000Y-60210741D01*
X186726376Y-60384812D01*
X186658456Y-60548784D01*
X186559853Y-60696354D01*
X186434354Y-60821853D01*
X186286784Y-60920456D01*
X186122812Y-60988376D01*
X185973512Y-61018073D01*
X185948742Y-61023000D01*
X185771258Y-61023000D01*
X185746488Y-61018073D01*
X185597188Y-60988376D01*
X185433216Y-60920456D01*
X185285646Y-60821853D01*
X185160147Y-60696354D01*
X185061544Y-60548784D01*
X184993624Y-60384812D01*
X184959000Y-60210741D01*
X184959000Y-60033259D01*
X184993624Y-59859188D01*
X185061544Y-59695216D01*
X185160147Y-59547646D01*
X185285646Y-59422147D01*
X185433216Y-59323544D01*
X185597188Y-59255624D01*
X185746488Y-59225927D01*
X185771258Y-59221000D01*
X185948742Y-59221000D01*
X185973512Y-59225927D01*
G37*
G36*
X188513512Y-59225927D02*
G01*
X188662812Y-59255624D01*
X188826784Y-59323544D01*
X188974354Y-59422147D01*
X189099853Y-59547646D01*
X189198456Y-59695216D01*
X189266376Y-59859188D01*
X189301000Y-60033259D01*
X189301000Y-60210741D01*
X189266376Y-60384812D01*
X189198456Y-60548784D01*
X189099853Y-60696354D01*
X188974354Y-60821853D01*
X188826784Y-60920456D01*
X188662812Y-60988376D01*
X188513512Y-61018073D01*
X188488742Y-61023000D01*
X188311258Y-61023000D01*
X188286488Y-61018073D01*
X188137188Y-60988376D01*
X187973216Y-60920456D01*
X187825646Y-60821853D01*
X187700147Y-60696354D01*
X187601544Y-60548784D01*
X187533624Y-60384812D01*
X187499000Y-60210741D01*
X187499000Y-60033259D01*
X187533624Y-59859188D01*
X187601544Y-59695216D01*
X187700147Y-59547646D01*
X187825646Y-59422147D01*
X187973216Y-59323544D01*
X188137188Y-59255624D01*
X188286488Y-59225927D01*
X188311258Y-59221000D01*
X188488742Y-59221000D01*
X188513512Y-59225927D01*
G37*
G36*
X149973512Y-59225927D02*
G01*
X150122812Y-59255624D01*
X150286784Y-59323544D01*
X150434354Y-59422147D01*
X150559853Y-59547646D01*
X150658456Y-59695216D01*
X150726376Y-59859188D01*
X150761000Y-60033259D01*
X150761000Y-60210741D01*
X150726376Y-60384812D01*
X150658456Y-60548784D01*
X150559853Y-60696354D01*
X150434354Y-60821853D01*
X150286784Y-60920456D01*
X150122812Y-60988376D01*
X149973512Y-61018073D01*
X149948742Y-61023000D01*
X149771258Y-61023000D01*
X149746488Y-61018073D01*
X149597188Y-60988376D01*
X149433216Y-60920456D01*
X149285646Y-60821853D01*
X149160147Y-60696354D01*
X149061544Y-60548784D01*
X148993624Y-60384812D01*
X148959000Y-60210741D01*
X148959000Y-60033259D01*
X148993624Y-59859188D01*
X149061544Y-59695216D01*
X149160147Y-59547646D01*
X149285646Y-59422147D01*
X149433216Y-59323544D01*
X149597188Y-59255624D01*
X149746488Y-59225927D01*
X149771258Y-59221000D01*
X149948742Y-59221000D01*
X149973512Y-59225927D01*
G37*
G36*
X152513512Y-59225927D02*
G01*
X152662812Y-59255624D01*
X152826784Y-59323544D01*
X152974354Y-59422147D01*
X153099853Y-59547646D01*
X153198456Y-59695216D01*
X153266376Y-59859188D01*
X153301000Y-60033259D01*
X153301000Y-60210741D01*
X153266376Y-60384812D01*
X153198456Y-60548784D01*
X153099853Y-60696354D01*
X152974354Y-60821853D01*
X152826784Y-60920456D01*
X152662812Y-60988376D01*
X152513512Y-61018073D01*
X152488742Y-61023000D01*
X152311258Y-61023000D01*
X152286488Y-61018073D01*
X152137188Y-60988376D01*
X151973216Y-60920456D01*
X151825646Y-60821853D01*
X151700147Y-60696354D01*
X151601544Y-60548784D01*
X151533624Y-60384812D01*
X151499000Y-60210741D01*
X151499000Y-60033259D01*
X151533624Y-59859188D01*
X151601544Y-59695216D01*
X151700147Y-59547646D01*
X151825646Y-59422147D01*
X151973216Y-59323544D01*
X152137188Y-59255624D01*
X152286488Y-59225927D01*
X152311258Y-59221000D01*
X152488742Y-59221000D01*
X152513512Y-59225927D01*
G37*
G36*
X158033512Y-59225927D02*
G01*
X158182812Y-59255624D01*
X158346784Y-59323544D01*
X158494354Y-59422147D01*
X158619853Y-59547646D01*
X158718456Y-59695216D01*
X158786376Y-59859188D01*
X158821000Y-60033259D01*
X158821000Y-60210741D01*
X158786376Y-60384812D01*
X158718456Y-60548784D01*
X158619853Y-60696354D01*
X158494354Y-60821853D01*
X158346784Y-60920456D01*
X158182812Y-60988376D01*
X158033512Y-61018073D01*
X158008742Y-61023000D01*
X157831258Y-61023000D01*
X157806488Y-61018073D01*
X157657188Y-60988376D01*
X157493216Y-60920456D01*
X157345646Y-60821853D01*
X157220147Y-60696354D01*
X157121544Y-60548784D01*
X157053624Y-60384812D01*
X157019000Y-60210741D01*
X157019000Y-60033259D01*
X157053624Y-59859188D01*
X157121544Y-59695216D01*
X157220147Y-59547646D01*
X157345646Y-59422147D01*
X157493216Y-59323544D01*
X157657188Y-59255624D01*
X157806488Y-59225927D01*
X157831258Y-59221000D01*
X158008742Y-59221000D01*
X158033512Y-59225927D01*
G37*
G36*
X164468000Y-60524000D02*
G01*
X161766000Y-60524000D01*
X161766000Y-58622000D01*
X164468000Y-58622000D01*
X164468000Y-60524000D01*
G37*
G36*
X146268000Y-60524000D02*
G01*
X143566000Y-60524000D01*
X143566000Y-58622000D01*
X146268000Y-58622000D01*
X146268000Y-60524000D01*
G37*
G36*
X128468000Y-60524000D02*
G01*
X125766000Y-60524000D01*
X125766000Y-58622000D01*
X128468000Y-58622000D01*
X128468000Y-60524000D01*
G37*
G36*
X182268000Y-60524000D02*
G01*
X179566000Y-60524000D01*
X179566000Y-58622000D01*
X182268000Y-58622000D01*
X182268000Y-60524000D01*
G37*
G36*
X185973512Y-56685927D02*
G01*
X186122812Y-56715624D01*
X186286784Y-56783544D01*
X186434354Y-56882147D01*
X186559853Y-57007646D01*
X186658456Y-57155216D01*
X186726376Y-57319188D01*
X186761000Y-57493259D01*
X186761000Y-57670741D01*
X186726376Y-57844812D01*
X186658456Y-58008784D01*
X186559853Y-58156354D01*
X186434354Y-58281853D01*
X186286784Y-58380456D01*
X186122812Y-58448376D01*
X185973512Y-58478073D01*
X185948742Y-58483000D01*
X185771258Y-58483000D01*
X185746488Y-58478073D01*
X185597188Y-58448376D01*
X185433216Y-58380456D01*
X185285646Y-58281853D01*
X185160147Y-58156354D01*
X185061544Y-58008784D01*
X184993624Y-57844812D01*
X184959000Y-57670741D01*
X184959000Y-57493259D01*
X184993624Y-57319188D01*
X185061544Y-57155216D01*
X185160147Y-57007646D01*
X185285646Y-56882147D01*
X185433216Y-56783544D01*
X185597188Y-56715624D01*
X185746488Y-56685927D01*
X185771258Y-56681000D01*
X185948742Y-56681000D01*
X185973512Y-56685927D01*
G37*
G36*
X158033512Y-56685927D02*
G01*
X158182812Y-56715624D01*
X158346784Y-56783544D01*
X158494354Y-56882147D01*
X158619853Y-57007646D01*
X158718456Y-57155216D01*
X158786376Y-57319188D01*
X158821000Y-57493259D01*
X158821000Y-57670741D01*
X158786376Y-57844812D01*
X158718456Y-58008784D01*
X158619853Y-58156354D01*
X158494354Y-58281853D01*
X158346784Y-58380456D01*
X158182812Y-58448376D01*
X158033512Y-58478073D01*
X158008742Y-58483000D01*
X157831258Y-58483000D01*
X157806488Y-58478073D01*
X157657188Y-58448376D01*
X157493216Y-58380456D01*
X157345646Y-58281853D01*
X157220147Y-58156354D01*
X157121544Y-58008784D01*
X157053624Y-57844812D01*
X157019000Y-57670741D01*
X157019000Y-57493259D01*
X157053624Y-57319188D01*
X157121544Y-57155216D01*
X157220147Y-57007646D01*
X157345646Y-56882147D01*
X157493216Y-56783544D01*
X157657188Y-56715624D01*
X157806488Y-56685927D01*
X157831258Y-56681000D01*
X158008742Y-56681000D01*
X158033512Y-56685927D01*
G37*
G36*
X122033512Y-56685927D02*
G01*
X122182812Y-56715624D01*
X122346784Y-56783544D01*
X122494354Y-56882147D01*
X122619853Y-57007646D01*
X122718456Y-57155216D01*
X122786376Y-57319188D01*
X122821000Y-57493259D01*
X122821000Y-57670741D01*
X122786376Y-57844812D01*
X122718456Y-58008784D01*
X122619853Y-58156354D01*
X122494354Y-58281853D01*
X122346784Y-58380456D01*
X122182812Y-58448376D01*
X122033512Y-58478073D01*
X122008742Y-58483000D01*
X121831258Y-58483000D01*
X121806488Y-58478073D01*
X121657188Y-58448376D01*
X121493216Y-58380456D01*
X121345646Y-58281853D01*
X121220147Y-58156354D01*
X121121544Y-58008784D01*
X121053624Y-57844812D01*
X121019000Y-57670741D01*
X121019000Y-57493259D01*
X121053624Y-57319188D01*
X121121544Y-57155216D01*
X121220147Y-57007646D01*
X121345646Y-56882147D01*
X121493216Y-56783544D01*
X121657188Y-56715624D01*
X121806488Y-56685927D01*
X121831258Y-56681000D01*
X122008742Y-56681000D01*
X122033512Y-56685927D01*
G37*
G36*
X188513512Y-56685927D02*
G01*
X188662812Y-56715624D01*
X188826784Y-56783544D01*
X188974354Y-56882147D01*
X189099853Y-57007646D01*
X189198456Y-57155216D01*
X189266376Y-57319188D01*
X189301000Y-57493259D01*
X189301000Y-57670741D01*
X189266376Y-57844812D01*
X189198456Y-58008784D01*
X189099853Y-58156354D01*
X188974354Y-58281853D01*
X188826784Y-58380456D01*
X188662812Y-58448376D01*
X188513512Y-58478073D01*
X188488742Y-58483000D01*
X188311258Y-58483000D01*
X188286488Y-58478073D01*
X188137188Y-58448376D01*
X187973216Y-58380456D01*
X187825646Y-58281853D01*
X187700147Y-58156354D01*
X187601544Y-58008784D01*
X187533624Y-57844812D01*
X187499000Y-57670741D01*
X187499000Y-57493259D01*
X187533624Y-57319188D01*
X187601544Y-57155216D01*
X187700147Y-57007646D01*
X187825646Y-56882147D01*
X187973216Y-56783544D01*
X188137188Y-56715624D01*
X188286488Y-56685927D01*
X188311258Y-56681000D01*
X188488742Y-56681000D01*
X188513512Y-56685927D01*
G37*
G36*
X149973512Y-56685927D02*
G01*
X150122812Y-56715624D01*
X150286784Y-56783544D01*
X150434354Y-56882147D01*
X150559853Y-57007646D01*
X150658456Y-57155216D01*
X150726376Y-57319188D01*
X150761000Y-57493259D01*
X150761000Y-57670741D01*
X150726376Y-57844812D01*
X150658456Y-58008784D01*
X150559853Y-58156354D01*
X150434354Y-58281853D01*
X150286784Y-58380456D01*
X150122812Y-58448376D01*
X149973512Y-58478073D01*
X149948742Y-58483000D01*
X149771258Y-58483000D01*
X149746488Y-58478073D01*
X149597188Y-58448376D01*
X149433216Y-58380456D01*
X149285646Y-58281853D01*
X149160147Y-58156354D01*
X149061544Y-58008784D01*
X148993624Y-57844812D01*
X148959000Y-57670741D01*
X148959000Y-57493259D01*
X148993624Y-57319188D01*
X149061544Y-57155216D01*
X149160147Y-57007646D01*
X149285646Y-56882147D01*
X149433216Y-56783544D01*
X149597188Y-56715624D01*
X149746488Y-56685927D01*
X149771258Y-56681000D01*
X149948742Y-56681000D01*
X149973512Y-56685927D01*
G37*
G36*
X152513512Y-56685927D02*
G01*
X152662812Y-56715624D01*
X152826784Y-56783544D01*
X152974354Y-56882147D01*
X153099853Y-57007646D01*
X153198456Y-57155216D01*
X153266376Y-57319188D01*
X153301000Y-57493259D01*
X153301000Y-57670741D01*
X153266376Y-57844812D01*
X153198456Y-58008784D01*
X153099853Y-58156354D01*
X152974354Y-58281853D01*
X152826784Y-58380456D01*
X152662812Y-58448376D01*
X152513512Y-58478073D01*
X152488742Y-58483000D01*
X152311258Y-58483000D01*
X152286488Y-58478073D01*
X152137188Y-58448376D01*
X151973216Y-58380456D01*
X151825646Y-58281853D01*
X151700147Y-58156354D01*
X151601544Y-58008784D01*
X151533624Y-57844812D01*
X151499000Y-57670741D01*
X151499000Y-57493259D01*
X151533624Y-57319188D01*
X151601544Y-57155216D01*
X151700147Y-57007646D01*
X151825646Y-56882147D01*
X151973216Y-56783544D01*
X152137188Y-56715624D01*
X152286488Y-56685927D01*
X152311258Y-56681000D01*
X152488742Y-56681000D01*
X152513512Y-56685927D01*
G37*
G36*
X128468000Y-56074000D02*
G01*
X125766000Y-56074000D01*
X125766000Y-54172000D01*
X128468000Y-54172000D01*
X128468000Y-56074000D01*
G37*
G36*
X146268000Y-56074000D02*
G01*
X143566000Y-56074000D01*
X143566000Y-54172000D01*
X146268000Y-54172000D01*
X146268000Y-56074000D01*
G37*
G36*
X164468000Y-56074000D02*
G01*
X161766000Y-56074000D01*
X161766000Y-54172000D01*
X164468000Y-54172000D01*
X164468000Y-56074000D01*
G37*
G36*
X182268000Y-56074000D02*
G01*
X179566000Y-56074000D01*
X179566000Y-54172000D01*
X182268000Y-54172000D01*
X182268000Y-56074000D01*
G37*
G36*
X149973512Y-54145927D02*
G01*
X150122812Y-54175624D01*
X150286784Y-54243544D01*
X150434354Y-54342147D01*
X150559853Y-54467646D01*
X150658456Y-54615216D01*
X150726376Y-54779188D01*
X150761000Y-54953259D01*
X150761000Y-55130741D01*
X150726376Y-55304812D01*
X150658456Y-55468784D01*
X150559853Y-55616354D01*
X150434354Y-55741853D01*
X150286784Y-55840456D01*
X150122812Y-55908376D01*
X149973512Y-55938073D01*
X149948742Y-55943000D01*
X149771258Y-55943000D01*
X149746488Y-55938073D01*
X149597188Y-55908376D01*
X149433216Y-55840456D01*
X149285646Y-55741853D01*
X149160147Y-55616354D01*
X149061544Y-55468784D01*
X148993624Y-55304812D01*
X148959000Y-55130741D01*
X148959000Y-54953259D01*
X148993624Y-54779188D01*
X149061544Y-54615216D01*
X149160147Y-54467646D01*
X149285646Y-54342147D01*
X149433216Y-54243544D01*
X149597188Y-54175624D01*
X149746488Y-54145927D01*
X149771258Y-54141000D01*
X149948742Y-54141000D01*
X149973512Y-54145927D01*
G37*
G36*
X152513512Y-54145927D02*
G01*
X152662812Y-54175624D01*
X152826784Y-54243544D01*
X152974354Y-54342147D01*
X153099853Y-54467646D01*
X153198456Y-54615216D01*
X153266376Y-54779188D01*
X153301000Y-54953259D01*
X153301000Y-55130741D01*
X153266376Y-55304812D01*
X153198456Y-55468784D01*
X153099853Y-55616354D01*
X152974354Y-55741853D01*
X152826784Y-55840456D01*
X152662812Y-55908376D01*
X152513512Y-55938073D01*
X152488742Y-55943000D01*
X152311258Y-55943000D01*
X152286488Y-55938073D01*
X152137188Y-55908376D01*
X151973216Y-55840456D01*
X151825646Y-55741853D01*
X151700147Y-55616354D01*
X151601544Y-55468784D01*
X151533624Y-55304812D01*
X151499000Y-55130741D01*
X151499000Y-54953259D01*
X151533624Y-54779188D01*
X151601544Y-54615216D01*
X151700147Y-54467646D01*
X151825646Y-54342147D01*
X151973216Y-54243544D01*
X152137188Y-54175624D01*
X152286488Y-54145927D01*
X152311258Y-54141000D01*
X152488742Y-54141000D01*
X152513512Y-54145927D01*
G37*
G36*
X188513512Y-54145927D02*
G01*
X188662812Y-54175624D01*
X188826784Y-54243544D01*
X188974354Y-54342147D01*
X189099853Y-54467646D01*
X189198456Y-54615216D01*
X189266376Y-54779188D01*
X189301000Y-54953259D01*
X189301000Y-55130741D01*
X189266376Y-55304812D01*
X189198456Y-55468784D01*
X189099853Y-55616354D01*
X188974354Y-55741853D01*
X188826784Y-55840456D01*
X188662812Y-55908376D01*
X188513512Y-55938073D01*
X188488742Y-55943000D01*
X188311258Y-55943000D01*
X188286488Y-55938073D01*
X188137188Y-55908376D01*
X187973216Y-55840456D01*
X187825646Y-55741853D01*
X187700147Y-55616354D01*
X187601544Y-55468784D01*
X187533624Y-55304812D01*
X187499000Y-55130741D01*
X187499000Y-54953259D01*
X187533624Y-54779188D01*
X187601544Y-54615216D01*
X187700147Y-54467646D01*
X187825646Y-54342147D01*
X187973216Y-54243544D01*
X188137188Y-54175624D01*
X188286488Y-54145927D01*
X188311258Y-54141000D01*
X188488742Y-54141000D01*
X188513512Y-54145927D01*
G37*
G36*
X158033512Y-54145927D02*
G01*
X158182812Y-54175624D01*
X158346784Y-54243544D01*
X158494354Y-54342147D01*
X158619853Y-54467646D01*
X158718456Y-54615216D01*
X158786376Y-54779188D01*
X158821000Y-54953259D01*
X158821000Y-55130741D01*
X158786376Y-55304812D01*
X158718456Y-55468784D01*
X158619853Y-55616354D01*
X158494354Y-55741853D01*
X158346784Y-55840456D01*
X158182812Y-55908376D01*
X158033512Y-55938073D01*
X158008742Y-55943000D01*
X157831258Y-55943000D01*
X157806488Y-55938073D01*
X157657188Y-55908376D01*
X157493216Y-55840456D01*
X157345646Y-55741853D01*
X157220147Y-55616354D01*
X157121544Y-55468784D01*
X157053624Y-55304812D01*
X157019000Y-55130741D01*
X157019000Y-54953259D01*
X157053624Y-54779188D01*
X157121544Y-54615216D01*
X157220147Y-54467646D01*
X157345646Y-54342147D01*
X157493216Y-54243544D01*
X157657188Y-54175624D01*
X157806488Y-54145927D01*
X157831258Y-54141000D01*
X158008742Y-54141000D01*
X158033512Y-54145927D01*
G37*
G36*
X122033512Y-54145927D02*
G01*
X122182812Y-54175624D01*
X122346784Y-54243544D01*
X122494354Y-54342147D01*
X122619853Y-54467646D01*
X122718456Y-54615216D01*
X122786376Y-54779188D01*
X122821000Y-54953259D01*
X122821000Y-55130741D01*
X122786376Y-55304812D01*
X122718456Y-55468784D01*
X122619853Y-55616354D01*
X122494354Y-55741853D01*
X122346784Y-55840456D01*
X122182812Y-55908376D01*
X122033512Y-55938073D01*
X122008742Y-55943000D01*
X121831258Y-55943000D01*
X121806488Y-55938073D01*
X121657188Y-55908376D01*
X121493216Y-55840456D01*
X121345646Y-55741853D01*
X121220147Y-55616354D01*
X121121544Y-55468784D01*
X121053624Y-55304812D01*
X121019000Y-55130741D01*
X121019000Y-54953259D01*
X121053624Y-54779188D01*
X121121544Y-54615216D01*
X121220147Y-54467646D01*
X121345646Y-54342147D01*
X121493216Y-54243544D01*
X121657188Y-54175624D01*
X121806488Y-54145927D01*
X121831258Y-54141000D01*
X122008742Y-54141000D01*
X122033512Y-54145927D01*
G37*
G36*
X185973512Y-54145927D02*
G01*
X186122812Y-54175624D01*
X186286784Y-54243544D01*
X186434354Y-54342147D01*
X186559853Y-54467646D01*
X186658456Y-54615216D01*
X186726376Y-54779188D01*
X186761000Y-54953259D01*
X186761000Y-55130741D01*
X186726376Y-55304812D01*
X186658456Y-55468784D01*
X186559853Y-55616354D01*
X186434354Y-55741853D01*
X186286784Y-55840456D01*
X186122812Y-55908376D01*
X185973512Y-55938073D01*
X185948742Y-55943000D01*
X185771258Y-55943000D01*
X185746488Y-55938073D01*
X185597188Y-55908376D01*
X185433216Y-55840456D01*
X185285646Y-55741853D01*
X185160147Y-55616354D01*
X185061544Y-55468784D01*
X184993624Y-55304812D01*
X184959000Y-55130741D01*
X184959000Y-54953259D01*
X184993624Y-54779188D01*
X185061544Y-54615216D01*
X185160147Y-54467646D01*
X185285646Y-54342147D01*
X185433216Y-54243544D01*
X185597188Y-54175624D01*
X185746488Y-54145927D01*
X185771258Y-54141000D01*
X185948742Y-54141000D01*
X185973512Y-54145927D01*
G37*
G36*
X149973512Y-51605927D02*
G01*
X150122812Y-51635624D01*
X150286784Y-51703544D01*
X150434354Y-51802147D01*
X150559853Y-51927646D01*
X150658456Y-52075216D01*
X150726376Y-52239188D01*
X150761000Y-52413259D01*
X150761000Y-52590741D01*
X150726376Y-52764812D01*
X150658456Y-52928784D01*
X150559853Y-53076354D01*
X150434354Y-53201853D01*
X150286784Y-53300456D01*
X150122812Y-53368376D01*
X149973512Y-53398073D01*
X149948742Y-53403000D01*
X149771258Y-53403000D01*
X149746488Y-53398073D01*
X149597188Y-53368376D01*
X149433216Y-53300456D01*
X149285646Y-53201853D01*
X149160147Y-53076354D01*
X149061544Y-52928784D01*
X148993624Y-52764812D01*
X148959000Y-52590741D01*
X148959000Y-52413259D01*
X148993624Y-52239188D01*
X149061544Y-52075216D01*
X149160147Y-51927646D01*
X149285646Y-51802147D01*
X149433216Y-51703544D01*
X149597188Y-51635624D01*
X149746488Y-51605927D01*
X149771258Y-51601000D01*
X149948742Y-51601000D01*
X149973512Y-51605927D01*
G37*
G36*
X152513512Y-51605927D02*
G01*
X152662812Y-51635624D01*
X152826784Y-51703544D01*
X152974354Y-51802147D01*
X153099853Y-51927646D01*
X153198456Y-52075216D01*
X153266376Y-52239188D01*
X153301000Y-52413259D01*
X153301000Y-52590741D01*
X153266376Y-52764812D01*
X153198456Y-52928784D01*
X153099853Y-53076354D01*
X152974354Y-53201853D01*
X152826784Y-53300456D01*
X152662812Y-53368376D01*
X152513512Y-53398073D01*
X152488742Y-53403000D01*
X152311258Y-53403000D01*
X152286488Y-53398073D01*
X152137188Y-53368376D01*
X151973216Y-53300456D01*
X151825646Y-53201853D01*
X151700147Y-53076354D01*
X151601544Y-52928784D01*
X151533624Y-52764812D01*
X151499000Y-52590741D01*
X151499000Y-52413259D01*
X151533624Y-52239188D01*
X151601544Y-52075216D01*
X151700147Y-51927646D01*
X151825646Y-51802147D01*
X151973216Y-51703544D01*
X152137188Y-51635624D01*
X152286488Y-51605927D01*
X152311258Y-51601000D01*
X152488742Y-51601000D01*
X152513512Y-51605927D01*
G37*
G36*
X158033512Y-51605927D02*
G01*
X158182812Y-51635624D01*
X158346784Y-51703544D01*
X158494354Y-51802147D01*
X158619853Y-51927646D01*
X158718456Y-52075216D01*
X158786376Y-52239188D01*
X158821000Y-52413259D01*
X158821000Y-52590741D01*
X158786376Y-52764812D01*
X158718456Y-52928784D01*
X158619853Y-53076354D01*
X158494354Y-53201853D01*
X158346784Y-53300456D01*
X158182812Y-53368376D01*
X158033512Y-53398073D01*
X158008742Y-53403000D01*
X157831258Y-53403000D01*
X157806488Y-53398073D01*
X157657188Y-53368376D01*
X157493216Y-53300456D01*
X157345646Y-53201853D01*
X157220147Y-53076354D01*
X157121544Y-52928784D01*
X157053624Y-52764812D01*
X157019000Y-52590741D01*
X157019000Y-52413259D01*
X157053624Y-52239188D01*
X157121544Y-52075216D01*
X157220147Y-51927646D01*
X157345646Y-51802147D01*
X157493216Y-51703544D01*
X157657188Y-51635624D01*
X157806488Y-51605927D01*
X157831258Y-51601000D01*
X158008742Y-51601000D01*
X158033512Y-51605927D01*
G37*
G36*
X122033512Y-51605927D02*
G01*
X122182812Y-51635624D01*
X122346784Y-51703544D01*
X122494354Y-51802147D01*
X122619853Y-51927646D01*
X122718456Y-52075216D01*
X122786376Y-52239188D01*
X122821000Y-52413259D01*
X122821000Y-52590741D01*
X122786376Y-52764812D01*
X122718456Y-52928784D01*
X122619853Y-53076354D01*
X122494354Y-53201853D01*
X122346784Y-53300456D01*
X122182812Y-53368376D01*
X122033512Y-53398073D01*
X122008742Y-53403000D01*
X121831258Y-53403000D01*
X121806488Y-53398073D01*
X121657188Y-53368376D01*
X121493216Y-53300456D01*
X121345646Y-53201853D01*
X121220147Y-53076354D01*
X121121544Y-52928784D01*
X121053624Y-52764812D01*
X121019000Y-52590741D01*
X121019000Y-52413259D01*
X121053624Y-52239188D01*
X121121544Y-52075216D01*
X121220147Y-51927646D01*
X121345646Y-51802147D01*
X121493216Y-51703544D01*
X121657188Y-51635624D01*
X121806488Y-51605927D01*
X121831258Y-51601000D01*
X122008742Y-51601000D01*
X122033512Y-51605927D01*
G37*
G36*
X188513512Y-51605927D02*
G01*
X188662812Y-51635624D01*
X188826784Y-51703544D01*
X188974354Y-51802147D01*
X189099853Y-51927646D01*
X189198456Y-52075216D01*
X189266376Y-52239188D01*
X189301000Y-52413259D01*
X189301000Y-52590741D01*
X189266376Y-52764812D01*
X189198456Y-52928784D01*
X189099853Y-53076354D01*
X188974354Y-53201853D01*
X188826784Y-53300456D01*
X188662812Y-53368376D01*
X188513512Y-53398073D01*
X188488742Y-53403000D01*
X188311258Y-53403000D01*
X188286488Y-53398073D01*
X188137188Y-53368376D01*
X187973216Y-53300456D01*
X187825646Y-53201853D01*
X187700147Y-53076354D01*
X187601544Y-52928784D01*
X187533624Y-52764812D01*
X187499000Y-52590741D01*
X187499000Y-52413259D01*
X187533624Y-52239188D01*
X187601544Y-52075216D01*
X187700147Y-51927646D01*
X187825646Y-51802147D01*
X187973216Y-51703544D01*
X188137188Y-51635624D01*
X188286488Y-51605927D01*
X188311258Y-51601000D01*
X188488742Y-51601000D01*
X188513512Y-51605927D01*
G37*
G36*
X185973512Y-51605927D02*
G01*
X186122812Y-51635624D01*
X186286784Y-51703544D01*
X186434354Y-51802147D01*
X186559853Y-51927646D01*
X186658456Y-52075216D01*
X186726376Y-52239188D01*
X186761000Y-52413259D01*
X186761000Y-52590741D01*
X186726376Y-52764812D01*
X186658456Y-52928784D01*
X186559853Y-53076354D01*
X186434354Y-53201853D01*
X186286784Y-53300456D01*
X186122812Y-53368376D01*
X185973512Y-53398073D01*
X185948742Y-53403000D01*
X185771258Y-53403000D01*
X185746488Y-53398073D01*
X185597188Y-53368376D01*
X185433216Y-53300456D01*
X185285646Y-53201853D01*
X185160147Y-53076354D01*
X185061544Y-52928784D01*
X184993624Y-52764812D01*
X184959000Y-52590741D01*
X184959000Y-52413259D01*
X184993624Y-52239188D01*
X185061544Y-52075216D01*
X185160147Y-51927646D01*
X185285646Y-51802147D01*
X185433216Y-51703544D01*
X185597188Y-51635624D01*
X185746488Y-51605927D01*
X185771258Y-51601000D01*
X185948742Y-51601000D01*
X185973512Y-51605927D01*
G37*
G36*
X146268000Y-51624000D02*
G01*
X143566000Y-51624000D01*
X143566000Y-49722000D01*
X146268000Y-49722000D01*
X146268000Y-51624000D01*
G37*
G36*
X128468000Y-51624000D02*
G01*
X125766000Y-51624000D01*
X125766000Y-49722000D01*
X128468000Y-49722000D01*
X128468000Y-51624000D01*
G37*
G36*
X182268000Y-51624000D02*
G01*
X179566000Y-51624000D01*
X179566000Y-49722000D01*
X182268000Y-49722000D01*
X182268000Y-51624000D01*
G37*
G36*
X164468000Y-51624000D02*
G01*
X161766000Y-51624000D01*
X161766000Y-49722000D01*
X164468000Y-49722000D01*
X164468000Y-51624000D01*
G37*
G36*
X188513512Y-49065927D02*
G01*
X188662812Y-49095624D01*
X188826784Y-49163544D01*
X188974354Y-49262147D01*
X189099853Y-49387646D01*
X189198456Y-49535216D01*
X189266376Y-49699188D01*
X189301000Y-49873259D01*
X189301000Y-50050741D01*
X189266376Y-50224812D01*
X189198456Y-50388784D01*
X189099853Y-50536354D01*
X188974354Y-50661853D01*
X188826784Y-50760456D01*
X188662812Y-50828376D01*
X188513512Y-50858073D01*
X188488742Y-50863000D01*
X188311258Y-50863000D01*
X188286488Y-50858073D01*
X188137188Y-50828376D01*
X187973216Y-50760456D01*
X187825646Y-50661853D01*
X187700147Y-50536354D01*
X187601544Y-50388784D01*
X187533624Y-50224812D01*
X187499000Y-50050741D01*
X187499000Y-49873259D01*
X187533624Y-49699188D01*
X187601544Y-49535216D01*
X187700147Y-49387646D01*
X187825646Y-49262147D01*
X187973216Y-49163544D01*
X188137188Y-49095624D01*
X188286488Y-49065927D01*
X188311258Y-49061000D01*
X188488742Y-49061000D01*
X188513512Y-49065927D01*
G37*
G36*
X149973512Y-49065927D02*
G01*
X150122812Y-49095624D01*
X150286784Y-49163544D01*
X150434354Y-49262147D01*
X150559853Y-49387646D01*
X150658456Y-49535216D01*
X150726376Y-49699188D01*
X150761000Y-49873259D01*
X150761000Y-50050741D01*
X150726376Y-50224812D01*
X150658456Y-50388784D01*
X150559853Y-50536354D01*
X150434354Y-50661853D01*
X150286784Y-50760456D01*
X150122812Y-50828376D01*
X149973512Y-50858073D01*
X149948742Y-50863000D01*
X149771258Y-50863000D01*
X149746488Y-50858073D01*
X149597188Y-50828376D01*
X149433216Y-50760456D01*
X149285646Y-50661853D01*
X149160147Y-50536354D01*
X149061544Y-50388784D01*
X148993624Y-50224812D01*
X148959000Y-50050741D01*
X148959000Y-49873259D01*
X148993624Y-49699188D01*
X149061544Y-49535216D01*
X149160147Y-49387646D01*
X149285646Y-49262147D01*
X149433216Y-49163544D01*
X149597188Y-49095624D01*
X149746488Y-49065927D01*
X149771258Y-49061000D01*
X149948742Y-49061000D01*
X149973512Y-49065927D01*
G37*
G36*
X152513512Y-49065927D02*
G01*
X152662812Y-49095624D01*
X152826784Y-49163544D01*
X152974354Y-49262147D01*
X153099853Y-49387646D01*
X153198456Y-49535216D01*
X153266376Y-49699188D01*
X153301000Y-49873259D01*
X153301000Y-50050741D01*
X153266376Y-50224812D01*
X153198456Y-50388784D01*
X153099853Y-50536354D01*
X152974354Y-50661853D01*
X152826784Y-50760456D01*
X152662812Y-50828376D01*
X152513512Y-50858073D01*
X152488742Y-50863000D01*
X152311258Y-50863000D01*
X152286488Y-50858073D01*
X152137188Y-50828376D01*
X151973216Y-50760456D01*
X151825646Y-50661853D01*
X151700147Y-50536354D01*
X151601544Y-50388784D01*
X151533624Y-50224812D01*
X151499000Y-50050741D01*
X151499000Y-49873259D01*
X151533624Y-49699188D01*
X151601544Y-49535216D01*
X151700147Y-49387646D01*
X151825646Y-49262147D01*
X151973216Y-49163544D01*
X152137188Y-49095624D01*
X152286488Y-49065927D01*
X152311258Y-49061000D01*
X152488742Y-49061000D01*
X152513512Y-49065927D01*
G37*
G36*
X185973512Y-49065927D02*
G01*
X186122812Y-49095624D01*
X186286784Y-49163544D01*
X186434354Y-49262147D01*
X186559853Y-49387646D01*
X186658456Y-49535216D01*
X186726376Y-49699188D01*
X186761000Y-49873259D01*
X186761000Y-50050741D01*
X186726376Y-50224812D01*
X186658456Y-50388784D01*
X186559853Y-50536354D01*
X186434354Y-50661853D01*
X186286784Y-50760456D01*
X186122812Y-50828376D01*
X185973512Y-50858073D01*
X185948742Y-50863000D01*
X185771258Y-50863000D01*
X185746488Y-50858073D01*
X185597188Y-50828376D01*
X185433216Y-50760456D01*
X185285646Y-50661853D01*
X185160147Y-50536354D01*
X185061544Y-50388784D01*
X184993624Y-50224812D01*
X184959000Y-50050741D01*
X184959000Y-49873259D01*
X184993624Y-49699188D01*
X185061544Y-49535216D01*
X185160147Y-49387646D01*
X185285646Y-49262147D01*
X185433216Y-49163544D01*
X185597188Y-49095624D01*
X185746488Y-49065927D01*
X185771258Y-49061000D01*
X185948742Y-49061000D01*
X185973512Y-49065927D01*
G37*
G36*
X122033512Y-49065927D02*
G01*
X122182812Y-49095624D01*
X122346784Y-49163544D01*
X122494354Y-49262147D01*
X122619853Y-49387646D01*
X122718456Y-49535216D01*
X122786376Y-49699188D01*
X122821000Y-49873259D01*
X122821000Y-50050741D01*
X122786376Y-50224812D01*
X122718456Y-50388784D01*
X122619853Y-50536354D01*
X122494354Y-50661853D01*
X122346784Y-50760456D01*
X122182812Y-50828376D01*
X122033512Y-50858073D01*
X122008742Y-50863000D01*
X121831258Y-50863000D01*
X121806488Y-50858073D01*
X121657188Y-50828376D01*
X121493216Y-50760456D01*
X121345646Y-50661853D01*
X121220147Y-50536354D01*
X121121544Y-50388784D01*
X121053624Y-50224812D01*
X121019000Y-50050741D01*
X121019000Y-49873259D01*
X121053624Y-49699188D01*
X121121544Y-49535216D01*
X121220147Y-49387646D01*
X121345646Y-49262147D01*
X121493216Y-49163544D01*
X121657188Y-49095624D01*
X121806488Y-49065927D01*
X121831258Y-49061000D01*
X122008742Y-49061000D01*
X122033512Y-49065927D01*
G37*
G36*
X158033512Y-49065927D02*
G01*
X158182812Y-49095624D01*
X158346784Y-49163544D01*
X158494354Y-49262147D01*
X158619853Y-49387646D01*
X158718456Y-49535216D01*
X158786376Y-49699188D01*
X158821000Y-49873259D01*
X158821000Y-50050741D01*
X158786376Y-50224812D01*
X158718456Y-50388784D01*
X158619853Y-50536354D01*
X158494354Y-50661853D01*
X158346784Y-50760456D01*
X158182812Y-50828376D01*
X158033512Y-50858073D01*
X158008742Y-50863000D01*
X157831258Y-50863000D01*
X157806488Y-50858073D01*
X157657188Y-50828376D01*
X157493216Y-50760456D01*
X157345646Y-50661853D01*
X157220147Y-50536354D01*
X157121544Y-50388784D01*
X157053624Y-50224812D01*
X157019000Y-50050741D01*
X157019000Y-49873259D01*
X157053624Y-49699188D01*
X157121544Y-49535216D01*
X157220147Y-49387646D01*
X157345646Y-49262147D01*
X157493216Y-49163544D01*
X157657188Y-49095624D01*
X157806488Y-49065927D01*
X157831258Y-49061000D01*
X158008742Y-49061000D01*
X158033512Y-49065927D01*
G37*
G36*
X152513512Y-46525927D02*
G01*
X152662812Y-46555624D01*
X152826784Y-46623544D01*
X152974354Y-46722147D01*
X153099853Y-46847646D01*
X153198456Y-46995216D01*
X153266376Y-47159188D01*
X153301000Y-47333259D01*
X153301000Y-47510741D01*
X153266376Y-47684812D01*
X153198456Y-47848784D01*
X153099853Y-47996354D01*
X152974354Y-48121853D01*
X152826784Y-48220456D01*
X152662812Y-48288376D01*
X152513512Y-48318073D01*
X152488742Y-48323000D01*
X152311258Y-48323000D01*
X152286488Y-48318073D01*
X152137188Y-48288376D01*
X151973216Y-48220456D01*
X151825646Y-48121853D01*
X151700147Y-47996354D01*
X151601544Y-47848784D01*
X151533624Y-47684812D01*
X151499000Y-47510741D01*
X151499000Y-47333259D01*
X151533624Y-47159188D01*
X151601544Y-46995216D01*
X151700147Y-46847646D01*
X151825646Y-46722147D01*
X151973216Y-46623544D01*
X152137188Y-46555624D01*
X152286488Y-46525927D01*
X152311258Y-46521000D01*
X152488742Y-46521000D01*
X152513512Y-46525927D01*
G37*
G36*
X149973512Y-46525927D02*
G01*
X150122812Y-46555624D01*
X150286784Y-46623544D01*
X150434354Y-46722147D01*
X150559853Y-46847646D01*
X150658456Y-46995216D01*
X150726376Y-47159188D01*
X150761000Y-47333259D01*
X150761000Y-47510741D01*
X150726376Y-47684812D01*
X150658456Y-47848784D01*
X150559853Y-47996354D01*
X150434354Y-48121853D01*
X150286784Y-48220456D01*
X150122812Y-48288376D01*
X149973512Y-48318073D01*
X149948742Y-48323000D01*
X149771258Y-48323000D01*
X149746488Y-48318073D01*
X149597188Y-48288376D01*
X149433216Y-48220456D01*
X149285646Y-48121853D01*
X149160147Y-47996354D01*
X149061544Y-47848784D01*
X148993624Y-47684812D01*
X148959000Y-47510741D01*
X148959000Y-47333259D01*
X148993624Y-47159188D01*
X149061544Y-46995216D01*
X149160147Y-46847646D01*
X149285646Y-46722147D01*
X149433216Y-46623544D01*
X149597188Y-46555624D01*
X149746488Y-46525927D01*
X149771258Y-46521000D01*
X149948742Y-46521000D01*
X149973512Y-46525927D01*
G37*
G36*
X158033512Y-46525927D02*
G01*
X158182812Y-46555624D01*
X158346784Y-46623544D01*
X158494354Y-46722147D01*
X158619853Y-46847646D01*
X158718456Y-46995216D01*
X158786376Y-47159188D01*
X158821000Y-47333259D01*
X158821000Y-47510741D01*
X158786376Y-47684812D01*
X158718456Y-47848784D01*
X158619853Y-47996354D01*
X158494354Y-48121853D01*
X158346784Y-48220456D01*
X158182812Y-48288376D01*
X158033512Y-48318073D01*
X158008742Y-48323000D01*
X157831258Y-48323000D01*
X157806488Y-48318073D01*
X157657188Y-48288376D01*
X157493216Y-48220456D01*
X157345646Y-48121853D01*
X157220147Y-47996354D01*
X157121544Y-47848784D01*
X157053624Y-47684812D01*
X157019000Y-47510741D01*
X157019000Y-47333259D01*
X157053624Y-47159188D01*
X157121544Y-46995216D01*
X157220147Y-46847646D01*
X157345646Y-46722147D01*
X157493216Y-46623544D01*
X157657188Y-46555624D01*
X157806488Y-46525927D01*
X157831258Y-46521000D01*
X158008742Y-46521000D01*
X158033512Y-46525927D01*
G37*
G36*
X122033512Y-46525927D02*
G01*
X122182812Y-46555624D01*
X122346784Y-46623544D01*
X122494354Y-46722147D01*
X122619853Y-46847646D01*
X122718456Y-46995216D01*
X122786376Y-47159188D01*
X122821000Y-47333259D01*
X122821000Y-47510741D01*
X122786376Y-47684812D01*
X122718456Y-47848784D01*
X122619853Y-47996354D01*
X122494354Y-48121853D01*
X122346784Y-48220456D01*
X122182812Y-48288376D01*
X122033512Y-48318073D01*
X122008742Y-48323000D01*
X121831258Y-48323000D01*
X121806488Y-48318073D01*
X121657188Y-48288376D01*
X121493216Y-48220456D01*
X121345646Y-48121853D01*
X121220147Y-47996354D01*
X121121544Y-47848784D01*
X121053624Y-47684812D01*
X121019000Y-47510741D01*
X121019000Y-47333259D01*
X121053624Y-47159188D01*
X121121544Y-46995216D01*
X121220147Y-46847646D01*
X121345646Y-46722147D01*
X121493216Y-46623544D01*
X121657188Y-46555624D01*
X121806488Y-46525927D01*
X121831258Y-46521000D01*
X122008742Y-46521000D01*
X122033512Y-46525927D01*
G37*
G36*
X185973512Y-46525927D02*
G01*
X186122812Y-46555624D01*
X186286784Y-46623544D01*
X186434354Y-46722147D01*
X186559853Y-46847646D01*
X186658456Y-46995216D01*
X186726376Y-47159188D01*
X186761000Y-47333259D01*
X186761000Y-47510741D01*
X186726376Y-47684812D01*
X186658456Y-47848784D01*
X186559853Y-47996354D01*
X186434354Y-48121853D01*
X186286784Y-48220456D01*
X186122812Y-48288376D01*
X185973512Y-48318073D01*
X185948742Y-48323000D01*
X185771258Y-48323000D01*
X185746488Y-48318073D01*
X185597188Y-48288376D01*
X185433216Y-48220456D01*
X185285646Y-48121853D01*
X185160147Y-47996354D01*
X185061544Y-47848784D01*
X184993624Y-47684812D01*
X184959000Y-47510741D01*
X184959000Y-47333259D01*
X184993624Y-47159188D01*
X185061544Y-46995216D01*
X185160147Y-46847646D01*
X185285646Y-46722147D01*
X185433216Y-46623544D01*
X185597188Y-46555624D01*
X185746488Y-46525927D01*
X185771258Y-46521000D01*
X185948742Y-46521000D01*
X185973512Y-46525927D01*
G37*
G36*
X188513512Y-46525927D02*
G01*
X188662812Y-46555624D01*
X188826784Y-46623544D01*
X188974354Y-46722147D01*
X189099853Y-46847646D01*
X189198456Y-46995216D01*
X189266376Y-47159188D01*
X189301000Y-47333259D01*
X189301000Y-47510741D01*
X189266376Y-47684812D01*
X189198456Y-47848784D01*
X189099853Y-47996354D01*
X188974354Y-48121853D01*
X188826784Y-48220456D01*
X188662812Y-48288376D01*
X188513512Y-48318073D01*
X188488742Y-48323000D01*
X188311258Y-48323000D01*
X188286488Y-48318073D01*
X188137188Y-48288376D01*
X187973216Y-48220456D01*
X187825646Y-48121853D01*
X187700147Y-47996354D01*
X187601544Y-47848784D01*
X187533624Y-47684812D01*
X187499000Y-47510741D01*
X187499000Y-47333259D01*
X187533624Y-47159188D01*
X187601544Y-46995216D01*
X187700147Y-46847646D01*
X187825646Y-46722147D01*
X187973216Y-46623544D01*
X188137188Y-46555624D01*
X188286488Y-46525927D01*
X188311258Y-46521000D01*
X188488742Y-46521000D01*
X188513512Y-46525927D01*
G37*
G36*
X182268000Y-47174000D02*
G01*
X179566000Y-47174000D01*
X179566000Y-45272000D01*
X182268000Y-45272000D01*
X182268000Y-47174000D01*
G37*
G36*
X146268000Y-47174000D02*
G01*
X143566000Y-47174000D01*
X143566000Y-45272000D01*
X146268000Y-45272000D01*
X146268000Y-47174000D01*
G37*
G36*
X128468000Y-46874000D02*
G01*
X125766000Y-46874000D01*
X125766000Y-44972000D01*
X128468000Y-44972000D01*
X128468000Y-46874000D01*
G37*
G36*
X164468000Y-46874000D02*
G01*
X161766000Y-46874000D01*
X161766000Y-44972000D01*
X164468000Y-44972000D01*
X164468000Y-46874000D01*
G37*
G36*
X188513512Y-43985927D02*
G01*
X188662812Y-44015624D01*
X188826784Y-44083544D01*
X188974354Y-44182147D01*
X189099853Y-44307646D01*
X189198456Y-44455216D01*
X189266376Y-44619188D01*
X189301000Y-44793259D01*
X189301000Y-44970741D01*
X189266376Y-45144812D01*
X189198456Y-45308784D01*
X189099853Y-45456354D01*
X188974354Y-45581853D01*
X188826784Y-45680456D01*
X188662812Y-45748376D01*
X188513512Y-45778073D01*
X188488742Y-45783000D01*
X188311258Y-45783000D01*
X188286488Y-45778073D01*
X188137188Y-45748376D01*
X187973216Y-45680456D01*
X187825646Y-45581853D01*
X187700147Y-45456354D01*
X187601544Y-45308784D01*
X187533624Y-45144812D01*
X187499000Y-44970741D01*
X187499000Y-44793259D01*
X187533624Y-44619188D01*
X187601544Y-44455216D01*
X187700147Y-44307646D01*
X187825646Y-44182147D01*
X187973216Y-44083544D01*
X188137188Y-44015624D01*
X188286488Y-43985927D01*
X188311258Y-43981000D01*
X188488742Y-43981000D01*
X188513512Y-43985927D01*
G37*
G36*
X122821000Y-45783000D02*
G01*
X121019000Y-45783000D01*
X121019000Y-43981000D01*
X122821000Y-43981000D01*
X122821000Y-45783000D01*
G37*
G36*
X186761000Y-45783000D02*
G01*
X184959000Y-45783000D01*
X184959000Y-43981000D01*
X186761000Y-43981000D01*
X186761000Y-45783000D01*
G37*
G36*
X158821000Y-45783000D02*
G01*
X157019000Y-45783000D01*
X157019000Y-43981000D01*
X158821000Y-43981000D01*
X158821000Y-45783000D01*
G37*
G36*
X150761000Y-45783000D02*
G01*
X148959000Y-45783000D01*
X148959000Y-43981000D01*
X150761000Y-43981000D01*
X150761000Y-45783000D01*
G37*
G36*
X152513512Y-43985927D02*
G01*
X152662812Y-44015624D01*
X152826784Y-44083544D01*
X152974354Y-44182147D01*
X153099853Y-44307646D01*
X153198456Y-44455216D01*
X153266376Y-44619188D01*
X153301000Y-44793259D01*
X153301000Y-44970741D01*
X153266376Y-45144812D01*
X153198456Y-45308784D01*
X153099853Y-45456354D01*
X152974354Y-45581853D01*
X152826784Y-45680456D01*
X152662812Y-45748376D01*
X152513512Y-45778073D01*
X152488742Y-45783000D01*
X152311258Y-45783000D01*
X152286488Y-45778073D01*
X152137188Y-45748376D01*
X151973216Y-45680456D01*
X151825646Y-45581853D01*
X151700147Y-45456354D01*
X151601544Y-45308784D01*
X151533624Y-45144812D01*
X151499000Y-44970741D01*
X151499000Y-44793259D01*
X151533624Y-44619188D01*
X151601544Y-44455216D01*
X151700147Y-44307646D01*
X151825646Y-44182147D01*
X151973216Y-44083544D01*
X152137188Y-44015624D01*
X152286488Y-43985927D01*
X152311258Y-43981000D01*
X152488742Y-43981000D01*
X152513512Y-43985927D01*
G37*
G36*
X128468000Y-42724000D02*
G01*
X125766000Y-42724000D01*
X125766000Y-40822000D01*
X128468000Y-40822000D01*
X128468000Y-42724000D01*
G37*
G36*
X164468000Y-42724000D02*
G01*
X161766000Y-42724000D01*
X161766000Y-40822000D01*
X164468000Y-40822000D01*
X164468000Y-42724000D01*
G37*
G36*
X182268000Y-42724000D02*
G01*
X179566000Y-42724000D01*
X179566000Y-40822000D01*
X182268000Y-40822000D01*
X182268000Y-42724000D01*
G37*
G36*
X146268000Y-42724000D02*
G01*
X143566000Y-42724000D01*
X143566000Y-40822000D01*
X146268000Y-40822000D01*
X146268000Y-42724000D01*
G37*
G36*
X182268000Y-38274000D02*
G01*
X179566000Y-38274000D01*
X179566000Y-36372000D01*
X182268000Y-36372000D01*
X182268000Y-38274000D01*
G37*
G36*
X164468000Y-38274000D02*
G01*
X161766000Y-38274000D01*
X161766000Y-36372000D01*
X164468000Y-36372000D01*
X164468000Y-38274000D01*
G37*
G36*
X146268000Y-38274000D02*
G01*
X143566000Y-38274000D01*
X143566000Y-36372000D01*
X146268000Y-36372000D01*
X146268000Y-38274000D01*
G37*
G36*
X128468000Y-38274000D02*
G01*
X125766000Y-38274000D01*
X125766000Y-36372000D01*
X128468000Y-36372000D01*
X128468000Y-38274000D01*
G37*
M02*
