G04 #@! TF.GenerationSoftware,KiCad,Pcbnew,5.1.5+dfsg1-2build2*
G04 #@! TF.CreationDate,2021-10-04T21:44:55-05:00*
G04 #@! TF.ProjectId,,58585858-5858-4585-9858-585858585858,rev?*
G04 #@! TF.SameCoordinates,Original*
G04 #@! TF.FileFunction,Legend,Bot*
G04 #@! TF.FilePolarity,Positive*
%FSLAX46Y46*%
G04 Gerber Fmt 4.6, Leading zero omitted, Abs format (unit mm)*
G04 Created by KiCad (PCBNEW 5.1.5+dfsg1-2build2) date 2021-10-04 21:44:55*
%MOMM*%
%LPD*%
G04 APERTURE LIST*
%ADD10C,0.150000*%
G04 APERTURE END LIST*
D10*
X184065857Y-83907761D02*
X183923000Y-83955380D01*
X183684904Y-83955380D01*
X183589666Y-83907761D01*
X183542047Y-83860142D01*
X183494428Y-83764904D01*
X183494428Y-83669666D01*
X183542047Y-83574428D01*
X183589666Y-83526809D01*
X183684904Y-83479190D01*
X183875380Y-83431571D01*
X183970619Y-83383952D01*
X184018238Y-83336333D01*
X184065857Y-83241095D01*
X184065857Y-83145857D01*
X184018238Y-83050619D01*
X183970619Y-83003000D01*
X183875380Y-82955380D01*
X183637285Y-82955380D01*
X183494428Y-83003000D01*
X183113476Y-83669666D02*
X182637285Y-83669666D01*
X183208714Y-83955380D02*
X182875380Y-82955380D01*
X182542047Y-83955380D01*
X182065857Y-83383952D02*
X182161095Y-83336333D01*
X182208714Y-83288714D01*
X182256333Y-83193476D01*
X182256333Y-83145857D01*
X182208714Y-83050619D01*
X182161095Y-83003000D01*
X182065857Y-82955380D01*
X181875380Y-82955380D01*
X181780142Y-83003000D01*
X181732523Y-83050619D01*
X181684904Y-83145857D01*
X181684904Y-83193476D01*
X181732523Y-83288714D01*
X181780142Y-83336333D01*
X181875380Y-83383952D01*
X182065857Y-83383952D01*
X182161095Y-83431571D01*
X182208714Y-83479190D01*
X182256333Y-83574428D01*
X182256333Y-83764904D01*
X182208714Y-83860142D01*
X182161095Y-83907761D01*
X182065857Y-83955380D01*
X181875380Y-83955380D01*
X181780142Y-83907761D01*
X181732523Y-83860142D01*
X181684904Y-83764904D01*
X181684904Y-83574428D01*
X181732523Y-83479190D01*
X181780142Y-83431571D01*
X181875380Y-83383952D01*
X180732523Y-83955380D02*
X181303952Y-83955380D01*
X181018238Y-83955380D02*
X181018238Y-82955380D01*
X181113476Y-83098238D01*
X181208714Y-83193476D01*
X181303952Y-83241095D01*
X180161095Y-83383952D02*
X180256333Y-83336333D01*
X180303952Y-83288714D01*
X180351571Y-83193476D01*
X180351571Y-83145857D01*
X180303952Y-83050619D01*
X180256333Y-83003000D01*
X180161095Y-82955380D01*
X179970619Y-82955380D01*
X179875380Y-83003000D01*
X179827761Y-83050619D01*
X179780142Y-83145857D01*
X179780142Y-83193476D01*
X179827761Y-83288714D01*
X179875380Y-83336333D01*
X179970619Y-83383952D01*
X180161095Y-83383952D01*
X180256333Y-83431571D01*
X180303952Y-83479190D01*
X180351571Y-83574428D01*
X180351571Y-83764904D01*
X180303952Y-83860142D01*
X180256333Y-83907761D01*
X180161095Y-83955380D01*
X179970619Y-83955380D01*
X179875380Y-83907761D01*
X179827761Y-83860142D01*
X179780142Y-83764904D01*
X179780142Y-83574428D01*
X179827761Y-83479190D01*
X179875380Y-83431571D01*
X179970619Y-83383952D01*
X182827761Y-85605380D02*
X182827761Y-84605380D01*
X182589666Y-84605380D01*
X182446809Y-84653000D01*
X182351571Y-84748238D01*
X182303952Y-84843476D01*
X182256333Y-85033952D01*
X182256333Y-85176809D01*
X182303952Y-85367285D01*
X182351571Y-85462523D01*
X182446809Y-85557761D01*
X182589666Y-85605380D01*
X182827761Y-85605380D01*
X181827761Y-85605380D02*
X181827761Y-84605380D01*
X180875380Y-85605380D02*
X181351571Y-85605380D01*
X181351571Y-84605380D01*
X148065857Y-83907761D02*
X147923000Y-83955380D01*
X147684904Y-83955380D01*
X147589666Y-83907761D01*
X147542047Y-83860142D01*
X147494428Y-83764904D01*
X147494428Y-83669666D01*
X147542047Y-83574428D01*
X147589666Y-83526809D01*
X147684904Y-83479190D01*
X147875380Y-83431571D01*
X147970619Y-83383952D01*
X148018238Y-83336333D01*
X148065857Y-83241095D01*
X148065857Y-83145857D01*
X148018238Y-83050619D01*
X147970619Y-83003000D01*
X147875380Y-82955380D01*
X147637285Y-82955380D01*
X147494428Y-83003000D01*
X147113476Y-83669666D02*
X146637285Y-83669666D01*
X147208714Y-83955380D02*
X146875380Y-82955380D01*
X146542047Y-83955380D01*
X146065857Y-83383952D02*
X146161095Y-83336333D01*
X146208714Y-83288714D01*
X146256333Y-83193476D01*
X146256333Y-83145857D01*
X146208714Y-83050619D01*
X146161095Y-83003000D01*
X146065857Y-82955380D01*
X145875380Y-82955380D01*
X145780142Y-83003000D01*
X145732523Y-83050619D01*
X145684904Y-83145857D01*
X145684904Y-83193476D01*
X145732523Y-83288714D01*
X145780142Y-83336333D01*
X145875380Y-83383952D01*
X146065857Y-83383952D01*
X146161095Y-83431571D01*
X146208714Y-83479190D01*
X146256333Y-83574428D01*
X146256333Y-83764904D01*
X146208714Y-83860142D01*
X146161095Y-83907761D01*
X146065857Y-83955380D01*
X145875380Y-83955380D01*
X145780142Y-83907761D01*
X145732523Y-83860142D01*
X145684904Y-83764904D01*
X145684904Y-83574428D01*
X145732523Y-83479190D01*
X145780142Y-83431571D01*
X145875380Y-83383952D01*
X144732523Y-83955380D02*
X145303952Y-83955380D01*
X145018238Y-83955380D02*
X145018238Y-82955380D01*
X145113476Y-83098238D01*
X145208714Y-83193476D01*
X145303952Y-83241095D01*
X144161095Y-83383952D02*
X144256333Y-83336333D01*
X144303952Y-83288714D01*
X144351571Y-83193476D01*
X144351571Y-83145857D01*
X144303952Y-83050619D01*
X144256333Y-83003000D01*
X144161095Y-82955380D01*
X143970619Y-82955380D01*
X143875380Y-83003000D01*
X143827761Y-83050619D01*
X143780142Y-83145857D01*
X143780142Y-83193476D01*
X143827761Y-83288714D01*
X143875380Y-83336333D01*
X143970619Y-83383952D01*
X144161095Y-83383952D01*
X144256333Y-83431571D01*
X144303952Y-83479190D01*
X144351571Y-83574428D01*
X144351571Y-83764904D01*
X144303952Y-83860142D01*
X144256333Y-83907761D01*
X144161095Y-83955380D01*
X143970619Y-83955380D01*
X143875380Y-83907761D01*
X143827761Y-83860142D01*
X143780142Y-83764904D01*
X143780142Y-83574428D01*
X143827761Y-83479190D01*
X143875380Y-83431571D01*
X143970619Y-83383952D01*
X146827761Y-85605380D02*
X146827761Y-84605380D01*
X146589666Y-84605380D01*
X146446809Y-84653000D01*
X146351571Y-84748238D01*
X146303952Y-84843476D01*
X146256333Y-85033952D01*
X146256333Y-85176809D01*
X146303952Y-85367285D01*
X146351571Y-85462523D01*
X146446809Y-85557761D01*
X146589666Y-85605380D01*
X146827761Y-85605380D01*
X145827761Y-85605380D02*
X145827761Y-84605380D01*
X144875380Y-85605380D02*
X145351571Y-85605380D01*
X145351571Y-84605380D01*
X184065857Y-35647761D02*
X183923000Y-35695380D01*
X183684904Y-35695380D01*
X183589666Y-35647761D01*
X183542047Y-35600142D01*
X183494428Y-35504904D01*
X183494428Y-35409666D01*
X183542047Y-35314428D01*
X183589666Y-35266809D01*
X183684904Y-35219190D01*
X183875380Y-35171571D01*
X183970619Y-35123952D01*
X184018238Y-35076333D01*
X184065857Y-34981095D01*
X184065857Y-34885857D01*
X184018238Y-34790619D01*
X183970619Y-34743000D01*
X183875380Y-34695380D01*
X183637285Y-34695380D01*
X183494428Y-34743000D01*
X183113476Y-35409666D02*
X182637285Y-35409666D01*
X183208714Y-35695380D02*
X182875380Y-34695380D01*
X182542047Y-35695380D01*
X182065857Y-35123952D02*
X182161095Y-35076333D01*
X182208714Y-35028714D01*
X182256333Y-34933476D01*
X182256333Y-34885857D01*
X182208714Y-34790619D01*
X182161095Y-34743000D01*
X182065857Y-34695380D01*
X181875380Y-34695380D01*
X181780142Y-34743000D01*
X181732523Y-34790619D01*
X181684904Y-34885857D01*
X181684904Y-34933476D01*
X181732523Y-35028714D01*
X181780142Y-35076333D01*
X181875380Y-35123952D01*
X182065857Y-35123952D01*
X182161095Y-35171571D01*
X182208714Y-35219190D01*
X182256333Y-35314428D01*
X182256333Y-35504904D01*
X182208714Y-35600142D01*
X182161095Y-35647761D01*
X182065857Y-35695380D01*
X181875380Y-35695380D01*
X181780142Y-35647761D01*
X181732523Y-35600142D01*
X181684904Y-35504904D01*
X181684904Y-35314428D01*
X181732523Y-35219190D01*
X181780142Y-35171571D01*
X181875380Y-35123952D01*
X180732523Y-35695380D02*
X181303952Y-35695380D01*
X181018238Y-35695380D02*
X181018238Y-34695380D01*
X181113476Y-34838238D01*
X181208714Y-34933476D01*
X181303952Y-34981095D01*
X180161095Y-35123952D02*
X180256333Y-35076333D01*
X180303952Y-35028714D01*
X180351571Y-34933476D01*
X180351571Y-34885857D01*
X180303952Y-34790619D01*
X180256333Y-34743000D01*
X180161095Y-34695380D01*
X179970619Y-34695380D01*
X179875380Y-34743000D01*
X179827761Y-34790619D01*
X179780142Y-34885857D01*
X179780142Y-34933476D01*
X179827761Y-35028714D01*
X179875380Y-35076333D01*
X179970619Y-35123952D01*
X180161095Y-35123952D01*
X180256333Y-35171571D01*
X180303952Y-35219190D01*
X180351571Y-35314428D01*
X180351571Y-35504904D01*
X180303952Y-35600142D01*
X180256333Y-35647761D01*
X180161095Y-35695380D01*
X179970619Y-35695380D01*
X179875380Y-35647761D01*
X179827761Y-35600142D01*
X179780142Y-35504904D01*
X179780142Y-35314428D01*
X179827761Y-35219190D01*
X179875380Y-35171571D01*
X179970619Y-35123952D01*
X182827761Y-37345380D02*
X182827761Y-36345380D01*
X182589666Y-36345380D01*
X182446809Y-36393000D01*
X182351571Y-36488238D01*
X182303952Y-36583476D01*
X182256333Y-36773952D01*
X182256333Y-36916809D01*
X182303952Y-37107285D01*
X182351571Y-37202523D01*
X182446809Y-37297761D01*
X182589666Y-37345380D01*
X182827761Y-37345380D01*
X181827761Y-37345380D02*
X181827761Y-36345380D01*
X180875380Y-37345380D02*
X181351571Y-37345380D01*
X181351571Y-36345380D01*
X148065857Y-35647761D02*
X147923000Y-35695380D01*
X147684904Y-35695380D01*
X147589666Y-35647761D01*
X147542047Y-35600142D01*
X147494428Y-35504904D01*
X147494428Y-35409666D01*
X147542047Y-35314428D01*
X147589666Y-35266809D01*
X147684904Y-35219190D01*
X147875380Y-35171571D01*
X147970619Y-35123952D01*
X148018238Y-35076333D01*
X148065857Y-34981095D01*
X148065857Y-34885857D01*
X148018238Y-34790619D01*
X147970619Y-34743000D01*
X147875380Y-34695380D01*
X147637285Y-34695380D01*
X147494428Y-34743000D01*
X147113476Y-35409666D02*
X146637285Y-35409666D01*
X147208714Y-35695380D02*
X146875380Y-34695380D01*
X146542047Y-35695380D01*
X146065857Y-35123952D02*
X146161095Y-35076333D01*
X146208714Y-35028714D01*
X146256333Y-34933476D01*
X146256333Y-34885857D01*
X146208714Y-34790619D01*
X146161095Y-34743000D01*
X146065857Y-34695380D01*
X145875380Y-34695380D01*
X145780142Y-34743000D01*
X145732523Y-34790619D01*
X145684904Y-34885857D01*
X145684904Y-34933476D01*
X145732523Y-35028714D01*
X145780142Y-35076333D01*
X145875380Y-35123952D01*
X146065857Y-35123952D01*
X146161095Y-35171571D01*
X146208714Y-35219190D01*
X146256333Y-35314428D01*
X146256333Y-35504904D01*
X146208714Y-35600142D01*
X146161095Y-35647761D01*
X146065857Y-35695380D01*
X145875380Y-35695380D01*
X145780142Y-35647761D01*
X145732523Y-35600142D01*
X145684904Y-35504904D01*
X145684904Y-35314428D01*
X145732523Y-35219190D01*
X145780142Y-35171571D01*
X145875380Y-35123952D01*
X144732523Y-35695380D02*
X145303952Y-35695380D01*
X145018238Y-35695380D02*
X145018238Y-34695380D01*
X145113476Y-34838238D01*
X145208714Y-34933476D01*
X145303952Y-34981095D01*
X144161095Y-35123952D02*
X144256333Y-35076333D01*
X144303952Y-35028714D01*
X144351571Y-34933476D01*
X144351571Y-34885857D01*
X144303952Y-34790619D01*
X144256333Y-34743000D01*
X144161095Y-34695380D01*
X143970619Y-34695380D01*
X143875380Y-34743000D01*
X143827761Y-34790619D01*
X143780142Y-34885857D01*
X143780142Y-34933476D01*
X143827761Y-35028714D01*
X143875380Y-35076333D01*
X143970619Y-35123952D01*
X144161095Y-35123952D01*
X144256333Y-35171571D01*
X144303952Y-35219190D01*
X144351571Y-35314428D01*
X144351571Y-35504904D01*
X144303952Y-35600142D01*
X144256333Y-35647761D01*
X144161095Y-35695380D01*
X143970619Y-35695380D01*
X143875380Y-35647761D01*
X143827761Y-35600142D01*
X143780142Y-35504904D01*
X143780142Y-35314428D01*
X143827761Y-35219190D01*
X143875380Y-35171571D01*
X143970619Y-35123952D01*
X146827761Y-37345380D02*
X146827761Y-36345380D01*
X146589666Y-36345380D01*
X146446809Y-36393000D01*
X146351571Y-36488238D01*
X146303952Y-36583476D01*
X146256333Y-36773952D01*
X146256333Y-36916809D01*
X146303952Y-37107285D01*
X146351571Y-37202523D01*
X146446809Y-37297761D01*
X146589666Y-37345380D01*
X146827761Y-37345380D01*
X145827761Y-37345380D02*
X145827761Y-36345380D01*
X144875380Y-37345380D02*
X145351571Y-37345380D01*
X145351571Y-36345380D01*
M02*
