G04 #@! TF.GenerationSoftware,KiCad,Pcbnew,5.1.5+dfsg1-2build2*
G04 #@! TF.CreationDate,2021-10-04T21:44:55-05:00*
G04 #@! TF.ProjectId,,58585858-5858-4585-9858-585858585858,rev?*
G04 #@! TF.SameCoordinates,Original*
G04 #@! TF.FileFunction,Legend,Top*
G04 #@! TF.FilePolarity,Positive*
%FSLAX46Y46*%
G04 Gerber Fmt 4.6, Leading zero omitted, Abs format (unit mm)*
G04 Created by KiCad (PCBNEW 5.1.5+dfsg1-2build2) date 2021-10-04 21:44:55*
%MOMM*%
%LPD*%
G04 APERTURE LIST*
%ADD10C,0.125000*%
%ADD11C,0.150000*%
%ADD12C,0.120000*%
G04 APERTURE END LIST*
D10*
X157913666Y-81214666D02*
X157513666Y-81214666D01*
X157713666Y-81214666D02*
X157713666Y-80514666D01*
X157647000Y-80614666D01*
X157580333Y-80681333D01*
X157513666Y-80714666D01*
X158313666Y-80814666D02*
X158247000Y-80781333D01*
X158213666Y-80748000D01*
X158180333Y-80681333D01*
X158180333Y-80648000D01*
X158213666Y-80581333D01*
X158247000Y-80548000D01*
X158313666Y-80514666D01*
X158447000Y-80514666D01*
X158513666Y-80548000D01*
X158547000Y-80581333D01*
X158580333Y-80648000D01*
X158580333Y-80681333D01*
X158547000Y-80748000D01*
X158513666Y-80781333D01*
X158447000Y-80814666D01*
X158313666Y-80814666D01*
X158247000Y-80848000D01*
X158213666Y-80881333D01*
X158180333Y-80948000D01*
X158180333Y-81081333D01*
X158213666Y-81148000D01*
X158247000Y-81181333D01*
X158313666Y-81214666D01*
X158447000Y-81214666D01*
X158513666Y-81181333D01*
X158547000Y-81148000D01*
X158580333Y-81081333D01*
X158580333Y-80948000D01*
X158547000Y-80881333D01*
X158513666Y-80848000D01*
X158447000Y-80814666D01*
X157913666Y-82389666D02*
X157513666Y-82389666D01*
X157713666Y-82389666D02*
X157713666Y-81689666D01*
X157647000Y-81789666D01*
X157580333Y-81856333D01*
X157513666Y-81889666D01*
X158147000Y-81689666D02*
X158613666Y-81689666D01*
X158313666Y-82389666D01*
X157913666Y-83564666D02*
X157513666Y-83564666D01*
X157713666Y-83564666D02*
X157713666Y-82864666D01*
X157647000Y-82964666D01*
X157580333Y-83031333D01*
X157513666Y-83064666D01*
X158513666Y-82864666D02*
X158380333Y-82864666D01*
X158313666Y-82898000D01*
X158280333Y-82931333D01*
X158213666Y-83031333D01*
X158180333Y-83164666D01*
X158180333Y-83431333D01*
X158213666Y-83498000D01*
X158247000Y-83531333D01*
X158313666Y-83564666D01*
X158447000Y-83564666D01*
X158513666Y-83531333D01*
X158547000Y-83498000D01*
X158580333Y-83431333D01*
X158580333Y-83264666D01*
X158547000Y-83198000D01*
X158513666Y-83164666D01*
X158447000Y-83131333D01*
X158313666Y-83131333D01*
X158247000Y-83164666D01*
X158213666Y-83198000D01*
X158180333Y-83264666D01*
X157913666Y-84739666D02*
X157513666Y-84739666D01*
X157713666Y-84739666D02*
X157713666Y-84039666D01*
X157647000Y-84139666D01*
X157580333Y-84206333D01*
X157513666Y-84239666D01*
X158547000Y-84039666D02*
X158213666Y-84039666D01*
X158180333Y-84373000D01*
X158213666Y-84339666D01*
X158280333Y-84306333D01*
X158447000Y-84306333D01*
X158513666Y-84339666D01*
X158547000Y-84373000D01*
X158580333Y-84439666D01*
X158580333Y-84606333D01*
X158547000Y-84673000D01*
X158513666Y-84706333D01*
X158447000Y-84739666D01*
X158280333Y-84739666D01*
X158213666Y-84706333D01*
X158180333Y-84673000D01*
X157913666Y-85914666D02*
X157513666Y-85914666D01*
X157713666Y-85914666D02*
X157713666Y-85214666D01*
X157647000Y-85314666D01*
X157580333Y-85381333D01*
X157513666Y-85414666D01*
X158513666Y-85448000D02*
X158513666Y-85914666D01*
X158347000Y-85181333D02*
X158180333Y-85681333D01*
X158613666Y-85681333D01*
X157913666Y-87089666D02*
X157513666Y-87089666D01*
X157713666Y-87089666D02*
X157713666Y-86389666D01*
X157647000Y-86489666D01*
X157580333Y-86556333D01*
X157513666Y-86589666D01*
X158147000Y-86389666D02*
X158580333Y-86389666D01*
X158347000Y-86656333D01*
X158447000Y-86656333D01*
X158513666Y-86689666D01*
X158547000Y-86723000D01*
X158580333Y-86789666D01*
X158580333Y-86956333D01*
X158547000Y-87023000D01*
X158513666Y-87056333D01*
X158447000Y-87089666D01*
X158247000Y-87089666D01*
X158180333Y-87056333D01*
X158147000Y-87023000D01*
X157497000Y-88264666D02*
X157497000Y-87564666D01*
X157897000Y-88264666D01*
X157897000Y-87564666D01*
X158630333Y-88198000D02*
X158597000Y-88231333D01*
X158497000Y-88264666D01*
X158430333Y-88264666D01*
X158330333Y-88231333D01*
X158263666Y-88164666D01*
X158230333Y-88098000D01*
X158197000Y-87964666D01*
X158197000Y-87864666D01*
X158230333Y-87731333D01*
X158263666Y-87664666D01*
X158330333Y-87598000D01*
X158430333Y-87564666D01*
X158497000Y-87564666D01*
X158597000Y-87598000D01*
X158630333Y-87631333D01*
X157913666Y-89439666D02*
X157513666Y-89439666D01*
X157713666Y-89439666D02*
X157713666Y-88739666D01*
X157647000Y-88839666D01*
X157580333Y-88906333D01*
X157513666Y-88939666D01*
X158580333Y-89439666D02*
X158180333Y-89439666D01*
X158380333Y-89439666D02*
X158380333Y-88739666D01*
X158313666Y-88839666D01*
X158247000Y-88906333D01*
X158180333Y-88939666D01*
X157913666Y-90614666D02*
X157513666Y-90614666D01*
X157713666Y-90614666D02*
X157713666Y-89914666D01*
X157647000Y-90014666D01*
X157580333Y-90081333D01*
X157513666Y-90114666D01*
X158347000Y-89914666D02*
X158413666Y-89914666D01*
X158480333Y-89948000D01*
X158513666Y-89981333D01*
X158547000Y-90048000D01*
X158580333Y-90181333D01*
X158580333Y-90348000D01*
X158547000Y-90481333D01*
X158513666Y-90548000D01*
X158480333Y-90581333D01*
X158413666Y-90614666D01*
X158347000Y-90614666D01*
X158280333Y-90581333D01*
X158247000Y-90548000D01*
X158213666Y-90481333D01*
X158180333Y-90348000D01*
X158180333Y-90181333D01*
X158213666Y-90048000D01*
X158247000Y-89981333D01*
X158280333Y-89948000D01*
X158347000Y-89914666D01*
X121913666Y-81214666D02*
X121513666Y-81214666D01*
X121713666Y-81214666D02*
X121713666Y-80514666D01*
X121647000Y-80614666D01*
X121580333Y-80681333D01*
X121513666Y-80714666D01*
X122313666Y-80814666D02*
X122247000Y-80781333D01*
X122213666Y-80748000D01*
X122180333Y-80681333D01*
X122180333Y-80648000D01*
X122213666Y-80581333D01*
X122247000Y-80548000D01*
X122313666Y-80514666D01*
X122447000Y-80514666D01*
X122513666Y-80548000D01*
X122547000Y-80581333D01*
X122580333Y-80648000D01*
X122580333Y-80681333D01*
X122547000Y-80748000D01*
X122513666Y-80781333D01*
X122447000Y-80814666D01*
X122313666Y-80814666D01*
X122247000Y-80848000D01*
X122213666Y-80881333D01*
X122180333Y-80948000D01*
X122180333Y-81081333D01*
X122213666Y-81148000D01*
X122247000Y-81181333D01*
X122313666Y-81214666D01*
X122447000Y-81214666D01*
X122513666Y-81181333D01*
X122547000Y-81148000D01*
X122580333Y-81081333D01*
X122580333Y-80948000D01*
X122547000Y-80881333D01*
X122513666Y-80848000D01*
X122447000Y-80814666D01*
X121913666Y-82389666D02*
X121513666Y-82389666D01*
X121713666Y-82389666D02*
X121713666Y-81689666D01*
X121647000Y-81789666D01*
X121580333Y-81856333D01*
X121513666Y-81889666D01*
X122147000Y-81689666D02*
X122613666Y-81689666D01*
X122313666Y-82389666D01*
X121913666Y-83564666D02*
X121513666Y-83564666D01*
X121713666Y-83564666D02*
X121713666Y-82864666D01*
X121647000Y-82964666D01*
X121580333Y-83031333D01*
X121513666Y-83064666D01*
X122513666Y-82864666D02*
X122380333Y-82864666D01*
X122313666Y-82898000D01*
X122280333Y-82931333D01*
X122213666Y-83031333D01*
X122180333Y-83164666D01*
X122180333Y-83431333D01*
X122213666Y-83498000D01*
X122247000Y-83531333D01*
X122313666Y-83564666D01*
X122447000Y-83564666D01*
X122513666Y-83531333D01*
X122547000Y-83498000D01*
X122580333Y-83431333D01*
X122580333Y-83264666D01*
X122547000Y-83198000D01*
X122513666Y-83164666D01*
X122447000Y-83131333D01*
X122313666Y-83131333D01*
X122247000Y-83164666D01*
X122213666Y-83198000D01*
X122180333Y-83264666D01*
X121913666Y-84739666D02*
X121513666Y-84739666D01*
X121713666Y-84739666D02*
X121713666Y-84039666D01*
X121647000Y-84139666D01*
X121580333Y-84206333D01*
X121513666Y-84239666D01*
X122547000Y-84039666D02*
X122213666Y-84039666D01*
X122180333Y-84373000D01*
X122213666Y-84339666D01*
X122280333Y-84306333D01*
X122447000Y-84306333D01*
X122513666Y-84339666D01*
X122547000Y-84373000D01*
X122580333Y-84439666D01*
X122580333Y-84606333D01*
X122547000Y-84673000D01*
X122513666Y-84706333D01*
X122447000Y-84739666D01*
X122280333Y-84739666D01*
X122213666Y-84706333D01*
X122180333Y-84673000D01*
X121913666Y-85914666D02*
X121513666Y-85914666D01*
X121713666Y-85914666D02*
X121713666Y-85214666D01*
X121647000Y-85314666D01*
X121580333Y-85381333D01*
X121513666Y-85414666D01*
X122513666Y-85448000D02*
X122513666Y-85914666D01*
X122347000Y-85181333D02*
X122180333Y-85681333D01*
X122613666Y-85681333D01*
X121913666Y-87089666D02*
X121513666Y-87089666D01*
X121713666Y-87089666D02*
X121713666Y-86389666D01*
X121647000Y-86489666D01*
X121580333Y-86556333D01*
X121513666Y-86589666D01*
X122147000Y-86389666D02*
X122580333Y-86389666D01*
X122347000Y-86656333D01*
X122447000Y-86656333D01*
X122513666Y-86689666D01*
X122547000Y-86723000D01*
X122580333Y-86789666D01*
X122580333Y-86956333D01*
X122547000Y-87023000D01*
X122513666Y-87056333D01*
X122447000Y-87089666D01*
X122247000Y-87089666D01*
X122180333Y-87056333D01*
X122147000Y-87023000D01*
X121497000Y-88264666D02*
X121497000Y-87564666D01*
X121897000Y-88264666D01*
X121897000Y-87564666D01*
X122630333Y-88198000D02*
X122597000Y-88231333D01*
X122497000Y-88264666D01*
X122430333Y-88264666D01*
X122330333Y-88231333D01*
X122263666Y-88164666D01*
X122230333Y-88098000D01*
X122197000Y-87964666D01*
X122197000Y-87864666D01*
X122230333Y-87731333D01*
X122263666Y-87664666D01*
X122330333Y-87598000D01*
X122430333Y-87564666D01*
X122497000Y-87564666D01*
X122597000Y-87598000D01*
X122630333Y-87631333D01*
X121913666Y-89439666D02*
X121513666Y-89439666D01*
X121713666Y-89439666D02*
X121713666Y-88739666D01*
X121647000Y-88839666D01*
X121580333Y-88906333D01*
X121513666Y-88939666D01*
X122580333Y-89439666D02*
X122180333Y-89439666D01*
X122380333Y-89439666D02*
X122380333Y-88739666D01*
X122313666Y-88839666D01*
X122247000Y-88906333D01*
X122180333Y-88939666D01*
X121913666Y-90614666D02*
X121513666Y-90614666D01*
X121713666Y-90614666D02*
X121713666Y-89914666D01*
X121647000Y-90014666D01*
X121580333Y-90081333D01*
X121513666Y-90114666D01*
X122347000Y-89914666D02*
X122413666Y-89914666D01*
X122480333Y-89948000D01*
X122513666Y-89981333D01*
X122547000Y-90048000D01*
X122580333Y-90181333D01*
X122580333Y-90348000D01*
X122547000Y-90481333D01*
X122513666Y-90548000D01*
X122480333Y-90581333D01*
X122413666Y-90614666D01*
X122347000Y-90614666D01*
X122280333Y-90581333D01*
X122247000Y-90548000D01*
X122213666Y-90481333D01*
X122180333Y-90348000D01*
X122180333Y-90181333D01*
X122213666Y-90048000D01*
X122247000Y-89981333D01*
X122280333Y-89948000D01*
X122347000Y-89914666D01*
X157913666Y-32954666D02*
X157513666Y-32954666D01*
X157713666Y-32954666D02*
X157713666Y-32254666D01*
X157647000Y-32354666D01*
X157580333Y-32421333D01*
X157513666Y-32454666D01*
X158313666Y-32554666D02*
X158247000Y-32521333D01*
X158213666Y-32488000D01*
X158180333Y-32421333D01*
X158180333Y-32388000D01*
X158213666Y-32321333D01*
X158247000Y-32288000D01*
X158313666Y-32254666D01*
X158447000Y-32254666D01*
X158513666Y-32288000D01*
X158547000Y-32321333D01*
X158580333Y-32388000D01*
X158580333Y-32421333D01*
X158547000Y-32488000D01*
X158513666Y-32521333D01*
X158447000Y-32554666D01*
X158313666Y-32554666D01*
X158247000Y-32588000D01*
X158213666Y-32621333D01*
X158180333Y-32688000D01*
X158180333Y-32821333D01*
X158213666Y-32888000D01*
X158247000Y-32921333D01*
X158313666Y-32954666D01*
X158447000Y-32954666D01*
X158513666Y-32921333D01*
X158547000Y-32888000D01*
X158580333Y-32821333D01*
X158580333Y-32688000D01*
X158547000Y-32621333D01*
X158513666Y-32588000D01*
X158447000Y-32554666D01*
X157913666Y-34129666D02*
X157513666Y-34129666D01*
X157713666Y-34129666D02*
X157713666Y-33429666D01*
X157647000Y-33529666D01*
X157580333Y-33596333D01*
X157513666Y-33629666D01*
X158147000Y-33429666D02*
X158613666Y-33429666D01*
X158313666Y-34129666D01*
X157913666Y-35304666D02*
X157513666Y-35304666D01*
X157713666Y-35304666D02*
X157713666Y-34604666D01*
X157647000Y-34704666D01*
X157580333Y-34771333D01*
X157513666Y-34804666D01*
X158513666Y-34604666D02*
X158380333Y-34604666D01*
X158313666Y-34638000D01*
X158280333Y-34671333D01*
X158213666Y-34771333D01*
X158180333Y-34904666D01*
X158180333Y-35171333D01*
X158213666Y-35238000D01*
X158247000Y-35271333D01*
X158313666Y-35304666D01*
X158447000Y-35304666D01*
X158513666Y-35271333D01*
X158547000Y-35238000D01*
X158580333Y-35171333D01*
X158580333Y-35004666D01*
X158547000Y-34938000D01*
X158513666Y-34904666D01*
X158447000Y-34871333D01*
X158313666Y-34871333D01*
X158247000Y-34904666D01*
X158213666Y-34938000D01*
X158180333Y-35004666D01*
X157913666Y-36479666D02*
X157513666Y-36479666D01*
X157713666Y-36479666D02*
X157713666Y-35779666D01*
X157647000Y-35879666D01*
X157580333Y-35946333D01*
X157513666Y-35979666D01*
X158547000Y-35779666D02*
X158213666Y-35779666D01*
X158180333Y-36113000D01*
X158213666Y-36079666D01*
X158280333Y-36046333D01*
X158447000Y-36046333D01*
X158513666Y-36079666D01*
X158547000Y-36113000D01*
X158580333Y-36179666D01*
X158580333Y-36346333D01*
X158547000Y-36413000D01*
X158513666Y-36446333D01*
X158447000Y-36479666D01*
X158280333Y-36479666D01*
X158213666Y-36446333D01*
X158180333Y-36413000D01*
X157913666Y-37654666D02*
X157513666Y-37654666D01*
X157713666Y-37654666D02*
X157713666Y-36954666D01*
X157647000Y-37054666D01*
X157580333Y-37121333D01*
X157513666Y-37154666D01*
X158513666Y-37188000D02*
X158513666Y-37654666D01*
X158347000Y-36921333D02*
X158180333Y-37421333D01*
X158613666Y-37421333D01*
X157913666Y-38829666D02*
X157513666Y-38829666D01*
X157713666Y-38829666D02*
X157713666Y-38129666D01*
X157647000Y-38229666D01*
X157580333Y-38296333D01*
X157513666Y-38329666D01*
X158147000Y-38129666D02*
X158580333Y-38129666D01*
X158347000Y-38396333D01*
X158447000Y-38396333D01*
X158513666Y-38429666D01*
X158547000Y-38463000D01*
X158580333Y-38529666D01*
X158580333Y-38696333D01*
X158547000Y-38763000D01*
X158513666Y-38796333D01*
X158447000Y-38829666D01*
X158247000Y-38829666D01*
X158180333Y-38796333D01*
X158147000Y-38763000D01*
X157497000Y-40004666D02*
X157497000Y-39304666D01*
X157897000Y-40004666D01*
X157897000Y-39304666D01*
X158630333Y-39938000D02*
X158597000Y-39971333D01*
X158497000Y-40004666D01*
X158430333Y-40004666D01*
X158330333Y-39971333D01*
X158263666Y-39904666D01*
X158230333Y-39838000D01*
X158197000Y-39704666D01*
X158197000Y-39604666D01*
X158230333Y-39471333D01*
X158263666Y-39404666D01*
X158330333Y-39338000D01*
X158430333Y-39304666D01*
X158497000Y-39304666D01*
X158597000Y-39338000D01*
X158630333Y-39371333D01*
X157913666Y-41179666D02*
X157513666Y-41179666D01*
X157713666Y-41179666D02*
X157713666Y-40479666D01*
X157647000Y-40579666D01*
X157580333Y-40646333D01*
X157513666Y-40679666D01*
X158580333Y-41179666D02*
X158180333Y-41179666D01*
X158380333Y-41179666D02*
X158380333Y-40479666D01*
X158313666Y-40579666D01*
X158247000Y-40646333D01*
X158180333Y-40679666D01*
X157913666Y-42354666D02*
X157513666Y-42354666D01*
X157713666Y-42354666D02*
X157713666Y-41654666D01*
X157647000Y-41754666D01*
X157580333Y-41821333D01*
X157513666Y-41854666D01*
X158347000Y-41654666D02*
X158413666Y-41654666D01*
X158480333Y-41688000D01*
X158513666Y-41721333D01*
X158547000Y-41788000D01*
X158580333Y-41921333D01*
X158580333Y-42088000D01*
X158547000Y-42221333D01*
X158513666Y-42288000D01*
X158480333Y-42321333D01*
X158413666Y-42354666D01*
X158347000Y-42354666D01*
X158280333Y-42321333D01*
X158247000Y-42288000D01*
X158213666Y-42221333D01*
X158180333Y-42088000D01*
X158180333Y-41921333D01*
X158213666Y-41788000D01*
X158247000Y-41721333D01*
X158280333Y-41688000D01*
X158347000Y-41654666D01*
X186130000Y-81214666D02*
X185730000Y-81214666D01*
X185930000Y-81214666D02*
X185930000Y-80514666D01*
X185863333Y-80614666D01*
X185796666Y-80681333D01*
X185730000Y-80714666D01*
X187863333Y-81214666D02*
X187463333Y-81214666D01*
X187663333Y-81214666D02*
X187663333Y-80514666D01*
X187596666Y-80614666D01*
X187530000Y-80681333D01*
X187463333Y-80714666D01*
X188263333Y-80814666D02*
X188196666Y-80781333D01*
X188163333Y-80748000D01*
X188130000Y-80681333D01*
X188130000Y-80648000D01*
X188163333Y-80581333D01*
X188196666Y-80548000D01*
X188263333Y-80514666D01*
X188396666Y-80514666D01*
X188463333Y-80548000D01*
X188496666Y-80581333D01*
X188530000Y-80648000D01*
X188530000Y-80681333D01*
X188496666Y-80748000D01*
X188463333Y-80781333D01*
X188396666Y-80814666D01*
X188263333Y-80814666D01*
X188196666Y-80848000D01*
X188163333Y-80881333D01*
X188130000Y-80948000D01*
X188130000Y-81081333D01*
X188163333Y-81148000D01*
X188196666Y-81181333D01*
X188263333Y-81214666D01*
X188396666Y-81214666D01*
X188463333Y-81181333D01*
X188496666Y-81148000D01*
X188530000Y-81081333D01*
X188530000Y-80948000D01*
X188496666Y-80881333D01*
X188463333Y-80848000D01*
X188396666Y-80814666D01*
X185730000Y-81756333D02*
X185763333Y-81723000D01*
X185830000Y-81689666D01*
X185996666Y-81689666D01*
X186063333Y-81723000D01*
X186096666Y-81756333D01*
X186130000Y-81823000D01*
X186130000Y-81889666D01*
X186096666Y-81989666D01*
X185696666Y-82389666D01*
X186130000Y-82389666D01*
X187863333Y-82389666D02*
X187463333Y-82389666D01*
X187663333Y-82389666D02*
X187663333Y-81689666D01*
X187596666Y-81789666D01*
X187530000Y-81856333D01*
X187463333Y-81889666D01*
X188096666Y-81689666D02*
X188563333Y-81689666D01*
X188263333Y-82389666D01*
X185696666Y-82864666D02*
X186130000Y-82864666D01*
X185896666Y-83131333D01*
X185996666Y-83131333D01*
X186063333Y-83164666D01*
X186096666Y-83198000D01*
X186130000Y-83264666D01*
X186130000Y-83431333D01*
X186096666Y-83498000D01*
X186063333Y-83531333D01*
X185996666Y-83564666D01*
X185796666Y-83564666D01*
X185730000Y-83531333D01*
X185696666Y-83498000D01*
X187863333Y-83564666D02*
X187463333Y-83564666D01*
X187663333Y-83564666D02*
X187663333Y-82864666D01*
X187596666Y-82964666D01*
X187530000Y-83031333D01*
X187463333Y-83064666D01*
X188463333Y-82864666D02*
X188330000Y-82864666D01*
X188263333Y-82898000D01*
X188230000Y-82931333D01*
X188163333Y-83031333D01*
X188130000Y-83164666D01*
X188130000Y-83431333D01*
X188163333Y-83498000D01*
X188196666Y-83531333D01*
X188263333Y-83564666D01*
X188396666Y-83564666D01*
X188463333Y-83531333D01*
X188496666Y-83498000D01*
X188530000Y-83431333D01*
X188530000Y-83264666D01*
X188496666Y-83198000D01*
X188463333Y-83164666D01*
X188396666Y-83131333D01*
X188263333Y-83131333D01*
X188196666Y-83164666D01*
X188163333Y-83198000D01*
X188130000Y-83264666D01*
X186063333Y-84273000D02*
X186063333Y-84739666D01*
X185896666Y-84006333D02*
X185730000Y-84506333D01*
X186163333Y-84506333D01*
X187863333Y-84739666D02*
X187463333Y-84739666D01*
X187663333Y-84739666D02*
X187663333Y-84039666D01*
X187596666Y-84139666D01*
X187530000Y-84206333D01*
X187463333Y-84239666D01*
X188496666Y-84039666D02*
X188163333Y-84039666D01*
X188130000Y-84373000D01*
X188163333Y-84339666D01*
X188230000Y-84306333D01*
X188396666Y-84306333D01*
X188463333Y-84339666D01*
X188496666Y-84373000D01*
X188530000Y-84439666D01*
X188530000Y-84606333D01*
X188496666Y-84673000D01*
X188463333Y-84706333D01*
X188396666Y-84739666D01*
X188230000Y-84739666D01*
X188163333Y-84706333D01*
X188130000Y-84673000D01*
X186096666Y-85214666D02*
X185763333Y-85214666D01*
X185730000Y-85548000D01*
X185763333Y-85514666D01*
X185830000Y-85481333D01*
X185996666Y-85481333D01*
X186063333Y-85514666D01*
X186096666Y-85548000D01*
X186130000Y-85614666D01*
X186130000Y-85781333D01*
X186096666Y-85848000D01*
X186063333Y-85881333D01*
X185996666Y-85914666D01*
X185830000Y-85914666D01*
X185763333Y-85881333D01*
X185730000Y-85848000D01*
X187863333Y-85914666D02*
X187463333Y-85914666D01*
X187663333Y-85914666D02*
X187663333Y-85214666D01*
X187596666Y-85314666D01*
X187530000Y-85381333D01*
X187463333Y-85414666D01*
X188463333Y-85448000D02*
X188463333Y-85914666D01*
X188296666Y-85181333D02*
X188130000Y-85681333D01*
X188563333Y-85681333D01*
X186063333Y-86389666D02*
X185930000Y-86389666D01*
X185863333Y-86423000D01*
X185830000Y-86456333D01*
X185763333Y-86556333D01*
X185730000Y-86689666D01*
X185730000Y-86956333D01*
X185763333Y-87023000D01*
X185796666Y-87056333D01*
X185863333Y-87089666D01*
X185996666Y-87089666D01*
X186063333Y-87056333D01*
X186096666Y-87023000D01*
X186130000Y-86956333D01*
X186130000Y-86789666D01*
X186096666Y-86723000D01*
X186063333Y-86689666D01*
X185996666Y-86656333D01*
X185863333Y-86656333D01*
X185796666Y-86689666D01*
X185763333Y-86723000D01*
X185730000Y-86789666D01*
X187863333Y-87089666D02*
X187463333Y-87089666D01*
X187663333Y-87089666D02*
X187663333Y-86389666D01*
X187596666Y-86489666D01*
X187530000Y-86556333D01*
X187463333Y-86589666D01*
X188096666Y-86389666D02*
X188530000Y-86389666D01*
X188296666Y-86656333D01*
X188396666Y-86656333D01*
X188463333Y-86689666D01*
X188496666Y-86723000D01*
X188530000Y-86789666D01*
X188530000Y-86956333D01*
X188496666Y-87023000D01*
X188463333Y-87056333D01*
X188396666Y-87089666D01*
X188196666Y-87089666D01*
X188130000Y-87056333D01*
X188096666Y-87023000D01*
X185646666Y-87564666D02*
X186113333Y-87564666D01*
X185813333Y-88264666D01*
X187446666Y-88264666D02*
X187446666Y-87564666D01*
X187846666Y-88264666D01*
X187846666Y-87564666D01*
X188580000Y-88198000D02*
X188546666Y-88231333D01*
X188446666Y-88264666D01*
X188380000Y-88264666D01*
X188280000Y-88231333D01*
X188213333Y-88164666D01*
X188180000Y-88098000D01*
X188146666Y-87964666D01*
X188146666Y-87864666D01*
X188180000Y-87731333D01*
X188213333Y-87664666D01*
X188280000Y-87598000D01*
X188380000Y-87564666D01*
X188446666Y-87564666D01*
X188546666Y-87598000D01*
X188580000Y-87631333D01*
X185863333Y-89039666D02*
X185796666Y-89006333D01*
X185763333Y-88973000D01*
X185730000Y-88906333D01*
X185730000Y-88873000D01*
X185763333Y-88806333D01*
X185796666Y-88773000D01*
X185863333Y-88739666D01*
X185996666Y-88739666D01*
X186063333Y-88773000D01*
X186096666Y-88806333D01*
X186130000Y-88873000D01*
X186130000Y-88906333D01*
X186096666Y-88973000D01*
X186063333Y-89006333D01*
X185996666Y-89039666D01*
X185863333Y-89039666D01*
X185796666Y-89073000D01*
X185763333Y-89106333D01*
X185730000Y-89173000D01*
X185730000Y-89306333D01*
X185763333Y-89373000D01*
X185796666Y-89406333D01*
X185863333Y-89439666D01*
X185996666Y-89439666D01*
X186063333Y-89406333D01*
X186096666Y-89373000D01*
X186130000Y-89306333D01*
X186130000Y-89173000D01*
X186096666Y-89106333D01*
X186063333Y-89073000D01*
X185996666Y-89039666D01*
X187863333Y-89439666D02*
X187463333Y-89439666D01*
X187663333Y-89439666D02*
X187663333Y-88739666D01*
X187596666Y-88839666D01*
X187530000Y-88906333D01*
X187463333Y-88939666D01*
X188530000Y-89439666D02*
X188130000Y-89439666D01*
X188330000Y-89439666D02*
X188330000Y-88739666D01*
X188263333Y-88839666D01*
X188196666Y-88906333D01*
X188130000Y-88939666D01*
X185796666Y-90614666D02*
X185930000Y-90614666D01*
X185996666Y-90581333D01*
X186030000Y-90548000D01*
X186096666Y-90448000D01*
X186130000Y-90314666D01*
X186130000Y-90048000D01*
X186096666Y-89981333D01*
X186063333Y-89948000D01*
X185996666Y-89914666D01*
X185863333Y-89914666D01*
X185796666Y-89948000D01*
X185763333Y-89981333D01*
X185730000Y-90048000D01*
X185730000Y-90214666D01*
X185763333Y-90281333D01*
X185796666Y-90314666D01*
X185863333Y-90348000D01*
X185996666Y-90348000D01*
X186063333Y-90314666D01*
X186096666Y-90281333D01*
X186130000Y-90214666D01*
X187863333Y-90614666D02*
X187463333Y-90614666D01*
X187663333Y-90614666D02*
X187663333Y-89914666D01*
X187596666Y-90014666D01*
X187530000Y-90081333D01*
X187463333Y-90114666D01*
X188296666Y-89914666D02*
X188363333Y-89914666D01*
X188430000Y-89948000D01*
X188463333Y-89981333D01*
X188496666Y-90048000D01*
X188530000Y-90181333D01*
X188530000Y-90348000D01*
X188496666Y-90481333D01*
X188463333Y-90548000D01*
X188430000Y-90581333D01*
X188363333Y-90614666D01*
X188296666Y-90614666D01*
X188230000Y-90581333D01*
X188196666Y-90548000D01*
X188163333Y-90481333D01*
X188130000Y-90348000D01*
X188130000Y-90181333D01*
X188163333Y-90048000D01*
X188196666Y-89981333D01*
X188230000Y-89948000D01*
X188296666Y-89914666D01*
X150130000Y-81214666D02*
X149730000Y-81214666D01*
X149930000Y-81214666D02*
X149930000Y-80514666D01*
X149863333Y-80614666D01*
X149796666Y-80681333D01*
X149730000Y-80714666D01*
X151863333Y-81214666D02*
X151463333Y-81214666D01*
X151663333Y-81214666D02*
X151663333Y-80514666D01*
X151596666Y-80614666D01*
X151530000Y-80681333D01*
X151463333Y-80714666D01*
X152263333Y-80814666D02*
X152196666Y-80781333D01*
X152163333Y-80748000D01*
X152130000Y-80681333D01*
X152130000Y-80648000D01*
X152163333Y-80581333D01*
X152196666Y-80548000D01*
X152263333Y-80514666D01*
X152396666Y-80514666D01*
X152463333Y-80548000D01*
X152496666Y-80581333D01*
X152530000Y-80648000D01*
X152530000Y-80681333D01*
X152496666Y-80748000D01*
X152463333Y-80781333D01*
X152396666Y-80814666D01*
X152263333Y-80814666D01*
X152196666Y-80848000D01*
X152163333Y-80881333D01*
X152130000Y-80948000D01*
X152130000Y-81081333D01*
X152163333Y-81148000D01*
X152196666Y-81181333D01*
X152263333Y-81214666D01*
X152396666Y-81214666D01*
X152463333Y-81181333D01*
X152496666Y-81148000D01*
X152530000Y-81081333D01*
X152530000Y-80948000D01*
X152496666Y-80881333D01*
X152463333Y-80848000D01*
X152396666Y-80814666D01*
X149730000Y-81756333D02*
X149763333Y-81723000D01*
X149830000Y-81689666D01*
X149996666Y-81689666D01*
X150063333Y-81723000D01*
X150096666Y-81756333D01*
X150130000Y-81823000D01*
X150130000Y-81889666D01*
X150096666Y-81989666D01*
X149696666Y-82389666D01*
X150130000Y-82389666D01*
X151863333Y-82389666D02*
X151463333Y-82389666D01*
X151663333Y-82389666D02*
X151663333Y-81689666D01*
X151596666Y-81789666D01*
X151530000Y-81856333D01*
X151463333Y-81889666D01*
X152096666Y-81689666D02*
X152563333Y-81689666D01*
X152263333Y-82389666D01*
X149696666Y-82864666D02*
X150130000Y-82864666D01*
X149896666Y-83131333D01*
X149996666Y-83131333D01*
X150063333Y-83164666D01*
X150096666Y-83198000D01*
X150130000Y-83264666D01*
X150130000Y-83431333D01*
X150096666Y-83498000D01*
X150063333Y-83531333D01*
X149996666Y-83564666D01*
X149796666Y-83564666D01*
X149730000Y-83531333D01*
X149696666Y-83498000D01*
X151863333Y-83564666D02*
X151463333Y-83564666D01*
X151663333Y-83564666D02*
X151663333Y-82864666D01*
X151596666Y-82964666D01*
X151530000Y-83031333D01*
X151463333Y-83064666D01*
X152463333Y-82864666D02*
X152330000Y-82864666D01*
X152263333Y-82898000D01*
X152230000Y-82931333D01*
X152163333Y-83031333D01*
X152130000Y-83164666D01*
X152130000Y-83431333D01*
X152163333Y-83498000D01*
X152196666Y-83531333D01*
X152263333Y-83564666D01*
X152396666Y-83564666D01*
X152463333Y-83531333D01*
X152496666Y-83498000D01*
X152530000Y-83431333D01*
X152530000Y-83264666D01*
X152496666Y-83198000D01*
X152463333Y-83164666D01*
X152396666Y-83131333D01*
X152263333Y-83131333D01*
X152196666Y-83164666D01*
X152163333Y-83198000D01*
X152130000Y-83264666D01*
X150063333Y-84273000D02*
X150063333Y-84739666D01*
X149896666Y-84006333D02*
X149730000Y-84506333D01*
X150163333Y-84506333D01*
X151863333Y-84739666D02*
X151463333Y-84739666D01*
X151663333Y-84739666D02*
X151663333Y-84039666D01*
X151596666Y-84139666D01*
X151530000Y-84206333D01*
X151463333Y-84239666D01*
X152496666Y-84039666D02*
X152163333Y-84039666D01*
X152130000Y-84373000D01*
X152163333Y-84339666D01*
X152230000Y-84306333D01*
X152396666Y-84306333D01*
X152463333Y-84339666D01*
X152496666Y-84373000D01*
X152530000Y-84439666D01*
X152530000Y-84606333D01*
X152496666Y-84673000D01*
X152463333Y-84706333D01*
X152396666Y-84739666D01*
X152230000Y-84739666D01*
X152163333Y-84706333D01*
X152130000Y-84673000D01*
X150096666Y-85214666D02*
X149763333Y-85214666D01*
X149730000Y-85548000D01*
X149763333Y-85514666D01*
X149830000Y-85481333D01*
X149996666Y-85481333D01*
X150063333Y-85514666D01*
X150096666Y-85548000D01*
X150130000Y-85614666D01*
X150130000Y-85781333D01*
X150096666Y-85848000D01*
X150063333Y-85881333D01*
X149996666Y-85914666D01*
X149830000Y-85914666D01*
X149763333Y-85881333D01*
X149730000Y-85848000D01*
X151863333Y-85914666D02*
X151463333Y-85914666D01*
X151663333Y-85914666D02*
X151663333Y-85214666D01*
X151596666Y-85314666D01*
X151530000Y-85381333D01*
X151463333Y-85414666D01*
X152463333Y-85448000D02*
X152463333Y-85914666D01*
X152296666Y-85181333D02*
X152130000Y-85681333D01*
X152563333Y-85681333D01*
X150063333Y-86389666D02*
X149930000Y-86389666D01*
X149863333Y-86423000D01*
X149830000Y-86456333D01*
X149763333Y-86556333D01*
X149730000Y-86689666D01*
X149730000Y-86956333D01*
X149763333Y-87023000D01*
X149796666Y-87056333D01*
X149863333Y-87089666D01*
X149996666Y-87089666D01*
X150063333Y-87056333D01*
X150096666Y-87023000D01*
X150130000Y-86956333D01*
X150130000Y-86789666D01*
X150096666Y-86723000D01*
X150063333Y-86689666D01*
X149996666Y-86656333D01*
X149863333Y-86656333D01*
X149796666Y-86689666D01*
X149763333Y-86723000D01*
X149730000Y-86789666D01*
X151863333Y-87089666D02*
X151463333Y-87089666D01*
X151663333Y-87089666D02*
X151663333Y-86389666D01*
X151596666Y-86489666D01*
X151530000Y-86556333D01*
X151463333Y-86589666D01*
X152096666Y-86389666D02*
X152530000Y-86389666D01*
X152296666Y-86656333D01*
X152396666Y-86656333D01*
X152463333Y-86689666D01*
X152496666Y-86723000D01*
X152530000Y-86789666D01*
X152530000Y-86956333D01*
X152496666Y-87023000D01*
X152463333Y-87056333D01*
X152396666Y-87089666D01*
X152196666Y-87089666D01*
X152130000Y-87056333D01*
X152096666Y-87023000D01*
X149646666Y-87564666D02*
X150113333Y-87564666D01*
X149813333Y-88264666D01*
X151446666Y-88264666D02*
X151446666Y-87564666D01*
X151846666Y-88264666D01*
X151846666Y-87564666D01*
X152580000Y-88198000D02*
X152546666Y-88231333D01*
X152446666Y-88264666D01*
X152380000Y-88264666D01*
X152280000Y-88231333D01*
X152213333Y-88164666D01*
X152180000Y-88098000D01*
X152146666Y-87964666D01*
X152146666Y-87864666D01*
X152180000Y-87731333D01*
X152213333Y-87664666D01*
X152280000Y-87598000D01*
X152380000Y-87564666D01*
X152446666Y-87564666D01*
X152546666Y-87598000D01*
X152580000Y-87631333D01*
X149863333Y-89039666D02*
X149796666Y-89006333D01*
X149763333Y-88973000D01*
X149730000Y-88906333D01*
X149730000Y-88873000D01*
X149763333Y-88806333D01*
X149796666Y-88773000D01*
X149863333Y-88739666D01*
X149996666Y-88739666D01*
X150063333Y-88773000D01*
X150096666Y-88806333D01*
X150130000Y-88873000D01*
X150130000Y-88906333D01*
X150096666Y-88973000D01*
X150063333Y-89006333D01*
X149996666Y-89039666D01*
X149863333Y-89039666D01*
X149796666Y-89073000D01*
X149763333Y-89106333D01*
X149730000Y-89173000D01*
X149730000Y-89306333D01*
X149763333Y-89373000D01*
X149796666Y-89406333D01*
X149863333Y-89439666D01*
X149996666Y-89439666D01*
X150063333Y-89406333D01*
X150096666Y-89373000D01*
X150130000Y-89306333D01*
X150130000Y-89173000D01*
X150096666Y-89106333D01*
X150063333Y-89073000D01*
X149996666Y-89039666D01*
X151863333Y-89439666D02*
X151463333Y-89439666D01*
X151663333Y-89439666D02*
X151663333Y-88739666D01*
X151596666Y-88839666D01*
X151530000Y-88906333D01*
X151463333Y-88939666D01*
X152530000Y-89439666D02*
X152130000Y-89439666D01*
X152330000Y-89439666D02*
X152330000Y-88739666D01*
X152263333Y-88839666D01*
X152196666Y-88906333D01*
X152130000Y-88939666D01*
X149796666Y-90614666D02*
X149930000Y-90614666D01*
X149996666Y-90581333D01*
X150030000Y-90548000D01*
X150096666Y-90448000D01*
X150130000Y-90314666D01*
X150130000Y-90048000D01*
X150096666Y-89981333D01*
X150063333Y-89948000D01*
X149996666Y-89914666D01*
X149863333Y-89914666D01*
X149796666Y-89948000D01*
X149763333Y-89981333D01*
X149730000Y-90048000D01*
X149730000Y-90214666D01*
X149763333Y-90281333D01*
X149796666Y-90314666D01*
X149863333Y-90348000D01*
X149996666Y-90348000D01*
X150063333Y-90314666D01*
X150096666Y-90281333D01*
X150130000Y-90214666D01*
X151863333Y-90614666D02*
X151463333Y-90614666D01*
X151663333Y-90614666D02*
X151663333Y-89914666D01*
X151596666Y-90014666D01*
X151530000Y-90081333D01*
X151463333Y-90114666D01*
X152296666Y-89914666D02*
X152363333Y-89914666D01*
X152430000Y-89948000D01*
X152463333Y-89981333D01*
X152496666Y-90048000D01*
X152530000Y-90181333D01*
X152530000Y-90348000D01*
X152496666Y-90481333D01*
X152463333Y-90548000D01*
X152430000Y-90581333D01*
X152363333Y-90614666D01*
X152296666Y-90614666D01*
X152230000Y-90581333D01*
X152196666Y-90548000D01*
X152163333Y-90481333D01*
X152130000Y-90348000D01*
X152130000Y-90181333D01*
X152163333Y-90048000D01*
X152196666Y-89981333D01*
X152230000Y-89948000D01*
X152296666Y-89914666D01*
X186130000Y-32954666D02*
X185730000Y-32954666D01*
X185930000Y-32954666D02*
X185930000Y-32254666D01*
X185863333Y-32354666D01*
X185796666Y-32421333D01*
X185730000Y-32454666D01*
X187863333Y-32954666D02*
X187463333Y-32954666D01*
X187663333Y-32954666D02*
X187663333Y-32254666D01*
X187596666Y-32354666D01*
X187530000Y-32421333D01*
X187463333Y-32454666D01*
X188263333Y-32554666D02*
X188196666Y-32521333D01*
X188163333Y-32488000D01*
X188130000Y-32421333D01*
X188130000Y-32388000D01*
X188163333Y-32321333D01*
X188196666Y-32288000D01*
X188263333Y-32254666D01*
X188396666Y-32254666D01*
X188463333Y-32288000D01*
X188496666Y-32321333D01*
X188530000Y-32388000D01*
X188530000Y-32421333D01*
X188496666Y-32488000D01*
X188463333Y-32521333D01*
X188396666Y-32554666D01*
X188263333Y-32554666D01*
X188196666Y-32588000D01*
X188163333Y-32621333D01*
X188130000Y-32688000D01*
X188130000Y-32821333D01*
X188163333Y-32888000D01*
X188196666Y-32921333D01*
X188263333Y-32954666D01*
X188396666Y-32954666D01*
X188463333Y-32921333D01*
X188496666Y-32888000D01*
X188530000Y-32821333D01*
X188530000Y-32688000D01*
X188496666Y-32621333D01*
X188463333Y-32588000D01*
X188396666Y-32554666D01*
X185730000Y-33496333D02*
X185763333Y-33463000D01*
X185830000Y-33429666D01*
X185996666Y-33429666D01*
X186063333Y-33463000D01*
X186096666Y-33496333D01*
X186130000Y-33563000D01*
X186130000Y-33629666D01*
X186096666Y-33729666D01*
X185696666Y-34129666D01*
X186130000Y-34129666D01*
X187863333Y-34129666D02*
X187463333Y-34129666D01*
X187663333Y-34129666D02*
X187663333Y-33429666D01*
X187596666Y-33529666D01*
X187530000Y-33596333D01*
X187463333Y-33629666D01*
X188096666Y-33429666D02*
X188563333Y-33429666D01*
X188263333Y-34129666D01*
X185696666Y-34604666D02*
X186130000Y-34604666D01*
X185896666Y-34871333D01*
X185996666Y-34871333D01*
X186063333Y-34904666D01*
X186096666Y-34938000D01*
X186130000Y-35004666D01*
X186130000Y-35171333D01*
X186096666Y-35238000D01*
X186063333Y-35271333D01*
X185996666Y-35304666D01*
X185796666Y-35304666D01*
X185730000Y-35271333D01*
X185696666Y-35238000D01*
X187863333Y-35304666D02*
X187463333Y-35304666D01*
X187663333Y-35304666D02*
X187663333Y-34604666D01*
X187596666Y-34704666D01*
X187530000Y-34771333D01*
X187463333Y-34804666D01*
X188463333Y-34604666D02*
X188330000Y-34604666D01*
X188263333Y-34638000D01*
X188230000Y-34671333D01*
X188163333Y-34771333D01*
X188130000Y-34904666D01*
X188130000Y-35171333D01*
X188163333Y-35238000D01*
X188196666Y-35271333D01*
X188263333Y-35304666D01*
X188396666Y-35304666D01*
X188463333Y-35271333D01*
X188496666Y-35238000D01*
X188530000Y-35171333D01*
X188530000Y-35004666D01*
X188496666Y-34938000D01*
X188463333Y-34904666D01*
X188396666Y-34871333D01*
X188263333Y-34871333D01*
X188196666Y-34904666D01*
X188163333Y-34938000D01*
X188130000Y-35004666D01*
X186063333Y-36013000D02*
X186063333Y-36479666D01*
X185896666Y-35746333D02*
X185730000Y-36246333D01*
X186163333Y-36246333D01*
X187863333Y-36479666D02*
X187463333Y-36479666D01*
X187663333Y-36479666D02*
X187663333Y-35779666D01*
X187596666Y-35879666D01*
X187530000Y-35946333D01*
X187463333Y-35979666D01*
X188496666Y-35779666D02*
X188163333Y-35779666D01*
X188130000Y-36113000D01*
X188163333Y-36079666D01*
X188230000Y-36046333D01*
X188396666Y-36046333D01*
X188463333Y-36079666D01*
X188496666Y-36113000D01*
X188530000Y-36179666D01*
X188530000Y-36346333D01*
X188496666Y-36413000D01*
X188463333Y-36446333D01*
X188396666Y-36479666D01*
X188230000Y-36479666D01*
X188163333Y-36446333D01*
X188130000Y-36413000D01*
X186096666Y-36954666D02*
X185763333Y-36954666D01*
X185730000Y-37288000D01*
X185763333Y-37254666D01*
X185830000Y-37221333D01*
X185996666Y-37221333D01*
X186063333Y-37254666D01*
X186096666Y-37288000D01*
X186130000Y-37354666D01*
X186130000Y-37521333D01*
X186096666Y-37588000D01*
X186063333Y-37621333D01*
X185996666Y-37654666D01*
X185830000Y-37654666D01*
X185763333Y-37621333D01*
X185730000Y-37588000D01*
X187863333Y-37654666D02*
X187463333Y-37654666D01*
X187663333Y-37654666D02*
X187663333Y-36954666D01*
X187596666Y-37054666D01*
X187530000Y-37121333D01*
X187463333Y-37154666D01*
X188463333Y-37188000D02*
X188463333Y-37654666D01*
X188296666Y-36921333D02*
X188130000Y-37421333D01*
X188563333Y-37421333D01*
X186063333Y-38129666D02*
X185930000Y-38129666D01*
X185863333Y-38163000D01*
X185830000Y-38196333D01*
X185763333Y-38296333D01*
X185730000Y-38429666D01*
X185730000Y-38696333D01*
X185763333Y-38763000D01*
X185796666Y-38796333D01*
X185863333Y-38829666D01*
X185996666Y-38829666D01*
X186063333Y-38796333D01*
X186096666Y-38763000D01*
X186130000Y-38696333D01*
X186130000Y-38529666D01*
X186096666Y-38463000D01*
X186063333Y-38429666D01*
X185996666Y-38396333D01*
X185863333Y-38396333D01*
X185796666Y-38429666D01*
X185763333Y-38463000D01*
X185730000Y-38529666D01*
X187863333Y-38829666D02*
X187463333Y-38829666D01*
X187663333Y-38829666D02*
X187663333Y-38129666D01*
X187596666Y-38229666D01*
X187530000Y-38296333D01*
X187463333Y-38329666D01*
X188096666Y-38129666D02*
X188530000Y-38129666D01*
X188296666Y-38396333D01*
X188396666Y-38396333D01*
X188463333Y-38429666D01*
X188496666Y-38463000D01*
X188530000Y-38529666D01*
X188530000Y-38696333D01*
X188496666Y-38763000D01*
X188463333Y-38796333D01*
X188396666Y-38829666D01*
X188196666Y-38829666D01*
X188130000Y-38796333D01*
X188096666Y-38763000D01*
X185646666Y-39304666D02*
X186113333Y-39304666D01*
X185813333Y-40004666D01*
X187446666Y-40004666D02*
X187446666Y-39304666D01*
X187846666Y-40004666D01*
X187846666Y-39304666D01*
X188580000Y-39938000D02*
X188546666Y-39971333D01*
X188446666Y-40004666D01*
X188380000Y-40004666D01*
X188280000Y-39971333D01*
X188213333Y-39904666D01*
X188180000Y-39838000D01*
X188146666Y-39704666D01*
X188146666Y-39604666D01*
X188180000Y-39471333D01*
X188213333Y-39404666D01*
X188280000Y-39338000D01*
X188380000Y-39304666D01*
X188446666Y-39304666D01*
X188546666Y-39338000D01*
X188580000Y-39371333D01*
X185863333Y-40779666D02*
X185796666Y-40746333D01*
X185763333Y-40713000D01*
X185730000Y-40646333D01*
X185730000Y-40613000D01*
X185763333Y-40546333D01*
X185796666Y-40513000D01*
X185863333Y-40479666D01*
X185996666Y-40479666D01*
X186063333Y-40513000D01*
X186096666Y-40546333D01*
X186130000Y-40613000D01*
X186130000Y-40646333D01*
X186096666Y-40713000D01*
X186063333Y-40746333D01*
X185996666Y-40779666D01*
X185863333Y-40779666D01*
X185796666Y-40813000D01*
X185763333Y-40846333D01*
X185730000Y-40913000D01*
X185730000Y-41046333D01*
X185763333Y-41113000D01*
X185796666Y-41146333D01*
X185863333Y-41179666D01*
X185996666Y-41179666D01*
X186063333Y-41146333D01*
X186096666Y-41113000D01*
X186130000Y-41046333D01*
X186130000Y-40913000D01*
X186096666Y-40846333D01*
X186063333Y-40813000D01*
X185996666Y-40779666D01*
X187863333Y-41179666D02*
X187463333Y-41179666D01*
X187663333Y-41179666D02*
X187663333Y-40479666D01*
X187596666Y-40579666D01*
X187530000Y-40646333D01*
X187463333Y-40679666D01*
X188530000Y-41179666D02*
X188130000Y-41179666D01*
X188330000Y-41179666D02*
X188330000Y-40479666D01*
X188263333Y-40579666D01*
X188196666Y-40646333D01*
X188130000Y-40679666D01*
X185796666Y-42354666D02*
X185930000Y-42354666D01*
X185996666Y-42321333D01*
X186030000Y-42288000D01*
X186096666Y-42188000D01*
X186130000Y-42054666D01*
X186130000Y-41788000D01*
X186096666Y-41721333D01*
X186063333Y-41688000D01*
X185996666Y-41654666D01*
X185863333Y-41654666D01*
X185796666Y-41688000D01*
X185763333Y-41721333D01*
X185730000Y-41788000D01*
X185730000Y-41954666D01*
X185763333Y-42021333D01*
X185796666Y-42054666D01*
X185863333Y-42088000D01*
X185996666Y-42088000D01*
X186063333Y-42054666D01*
X186096666Y-42021333D01*
X186130000Y-41954666D01*
X187863333Y-42354666D02*
X187463333Y-42354666D01*
X187663333Y-42354666D02*
X187663333Y-41654666D01*
X187596666Y-41754666D01*
X187530000Y-41821333D01*
X187463333Y-41854666D01*
X188296666Y-41654666D02*
X188363333Y-41654666D01*
X188430000Y-41688000D01*
X188463333Y-41721333D01*
X188496666Y-41788000D01*
X188530000Y-41921333D01*
X188530000Y-42088000D01*
X188496666Y-42221333D01*
X188463333Y-42288000D01*
X188430000Y-42321333D01*
X188363333Y-42354666D01*
X188296666Y-42354666D01*
X188230000Y-42321333D01*
X188196666Y-42288000D01*
X188163333Y-42221333D01*
X188130000Y-42088000D01*
X188130000Y-41921333D01*
X188163333Y-41788000D01*
X188196666Y-41721333D01*
X188230000Y-41688000D01*
X188296666Y-41654666D01*
D11*
X186257142Y-119213761D02*
X186400000Y-119261380D01*
X186638095Y-119261380D01*
X186733333Y-119213761D01*
X186780952Y-119166142D01*
X186828571Y-119070904D01*
X186828571Y-118975666D01*
X186780952Y-118880428D01*
X186733333Y-118832809D01*
X186638095Y-118785190D01*
X186447619Y-118737571D01*
X186352380Y-118689952D01*
X186304761Y-118642333D01*
X186257142Y-118547095D01*
X186257142Y-118451857D01*
X186304761Y-118356619D01*
X186352380Y-118309000D01*
X186447619Y-118261380D01*
X186685714Y-118261380D01*
X186828571Y-118309000D01*
X187209523Y-118975666D02*
X187685714Y-118975666D01*
X187114285Y-119261380D02*
X187447619Y-118261380D01*
X187780952Y-119261380D01*
X188257142Y-118689952D02*
X188161904Y-118642333D01*
X188114285Y-118594714D01*
X188066666Y-118499476D01*
X188066666Y-118451857D01*
X188114285Y-118356619D01*
X188161904Y-118309000D01*
X188257142Y-118261380D01*
X188447619Y-118261380D01*
X188542857Y-118309000D01*
X188590476Y-118356619D01*
X188638095Y-118451857D01*
X188638095Y-118499476D01*
X188590476Y-118594714D01*
X188542857Y-118642333D01*
X188447619Y-118689952D01*
X188257142Y-118689952D01*
X188161904Y-118737571D01*
X188114285Y-118785190D01*
X188066666Y-118880428D01*
X188066666Y-119070904D01*
X188114285Y-119166142D01*
X188161904Y-119213761D01*
X188257142Y-119261380D01*
X188447619Y-119261380D01*
X188542857Y-119213761D01*
X188590476Y-119166142D01*
X188638095Y-119070904D01*
X188638095Y-118880428D01*
X188590476Y-118785190D01*
X188542857Y-118737571D01*
X188447619Y-118689952D01*
X189590476Y-119261380D02*
X189019047Y-119261380D01*
X189304761Y-119261380D02*
X189304761Y-118261380D01*
X189209523Y-118404238D01*
X189114285Y-118499476D01*
X189019047Y-118547095D01*
X190161904Y-118689952D02*
X190066666Y-118642333D01*
X190019047Y-118594714D01*
X189971428Y-118499476D01*
X189971428Y-118451857D01*
X190019047Y-118356619D01*
X190066666Y-118309000D01*
X190161904Y-118261380D01*
X190352380Y-118261380D01*
X190447619Y-118309000D01*
X190495238Y-118356619D01*
X190542857Y-118451857D01*
X190542857Y-118499476D01*
X190495238Y-118594714D01*
X190447619Y-118642333D01*
X190352380Y-118689952D01*
X190161904Y-118689952D01*
X190066666Y-118737571D01*
X190019047Y-118785190D01*
X189971428Y-118880428D01*
X189971428Y-119070904D01*
X190019047Y-119166142D01*
X190066666Y-119213761D01*
X190161904Y-119261380D01*
X190352380Y-119261380D01*
X190447619Y-119213761D01*
X190495238Y-119166142D01*
X190542857Y-119070904D01*
X190542857Y-118880428D01*
X190495238Y-118785190D01*
X190447619Y-118737571D01*
X190352380Y-118689952D01*
X187495238Y-120911380D02*
X187495238Y-119911380D01*
X187733333Y-119911380D01*
X187876190Y-119959000D01*
X187971428Y-120054238D01*
X188019047Y-120149476D01*
X188066666Y-120339952D01*
X188066666Y-120482809D01*
X188019047Y-120673285D01*
X187971428Y-120768523D01*
X187876190Y-120863761D01*
X187733333Y-120911380D01*
X187495238Y-120911380D01*
X188495238Y-120911380D02*
X188495238Y-119911380D01*
X189447619Y-120911380D02*
X188971428Y-120911380D01*
X188971428Y-119911380D01*
X150257142Y-119213761D02*
X150400000Y-119261380D01*
X150638095Y-119261380D01*
X150733333Y-119213761D01*
X150780952Y-119166142D01*
X150828571Y-119070904D01*
X150828571Y-118975666D01*
X150780952Y-118880428D01*
X150733333Y-118832809D01*
X150638095Y-118785190D01*
X150447619Y-118737571D01*
X150352380Y-118689952D01*
X150304761Y-118642333D01*
X150257142Y-118547095D01*
X150257142Y-118451857D01*
X150304761Y-118356619D01*
X150352380Y-118309000D01*
X150447619Y-118261380D01*
X150685714Y-118261380D01*
X150828571Y-118309000D01*
X151209523Y-118975666D02*
X151685714Y-118975666D01*
X151114285Y-119261380D02*
X151447619Y-118261380D01*
X151780952Y-119261380D01*
X152257142Y-118689952D02*
X152161904Y-118642333D01*
X152114285Y-118594714D01*
X152066666Y-118499476D01*
X152066666Y-118451857D01*
X152114285Y-118356619D01*
X152161904Y-118309000D01*
X152257142Y-118261380D01*
X152447619Y-118261380D01*
X152542857Y-118309000D01*
X152590476Y-118356619D01*
X152638095Y-118451857D01*
X152638095Y-118499476D01*
X152590476Y-118594714D01*
X152542857Y-118642333D01*
X152447619Y-118689952D01*
X152257142Y-118689952D01*
X152161904Y-118737571D01*
X152114285Y-118785190D01*
X152066666Y-118880428D01*
X152066666Y-119070904D01*
X152114285Y-119166142D01*
X152161904Y-119213761D01*
X152257142Y-119261380D01*
X152447619Y-119261380D01*
X152542857Y-119213761D01*
X152590476Y-119166142D01*
X152638095Y-119070904D01*
X152638095Y-118880428D01*
X152590476Y-118785190D01*
X152542857Y-118737571D01*
X152447619Y-118689952D01*
X153590476Y-119261380D02*
X153019047Y-119261380D01*
X153304761Y-119261380D02*
X153304761Y-118261380D01*
X153209523Y-118404238D01*
X153114285Y-118499476D01*
X153019047Y-118547095D01*
X154161904Y-118689952D02*
X154066666Y-118642333D01*
X154019047Y-118594714D01*
X153971428Y-118499476D01*
X153971428Y-118451857D01*
X154019047Y-118356619D01*
X154066666Y-118309000D01*
X154161904Y-118261380D01*
X154352380Y-118261380D01*
X154447619Y-118309000D01*
X154495238Y-118356619D01*
X154542857Y-118451857D01*
X154542857Y-118499476D01*
X154495238Y-118594714D01*
X154447619Y-118642333D01*
X154352380Y-118689952D01*
X154161904Y-118689952D01*
X154066666Y-118737571D01*
X154019047Y-118785190D01*
X153971428Y-118880428D01*
X153971428Y-119070904D01*
X154019047Y-119166142D01*
X154066666Y-119213761D01*
X154161904Y-119261380D01*
X154352380Y-119261380D01*
X154447619Y-119213761D01*
X154495238Y-119166142D01*
X154542857Y-119070904D01*
X154542857Y-118880428D01*
X154495238Y-118785190D01*
X154447619Y-118737571D01*
X154352380Y-118689952D01*
X151495238Y-120911380D02*
X151495238Y-119911380D01*
X151733333Y-119911380D01*
X151876190Y-119959000D01*
X151971428Y-120054238D01*
X152019047Y-120149476D01*
X152066666Y-120339952D01*
X152066666Y-120482809D01*
X152019047Y-120673285D01*
X151971428Y-120768523D01*
X151876190Y-120863761D01*
X151733333Y-120911380D01*
X151495238Y-120911380D01*
X152495238Y-120911380D02*
X152495238Y-119911380D01*
X153447619Y-120911380D02*
X152971428Y-120911380D01*
X152971428Y-119911380D01*
X186257142Y-70953761D02*
X186400000Y-71001380D01*
X186638095Y-71001380D01*
X186733333Y-70953761D01*
X186780952Y-70906142D01*
X186828571Y-70810904D01*
X186828571Y-70715666D01*
X186780952Y-70620428D01*
X186733333Y-70572809D01*
X186638095Y-70525190D01*
X186447619Y-70477571D01*
X186352380Y-70429952D01*
X186304761Y-70382333D01*
X186257142Y-70287095D01*
X186257142Y-70191857D01*
X186304761Y-70096619D01*
X186352380Y-70049000D01*
X186447619Y-70001380D01*
X186685714Y-70001380D01*
X186828571Y-70049000D01*
X187209523Y-70715666D02*
X187685714Y-70715666D01*
X187114285Y-71001380D02*
X187447619Y-70001380D01*
X187780952Y-71001380D01*
X188257142Y-70429952D02*
X188161904Y-70382333D01*
X188114285Y-70334714D01*
X188066666Y-70239476D01*
X188066666Y-70191857D01*
X188114285Y-70096619D01*
X188161904Y-70049000D01*
X188257142Y-70001380D01*
X188447619Y-70001380D01*
X188542857Y-70049000D01*
X188590476Y-70096619D01*
X188638095Y-70191857D01*
X188638095Y-70239476D01*
X188590476Y-70334714D01*
X188542857Y-70382333D01*
X188447619Y-70429952D01*
X188257142Y-70429952D01*
X188161904Y-70477571D01*
X188114285Y-70525190D01*
X188066666Y-70620428D01*
X188066666Y-70810904D01*
X188114285Y-70906142D01*
X188161904Y-70953761D01*
X188257142Y-71001380D01*
X188447619Y-71001380D01*
X188542857Y-70953761D01*
X188590476Y-70906142D01*
X188638095Y-70810904D01*
X188638095Y-70620428D01*
X188590476Y-70525190D01*
X188542857Y-70477571D01*
X188447619Y-70429952D01*
X189590476Y-71001380D02*
X189019047Y-71001380D01*
X189304761Y-71001380D02*
X189304761Y-70001380D01*
X189209523Y-70144238D01*
X189114285Y-70239476D01*
X189019047Y-70287095D01*
X190161904Y-70429952D02*
X190066666Y-70382333D01*
X190019047Y-70334714D01*
X189971428Y-70239476D01*
X189971428Y-70191857D01*
X190019047Y-70096619D01*
X190066666Y-70049000D01*
X190161904Y-70001380D01*
X190352380Y-70001380D01*
X190447619Y-70049000D01*
X190495238Y-70096619D01*
X190542857Y-70191857D01*
X190542857Y-70239476D01*
X190495238Y-70334714D01*
X190447619Y-70382333D01*
X190352380Y-70429952D01*
X190161904Y-70429952D01*
X190066666Y-70477571D01*
X190019047Y-70525190D01*
X189971428Y-70620428D01*
X189971428Y-70810904D01*
X190019047Y-70906142D01*
X190066666Y-70953761D01*
X190161904Y-71001380D01*
X190352380Y-71001380D01*
X190447619Y-70953761D01*
X190495238Y-70906142D01*
X190542857Y-70810904D01*
X190542857Y-70620428D01*
X190495238Y-70525190D01*
X190447619Y-70477571D01*
X190352380Y-70429952D01*
X187495238Y-72651380D02*
X187495238Y-71651380D01*
X187733333Y-71651380D01*
X187876190Y-71699000D01*
X187971428Y-71794238D01*
X188019047Y-71889476D01*
X188066666Y-72079952D01*
X188066666Y-72222809D01*
X188019047Y-72413285D01*
X187971428Y-72508523D01*
X187876190Y-72603761D01*
X187733333Y-72651380D01*
X187495238Y-72651380D01*
X188495238Y-72651380D02*
X188495238Y-71651380D01*
X189447619Y-72651380D02*
X188971428Y-72651380D01*
X188971428Y-71651380D01*
X150257142Y-70953761D02*
X150400000Y-71001380D01*
X150638095Y-71001380D01*
X150733333Y-70953761D01*
X150780952Y-70906142D01*
X150828571Y-70810904D01*
X150828571Y-70715666D01*
X150780952Y-70620428D01*
X150733333Y-70572809D01*
X150638095Y-70525190D01*
X150447619Y-70477571D01*
X150352380Y-70429952D01*
X150304761Y-70382333D01*
X150257142Y-70287095D01*
X150257142Y-70191857D01*
X150304761Y-70096619D01*
X150352380Y-70049000D01*
X150447619Y-70001380D01*
X150685714Y-70001380D01*
X150828571Y-70049000D01*
X151209523Y-70715666D02*
X151685714Y-70715666D01*
X151114285Y-71001380D02*
X151447619Y-70001380D01*
X151780952Y-71001380D01*
X152257142Y-70429952D02*
X152161904Y-70382333D01*
X152114285Y-70334714D01*
X152066666Y-70239476D01*
X152066666Y-70191857D01*
X152114285Y-70096619D01*
X152161904Y-70049000D01*
X152257142Y-70001380D01*
X152447619Y-70001380D01*
X152542857Y-70049000D01*
X152590476Y-70096619D01*
X152638095Y-70191857D01*
X152638095Y-70239476D01*
X152590476Y-70334714D01*
X152542857Y-70382333D01*
X152447619Y-70429952D01*
X152257142Y-70429952D01*
X152161904Y-70477571D01*
X152114285Y-70525190D01*
X152066666Y-70620428D01*
X152066666Y-70810904D01*
X152114285Y-70906142D01*
X152161904Y-70953761D01*
X152257142Y-71001380D01*
X152447619Y-71001380D01*
X152542857Y-70953761D01*
X152590476Y-70906142D01*
X152638095Y-70810904D01*
X152638095Y-70620428D01*
X152590476Y-70525190D01*
X152542857Y-70477571D01*
X152447619Y-70429952D01*
X153590476Y-71001380D02*
X153019047Y-71001380D01*
X153304761Y-71001380D02*
X153304761Y-70001380D01*
X153209523Y-70144238D01*
X153114285Y-70239476D01*
X153019047Y-70287095D01*
X154161904Y-70429952D02*
X154066666Y-70382333D01*
X154019047Y-70334714D01*
X153971428Y-70239476D01*
X153971428Y-70191857D01*
X154019047Y-70096619D01*
X154066666Y-70049000D01*
X154161904Y-70001380D01*
X154352380Y-70001380D01*
X154447619Y-70049000D01*
X154495238Y-70096619D01*
X154542857Y-70191857D01*
X154542857Y-70239476D01*
X154495238Y-70334714D01*
X154447619Y-70382333D01*
X154352380Y-70429952D01*
X154161904Y-70429952D01*
X154066666Y-70477571D01*
X154019047Y-70525190D01*
X153971428Y-70620428D01*
X153971428Y-70810904D01*
X154019047Y-70906142D01*
X154066666Y-70953761D01*
X154161904Y-71001380D01*
X154352380Y-71001380D01*
X154447619Y-70953761D01*
X154495238Y-70906142D01*
X154542857Y-70810904D01*
X154542857Y-70620428D01*
X154495238Y-70525190D01*
X154447619Y-70477571D01*
X154352380Y-70429952D01*
X151495238Y-72651380D02*
X151495238Y-71651380D01*
X151733333Y-71651380D01*
X151876190Y-71699000D01*
X151971428Y-71794238D01*
X152019047Y-71889476D01*
X152066666Y-72079952D01*
X152066666Y-72222809D01*
X152019047Y-72413285D01*
X151971428Y-72508523D01*
X151876190Y-72603761D01*
X151733333Y-72651380D01*
X151495238Y-72651380D01*
X152495238Y-72651380D02*
X152495238Y-71651380D01*
X153447619Y-72651380D02*
X152971428Y-72651380D01*
X152971428Y-71651380D01*
D10*
X150130000Y-32954666D02*
X149730000Y-32954666D01*
X149930000Y-32954666D02*
X149930000Y-32254666D01*
X149863333Y-32354666D01*
X149796666Y-32421333D01*
X149730000Y-32454666D01*
X151863333Y-32954666D02*
X151463333Y-32954666D01*
X151663333Y-32954666D02*
X151663333Y-32254666D01*
X151596666Y-32354666D01*
X151530000Y-32421333D01*
X151463333Y-32454666D01*
X152263333Y-32554666D02*
X152196666Y-32521333D01*
X152163333Y-32488000D01*
X152130000Y-32421333D01*
X152130000Y-32388000D01*
X152163333Y-32321333D01*
X152196666Y-32288000D01*
X152263333Y-32254666D01*
X152396666Y-32254666D01*
X152463333Y-32288000D01*
X152496666Y-32321333D01*
X152530000Y-32388000D01*
X152530000Y-32421333D01*
X152496666Y-32488000D01*
X152463333Y-32521333D01*
X152396666Y-32554666D01*
X152263333Y-32554666D01*
X152196666Y-32588000D01*
X152163333Y-32621333D01*
X152130000Y-32688000D01*
X152130000Y-32821333D01*
X152163333Y-32888000D01*
X152196666Y-32921333D01*
X152263333Y-32954666D01*
X152396666Y-32954666D01*
X152463333Y-32921333D01*
X152496666Y-32888000D01*
X152530000Y-32821333D01*
X152530000Y-32688000D01*
X152496666Y-32621333D01*
X152463333Y-32588000D01*
X152396666Y-32554666D01*
X149730000Y-33496333D02*
X149763333Y-33463000D01*
X149830000Y-33429666D01*
X149996666Y-33429666D01*
X150063333Y-33463000D01*
X150096666Y-33496333D01*
X150130000Y-33563000D01*
X150130000Y-33629666D01*
X150096666Y-33729666D01*
X149696666Y-34129666D01*
X150130000Y-34129666D01*
X151863333Y-34129666D02*
X151463333Y-34129666D01*
X151663333Y-34129666D02*
X151663333Y-33429666D01*
X151596666Y-33529666D01*
X151530000Y-33596333D01*
X151463333Y-33629666D01*
X152096666Y-33429666D02*
X152563333Y-33429666D01*
X152263333Y-34129666D01*
X149696666Y-34604666D02*
X150130000Y-34604666D01*
X149896666Y-34871333D01*
X149996666Y-34871333D01*
X150063333Y-34904666D01*
X150096666Y-34938000D01*
X150130000Y-35004666D01*
X150130000Y-35171333D01*
X150096666Y-35238000D01*
X150063333Y-35271333D01*
X149996666Y-35304666D01*
X149796666Y-35304666D01*
X149730000Y-35271333D01*
X149696666Y-35238000D01*
X151863333Y-35304666D02*
X151463333Y-35304666D01*
X151663333Y-35304666D02*
X151663333Y-34604666D01*
X151596666Y-34704666D01*
X151530000Y-34771333D01*
X151463333Y-34804666D01*
X152463333Y-34604666D02*
X152330000Y-34604666D01*
X152263333Y-34638000D01*
X152230000Y-34671333D01*
X152163333Y-34771333D01*
X152130000Y-34904666D01*
X152130000Y-35171333D01*
X152163333Y-35238000D01*
X152196666Y-35271333D01*
X152263333Y-35304666D01*
X152396666Y-35304666D01*
X152463333Y-35271333D01*
X152496666Y-35238000D01*
X152530000Y-35171333D01*
X152530000Y-35004666D01*
X152496666Y-34938000D01*
X152463333Y-34904666D01*
X152396666Y-34871333D01*
X152263333Y-34871333D01*
X152196666Y-34904666D01*
X152163333Y-34938000D01*
X152130000Y-35004666D01*
X150063333Y-36013000D02*
X150063333Y-36479666D01*
X149896666Y-35746333D02*
X149730000Y-36246333D01*
X150163333Y-36246333D01*
X151863333Y-36479666D02*
X151463333Y-36479666D01*
X151663333Y-36479666D02*
X151663333Y-35779666D01*
X151596666Y-35879666D01*
X151530000Y-35946333D01*
X151463333Y-35979666D01*
X152496666Y-35779666D02*
X152163333Y-35779666D01*
X152130000Y-36113000D01*
X152163333Y-36079666D01*
X152230000Y-36046333D01*
X152396666Y-36046333D01*
X152463333Y-36079666D01*
X152496666Y-36113000D01*
X152530000Y-36179666D01*
X152530000Y-36346333D01*
X152496666Y-36413000D01*
X152463333Y-36446333D01*
X152396666Y-36479666D01*
X152230000Y-36479666D01*
X152163333Y-36446333D01*
X152130000Y-36413000D01*
X150096666Y-36954666D02*
X149763333Y-36954666D01*
X149730000Y-37288000D01*
X149763333Y-37254666D01*
X149830000Y-37221333D01*
X149996666Y-37221333D01*
X150063333Y-37254666D01*
X150096666Y-37288000D01*
X150130000Y-37354666D01*
X150130000Y-37521333D01*
X150096666Y-37588000D01*
X150063333Y-37621333D01*
X149996666Y-37654666D01*
X149830000Y-37654666D01*
X149763333Y-37621333D01*
X149730000Y-37588000D01*
X151863333Y-37654666D02*
X151463333Y-37654666D01*
X151663333Y-37654666D02*
X151663333Y-36954666D01*
X151596666Y-37054666D01*
X151530000Y-37121333D01*
X151463333Y-37154666D01*
X152463333Y-37188000D02*
X152463333Y-37654666D01*
X152296666Y-36921333D02*
X152130000Y-37421333D01*
X152563333Y-37421333D01*
X150063333Y-38129666D02*
X149930000Y-38129666D01*
X149863333Y-38163000D01*
X149830000Y-38196333D01*
X149763333Y-38296333D01*
X149730000Y-38429666D01*
X149730000Y-38696333D01*
X149763333Y-38763000D01*
X149796666Y-38796333D01*
X149863333Y-38829666D01*
X149996666Y-38829666D01*
X150063333Y-38796333D01*
X150096666Y-38763000D01*
X150130000Y-38696333D01*
X150130000Y-38529666D01*
X150096666Y-38463000D01*
X150063333Y-38429666D01*
X149996666Y-38396333D01*
X149863333Y-38396333D01*
X149796666Y-38429666D01*
X149763333Y-38463000D01*
X149730000Y-38529666D01*
X151863333Y-38829666D02*
X151463333Y-38829666D01*
X151663333Y-38829666D02*
X151663333Y-38129666D01*
X151596666Y-38229666D01*
X151530000Y-38296333D01*
X151463333Y-38329666D01*
X152096666Y-38129666D02*
X152530000Y-38129666D01*
X152296666Y-38396333D01*
X152396666Y-38396333D01*
X152463333Y-38429666D01*
X152496666Y-38463000D01*
X152530000Y-38529666D01*
X152530000Y-38696333D01*
X152496666Y-38763000D01*
X152463333Y-38796333D01*
X152396666Y-38829666D01*
X152196666Y-38829666D01*
X152130000Y-38796333D01*
X152096666Y-38763000D01*
X149646666Y-39304666D02*
X150113333Y-39304666D01*
X149813333Y-40004666D01*
X151446666Y-40004666D02*
X151446666Y-39304666D01*
X151846666Y-40004666D01*
X151846666Y-39304666D01*
X152580000Y-39938000D02*
X152546666Y-39971333D01*
X152446666Y-40004666D01*
X152380000Y-40004666D01*
X152280000Y-39971333D01*
X152213333Y-39904666D01*
X152180000Y-39838000D01*
X152146666Y-39704666D01*
X152146666Y-39604666D01*
X152180000Y-39471333D01*
X152213333Y-39404666D01*
X152280000Y-39338000D01*
X152380000Y-39304666D01*
X152446666Y-39304666D01*
X152546666Y-39338000D01*
X152580000Y-39371333D01*
X149863333Y-40779666D02*
X149796666Y-40746333D01*
X149763333Y-40713000D01*
X149730000Y-40646333D01*
X149730000Y-40613000D01*
X149763333Y-40546333D01*
X149796666Y-40513000D01*
X149863333Y-40479666D01*
X149996666Y-40479666D01*
X150063333Y-40513000D01*
X150096666Y-40546333D01*
X150130000Y-40613000D01*
X150130000Y-40646333D01*
X150096666Y-40713000D01*
X150063333Y-40746333D01*
X149996666Y-40779666D01*
X149863333Y-40779666D01*
X149796666Y-40813000D01*
X149763333Y-40846333D01*
X149730000Y-40913000D01*
X149730000Y-41046333D01*
X149763333Y-41113000D01*
X149796666Y-41146333D01*
X149863333Y-41179666D01*
X149996666Y-41179666D01*
X150063333Y-41146333D01*
X150096666Y-41113000D01*
X150130000Y-41046333D01*
X150130000Y-40913000D01*
X150096666Y-40846333D01*
X150063333Y-40813000D01*
X149996666Y-40779666D01*
X151863333Y-41179666D02*
X151463333Y-41179666D01*
X151663333Y-41179666D02*
X151663333Y-40479666D01*
X151596666Y-40579666D01*
X151530000Y-40646333D01*
X151463333Y-40679666D01*
X152530000Y-41179666D02*
X152130000Y-41179666D01*
X152330000Y-41179666D02*
X152330000Y-40479666D01*
X152263333Y-40579666D01*
X152196666Y-40646333D01*
X152130000Y-40679666D01*
X149796666Y-42354666D02*
X149930000Y-42354666D01*
X149996666Y-42321333D01*
X150030000Y-42288000D01*
X150096666Y-42188000D01*
X150130000Y-42054666D01*
X150130000Y-41788000D01*
X150096666Y-41721333D01*
X150063333Y-41688000D01*
X149996666Y-41654666D01*
X149863333Y-41654666D01*
X149796666Y-41688000D01*
X149763333Y-41721333D01*
X149730000Y-41788000D01*
X149730000Y-41954666D01*
X149763333Y-42021333D01*
X149796666Y-42054666D01*
X149863333Y-42088000D01*
X149996666Y-42088000D01*
X150063333Y-42054666D01*
X150096666Y-42021333D01*
X150130000Y-41954666D01*
X151863333Y-42354666D02*
X151463333Y-42354666D01*
X151663333Y-42354666D02*
X151663333Y-41654666D01*
X151596666Y-41754666D01*
X151530000Y-41821333D01*
X151463333Y-41854666D01*
X152296666Y-41654666D02*
X152363333Y-41654666D01*
X152430000Y-41688000D01*
X152463333Y-41721333D01*
X152496666Y-41788000D01*
X152530000Y-41921333D01*
X152530000Y-42088000D01*
X152496666Y-42221333D01*
X152463333Y-42288000D01*
X152430000Y-42321333D01*
X152363333Y-42354666D01*
X152296666Y-42354666D01*
X152230000Y-42321333D01*
X152196666Y-42288000D01*
X152163333Y-42221333D01*
X152130000Y-42088000D01*
X152130000Y-41921333D01*
X152163333Y-41788000D01*
X152196666Y-41721333D01*
X152230000Y-41688000D01*
X152296666Y-41654666D01*
X121913666Y-32954666D02*
X121513666Y-32954666D01*
X121713666Y-32954666D02*
X121713666Y-32254666D01*
X121647000Y-32354666D01*
X121580333Y-32421333D01*
X121513666Y-32454666D01*
X122313666Y-32554666D02*
X122247000Y-32521333D01*
X122213666Y-32488000D01*
X122180333Y-32421333D01*
X122180333Y-32388000D01*
X122213666Y-32321333D01*
X122247000Y-32288000D01*
X122313666Y-32254666D01*
X122447000Y-32254666D01*
X122513666Y-32288000D01*
X122547000Y-32321333D01*
X122580333Y-32388000D01*
X122580333Y-32421333D01*
X122547000Y-32488000D01*
X122513666Y-32521333D01*
X122447000Y-32554666D01*
X122313666Y-32554666D01*
X122247000Y-32588000D01*
X122213666Y-32621333D01*
X122180333Y-32688000D01*
X122180333Y-32821333D01*
X122213666Y-32888000D01*
X122247000Y-32921333D01*
X122313666Y-32954666D01*
X122447000Y-32954666D01*
X122513666Y-32921333D01*
X122547000Y-32888000D01*
X122580333Y-32821333D01*
X122580333Y-32688000D01*
X122547000Y-32621333D01*
X122513666Y-32588000D01*
X122447000Y-32554666D01*
X121913666Y-34129666D02*
X121513666Y-34129666D01*
X121713666Y-34129666D02*
X121713666Y-33429666D01*
X121647000Y-33529666D01*
X121580333Y-33596333D01*
X121513666Y-33629666D01*
X122147000Y-33429666D02*
X122613666Y-33429666D01*
X122313666Y-34129666D01*
X121913666Y-35304666D02*
X121513666Y-35304666D01*
X121713666Y-35304666D02*
X121713666Y-34604666D01*
X121647000Y-34704666D01*
X121580333Y-34771333D01*
X121513666Y-34804666D01*
X122513666Y-34604666D02*
X122380333Y-34604666D01*
X122313666Y-34638000D01*
X122280333Y-34671333D01*
X122213666Y-34771333D01*
X122180333Y-34904666D01*
X122180333Y-35171333D01*
X122213666Y-35238000D01*
X122247000Y-35271333D01*
X122313666Y-35304666D01*
X122447000Y-35304666D01*
X122513666Y-35271333D01*
X122547000Y-35238000D01*
X122580333Y-35171333D01*
X122580333Y-35004666D01*
X122547000Y-34938000D01*
X122513666Y-34904666D01*
X122447000Y-34871333D01*
X122313666Y-34871333D01*
X122247000Y-34904666D01*
X122213666Y-34938000D01*
X122180333Y-35004666D01*
X121913666Y-36479666D02*
X121513666Y-36479666D01*
X121713666Y-36479666D02*
X121713666Y-35779666D01*
X121647000Y-35879666D01*
X121580333Y-35946333D01*
X121513666Y-35979666D01*
X122547000Y-35779666D02*
X122213666Y-35779666D01*
X122180333Y-36113000D01*
X122213666Y-36079666D01*
X122280333Y-36046333D01*
X122447000Y-36046333D01*
X122513666Y-36079666D01*
X122547000Y-36113000D01*
X122580333Y-36179666D01*
X122580333Y-36346333D01*
X122547000Y-36413000D01*
X122513666Y-36446333D01*
X122447000Y-36479666D01*
X122280333Y-36479666D01*
X122213666Y-36446333D01*
X122180333Y-36413000D01*
X121913666Y-37654666D02*
X121513666Y-37654666D01*
X121713666Y-37654666D02*
X121713666Y-36954666D01*
X121647000Y-37054666D01*
X121580333Y-37121333D01*
X121513666Y-37154666D01*
X122513666Y-37188000D02*
X122513666Y-37654666D01*
X122347000Y-36921333D02*
X122180333Y-37421333D01*
X122613666Y-37421333D01*
X121913666Y-38829666D02*
X121513666Y-38829666D01*
X121713666Y-38829666D02*
X121713666Y-38129666D01*
X121647000Y-38229666D01*
X121580333Y-38296333D01*
X121513666Y-38329666D01*
X122147000Y-38129666D02*
X122580333Y-38129666D01*
X122347000Y-38396333D01*
X122447000Y-38396333D01*
X122513666Y-38429666D01*
X122547000Y-38463000D01*
X122580333Y-38529666D01*
X122580333Y-38696333D01*
X122547000Y-38763000D01*
X122513666Y-38796333D01*
X122447000Y-38829666D01*
X122247000Y-38829666D01*
X122180333Y-38796333D01*
X122147000Y-38763000D01*
X121497000Y-40004666D02*
X121497000Y-39304666D01*
X121897000Y-40004666D01*
X121897000Y-39304666D01*
X122630333Y-39938000D02*
X122597000Y-39971333D01*
X122497000Y-40004666D01*
X122430333Y-40004666D01*
X122330333Y-39971333D01*
X122263666Y-39904666D01*
X122230333Y-39838000D01*
X122197000Y-39704666D01*
X122197000Y-39604666D01*
X122230333Y-39471333D01*
X122263666Y-39404666D01*
X122330333Y-39338000D01*
X122430333Y-39304666D01*
X122497000Y-39304666D01*
X122597000Y-39338000D01*
X122630333Y-39371333D01*
X121913666Y-41179666D02*
X121513666Y-41179666D01*
X121713666Y-41179666D02*
X121713666Y-40479666D01*
X121647000Y-40579666D01*
X121580333Y-40646333D01*
X121513666Y-40679666D01*
X122580333Y-41179666D02*
X122180333Y-41179666D01*
X122380333Y-41179666D02*
X122380333Y-40479666D01*
X122313666Y-40579666D01*
X122247000Y-40646333D01*
X122180333Y-40679666D01*
X121913666Y-42354666D02*
X121513666Y-42354666D01*
X121713666Y-42354666D02*
X121713666Y-41654666D01*
X121647000Y-41754666D01*
X121580333Y-41821333D01*
X121513666Y-41854666D01*
X122347000Y-41654666D02*
X122413666Y-41654666D01*
X122480333Y-41688000D01*
X122513666Y-41721333D01*
X122547000Y-41788000D01*
X122580333Y-41921333D01*
X122580333Y-42088000D01*
X122547000Y-42221333D01*
X122513666Y-42288000D01*
X122480333Y-42321333D01*
X122413666Y-42354666D01*
X122347000Y-42354666D01*
X122280333Y-42321333D01*
X122247000Y-42288000D01*
X122213666Y-42221333D01*
X122180333Y-42088000D01*
X122180333Y-41921333D01*
X122213666Y-41788000D01*
X122247000Y-41721333D01*
X122280333Y-41688000D01*
X122347000Y-41654666D01*
D12*
X185940000Y-126295000D02*
X183240000Y-126295000D01*
X185350000Y-123575000D02*
X185350000Y-122945000D01*
X183190000Y-123575000D02*
X183830000Y-123575000D01*
X185990000Y-123575000D02*
X185350000Y-123575000D01*
X149940000Y-126295000D02*
X147240000Y-126295000D01*
X149350000Y-123575000D02*
X149350000Y-122945000D01*
X147190000Y-123575000D02*
X147830000Y-123575000D01*
X149990000Y-123575000D02*
X149350000Y-123575000D01*
X185940000Y-78035000D02*
X183240000Y-78035000D01*
X185350000Y-75315000D02*
X185350000Y-74685000D01*
X183190000Y-75315000D02*
X183830000Y-75315000D01*
X185990000Y-75315000D02*
X185350000Y-75315000D01*
X163119748Y-120321000D02*
X163642252Y-120321000D01*
X163119748Y-121741000D02*
X163642252Y-121741000D01*
X127119748Y-120321000D02*
X127642252Y-120321000D01*
X127119748Y-121741000D02*
X127642252Y-121741000D01*
X163119748Y-72061000D02*
X163642252Y-72061000D01*
X163119748Y-73481000D02*
X163642252Y-73481000D01*
X173235000Y-123817748D02*
X173235000Y-124340252D01*
X171815000Y-123817748D02*
X171815000Y-124340252D01*
X137235000Y-123817748D02*
X137235000Y-124340252D01*
X135815000Y-123817748D02*
X135815000Y-124340252D01*
X173235000Y-75557748D02*
X173235000Y-76080252D01*
X171815000Y-75557748D02*
X171815000Y-76080252D01*
X156590000Y-114792000D02*
X159250000Y-114792000D01*
X156590000Y-94412000D02*
X156590000Y-114792000D01*
X159250000Y-94412000D02*
X159250000Y-114792000D01*
X156590000Y-94412000D02*
X159250000Y-94412000D01*
X156590000Y-93142000D02*
X156590000Y-91812000D01*
X156590000Y-91812000D02*
X157920000Y-91812000D01*
X120590000Y-114792000D02*
X123250000Y-114792000D01*
X120590000Y-94412000D02*
X120590000Y-114792000D01*
X123250000Y-94412000D02*
X123250000Y-114792000D01*
X120590000Y-94412000D02*
X123250000Y-94412000D01*
X120590000Y-93142000D02*
X120590000Y-91812000D01*
X120590000Y-91812000D02*
X121920000Y-91812000D01*
X156590000Y-66532000D02*
X159250000Y-66532000D01*
X156590000Y-46152000D02*
X156590000Y-66532000D01*
X159250000Y-46152000D02*
X159250000Y-66532000D01*
X156590000Y-46152000D02*
X159250000Y-46152000D01*
X156590000Y-44882000D02*
X156590000Y-43552000D01*
X156590000Y-43552000D02*
X157920000Y-43552000D01*
X180817000Y-116853000D02*
X181637000Y-116853000D01*
X181637000Y-116033000D02*
X181637000Y-116853000D01*
X163217000Y-116853000D02*
X162397000Y-116853000D01*
X162397000Y-116033000D02*
X162397000Y-116853000D01*
X181637000Y-81013000D02*
X180817000Y-81013000D01*
X162397000Y-81833000D02*
X162397000Y-81013000D01*
X162397000Y-81013000D02*
X163217000Y-81013000D01*
X144817000Y-116853000D02*
X145637000Y-116853000D01*
X145637000Y-116033000D02*
X145637000Y-116853000D01*
X127217000Y-116853000D02*
X126397000Y-116853000D01*
X126397000Y-116033000D02*
X126397000Y-116853000D01*
X145637000Y-81013000D02*
X144817000Y-81013000D01*
X126397000Y-81833000D02*
X126397000Y-81013000D01*
X126397000Y-81013000D02*
X127217000Y-81013000D01*
X180817000Y-68593000D02*
X181637000Y-68593000D01*
X181637000Y-67773000D02*
X181637000Y-68593000D01*
X163217000Y-68593000D02*
X162397000Y-68593000D01*
X162397000Y-67773000D02*
X162397000Y-68593000D01*
X181637000Y-32753000D02*
X180817000Y-32753000D01*
X162397000Y-33573000D02*
X162397000Y-32753000D01*
X162397000Y-32753000D02*
X163217000Y-32753000D01*
X167012000Y-123817748D02*
X167012000Y-124340252D01*
X165592000Y-123817748D02*
X165592000Y-124340252D01*
X131012000Y-123817748D02*
X131012000Y-124340252D01*
X129592000Y-123817748D02*
X129592000Y-124340252D01*
X167012000Y-75557748D02*
X167012000Y-76080252D01*
X165592000Y-75557748D02*
X165592000Y-76080252D01*
X159055748Y-120321000D02*
X159578252Y-120321000D01*
X159055748Y-121741000D02*
X159578252Y-121741000D01*
X123055748Y-120321000D02*
X123578252Y-120321000D01*
X123055748Y-121741000D02*
X123578252Y-121741000D01*
X159055748Y-72061000D02*
X159578252Y-72061000D01*
X159055748Y-73481000D02*
X159578252Y-73481000D01*
X160789000Y-126295000D02*
X158089000Y-126295000D01*
X160199000Y-123575000D02*
X160199000Y-122945000D01*
X158039000Y-123575000D02*
X158679000Y-123575000D01*
X160839000Y-123575000D02*
X160199000Y-123575000D01*
X124789000Y-126295000D02*
X122089000Y-126295000D01*
X124199000Y-123575000D02*
X124199000Y-122945000D01*
X122039000Y-123575000D02*
X122679000Y-123575000D01*
X124839000Y-123575000D02*
X124199000Y-123575000D01*
X160789000Y-78035000D02*
X158089000Y-78035000D01*
X160199000Y-75315000D02*
X160199000Y-74685000D01*
X158039000Y-75315000D02*
X158679000Y-75315000D01*
X160839000Y-75315000D02*
X160199000Y-75315000D01*
X189840000Y-91812000D02*
X189840000Y-114792000D01*
X189840000Y-114792000D02*
X192500000Y-114792000D01*
X192500000Y-114792000D02*
X192500000Y-91812000D01*
X192500000Y-91812000D02*
X189840000Y-91812000D01*
X192500000Y-92762000D02*
X198500000Y-92762000D01*
X198500000Y-92762000D02*
X198500000Y-93522000D01*
X198500000Y-93522000D02*
X192500000Y-93522000D01*
X192500000Y-92822000D02*
X198500000Y-92822000D01*
X192500000Y-92942000D02*
X198500000Y-92942000D01*
X192500000Y-93062000D02*
X198500000Y-93062000D01*
X192500000Y-93182000D02*
X198500000Y-93182000D01*
X192500000Y-93302000D02*
X198500000Y-93302000D01*
X192500000Y-93422000D02*
X198500000Y-93422000D01*
X189442929Y-92762000D02*
X189840000Y-92762000D01*
X189442929Y-93522000D02*
X189840000Y-93522000D01*
X186970000Y-92762000D02*
X187357071Y-92762000D01*
X186970000Y-93522000D02*
X187357071Y-93522000D01*
X189840000Y-94412000D02*
X192500000Y-94412000D01*
X192500000Y-95302000D02*
X198500000Y-95302000D01*
X198500000Y-95302000D02*
X198500000Y-96062000D01*
X198500000Y-96062000D02*
X192500000Y-96062000D01*
X189442929Y-95302000D02*
X189840000Y-95302000D01*
X189442929Y-96062000D02*
X189840000Y-96062000D01*
X186902929Y-95302000D02*
X187357071Y-95302000D01*
X186902929Y-96062000D02*
X187357071Y-96062000D01*
X189840000Y-96952000D02*
X192500000Y-96952000D01*
X192500000Y-97842000D02*
X198500000Y-97842000D01*
X198500000Y-97842000D02*
X198500000Y-98602000D01*
X198500000Y-98602000D02*
X192500000Y-98602000D01*
X189442929Y-97842000D02*
X189840000Y-97842000D01*
X189442929Y-98602000D02*
X189840000Y-98602000D01*
X186902929Y-97842000D02*
X187357071Y-97842000D01*
X186902929Y-98602000D02*
X187357071Y-98602000D01*
X189840000Y-99492000D02*
X192500000Y-99492000D01*
X192500000Y-100382000D02*
X198500000Y-100382000D01*
X198500000Y-100382000D02*
X198500000Y-101142000D01*
X198500000Y-101142000D02*
X192500000Y-101142000D01*
X189442929Y-100382000D02*
X189840000Y-100382000D01*
X189442929Y-101142000D02*
X189840000Y-101142000D01*
X186902929Y-100382000D02*
X187357071Y-100382000D01*
X186902929Y-101142000D02*
X187357071Y-101142000D01*
X189840000Y-102032000D02*
X192500000Y-102032000D01*
X192500000Y-102922000D02*
X198500000Y-102922000D01*
X198500000Y-102922000D02*
X198500000Y-103682000D01*
X198500000Y-103682000D02*
X192500000Y-103682000D01*
X189442929Y-102922000D02*
X189840000Y-102922000D01*
X189442929Y-103682000D02*
X189840000Y-103682000D01*
X186902929Y-102922000D02*
X187357071Y-102922000D01*
X186902929Y-103682000D02*
X187357071Y-103682000D01*
X189840000Y-104572000D02*
X192500000Y-104572000D01*
X192500000Y-105462000D02*
X198500000Y-105462000D01*
X198500000Y-105462000D02*
X198500000Y-106222000D01*
X198500000Y-106222000D02*
X192500000Y-106222000D01*
X189442929Y-105462000D02*
X189840000Y-105462000D01*
X189442929Y-106222000D02*
X189840000Y-106222000D01*
X186902929Y-105462000D02*
X187357071Y-105462000D01*
X186902929Y-106222000D02*
X187357071Y-106222000D01*
X189840000Y-107112000D02*
X192500000Y-107112000D01*
X192500000Y-108002000D02*
X198500000Y-108002000D01*
X198500000Y-108002000D02*
X198500000Y-108762000D01*
X198500000Y-108762000D02*
X192500000Y-108762000D01*
X189442929Y-108002000D02*
X189840000Y-108002000D01*
X189442929Y-108762000D02*
X189840000Y-108762000D01*
X186902929Y-108002000D02*
X187357071Y-108002000D01*
X186902929Y-108762000D02*
X187357071Y-108762000D01*
X189840000Y-109652000D02*
X192500000Y-109652000D01*
X192500000Y-110542000D02*
X198500000Y-110542000D01*
X198500000Y-110542000D02*
X198500000Y-111302000D01*
X198500000Y-111302000D02*
X192500000Y-111302000D01*
X189442929Y-110542000D02*
X189840000Y-110542000D01*
X189442929Y-111302000D02*
X189840000Y-111302000D01*
X186902929Y-110542000D02*
X187357071Y-110542000D01*
X186902929Y-111302000D02*
X187357071Y-111302000D01*
X189840000Y-112192000D02*
X192500000Y-112192000D01*
X192500000Y-113082000D02*
X198500000Y-113082000D01*
X198500000Y-113082000D02*
X198500000Y-113842000D01*
X198500000Y-113842000D02*
X192500000Y-113842000D01*
X189442929Y-113082000D02*
X189840000Y-113082000D01*
X189442929Y-113842000D02*
X189840000Y-113842000D01*
X186902929Y-113082000D02*
X187357071Y-113082000D01*
X186902929Y-113842000D02*
X187357071Y-113842000D01*
X184590000Y-93142000D02*
X184590000Y-91872000D01*
X184590000Y-91872000D02*
X185860000Y-91872000D01*
X153840000Y-91812000D02*
X153840000Y-114792000D01*
X153840000Y-114792000D02*
X156500000Y-114792000D01*
X156500000Y-114792000D02*
X156500000Y-91812000D01*
X156500000Y-91812000D02*
X153840000Y-91812000D01*
X156500000Y-92762000D02*
X162500000Y-92762000D01*
X162500000Y-92762000D02*
X162500000Y-93522000D01*
X162500000Y-93522000D02*
X156500000Y-93522000D01*
X156500000Y-92822000D02*
X162500000Y-92822000D01*
X156500000Y-92942000D02*
X162500000Y-92942000D01*
X156500000Y-93062000D02*
X162500000Y-93062000D01*
X156500000Y-93182000D02*
X162500000Y-93182000D01*
X156500000Y-93302000D02*
X162500000Y-93302000D01*
X156500000Y-93422000D02*
X162500000Y-93422000D01*
X153442929Y-92762000D02*
X153840000Y-92762000D01*
X153442929Y-93522000D02*
X153840000Y-93522000D01*
X150970000Y-92762000D02*
X151357071Y-92762000D01*
X150970000Y-93522000D02*
X151357071Y-93522000D01*
X153840000Y-94412000D02*
X156500000Y-94412000D01*
X156500000Y-95302000D02*
X162500000Y-95302000D01*
X162500000Y-95302000D02*
X162500000Y-96062000D01*
X162500000Y-96062000D02*
X156500000Y-96062000D01*
X153442929Y-95302000D02*
X153840000Y-95302000D01*
X153442929Y-96062000D02*
X153840000Y-96062000D01*
X150902929Y-95302000D02*
X151357071Y-95302000D01*
X150902929Y-96062000D02*
X151357071Y-96062000D01*
X153840000Y-96952000D02*
X156500000Y-96952000D01*
X156500000Y-97842000D02*
X162500000Y-97842000D01*
X162500000Y-97842000D02*
X162500000Y-98602000D01*
X162500000Y-98602000D02*
X156500000Y-98602000D01*
X153442929Y-97842000D02*
X153840000Y-97842000D01*
X153442929Y-98602000D02*
X153840000Y-98602000D01*
X150902929Y-97842000D02*
X151357071Y-97842000D01*
X150902929Y-98602000D02*
X151357071Y-98602000D01*
X153840000Y-99492000D02*
X156500000Y-99492000D01*
X156500000Y-100382000D02*
X162500000Y-100382000D01*
X162500000Y-100382000D02*
X162500000Y-101142000D01*
X162500000Y-101142000D02*
X156500000Y-101142000D01*
X153442929Y-100382000D02*
X153840000Y-100382000D01*
X153442929Y-101142000D02*
X153840000Y-101142000D01*
X150902929Y-100382000D02*
X151357071Y-100382000D01*
X150902929Y-101142000D02*
X151357071Y-101142000D01*
X153840000Y-102032000D02*
X156500000Y-102032000D01*
X156500000Y-102922000D02*
X162500000Y-102922000D01*
X162500000Y-102922000D02*
X162500000Y-103682000D01*
X162500000Y-103682000D02*
X156500000Y-103682000D01*
X153442929Y-102922000D02*
X153840000Y-102922000D01*
X153442929Y-103682000D02*
X153840000Y-103682000D01*
X150902929Y-102922000D02*
X151357071Y-102922000D01*
X150902929Y-103682000D02*
X151357071Y-103682000D01*
X153840000Y-104572000D02*
X156500000Y-104572000D01*
X156500000Y-105462000D02*
X162500000Y-105462000D01*
X162500000Y-105462000D02*
X162500000Y-106222000D01*
X162500000Y-106222000D02*
X156500000Y-106222000D01*
X153442929Y-105462000D02*
X153840000Y-105462000D01*
X153442929Y-106222000D02*
X153840000Y-106222000D01*
X150902929Y-105462000D02*
X151357071Y-105462000D01*
X150902929Y-106222000D02*
X151357071Y-106222000D01*
X153840000Y-107112000D02*
X156500000Y-107112000D01*
X156500000Y-108002000D02*
X162500000Y-108002000D01*
X162500000Y-108002000D02*
X162500000Y-108762000D01*
X162500000Y-108762000D02*
X156500000Y-108762000D01*
X153442929Y-108002000D02*
X153840000Y-108002000D01*
X153442929Y-108762000D02*
X153840000Y-108762000D01*
X150902929Y-108002000D02*
X151357071Y-108002000D01*
X150902929Y-108762000D02*
X151357071Y-108762000D01*
X153840000Y-109652000D02*
X156500000Y-109652000D01*
X156500000Y-110542000D02*
X162500000Y-110542000D01*
X162500000Y-110542000D02*
X162500000Y-111302000D01*
X162500000Y-111302000D02*
X156500000Y-111302000D01*
X153442929Y-110542000D02*
X153840000Y-110542000D01*
X153442929Y-111302000D02*
X153840000Y-111302000D01*
X150902929Y-110542000D02*
X151357071Y-110542000D01*
X150902929Y-111302000D02*
X151357071Y-111302000D01*
X153840000Y-112192000D02*
X156500000Y-112192000D01*
X156500000Y-113082000D02*
X162500000Y-113082000D01*
X162500000Y-113082000D02*
X162500000Y-113842000D01*
X162500000Y-113842000D02*
X156500000Y-113842000D01*
X153442929Y-113082000D02*
X153840000Y-113082000D01*
X153442929Y-113842000D02*
X153840000Y-113842000D01*
X150902929Y-113082000D02*
X151357071Y-113082000D01*
X150902929Y-113842000D02*
X151357071Y-113842000D01*
X148590000Y-93142000D02*
X148590000Y-91872000D01*
X148590000Y-91872000D02*
X149860000Y-91872000D01*
X189840000Y-43552000D02*
X189840000Y-66532000D01*
X189840000Y-66532000D02*
X192500000Y-66532000D01*
X192500000Y-66532000D02*
X192500000Y-43552000D01*
X192500000Y-43552000D02*
X189840000Y-43552000D01*
X192500000Y-44502000D02*
X198500000Y-44502000D01*
X198500000Y-44502000D02*
X198500000Y-45262000D01*
X198500000Y-45262000D02*
X192500000Y-45262000D01*
X192500000Y-44562000D02*
X198500000Y-44562000D01*
X192500000Y-44682000D02*
X198500000Y-44682000D01*
X192500000Y-44802000D02*
X198500000Y-44802000D01*
X192500000Y-44922000D02*
X198500000Y-44922000D01*
X192500000Y-45042000D02*
X198500000Y-45042000D01*
X192500000Y-45162000D02*
X198500000Y-45162000D01*
X189442929Y-44502000D02*
X189840000Y-44502000D01*
X189442929Y-45262000D02*
X189840000Y-45262000D01*
X186970000Y-44502000D02*
X187357071Y-44502000D01*
X186970000Y-45262000D02*
X187357071Y-45262000D01*
X189840000Y-46152000D02*
X192500000Y-46152000D01*
X192500000Y-47042000D02*
X198500000Y-47042000D01*
X198500000Y-47042000D02*
X198500000Y-47802000D01*
X198500000Y-47802000D02*
X192500000Y-47802000D01*
X189442929Y-47042000D02*
X189840000Y-47042000D01*
X189442929Y-47802000D02*
X189840000Y-47802000D01*
X186902929Y-47042000D02*
X187357071Y-47042000D01*
X186902929Y-47802000D02*
X187357071Y-47802000D01*
X189840000Y-48692000D02*
X192500000Y-48692000D01*
X192500000Y-49582000D02*
X198500000Y-49582000D01*
X198500000Y-49582000D02*
X198500000Y-50342000D01*
X198500000Y-50342000D02*
X192500000Y-50342000D01*
X189442929Y-49582000D02*
X189840000Y-49582000D01*
X189442929Y-50342000D02*
X189840000Y-50342000D01*
X186902929Y-49582000D02*
X187357071Y-49582000D01*
X186902929Y-50342000D02*
X187357071Y-50342000D01*
X189840000Y-51232000D02*
X192500000Y-51232000D01*
X192500000Y-52122000D02*
X198500000Y-52122000D01*
X198500000Y-52122000D02*
X198500000Y-52882000D01*
X198500000Y-52882000D02*
X192500000Y-52882000D01*
X189442929Y-52122000D02*
X189840000Y-52122000D01*
X189442929Y-52882000D02*
X189840000Y-52882000D01*
X186902929Y-52122000D02*
X187357071Y-52122000D01*
X186902929Y-52882000D02*
X187357071Y-52882000D01*
X189840000Y-53772000D02*
X192500000Y-53772000D01*
X192500000Y-54662000D02*
X198500000Y-54662000D01*
X198500000Y-54662000D02*
X198500000Y-55422000D01*
X198500000Y-55422000D02*
X192500000Y-55422000D01*
X189442929Y-54662000D02*
X189840000Y-54662000D01*
X189442929Y-55422000D02*
X189840000Y-55422000D01*
X186902929Y-54662000D02*
X187357071Y-54662000D01*
X186902929Y-55422000D02*
X187357071Y-55422000D01*
X189840000Y-56312000D02*
X192500000Y-56312000D01*
X192500000Y-57202000D02*
X198500000Y-57202000D01*
X198500000Y-57202000D02*
X198500000Y-57962000D01*
X198500000Y-57962000D02*
X192500000Y-57962000D01*
X189442929Y-57202000D02*
X189840000Y-57202000D01*
X189442929Y-57962000D02*
X189840000Y-57962000D01*
X186902929Y-57202000D02*
X187357071Y-57202000D01*
X186902929Y-57962000D02*
X187357071Y-57962000D01*
X189840000Y-58852000D02*
X192500000Y-58852000D01*
X192500000Y-59742000D02*
X198500000Y-59742000D01*
X198500000Y-59742000D02*
X198500000Y-60502000D01*
X198500000Y-60502000D02*
X192500000Y-60502000D01*
X189442929Y-59742000D02*
X189840000Y-59742000D01*
X189442929Y-60502000D02*
X189840000Y-60502000D01*
X186902929Y-59742000D02*
X187357071Y-59742000D01*
X186902929Y-60502000D02*
X187357071Y-60502000D01*
X189840000Y-61392000D02*
X192500000Y-61392000D01*
X192500000Y-62282000D02*
X198500000Y-62282000D01*
X198500000Y-62282000D02*
X198500000Y-63042000D01*
X198500000Y-63042000D02*
X192500000Y-63042000D01*
X189442929Y-62282000D02*
X189840000Y-62282000D01*
X189442929Y-63042000D02*
X189840000Y-63042000D01*
X186902929Y-62282000D02*
X187357071Y-62282000D01*
X186902929Y-63042000D02*
X187357071Y-63042000D01*
X189840000Y-63932000D02*
X192500000Y-63932000D01*
X192500000Y-64822000D02*
X198500000Y-64822000D01*
X198500000Y-64822000D02*
X198500000Y-65582000D01*
X198500000Y-65582000D02*
X192500000Y-65582000D01*
X189442929Y-64822000D02*
X189840000Y-64822000D01*
X189442929Y-65582000D02*
X189840000Y-65582000D01*
X186902929Y-64822000D02*
X187357071Y-64822000D01*
X186902929Y-65582000D02*
X187357071Y-65582000D01*
X184590000Y-44882000D02*
X184590000Y-43612000D01*
X184590000Y-43612000D02*
X185860000Y-43612000D01*
X159055748Y-118289000D02*
X159578252Y-118289000D01*
X159055748Y-119709000D02*
X159578252Y-119709000D01*
X123055748Y-118289000D02*
X123578252Y-118289000D01*
X123055748Y-119709000D02*
X123578252Y-119709000D01*
X159055748Y-70029000D02*
X159578252Y-70029000D01*
X159055748Y-71449000D02*
X159578252Y-71449000D01*
X169215748Y-120448000D02*
X169738252Y-120448000D01*
X169215748Y-121868000D02*
X169738252Y-121868000D01*
X133215748Y-120448000D02*
X133738252Y-120448000D01*
X133215748Y-121868000D02*
X133738252Y-121868000D01*
X169215748Y-72188000D02*
X169738252Y-72188000D01*
X169215748Y-73608000D02*
X169738252Y-73608000D01*
X175184748Y-120321000D02*
X175707252Y-120321000D01*
X175184748Y-121741000D02*
X175707252Y-121741000D01*
X139184748Y-120321000D02*
X139707252Y-120321000D01*
X139184748Y-121741000D02*
X139707252Y-121741000D01*
X175184748Y-72061000D02*
X175707252Y-72061000D01*
X175184748Y-73481000D02*
X175707252Y-73481000D01*
X179077000Y-123817748D02*
X179077000Y-124340252D01*
X177657000Y-123817748D02*
X177657000Y-124340252D01*
X143077000Y-123817748D02*
X143077000Y-124340252D01*
X141657000Y-123817748D02*
X141657000Y-124340252D01*
X179077000Y-75557748D02*
X179077000Y-76080252D01*
X177657000Y-75557748D02*
X177657000Y-76080252D01*
X149990000Y-75315000D02*
X149350000Y-75315000D01*
X147190000Y-75315000D02*
X147830000Y-75315000D01*
X149350000Y-75315000D02*
X149350000Y-74685000D01*
X149940000Y-78035000D02*
X147240000Y-78035000D01*
X127119748Y-73481000D02*
X127642252Y-73481000D01*
X127119748Y-72061000D02*
X127642252Y-72061000D01*
X123055748Y-71449000D02*
X123578252Y-71449000D01*
X123055748Y-70029000D02*
X123578252Y-70029000D01*
X139184748Y-73481000D02*
X139707252Y-73481000D01*
X139184748Y-72061000D02*
X139707252Y-72061000D01*
X133215748Y-73608000D02*
X133738252Y-73608000D01*
X133215748Y-72188000D02*
X133738252Y-72188000D01*
X141657000Y-75557748D02*
X141657000Y-76080252D01*
X143077000Y-75557748D02*
X143077000Y-76080252D01*
X135815000Y-75557748D02*
X135815000Y-76080252D01*
X137235000Y-75557748D02*
X137235000Y-76080252D01*
X129592000Y-75557748D02*
X129592000Y-76080252D01*
X131012000Y-75557748D02*
X131012000Y-76080252D01*
X123055748Y-73481000D02*
X123578252Y-73481000D01*
X123055748Y-72061000D02*
X123578252Y-72061000D01*
X124839000Y-75315000D02*
X124199000Y-75315000D01*
X122039000Y-75315000D02*
X122679000Y-75315000D01*
X124199000Y-75315000D02*
X124199000Y-74685000D01*
X124789000Y-78035000D02*
X122089000Y-78035000D01*
X148590000Y-43612000D02*
X149860000Y-43612000D01*
X148590000Y-44882000D02*
X148590000Y-43612000D01*
X150902929Y-65582000D02*
X151357071Y-65582000D01*
X150902929Y-64822000D02*
X151357071Y-64822000D01*
X153442929Y-65582000D02*
X153840000Y-65582000D01*
X153442929Y-64822000D02*
X153840000Y-64822000D01*
X162500000Y-65582000D02*
X156500000Y-65582000D01*
X162500000Y-64822000D02*
X162500000Y-65582000D01*
X156500000Y-64822000D02*
X162500000Y-64822000D01*
X153840000Y-63932000D02*
X156500000Y-63932000D01*
X150902929Y-63042000D02*
X151357071Y-63042000D01*
X150902929Y-62282000D02*
X151357071Y-62282000D01*
X153442929Y-63042000D02*
X153840000Y-63042000D01*
X153442929Y-62282000D02*
X153840000Y-62282000D01*
X162500000Y-63042000D02*
X156500000Y-63042000D01*
X162500000Y-62282000D02*
X162500000Y-63042000D01*
X156500000Y-62282000D02*
X162500000Y-62282000D01*
X153840000Y-61392000D02*
X156500000Y-61392000D01*
X150902929Y-60502000D02*
X151357071Y-60502000D01*
X150902929Y-59742000D02*
X151357071Y-59742000D01*
X153442929Y-60502000D02*
X153840000Y-60502000D01*
X153442929Y-59742000D02*
X153840000Y-59742000D01*
X162500000Y-60502000D02*
X156500000Y-60502000D01*
X162500000Y-59742000D02*
X162500000Y-60502000D01*
X156500000Y-59742000D02*
X162500000Y-59742000D01*
X153840000Y-58852000D02*
X156500000Y-58852000D01*
X150902929Y-57962000D02*
X151357071Y-57962000D01*
X150902929Y-57202000D02*
X151357071Y-57202000D01*
X153442929Y-57962000D02*
X153840000Y-57962000D01*
X153442929Y-57202000D02*
X153840000Y-57202000D01*
X162500000Y-57962000D02*
X156500000Y-57962000D01*
X162500000Y-57202000D02*
X162500000Y-57962000D01*
X156500000Y-57202000D02*
X162500000Y-57202000D01*
X153840000Y-56312000D02*
X156500000Y-56312000D01*
X150902929Y-55422000D02*
X151357071Y-55422000D01*
X150902929Y-54662000D02*
X151357071Y-54662000D01*
X153442929Y-55422000D02*
X153840000Y-55422000D01*
X153442929Y-54662000D02*
X153840000Y-54662000D01*
X162500000Y-55422000D02*
X156500000Y-55422000D01*
X162500000Y-54662000D02*
X162500000Y-55422000D01*
X156500000Y-54662000D02*
X162500000Y-54662000D01*
X153840000Y-53772000D02*
X156500000Y-53772000D01*
X150902929Y-52882000D02*
X151357071Y-52882000D01*
X150902929Y-52122000D02*
X151357071Y-52122000D01*
X153442929Y-52882000D02*
X153840000Y-52882000D01*
X153442929Y-52122000D02*
X153840000Y-52122000D01*
X162500000Y-52882000D02*
X156500000Y-52882000D01*
X162500000Y-52122000D02*
X162500000Y-52882000D01*
X156500000Y-52122000D02*
X162500000Y-52122000D01*
X153840000Y-51232000D02*
X156500000Y-51232000D01*
X150902929Y-50342000D02*
X151357071Y-50342000D01*
X150902929Y-49582000D02*
X151357071Y-49582000D01*
X153442929Y-50342000D02*
X153840000Y-50342000D01*
X153442929Y-49582000D02*
X153840000Y-49582000D01*
X162500000Y-50342000D02*
X156500000Y-50342000D01*
X162500000Y-49582000D02*
X162500000Y-50342000D01*
X156500000Y-49582000D02*
X162500000Y-49582000D01*
X153840000Y-48692000D02*
X156500000Y-48692000D01*
X150902929Y-47802000D02*
X151357071Y-47802000D01*
X150902929Y-47042000D02*
X151357071Y-47042000D01*
X153442929Y-47802000D02*
X153840000Y-47802000D01*
X153442929Y-47042000D02*
X153840000Y-47042000D01*
X162500000Y-47802000D02*
X156500000Y-47802000D01*
X162500000Y-47042000D02*
X162500000Y-47802000D01*
X156500000Y-47042000D02*
X162500000Y-47042000D01*
X153840000Y-46152000D02*
X156500000Y-46152000D01*
X150970000Y-45262000D02*
X151357071Y-45262000D01*
X150970000Y-44502000D02*
X151357071Y-44502000D01*
X153442929Y-45262000D02*
X153840000Y-45262000D01*
X153442929Y-44502000D02*
X153840000Y-44502000D01*
X156500000Y-45162000D02*
X162500000Y-45162000D01*
X156500000Y-45042000D02*
X162500000Y-45042000D01*
X156500000Y-44922000D02*
X162500000Y-44922000D01*
X156500000Y-44802000D02*
X162500000Y-44802000D01*
X156500000Y-44682000D02*
X162500000Y-44682000D01*
X156500000Y-44562000D02*
X162500000Y-44562000D01*
X162500000Y-45262000D02*
X156500000Y-45262000D01*
X162500000Y-44502000D02*
X162500000Y-45262000D01*
X156500000Y-44502000D02*
X162500000Y-44502000D01*
X156500000Y-43552000D02*
X153840000Y-43552000D01*
X156500000Y-66532000D02*
X156500000Y-43552000D01*
X153840000Y-66532000D02*
X156500000Y-66532000D01*
X153840000Y-43552000D02*
X153840000Y-66532000D01*
X120590000Y-43552000D02*
X121920000Y-43552000D01*
X120590000Y-44882000D02*
X120590000Y-43552000D01*
X120590000Y-46152000D02*
X123250000Y-46152000D01*
X123250000Y-46152000D02*
X123250000Y-66532000D01*
X120590000Y-46152000D02*
X120590000Y-66532000D01*
X120590000Y-66532000D02*
X123250000Y-66532000D01*
X126397000Y-32753000D02*
X127217000Y-32753000D01*
X126397000Y-33573000D02*
X126397000Y-32753000D01*
X145637000Y-32753000D02*
X144817000Y-32753000D01*
X126397000Y-67773000D02*
X126397000Y-68593000D01*
X127217000Y-68593000D02*
X126397000Y-68593000D01*
X145637000Y-67773000D02*
X145637000Y-68593000D01*
X144817000Y-68593000D02*
X145637000Y-68593000D01*
D11*
X187242380Y-125268333D02*
X187956666Y-125268333D01*
X188099523Y-125315952D01*
X188194761Y-125411190D01*
X188242380Y-125554047D01*
X188242380Y-125649285D01*
X187575714Y-124363571D02*
X188242380Y-124363571D01*
X187194761Y-124601666D02*
X187909047Y-124839761D01*
X187909047Y-124220714D01*
X151242380Y-125268333D02*
X151956666Y-125268333D01*
X152099523Y-125315952D01*
X152194761Y-125411190D01*
X152242380Y-125554047D01*
X152242380Y-125649285D01*
X151575714Y-124363571D02*
X152242380Y-124363571D01*
X151194761Y-124601666D02*
X151909047Y-124839761D01*
X151909047Y-124220714D01*
X187242380Y-77008333D02*
X187956666Y-77008333D01*
X188099523Y-77055952D01*
X188194761Y-77151190D01*
X188242380Y-77294047D01*
X188242380Y-77389285D01*
X187575714Y-76103571D02*
X188242380Y-76103571D01*
X187194761Y-76341666D02*
X187909047Y-76579761D01*
X187909047Y-75960714D01*
X163214333Y-119833380D02*
X162881000Y-119357190D01*
X162642904Y-119833380D02*
X162642904Y-118833380D01*
X163023857Y-118833380D01*
X163119095Y-118881000D01*
X163166714Y-118928619D01*
X163214333Y-119023857D01*
X163214333Y-119166714D01*
X163166714Y-119261952D01*
X163119095Y-119309571D01*
X163023857Y-119357190D01*
X162642904Y-119357190D01*
X163547666Y-118833380D02*
X164166714Y-118833380D01*
X163833380Y-119214333D01*
X163976238Y-119214333D01*
X164071476Y-119261952D01*
X164119095Y-119309571D01*
X164166714Y-119404809D01*
X164166714Y-119642904D01*
X164119095Y-119738142D01*
X164071476Y-119785761D01*
X163976238Y-119833380D01*
X163690523Y-119833380D01*
X163595285Y-119785761D01*
X163547666Y-119738142D01*
X127214333Y-119833380D02*
X126881000Y-119357190D01*
X126642904Y-119833380D02*
X126642904Y-118833380D01*
X127023857Y-118833380D01*
X127119095Y-118881000D01*
X127166714Y-118928619D01*
X127214333Y-119023857D01*
X127214333Y-119166714D01*
X127166714Y-119261952D01*
X127119095Y-119309571D01*
X127023857Y-119357190D01*
X126642904Y-119357190D01*
X127547666Y-118833380D02*
X128166714Y-118833380D01*
X127833380Y-119214333D01*
X127976238Y-119214333D01*
X128071476Y-119261952D01*
X128119095Y-119309571D01*
X128166714Y-119404809D01*
X128166714Y-119642904D01*
X128119095Y-119738142D01*
X128071476Y-119785761D01*
X127976238Y-119833380D01*
X127690523Y-119833380D01*
X127595285Y-119785761D01*
X127547666Y-119738142D01*
X163214333Y-71573380D02*
X162881000Y-71097190D01*
X162642904Y-71573380D02*
X162642904Y-70573380D01*
X163023857Y-70573380D01*
X163119095Y-70621000D01*
X163166714Y-70668619D01*
X163214333Y-70763857D01*
X163214333Y-70906714D01*
X163166714Y-71001952D01*
X163119095Y-71049571D01*
X163023857Y-71097190D01*
X162642904Y-71097190D01*
X163547666Y-70573380D02*
X164166714Y-70573380D01*
X163833380Y-70954333D01*
X163976238Y-70954333D01*
X164071476Y-71001952D01*
X164119095Y-71049571D01*
X164166714Y-71144809D01*
X164166714Y-71382904D01*
X164119095Y-71478142D01*
X164071476Y-71525761D01*
X163976238Y-71573380D01*
X163690523Y-71573380D01*
X163595285Y-71525761D01*
X163547666Y-71478142D01*
X174532142Y-124245666D02*
X174579761Y-124293285D01*
X174627380Y-124436142D01*
X174627380Y-124531380D01*
X174579761Y-124674238D01*
X174484523Y-124769476D01*
X174389285Y-124817095D01*
X174198809Y-124864714D01*
X174055952Y-124864714D01*
X173865476Y-124817095D01*
X173770238Y-124769476D01*
X173675000Y-124674238D01*
X173627380Y-124531380D01*
X173627380Y-124436142D01*
X173675000Y-124293285D01*
X173722619Y-124245666D01*
X173722619Y-123864714D02*
X173675000Y-123817095D01*
X173627380Y-123721857D01*
X173627380Y-123483761D01*
X173675000Y-123388523D01*
X173722619Y-123340904D01*
X173817857Y-123293285D01*
X173913095Y-123293285D01*
X174055952Y-123340904D01*
X174627380Y-123912333D01*
X174627380Y-123293285D01*
X138532142Y-124245666D02*
X138579761Y-124293285D01*
X138627380Y-124436142D01*
X138627380Y-124531380D01*
X138579761Y-124674238D01*
X138484523Y-124769476D01*
X138389285Y-124817095D01*
X138198809Y-124864714D01*
X138055952Y-124864714D01*
X137865476Y-124817095D01*
X137770238Y-124769476D01*
X137675000Y-124674238D01*
X137627380Y-124531380D01*
X137627380Y-124436142D01*
X137675000Y-124293285D01*
X137722619Y-124245666D01*
X137722619Y-123864714D02*
X137675000Y-123817095D01*
X137627380Y-123721857D01*
X137627380Y-123483761D01*
X137675000Y-123388523D01*
X137722619Y-123340904D01*
X137817857Y-123293285D01*
X137913095Y-123293285D01*
X138055952Y-123340904D01*
X138627380Y-123912333D01*
X138627380Y-123293285D01*
X174532142Y-75985666D02*
X174579761Y-76033285D01*
X174627380Y-76176142D01*
X174627380Y-76271380D01*
X174579761Y-76414238D01*
X174484523Y-76509476D01*
X174389285Y-76557095D01*
X174198809Y-76604714D01*
X174055952Y-76604714D01*
X173865476Y-76557095D01*
X173770238Y-76509476D01*
X173675000Y-76414238D01*
X173627380Y-76271380D01*
X173627380Y-76176142D01*
X173675000Y-76033285D01*
X173722619Y-75985666D01*
X173722619Y-75604714D02*
X173675000Y-75557095D01*
X173627380Y-75461857D01*
X173627380Y-75223761D01*
X173675000Y-75128523D01*
X173722619Y-75080904D01*
X173817857Y-75033285D01*
X173913095Y-75033285D01*
X174055952Y-75080904D01*
X174627380Y-75652333D01*
X174627380Y-75033285D01*
X157078666Y-115022380D02*
X157078666Y-115736666D01*
X157031047Y-115879523D01*
X156935809Y-115974761D01*
X156792952Y-116022380D01*
X156697714Y-116022380D01*
X158078666Y-116022380D02*
X157507238Y-116022380D01*
X157792952Y-116022380D02*
X157792952Y-115022380D01*
X157697714Y-115165238D01*
X157602476Y-115260476D01*
X157507238Y-115308095D01*
X121078666Y-115022380D02*
X121078666Y-115736666D01*
X121031047Y-115879523D01*
X120935809Y-115974761D01*
X120792952Y-116022380D01*
X120697714Y-116022380D01*
X122078666Y-116022380D02*
X121507238Y-116022380D01*
X121792952Y-116022380D02*
X121792952Y-115022380D01*
X121697714Y-115165238D01*
X121602476Y-115260476D01*
X121507238Y-115308095D01*
X157078666Y-66762380D02*
X157078666Y-67476666D01*
X157031047Y-67619523D01*
X156935809Y-67714761D01*
X156792952Y-67762380D01*
X156697714Y-67762380D01*
X158078666Y-67762380D02*
X157507238Y-67762380D01*
X157792952Y-67762380D02*
X157792952Y-66762380D01*
X157697714Y-66905238D01*
X157602476Y-67000476D01*
X157507238Y-67048095D01*
X159825095Y-79462380D02*
X159825095Y-80271904D01*
X159872714Y-80367142D01*
X159920333Y-80414761D01*
X160015571Y-80462380D01*
X160206047Y-80462380D01*
X160301285Y-80414761D01*
X160348904Y-80367142D01*
X160396523Y-80271904D01*
X160396523Y-79462380D01*
X161396523Y-80462380D02*
X160825095Y-80462380D01*
X161110809Y-80462380D02*
X161110809Y-79462380D01*
X161015571Y-79605238D01*
X160920333Y-79700476D01*
X160825095Y-79748095D01*
X123825095Y-79462380D02*
X123825095Y-80271904D01*
X123872714Y-80367142D01*
X123920333Y-80414761D01*
X124015571Y-80462380D01*
X124206047Y-80462380D01*
X124301285Y-80414761D01*
X124348904Y-80367142D01*
X124396523Y-80271904D01*
X124396523Y-79462380D01*
X125396523Y-80462380D02*
X124825095Y-80462380D01*
X125110809Y-80462380D02*
X125110809Y-79462380D01*
X125015571Y-79605238D01*
X124920333Y-79700476D01*
X124825095Y-79748095D01*
X159825095Y-31202380D02*
X159825095Y-32011904D01*
X159872714Y-32107142D01*
X159920333Y-32154761D01*
X160015571Y-32202380D01*
X160206047Y-32202380D01*
X160301285Y-32154761D01*
X160348904Y-32107142D01*
X160396523Y-32011904D01*
X160396523Y-31202380D01*
X161396523Y-32202380D02*
X160825095Y-32202380D01*
X161110809Y-32202380D02*
X161110809Y-31202380D01*
X161015571Y-31345238D01*
X160920333Y-31440476D01*
X160825095Y-31488095D01*
X168309142Y-124245666D02*
X168356761Y-124293285D01*
X168404380Y-124436142D01*
X168404380Y-124531380D01*
X168356761Y-124674238D01*
X168261523Y-124769476D01*
X168166285Y-124817095D01*
X167975809Y-124864714D01*
X167832952Y-124864714D01*
X167642476Y-124817095D01*
X167547238Y-124769476D01*
X167452000Y-124674238D01*
X167404380Y-124531380D01*
X167404380Y-124436142D01*
X167452000Y-124293285D01*
X167499619Y-124245666D01*
X168404380Y-123293285D02*
X168404380Y-123864714D01*
X168404380Y-123579000D02*
X167404380Y-123579000D01*
X167547238Y-123674238D01*
X167642476Y-123769476D01*
X167690095Y-123864714D01*
X132309142Y-124245666D02*
X132356761Y-124293285D01*
X132404380Y-124436142D01*
X132404380Y-124531380D01*
X132356761Y-124674238D01*
X132261523Y-124769476D01*
X132166285Y-124817095D01*
X131975809Y-124864714D01*
X131832952Y-124864714D01*
X131642476Y-124817095D01*
X131547238Y-124769476D01*
X131452000Y-124674238D01*
X131404380Y-124531380D01*
X131404380Y-124436142D01*
X131452000Y-124293285D01*
X131499619Y-124245666D01*
X132404380Y-123293285D02*
X132404380Y-123864714D01*
X132404380Y-123579000D02*
X131404380Y-123579000D01*
X131547238Y-123674238D01*
X131642476Y-123769476D01*
X131690095Y-123864714D01*
X168309142Y-75985666D02*
X168356761Y-76033285D01*
X168404380Y-76176142D01*
X168404380Y-76271380D01*
X168356761Y-76414238D01*
X168261523Y-76509476D01*
X168166285Y-76557095D01*
X167975809Y-76604714D01*
X167832952Y-76604714D01*
X167642476Y-76557095D01*
X167547238Y-76509476D01*
X167452000Y-76414238D01*
X167404380Y-76271380D01*
X167404380Y-76176142D01*
X167452000Y-76033285D01*
X167499619Y-75985666D01*
X168404380Y-75033285D02*
X168404380Y-75604714D01*
X168404380Y-75319000D02*
X167404380Y-75319000D01*
X167547238Y-75414238D01*
X167642476Y-75509476D01*
X167690095Y-75604714D01*
X159150333Y-119833380D02*
X158817000Y-119357190D01*
X158578904Y-119833380D02*
X158578904Y-118833380D01*
X158959857Y-118833380D01*
X159055095Y-118881000D01*
X159102714Y-118928619D01*
X159150333Y-119023857D01*
X159150333Y-119166714D01*
X159102714Y-119261952D01*
X159055095Y-119309571D01*
X158959857Y-119357190D01*
X158578904Y-119357190D01*
X160102714Y-119833380D02*
X159531285Y-119833380D01*
X159817000Y-119833380D02*
X159817000Y-118833380D01*
X159721761Y-118976238D01*
X159626523Y-119071476D01*
X159531285Y-119119095D01*
X123150333Y-119833380D02*
X122817000Y-119357190D01*
X122578904Y-119833380D02*
X122578904Y-118833380D01*
X122959857Y-118833380D01*
X123055095Y-118881000D01*
X123102714Y-118928619D01*
X123150333Y-119023857D01*
X123150333Y-119166714D01*
X123102714Y-119261952D01*
X123055095Y-119309571D01*
X122959857Y-119357190D01*
X122578904Y-119357190D01*
X124102714Y-119833380D02*
X123531285Y-119833380D01*
X123817000Y-119833380D02*
X123817000Y-118833380D01*
X123721761Y-118976238D01*
X123626523Y-119071476D01*
X123531285Y-119119095D01*
X159150333Y-71573380D02*
X158817000Y-71097190D01*
X158578904Y-71573380D02*
X158578904Y-70573380D01*
X158959857Y-70573380D01*
X159055095Y-70621000D01*
X159102714Y-70668619D01*
X159150333Y-70763857D01*
X159150333Y-70906714D01*
X159102714Y-71001952D01*
X159055095Y-71049571D01*
X158959857Y-71097190D01*
X158578904Y-71097190D01*
X160102714Y-71573380D02*
X159531285Y-71573380D01*
X159817000Y-71573380D02*
X159817000Y-70573380D01*
X159721761Y-70716238D01*
X159626523Y-70811476D01*
X159531285Y-70859095D01*
X162091380Y-125268333D02*
X162805666Y-125268333D01*
X162948523Y-125315952D01*
X163043761Y-125411190D01*
X163091380Y-125554047D01*
X163091380Y-125649285D01*
X162091380Y-124887380D02*
X162091380Y-124268333D01*
X162472333Y-124601666D01*
X162472333Y-124458809D01*
X162519952Y-124363571D01*
X162567571Y-124315952D01*
X162662809Y-124268333D01*
X162900904Y-124268333D01*
X162996142Y-124315952D01*
X163043761Y-124363571D01*
X163091380Y-124458809D01*
X163091380Y-124744523D01*
X163043761Y-124839761D01*
X162996142Y-124887380D01*
X126091380Y-125268333D02*
X126805666Y-125268333D01*
X126948523Y-125315952D01*
X127043761Y-125411190D01*
X127091380Y-125554047D01*
X127091380Y-125649285D01*
X126091380Y-124887380D02*
X126091380Y-124268333D01*
X126472333Y-124601666D01*
X126472333Y-124458809D01*
X126519952Y-124363571D01*
X126567571Y-124315952D01*
X126662809Y-124268333D01*
X126900904Y-124268333D01*
X126996142Y-124315952D01*
X127043761Y-124363571D01*
X127091380Y-124458809D01*
X127091380Y-124744523D01*
X127043761Y-124839761D01*
X126996142Y-124887380D01*
X162091380Y-77008333D02*
X162805666Y-77008333D01*
X162948523Y-77055952D01*
X163043761Y-77151190D01*
X163091380Y-77294047D01*
X163091380Y-77389285D01*
X162091380Y-76627380D02*
X162091380Y-76008333D01*
X162472333Y-76341666D01*
X162472333Y-76198809D01*
X162519952Y-76103571D01*
X162567571Y-76055952D01*
X162662809Y-76008333D01*
X162900904Y-76008333D01*
X162996142Y-76055952D01*
X163043761Y-76103571D01*
X163091380Y-76198809D01*
X163091380Y-76484523D01*
X163043761Y-76579761D01*
X162996142Y-76627380D01*
X186796666Y-115276380D02*
X186796666Y-115990666D01*
X186749047Y-116133523D01*
X186653809Y-116228761D01*
X186510952Y-116276380D01*
X186415714Y-116276380D01*
X187225238Y-115371619D02*
X187272857Y-115324000D01*
X187368095Y-115276380D01*
X187606190Y-115276380D01*
X187701428Y-115324000D01*
X187749047Y-115371619D01*
X187796666Y-115466857D01*
X187796666Y-115562095D01*
X187749047Y-115704952D01*
X187177619Y-116276380D01*
X187796666Y-116276380D01*
X150796666Y-115276380D02*
X150796666Y-115990666D01*
X150749047Y-116133523D01*
X150653809Y-116228761D01*
X150510952Y-116276380D01*
X150415714Y-116276380D01*
X151225238Y-115371619D02*
X151272857Y-115324000D01*
X151368095Y-115276380D01*
X151606190Y-115276380D01*
X151701428Y-115324000D01*
X151749047Y-115371619D01*
X151796666Y-115466857D01*
X151796666Y-115562095D01*
X151749047Y-115704952D01*
X151177619Y-116276380D01*
X151796666Y-116276380D01*
X186796666Y-67016380D02*
X186796666Y-67730666D01*
X186749047Y-67873523D01*
X186653809Y-67968761D01*
X186510952Y-68016380D01*
X186415714Y-68016380D01*
X187225238Y-67111619D02*
X187272857Y-67064000D01*
X187368095Y-67016380D01*
X187606190Y-67016380D01*
X187701428Y-67064000D01*
X187749047Y-67111619D01*
X187796666Y-67206857D01*
X187796666Y-67302095D01*
X187749047Y-67444952D01*
X187177619Y-68016380D01*
X187796666Y-68016380D01*
X159150333Y-117801380D02*
X158817000Y-117325190D01*
X158578904Y-117801380D02*
X158578904Y-116801380D01*
X158959857Y-116801380D01*
X159055095Y-116849000D01*
X159102714Y-116896619D01*
X159150333Y-116991857D01*
X159150333Y-117134714D01*
X159102714Y-117229952D01*
X159055095Y-117277571D01*
X158959857Y-117325190D01*
X158578904Y-117325190D01*
X159531285Y-116896619D02*
X159578904Y-116849000D01*
X159674142Y-116801380D01*
X159912238Y-116801380D01*
X160007476Y-116849000D01*
X160055095Y-116896619D01*
X160102714Y-116991857D01*
X160102714Y-117087095D01*
X160055095Y-117229952D01*
X159483666Y-117801380D01*
X160102714Y-117801380D01*
X123150333Y-117801380D02*
X122817000Y-117325190D01*
X122578904Y-117801380D02*
X122578904Y-116801380D01*
X122959857Y-116801380D01*
X123055095Y-116849000D01*
X123102714Y-116896619D01*
X123150333Y-116991857D01*
X123150333Y-117134714D01*
X123102714Y-117229952D01*
X123055095Y-117277571D01*
X122959857Y-117325190D01*
X122578904Y-117325190D01*
X123531285Y-116896619D02*
X123578904Y-116849000D01*
X123674142Y-116801380D01*
X123912238Y-116801380D01*
X124007476Y-116849000D01*
X124055095Y-116896619D01*
X124102714Y-116991857D01*
X124102714Y-117087095D01*
X124055095Y-117229952D01*
X123483666Y-117801380D01*
X124102714Y-117801380D01*
X159150333Y-69541380D02*
X158817000Y-69065190D01*
X158578904Y-69541380D02*
X158578904Y-68541380D01*
X158959857Y-68541380D01*
X159055095Y-68589000D01*
X159102714Y-68636619D01*
X159150333Y-68731857D01*
X159150333Y-68874714D01*
X159102714Y-68969952D01*
X159055095Y-69017571D01*
X158959857Y-69065190D01*
X158578904Y-69065190D01*
X159531285Y-68636619D02*
X159578904Y-68589000D01*
X159674142Y-68541380D01*
X159912238Y-68541380D01*
X160007476Y-68589000D01*
X160055095Y-68636619D01*
X160102714Y-68731857D01*
X160102714Y-68827095D01*
X160055095Y-68969952D01*
X159483666Y-69541380D01*
X160102714Y-69541380D01*
X169310333Y-119960380D02*
X168834142Y-119960380D01*
X168834142Y-118960380D01*
X170167476Y-119960380D02*
X169596047Y-119960380D01*
X169881761Y-119960380D02*
X169881761Y-118960380D01*
X169786523Y-119103238D01*
X169691285Y-119198476D01*
X169596047Y-119246095D01*
X133310333Y-119960380D02*
X132834142Y-119960380D01*
X132834142Y-118960380D01*
X134167476Y-119960380D02*
X133596047Y-119960380D01*
X133881761Y-119960380D02*
X133881761Y-118960380D01*
X133786523Y-119103238D01*
X133691285Y-119198476D01*
X133596047Y-119246095D01*
X169310333Y-71700380D02*
X168834142Y-71700380D01*
X168834142Y-70700380D01*
X170167476Y-71700380D02*
X169596047Y-71700380D01*
X169881761Y-71700380D02*
X169881761Y-70700380D01*
X169786523Y-70843238D01*
X169691285Y-70938476D01*
X169596047Y-70986095D01*
X175279333Y-119833380D02*
X174803142Y-119833380D01*
X174803142Y-118833380D01*
X175565047Y-118928619D02*
X175612666Y-118881000D01*
X175707904Y-118833380D01*
X175946000Y-118833380D01*
X176041238Y-118881000D01*
X176088857Y-118928619D01*
X176136476Y-119023857D01*
X176136476Y-119119095D01*
X176088857Y-119261952D01*
X175517428Y-119833380D01*
X176136476Y-119833380D01*
X139279333Y-119833380D02*
X138803142Y-119833380D01*
X138803142Y-118833380D01*
X139565047Y-118928619D02*
X139612666Y-118881000D01*
X139707904Y-118833380D01*
X139946000Y-118833380D01*
X140041238Y-118881000D01*
X140088857Y-118928619D01*
X140136476Y-119023857D01*
X140136476Y-119119095D01*
X140088857Y-119261952D01*
X139517428Y-119833380D01*
X140136476Y-119833380D01*
X175279333Y-71573380D02*
X174803142Y-71573380D01*
X174803142Y-70573380D01*
X175565047Y-70668619D02*
X175612666Y-70621000D01*
X175707904Y-70573380D01*
X175946000Y-70573380D01*
X176041238Y-70621000D01*
X176088857Y-70668619D01*
X176136476Y-70763857D01*
X176136476Y-70859095D01*
X176088857Y-71001952D01*
X175517428Y-71573380D01*
X176136476Y-71573380D01*
X180374142Y-124245666D02*
X180421761Y-124293285D01*
X180469380Y-124436142D01*
X180469380Y-124531380D01*
X180421761Y-124674238D01*
X180326523Y-124769476D01*
X180231285Y-124817095D01*
X180040809Y-124864714D01*
X179897952Y-124864714D01*
X179707476Y-124817095D01*
X179612238Y-124769476D01*
X179517000Y-124674238D01*
X179469380Y-124531380D01*
X179469380Y-124436142D01*
X179517000Y-124293285D01*
X179564619Y-124245666D01*
X179469380Y-123912333D02*
X179469380Y-123293285D01*
X179850333Y-123626619D01*
X179850333Y-123483761D01*
X179897952Y-123388523D01*
X179945571Y-123340904D01*
X180040809Y-123293285D01*
X180278904Y-123293285D01*
X180374142Y-123340904D01*
X180421761Y-123388523D01*
X180469380Y-123483761D01*
X180469380Y-123769476D01*
X180421761Y-123864714D01*
X180374142Y-123912333D01*
X144374142Y-124245666D02*
X144421761Y-124293285D01*
X144469380Y-124436142D01*
X144469380Y-124531380D01*
X144421761Y-124674238D01*
X144326523Y-124769476D01*
X144231285Y-124817095D01*
X144040809Y-124864714D01*
X143897952Y-124864714D01*
X143707476Y-124817095D01*
X143612238Y-124769476D01*
X143517000Y-124674238D01*
X143469380Y-124531380D01*
X143469380Y-124436142D01*
X143517000Y-124293285D01*
X143564619Y-124245666D01*
X143469380Y-123912333D02*
X143469380Y-123293285D01*
X143850333Y-123626619D01*
X143850333Y-123483761D01*
X143897952Y-123388523D01*
X143945571Y-123340904D01*
X144040809Y-123293285D01*
X144278904Y-123293285D01*
X144374142Y-123340904D01*
X144421761Y-123388523D01*
X144469380Y-123483761D01*
X144469380Y-123769476D01*
X144421761Y-123864714D01*
X144374142Y-123912333D01*
X180374142Y-75985666D02*
X180421761Y-76033285D01*
X180469380Y-76176142D01*
X180469380Y-76271380D01*
X180421761Y-76414238D01*
X180326523Y-76509476D01*
X180231285Y-76557095D01*
X180040809Y-76604714D01*
X179897952Y-76604714D01*
X179707476Y-76557095D01*
X179612238Y-76509476D01*
X179517000Y-76414238D01*
X179469380Y-76271380D01*
X179469380Y-76176142D01*
X179517000Y-76033285D01*
X179564619Y-75985666D01*
X179469380Y-75652333D02*
X179469380Y-75033285D01*
X179850333Y-75366619D01*
X179850333Y-75223761D01*
X179897952Y-75128523D01*
X179945571Y-75080904D01*
X180040809Y-75033285D01*
X180278904Y-75033285D01*
X180374142Y-75080904D01*
X180421761Y-75128523D01*
X180469380Y-75223761D01*
X180469380Y-75509476D01*
X180421761Y-75604714D01*
X180374142Y-75652333D01*
X151242380Y-77008333D02*
X151956666Y-77008333D01*
X152099523Y-77055952D01*
X152194761Y-77151190D01*
X152242380Y-77294047D01*
X152242380Y-77389285D01*
X151575714Y-76103571D02*
X152242380Y-76103571D01*
X151194761Y-76341666D02*
X151909047Y-76579761D01*
X151909047Y-75960714D01*
X127214333Y-71573380D02*
X126881000Y-71097190D01*
X126642904Y-71573380D02*
X126642904Y-70573380D01*
X127023857Y-70573380D01*
X127119095Y-70621000D01*
X127166714Y-70668619D01*
X127214333Y-70763857D01*
X127214333Y-70906714D01*
X127166714Y-71001952D01*
X127119095Y-71049571D01*
X127023857Y-71097190D01*
X126642904Y-71097190D01*
X127547666Y-70573380D02*
X128166714Y-70573380D01*
X127833380Y-70954333D01*
X127976238Y-70954333D01*
X128071476Y-71001952D01*
X128119095Y-71049571D01*
X128166714Y-71144809D01*
X128166714Y-71382904D01*
X128119095Y-71478142D01*
X128071476Y-71525761D01*
X127976238Y-71573380D01*
X127690523Y-71573380D01*
X127595285Y-71525761D01*
X127547666Y-71478142D01*
X123150333Y-69541380D02*
X122817000Y-69065190D01*
X122578904Y-69541380D02*
X122578904Y-68541380D01*
X122959857Y-68541380D01*
X123055095Y-68589000D01*
X123102714Y-68636619D01*
X123150333Y-68731857D01*
X123150333Y-68874714D01*
X123102714Y-68969952D01*
X123055095Y-69017571D01*
X122959857Y-69065190D01*
X122578904Y-69065190D01*
X123531285Y-68636619D02*
X123578904Y-68589000D01*
X123674142Y-68541380D01*
X123912238Y-68541380D01*
X124007476Y-68589000D01*
X124055095Y-68636619D01*
X124102714Y-68731857D01*
X124102714Y-68827095D01*
X124055095Y-68969952D01*
X123483666Y-69541380D01*
X124102714Y-69541380D01*
X139279333Y-71573380D02*
X138803142Y-71573380D01*
X138803142Y-70573380D01*
X139565047Y-70668619D02*
X139612666Y-70621000D01*
X139707904Y-70573380D01*
X139946000Y-70573380D01*
X140041238Y-70621000D01*
X140088857Y-70668619D01*
X140136476Y-70763857D01*
X140136476Y-70859095D01*
X140088857Y-71001952D01*
X139517428Y-71573380D01*
X140136476Y-71573380D01*
X133310333Y-71700380D02*
X132834142Y-71700380D01*
X132834142Y-70700380D01*
X134167476Y-71700380D02*
X133596047Y-71700380D01*
X133881761Y-71700380D02*
X133881761Y-70700380D01*
X133786523Y-70843238D01*
X133691285Y-70938476D01*
X133596047Y-70986095D01*
X144374142Y-75985666D02*
X144421761Y-76033285D01*
X144469380Y-76176142D01*
X144469380Y-76271380D01*
X144421761Y-76414238D01*
X144326523Y-76509476D01*
X144231285Y-76557095D01*
X144040809Y-76604714D01*
X143897952Y-76604714D01*
X143707476Y-76557095D01*
X143612238Y-76509476D01*
X143517000Y-76414238D01*
X143469380Y-76271380D01*
X143469380Y-76176142D01*
X143517000Y-76033285D01*
X143564619Y-75985666D01*
X143469380Y-75652333D02*
X143469380Y-75033285D01*
X143850333Y-75366619D01*
X143850333Y-75223761D01*
X143897952Y-75128523D01*
X143945571Y-75080904D01*
X144040809Y-75033285D01*
X144278904Y-75033285D01*
X144374142Y-75080904D01*
X144421761Y-75128523D01*
X144469380Y-75223761D01*
X144469380Y-75509476D01*
X144421761Y-75604714D01*
X144374142Y-75652333D01*
X138532142Y-75985666D02*
X138579761Y-76033285D01*
X138627380Y-76176142D01*
X138627380Y-76271380D01*
X138579761Y-76414238D01*
X138484523Y-76509476D01*
X138389285Y-76557095D01*
X138198809Y-76604714D01*
X138055952Y-76604714D01*
X137865476Y-76557095D01*
X137770238Y-76509476D01*
X137675000Y-76414238D01*
X137627380Y-76271380D01*
X137627380Y-76176142D01*
X137675000Y-76033285D01*
X137722619Y-75985666D01*
X137722619Y-75604714D02*
X137675000Y-75557095D01*
X137627380Y-75461857D01*
X137627380Y-75223761D01*
X137675000Y-75128523D01*
X137722619Y-75080904D01*
X137817857Y-75033285D01*
X137913095Y-75033285D01*
X138055952Y-75080904D01*
X138627380Y-75652333D01*
X138627380Y-75033285D01*
X132309142Y-75985666D02*
X132356761Y-76033285D01*
X132404380Y-76176142D01*
X132404380Y-76271380D01*
X132356761Y-76414238D01*
X132261523Y-76509476D01*
X132166285Y-76557095D01*
X131975809Y-76604714D01*
X131832952Y-76604714D01*
X131642476Y-76557095D01*
X131547238Y-76509476D01*
X131452000Y-76414238D01*
X131404380Y-76271380D01*
X131404380Y-76176142D01*
X131452000Y-76033285D01*
X131499619Y-75985666D01*
X132404380Y-75033285D02*
X132404380Y-75604714D01*
X132404380Y-75319000D02*
X131404380Y-75319000D01*
X131547238Y-75414238D01*
X131642476Y-75509476D01*
X131690095Y-75604714D01*
X123150333Y-71573380D02*
X122817000Y-71097190D01*
X122578904Y-71573380D02*
X122578904Y-70573380D01*
X122959857Y-70573380D01*
X123055095Y-70621000D01*
X123102714Y-70668619D01*
X123150333Y-70763857D01*
X123150333Y-70906714D01*
X123102714Y-71001952D01*
X123055095Y-71049571D01*
X122959857Y-71097190D01*
X122578904Y-71097190D01*
X124102714Y-71573380D02*
X123531285Y-71573380D01*
X123817000Y-71573380D02*
X123817000Y-70573380D01*
X123721761Y-70716238D01*
X123626523Y-70811476D01*
X123531285Y-70859095D01*
X126091380Y-77008333D02*
X126805666Y-77008333D01*
X126948523Y-77055952D01*
X127043761Y-77151190D01*
X127091380Y-77294047D01*
X127091380Y-77389285D01*
X126091380Y-76627380D02*
X126091380Y-76008333D01*
X126472333Y-76341666D01*
X126472333Y-76198809D01*
X126519952Y-76103571D01*
X126567571Y-76055952D01*
X126662809Y-76008333D01*
X126900904Y-76008333D01*
X126996142Y-76055952D01*
X127043761Y-76103571D01*
X127091380Y-76198809D01*
X127091380Y-76484523D01*
X127043761Y-76579761D01*
X126996142Y-76627380D01*
X150796666Y-67016380D02*
X150796666Y-67730666D01*
X150749047Y-67873523D01*
X150653809Y-67968761D01*
X150510952Y-68016380D01*
X150415714Y-68016380D01*
X151225238Y-67111619D02*
X151272857Y-67064000D01*
X151368095Y-67016380D01*
X151606190Y-67016380D01*
X151701428Y-67064000D01*
X151749047Y-67111619D01*
X151796666Y-67206857D01*
X151796666Y-67302095D01*
X151749047Y-67444952D01*
X151177619Y-68016380D01*
X151796666Y-68016380D01*
X121078666Y-66762380D02*
X121078666Y-67476666D01*
X121031047Y-67619523D01*
X120935809Y-67714761D01*
X120792952Y-67762380D01*
X120697714Y-67762380D01*
X122078666Y-67762380D02*
X121507238Y-67762380D01*
X121792952Y-67762380D02*
X121792952Y-66762380D01*
X121697714Y-66905238D01*
X121602476Y-67000476D01*
X121507238Y-67048095D01*
X123825095Y-31202380D02*
X123825095Y-32011904D01*
X123872714Y-32107142D01*
X123920333Y-32154761D01*
X124015571Y-32202380D01*
X124206047Y-32202380D01*
X124301285Y-32154761D01*
X124348904Y-32107142D01*
X124396523Y-32011904D01*
X124396523Y-31202380D01*
X125396523Y-32202380D02*
X124825095Y-32202380D01*
X125110809Y-32202380D02*
X125110809Y-31202380D01*
X125015571Y-31345238D01*
X124920333Y-31440476D01*
X124825095Y-31488095D01*
M02*
