G04 #@! TF.GenerationSoftware,KiCad,Pcbnew,5.1.5+dfsg1-2build2*
G04 #@! TF.CreationDate,2021-10-04T21:44:55-05:00*
G04 #@! TF.ProjectId,,58585858-5858-4585-9858-585858585858,rev?*
G04 #@! TF.SameCoordinates,Original*
G04 #@! TF.FileFunction,Soldermask,Bot*
G04 #@! TF.FilePolarity,Negative*
%FSLAX46Y46*%
G04 Gerber Fmt 4.6, Leading zero omitted, Abs format (unit mm)*
G04 Created by KiCad (PCBNEW 5.1.5+dfsg1-2build2) date 2021-10-04 21:44:55*
%MOMM*%
%LPD*%
G04 APERTURE LIST*
%ADD10C,0.100000*%
G04 APERTURE END LIST*
D10*
G36*
X188513512Y-112565927D02*
G01*
X188662812Y-112595624D01*
X188826784Y-112663544D01*
X188974354Y-112762147D01*
X189099853Y-112887646D01*
X189198456Y-113035216D01*
X189266376Y-113199188D01*
X189301000Y-113373259D01*
X189301000Y-113550741D01*
X189266376Y-113724812D01*
X189198456Y-113888784D01*
X189099853Y-114036354D01*
X188974354Y-114161853D01*
X188826784Y-114260456D01*
X188662812Y-114328376D01*
X188513512Y-114358073D01*
X188488742Y-114363000D01*
X188311258Y-114363000D01*
X188286488Y-114358073D01*
X188137188Y-114328376D01*
X187973216Y-114260456D01*
X187825646Y-114161853D01*
X187700147Y-114036354D01*
X187601544Y-113888784D01*
X187533624Y-113724812D01*
X187499000Y-113550741D01*
X187499000Y-113373259D01*
X187533624Y-113199188D01*
X187601544Y-113035216D01*
X187700147Y-112887646D01*
X187825646Y-112762147D01*
X187973216Y-112663544D01*
X188137188Y-112595624D01*
X188286488Y-112565927D01*
X188311258Y-112561000D01*
X188488742Y-112561000D01*
X188513512Y-112565927D01*
G37*
G36*
X158033512Y-112565927D02*
G01*
X158182812Y-112595624D01*
X158346784Y-112663544D01*
X158494354Y-112762147D01*
X158619853Y-112887646D01*
X158718456Y-113035216D01*
X158786376Y-113199188D01*
X158821000Y-113373259D01*
X158821000Y-113550741D01*
X158786376Y-113724812D01*
X158718456Y-113888784D01*
X158619853Y-114036354D01*
X158494354Y-114161853D01*
X158346784Y-114260456D01*
X158182812Y-114328376D01*
X158033512Y-114358073D01*
X158008742Y-114363000D01*
X157831258Y-114363000D01*
X157806488Y-114358073D01*
X157657188Y-114328376D01*
X157493216Y-114260456D01*
X157345646Y-114161853D01*
X157220147Y-114036354D01*
X157121544Y-113888784D01*
X157053624Y-113724812D01*
X157019000Y-113550741D01*
X157019000Y-113373259D01*
X157053624Y-113199188D01*
X157121544Y-113035216D01*
X157220147Y-112887646D01*
X157345646Y-112762147D01*
X157493216Y-112663544D01*
X157657188Y-112595624D01*
X157806488Y-112565927D01*
X157831258Y-112561000D01*
X158008742Y-112561000D01*
X158033512Y-112565927D01*
G37*
G36*
X122033512Y-112565927D02*
G01*
X122182812Y-112595624D01*
X122346784Y-112663544D01*
X122494354Y-112762147D01*
X122619853Y-112887646D01*
X122718456Y-113035216D01*
X122786376Y-113199188D01*
X122821000Y-113373259D01*
X122821000Y-113550741D01*
X122786376Y-113724812D01*
X122718456Y-113888784D01*
X122619853Y-114036354D01*
X122494354Y-114161853D01*
X122346784Y-114260456D01*
X122182812Y-114328376D01*
X122033512Y-114358073D01*
X122008742Y-114363000D01*
X121831258Y-114363000D01*
X121806488Y-114358073D01*
X121657188Y-114328376D01*
X121493216Y-114260456D01*
X121345646Y-114161853D01*
X121220147Y-114036354D01*
X121121544Y-113888784D01*
X121053624Y-113724812D01*
X121019000Y-113550741D01*
X121019000Y-113373259D01*
X121053624Y-113199188D01*
X121121544Y-113035216D01*
X121220147Y-112887646D01*
X121345646Y-112762147D01*
X121493216Y-112663544D01*
X121657188Y-112595624D01*
X121806488Y-112565927D01*
X121831258Y-112561000D01*
X122008742Y-112561000D01*
X122033512Y-112565927D01*
G37*
G36*
X149973512Y-112565927D02*
G01*
X150122812Y-112595624D01*
X150286784Y-112663544D01*
X150434354Y-112762147D01*
X150559853Y-112887646D01*
X150658456Y-113035216D01*
X150726376Y-113199188D01*
X150761000Y-113373259D01*
X150761000Y-113550741D01*
X150726376Y-113724812D01*
X150658456Y-113888784D01*
X150559853Y-114036354D01*
X150434354Y-114161853D01*
X150286784Y-114260456D01*
X150122812Y-114328376D01*
X149973512Y-114358073D01*
X149948742Y-114363000D01*
X149771258Y-114363000D01*
X149746488Y-114358073D01*
X149597188Y-114328376D01*
X149433216Y-114260456D01*
X149285646Y-114161853D01*
X149160147Y-114036354D01*
X149061544Y-113888784D01*
X148993624Y-113724812D01*
X148959000Y-113550741D01*
X148959000Y-113373259D01*
X148993624Y-113199188D01*
X149061544Y-113035216D01*
X149160147Y-112887646D01*
X149285646Y-112762147D01*
X149433216Y-112663544D01*
X149597188Y-112595624D01*
X149746488Y-112565927D01*
X149771258Y-112561000D01*
X149948742Y-112561000D01*
X149973512Y-112565927D01*
G37*
G36*
X152513512Y-112565927D02*
G01*
X152662812Y-112595624D01*
X152826784Y-112663544D01*
X152974354Y-112762147D01*
X153099853Y-112887646D01*
X153198456Y-113035216D01*
X153266376Y-113199188D01*
X153301000Y-113373259D01*
X153301000Y-113550741D01*
X153266376Y-113724812D01*
X153198456Y-113888784D01*
X153099853Y-114036354D01*
X152974354Y-114161853D01*
X152826784Y-114260456D01*
X152662812Y-114328376D01*
X152513512Y-114358073D01*
X152488742Y-114363000D01*
X152311258Y-114363000D01*
X152286488Y-114358073D01*
X152137188Y-114328376D01*
X151973216Y-114260456D01*
X151825646Y-114161853D01*
X151700147Y-114036354D01*
X151601544Y-113888784D01*
X151533624Y-113724812D01*
X151499000Y-113550741D01*
X151499000Y-113373259D01*
X151533624Y-113199188D01*
X151601544Y-113035216D01*
X151700147Y-112887646D01*
X151825646Y-112762147D01*
X151973216Y-112663544D01*
X152137188Y-112595624D01*
X152286488Y-112565927D01*
X152311258Y-112561000D01*
X152488742Y-112561000D01*
X152513512Y-112565927D01*
G37*
G36*
X185973512Y-112565927D02*
G01*
X186122812Y-112595624D01*
X186286784Y-112663544D01*
X186434354Y-112762147D01*
X186559853Y-112887646D01*
X186658456Y-113035216D01*
X186726376Y-113199188D01*
X186761000Y-113373259D01*
X186761000Y-113550741D01*
X186726376Y-113724812D01*
X186658456Y-113888784D01*
X186559853Y-114036354D01*
X186434354Y-114161853D01*
X186286784Y-114260456D01*
X186122812Y-114328376D01*
X185973512Y-114358073D01*
X185948742Y-114363000D01*
X185771258Y-114363000D01*
X185746488Y-114358073D01*
X185597188Y-114328376D01*
X185433216Y-114260456D01*
X185285646Y-114161853D01*
X185160147Y-114036354D01*
X185061544Y-113888784D01*
X184993624Y-113724812D01*
X184959000Y-113550741D01*
X184959000Y-113373259D01*
X184993624Y-113199188D01*
X185061544Y-113035216D01*
X185160147Y-112887646D01*
X185285646Y-112762147D01*
X185433216Y-112663544D01*
X185597188Y-112595624D01*
X185746488Y-112565927D01*
X185771258Y-112561000D01*
X185948742Y-112561000D01*
X185973512Y-112565927D01*
G37*
G36*
X185973512Y-110025927D02*
G01*
X186122812Y-110055624D01*
X186286784Y-110123544D01*
X186434354Y-110222147D01*
X186559853Y-110347646D01*
X186658456Y-110495216D01*
X186726376Y-110659188D01*
X186761000Y-110833259D01*
X186761000Y-111010741D01*
X186726376Y-111184812D01*
X186658456Y-111348784D01*
X186559853Y-111496354D01*
X186434354Y-111621853D01*
X186286784Y-111720456D01*
X186122812Y-111788376D01*
X185973512Y-111818073D01*
X185948742Y-111823000D01*
X185771258Y-111823000D01*
X185746488Y-111818073D01*
X185597188Y-111788376D01*
X185433216Y-111720456D01*
X185285646Y-111621853D01*
X185160147Y-111496354D01*
X185061544Y-111348784D01*
X184993624Y-111184812D01*
X184959000Y-111010741D01*
X184959000Y-110833259D01*
X184993624Y-110659188D01*
X185061544Y-110495216D01*
X185160147Y-110347646D01*
X185285646Y-110222147D01*
X185433216Y-110123544D01*
X185597188Y-110055624D01*
X185746488Y-110025927D01*
X185771258Y-110021000D01*
X185948742Y-110021000D01*
X185973512Y-110025927D01*
G37*
G36*
X188513512Y-110025927D02*
G01*
X188662812Y-110055624D01*
X188826784Y-110123544D01*
X188974354Y-110222147D01*
X189099853Y-110347646D01*
X189198456Y-110495216D01*
X189266376Y-110659188D01*
X189301000Y-110833259D01*
X189301000Y-111010741D01*
X189266376Y-111184812D01*
X189198456Y-111348784D01*
X189099853Y-111496354D01*
X188974354Y-111621853D01*
X188826784Y-111720456D01*
X188662812Y-111788376D01*
X188513512Y-111818073D01*
X188488742Y-111823000D01*
X188311258Y-111823000D01*
X188286488Y-111818073D01*
X188137188Y-111788376D01*
X187973216Y-111720456D01*
X187825646Y-111621853D01*
X187700147Y-111496354D01*
X187601544Y-111348784D01*
X187533624Y-111184812D01*
X187499000Y-111010741D01*
X187499000Y-110833259D01*
X187533624Y-110659188D01*
X187601544Y-110495216D01*
X187700147Y-110347646D01*
X187825646Y-110222147D01*
X187973216Y-110123544D01*
X188137188Y-110055624D01*
X188286488Y-110025927D01*
X188311258Y-110021000D01*
X188488742Y-110021000D01*
X188513512Y-110025927D01*
G37*
G36*
X152513512Y-110025927D02*
G01*
X152662812Y-110055624D01*
X152826784Y-110123544D01*
X152974354Y-110222147D01*
X153099853Y-110347646D01*
X153198456Y-110495216D01*
X153266376Y-110659188D01*
X153301000Y-110833259D01*
X153301000Y-111010741D01*
X153266376Y-111184812D01*
X153198456Y-111348784D01*
X153099853Y-111496354D01*
X152974354Y-111621853D01*
X152826784Y-111720456D01*
X152662812Y-111788376D01*
X152513512Y-111818073D01*
X152488742Y-111823000D01*
X152311258Y-111823000D01*
X152286488Y-111818073D01*
X152137188Y-111788376D01*
X151973216Y-111720456D01*
X151825646Y-111621853D01*
X151700147Y-111496354D01*
X151601544Y-111348784D01*
X151533624Y-111184812D01*
X151499000Y-111010741D01*
X151499000Y-110833259D01*
X151533624Y-110659188D01*
X151601544Y-110495216D01*
X151700147Y-110347646D01*
X151825646Y-110222147D01*
X151973216Y-110123544D01*
X152137188Y-110055624D01*
X152286488Y-110025927D01*
X152311258Y-110021000D01*
X152488742Y-110021000D01*
X152513512Y-110025927D01*
G37*
G36*
X149973512Y-110025927D02*
G01*
X150122812Y-110055624D01*
X150286784Y-110123544D01*
X150434354Y-110222147D01*
X150559853Y-110347646D01*
X150658456Y-110495216D01*
X150726376Y-110659188D01*
X150761000Y-110833259D01*
X150761000Y-111010741D01*
X150726376Y-111184812D01*
X150658456Y-111348784D01*
X150559853Y-111496354D01*
X150434354Y-111621853D01*
X150286784Y-111720456D01*
X150122812Y-111788376D01*
X149973512Y-111818073D01*
X149948742Y-111823000D01*
X149771258Y-111823000D01*
X149746488Y-111818073D01*
X149597188Y-111788376D01*
X149433216Y-111720456D01*
X149285646Y-111621853D01*
X149160147Y-111496354D01*
X149061544Y-111348784D01*
X148993624Y-111184812D01*
X148959000Y-111010741D01*
X148959000Y-110833259D01*
X148993624Y-110659188D01*
X149061544Y-110495216D01*
X149160147Y-110347646D01*
X149285646Y-110222147D01*
X149433216Y-110123544D01*
X149597188Y-110055624D01*
X149746488Y-110025927D01*
X149771258Y-110021000D01*
X149948742Y-110021000D01*
X149973512Y-110025927D01*
G37*
G36*
X158033512Y-110025927D02*
G01*
X158182812Y-110055624D01*
X158346784Y-110123544D01*
X158494354Y-110222147D01*
X158619853Y-110347646D01*
X158718456Y-110495216D01*
X158786376Y-110659188D01*
X158821000Y-110833259D01*
X158821000Y-111010741D01*
X158786376Y-111184812D01*
X158718456Y-111348784D01*
X158619853Y-111496354D01*
X158494354Y-111621853D01*
X158346784Y-111720456D01*
X158182812Y-111788376D01*
X158033512Y-111818073D01*
X158008742Y-111823000D01*
X157831258Y-111823000D01*
X157806488Y-111818073D01*
X157657188Y-111788376D01*
X157493216Y-111720456D01*
X157345646Y-111621853D01*
X157220147Y-111496354D01*
X157121544Y-111348784D01*
X157053624Y-111184812D01*
X157019000Y-111010741D01*
X157019000Y-110833259D01*
X157053624Y-110659188D01*
X157121544Y-110495216D01*
X157220147Y-110347646D01*
X157345646Y-110222147D01*
X157493216Y-110123544D01*
X157657188Y-110055624D01*
X157806488Y-110025927D01*
X157831258Y-110021000D01*
X158008742Y-110021000D01*
X158033512Y-110025927D01*
G37*
G36*
X122033512Y-110025927D02*
G01*
X122182812Y-110055624D01*
X122346784Y-110123544D01*
X122494354Y-110222147D01*
X122619853Y-110347646D01*
X122718456Y-110495216D01*
X122786376Y-110659188D01*
X122821000Y-110833259D01*
X122821000Y-111010741D01*
X122786376Y-111184812D01*
X122718456Y-111348784D01*
X122619853Y-111496354D01*
X122494354Y-111621853D01*
X122346784Y-111720456D01*
X122182812Y-111788376D01*
X122033512Y-111818073D01*
X122008742Y-111823000D01*
X121831258Y-111823000D01*
X121806488Y-111818073D01*
X121657188Y-111788376D01*
X121493216Y-111720456D01*
X121345646Y-111621853D01*
X121220147Y-111496354D01*
X121121544Y-111348784D01*
X121053624Y-111184812D01*
X121019000Y-111010741D01*
X121019000Y-110833259D01*
X121053624Y-110659188D01*
X121121544Y-110495216D01*
X121220147Y-110347646D01*
X121345646Y-110222147D01*
X121493216Y-110123544D01*
X121657188Y-110055624D01*
X121806488Y-110025927D01*
X121831258Y-110021000D01*
X122008742Y-110021000D01*
X122033512Y-110025927D01*
G37*
G36*
X152513512Y-107485927D02*
G01*
X152662812Y-107515624D01*
X152826784Y-107583544D01*
X152974354Y-107682147D01*
X153099853Y-107807646D01*
X153198456Y-107955216D01*
X153266376Y-108119188D01*
X153301000Y-108293259D01*
X153301000Y-108470741D01*
X153266376Y-108644812D01*
X153198456Y-108808784D01*
X153099853Y-108956354D01*
X152974354Y-109081853D01*
X152826784Y-109180456D01*
X152662812Y-109248376D01*
X152513512Y-109278073D01*
X152488742Y-109283000D01*
X152311258Y-109283000D01*
X152286488Y-109278073D01*
X152137188Y-109248376D01*
X151973216Y-109180456D01*
X151825646Y-109081853D01*
X151700147Y-108956354D01*
X151601544Y-108808784D01*
X151533624Y-108644812D01*
X151499000Y-108470741D01*
X151499000Y-108293259D01*
X151533624Y-108119188D01*
X151601544Y-107955216D01*
X151700147Y-107807646D01*
X151825646Y-107682147D01*
X151973216Y-107583544D01*
X152137188Y-107515624D01*
X152286488Y-107485927D01*
X152311258Y-107481000D01*
X152488742Y-107481000D01*
X152513512Y-107485927D01*
G37*
G36*
X122033512Y-107485927D02*
G01*
X122182812Y-107515624D01*
X122346784Y-107583544D01*
X122494354Y-107682147D01*
X122619853Y-107807646D01*
X122718456Y-107955216D01*
X122786376Y-108119188D01*
X122821000Y-108293259D01*
X122821000Y-108470741D01*
X122786376Y-108644812D01*
X122718456Y-108808784D01*
X122619853Y-108956354D01*
X122494354Y-109081853D01*
X122346784Y-109180456D01*
X122182812Y-109248376D01*
X122033512Y-109278073D01*
X122008742Y-109283000D01*
X121831258Y-109283000D01*
X121806488Y-109278073D01*
X121657188Y-109248376D01*
X121493216Y-109180456D01*
X121345646Y-109081853D01*
X121220147Y-108956354D01*
X121121544Y-108808784D01*
X121053624Y-108644812D01*
X121019000Y-108470741D01*
X121019000Y-108293259D01*
X121053624Y-108119188D01*
X121121544Y-107955216D01*
X121220147Y-107807646D01*
X121345646Y-107682147D01*
X121493216Y-107583544D01*
X121657188Y-107515624D01*
X121806488Y-107485927D01*
X121831258Y-107481000D01*
X122008742Y-107481000D01*
X122033512Y-107485927D01*
G37*
G36*
X185973512Y-107485927D02*
G01*
X186122812Y-107515624D01*
X186286784Y-107583544D01*
X186434354Y-107682147D01*
X186559853Y-107807646D01*
X186658456Y-107955216D01*
X186726376Y-108119188D01*
X186761000Y-108293259D01*
X186761000Y-108470741D01*
X186726376Y-108644812D01*
X186658456Y-108808784D01*
X186559853Y-108956354D01*
X186434354Y-109081853D01*
X186286784Y-109180456D01*
X186122812Y-109248376D01*
X185973512Y-109278073D01*
X185948742Y-109283000D01*
X185771258Y-109283000D01*
X185746488Y-109278073D01*
X185597188Y-109248376D01*
X185433216Y-109180456D01*
X185285646Y-109081853D01*
X185160147Y-108956354D01*
X185061544Y-108808784D01*
X184993624Y-108644812D01*
X184959000Y-108470741D01*
X184959000Y-108293259D01*
X184993624Y-108119188D01*
X185061544Y-107955216D01*
X185160147Y-107807646D01*
X185285646Y-107682147D01*
X185433216Y-107583544D01*
X185597188Y-107515624D01*
X185746488Y-107485927D01*
X185771258Y-107481000D01*
X185948742Y-107481000D01*
X185973512Y-107485927D01*
G37*
G36*
X188513512Y-107485927D02*
G01*
X188662812Y-107515624D01*
X188826784Y-107583544D01*
X188974354Y-107682147D01*
X189099853Y-107807646D01*
X189198456Y-107955216D01*
X189266376Y-108119188D01*
X189301000Y-108293259D01*
X189301000Y-108470741D01*
X189266376Y-108644812D01*
X189198456Y-108808784D01*
X189099853Y-108956354D01*
X188974354Y-109081853D01*
X188826784Y-109180456D01*
X188662812Y-109248376D01*
X188513512Y-109278073D01*
X188488742Y-109283000D01*
X188311258Y-109283000D01*
X188286488Y-109278073D01*
X188137188Y-109248376D01*
X187973216Y-109180456D01*
X187825646Y-109081853D01*
X187700147Y-108956354D01*
X187601544Y-108808784D01*
X187533624Y-108644812D01*
X187499000Y-108470741D01*
X187499000Y-108293259D01*
X187533624Y-108119188D01*
X187601544Y-107955216D01*
X187700147Y-107807646D01*
X187825646Y-107682147D01*
X187973216Y-107583544D01*
X188137188Y-107515624D01*
X188286488Y-107485927D01*
X188311258Y-107481000D01*
X188488742Y-107481000D01*
X188513512Y-107485927D01*
G37*
G36*
X149973512Y-107485927D02*
G01*
X150122812Y-107515624D01*
X150286784Y-107583544D01*
X150434354Y-107682147D01*
X150559853Y-107807646D01*
X150658456Y-107955216D01*
X150726376Y-108119188D01*
X150761000Y-108293259D01*
X150761000Y-108470741D01*
X150726376Y-108644812D01*
X150658456Y-108808784D01*
X150559853Y-108956354D01*
X150434354Y-109081853D01*
X150286784Y-109180456D01*
X150122812Y-109248376D01*
X149973512Y-109278073D01*
X149948742Y-109283000D01*
X149771258Y-109283000D01*
X149746488Y-109278073D01*
X149597188Y-109248376D01*
X149433216Y-109180456D01*
X149285646Y-109081853D01*
X149160147Y-108956354D01*
X149061544Y-108808784D01*
X148993624Y-108644812D01*
X148959000Y-108470741D01*
X148959000Y-108293259D01*
X148993624Y-108119188D01*
X149061544Y-107955216D01*
X149160147Y-107807646D01*
X149285646Y-107682147D01*
X149433216Y-107583544D01*
X149597188Y-107515624D01*
X149746488Y-107485927D01*
X149771258Y-107481000D01*
X149948742Y-107481000D01*
X149973512Y-107485927D01*
G37*
G36*
X158033512Y-107485927D02*
G01*
X158182812Y-107515624D01*
X158346784Y-107583544D01*
X158494354Y-107682147D01*
X158619853Y-107807646D01*
X158718456Y-107955216D01*
X158786376Y-108119188D01*
X158821000Y-108293259D01*
X158821000Y-108470741D01*
X158786376Y-108644812D01*
X158718456Y-108808784D01*
X158619853Y-108956354D01*
X158494354Y-109081853D01*
X158346784Y-109180456D01*
X158182812Y-109248376D01*
X158033512Y-109278073D01*
X158008742Y-109283000D01*
X157831258Y-109283000D01*
X157806488Y-109278073D01*
X157657188Y-109248376D01*
X157493216Y-109180456D01*
X157345646Y-109081853D01*
X157220147Y-108956354D01*
X157121544Y-108808784D01*
X157053624Y-108644812D01*
X157019000Y-108470741D01*
X157019000Y-108293259D01*
X157053624Y-108119188D01*
X157121544Y-107955216D01*
X157220147Y-107807646D01*
X157345646Y-107682147D01*
X157493216Y-107583544D01*
X157657188Y-107515624D01*
X157806488Y-107485927D01*
X157831258Y-107481000D01*
X158008742Y-107481000D01*
X158033512Y-107485927D01*
G37*
G36*
X188513512Y-104945927D02*
G01*
X188662812Y-104975624D01*
X188826784Y-105043544D01*
X188974354Y-105142147D01*
X189099853Y-105267646D01*
X189198456Y-105415216D01*
X189266376Y-105579188D01*
X189301000Y-105753259D01*
X189301000Y-105930741D01*
X189266376Y-106104812D01*
X189198456Y-106268784D01*
X189099853Y-106416354D01*
X188974354Y-106541853D01*
X188826784Y-106640456D01*
X188662812Y-106708376D01*
X188513512Y-106738073D01*
X188488742Y-106743000D01*
X188311258Y-106743000D01*
X188286488Y-106738073D01*
X188137188Y-106708376D01*
X187973216Y-106640456D01*
X187825646Y-106541853D01*
X187700147Y-106416354D01*
X187601544Y-106268784D01*
X187533624Y-106104812D01*
X187499000Y-105930741D01*
X187499000Y-105753259D01*
X187533624Y-105579188D01*
X187601544Y-105415216D01*
X187700147Y-105267646D01*
X187825646Y-105142147D01*
X187973216Y-105043544D01*
X188137188Y-104975624D01*
X188286488Y-104945927D01*
X188311258Y-104941000D01*
X188488742Y-104941000D01*
X188513512Y-104945927D01*
G37*
G36*
X152513512Y-104945927D02*
G01*
X152662812Y-104975624D01*
X152826784Y-105043544D01*
X152974354Y-105142147D01*
X153099853Y-105267646D01*
X153198456Y-105415216D01*
X153266376Y-105579188D01*
X153301000Y-105753259D01*
X153301000Y-105930741D01*
X153266376Y-106104812D01*
X153198456Y-106268784D01*
X153099853Y-106416354D01*
X152974354Y-106541853D01*
X152826784Y-106640456D01*
X152662812Y-106708376D01*
X152513512Y-106738073D01*
X152488742Y-106743000D01*
X152311258Y-106743000D01*
X152286488Y-106738073D01*
X152137188Y-106708376D01*
X151973216Y-106640456D01*
X151825646Y-106541853D01*
X151700147Y-106416354D01*
X151601544Y-106268784D01*
X151533624Y-106104812D01*
X151499000Y-105930741D01*
X151499000Y-105753259D01*
X151533624Y-105579188D01*
X151601544Y-105415216D01*
X151700147Y-105267646D01*
X151825646Y-105142147D01*
X151973216Y-105043544D01*
X152137188Y-104975624D01*
X152286488Y-104945927D01*
X152311258Y-104941000D01*
X152488742Y-104941000D01*
X152513512Y-104945927D01*
G37*
G36*
X185973512Y-104945927D02*
G01*
X186122812Y-104975624D01*
X186286784Y-105043544D01*
X186434354Y-105142147D01*
X186559853Y-105267646D01*
X186658456Y-105415216D01*
X186726376Y-105579188D01*
X186761000Y-105753259D01*
X186761000Y-105930741D01*
X186726376Y-106104812D01*
X186658456Y-106268784D01*
X186559853Y-106416354D01*
X186434354Y-106541853D01*
X186286784Y-106640456D01*
X186122812Y-106708376D01*
X185973512Y-106738073D01*
X185948742Y-106743000D01*
X185771258Y-106743000D01*
X185746488Y-106738073D01*
X185597188Y-106708376D01*
X185433216Y-106640456D01*
X185285646Y-106541853D01*
X185160147Y-106416354D01*
X185061544Y-106268784D01*
X184993624Y-106104812D01*
X184959000Y-105930741D01*
X184959000Y-105753259D01*
X184993624Y-105579188D01*
X185061544Y-105415216D01*
X185160147Y-105267646D01*
X185285646Y-105142147D01*
X185433216Y-105043544D01*
X185597188Y-104975624D01*
X185746488Y-104945927D01*
X185771258Y-104941000D01*
X185948742Y-104941000D01*
X185973512Y-104945927D01*
G37*
G36*
X158033512Y-104945927D02*
G01*
X158182812Y-104975624D01*
X158346784Y-105043544D01*
X158494354Y-105142147D01*
X158619853Y-105267646D01*
X158718456Y-105415216D01*
X158786376Y-105579188D01*
X158821000Y-105753259D01*
X158821000Y-105930741D01*
X158786376Y-106104812D01*
X158718456Y-106268784D01*
X158619853Y-106416354D01*
X158494354Y-106541853D01*
X158346784Y-106640456D01*
X158182812Y-106708376D01*
X158033512Y-106738073D01*
X158008742Y-106743000D01*
X157831258Y-106743000D01*
X157806488Y-106738073D01*
X157657188Y-106708376D01*
X157493216Y-106640456D01*
X157345646Y-106541853D01*
X157220147Y-106416354D01*
X157121544Y-106268784D01*
X157053624Y-106104812D01*
X157019000Y-105930741D01*
X157019000Y-105753259D01*
X157053624Y-105579188D01*
X157121544Y-105415216D01*
X157220147Y-105267646D01*
X157345646Y-105142147D01*
X157493216Y-105043544D01*
X157657188Y-104975624D01*
X157806488Y-104945927D01*
X157831258Y-104941000D01*
X158008742Y-104941000D01*
X158033512Y-104945927D01*
G37*
G36*
X122033512Y-104945927D02*
G01*
X122182812Y-104975624D01*
X122346784Y-105043544D01*
X122494354Y-105142147D01*
X122619853Y-105267646D01*
X122718456Y-105415216D01*
X122786376Y-105579188D01*
X122821000Y-105753259D01*
X122821000Y-105930741D01*
X122786376Y-106104812D01*
X122718456Y-106268784D01*
X122619853Y-106416354D01*
X122494354Y-106541853D01*
X122346784Y-106640456D01*
X122182812Y-106708376D01*
X122033512Y-106738073D01*
X122008742Y-106743000D01*
X121831258Y-106743000D01*
X121806488Y-106738073D01*
X121657188Y-106708376D01*
X121493216Y-106640456D01*
X121345646Y-106541853D01*
X121220147Y-106416354D01*
X121121544Y-106268784D01*
X121053624Y-106104812D01*
X121019000Y-105930741D01*
X121019000Y-105753259D01*
X121053624Y-105579188D01*
X121121544Y-105415216D01*
X121220147Y-105267646D01*
X121345646Y-105142147D01*
X121493216Y-105043544D01*
X121657188Y-104975624D01*
X121806488Y-104945927D01*
X121831258Y-104941000D01*
X122008742Y-104941000D01*
X122033512Y-104945927D01*
G37*
G36*
X149973512Y-104945927D02*
G01*
X150122812Y-104975624D01*
X150286784Y-105043544D01*
X150434354Y-105142147D01*
X150559853Y-105267646D01*
X150658456Y-105415216D01*
X150726376Y-105579188D01*
X150761000Y-105753259D01*
X150761000Y-105930741D01*
X150726376Y-106104812D01*
X150658456Y-106268784D01*
X150559853Y-106416354D01*
X150434354Y-106541853D01*
X150286784Y-106640456D01*
X150122812Y-106708376D01*
X149973512Y-106738073D01*
X149948742Y-106743000D01*
X149771258Y-106743000D01*
X149746488Y-106738073D01*
X149597188Y-106708376D01*
X149433216Y-106640456D01*
X149285646Y-106541853D01*
X149160147Y-106416354D01*
X149061544Y-106268784D01*
X148993624Y-106104812D01*
X148959000Y-105930741D01*
X148959000Y-105753259D01*
X148993624Y-105579188D01*
X149061544Y-105415216D01*
X149160147Y-105267646D01*
X149285646Y-105142147D01*
X149433216Y-105043544D01*
X149597188Y-104975624D01*
X149746488Y-104945927D01*
X149771258Y-104941000D01*
X149948742Y-104941000D01*
X149973512Y-104945927D01*
G37*
G36*
X149973512Y-102405927D02*
G01*
X150122812Y-102435624D01*
X150286784Y-102503544D01*
X150434354Y-102602147D01*
X150559853Y-102727646D01*
X150658456Y-102875216D01*
X150726376Y-103039188D01*
X150761000Y-103213259D01*
X150761000Y-103390741D01*
X150726376Y-103564812D01*
X150658456Y-103728784D01*
X150559853Y-103876354D01*
X150434354Y-104001853D01*
X150286784Y-104100456D01*
X150122812Y-104168376D01*
X149973512Y-104198073D01*
X149948742Y-104203000D01*
X149771258Y-104203000D01*
X149746488Y-104198073D01*
X149597188Y-104168376D01*
X149433216Y-104100456D01*
X149285646Y-104001853D01*
X149160147Y-103876354D01*
X149061544Y-103728784D01*
X148993624Y-103564812D01*
X148959000Y-103390741D01*
X148959000Y-103213259D01*
X148993624Y-103039188D01*
X149061544Y-102875216D01*
X149160147Y-102727646D01*
X149285646Y-102602147D01*
X149433216Y-102503544D01*
X149597188Y-102435624D01*
X149746488Y-102405927D01*
X149771258Y-102401000D01*
X149948742Y-102401000D01*
X149973512Y-102405927D01*
G37*
G36*
X122033512Y-102405927D02*
G01*
X122182812Y-102435624D01*
X122346784Y-102503544D01*
X122494354Y-102602147D01*
X122619853Y-102727646D01*
X122718456Y-102875216D01*
X122786376Y-103039188D01*
X122821000Y-103213259D01*
X122821000Y-103390741D01*
X122786376Y-103564812D01*
X122718456Y-103728784D01*
X122619853Y-103876354D01*
X122494354Y-104001853D01*
X122346784Y-104100456D01*
X122182812Y-104168376D01*
X122033512Y-104198073D01*
X122008742Y-104203000D01*
X121831258Y-104203000D01*
X121806488Y-104198073D01*
X121657188Y-104168376D01*
X121493216Y-104100456D01*
X121345646Y-104001853D01*
X121220147Y-103876354D01*
X121121544Y-103728784D01*
X121053624Y-103564812D01*
X121019000Y-103390741D01*
X121019000Y-103213259D01*
X121053624Y-103039188D01*
X121121544Y-102875216D01*
X121220147Y-102727646D01*
X121345646Y-102602147D01*
X121493216Y-102503544D01*
X121657188Y-102435624D01*
X121806488Y-102405927D01*
X121831258Y-102401000D01*
X122008742Y-102401000D01*
X122033512Y-102405927D01*
G37*
G36*
X152513512Y-102405927D02*
G01*
X152662812Y-102435624D01*
X152826784Y-102503544D01*
X152974354Y-102602147D01*
X153099853Y-102727646D01*
X153198456Y-102875216D01*
X153266376Y-103039188D01*
X153301000Y-103213259D01*
X153301000Y-103390741D01*
X153266376Y-103564812D01*
X153198456Y-103728784D01*
X153099853Y-103876354D01*
X152974354Y-104001853D01*
X152826784Y-104100456D01*
X152662812Y-104168376D01*
X152513512Y-104198073D01*
X152488742Y-104203000D01*
X152311258Y-104203000D01*
X152286488Y-104198073D01*
X152137188Y-104168376D01*
X151973216Y-104100456D01*
X151825646Y-104001853D01*
X151700147Y-103876354D01*
X151601544Y-103728784D01*
X151533624Y-103564812D01*
X151499000Y-103390741D01*
X151499000Y-103213259D01*
X151533624Y-103039188D01*
X151601544Y-102875216D01*
X151700147Y-102727646D01*
X151825646Y-102602147D01*
X151973216Y-102503544D01*
X152137188Y-102435624D01*
X152286488Y-102405927D01*
X152311258Y-102401000D01*
X152488742Y-102401000D01*
X152513512Y-102405927D01*
G37*
G36*
X188513512Y-102405927D02*
G01*
X188662812Y-102435624D01*
X188826784Y-102503544D01*
X188974354Y-102602147D01*
X189099853Y-102727646D01*
X189198456Y-102875216D01*
X189266376Y-103039188D01*
X189301000Y-103213259D01*
X189301000Y-103390741D01*
X189266376Y-103564812D01*
X189198456Y-103728784D01*
X189099853Y-103876354D01*
X188974354Y-104001853D01*
X188826784Y-104100456D01*
X188662812Y-104168376D01*
X188513512Y-104198073D01*
X188488742Y-104203000D01*
X188311258Y-104203000D01*
X188286488Y-104198073D01*
X188137188Y-104168376D01*
X187973216Y-104100456D01*
X187825646Y-104001853D01*
X187700147Y-103876354D01*
X187601544Y-103728784D01*
X187533624Y-103564812D01*
X187499000Y-103390741D01*
X187499000Y-103213259D01*
X187533624Y-103039188D01*
X187601544Y-102875216D01*
X187700147Y-102727646D01*
X187825646Y-102602147D01*
X187973216Y-102503544D01*
X188137188Y-102435624D01*
X188286488Y-102405927D01*
X188311258Y-102401000D01*
X188488742Y-102401000D01*
X188513512Y-102405927D01*
G37*
G36*
X158033512Y-102405927D02*
G01*
X158182812Y-102435624D01*
X158346784Y-102503544D01*
X158494354Y-102602147D01*
X158619853Y-102727646D01*
X158718456Y-102875216D01*
X158786376Y-103039188D01*
X158821000Y-103213259D01*
X158821000Y-103390741D01*
X158786376Y-103564812D01*
X158718456Y-103728784D01*
X158619853Y-103876354D01*
X158494354Y-104001853D01*
X158346784Y-104100456D01*
X158182812Y-104168376D01*
X158033512Y-104198073D01*
X158008742Y-104203000D01*
X157831258Y-104203000D01*
X157806488Y-104198073D01*
X157657188Y-104168376D01*
X157493216Y-104100456D01*
X157345646Y-104001853D01*
X157220147Y-103876354D01*
X157121544Y-103728784D01*
X157053624Y-103564812D01*
X157019000Y-103390741D01*
X157019000Y-103213259D01*
X157053624Y-103039188D01*
X157121544Y-102875216D01*
X157220147Y-102727646D01*
X157345646Y-102602147D01*
X157493216Y-102503544D01*
X157657188Y-102435624D01*
X157806488Y-102405927D01*
X157831258Y-102401000D01*
X158008742Y-102401000D01*
X158033512Y-102405927D01*
G37*
G36*
X185973512Y-102405927D02*
G01*
X186122812Y-102435624D01*
X186286784Y-102503544D01*
X186434354Y-102602147D01*
X186559853Y-102727646D01*
X186658456Y-102875216D01*
X186726376Y-103039188D01*
X186761000Y-103213259D01*
X186761000Y-103390741D01*
X186726376Y-103564812D01*
X186658456Y-103728784D01*
X186559853Y-103876354D01*
X186434354Y-104001853D01*
X186286784Y-104100456D01*
X186122812Y-104168376D01*
X185973512Y-104198073D01*
X185948742Y-104203000D01*
X185771258Y-104203000D01*
X185746488Y-104198073D01*
X185597188Y-104168376D01*
X185433216Y-104100456D01*
X185285646Y-104001853D01*
X185160147Y-103876354D01*
X185061544Y-103728784D01*
X184993624Y-103564812D01*
X184959000Y-103390741D01*
X184959000Y-103213259D01*
X184993624Y-103039188D01*
X185061544Y-102875216D01*
X185160147Y-102727646D01*
X185285646Y-102602147D01*
X185433216Y-102503544D01*
X185597188Y-102435624D01*
X185746488Y-102405927D01*
X185771258Y-102401000D01*
X185948742Y-102401000D01*
X185973512Y-102405927D01*
G37*
G36*
X152513512Y-99865927D02*
G01*
X152662812Y-99895624D01*
X152826784Y-99963544D01*
X152974354Y-100062147D01*
X153099853Y-100187646D01*
X153198456Y-100335216D01*
X153266376Y-100499188D01*
X153301000Y-100673259D01*
X153301000Y-100850741D01*
X153266376Y-101024812D01*
X153198456Y-101188784D01*
X153099853Y-101336354D01*
X152974354Y-101461853D01*
X152826784Y-101560456D01*
X152662812Y-101628376D01*
X152513512Y-101658073D01*
X152488742Y-101663000D01*
X152311258Y-101663000D01*
X152286488Y-101658073D01*
X152137188Y-101628376D01*
X151973216Y-101560456D01*
X151825646Y-101461853D01*
X151700147Y-101336354D01*
X151601544Y-101188784D01*
X151533624Y-101024812D01*
X151499000Y-100850741D01*
X151499000Y-100673259D01*
X151533624Y-100499188D01*
X151601544Y-100335216D01*
X151700147Y-100187646D01*
X151825646Y-100062147D01*
X151973216Y-99963544D01*
X152137188Y-99895624D01*
X152286488Y-99865927D01*
X152311258Y-99861000D01*
X152488742Y-99861000D01*
X152513512Y-99865927D01*
G37*
G36*
X188513512Y-99865927D02*
G01*
X188662812Y-99895624D01*
X188826784Y-99963544D01*
X188974354Y-100062147D01*
X189099853Y-100187646D01*
X189198456Y-100335216D01*
X189266376Y-100499188D01*
X189301000Y-100673259D01*
X189301000Y-100850741D01*
X189266376Y-101024812D01*
X189198456Y-101188784D01*
X189099853Y-101336354D01*
X188974354Y-101461853D01*
X188826784Y-101560456D01*
X188662812Y-101628376D01*
X188513512Y-101658073D01*
X188488742Y-101663000D01*
X188311258Y-101663000D01*
X188286488Y-101658073D01*
X188137188Y-101628376D01*
X187973216Y-101560456D01*
X187825646Y-101461853D01*
X187700147Y-101336354D01*
X187601544Y-101188784D01*
X187533624Y-101024812D01*
X187499000Y-100850741D01*
X187499000Y-100673259D01*
X187533624Y-100499188D01*
X187601544Y-100335216D01*
X187700147Y-100187646D01*
X187825646Y-100062147D01*
X187973216Y-99963544D01*
X188137188Y-99895624D01*
X188286488Y-99865927D01*
X188311258Y-99861000D01*
X188488742Y-99861000D01*
X188513512Y-99865927D01*
G37*
G36*
X122033512Y-99865927D02*
G01*
X122182812Y-99895624D01*
X122346784Y-99963544D01*
X122494354Y-100062147D01*
X122619853Y-100187646D01*
X122718456Y-100335216D01*
X122786376Y-100499188D01*
X122821000Y-100673259D01*
X122821000Y-100850741D01*
X122786376Y-101024812D01*
X122718456Y-101188784D01*
X122619853Y-101336354D01*
X122494354Y-101461853D01*
X122346784Y-101560456D01*
X122182812Y-101628376D01*
X122033512Y-101658073D01*
X122008742Y-101663000D01*
X121831258Y-101663000D01*
X121806488Y-101658073D01*
X121657188Y-101628376D01*
X121493216Y-101560456D01*
X121345646Y-101461853D01*
X121220147Y-101336354D01*
X121121544Y-101188784D01*
X121053624Y-101024812D01*
X121019000Y-100850741D01*
X121019000Y-100673259D01*
X121053624Y-100499188D01*
X121121544Y-100335216D01*
X121220147Y-100187646D01*
X121345646Y-100062147D01*
X121493216Y-99963544D01*
X121657188Y-99895624D01*
X121806488Y-99865927D01*
X121831258Y-99861000D01*
X122008742Y-99861000D01*
X122033512Y-99865927D01*
G37*
G36*
X185973512Y-99865927D02*
G01*
X186122812Y-99895624D01*
X186286784Y-99963544D01*
X186434354Y-100062147D01*
X186559853Y-100187646D01*
X186658456Y-100335216D01*
X186726376Y-100499188D01*
X186761000Y-100673259D01*
X186761000Y-100850741D01*
X186726376Y-101024812D01*
X186658456Y-101188784D01*
X186559853Y-101336354D01*
X186434354Y-101461853D01*
X186286784Y-101560456D01*
X186122812Y-101628376D01*
X185973512Y-101658073D01*
X185948742Y-101663000D01*
X185771258Y-101663000D01*
X185746488Y-101658073D01*
X185597188Y-101628376D01*
X185433216Y-101560456D01*
X185285646Y-101461853D01*
X185160147Y-101336354D01*
X185061544Y-101188784D01*
X184993624Y-101024812D01*
X184959000Y-100850741D01*
X184959000Y-100673259D01*
X184993624Y-100499188D01*
X185061544Y-100335216D01*
X185160147Y-100187646D01*
X185285646Y-100062147D01*
X185433216Y-99963544D01*
X185597188Y-99895624D01*
X185746488Y-99865927D01*
X185771258Y-99861000D01*
X185948742Y-99861000D01*
X185973512Y-99865927D01*
G37*
G36*
X158033512Y-99865927D02*
G01*
X158182812Y-99895624D01*
X158346784Y-99963544D01*
X158494354Y-100062147D01*
X158619853Y-100187646D01*
X158718456Y-100335216D01*
X158786376Y-100499188D01*
X158821000Y-100673259D01*
X158821000Y-100850741D01*
X158786376Y-101024812D01*
X158718456Y-101188784D01*
X158619853Y-101336354D01*
X158494354Y-101461853D01*
X158346784Y-101560456D01*
X158182812Y-101628376D01*
X158033512Y-101658073D01*
X158008742Y-101663000D01*
X157831258Y-101663000D01*
X157806488Y-101658073D01*
X157657188Y-101628376D01*
X157493216Y-101560456D01*
X157345646Y-101461853D01*
X157220147Y-101336354D01*
X157121544Y-101188784D01*
X157053624Y-101024812D01*
X157019000Y-100850741D01*
X157019000Y-100673259D01*
X157053624Y-100499188D01*
X157121544Y-100335216D01*
X157220147Y-100187646D01*
X157345646Y-100062147D01*
X157493216Y-99963544D01*
X157657188Y-99895624D01*
X157806488Y-99865927D01*
X157831258Y-99861000D01*
X158008742Y-99861000D01*
X158033512Y-99865927D01*
G37*
G36*
X149973512Y-99865927D02*
G01*
X150122812Y-99895624D01*
X150286784Y-99963544D01*
X150434354Y-100062147D01*
X150559853Y-100187646D01*
X150658456Y-100335216D01*
X150726376Y-100499188D01*
X150761000Y-100673259D01*
X150761000Y-100850741D01*
X150726376Y-101024812D01*
X150658456Y-101188784D01*
X150559853Y-101336354D01*
X150434354Y-101461853D01*
X150286784Y-101560456D01*
X150122812Y-101628376D01*
X149973512Y-101658073D01*
X149948742Y-101663000D01*
X149771258Y-101663000D01*
X149746488Y-101658073D01*
X149597188Y-101628376D01*
X149433216Y-101560456D01*
X149285646Y-101461853D01*
X149160147Y-101336354D01*
X149061544Y-101188784D01*
X148993624Y-101024812D01*
X148959000Y-100850741D01*
X148959000Y-100673259D01*
X148993624Y-100499188D01*
X149061544Y-100335216D01*
X149160147Y-100187646D01*
X149285646Y-100062147D01*
X149433216Y-99963544D01*
X149597188Y-99895624D01*
X149746488Y-99865927D01*
X149771258Y-99861000D01*
X149948742Y-99861000D01*
X149973512Y-99865927D01*
G37*
G36*
X188513512Y-97325927D02*
G01*
X188662812Y-97355624D01*
X188826784Y-97423544D01*
X188974354Y-97522147D01*
X189099853Y-97647646D01*
X189198456Y-97795216D01*
X189266376Y-97959188D01*
X189301000Y-98133259D01*
X189301000Y-98310741D01*
X189266376Y-98484812D01*
X189198456Y-98648784D01*
X189099853Y-98796354D01*
X188974354Y-98921853D01*
X188826784Y-99020456D01*
X188662812Y-99088376D01*
X188513512Y-99118073D01*
X188488742Y-99123000D01*
X188311258Y-99123000D01*
X188286488Y-99118073D01*
X188137188Y-99088376D01*
X187973216Y-99020456D01*
X187825646Y-98921853D01*
X187700147Y-98796354D01*
X187601544Y-98648784D01*
X187533624Y-98484812D01*
X187499000Y-98310741D01*
X187499000Y-98133259D01*
X187533624Y-97959188D01*
X187601544Y-97795216D01*
X187700147Y-97647646D01*
X187825646Y-97522147D01*
X187973216Y-97423544D01*
X188137188Y-97355624D01*
X188286488Y-97325927D01*
X188311258Y-97321000D01*
X188488742Y-97321000D01*
X188513512Y-97325927D01*
G37*
G36*
X122033512Y-97325927D02*
G01*
X122182812Y-97355624D01*
X122346784Y-97423544D01*
X122494354Y-97522147D01*
X122619853Y-97647646D01*
X122718456Y-97795216D01*
X122786376Y-97959188D01*
X122821000Y-98133259D01*
X122821000Y-98310741D01*
X122786376Y-98484812D01*
X122718456Y-98648784D01*
X122619853Y-98796354D01*
X122494354Y-98921853D01*
X122346784Y-99020456D01*
X122182812Y-99088376D01*
X122033512Y-99118073D01*
X122008742Y-99123000D01*
X121831258Y-99123000D01*
X121806488Y-99118073D01*
X121657188Y-99088376D01*
X121493216Y-99020456D01*
X121345646Y-98921853D01*
X121220147Y-98796354D01*
X121121544Y-98648784D01*
X121053624Y-98484812D01*
X121019000Y-98310741D01*
X121019000Y-98133259D01*
X121053624Y-97959188D01*
X121121544Y-97795216D01*
X121220147Y-97647646D01*
X121345646Y-97522147D01*
X121493216Y-97423544D01*
X121657188Y-97355624D01*
X121806488Y-97325927D01*
X121831258Y-97321000D01*
X122008742Y-97321000D01*
X122033512Y-97325927D01*
G37*
G36*
X185973512Y-97325927D02*
G01*
X186122812Y-97355624D01*
X186286784Y-97423544D01*
X186434354Y-97522147D01*
X186559853Y-97647646D01*
X186658456Y-97795216D01*
X186726376Y-97959188D01*
X186761000Y-98133259D01*
X186761000Y-98310741D01*
X186726376Y-98484812D01*
X186658456Y-98648784D01*
X186559853Y-98796354D01*
X186434354Y-98921853D01*
X186286784Y-99020456D01*
X186122812Y-99088376D01*
X185973512Y-99118073D01*
X185948742Y-99123000D01*
X185771258Y-99123000D01*
X185746488Y-99118073D01*
X185597188Y-99088376D01*
X185433216Y-99020456D01*
X185285646Y-98921853D01*
X185160147Y-98796354D01*
X185061544Y-98648784D01*
X184993624Y-98484812D01*
X184959000Y-98310741D01*
X184959000Y-98133259D01*
X184993624Y-97959188D01*
X185061544Y-97795216D01*
X185160147Y-97647646D01*
X185285646Y-97522147D01*
X185433216Y-97423544D01*
X185597188Y-97355624D01*
X185746488Y-97325927D01*
X185771258Y-97321000D01*
X185948742Y-97321000D01*
X185973512Y-97325927D01*
G37*
G36*
X158033512Y-97325927D02*
G01*
X158182812Y-97355624D01*
X158346784Y-97423544D01*
X158494354Y-97522147D01*
X158619853Y-97647646D01*
X158718456Y-97795216D01*
X158786376Y-97959188D01*
X158821000Y-98133259D01*
X158821000Y-98310741D01*
X158786376Y-98484812D01*
X158718456Y-98648784D01*
X158619853Y-98796354D01*
X158494354Y-98921853D01*
X158346784Y-99020456D01*
X158182812Y-99088376D01*
X158033512Y-99118073D01*
X158008742Y-99123000D01*
X157831258Y-99123000D01*
X157806488Y-99118073D01*
X157657188Y-99088376D01*
X157493216Y-99020456D01*
X157345646Y-98921853D01*
X157220147Y-98796354D01*
X157121544Y-98648784D01*
X157053624Y-98484812D01*
X157019000Y-98310741D01*
X157019000Y-98133259D01*
X157053624Y-97959188D01*
X157121544Y-97795216D01*
X157220147Y-97647646D01*
X157345646Y-97522147D01*
X157493216Y-97423544D01*
X157657188Y-97355624D01*
X157806488Y-97325927D01*
X157831258Y-97321000D01*
X158008742Y-97321000D01*
X158033512Y-97325927D01*
G37*
G36*
X149973512Y-97325927D02*
G01*
X150122812Y-97355624D01*
X150286784Y-97423544D01*
X150434354Y-97522147D01*
X150559853Y-97647646D01*
X150658456Y-97795216D01*
X150726376Y-97959188D01*
X150761000Y-98133259D01*
X150761000Y-98310741D01*
X150726376Y-98484812D01*
X150658456Y-98648784D01*
X150559853Y-98796354D01*
X150434354Y-98921853D01*
X150286784Y-99020456D01*
X150122812Y-99088376D01*
X149973512Y-99118073D01*
X149948742Y-99123000D01*
X149771258Y-99123000D01*
X149746488Y-99118073D01*
X149597188Y-99088376D01*
X149433216Y-99020456D01*
X149285646Y-98921853D01*
X149160147Y-98796354D01*
X149061544Y-98648784D01*
X148993624Y-98484812D01*
X148959000Y-98310741D01*
X148959000Y-98133259D01*
X148993624Y-97959188D01*
X149061544Y-97795216D01*
X149160147Y-97647646D01*
X149285646Y-97522147D01*
X149433216Y-97423544D01*
X149597188Y-97355624D01*
X149746488Y-97325927D01*
X149771258Y-97321000D01*
X149948742Y-97321000D01*
X149973512Y-97325927D01*
G37*
G36*
X152513512Y-97325927D02*
G01*
X152662812Y-97355624D01*
X152826784Y-97423544D01*
X152974354Y-97522147D01*
X153099853Y-97647646D01*
X153198456Y-97795216D01*
X153266376Y-97959188D01*
X153301000Y-98133259D01*
X153301000Y-98310741D01*
X153266376Y-98484812D01*
X153198456Y-98648784D01*
X153099853Y-98796354D01*
X152974354Y-98921853D01*
X152826784Y-99020456D01*
X152662812Y-99088376D01*
X152513512Y-99118073D01*
X152488742Y-99123000D01*
X152311258Y-99123000D01*
X152286488Y-99118073D01*
X152137188Y-99088376D01*
X151973216Y-99020456D01*
X151825646Y-98921853D01*
X151700147Y-98796354D01*
X151601544Y-98648784D01*
X151533624Y-98484812D01*
X151499000Y-98310741D01*
X151499000Y-98133259D01*
X151533624Y-97959188D01*
X151601544Y-97795216D01*
X151700147Y-97647646D01*
X151825646Y-97522147D01*
X151973216Y-97423544D01*
X152137188Y-97355624D01*
X152286488Y-97325927D01*
X152311258Y-97321000D01*
X152488742Y-97321000D01*
X152513512Y-97325927D01*
G37*
G36*
X122033512Y-94785927D02*
G01*
X122182812Y-94815624D01*
X122346784Y-94883544D01*
X122494354Y-94982147D01*
X122619853Y-95107646D01*
X122718456Y-95255216D01*
X122786376Y-95419188D01*
X122821000Y-95593259D01*
X122821000Y-95770741D01*
X122786376Y-95944812D01*
X122718456Y-96108784D01*
X122619853Y-96256354D01*
X122494354Y-96381853D01*
X122346784Y-96480456D01*
X122182812Y-96548376D01*
X122033512Y-96578073D01*
X122008742Y-96583000D01*
X121831258Y-96583000D01*
X121806488Y-96578073D01*
X121657188Y-96548376D01*
X121493216Y-96480456D01*
X121345646Y-96381853D01*
X121220147Y-96256354D01*
X121121544Y-96108784D01*
X121053624Y-95944812D01*
X121019000Y-95770741D01*
X121019000Y-95593259D01*
X121053624Y-95419188D01*
X121121544Y-95255216D01*
X121220147Y-95107646D01*
X121345646Y-94982147D01*
X121493216Y-94883544D01*
X121657188Y-94815624D01*
X121806488Y-94785927D01*
X121831258Y-94781000D01*
X122008742Y-94781000D01*
X122033512Y-94785927D01*
G37*
G36*
X152513512Y-94785927D02*
G01*
X152662812Y-94815624D01*
X152826784Y-94883544D01*
X152974354Y-94982147D01*
X153099853Y-95107646D01*
X153198456Y-95255216D01*
X153266376Y-95419188D01*
X153301000Y-95593259D01*
X153301000Y-95770741D01*
X153266376Y-95944812D01*
X153198456Y-96108784D01*
X153099853Y-96256354D01*
X152974354Y-96381853D01*
X152826784Y-96480456D01*
X152662812Y-96548376D01*
X152513512Y-96578073D01*
X152488742Y-96583000D01*
X152311258Y-96583000D01*
X152286488Y-96578073D01*
X152137188Y-96548376D01*
X151973216Y-96480456D01*
X151825646Y-96381853D01*
X151700147Y-96256354D01*
X151601544Y-96108784D01*
X151533624Y-95944812D01*
X151499000Y-95770741D01*
X151499000Y-95593259D01*
X151533624Y-95419188D01*
X151601544Y-95255216D01*
X151700147Y-95107646D01*
X151825646Y-94982147D01*
X151973216Y-94883544D01*
X152137188Y-94815624D01*
X152286488Y-94785927D01*
X152311258Y-94781000D01*
X152488742Y-94781000D01*
X152513512Y-94785927D01*
G37*
G36*
X149973512Y-94785927D02*
G01*
X150122812Y-94815624D01*
X150286784Y-94883544D01*
X150434354Y-94982147D01*
X150559853Y-95107646D01*
X150658456Y-95255216D01*
X150726376Y-95419188D01*
X150761000Y-95593259D01*
X150761000Y-95770741D01*
X150726376Y-95944812D01*
X150658456Y-96108784D01*
X150559853Y-96256354D01*
X150434354Y-96381853D01*
X150286784Y-96480456D01*
X150122812Y-96548376D01*
X149973512Y-96578073D01*
X149948742Y-96583000D01*
X149771258Y-96583000D01*
X149746488Y-96578073D01*
X149597188Y-96548376D01*
X149433216Y-96480456D01*
X149285646Y-96381853D01*
X149160147Y-96256354D01*
X149061544Y-96108784D01*
X148993624Y-95944812D01*
X148959000Y-95770741D01*
X148959000Y-95593259D01*
X148993624Y-95419188D01*
X149061544Y-95255216D01*
X149160147Y-95107646D01*
X149285646Y-94982147D01*
X149433216Y-94883544D01*
X149597188Y-94815624D01*
X149746488Y-94785927D01*
X149771258Y-94781000D01*
X149948742Y-94781000D01*
X149973512Y-94785927D01*
G37*
G36*
X188513512Y-94785927D02*
G01*
X188662812Y-94815624D01*
X188826784Y-94883544D01*
X188974354Y-94982147D01*
X189099853Y-95107646D01*
X189198456Y-95255216D01*
X189266376Y-95419188D01*
X189301000Y-95593259D01*
X189301000Y-95770741D01*
X189266376Y-95944812D01*
X189198456Y-96108784D01*
X189099853Y-96256354D01*
X188974354Y-96381853D01*
X188826784Y-96480456D01*
X188662812Y-96548376D01*
X188513512Y-96578073D01*
X188488742Y-96583000D01*
X188311258Y-96583000D01*
X188286488Y-96578073D01*
X188137188Y-96548376D01*
X187973216Y-96480456D01*
X187825646Y-96381853D01*
X187700147Y-96256354D01*
X187601544Y-96108784D01*
X187533624Y-95944812D01*
X187499000Y-95770741D01*
X187499000Y-95593259D01*
X187533624Y-95419188D01*
X187601544Y-95255216D01*
X187700147Y-95107646D01*
X187825646Y-94982147D01*
X187973216Y-94883544D01*
X188137188Y-94815624D01*
X188286488Y-94785927D01*
X188311258Y-94781000D01*
X188488742Y-94781000D01*
X188513512Y-94785927D01*
G37*
G36*
X158033512Y-94785927D02*
G01*
X158182812Y-94815624D01*
X158346784Y-94883544D01*
X158494354Y-94982147D01*
X158619853Y-95107646D01*
X158718456Y-95255216D01*
X158786376Y-95419188D01*
X158821000Y-95593259D01*
X158821000Y-95770741D01*
X158786376Y-95944812D01*
X158718456Y-96108784D01*
X158619853Y-96256354D01*
X158494354Y-96381853D01*
X158346784Y-96480456D01*
X158182812Y-96548376D01*
X158033512Y-96578073D01*
X158008742Y-96583000D01*
X157831258Y-96583000D01*
X157806488Y-96578073D01*
X157657188Y-96548376D01*
X157493216Y-96480456D01*
X157345646Y-96381853D01*
X157220147Y-96256354D01*
X157121544Y-96108784D01*
X157053624Y-95944812D01*
X157019000Y-95770741D01*
X157019000Y-95593259D01*
X157053624Y-95419188D01*
X157121544Y-95255216D01*
X157220147Y-95107646D01*
X157345646Y-94982147D01*
X157493216Y-94883544D01*
X157657188Y-94815624D01*
X157806488Y-94785927D01*
X157831258Y-94781000D01*
X158008742Y-94781000D01*
X158033512Y-94785927D01*
G37*
G36*
X185973512Y-94785927D02*
G01*
X186122812Y-94815624D01*
X186286784Y-94883544D01*
X186434354Y-94982147D01*
X186559853Y-95107646D01*
X186658456Y-95255216D01*
X186726376Y-95419188D01*
X186761000Y-95593259D01*
X186761000Y-95770741D01*
X186726376Y-95944812D01*
X186658456Y-96108784D01*
X186559853Y-96256354D01*
X186434354Y-96381853D01*
X186286784Y-96480456D01*
X186122812Y-96548376D01*
X185973512Y-96578073D01*
X185948742Y-96583000D01*
X185771258Y-96583000D01*
X185746488Y-96578073D01*
X185597188Y-96548376D01*
X185433216Y-96480456D01*
X185285646Y-96381853D01*
X185160147Y-96256354D01*
X185061544Y-96108784D01*
X184993624Y-95944812D01*
X184959000Y-95770741D01*
X184959000Y-95593259D01*
X184993624Y-95419188D01*
X185061544Y-95255216D01*
X185160147Y-95107646D01*
X185285646Y-94982147D01*
X185433216Y-94883544D01*
X185597188Y-94815624D01*
X185746488Y-94785927D01*
X185771258Y-94781000D01*
X185948742Y-94781000D01*
X185973512Y-94785927D01*
G37*
G36*
X186761000Y-94043000D02*
G01*
X184959000Y-94043000D01*
X184959000Y-92241000D01*
X186761000Y-92241000D01*
X186761000Y-94043000D01*
G37*
G36*
X188513512Y-92245927D02*
G01*
X188662812Y-92275624D01*
X188826784Y-92343544D01*
X188974354Y-92442147D01*
X189099853Y-92567646D01*
X189198456Y-92715216D01*
X189266376Y-92879188D01*
X189301000Y-93053259D01*
X189301000Y-93230741D01*
X189266376Y-93404812D01*
X189198456Y-93568784D01*
X189099853Y-93716354D01*
X188974354Y-93841853D01*
X188826784Y-93940456D01*
X188662812Y-94008376D01*
X188513512Y-94038073D01*
X188488742Y-94043000D01*
X188311258Y-94043000D01*
X188286488Y-94038073D01*
X188137188Y-94008376D01*
X187973216Y-93940456D01*
X187825646Y-93841853D01*
X187700147Y-93716354D01*
X187601544Y-93568784D01*
X187533624Y-93404812D01*
X187499000Y-93230741D01*
X187499000Y-93053259D01*
X187533624Y-92879188D01*
X187601544Y-92715216D01*
X187700147Y-92567646D01*
X187825646Y-92442147D01*
X187973216Y-92343544D01*
X188137188Y-92275624D01*
X188286488Y-92245927D01*
X188311258Y-92241000D01*
X188488742Y-92241000D01*
X188513512Y-92245927D01*
G37*
G36*
X150761000Y-94043000D02*
G01*
X148959000Y-94043000D01*
X148959000Y-92241000D01*
X150761000Y-92241000D01*
X150761000Y-94043000D01*
G37*
G36*
X122821000Y-94043000D02*
G01*
X121019000Y-94043000D01*
X121019000Y-92241000D01*
X122821000Y-92241000D01*
X122821000Y-94043000D01*
G37*
G36*
X152513512Y-92245927D02*
G01*
X152662812Y-92275624D01*
X152826784Y-92343544D01*
X152974354Y-92442147D01*
X153099853Y-92567646D01*
X153198456Y-92715216D01*
X153266376Y-92879188D01*
X153301000Y-93053259D01*
X153301000Y-93230741D01*
X153266376Y-93404812D01*
X153198456Y-93568784D01*
X153099853Y-93716354D01*
X152974354Y-93841853D01*
X152826784Y-93940456D01*
X152662812Y-94008376D01*
X152513512Y-94038073D01*
X152488742Y-94043000D01*
X152311258Y-94043000D01*
X152286488Y-94038073D01*
X152137188Y-94008376D01*
X151973216Y-93940456D01*
X151825646Y-93841853D01*
X151700147Y-93716354D01*
X151601544Y-93568784D01*
X151533624Y-93404812D01*
X151499000Y-93230741D01*
X151499000Y-93053259D01*
X151533624Y-92879188D01*
X151601544Y-92715216D01*
X151700147Y-92567646D01*
X151825646Y-92442147D01*
X151973216Y-92343544D01*
X152137188Y-92275624D01*
X152286488Y-92245927D01*
X152311258Y-92241000D01*
X152488742Y-92241000D01*
X152513512Y-92245927D01*
G37*
G36*
X158821000Y-94043000D02*
G01*
X157019000Y-94043000D01*
X157019000Y-92241000D01*
X158821000Y-92241000D01*
X158821000Y-94043000D01*
G37*
G36*
X185973512Y-64305927D02*
G01*
X186122812Y-64335624D01*
X186286784Y-64403544D01*
X186434354Y-64502147D01*
X186559853Y-64627646D01*
X186658456Y-64775216D01*
X186726376Y-64939188D01*
X186761000Y-65113259D01*
X186761000Y-65290741D01*
X186726376Y-65464812D01*
X186658456Y-65628784D01*
X186559853Y-65776354D01*
X186434354Y-65901853D01*
X186286784Y-66000456D01*
X186122812Y-66068376D01*
X185973512Y-66098073D01*
X185948742Y-66103000D01*
X185771258Y-66103000D01*
X185746488Y-66098073D01*
X185597188Y-66068376D01*
X185433216Y-66000456D01*
X185285646Y-65901853D01*
X185160147Y-65776354D01*
X185061544Y-65628784D01*
X184993624Y-65464812D01*
X184959000Y-65290741D01*
X184959000Y-65113259D01*
X184993624Y-64939188D01*
X185061544Y-64775216D01*
X185160147Y-64627646D01*
X185285646Y-64502147D01*
X185433216Y-64403544D01*
X185597188Y-64335624D01*
X185746488Y-64305927D01*
X185771258Y-64301000D01*
X185948742Y-64301000D01*
X185973512Y-64305927D01*
G37*
G36*
X188513512Y-64305927D02*
G01*
X188662812Y-64335624D01*
X188826784Y-64403544D01*
X188974354Y-64502147D01*
X189099853Y-64627646D01*
X189198456Y-64775216D01*
X189266376Y-64939188D01*
X189301000Y-65113259D01*
X189301000Y-65290741D01*
X189266376Y-65464812D01*
X189198456Y-65628784D01*
X189099853Y-65776354D01*
X188974354Y-65901853D01*
X188826784Y-66000456D01*
X188662812Y-66068376D01*
X188513512Y-66098073D01*
X188488742Y-66103000D01*
X188311258Y-66103000D01*
X188286488Y-66098073D01*
X188137188Y-66068376D01*
X187973216Y-66000456D01*
X187825646Y-65901853D01*
X187700147Y-65776354D01*
X187601544Y-65628784D01*
X187533624Y-65464812D01*
X187499000Y-65290741D01*
X187499000Y-65113259D01*
X187533624Y-64939188D01*
X187601544Y-64775216D01*
X187700147Y-64627646D01*
X187825646Y-64502147D01*
X187973216Y-64403544D01*
X188137188Y-64335624D01*
X188286488Y-64305927D01*
X188311258Y-64301000D01*
X188488742Y-64301000D01*
X188513512Y-64305927D01*
G37*
G36*
X122033512Y-64305927D02*
G01*
X122182812Y-64335624D01*
X122346784Y-64403544D01*
X122494354Y-64502147D01*
X122619853Y-64627646D01*
X122718456Y-64775216D01*
X122786376Y-64939188D01*
X122821000Y-65113259D01*
X122821000Y-65290741D01*
X122786376Y-65464812D01*
X122718456Y-65628784D01*
X122619853Y-65776354D01*
X122494354Y-65901853D01*
X122346784Y-66000456D01*
X122182812Y-66068376D01*
X122033512Y-66098073D01*
X122008742Y-66103000D01*
X121831258Y-66103000D01*
X121806488Y-66098073D01*
X121657188Y-66068376D01*
X121493216Y-66000456D01*
X121345646Y-65901853D01*
X121220147Y-65776354D01*
X121121544Y-65628784D01*
X121053624Y-65464812D01*
X121019000Y-65290741D01*
X121019000Y-65113259D01*
X121053624Y-64939188D01*
X121121544Y-64775216D01*
X121220147Y-64627646D01*
X121345646Y-64502147D01*
X121493216Y-64403544D01*
X121657188Y-64335624D01*
X121806488Y-64305927D01*
X121831258Y-64301000D01*
X122008742Y-64301000D01*
X122033512Y-64305927D01*
G37*
G36*
X149973512Y-64305927D02*
G01*
X150122812Y-64335624D01*
X150286784Y-64403544D01*
X150434354Y-64502147D01*
X150559853Y-64627646D01*
X150658456Y-64775216D01*
X150726376Y-64939188D01*
X150761000Y-65113259D01*
X150761000Y-65290741D01*
X150726376Y-65464812D01*
X150658456Y-65628784D01*
X150559853Y-65776354D01*
X150434354Y-65901853D01*
X150286784Y-66000456D01*
X150122812Y-66068376D01*
X149973512Y-66098073D01*
X149948742Y-66103000D01*
X149771258Y-66103000D01*
X149746488Y-66098073D01*
X149597188Y-66068376D01*
X149433216Y-66000456D01*
X149285646Y-65901853D01*
X149160147Y-65776354D01*
X149061544Y-65628784D01*
X148993624Y-65464812D01*
X148959000Y-65290741D01*
X148959000Y-65113259D01*
X148993624Y-64939188D01*
X149061544Y-64775216D01*
X149160147Y-64627646D01*
X149285646Y-64502147D01*
X149433216Y-64403544D01*
X149597188Y-64335624D01*
X149746488Y-64305927D01*
X149771258Y-64301000D01*
X149948742Y-64301000D01*
X149973512Y-64305927D01*
G37*
G36*
X158033512Y-64305927D02*
G01*
X158182812Y-64335624D01*
X158346784Y-64403544D01*
X158494354Y-64502147D01*
X158619853Y-64627646D01*
X158718456Y-64775216D01*
X158786376Y-64939188D01*
X158821000Y-65113259D01*
X158821000Y-65290741D01*
X158786376Y-65464812D01*
X158718456Y-65628784D01*
X158619853Y-65776354D01*
X158494354Y-65901853D01*
X158346784Y-66000456D01*
X158182812Y-66068376D01*
X158033512Y-66098073D01*
X158008742Y-66103000D01*
X157831258Y-66103000D01*
X157806488Y-66098073D01*
X157657188Y-66068376D01*
X157493216Y-66000456D01*
X157345646Y-65901853D01*
X157220147Y-65776354D01*
X157121544Y-65628784D01*
X157053624Y-65464812D01*
X157019000Y-65290741D01*
X157019000Y-65113259D01*
X157053624Y-64939188D01*
X157121544Y-64775216D01*
X157220147Y-64627646D01*
X157345646Y-64502147D01*
X157493216Y-64403544D01*
X157657188Y-64335624D01*
X157806488Y-64305927D01*
X157831258Y-64301000D01*
X158008742Y-64301000D01*
X158033512Y-64305927D01*
G37*
G36*
X152513512Y-64305927D02*
G01*
X152662812Y-64335624D01*
X152826784Y-64403544D01*
X152974354Y-64502147D01*
X153099853Y-64627646D01*
X153198456Y-64775216D01*
X153266376Y-64939188D01*
X153301000Y-65113259D01*
X153301000Y-65290741D01*
X153266376Y-65464812D01*
X153198456Y-65628784D01*
X153099853Y-65776354D01*
X152974354Y-65901853D01*
X152826784Y-66000456D01*
X152662812Y-66068376D01*
X152513512Y-66098073D01*
X152488742Y-66103000D01*
X152311258Y-66103000D01*
X152286488Y-66098073D01*
X152137188Y-66068376D01*
X151973216Y-66000456D01*
X151825646Y-65901853D01*
X151700147Y-65776354D01*
X151601544Y-65628784D01*
X151533624Y-65464812D01*
X151499000Y-65290741D01*
X151499000Y-65113259D01*
X151533624Y-64939188D01*
X151601544Y-64775216D01*
X151700147Y-64627646D01*
X151825646Y-64502147D01*
X151973216Y-64403544D01*
X152137188Y-64335624D01*
X152286488Y-64305927D01*
X152311258Y-64301000D01*
X152488742Y-64301000D01*
X152513512Y-64305927D01*
G37*
G36*
X122033512Y-61765927D02*
G01*
X122182812Y-61795624D01*
X122346784Y-61863544D01*
X122494354Y-61962147D01*
X122619853Y-62087646D01*
X122718456Y-62235216D01*
X122786376Y-62399188D01*
X122821000Y-62573259D01*
X122821000Y-62750741D01*
X122786376Y-62924812D01*
X122718456Y-63088784D01*
X122619853Y-63236354D01*
X122494354Y-63361853D01*
X122346784Y-63460456D01*
X122182812Y-63528376D01*
X122033512Y-63558073D01*
X122008742Y-63563000D01*
X121831258Y-63563000D01*
X121806488Y-63558073D01*
X121657188Y-63528376D01*
X121493216Y-63460456D01*
X121345646Y-63361853D01*
X121220147Y-63236354D01*
X121121544Y-63088784D01*
X121053624Y-62924812D01*
X121019000Y-62750741D01*
X121019000Y-62573259D01*
X121053624Y-62399188D01*
X121121544Y-62235216D01*
X121220147Y-62087646D01*
X121345646Y-61962147D01*
X121493216Y-61863544D01*
X121657188Y-61795624D01*
X121806488Y-61765927D01*
X121831258Y-61761000D01*
X122008742Y-61761000D01*
X122033512Y-61765927D01*
G37*
G36*
X185973512Y-61765927D02*
G01*
X186122812Y-61795624D01*
X186286784Y-61863544D01*
X186434354Y-61962147D01*
X186559853Y-62087646D01*
X186658456Y-62235216D01*
X186726376Y-62399188D01*
X186761000Y-62573259D01*
X186761000Y-62750741D01*
X186726376Y-62924812D01*
X186658456Y-63088784D01*
X186559853Y-63236354D01*
X186434354Y-63361853D01*
X186286784Y-63460456D01*
X186122812Y-63528376D01*
X185973512Y-63558073D01*
X185948742Y-63563000D01*
X185771258Y-63563000D01*
X185746488Y-63558073D01*
X185597188Y-63528376D01*
X185433216Y-63460456D01*
X185285646Y-63361853D01*
X185160147Y-63236354D01*
X185061544Y-63088784D01*
X184993624Y-62924812D01*
X184959000Y-62750741D01*
X184959000Y-62573259D01*
X184993624Y-62399188D01*
X185061544Y-62235216D01*
X185160147Y-62087646D01*
X185285646Y-61962147D01*
X185433216Y-61863544D01*
X185597188Y-61795624D01*
X185746488Y-61765927D01*
X185771258Y-61761000D01*
X185948742Y-61761000D01*
X185973512Y-61765927D01*
G37*
G36*
X188513512Y-61765927D02*
G01*
X188662812Y-61795624D01*
X188826784Y-61863544D01*
X188974354Y-61962147D01*
X189099853Y-62087646D01*
X189198456Y-62235216D01*
X189266376Y-62399188D01*
X189301000Y-62573259D01*
X189301000Y-62750741D01*
X189266376Y-62924812D01*
X189198456Y-63088784D01*
X189099853Y-63236354D01*
X188974354Y-63361853D01*
X188826784Y-63460456D01*
X188662812Y-63528376D01*
X188513512Y-63558073D01*
X188488742Y-63563000D01*
X188311258Y-63563000D01*
X188286488Y-63558073D01*
X188137188Y-63528376D01*
X187973216Y-63460456D01*
X187825646Y-63361853D01*
X187700147Y-63236354D01*
X187601544Y-63088784D01*
X187533624Y-62924812D01*
X187499000Y-62750741D01*
X187499000Y-62573259D01*
X187533624Y-62399188D01*
X187601544Y-62235216D01*
X187700147Y-62087646D01*
X187825646Y-61962147D01*
X187973216Y-61863544D01*
X188137188Y-61795624D01*
X188286488Y-61765927D01*
X188311258Y-61761000D01*
X188488742Y-61761000D01*
X188513512Y-61765927D01*
G37*
G36*
X152513512Y-61765927D02*
G01*
X152662812Y-61795624D01*
X152826784Y-61863544D01*
X152974354Y-61962147D01*
X153099853Y-62087646D01*
X153198456Y-62235216D01*
X153266376Y-62399188D01*
X153301000Y-62573259D01*
X153301000Y-62750741D01*
X153266376Y-62924812D01*
X153198456Y-63088784D01*
X153099853Y-63236354D01*
X152974354Y-63361853D01*
X152826784Y-63460456D01*
X152662812Y-63528376D01*
X152513512Y-63558073D01*
X152488742Y-63563000D01*
X152311258Y-63563000D01*
X152286488Y-63558073D01*
X152137188Y-63528376D01*
X151973216Y-63460456D01*
X151825646Y-63361853D01*
X151700147Y-63236354D01*
X151601544Y-63088784D01*
X151533624Y-62924812D01*
X151499000Y-62750741D01*
X151499000Y-62573259D01*
X151533624Y-62399188D01*
X151601544Y-62235216D01*
X151700147Y-62087646D01*
X151825646Y-61962147D01*
X151973216Y-61863544D01*
X152137188Y-61795624D01*
X152286488Y-61765927D01*
X152311258Y-61761000D01*
X152488742Y-61761000D01*
X152513512Y-61765927D01*
G37*
G36*
X149973512Y-61765927D02*
G01*
X150122812Y-61795624D01*
X150286784Y-61863544D01*
X150434354Y-61962147D01*
X150559853Y-62087646D01*
X150658456Y-62235216D01*
X150726376Y-62399188D01*
X150761000Y-62573259D01*
X150761000Y-62750741D01*
X150726376Y-62924812D01*
X150658456Y-63088784D01*
X150559853Y-63236354D01*
X150434354Y-63361853D01*
X150286784Y-63460456D01*
X150122812Y-63528376D01*
X149973512Y-63558073D01*
X149948742Y-63563000D01*
X149771258Y-63563000D01*
X149746488Y-63558073D01*
X149597188Y-63528376D01*
X149433216Y-63460456D01*
X149285646Y-63361853D01*
X149160147Y-63236354D01*
X149061544Y-63088784D01*
X148993624Y-62924812D01*
X148959000Y-62750741D01*
X148959000Y-62573259D01*
X148993624Y-62399188D01*
X149061544Y-62235216D01*
X149160147Y-62087646D01*
X149285646Y-61962147D01*
X149433216Y-61863544D01*
X149597188Y-61795624D01*
X149746488Y-61765927D01*
X149771258Y-61761000D01*
X149948742Y-61761000D01*
X149973512Y-61765927D01*
G37*
G36*
X158033512Y-61765927D02*
G01*
X158182812Y-61795624D01*
X158346784Y-61863544D01*
X158494354Y-61962147D01*
X158619853Y-62087646D01*
X158718456Y-62235216D01*
X158786376Y-62399188D01*
X158821000Y-62573259D01*
X158821000Y-62750741D01*
X158786376Y-62924812D01*
X158718456Y-63088784D01*
X158619853Y-63236354D01*
X158494354Y-63361853D01*
X158346784Y-63460456D01*
X158182812Y-63528376D01*
X158033512Y-63558073D01*
X158008742Y-63563000D01*
X157831258Y-63563000D01*
X157806488Y-63558073D01*
X157657188Y-63528376D01*
X157493216Y-63460456D01*
X157345646Y-63361853D01*
X157220147Y-63236354D01*
X157121544Y-63088784D01*
X157053624Y-62924812D01*
X157019000Y-62750741D01*
X157019000Y-62573259D01*
X157053624Y-62399188D01*
X157121544Y-62235216D01*
X157220147Y-62087646D01*
X157345646Y-61962147D01*
X157493216Y-61863544D01*
X157657188Y-61795624D01*
X157806488Y-61765927D01*
X157831258Y-61761000D01*
X158008742Y-61761000D01*
X158033512Y-61765927D01*
G37*
G36*
X122033512Y-59225927D02*
G01*
X122182812Y-59255624D01*
X122346784Y-59323544D01*
X122494354Y-59422147D01*
X122619853Y-59547646D01*
X122718456Y-59695216D01*
X122786376Y-59859188D01*
X122821000Y-60033259D01*
X122821000Y-60210741D01*
X122786376Y-60384812D01*
X122718456Y-60548784D01*
X122619853Y-60696354D01*
X122494354Y-60821853D01*
X122346784Y-60920456D01*
X122182812Y-60988376D01*
X122033512Y-61018073D01*
X122008742Y-61023000D01*
X121831258Y-61023000D01*
X121806488Y-61018073D01*
X121657188Y-60988376D01*
X121493216Y-60920456D01*
X121345646Y-60821853D01*
X121220147Y-60696354D01*
X121121544Y-60548784D01*
X121053624Y-60384812D01*
X121019000Y-60210741D01*
X121019000Y-60033259D01*
X121053624Y-59859188D01*
X121121544Y-59695216D01*
X121220147Y-59547646D01*
X121345646Y-59422147D01*
X121493216Y-59323544D01*
X121657188Y-59255624D01*
X121806488Y-59225927D01*
X121831258Y-59221000D01*
X122008742Y-59221000D01*
X122033512Y-59225927D01*
G37*
G36*
X188513512Y-59225927D02*
G01*
X188662812Y-59255624D01*
X188826784Y-59323544D01*
X188974354Y-59422147D01*
X189099853Y-59547646D01*
X189198456Y-59695216D01*
X189266376Y-59859188D01*
X189301000Y-60033259D01*
X189301000Y-60210741D01*
X189266376Y-60384812D01*
X189198456Y-60548784D01*
X189099853Y-60696354D01*
X188974354Y-60821853D01*
X188826784Y-60920456D01*
X188662812Y-60988376D01*
X188513512Y-61018073D01*
X188488742Y-61023000D01*
X188311258Y-61023000D01*
X188286488Y-61018073D01*
X188137188Y-60988376D01*
X187973216Y-60920456D01*
X187825646Y-60821853D01*
X187700147Y-60696354D01*
X187601544Y-60548784D01*
X187533624Y-60384812D01*
X187499000Y-60210741D01*
X187499000Y-60033259D01*
X187533624Y-59859188D01*
X187601544Y-59695216D01*
X187700147Y-59547646D01*
X187825646Y-59422147D01*
X187973216Y-59323544D01*
X188137188Y-59255624D01*
X188286488Y-59225927D01*
X188311258Y-59221000D01*
X188488742Y-59221000D01*
X188513512Y-59225927D01*
G37*
G36*
X158033512Y-59225927D02*
G01*
X158182812Y-59255624D01*
X158346784Y-59323544D01*
X158494354Y-59422147D01*
X158619853Y-59547646D01*
X158718456Y-59695216D01*
X158786376Y-59859188D01*
X158821000Y-60033259D01*
X158821000Y-60210741D01*
X158786376Y-60384812D01*
X158718456Y-60548784D01*
X158619853Y-60696354D01*
X158494354Y-60821853D01*
X158346784Y-60920456D01*
X158182812Y-60988376D01*
X158033512Y-61018073D01*
X158008742Y-61023000D01*
X157831258Y-61023000D01*
X157806488Y-61018073D01*
X157657188Y-60988376D01*
X157493216Y-60920456D01*
X157345646Y-60821853D01*
X157220147Y-60696354D01*
X157121544Y-60548784D01*
X157053624Y-60384812D01*
X157019000Y-60210741D01*
X157019000Y-60033259D01*
X157053624Y-59859188D01*
X157121544Y-59695216D01*
X157220147Y-59547646D01*
X157345646Y-59422147D01*
X157493216Y-59323544D01*
X157657188Y-59255624D01*
X157806488Y-59225927D01*
X157831258Y-59221000D01*
X158008742Y-59221000D01*
X158033512Y-59225927D01*
G37*
G36*
X149973512Y-59225927D02*
G01*
X150122812Y-59255624D01*
X150286784Y-59323544D01*
X150434354Y-59422147D01*
X150559853Y-59547646D01*
X150658456Y-59695216D01*
X150726376Y-59859188D01*
X150761000Y-60033259D01*
X150761000Y-60210741D01*
X150726376Y-60384812D01*
X150658456Y-60548784D01*
X150559853Y-60696354D01*
X150434354Y-60821853D01*
X150286784Y-60920456D01*
X150122812Y-60988376D01*
X149973512Y-61018073D01*
X149948742Y-61023000D01*
X149771258Y-61023000D01*
X149746488Y-61018073D01*
X149597188Y-60988376D01*
X149433216Y-60920456D01*
X149285646Y-60821853D01*
X149160147Y-60696354D01*
X149061544Y-60548784D01*
X148993624Y-60384812D01*
X148959000Y-60210741D01*
X148959000Y-60033259D01*
X148993624Y-59859188D01*
X149061544Y-59695216D01*
X149160147Y-59547646D01*
X149285646Y-59422147D01*
X149433216Y-59323544D01*
X149597188Y-59255624D01*
X149746488Y-59225927D01*
X149771258Y-59221000D01*
X149948742Y-59221000D01*
X149973512Y-59225927D01*
G37*
G36*
X152513512Y-59225927D02*
G01*
X152662812Y-59255624D01*
X152826784Y-59323544D01*
X152974354Y-59422147D01*
X153099853Y-59547646D01*
X153198456Y-59695216D01*
X153266376Y-59859188D01*
X153301000Y-60033259D01*
X153301000Y-60210741D01*
X153266376Y-60384812D01*
X153198456Y-60548784D01*
X153099853Y-60696354D01*
X152974354Y-60821853D01*
X152826784Y-60920456D01*
X152662812Y-60988376D01*
X152513512Y-61018073D01*
X152488742Y-61023000D01*
X152311258Y-61023000D01*
X152286488Y-61018073D01*
X152137188Y-60988376D01*
X151973216Y-60920456D01*
X151825646Y-60821853D01*
X151700147Y-60696354D01*
X151601544Y-60548784D01*
X151533624Y-60384812D01*
X151499000Y-60210741D01*
X151499000Y-60033259D01*
X151533624Y-59859188D01*
X151601544Y-59695216D01*
X151700147Y-59547646D01*
X151825646Y-59422147D01*
X151973216Y-59323544D01*
X152137188Y-59255624D01*
X152286488Y-59225927D01*
X152311258Y-59221000D01*
X152488742Y-59221000D01*
X152513512Y-59225927D01*
G37*
G36*
X185973512Y-59225927D02*
G01*
X186122812Y-59255624D01*
X186286784Y-59323544D01*
X186434354Y-59422147D01*
X186559853Y-59547646D01*
X186658456Y-59695216D01*
X186726376Y-59859188D01*
X186761000Y-60033259D01*
X186761000Y-60210741D01*
X186726376Y-60384812D01*
X186658456Y-60548784D01*
X186559853Y-60696354D01*
X186434354Y-60821853D01*
X186286784Y-60920456D01*
X186122812Y-60988376D01*
X185973512Y-61018073D01*
X185948742Y-61023000D01*
X185771258Y-61023000D01*
X185746488Y-61018073D01*
X185597188Y-60988376D01*
X185433216Y-60920456D01*
X185285646Y-60821853D01*
X185160147Y-60696354D01*
X185061544Y-60548784D01*
X184993624Y-60384812D01*
X184959000Y-60210741D01*
X184959000Y-60033259D01*
X184993624Y-59859188D01*
X185061544Y-59695216D01*
X185160147Y-59547646D01*
X185285646Y-59422147D01*
X185433216Y-59323544D01*
X185597188Y-59255624D01*
X185746488Y-59225927D01*
X185771258Y-59221000D01*
X185948742Y-59221000D01*
X185973512Y-59225927D01*
G37*
G36*
X152513512Y-56685927D02*
G01*
X152662812Y-56715624D01*
X152826784Y-56783544D01*
X152974354Y-56882147D01*
X153099853Y-57007646D01*
X153198456Y-57155216D01*
X153266376Y-57319188D01*
X153301000Y-57493259D01*
X153301000Y-57670741D01*
X153266376Y-57844812D01*
X153198456Y-58008784D01*
X153099853Y-58156354D01*
X152974354Y-58281853D01*
X152826784Y-58380456D01*
X152662812Y-58448376D01*
X152513512Y-58478073D01*
X152488742Y-58483000D01*
X152311258Y-58483000D01*
X152286488Y-58478073D01*
X152137188Y-58448376D01*
X151973216Y-58380456D01*
X151825646Y-58281853D01*
X151700147Y-58156354D01*
X151601544Y-58008784D01*
X151533624Y-57844812D01*
X151499000Y-57670741D01*
X151499000Y-57493259D01*
X151533624Y-57319188D01*
X151601544Y-57155216D01*
X151700147Y-57007646D01*
X151825646Y-56882147D01*
X151973216Y-56783544D01*
X152137188Y-56715624D01*
X152286488Y-56685927D01*
X152311258Y-56681000D01*
X152488742Y-56681000D01*
X152513512Y-56685927D01*
G37*
G36*
X149973512Y-56685927D02*
G01*
X150122812Y-56715624D01*
X150286784Y-56783544D01*
X150434354Y-56882147D01*
X150559853Y-57007646D01*
X150658456Y-57155216D01*
X150726376Y-57319188D01*
X150761000Y-57493259D01*
X150761000Y-57670741D01*
X150726376Y-57844812D01*
X150658456Y-58008784D01*
X150559853Y-58156354D01*
X150434354Y-58281853D01*
X150286784Y-58380456D01*
X150122812Y-58448376D01*
X149973512Y-58478073D01*
X149948742Y-58483000D01*
X149771258Y-58483000D01*
X149746488Y-58478073D01*
X149597188Y-58448376D01*
X149433216Y-58380456D01*
X149285646Y-58281853D01*
X149160147Y-58156354D01*
X149061544Y-58008784D01*
X148993624Y-57844812D01*
X148959000Y-57670741D01*
X148959000Y-57493259D01*
X148993624Y-57319188D01*
X149061544Y-57155216D01*
X149160147Y-57007646D01*
X149285646Y-56882147D01*
X149433216Y-56783544D01*
X149597188Y-56715624D01*
X149746488Y-56685927D01*
X149771258Y-56681000D01*
X149948742Y-56681000D01*
X149973512Y-56685927D01*
G37*
G36*
X122033512Y-56685927D02*
G01*
X122182812Y-56715624D01*
X122346784Y-56783544D01*
X122494354Y-56882147D01*
X122619853Y-57007646D01*
X122718456Y-57155216D01*
X122786376Y-57319188D01*
X122821000Y-57493259D01*
X122821000Y-57670741D01*
X122786376Y-57844812D01*
X122718456Y-58008784D01*
X122619853Y-58156354D01*
X122494354Y-58281853D01*
X122346784Y-58380456D01*
X122182812Y-58448376D01*
X122033512Y-58478073D01*
X122008742Y-58483000D01*
X121831258Y-58483000D01*
X121806488Y-58478073D01*
X121657188Y-58448376D01*
X121493216Y-58380456D01*
X121345646Y-58281853D01*
X121220147Y-58156354D01*
X121121544Y-58008784D01*
X121053624Y-57844812D01*
X121019000Y-57670741D01*
X121019000Y-57493259D01*
X121053624Y-57319188D01*
X121121544Y-57155216D01*
X121220147Y-57007646D01*
X121345646Y-56882147D01*
X121493216Y-56783544D01*
X121657188Y-56715624D01*
X121806488Y-56685927D01*
X121831258Y-56681000D01*
X122008742Y-56681000D01*
X122033512Y-56685927D01*
G37*
G36*
X185973512Y-56685927D02*
G01*
X186122812Y-56715624D01*
X186286784Y-56783544D01*
X186434354Y-56882147D01*
X186559853Y-57007646D01*
X186658456Y-57155216D01*
X186726376Y-57319188D01*
X186761000Y-57493259D01*
X186761000Y-57670741D01*
X186726376Y-57844812D01*
X186658456Y-58008784D01*
X186559853Y-58156354D01*
X186434354Y-58281853D01*
X186286784Y-58380456D01*
X186122812Y-58448376D01*
X185973512Y-58478073D01*
X185948742Y-58483000D01*
X185771258Y-58483000D01*
X185746488Y-58478073D01*
X185597188Y-58448376D01*
X185433216Y-58380456D01*
X185285646Y-58281853D01*
X185160147Y-58156354D01*
X185061544Y-58008784D01*
X184993624Y-57844812D01*
X184959000Y-57670741D01*
X184959000Y-57493259D01*
X184993624Y-57319188D01*
X185061544Y-57155216D01*
X185160147Y-57007646D01*
X185285646Y-56882147D01*
X185433216Y-56783544D01*
X185597188Y-56715624D01*
X185746488Y-56685927D01*
X185771258Y-56681000D01*
X185948742Y-56681000D01*
X185973512Y-56685927D01*
G37*
G36*
X188513512Y-56685927D02*
G01*
X188662812Y-56715624D01*
X188826784Y-56783544D01*
X188974354Y-56882147D01*
X189099853Y-57007646D01*
X189198456Y-57155216D01*
X189266376Y-57319188D01*
X189301000Y-57493259D01*
X189301000Y-57670741D01*
X189266376Y-57844812D01*
X189198456Y-58008784D01*
X189099853Y-58156354D01*
X188974354Y-58281853D01*
X188826784Y-58380456D01*
X188662812Y-58448376D01*
X188513512Y-58478073D01*
X188488742Y-58483000D01*
X188311258Y-58483000D01*
X188286488Y-58478073D01*
X188137188Y-58448376D01*
X187973216Y-58380456D01*
X187825646Y-58281853D01*
X187700147Y-58156354D01*
X187601544Y-58008784D01*
X187533624Y-57844812D01*
X187499000Y-57670741D01*
X187499000Y-57493259D01*
X187533624Y-57319188D01*
X187601544Y-57155216D01*
X187700147Y-57007646D01*
X187825646Y-56882147D01*
X187973216Y-56783544D01*
X188137188Y-56715624D01*
X188286488Y-56685927D01*
X188311258Y-56681000D01*
X188488742Y-56681000D01*
X188513512Y-56685927D01*
G37*
G36*
X158033512Y-56685927D02*
G01*
X158182812Y-56715624D01*
X158346784Y-56783544D01*
X158494354Y-56882147D01*
X158619853Y-57007646D01*
X158718456Y-57155216D01*
X158786376Y-57319188D01*
X158821000Y-57493259D01*
X158821000Y-57670741D01*
X158786376Y-57844812D01*
X158718456Y-58008784D01*
X158619853Y-58156354D01*
X158494354Y-58281853D01*
X158346784Y-58380456D01*
X158182812Y-58448376D01*
X158033512Y-58478073D01*
X158008742Y-58483000D01*
X157831258Y-58483000D01*
X157806488Y-58478073D01*
X157657188Y-58448376D01*
X157493216Y-58380456D01*
X157345646Y-58281853D01*
X157220147Y-58156354D01*
X157121544Y-58008784D01*
X157053624Y-57844812D01*
X157019000Y-57670741D01*
X157019000Y-57493259D01*
X157053624Y-57319188D01*
X157121544Y-57155216D01*
X157220147Y-57007646D01*
X157345646Y-56882147D01*
X157493216Y-56783544D01*
X157657188Y-56715624D01*
X157806488Y-56685927D01*
X157831258Y-56681000D01*
X158008742Y-56681000D01*
X158033512Y-56685927D01*
G37*
G36*
X158033512Y-54145927D02*
G01*
X158182812Y-54175624D01*
X158346784Y-54243544D01*
X158494354Y-54342147D01*
X158619853Y-54467646D01*
X158718456Y-54615216D01*
X158786376Y-54779188D01*
X158821000Y-54953259D01*
X158821000Y-55130741D01*
X158786376Y-55304812D01*
X158718456Y-55468784D01*
X158619853Y-55616354D01*
X158494354Y-55741853D01*
X158346784Y-55840456D01*
X158182812Y-55908376D01*
X158033512Y-55938073D01*
X158008742Y-55943000D01*
X157831258Y-55943000D01*
X157806488Y-55938073D01*
X157657188Y-55908376D01*
X157493216Y-55840456D01*
X157345646Y-55741853D01*
X157220147Y-55616354D01*
X157121544Y-55468784D01*
X157053624Y-55304812D01*
X157019000Y-55130741D01*
X157019000Y-54953259D01*
X157053624Y-54779188D01*
X157121544Y-54615216D01*
X157220147Y-54467646D01*
X157345646Y-54342147D01*
X157493216Y-54243544D01*
X157657188Y-54175624D01*
X157806488Y-54145927D01*
X157831258Y-54141000D01*
X158008742Y-54141000D01*
X158033512Y-54145927D01*
G37*
G36*
X152513512Y-54145927D02*
G01*
X152662812Y-54175624D01*
X152826784Y-54243544D01*
X152974354Y-54342147D01*
X153099853Y-54467646D01*
X153198456Y-54615216D01*
X153266376Y-54779188D01*
X153301000Y-54953259D01*
X153301000Y-55130741D01*
X153266376Y-55304812D01*
X153198456Y-55468784D01*
X153099853Y-55616354D01*
X152974354Y-55741853D01*
X152826784Y-55840456D01*
X152662812Y-55908376D01*
X152513512Y-55938073D01*
X152488742Y-55943000D01*
X152311258Y-55943000D01*
X152286488Y-55938073D01*
X152137188Y-55908376D01*
X151973216Y-55840456D01*
X151825646Y-55741853D01*
X151700147Y-55616354D01*
X151601544Y-55468784D01*
X151533624Y-55304812D01*
X151499000Y-55130741D01*
X151499000Y-54953259D01*
X151533624Y-54779188D01*
X151601544Y-54615216D01*
X151700147Y-54467646D01*
X151825646Y-54342147D01*
X151973216Y-54243544D01*
X152137188Y-54175624D01*
X152286488Y-54145927D01*
X152311258Y-54141000D01*
X152488742Y-54141000D01*
X152513512Y-54145927D01*
G37*
G36*
X149973512Y-54145927D02*
G01*
X150122812Y-54175624D01*
X150286784Y-54243544D01*
X150434354Y-54342147D01*
X150559853Y-54467646D01*
X150658456Y-54615216D01*
X150726376Y-54779188D01*
X150761000Y-54953259D01*
X150761000Y-55130741D01*
X150726376Y-55304812D01*
X150658456Y-55468784D01*
X150559853Y-55616354D01*
X150434354Y-55741853D01*
X150286784Y-55840456D01*
X150122812Y-55908376D01*
X149973512Y-55938073D01*
X149948742Y-55943000D01*
X149771258Y-55943000D01*
X149746488Y-55938073D01*
X149597188Y-55908376D01*
X149433216Y-55840456D01*
X149285646Y-55741853D01*
X149160147Y-55616354D01*
X149061544Y-55468784D01*
X148993624Y-55304812D01*
X148959000Y-55130741D01*
X148959000Y-54953259D01*
X148993624Y-54779188D01*
X149061544Y-54615216D01*
X149160147Y-54467646D01*
X149285646Y-54342147D01*
X149433216Y-54243544D01*
X149597188Y-54175624D01*
X149746488Y-54145927D01*
X149771258Y-54141000D01*
X149948742Y-54141000D01*
X149973512Y-54145927D01*
G37*
G36*
X188513512Y-54145927D02*
G01*
X188662812Y-54175624D01*
X188826784Y-54243544D01*
X188974354Y-54342147D01*
X189099853Y-54467646D01*
X189198456Y-54615216D01*
X189266376Y-54779188D01*
X189301000Y-54953259D01*
X189301000Y-55130741D01*
X189266376Y-55304812D01*
X189198456Y-55468784D01*
X189099853Y-55616354D01*
X188974354Y-55741853D01*
X188826784Y-55840456D01*
X188662812Y-55908376D01*
X188513512Y-55938073D01*
X188488742Y-55943000D01*
X188311258Y-55943000D01*
X188286488Y-55938073D01*
X188137188Y-55908376D01*
X187973216Y-55840456D01*
X187825646Y-55741853D01*
X187700147Y-55616354D01*
X187601544Y-55468784D01*
X187533624Y-55304812D01*
X187499000Y-55130741D01*
X187499000Y-54953259D01*
X187533624Y-54779188D01*
X187601544Y-54615216D01*
X187700147Y-54467646D01*
X187825646Y-54342147D01*
X187973216Y-54243544D01*
X188137188Y-54175624D01*
X188286488Y-54145927D01*
X188311258Y-54141000D01*
X188488742Y-54141000D01*
X188513512Y-54145927D01*
G37*
G36*
X122033512Y-54145927D02*
G01*
X122182812Y-54175624D01*
X122346784Y-54243544D01*
X122494354Y-54342147D01*
X122619853Y-54467646D01*
X122718456Y-54615216D01*
X122786376Y-54779188D01*
X122821000Y-54953259D01*
X122821000Y-55130741D01*
X122786376Y-55304812D01*
X122718456Y-55468784D01*
X122619853Y-55616354D01*
X122494354Y-55741853D01*
X122346784Y-55840456D01*
X122182812Y-55908376D01*
X122033512Y-55938073D01*
X122008742Y-55943000D01*
X121831258Y-55943000D01*
X121806488Y-55938073D01*
X121657188Y-55908376D01*
X121493216Y-55840456D01*
X121345646Y-55741853D01*
X121220147Y-55616354D01*
X121121544Y-55468784D01*
X121053624Y-55304812D01*
X121019000Y-55130741D01*
X121019000Y-54953259D01*
X121053624Y-54779188D01*
X121121544Y-54615216D01*
X121220147Y-54467646D01*
X121345646Y-54342147D01*
X121493216Y-54243544D01*
X121657188Y-54175624D01*
X121806488Y-54145927D01*
X121831258Y-54141000D01*
X122008742Y-54141000D01*
X122033512Y-54145927D01*
G37*
G36*
X185973512Y-54145927D02*
G01*
X186122812Y-54175624D01*
X186286784Y-54243544D01*
X186434354Y-54342147D01*
X186559853Y-54467646D01*
X186658456Y-54615216D01*
X186726376Y-54779188D01*
X186761000Y-54953259D01*
X186761000Y-55130741D01*
X186726376Y-55304812D01*
X186658456Y-55468784D01*
X186559853Y-55616354D01*
X186434354Y-55741853D01*
X186286784Y-55840456D01*
X186122812Y-55908376D01*
X185973512Y-55938073D01*
X185948742Y-55943000D01*
X185771258Y-55943000D01*
X185746488Y-55938073D01*
X185597188Y-55908376D01*
X185433216Y-55840456D01*
X185285646Y-55741853D01*
X185160147Y-55616354D01*
X185061544Y-55468784D01*
X184993624Y-55304812D01*
X184959000Y-55130741D01*
X184959000Y-54953259D01*
X184993624Y-54779188D01*
X185061544Y-54615216D01*
X185160147Y-54467646D01*
X185285646Y-54342147D01*
X185433216Y-54243544D01*
X185597188Y-54175624D01*
X185746488Y-54145927D01*
X185771258Y-54141000D01*
X185948742Y-54141000D01*
X185973512Y-54145927D01*
G37*
G36*
X152513512Y-51605927D02*
G01*
X152662812Y-51635624D01*
X152826784Y-51703544D01*
X152974354Y-51802147D01*
X153099853Y-51927646D01*
X153198456Y-52075216D01*
X153266376Y-52239188D01*
X153301000Y-52413259D01*
X153301000Y-52590741D01*
X153266376Y-52764812D01*
X153198456Y-52928784D01*
X153099853Y-53076354D01*
X152974354Y-53201853D01*
X152826784Y-53300456D01*
X152662812Y-53368376D01*
X152513512Y-53398073D01*
X152488742Y-53403000D01*
X152311258Y-53403000D01*
X152286488Y-53398073D01*
X152137188Y-53368376D01*
X151973216Y-53300456D01*
X151825646Y-53201853D01*
X151700147Y-53076354D01*
X151601544Y-52928784D01*
X151533624Y-52764812D01*
X151499000Y-52590741D01*
X151499000Y-52413259D01*
X151533624Y-52239188D01*
X151601544Y-52075216D01*
X151700147Y-51927646D01*
X151825646Y-51802147D01*
X151973216Y-51703544D01*
X152137188Y-51635624D01*
X152286488Y-51605927D01*
X152311258Y-51601000D01*
X152488742Y-51601000D01*
X152513512Y-51605927D01*
G37*
G36*
X122033512Y-51605927D02*
G01*
X122182812Y-51635624D01*
X122346784Y-51703544D01*
X122494354Y-51802147D01*
X122619853Y-51927646D01*
X122718456Y-52075216D01*
X122786376Y-52239188D01*
X122821000Y-52413259D01*
X122821000Y-52590741D01*
X122786376Y-52764812D01*
X122718456Y-52928784D01*
X122619853Y-53076354D01*
X122494354Y-53201853D01*
X122346784Y-53300456D01*
X122182812Y-53368376D01*
X122033512Y-53398073D01*
X122008742Y-53403000D01*
X121831258Y-53403000D01*
X121806488Y-53398073D01*
X121657188Y-53368376D01*
X121493216Y-53300456D01*
X121345646Y-53201853D01*
X121220147Y-53076354D01*
X121121544Y-52928784D01*
X121053624Y-52764812D01*
X121019000Y-52590741D01*
X121019000Y-52413259D01*
X121053624Y-52239188D01*
X121121544Y-52075216D01*
X121220147Y-51927646D01*
X121345646Y-51802147D01*
X121493216Y-51703544D01*
X121657188Y-51635624D01*
X121806488Y-51605927D01*
X121831258Y-51601000D01*
X122008742Y-51601000D01*
X122033512Y-51605927D01*
G37*
G36*
X149973512Y-51605927D02*
G01*
X150122812Y-51635624D01*
X150286784Y-51703544D01*
X150434354Y-51802147D01*
X150559853Y-51927646D01*
X150658456Y-52075216D01*
X150726376Y-52239188D01*
X150761000Y-52413259D01*
X150761000Y-52590741D01*
X150726376Y-52764812D01*
X150658456Y-52928784D01*
X150559853Y-53076354D01*
X150434354Y-53201853D01*
X150286784Y-53300456D01*
X150122812Y-53368376D01*
X149973512Y-53398073D01*
X149948742Y-53403000D01*
X149771258Y-53403000D01*
X149746488Y-53398073D01*
X149597188Y-53368376D01*
X149433216Y-53300456D01*
X149285646Y-53201853D01*
X149160147Y-53076354D01*
X149061544Y-52928784D01*
X148993624Y-52764812D01*
X148959000Y-52590741D01*
X148959000Y-52413259D01*
X148993624Y-52239188D01*
X149061544Y-52075216D01*
X149160147Y-51927646D01*
X149285646Y-51802147D01*
X149433216Y-51703544D01*
X149597188Y-51635624D01*
X149746488Y-51605927D01*
X149771258Y-51601000D01*
X149948742Y-51601000D01*
X149973512Y-51605927D01*
G37*
G36*
X158033512Y-51605927D02*
G01*
X158182812Y-51635624D01*
X158346784Y-51703544D01*
X158494354Y-51802147D01*
X158619853Y-51927646D01*
X158718456Y-52075216D01*
X158786376Y-52239188D01*
X158821000Y-52413259D01*
X158821000Y-52590741D01*
X158786376Y-52764812D01*
X158718456Y-52928784D01*
X158619853Y-53076354D01*
X158494354Y-53201853D01*
X158346784Y-53300456D01*
X158182812Y-53368376D01*
X158033512Y-53398073D01*
X158008742Y-53403000D01*
X157831258Y-53403000D01*
X157806488Y-53398073D01*
X157657188Y-53368376D01*
X157493216Y-53300456D01*
X157345646Y-53201853D01*
X157220147Y-53076354D01*
X157121544Y-52928784D01*
X157053624Y-52764812D01*
X157019000Y-52590741D01*
X157019000Y-52413259D01*
X157053624Y-52239188D01*
X157121544Y-52075216D01*
X157220147Y-51927646D01*
X157345646Y-51802147D01*
X157493216Y-51703544D01*
X157657188Y-51635624D01*
X157806488Y-51605927D01*
X157831258Y-51601000D01*
X158008742Y-51601000D01*
X158033512Y-51605927D01*
G37*
G36*
X185973512Y-51605927D02*
G01*
X186122812Y-51635624D01*
X186286784Y-51703544D01*
X186434354Y-51802147D01*
X186559853Y-51927646D01*
X186658456Y-52075216D01*
X186726376Y-52239188D01*
X186761000Y-52413259D01*
X186761000Y-52590741D01*
X186726376Y-52764812D01*
X186658456Y-52928784D01*
X186559853Y-53076354D01*
X186434354Y-53201853D01*
X186286784Y-53300456D01*
X186122812Y-53368376D01*
X185973512Y-53398073D01*
X185948742Y-53403000D01*
X185771258Y-53403000D01*
X185746488Y-53398073D01*
X185597188Y-53368376D01*
X185433216Y-53300456D01*
X185285646Y-53201853D01*
X185160147Y-53076354D01*
X185061544Y-52928784D01*
X184993624Y-52764812D01*
X184959000Y-52590741D01*
X184959000Y-52413259D01*
X184993624Y-52239188D01*
X185061544Y-52075216D01*
X185160147Y-51927646D01*
X185285646Y-51802147D01*
X185433216Y-51703544D01*
X185597188Y-51635624D01*
X185746488Y-51605927D01*
X185771258Y-51601000D01*
X185948742Y-51601000D01*
X185973512Y-51605927D01*
G37*
G36*
X188513512Y-51605927D02*
G01*
X188662812Y-51635624D01*
X188826784Y-51703544D01*
X188974354Y-51802147D01*
X189099853Y-51927646D01*
X189198456Y-52075216D01*
X189266376Y-52239188D01*
X189301000Y-52413259D01*
X189301000Y-52590741D01*
X189266376Y-52764812D01*
X189198456Y-52928784D01*
X189099853Y-53076354D01*
X188974354Y-53201853D01*
X188826784Y-53300456D01*
X188662812Y-53368376D01*
X188513512Y-53398073D01*
X188488742Y-53403000D01*
X188311258Y-53403000D01*
X188286488Y-53398073D01*
X188137188Y-53368376D01*
X187973216Y-53300456D01*
X187825646Y-53201853D01*
X187700147Y-53076354D01*
X187601544Y-52928784D01*
X187533624Y-52764812D01*
X187499000Y-52590741D01*
X187499000Y-52413259D01*
X187533624Y-52239188D01*
X187601544Y-52075216D01*
X187700147Y-51927646D01*
X187825646Y-51802147D01*
X187973216Y-51703544D01*
X188137188Y-51635624D01*
X188286488Y-51605927D01*
X188311258Y-51601000D01*
X188488742Y-51601000D01*
X188513512Y-51605927D01*
G37*
G36*
X158033512Y-49065927D02*
G01*
X158182812Y-49095624D01*
X158346784Y-49163544D01*
X158494354Y-49262147D01*
X158619853Y-49387646D01*
X158718456Y-49535216D01*
X158786376Y-49699188D01*
X158821000Y-49873259D01*
X158821000Y-50050741D01*
X158786376Y-50224812D01*
X158718456Y-50388784D01*
X158619853Y-50536354D01*
X158494354Y-50661853D01*
X158346784Y-50760456D01*
X158182812Y-50828376D01*
X158033512Y-50858073D01*
X158008742Y-50863000D01*
X157831258Y-50863000D01*
X157806488Y-50858073D01*
X157657188Y-50828376D01*
X157493216Y-50760456D01*
X157345646Y-50661853D01*
X157220147Y-50536354D01*
X157121544Y-50388784D01*
X157053624Y-50224812D01*
X157019000Y-50050741D01*
X157019000Y-49873259D01*
X157053624Y-49699188D01*
X157121544Y-49535216D01*
X157220147Y-49387646D01*
X157345646Y-49262147D01*
X157493216Y-49163544D01*
X157657188Y-49095624D01*
X157806488Y-49065927D01*
X157831258Y-49061000D01*
X158008742Y-49061000D01*
X158033512Y-49065927D01*
G37*
G36*
X185973512Y-49065927D02*
G01*
X186122812Y-49095624D01*
X186286784Y-49163544D01*
X186434354Y-49262147D01*
X186559853Y-49387646D01*
X186658456Y-49535216D01*
X186726376Y-49699188D01*
X186761000Y-49873259D01*
X186761000Y-50050741D01*
X186726376Y-50224812D01*
X186658456Y-50388784D01*
X186559853Y-50536354D01*
X186434354Y-50661853D01*
X186286784Y-50760456D01*
X186122812Y-50828376D01*
X185973512Y-50858073D01*
X185948742Y-50863000D01*
X185771258Y-50863000D01*
X185746488Y-50858073D01*
X185597188Y-50828376D01*
X185433216Y-50760456D01*
X185285646Y-50661853D01*
X185160147Y-50536354D01*
X185061544Y-50388784D01*
X184993624Y-50224812D01*
X184959000Y-50050741D01*
X184959000Y-49873259D01*
X184993624Y-49699188D01*
X185061544Y-49535216D01*
X185160147Y-49387646D01*
X185285646Y-49262147D01*
X185433216Y-49163544D01*
X185597188Y-49095624D01*
X185746488Y-49065927D01*
X185771258Y-49061000D01*
X185948742Y-49061000D01*
X185973512Y-49065927D01*
G37*
G36*
X188513512Y-49065927D02*
G01*
X188662812Y-49095624D01*
X188826784Y-49163544D01*
X188974354Y-49262147D01*
X189099853Y-49387646D01*
X189198456Y-49535216D01*
X189266376Y-49699188D01*
X189301000Y-49873259D01*
X189301000Y-50050741D01*
X189266376Y-50224812D01*
X189198456Y-50388784D01*
X189099853Y-50536354D01*
X188974354Y-50661853D01*
X188826784Y-50760456D01*
X188662812Y-50828376D01*
X188513512Y-50858073D01*
X188488742Y-50863000D01*
X188311258Y-50863000D01*
X188286488Y-50858073D01*
X188137188Y-50828376D01*
X187973216Y-50760456D01*
X187825646Y-50661853D01*
X187700147Y-50536354D01*
X187601544Y-50388784D01*
X187533624Y-50224812D01*
X187499000Y-50050741D01*
X187499000Y-49873259D01*
X187533624Y-49699188D01*
X187601544Y-49535216D01*
X187700147Y-49387646D01*
X187825646Y-49262147D01*
X187973216Y-49163544D01*
X188137188Y-49095624D01*
X188286488Y-49065927D01*
X188311258Y-49061000D01*
X188488742Y-49061000D01*
X188513512Y-49065927D01*
G37*
G36*
X152513512Y-49065927D02*
G01*
X152662812Y-49095624D01*
X152826784Y-49163544D01*
X152974354Y-49262147D01*
X153099853Y-49387646D01*
X153198456Y-49535216D01*
X153266376Y-49699188D01*
X153301000Y-49873259D01*
X153301000Y-50050741D01*
X153266376Y-50224812D01*
X153198456Y-50388784D01*
X153099853Y-50536354D01*
X152974354Y-50661853D01*
X152826784Y-50760456D01*
X152662812Y-50828376D01*
X152513512Y-50858073D01*
X152488742Y-50863000D01*
X152311258Y-50863000D01*
X152286488Y-50858073D01*
X152137188Y-50828376D01*
X151973216Y-50760456D01*
X151825646Y-50661853D01*
X151700147Y-50536354D01*
X151601544Y-50388784D01*
X151533624Y-50224812D01*
X151499000Y-50050741D01*
X151499000Y-49873259D01*
X151533624Y-49699188D01*
X151601544Y-49535216D01*
X151700147Y-49387646D01*
X151825646Y-49262147D01*
X151973216Y-49163544D01*
X152137188Y-49095624D01*
X152286488Y-49065927D01*
X152311258Y-49061000D01*
X152488742Y-49061000D01*
X152513512Y-49065927D01*
G37*
G36*
X122033512Y-49065927D02*
G01*
X122182812Y-49095624D01*
X122346784Y-49163544D01*
X122494354Y-49262147D01*
X122619853Y-49387646D01*
X122718456Y-49535216D01*
X122786376Y-49699188D01*
X122821000Y-49873259D01*
X122821000Y-50050741D01*
X122786376Y-50224812D01*
X122718456Y-50388784D01*
X122619853Y-50536354D01*
X122494354Y-50661853D01*
X122346784Y-50760456D01*
X122182812Y-50828376D01*
X122033512Y-50858073D01*
X122008742Y-50863000D01*
X121831258Y-50863000D01*
X121806488Y-50858073D01*
X121657188Y-50828376D01*
X121493216Y-50760456D01*
X121345646Y-50661853D01*
X121220147Y-50536354D01*
X121121544Y-50388784D01*
X121053624Y-50224812D01*
X121019000Y-50050741D01*
X121019000Y-49873259D01*
X121053624Y-49699188D01*
X121121544Y-49535216D01*
X121220147Y-49387646D01*
X121345646Y-49262147D01*
X121493216Y-49163544D01*
X121657188Y-49095624D01*
X121806488Y-49065927D01*
X121831258Y-49061000D01*
X122008742Y-49061000D01*
X122033512Y-49065927D01*
G37*
G36*
X149973512Y-49065927D02*
G01*
X150122812Y-49095624D01*
X150286784Y-49163544D01*
X150434354Y-49262147D01*
X150559853Y-49387646D01*
X150658456Y-49535216D01*
X150726376Y-49699188D01*
X150761000Y-49873259D01*
X150761000Y-50050741D01*
X150726376Y-50224812D01*
X150658456Y-50388784D01*
X150559853Y-50536354D01*
X150434354Y-50661853D01*
X150286784Y-50760456D01*
X150122812Y-50828376D01*
X149973512Y-50858073D01*
X149948742Y-50863000D01*
X149771258Y-50863000D01*
X149746488Y-50858073D01*
X149597188Y-50828376D01*
X149433216Y-50760456D01*
X149285646Y-50661853D01*
X149160147Y-50536354D01*
X149061544Y-50388784D01*
X148993624Y-50224812D01*
X148959000Y-50050741D01*
X148959000Y-49873259D01*
X148993624Y-49699188D01*
X149061544Y-49535216D01*
X149160147Y-49387646D01*
X149285646Y-49262147D01*
X149433216Y-49163544D01*
X149597188Y-49095624D01*
X149746488Y-49065927D01*
X149771258Y-49061000D01*
X149948742Y-49061000D01*
X149973512Y-49065927D01*
G37*
G36*
X158033512Y-46525927D02*
G01*
X158182812Y-46555624D01*
X158346784Y-46623544D01*
X158494354Y-46722147D01*
X158619853Y-46847646D01*
X158718456Y-46995216D01*
X158786376Y-47159188D01*
X158821000Y-47333259D01*
X158821000Y-47510741D01*
X158786376Y-47684812D01*
X158718456Y-47848784D01*
X158619853Y-47996354D01*
X158494354Y-48121853D01*
X158346784Y-48220456D01*
X158182812Y-48288376D01*
X158033512Y-48318073D01*
X158008742Y-48323000D01*
X157831258Y-48323000D01*
X157806488Y-48318073D01*
X157657188Y-48288376D01*
X157493216Y-48220456D01*
X157345646Y-48121853D01*
X157220147Y-47996354D01*
X157121544Y-47848784D01*
X157053624Y-47684812D01*
X157019000Y-47510741D01*
X157019000Y-47333259D01*
X157053624Y-47159188D01*
X157121544Y-46995216D01*
X157220147Y-46847646D01*
X157345646Y-46722147D01*
X157493216Y-46623544D01*
X157657188Y-46555624D01*
X157806488Y-46525927D01*
X157831258Y-46521000D01*
X158008742Y-46521000D01*
X158033512Y-46525927D01*
G37*
G36*
X149973512Y-46525927D02*
G01*
X150122812Y-46555624D01*
X150286784Y-46623544D01*
X150434354Y-46722147D01*
X150559853Y-46847646D01*
X150658456Y-46995216D01*
X150726376Y-47159188D01*
X150761000Y-47333259D01*
X150761000Y-47510741D01*
X150726376Y-47684812D01*
X150658456Y-47848784D01*
X150559853Y-47996354D01*
X150434354Y-48121853D01*
X150286784Y-48220456D01*
X150122812Y-48288376D01*
X149973512Y-48318073D01*
X149948742Y-48323000D01*
X149771258Y-48323000D01*
X149746488Y-48318073D01*
X149597188Y-48288376D01*
X149433216Y-48220456D01*
X149285646Y-48121853D01*
X149160147Y-47996354D01*
X149061544Y-47848784D01*
X148993624Y-47684812D01*
X148959000Y-47510741D01*
X148959000Y-47333259D01*
X148993624Y-47159188D01*
X149061544Y-46995216D01*
X149160147Y-46847646D01*
X149285646Y-46722147D01*
X149433216Y-46623544D01*
X149597188Y-46555624D01*
X149746488Y-46525927D01*
X149771258Y-46521000D01*
X149948742Y-46521000D01*
X149973512Y-46525927D01*
G37*
G36*
X152513512Y-46525927D02*
G01*
X152662812Y-46555624D01*
X152826784Y-46623544D01*
X152974354Y-46722147D01*
X153099853Y-46847646D01*
X153198456Y-46995216D01*
X153266376Y-47159188D01*
X153301000Y-47333259D01*
X153301000Y-47510741D01*
X153266376Y-47684812D01*
X153198456Y-47848784D01*
X153099853Y-47996354D01*
X152974354Y-48121853D01*
X152826784Y-48220456D01*
X152662812Y-48288376D01*
X152513512Y-48318073D01*
X152488742Y-48323000D01*
X152311258Y-48323000D01*
X152286488Y-48318073D01*
X152137188Y-48288376D01*
X151973216Y-48220456D01*
X151825646Y-48121853D01*
X151700147Y-47996354D01*
X151601544Y-47848784D01*
X151533624Y-47684812D01*
X151499000Y-47510741D01*
X151499000Y-47333259D01*
X151533624Y-47159188D01*
X151601544Y-46995216D01*
X151700147Y-46847646D01*
X151825646Y-46722147D01*
X151973216Y-46623544D01*
X152137188Y-46555624D01*
X152286488Y-46525927D01*
X152311258Y-46521000D01*
X152488742Y-46521000D01*
X152513512Y-46525927D01*
G37*
G36*
X188513512Y-46525927D02*
G01*
X188662812Y-46555624D01*
X188826784Y-46623544D01*
X188974354Y-46722147D01*
X189099853Y-46847646D01*
X189198456Y-46995216D01*
X189266376Y-47159188D01*
X189301000Y-47333259D01*
X189301000Y-47510741D01*
X189266376Y-47684812D01*
X189198456Y-47848784D01*
X189099853Y-47996354D01*
X188974354Y-48121853D01*
X188826784Y-48220456D01*
X188662812Y-48288376D01*
X188513512Y-48318073D01*
X188488742Y-48323000D01*
X188311258Y-48323000D01*
X188286488Y-48318073D01*
X188137188Y-48288376D01*
X187973216Y-48220456D01*
X187825646Y-48121853D01*
X187700147Y-47996354D01*
X187601544Y-47848784D01*
X187533624Y-47684812D01*
X187499000Y-47510741D01*
X187499000Y-47333259D01*
X187533624Y-47159188D01*
X187601544Y-46995216D01*
X187700147Y-46847646D01*
X187825646Y-46722147D01*
X187973216Y-46623544D01*
X188137188Y-46555624D01*
X188286488Y-46525927D01*
X188311258Y-46521000D01*
X188488742Y-46521000D01*
X188513512Y-46525927D01*
G37*
G36*
X185973512Y-46525927D02*
G01*
X186122812Y-46555624D01*
X186286784Y-46623544D01*
X186434354Y-46722147D01*
X186559853Y-46847646D01*
X186658456Y-46995216D01*
X186726376Y-47159188D01*
X186761000Y-47333259D01*
X186761000Y-47510741D01*
X186726376Y-47684812D01*
X186658456Y-47848784D01*
X186559853Y-47996354D01*
X186434354Y-48121853D01*
X186286784Y-48220456D01*
X186122812Y-48288376D01*
X185973512Y-48318073D01*
X185948742Y-48323000D01*
X185771258Y-48323000D01*
X185746488Y-48318073D01*
X185597188Y-48288376D01*
X185433216Y-48220456D01*
X185285646Y-48121853D01*
X185160147Y-47996354D01*
X185061544Y-47848784D01*
X184993624Y-47684812D01*
X184959000Y-47510741D01*
X184959000Y-47333259D01*
X184993624Y-47159188D01*
X185061544Y-46995216D01*
X185160147Y-46847646D01*
X185285646Y-46722147D01*
X185433216Y-46623544D01*
X185597188Y-46555624D01*
X185746488Y-46525927D01*
X185771258Y-46521000D01*
X185948742Y-46521000D01*
X185973512Y-46525927D01*
G37*
G36*
X122033512Y-46525927D02*
G01*
X122182812Y-46555624D01*
X122346784Y-46623544D01*
X122494354Y-46722147D01*
X122619853Y-46847646D01*
X122718456Y-46995216D01*
X122786376Y-47159188D01*
X122821000Y-47333259D01*
X122821000Y-47510741D01*
X122786376Y-47684812D01*
X122718456Y-47848784D01*
X122619853Y-47996354D01*
X122494354Y-48121853D01*
X122346784Y-48220456D01*
X122182812Y-48288376D01*
X122033512Y-48318073D01*
X122008742Y-48323000D01*
X121831258Y-48323000D01*
X121806488Y-48318073D01*
X121657188Y-48288376D01*
X121493216Y-48220456D01*
X121345646Y-48121853D01*
X121220147Y-47996354D01*
X121121544Y-47848784D01*
X121053624Y-47684812D01*
X121019000Y-47510741D01*
X121019000Y-47333259D01*
X121053624Y-47159188D01*
X121121544Y-46995216D01*
X121220147Y-46847646D01*
X121345646Y-46722147D01*
X121493216Y-46623544D01*
X121657188Y-46555624D01*
X121806488Y-46525927D01*
X121831258Y-46521000D01*
X122008742Y-46521000D01*
X122033512Y-46525927D01*
G37*
G36*
X122821000Y-45783000D02*
G01*
X121019000Y-45783000D01*
X121019000Y-43981000D01*
X122821000Y-43981000D01*
X122821000Y-45783000D01*
G37*
G36*
X188513512Y-43985927D02*
G01*
X188662812Y-44015624D01*
X188826784Y-44083544D01*
X188974354Y-44182147D01*
X189099853Y-44307646D01*
X189198456Y-44455216D01*
X189266376Y-44619188D01*
X189301000Y-44793259D01*
X189301000Y-44970741D01*
X189266376Y-45144812D01*
X189198456Y-45308784D01*
X189099853Y-45456354D01*
X188974354Y-45581853D01*
X188826784Y-45680456D01*
X188662812Y-45748376D01*
X188513512Y-45778073D01*
X188488742Y-45783000D01*
X188311258Y-45783000D01*
X188286488Y-45778073D01*
X188137188Y-45748376D01*
X187973216Y-45680456D01*
X187825646Y-45581853D01*
X187700147Y-45456354D01*
X187601544Y-45308784D01*
X187533624Y-45144812D01*
X187499000Y-44970741D01*
X187499000Y-44793259D01*
X187533624Y-44619188D01*
X187601544Y-44455216D01*
X187700147Y-44307646D01*
X187825646Y-44182147D01*
X187973216Y-44083544D01*
X188137188Y-44015624D01*
X188286488Y-43985927D01*
X188311258Y-43981000D01*
X188488742Y-43981000D01*
X188513512Y-43985927D01*
G37*
G36*
X150761000Y-45783000D02*
G01*
X148959000Y-45783000D01*
X148959000Y-43981000D01*
X150761000Y-43981000D01*
X150761000Y-45783000D01*
G37*
G36*
X152513512Y-43985927D02*
G01*
X152662812Y-44015624D01*
X152826784Y-44083544D01*
X152974354Y-44182147D01*
X153099853Y-44307646D01*
X153198456Y-44455216D01*
X153266376Y-44619188D01*
X153301000Y-44793259D01*
X153301000Y-44970741D01*
X153266376Y-45144812D01*
X153198456Y-45308784D01*
X153099853Y-45456354D01*
X152974354Y-45581853D01*
X152826784Y-45680456D01*
X152662812Y-45748376D01*
X152513512Y-45778073D01*
X152488742Y-45783000D01*
X152311258Y-45783000D01*
X152286488Y-45778073D01*
X152137188Y-45748376D01*
X151973216Y-45680456D01*
X151825646Y-45581853D01*
X151700147Y-45456354D01*
X151601544Y-45308784D01*
X151533624Y-45144812D01*
X151499000Y-44970741D01*
X151499000Y-44793259D01*
X151533624Y-44619188D01*
X151601544Y-44455216D01*
X151700147Y-44307646D01*
X151825646Y-44182147D01*
X151973216Y-44083544D01*
X152137188Y-44015624D01*
X152286488Y-43985927D01*
X152311258Y-43981000D01*
X152488742Y-43981000D01*
X152513512Y-43985927D01*
G37*
G36*
X186761000Y-45783000D02*
G01*
X184959000Y-45783000D01*
X184959000Y-43981000D01*
X186761000Y-43981000D01*
X186761000Y-45783000D01*
G37*
G36*
X158821000Y-45783000D02*
G01*
X157019000Y-45783000D01*
X157019000Y-43981000D01*
X158821000Y-43981000D01*
X158821000Y-45783000D01*
G37*
M02*
