G04 #@! TF.GenerationSoftware,KiCad,Pcbnew,5.1.5+dfsg1-2build2*
G04 #@! TF.CreationDate,2022-03-02T16:34:00-05:00*
G04 #@! TF.ProjectId,,58585858-5858-4585-9858-585858585858,rev?*
G04 #@! TF.SameCoordinates,Original*
G04 #@! TF.FileFunction,Profile,NP*
%FSLAX46Y46*%
G04 Gerber Fmt 4.6, Leading zero omitted, Abs format (unit mm)*
G04 Created by KiCad (PCBNEW 5.1.5+dfsg1-2build2) date 2022-03-02 16:34:00*
%MOMM*%
%LPD*%
G04 APERTURE LIST*
%ADD10C,0.050000*%
G04 APERTURE END LIST*
D10*
X129592440Y-81172000D02*
X129592440Y-117932000D01*
X100192440Y-81172000D02*
X100192440Y-117932000D01*
X70792440Y-81172000D02*
X70792440Y-117932000D01*
X129592440Y-44412000D02*
X129592440Y-81172000D01*
X100192440Y-44412000D02*
X100192440Y-81172000D01*
X158992440Y-81172000D02*
X158992440Y-117932000D01*
X129592440Y-81172000D02*
X129592440Y-117932000D01*
X100192440Y-81172000D02*
X100192440Y-117932000D01*
X158992440Y-44412000D02*
X158992440Y-81172000D01*
X129592440Y-44412000D02*
X129592440Y-81172000D01*
X129592440Y-117932000D02*
X158992440Y-117932000D01*
X100192440Y-117932000D02*
X129592440Y-117932000D01*
X70792440Y-117932000D02*
X100192440Y-117932000D01*
X129592440Y-81172000D02*
X158992440Y-81172000D01*
X100192440Y-81172000D02*
X129592440Y-81172000D01*
X129592440Y-81172000D02*
X158992440Y-81172000D01*
X100192440Y-81172000D02*
X129592440Y-81172000D01*
X70792440Y-81172000D02*
X100192440Y-81172000D01*
X129592440Y-44412000D02*
X158992440Y-44412000D01*
X100192440Y-44412000D02*
X129592440Y-44412000D01*
X70792440Y-81172000D02*
X100192440Y-81172000D01*
X70792440Y-44412000D02*
X100192440Y-44412000D01*
X100192440Y-44412000D02*
X100192440Y-81172000D01*
X70792440Y-44412000D02*
X70792440Y-81172000D01*
M02*
