G04 #@! TF.GenerationSoftware,KiCad,Pcbnew,5.1.5+dfsg1-2build2*
G04 #@! TF.CreationDate,2022-03-02T16:34:00-05:00*
G04 #@! TF.ProjectId,,58585858-5858-4585-9858-585858585858,rev?*
G04 #@! TF.SameCoordinates,Original*
G04 #@! TF.FileFunction,Legend,Bot*
G04 #@! TF.FilePolarity,Positive*
%FSLAX46Y46*%
G04 Gerber Fmt 4.6, Leading zero omitted, Abs format (unit mm)*
G04 Created by KiCad (PCBNEW 5.1.5+dfsg1-2build2) date 2022-03-02 16:34:00*
%MOMM*%
%LPD*%
G04 APERTURE LIST*
%ADD10C,0.150000*%
G04 APERTURE END LIST*
D10*
X143287776Y-114022980D02*
X143621109Y-113546790D01*
X143859204Y-114022980D02*
X143859204Y-113022980D01*
X143478252Y-113022980D01*
X143383014Y-113070600D01*
X143335395Y-113118219D01*
X143287776Y-113213457D01*
X143287776Y-113356314D01*
X143335395Y-113451552D01*
X143383014Y-113499171D01*
X143478252Y-113546790D01*
X143859204Y-113546790D01*
X142906823Y-113737266D02*
X142430633Y-113737266D01*
X143002061Y-114022980D02*
X142668728Y-113022980D01*
X142335395Y-114022980D01*
X142002061Y-114022980D02*
X142002061Y-113022980D01*
X141430633Y-114022980D02*
X141859204Y-113451552D01*
X141430633Y-113022980D02*
X142002061Y-113594409D01*
X141097300Y-113022980D02*
X140478252Y-113022980D01*
X140811585Y-113403933D01*
X140668728Y-113403933D01*
X140573490Y-113451552D01*
X140525871Y-113499171D01*
X140478252Y-113594409D01*
X140478252Y-113832504D01*
X140525871Y-113927742D01*
X140573490Y-113975361D01*
X140668728Y-114022980D01*
X140954442Y-114022980D01*
X141049680Y-113975361D01*
X141097300Y-113927742D01*
X139525871Y-114022980D02*
X140097300Y-114022980D01*
X139811585Y-114022980D02*
X139811585Y-113022980D01*
X139906823Y-113165838D01*
X140002061Y-113261076D01*
X140097300Y-113308695D01*
X139192538Y-113022980D02*
X138525871Y-113022980D01*
X138954442Y-114022980D01*
X138192538Y-113118219D02*
X138144919Y-113070600D01*
X138049680Y-113022980D01*
X137811585Y-113022980D01*
X137716347Y-113070600D01*
X137668728Y-113118219D01*
X137621109Y-113213457D01*
X137621109Y-113308695D01*
X137668728Y-113451552D01*
X138240157Y-114022980D01*
X137621109Y-114022980D01*
X143525871Y-115149171D02*
X143383014Y-115196790D01*
X143335395Y-115244409D01*
X143287776Y-115339647D01*
X143287776Y-115482504D01*
X143335395Y-115577742D01*
X143383014Y-115625361D01*
X143478252Y-115672980D01*
X143859204Y-115672980D01*
X143859204Y-114672980D01*
X143525871Y-114672980D01*
X143430633Y-114720600D01*
X143383014Y-114768219D01*
X143335395Y-114863457D01*
X143335395Y-114958695D01*
X143383014Y-115053933D01*
X143430633Y-115101552D01*
X143525871Y-115149171D01*
X143859204Y-115149171D01*
X142287776Y-115672980D02*
X142621109Y-115196790D01*
X142859204Y-115672980D02*
X142859204Y-114672980D01*
X142478252Y-114672980D01*
X142383014Y-114720600D01*
X142335395Y-114768219D01*
X142287776Y-114863457D01*
X142287776Y-115006314D01*
X142335395Y-115101552D01*
X142383014Y-115149171D01*
X142478252Y-115196790D01*
X142859204Y-115196790D01*
X141859204Y-115149171D02*
X141525871Y-115149171D01*
X141383014Y-115672980D02*
X141859204Y-115672980D01*
X141859204Y-114672980D01*
X141383014Y-114672980D01*
X141002061Y-115387266D02*
X140525871Y-115387266D01*
X141097300Y-115672980D02*
X140763966Y-114672980D01*
X140430633Y-115672980D01*
X140097300Y-115672980D02*
X140097300Y-114672980D01*
X139525871Y-115672980D02*
X139954442Y-115101552D01*
X139525871Y-114672980D02*
X140097300Y-115244409D01*
X138906823Y-114672980D02*
X138716347Y-114672980D01*
X138621109Y-114720600D01*
X138525871Y-114815838D01*
X138478252Y-115006314D01*
X138478252Y-115339647D01*
X138525871Y-115530123D01*
X138621109Y-115625361D01*
X138716347Y-115672980D01*
X138906823Y-115672980D01*
X139002061Y-115625361D01*
X139097300Y-115530123D01*
X139144919Y-115339647D01*
X139144919Y-115006314D01*
X139097300Y-114815838D01*
X139002061Y-114720600D01*
X138906823Y-114672980D01*
X138049680Y-114672980D02*
X138049680Y-115482504D01*
X138002061Y-115577742D01*
X137954442Y-115625361D01*
X137859204Y-115672980D01*
X137668728Y-115672980D01*
X137573490Y-115625361D01*
X137525871Y-115577742D01*
X137478252Y-115482504D01*
X137478252Y-114672980D01*
X137144919Y-114672980D02*
X136573490Y-114672980D01*
X136859204Y-115672980D02*
X136859204Y-114672980D01*
X144002061Y-116322980D02*
X143668728Y-117322980D01*
X143335395Y-116322980D01*
X142811585Y-116322980D02*
X142716347Y-116322980D01*
X142621109Y-116370600D01*
X142573490Y-116418219D01*
X142525871Y-116513457D01*
X142478252Y-116703933D01*
X142478252Y-116942028D01*
X142525871Y-117132504D01*
X142573490Y-117227742D01*
X142621109Y-117275361D01*
X142716347Y-117322980D01*
X142811585Y-117322980D01*
X142906823Y-117275361D01*
X142954442Y-117227742D01*
X143002061Y-117132504D01*
X143049680Y-116942028D01*
X143049680Y-116703933D01*
X143002061Y-116513457D01*
X142954442Y-116418219D01*
X142906823Y-116370600D01*
X142811585Y-116322980D01*
X113887776Y-114022980D02*
X114221109Y-113546790D01*
X114459204Y-114022980D02*
X114459204Y-113022980D01*
X114078252Y-113022980D01*
X113983014Y-113070600D01*
X113935395Y-113118219D01*
X113887776Y-113213457D01*
X113887776Y-113356314D01*
X113935395Y-113451552D01*
X113983014Y-113499171D01*
X114078252Y-113546790D01*
X114459204Y-113546790D01*
X113506823Y-113737266D02*
X113030633Y-113737266D01*
X113602061Y-114022980D02*
X113268728Y-113022980D01*
X112935395Y-114022980D01*
X112602061Y-114022980D02*
X112602061Y-113022980D01*
X112030633Y-114022980D02*
X112459204Y-113451552D01*
X112030633Y-113022980D02*
X112602061Y-113594409D01*
X111697300Y-113022980D02*
X111078252Y-113022980D01*
X111411585Y-113403933D01*
X111268728Y-113403933D01*
X111173490Y-113451552D01*
X111125871Y-113499171D01*
X111078252Y-113594409D01*
X111078252Y-113832504D01*
X111125871Y-113927742D01*
X111173490Y-113975361D01*
X111268728Y-114022980D01*
X111554442Y-114022980D01*
X111649680Y-113975361D01*
X111697300Y-113927742D01*
X110125871Y-114022980D02*
X110697300Y-114022980D01*
X110411585Y-114022980D02*
X110411585Y-113022980D01*
X110506823Y-113165838D01*
X110602061Y-113261076D01*
X110697300Y-113308695D01*
X109792538Y-113022980D02*
X109125871Y-113022980D01*
X109554442Y-114022980D01*
X108792538Y-113118219D02*
X108744919Y-113070600D01*
X108649680Y-113022980D01*
X108411585Y-113022980D01*
X108316347Y-113070600D01*
X108268728Y-113118219D01*
X108221109Y-113213457D01*
X108221109Y-113308695D01*
X108268728Y-113451552D01*
X108840157Y-114022980D01*
X108221109Y-114022980D01*
X114125871Y-115149171D02*
X113983014Y-115196790D01*
X113935395Y-115244409D01*
X113887776Y-115339647D01*
X113887776Y-115482504D01*
X113935395Y-115577742D01*
X113983014Y-115625361D01*
X114078252Y-115672980D01*
X114459204Y-115672980D01*
X114459204Y-114672980D01*
X114125871Y-114672980D01*
X114030633Y-114720600D01*
X113983014Y-114768219D01*
X113935395Y-114863457D01*
X113935395Y-114958695D01*
X113983014Y-115053933D01*
X114030633Y-115101552D01*
X114125871Y-115149171D01*
X114459204Y-115149171D01*
X112887776Y-115672980D02*
X113221109Y-115196790D01*
X113459204Y-115672980D02*
X113459204Y-114672980D01*
X113078252Y-114672980D01*
X112983014Y-114720600D01*
X112935395Y-114768219D01*
X112887776Y-114863457D01*
X112887776Y-115006314D01*
X112935395Y-115101552D01*
X112983014Y-115149171D01*
X113078252Y-115196790D01*
X113459204Y-115196790D01*
X112459204Y-115149171D02*
X112125871Y-115149171D01*
X111983014Y-115672980D02*
X112459204Y-115672980D01*
X112459204Y-114672980D01*
X111983014Y-114672980D01*
X111602061Y-115387266D02*
X111125871Y-115387266D01*
X111697300Y-115672980D02*
X111363966Y-114672980D01*
X111030633Y-115672980D01*
X110697300Y-115672980D02*
X110697300Y-114672980D01*
X110125871Y-115672980D02*
X110554442Y-115101552D01*
X110125871Y-114672980D02*
X110697300Y-115244409D01*
X109506823Y-114672980D02*
X109316347Y-114672980D01*
X109221109Y-114720600D01*
X109125871Y-114815838D01*
X109078252Y-115006314D01*
X109078252Y-115339647D01*
X109125871Y-115530123D01*
X109221109Y-115625361D01*
X109316347Y-115672980D01*
X109506823Y-115672980D01*
X109602061Y-115625361D01*
X109697300Y-115530123D01*
X109744919Y-115339647D01*
X109744919Y-115006314D01*
X109697300Y-114815838D01*
X109602061Y-114720600D01*
X109506823Y-114672980D01*
X108649680Y-114672980D02*
X108649680Y-115482504D01*
X108602061Y-115577742D01*
X108554442Y-115625361D01*
X108459204Y-115672980D01*
X108268728Y-115672980D01*
X108173490Y-115625361D01*
X108125871Y-115577742D01*
X108078252Y-115482504D01*
X108078252Y-114672980D01*
X107744919Y-114672980D02*
X107173490Y-114672980D01*
X107459204Y-115672980D02*
X107459204Y-114672980D01*
X114602061Y-116322980D02*
X114268728Y-117322980D01*
X113935395Y-116322980D01*
X113411585Y-116322980D02*
X113316347Y-116322980D01*
X113221109Y-116370600D01*
X113173490Y-116418219D01*
X113125871Y-116513457D01*
X113078252Y-116703933D01*
X113078252Y-116942028D01*
X113125871Y-117132504D01*
X113173490Y-117227742D01*
X113221109Y-117275361D01*
X113316347Y-117322980D01*
X113411585Y-117322980D01*
X113506823Y-117275361D01*
X113554442Y-117227742D01*
X113602061Y-117132504D01*
X113649680Y-116942028D01*
X113649680Y-116703933D01*
X113602061Y-116513457D01*
X113554442Y-116418219D01*
X113506823Y-116370600D01*
X113411585Y-116322980D01*
X84487776Y-114022980D02*
X84821109Y-113546790D01*
X85059204Y-114022980D02*
X85059204Y-113022980D01*
X84678252Y-113022980D01*
X84583014Y-113070600D01*
X84535395Y-113118219D01*
X84487776Y-113213457D01*
X84487776Y-113356314D01*
X84535395Y-113451552D01*
X84583014Y-113499171D01*
X84678252Y-113546790D01*
X85059204Y-113546790D01*
X84106823Y-113737266D02*
X83630633Y-113737266D01*
X84202061Y-114022980D02*
X83868728Y-113022980D01*
X83535395Y-114022980D01*
X83202061Y-114022980D02*
X83202061Y-113022980D01*
X82630633Y-114022980D02*
X83059204Y-113451552D01*
X82630633Y-113022980D02*
X83202061Y-113594409D01*
X82297300Y-113022980D02*
X81678252Y-113022980D01*
X82011585Y-113403933D01*
X81868728Y-113403933D01*
X81773490Y-113451552D01*
X81725871Y-113499171D01*
X81678252Y-113594409D01*
X81678252Y-113832504D01*
X81725871Y-113927742D01*
X81773490Y-113975361D01*
X81868728Y-114022980D01*
X82154442Y-114022980D01*
X82249680Y-113975361D01*
X82297300Y-113927742D01*
X80725871Y-114022980D02*
X81297300Y-114022980D01*
X81011585Y-114022980D02*
X81011585Y-113022980D01*
X81106823Y-113165838D01*
X81202061Y-113261076D01*
X81297300Y-113308695D01*
X80392538Y-113022980D02*
X79725871Y-113022980D01*
X80154442Y-114022980D01*
X79392538Y-113118219D02*
X79344919Y-113070600D01*
X79249680Y-113022980D01*
X79011585Y-113022980D01*
X78916347Y-113070600D01*
X78868728Y-113118219D01*
X78821109Y-113213457D01*
X78821109Y-113308695D01*
X78868728Y-113451552D01*
X79440157Y-114022980D01*
X78821109Y-114022980D01*
X84725871Y-115149171D02*
X84583014Y-115196790D01*
X84535395Y-115244409D01*
X84487776Y-115339647D01*
X84487776Y-115482504D01*
X84535395Y-115577742D01*
X84583014Y-115625361D01*
X84678252Y-115672980D01*
X85059204Y-115672980D01*
X85059204Y-114672980D01*
X84725871Y-114672980D01*
X84630633Y-114720600D01*
X84583014Y-114768219D01*
X84535395Y-114863457D01*
X84535395Y-114958695D01*
X84583014Y-115053933D01*
X84630633Y-115101552D01*
X84725871Y-115149171D01*
X85059204Y-115149171D01*
X83487776Y-115672980D02*
X83821109Y-115196790D01*
X84059204Y-115672980D02*
X84059204Y-114672980D01*
X83678252Y-114672980D01*
X83583014Y-114720600D01*
X83535395Y-114768219D01*
X83487776Y-114863457D01*
X83487776Y-115006314D01*
X83535395Y-115101552D01*
X83583014Y-115149171D01*
X83678252Y-115196790D01*
X84059204Y-115196790D01*
X83059204Y-115149171D02*
X82725871Y-115149171D01*
X82583014Y-115672980D02*
X83059204Y-115672980D01*
X83059204Y-114672980D01*
X82583014Y-114672980D01*
X82202061Y-115387266D02*
X81725871Y-115387266D01*
X82297300Y-115672980D02*
X81963966Y-114672980D01*
X81630633Y-115672980D01*
X81297300Y-115672980D02*
X81297300Y-114672980D01*
X80725871Y-115672980D02*
X81154442Y-115101552D01*
X80725871Y-114672980D02*
X81297300Y-115244409D01*
X80106823Y-114672980D02*
X79916347Y-114672980D01*
X79821109Y-114720600D01*
X79725871Y-114815838D01*
X79678252Y-115006314D01*
X79678252Y-115339647D01*
X79725871Y-115530123D01*
X79821109Y-115625361D01*
X79916347Y-115672980D01*
X80106823Y-115672980D01*
X80202061Y-115625361D01*
X80297300Y-115530123D01*
X80344919Y-115339647D01*
X80344919Y-115006314D01*
X80297300Y-114815838D01*
X80202061Y-114720600D01*
X80106823Y-114672980D01*
X79249680Y-114672980D02*
X79249680Y-115482504D01*
X79202061Y-115577742D01*
X79154442Y-115625361D01*
X79059204Y-115672980D01*
X78868728Y-115672980D01*
X78773490Y-115625361D01*
X78725871Y-115577742D01*
X78678252Y-115482504D01*
X78678252Y-114672980D01*
X78344919Y-114672980D02*
X77773490Y-114672980D01*
X78059204Y-115672980D02*
X78059204Y-114672980D01*
X85202061Y-116322980D02*
X84868728Y-117322980D01*
X84535395Y-116322980D01*
X84011585Y-116322980D02*
X83916347Y-116322980D01*
X83821109Y-116370600D01*
X83773490Y-116418219D01*
X83725871Y-116513457D01*
X83678252Y-116703933D01*
X83678252Y-116942028D01*
X83725871Y-117132504D01*
X83773490Y-117227742D01*
X83821109Y-117275361D01*
X83916347Y-117322980D01*
X84011585Y-117322980D01*
X84106823Y-117275361D01*
X84154442Y-117227742D01*
X84202061Y-117132504D01*
X84249680Y-116942028D01*
X84249680Y-116703933D01*
X84202061Y-116513457D01*
X84154442Y-116418219D01*
X84106823Y-116370600D01*
X84011585Y-116322980D01*
X143287776Y-77262980D02*
X143621109Y-76786790D01*
X143859204Y-77262980D02*
X143859204Y-76262980D01*
X143478252Y-76262980D01*
X143383014Y-76310600D01*
X143335395Y-76358219D01*
X143287776Y-76453457D01*
X143287776Y-76596314D01*
X143335395Y-76691552D01*
X143383014Y-76739171D01*
X143478252Y-76786790D01*
X143859204Y-76786790D01*
X142906823Y-76977266D02*
X142430633Y-76977266D01*
X143002061Y-77262980D02*
X142668728Y-76262980D01*
X142335395Y-77262980D01*
X142002061Y-77262980D02*
X142002061Y-76262980D01*
X141430633Y-77262980D02*
X141859204Y-76691552D01*
X141430633Y-76262980D02*
X142002061Y-76834409D01*
X141097300Y-76262980D02*
X140478252Y-76262980D01*
X140811585Y-76643933D01*
X140668728Y-76643933D01*
X140573490Y-76691552D01*
X140525871Y-76739171D01*
X140478252Y-76834409D01*
X140478252Y-77072504D01*
X140525871Y-77167742D01*
X140573490Y-77215361D01*
X140668728Y-77262980D01*
X140954442Y-77262980D01*
X141049680Y-77215361D01*
X141097300Y-77167742D01*
X139525871Y-77262980D02*
X140097300Y-77262980D01*
X139811585Y-77262980D02*
X139811585Y-76262980D01*
X139906823Y-76405838D01*
X140002061Y-76501076D01*
X140097300Y-76548695D01*
X139192538Y-76262980D02*
X138525871Y-76262980D01*
X138954442Y-77262980D01*
X138192538Y-76358219D02*
X138144919Y-76310600D01*
X138049680Y-76262980D01*
X137811585Y-76262980D01*
X137716347Y-76310600D01*
X137668728Y-76358219D01*
X137621109Y-76453457D01*
X137621109Y-76548695D01*
X137668728Y-76691552D01*
X138240157Y-77262980D01*
X137621109Y-77262980D01*
X143525871Y-78389171D02*
X143383014Y-78436790D01*
X143335395Y-78484409D01*
X143287776Y-78579647D01*
X143287776Y-78722504D01*
X143335395Y-78817742D01*
X143383014Y-78865361D01*
X143478252Y-78912980D01*
X143859204Y-78912980D01*
X143859204Y-77912980D01*
X143525871Y-77912980D01*
X143430633Y-77960600D01*
X143383014Y-78008219D01*
X143335395Y-78103457D01*
X143335395Y-78198695D01*
X143383014Y-78293933D01*
X143430633Y-78341552D01*
X143525871Y-78389171D01*
X143859204Y-78389171D01*
X142287776Y-78912980D02*
X142621109Y-78436790D01*
X142859204Y-78912980D02*
X142859204Y-77912980D01*
X142478252Y-77912980D01*
X142383014Y-77960600D01*
X142335395Y-78008219D01*
X142287776Y-78103457D01*
X142287776Y-78246314D01*
X142335395Y-78341552D01*
X142383014Y-78389171D01*
X142478252Y-78436790D01*
X142859204Y-78436790D01*
X141859204Y-78389171D02*
X141525871Y-78389171D01*
X141383014Y-78912980D02*
X141859204Y-78912980D01*
X141859204Y-77912980D01*
X141383014Y-77912980D01*
X141002061Y-78627266D02*
X140525871Y-78627266D01*
X141097300Y-78912980D02*
X140763966Y-77912980D01*
X140430633Y-78912980D01*
X140097300Y-78912980D02*
X140097300Y-77912980D01*
X139525871Y-78912980D02*
X139954442Y-78341552D01*
X139525871Y-77912980D02*
X140097300Y-78484409D01*
X138906823Y-77912980D02*
X138716347Y-77912980D01*
X138621109Y-77960600D01*
X138525871Y-78055838D01*
X138478252Y-78246314D01*
X138478252Y-78579647D01*
X138525871Y-78770123D01*
X138621109Y-78865361D01*
X138716347Y-78912980D01*
X138906823Y-78912980D01*
X139002061Y-78865361D01*
X139097300Y-78770123D01*
X139144919Y-78579647D01*
X139144919Y-78246314D01*
X139097300Y-78055838D01*
X139002061Y-77960600D01*
X138906823Y-77912980D01*
X138049680Y-77912980D02*
X138049680Y-78722504D01*
X138002061Y-78817742D01*
X137954442Y-78865361D01*
X137859204Y-78912980D01*
X137668728Y-78912980D01*
X137573490Y-78865361D01*
X137525871Y-78817742D01*
X137478252Y-78722504D01*
X137478252Y-77912980D01*
X137144919Y-77912980D02*
X136573490Y-77912980D01*
X136859204Y-78912980D02*
X136859204Y-77912980D01*
X144002061Y-79562980D02*
X143668728Y-80562980D01*
X143335395Y-79562980D01*
X142811585Y-79562980D02*
X142716347Y-79562980D01*
X142621109Y-79610600D01*
X142573490Y-79658219D01*
X142525871Y-79753457D01*
X142478252Y-79943933D01*
X142478252Y-80182028D01*
X142525871Y-80372504D01*
X142573490Y-80467742D01*
X142621109Y-80515361D01*
X142716347Y-80562980D01*
X142811585Y-80562980D01*
X142906823Y-80515361D01*
X142954442Y-80467742D01*
X143002061Y-80372504D01*
X143049680Y-80182028D01*
X143049680Y-79943933D01*
X143002061Y-79753457D01*
X142954442Y-79658219D01*
X142906823Y-79610600D01*
X142811585Y-79562980D01*
X113887776Y-77262980D02*
X114221109Y-76786790D01*
X114459204Y-77262980D02*
X114459204Y-76262980D01*
X114078252Y-76262980D01*
X113983014Y-76310600D01*
X113935395Y-76358219D01*
X113887776Y-76453457D01*
X113887776Y-76596314D01*
X113935395Y-76691552D01*
X113983014Y-76739171D01*
X114078252Y-76786790D01*
X114459204Y-76786790D01*
X113506823Y-76977266D02*
X113030633Y-76977266D01*
X113602061Y-77262980D02*
X113268728Y-76262980D01*
X112935395Y-77262980D01*
X112602061Y-77262980D02*
X112602061Y-76262980D01*
X112030633Y-77262980D02*
X112459204Y-76691552D01*
X112030633Y-76262980D02*
X112602061Y-76834409D01*
X111697300Y-76262980D02*
X111078252Y-76262980D01*
X111411585Y-76643933D01*
X111268728Y-76643933D01*
X111173490Y-76691552D01*
X111125871Y-76739171D01*
X111078252Y-76834409D01*
X111078252Y-77072504D01*
X111125871Y-77167742D01*
X111173490Y-77215361D01*
X111268728Y-77262980D01*
X111554442Y-77262980D01*
X111649680Y-77215361D01*
X111697300Y-77167742D01*
X110125871Y-77262980D02*
X110697300Y-77262980D01*
X110411585Y-77262980D02*
X110411585Y-76262980D01*
X110506823Y-76405838D01*
X110602061Y-76501076D01*
X110697300Y-76548695D01*
X109792538Y-76262980D02*
X109125871Y-76262980D01*
X109554442Y-77262980D01*
X108792538Y-76358219D02*
X108744919Y-76310600D01*
X108649680Y-76262980D01*
X108411585Y-76262980D01*
X108316347Y-76310600D01*
X108268728Y-76358219D01*
X108221109Y-76453457D01*
X108221109Y-76548695D01*
X108268728Y-76691552D01*
X108840157Y-77262980D01*
X108221109Y-77262980D01*
X114125871Y-78389171D02*
X113983014Y-78436790D01*
X113935395Y-78484409D01*
X113887776Y-78579647D01*
X113887776Y-78722504D01*
X113935395Y-78817742D01*
X113983014Y-78865361D01*
X114078252Y-78912980D01*
X114459204Y-78912980D01*
X114459204Y-77912980D01*
X114125871Y-77912980D01*
X114030633Y-77960600D01*
X113983014Y-78008219D01*
X113935395Y-78103457D01*
X113935395Y-78198695D01*
X113983014Y-78293933D01*
X114030633Y-78341552D01*
X114125871Y-78389171D01*
X114459204Y-78389171D01*
X112887776Y-78912980D02*
X113221109Y-78436790D01*
X113459204Y-78912980D02*
X113459204Y-77912980D01*
X113078252Y-77912980D01*
X112983014Y-77960600D01*
X112935395Y-78008219D01*
X112887776Y-78103457D01*
X112887776Y-78246314D01*
X112935395Y-78341552D01*
X112983014Y-78389171D01*
X113078252Y-78436790D01*
X113459204Y-78436790D01*
X112459204Y-78389171D02*
X112125871Y-78389171D01*
X111983014Y-78912980D02*
X112459204Y-78912980D01*
X112459204Y-77912980D01*
X111983014Y-77912980D01*
X111602061Y-78627266D02*
X111125871Y-78627266D01*
X111697300Y-78912980D02*
X111363966Y-77912980D01*
X111030633Y-78912980D01*
X110697300Y-78912980D02*
X110697300Y-77912980D01*
X110125871Y-78912980D02*
X110554442Y-78341552D01*
X110125871Y-77912980D02*
X110697300Y-78484409D01*
X109506823Y-77912980D02*
X109316347Y-77912980D01*
X109221109Y-77960600D01*
X109125871Y-78055838D01*
X109078252Y-78246314D01*
X109078252Y-78579647D01*
X109125871Y-78770123D01*
X109221109Y-78865361D01*
X109316347Y-78912980D01*
X109506823Y-78912980D01*
X109602061Y-78865361D01*
X109697300Y-78770123D01*
X109744919Y-78579647D01*
X109744919Y-78246314D01*
X109697300Y-78055838D01*
X109602061Y-77960600D01*
X109506823Y-77912980D01*
X108649680Y-77912980D02*
X108649680Y-78722504D01*
X108602061Y-78817742D01*
X108554442Y-78865361D01*
X108459204Y-78912980D01*
X108268728Y-78912980D01*
X108173490Y-78865361D01*
X108125871Y-78817742D01*
X108078252Y-78722504D01*
X108078252Y-77912980D01*
X107744919Y-77912980D02*
X107173490Y-77912980D01*
X107459204Y-78912980D02*
X107459204Y-77912980D01*
X114602061Y-79562980D02*
X114268728Y-80562980D01*
X113935395Y-79562980D01*
X113411585Y-79562980D02*
X113316347Y-79562980D01*
X113221109Y-79610600D01*
X113173490Y-79658219D01*
X113125871Y-79753457D01*
X113078252Y-79943933D01*
X113078252Y-80182028D01*
X113125871Y-80372504D01*
X113173490Y-80467742D01*
X113221109Y-80515361D01*
X113316347Y-80562980D01*
X113411585Y-80562980D01*
X113506823Y-80515361D01*
X113554442Y-80467742D01*
X113602061Y-80372504D01*
X113649680Y-80182028D01*
X113649680Y-79943933D01*
X113602061Y-79753457D01*
X113554442Y-79658219D01*
X113506823Y-79610600D01*
X113411585Y-79562980D01*
X84487776Y-77262980D02*
X84821109Y-76786790D01*
X85059204Y-77262980D02*
X85059204Y-76262980D01*
X84678252Y-76262980D01*
X84583014Y-76310600D01*
X84535395Y-76358219D01*
X84487776Y-76453457D01*
X84487776Y-76596314D01*
X84535395Y-76691552D01*
X84583014Y-76739171D01*
X84678252Y-76786790D01*
X85059204Y-76786790D01*
X84106823Y-76977266D02*
X83630633Y-76977266D01*
X84202061Y-77262980D02*
X83868728Y-76262980D01*
X83535395Y-77262980D01*
X83202061Y-77262980D02*
X83202061Y-76262980D01*
X82630633Y-77262980D02*
X83059204Y-76691552D01*
X82630633Y-76262980D02*
X83202061Y-76834409D01*
X82297300Y-76262980D02*
X81678252Y-76262980D01*
X82011585Y-76643933D01*
X81868728Y-76643933D01*
X81773490Y-76691552D01*
X81725871Y-76739171D01*
X81678252Y-76834409D01*
X81678252Y-77072504D01*
X81725871Y-77167742D01*
X81773490Y-77215361D01*
X81868728Y-77262980D01*
X82154442Y-77262980D01*
X82249680Y-77215361D01*
X82297300Y-77167742D01*
X80725871Y-77262980D02*
X81297300Y-77262980D01*
X81011585Y-77262980D02*
X81011585Y-76262980D01*
X81106823Y-76405838D01*
X81202061Y-76501076D01*
X81297300Y-76548695D01*
X80392538Y-76262980D02*
X79725871Y-76262980D01*
X80154442Y-77262980D01*
X79392538Y-76358219D02*
X79344919Y-76310600D01*
X79249680Y-76262980D01*
X79011585Y-76262980D01*
X78916347Y-76310600D01*
X78868728Y-76358219D01*
X78821109Y-76453457D01*
X78821109Y-76548695D01*
X78868728Y-76691552D01*
X79440157Y-77262980D01*
X78821109Y-77262980D01*
X84725871Y-78389171D02*
X84583014Y-78436790D01*
X84535395Y-78484409D01*
X84487776Y-78579647D01*
X84487776Y-78722504D01*
X84535395Y-78817742D01*
X84583014Y-78865361D01*
X84678252Y-78912980D01*
X85059204Y-78912980D01*
X85059204Y-77912980D01*
X84725871Y-77912980D01*
X84630633Y-77960600D01*
X84583014Y-78008219D01*
X84535395Y-78103457D01*
X84535395Y-78198695D01*
X84583014Y-78293933D01*
X84630633Y-78341552D01*
X84725871Y-78389171D01*
X85059204Y-78389171D01*
X83487776Y-78912980D02*
X83821109Y-78436790D01*
X84059204Y-78912980D02*
X84059204Y-77912980D01*
X83678252Y-77912980D01*
X83583014Y-77960600D01*
X83535395Y-78008219D01*
X83487776Y-78103457D01*
X83487776Y-78246314D01*
X83535395Y-78341552D01*
X83583014Y-78389171D01*
X83678252Y-78436790D01*
X84059204Y-78436790D01*
X83059204Y-78389171D02*
X82725871Y-78389171D01*
X82583014Y-78912980D02*
X83059204Y-78912980D01*
X83059204Y-77912980D01*
X82583014Y-77912980D01*
X82202061Y-78627266D02*
X81725871Y-78627266D01*
X82297300Y-78912980D02*
X81963966Y-77912980D01*
X81630633Y-78912980D01*
X81297300Y-78912980D02*
X81297300Y-77912980D01*
X80725871Y-78912980D02*
X81154442Y-78341552D01*
X80725871Y-77912980D02*
X81297300Y-78484409D01*
X80106823Y-77912980D02*
X79916347Y-77912980D01*
X79821109Y-77960600D01*
X79725871Y-78055838D01*
X79678252Y-78246314D01*
X79678252Y-78579647D01*
X79725871Y-78770123D01*
X79821109Y-78865361D01*
X79916347Y-78912980D01*
X80106823Y-78912980D01*
X80202061Y-78865361D01*
X80297300Y-78770123D01*
X80344919Y-78579647D01*
X80344919Y-78246314D01*
X80297300Y-78055838D01*
X80202061Y-77960600D01*
X80106823Y-77912980D01*
X79249680Y-77912980D02*
X79249680Y-78722504D01*
X79202061Y-78817742D01*
X79154442Y-78865361D01*
X79059204Y-78912980D01*
X78868728Y-78912980D01*
X78773490Y-78865361D01*
X78725871Y-78817742D01*
X78678252Y-78722504D01*
X78678252Y-77912980D01*
X78344919Y-77912980D02*
X77773490Y-77912980D01*
X78059204Y-78912980D02*
X78059204Y-77912980D01*
X85202061Y-79562980D02*
X84868728Y-80562980D01*
X84535395Y-79562980D01*
X84011585Y-79562980D02*
X83916347Y-79562980D01*
X83821109Y-79610600D01*
X83773490Y-79658219D01*
X83725871Y-79753457D01*
X83678252Y-79943933D01*
X83678252Y-80182028D01*
X83725871Y-80372504D01*
X83773490Y-80467742D01*
X83821109Y-80515361D01*
X83916347Y-80562980D01*
X84011585Y-80562980D01*
X84106823Y-80515361D01*
X84154442Y-80467742D01*
X84202061Y-80372504D01*
X84249680Y-80182028D01*
X84249680Y-79943933D01*
X84202061Y-79753457D01*
X84154442Y-79658219D01*
X84106823Y-79610600D01*
X84011585Y-79562980D01*
M02*
