G04 #@! TF.GenerationSoftware,KiCad,Pcbnew,5.1.5+dfsg1-2build2*
G04 #@! TF.CreationDate,2022-03-02T19:41:26-05:00*
G04 #@! TF.ProjectId,,58585858-5858-4585-9858-585858585858,rev?*
G04 #@! TF.SameCoordinates,Original*
G04 #@! TF.FileFunction,Copper,L2,Bot*
G04 #@! TF.FilePolarity,Positive*
%FSLAX46Y46*%
G04 Gerber Fmt 4.6, Leading zero omitted, Abs format (unit mm)*
G04 Created by KiCad (PCBNEW 5.1.5+dfsg1-2build2) date 2022-03-02 19:41:26*
%MOMM*%
%LPD*%
G04 APERTURE LIST*
%ADD10R,1.700000X1.700000*%
%ADD11O,1.700000X1.700000*%
%ADD12C,0.800000*%
%ADD13C,0.250000*%
G04 APERTURE END LIST*
D10*
X152831920Y-31443320D03*
D11*
X152831920Y-33983320D03*
X152831920Y-36523320D03*
X152831920Y-39063320D03*
X152831920Y-41603320D03*
X152831920Y-44143320D03*
X152831920Y-46683320D03*
X152831920Y-49223320D03*
X152831920Y-51763320D03*
X152831920Y-54303320D03*
X152831920Y-56843320D03*
X152831920Y-59383320D03*
X152831920Y-61923320D03*
X152831920Y-64463320D03*
X152831920Y-67003320D03*
X152831920Y-69543320D03*
X152831920Y-72083320D03*
X152831920Y-74623320D03*
X152831920Y-77163320D03*
X152831920Y-79703320D03*
D10*
X123431920Y-31443320D03*
D11*
X123431920Y-33983320D03*
X123431920Y-36523320D03*
X123431920Y-39063320D03*
X123431920Y-41603320D03*
X123431920Y-44143320D03*
X123431920Y-46683320D03*
X123431920Y-49223320D03*
X123431920Y-51763320D03*
X123431920Y-54303320D03*
X123431920Y-56843320D03*
X123431920Y-59383320D03*
X123431920Y-61923320D03*
X123431920Y-64463320D03*
X123431920Y-67003320D03*
X123431920Y-69543320D03*
X123431920Y-72083320D03*
X123431920Y-74623320D03*
X123431920Y-77163320D03*
X123431920Y-79703320D03*
D10*
X150291920Y-31443320D03*
D11*
X150291920Y-33983320D03*
X150291920Y-36523320D03*
X150291920Y-39063320D03*
X150291920Y-41603320D03*
X150291920Y-44143320D03*
X150291920Y-46683320D03*
X150291920Y-49223320D03*
X150291920Y-51763320D03*
X150291920Y-54303320D03*
X150291920Y-56843320D03*
X150291920Y-59383320D03*
X150291920Y-61923320D03*
X150291920Y-64463320D03*
X150291920Y-67003320D03*
X150291920Y-69543320D03*
X150291920Y-72083320D03*
X150291920Y-74623320D03*
X150291920Y-77163320D03*
X150291920Y-79703320D03*
D10*
X120891920Y-31443320D03*
D11*
X120891920Y-33983320D03*
X120891920Y-36523320D03*
X120891920Y-39063320D03*
X120891920Y-41603320D03*
X120891920Y-44143320D03*
X120891920Y-46683320D03*
X120891920Y-49223320D03*
X120891920Y-51763320D03*
X120891920Y-54303320D03*
X120891920Y-56843320D03*
X120891920Y-59383320D03*
X120891920Y-61923320D03*
X120891920Y-64463320D03*
X120891920Y-67003320D03*
X120891920Y-69543320D03*
X120891920Y-72083320D03*
X120891920Y-74623320D03*
X120891920Y-77163320D03*
X120891920Y-79703320D03*
D10*
X127431920Y-31443320D03*
D11*
X127431920Y-33983320D03*
X127431920Y-36523320D03*
X127431920Y-39063320D03*
X127431920Y-41603320D03*
X127431920Y-44143320D03*
X127431920Y-46683320D03*
X127431920Y-49223320D03*
X127431920Y-51763320D03*
X127431920Y-54303320D03*
X127431920Y-56843320D03*
X127431920Y-59383320D03*
X127431920Y-61923320D03*
X127431920Y-64463320D03*
X127431920Y-67003320D03*
X127431920Y-69543320D03*
X127431920Y-72083320D03*
X127431920Y-74623320D03*
X127431920Y-77163320D03*
X127431920Y-79703320D03*
D10*
X98031920Y-31443320D03*
D11*
X98031920Y-33983320D03*
X98031920Y-36523320D03*
X98031920Y-39063320D03*
X98031920Y-41603320D03*
X98031920Y-44143320D03*
X98031920Y-46683320D03*
X98031920Y-49223320D03*
X98031920Y-51763320D03*
X98031920Y-54303320D03*
X98031920Y-56843320D03*
X98031920Y-59383320D03*
X98031920Y-61923320D03*
X98031920Y-64463320D03*
X98031920Y-67003320D03*
X98031920Y-69543320D03*
X98031920Y-72083320D03*
X98031920Y-74623320D03*
X98031920Y-77163320D03*
X98031920Y-79703320D03*
X94031920Y-79703320D03*
X94031920Y-77163320D03*
X94031920Y-74623320D03*
X94031920Y-72083320D03*
X94031920Y-69543320D03*
X94031920Y-67003320D03*
X94031920Y-64463320D03*
X94031920Y-61923320D03*
X94031920Y-59383320D03*
X94031920Y-56843320D03*
X94031920Y-54303320D03*
X94031920Y-51763320D03*
X94031920Y-49223320D03*
X94031920Y-46683320D03*
X94031920Y-44143320D03*
X94031920Y-41603320D03*
X94031920Y-39063320D03*
X94031920Y-36523320D03*
X94031920Y-33983320D03*
D10*
X94031920Y-31443320D03*
D11*
X91491920Y-79703320D03*
X91491920Y-77163320D03*
X91491920Y-74623320D03*
X91491920Y-72083320D03*
X91491920Y-69543320D03*
X91491920Y-67003320D03*
X91491920Y-64463320D03*
X91491920Y-61923320D03*
X91491920Y-59383320D03*
X91491920Y-56843320D03*
X91491920Y-54303320D03*
X91491920Y-51763320D03*
X91491920Y-49223320D03*
X91491920Y-46683320D03*
X91491920Y-44143320D03*
X91491920Y-41603320D03*
X91491920Y-39063320D03*
X91491920Y-36523320D03*
X91491920Y-33983320D03*
D10*
X91491920Y-31443320D03*
D11*
X68631920Y-79703320D03*
X68631920Y-77163320D03*
X68631920Y-74623320D03*
X68631920Y-72083320D03*
X68631920Y-69543320D03*
X68631920Y-67003320D03*
X68631920Y-64463320D03*
X68631920Y-61923320D03*
X68631920Y-59383320D03*
X68631920Y-56843320D03*
X68631920Y-54303320D03*
X68631920Y-51763320D03*
X68631920Y-49223320D03*
X68631920Y-46683320D03*
X68631920Y-44143320D03*
X68631920Y-41603320D03*
X68631920Y-39063320D03*
X68631920Y-36523320D03*
X68631920Y-33983320D03*
D10*
X68631920Y-31443320D03*
D12*
X71296220Y-52825920D03*
X100696220Y-52825920D03*
X130096220Y-52825920D03*
X75388120Y-70189720D03*
X73467420Y-69000920D03*
X102867420Y-69000920D03*
X132267420Y-69000920D03*
X104788120Y-70189720D03*
X134188120Y-70189720D03*
D13*
X94031920Y-33983320D02*
X92856620Y-33983320D01*
X68631920Y-33983320D02*
X69807220Y-33983320D01*
X69807220Y-33983320D02*
X70982520Y-32808020D01*
X70982520Y-32808020D02*
X92048720Y-32808020D01*
X92048720Y-32808020D02*
X92856620Y-33615920D01*
X92856620Y-33615920D02*
X92856620Y-33983320D01*
X98031920Y-33983320D02*
X99207220Y-33983320D01*
X127431920Y-33983320D02*
X128607220Y-33983320D01*
X99207220Y-33983320D02*
X100382520Y-32808020D01*
X128607220Y-33983320D02*
X129782520Y-32808020D01*
X122256620Y-33615920D02*
X122256620Y-33983320D01*
X151656620Y-33615920D02*
X151656620Y-33983320D01*
X100382520Y-32808020D02*
X121448720Y-32808020D01*
X129782520Y-32808020D02*
X150848720Y-32808020D01*
X123431920Y-33983320D02*
X122256620Y-33983320D01*
X152831920Y-33983320D02*
X151656620Y-33983320D01*
X121448720Y-32808020D02*
X122256620Y-33615920D01*
X150848720Y-32808020D02*
X151656620Y-33615920D01*
X94031920Y-77163320D02*
X92856620Y-77163320D01*
X68631920Y-77163320D02*
X69807220Y-77163320D01*
X69807220Y-77163320D02*
X70982520Y-75988020D01*
X70982520Y-75988020D02*
X92048720Y-75988020D01*
X92048720Y-75988020D02*
X92856620Y-76795920D01*
X92856620Y-76795920D02*
X92856620Y-77163320D01*
X100382520Y-75988020D02*
X121448720Y-75988020D01*
X129782520Y-75988020D02*
X150848720Y-75988020D01*
X121448720Y-75988020D02*
X122256620Y-76795920D01*
X150848720Y-75988020D02*
X151656620Y-76795920D01*
X122256620Y-76795920D02*
X122256620Y-77163320D01*
X151656620Y-76795920D02*
X151656620Y-77163320D01*
X123431920Y-77163320D02*
X122256620Y-77163320D01*
X152831920Y-77163320D02*
X151656620Y-77163320D01*
X98031920Y-77163320D02*
X99207220Y-77163320D01*
X127431920Y-77163320D02*
X128607220Y-77163320D01*
X99207220Y-77163320D02*
X100382520Y-75988020D01*
X128607220Y-77163320D02*
X129782520Y-75988020D01*
X94031920Y-74623320D02*
X92856620Y-74623320D01*
X68631920Y-74623320D02*
X69807220Y-74623320D01*
X69807220Y-74623320D02*
X70982520Y-73448020D01*
X70982520Y-73448020D02*
X92048720Y-73448020D01*
X92048720Y-73448020D02*
X92856620Y-74255920D01*
X92856620Y-74255920D02*
X92856620Y-74623320D01*
X100382520Y-73448020D02*
X121448720Y-73448020D01*
X129782520Y-73448020D02*
X150848720Y-73448020D01*
X121448720Y-73448020D02*
X122256620Y-74255920D01*
X150848720Y-73448020D02*
X151656620Y-74255920D01*
X122256620Y-74255920D02*
X122256620Y-74623320D01*
X151656620Y-74255920D02*
X151656620Y-74623320D01*
X123431920Y-74623320D02*
X122256620Y-74623320D01*
X152831920Y-74623320D02*
X151656620Y-74623320D01*
X99207220Y-74623320D02*
X100382520Y-73448020D01*
X128607220Y-74623320D02*
X129782520Y-73448020D01*
X98031920Y-74623320D02*
X99207220Y-74623320D01*
X127431920Y-74623320D02*
X128607220Y-74623320D01*
X92856620Y-72083320D02*
X92856620Y-71715920D01*
X92856620Y-71715920D02*
X91911020Y-70770320D01*
X91911020Y-70770320D02*
X76994520Y-70770320D01*
X76994520Y-70770320D02*
X75688620Y-69464420D01*
X75688620Y-69464420D02*
X74956720Y-69464420D01*
X74956720Y-69464420D02*
X73767920Y-68275620D01*
X73767920Y-68275620D02*
X73155020Y-68275620D01*
X73155020Y-68275620D02*
X69807220Y-71623420D01*
X69807220Y-71623420D02*
X69807220Y-72083320D01*
X94031920Y-72083320D02*
X92856620Y-72083320D01*
X68631920Y-72083320D02*
X69807220Y-72083320D01*
X105088620Y-69464420D02*
X104356720Y-69464420D01*
X134488620Y-69464420D02*
X133756720Y-69464420D01*
X102555020Y-68275620D02*
X99207220Y-71623420D01*
X131955020Y-68275620D02*
X128607220Y-71623420D01*
X104356720Y-69464420D02*
X103167920Y-68275620D01*
X133756720Y-69464420D02*
X132567920Y-68275620D01*
X106394520Y-70770320D02*
X105088620Y-69464420D01*
X135794520Y-70770320D02*
X134488620Y-69464420D01*
X122256620Y-72083320D02*
X122256620Y-71715920D01*
X151656620Y-72083320D02*
X151656620Y-71715920D01*
X122256620Y-71715920D02*
X121311020Y-70770320D01*
X151656620Y-71715920D02*
X150711020Y-70770320D01*
X121311020Y-70770320D02*
X106394520Y-70770320D01*
X150711020Y-70770320D02*
X135794520Y-70770320D01*
X123431920Y-72083320D02*
X122256620Y-72083320D01*
X152831920Y-72083320D02*
X151656620Y-72083320D01*
X99207220Y-71623420D02*
X99207220Y-72083320D01*
X128607220Y-71623420D02*
X128607220Y-72083320D01*
X98031920Y-72083320D02*
X99207220Y-72083320D01*
X127431920Y-72083320D02*
X128607220Y-72083320D01*
X103167920Y-68275620D02*
X102555020Y-68275620D01*
X132567920Y-68275620D02*
X131955020Y-68275620D01*
X92856620Y-69543320D02*
X92856620Y-69176020D01*
X92856620Y-69176020D02*
X91885620Y-68205020D01*
X91885620Y-68205020D02*
X74334220Y-68205020D01*
X74334220Y-68205020D02*
X73954520Y-67825320D01*
X73954520Y-67825320D02*
X71525220Y-67825320D01*
X71525220Y-67825320D02*
X69807220Y-69543320D01*
X94031920Y-69543320D02*
X92856620Y-69543320D01*
X68631920Y-69543320D02*
X69807220Y-69543320D01*
X122256620Y-69543320D02*
X122256620Y-69176020D01*
X151656620Y-69543320D02*
X151656620Y-69176020D01*
X123431920Y-69543320D02*
X122256620Y-69543320D01*
X152831920Y-69543320D02*
X151656620Y-69543320D01*
X100925220Y-67825320D02*
X99207220Y-69543320D01*
X130325220Y-67825320D02*
X128607220Y-69543320D01*
X122256620Y-69176020D02*
X121285620Y-68205020D01*
X151656620Y-69176020D02*
X150685620Y-68205020D01*
X121285620Y-68205020D02*
X103734220Y-68205020D01*
X150685620Y-68205020D02*
X133134220Y-68205020D01*
X103734220Y-68205020D02*
X103354520Y-67825320D01*
X133134220Y-68205020D02*
X132754520Y-67825320D01*
X103354520Y-67825320D02*
X100925220Y-67825320D01*
X132754520Y-67825320D02*
X130325220Y-67825320D01*
X98031920Y-69543320D02*
X99207220Y-69543320D01*
X127431920Y-69543320D02*
X128607220Y-69543320D01*
X94031920Y-67003320D02*
X92856620Y-67003320D01*
X68631920Y-67003320D02*
X69807220Y-67003320D01*
X69807220Y-67003320D02*
X70982520Y-65828020D01*
X70982520Y-65828020D02*
X92048720Y-65828020D01*
X92048720Y-65828020D02*
X92856620Y-66635920D01*
X92856620Y-66635920D02*
X92856620Y-67003320D01*
X121448720Y-65828020D02*
X122256620Y-66635920D01*
X150848720Y-65828020D02*
X151656620Y-66635920D01*
X99207220Y-67003320D02*
X100382520Y-65828020D01*
X128607220Y-67003320D02*
X129782520Y-65828020D01*
X123431920Y-67003320D02*
X122256620Y-67003320D01*
X152831920Y-67003320D02*
X151656620Y-67003320D01*
X98031920Y-67003320D02*
X99207220Y-67003320D01*
X127431920Y-67003320D02*
X128607220Y-67003320D01*
X100382520Y-65828020D02*
X121448720Y-65828020D01*
X129782520Y-65828020D02*
X150848720Y-65828020D01*
X122256620Y-66635920D02*
X122256620Y-67003320D01*
X151656620Y-66635920D02*
X151656620Y-67003320D01*
X94031920Y-64463320D02*
X92856620Y-64463320D01*
X68631920Y-64463320D02*
X69807220Y-64463320D01*
X69807220Y-64463320D02*
X70982520Y-63288020D01*
X70982520Y-63288020D02*
X92048720Y-63288020D01*
X92048720Y-63288020D02*
X92856620Y-64095920D01*
X92856620Y-64095920D02*
X92856620Y-64463320D01*
X98031920Y-64463320D02*
X99207220Y-64463320D01*
X127431920Y-64463320D02*
X128607220Y-64463320D01*
X123431920Y-64463320D02*
X122256620Y-64463320D01*
X152831920Y-64463320D02*
X151656620Y-64463320D01*
X121448720Y-63288020D02*
X122256620Y-64095920D01*
X150848720Y-63288020D02*
X151656620Y-64095920D01*
X122256620Y-64095920D02*
X122256620Y-64463320D01*
X151656620Y-64095920D02*
X151656620Y-64463320D01*
X100382520Y-63288020D02*
X121448720Y-63288020D01*
X129782520Y-63288020D02*
X150848720Y-63288020D01*
X99207220Y-64463320D02*
X100382520Y-63288020D01*
X128607220Y-64463320D02*
X129782520Y-63288020D01*
X94031920Y-61923320D02*
X92856620Y-61923320D01*
X68631920Y-61923320D02*
X69807220Y-61923320D01*
X69807220Y-61923320D02*
X70982520Y-60748020D01*
X70982520Y-60748020D02*
X92048720Y-60748020D01*
X92048720Y-60748020D02*
X92856620Y-61555920D01*
X92856620Y-61555920D02*
X92856620Y-61923320D01*
X98031920Y-61923320D02*
X99207220Y-61923320D01*
X127431920Y-61923320D02*
X128607220Y-61923320D01*
X122256620Y-61555920D02*
X122256620Y-61923320D01*
X151656620Y-61555920D02*
X151656620Y-61923320D01*
X99207220Y-61923320D02*
X100382520Y-60748020D01*
X128607220Y-61923320D02*
X129782520Y-60748020D01*
X121448720Y-60748020D02*
X122256620Y-61555920D01*
X150848720Y-60748020D02*
X151656620Y-61555920D01*
X123431920Y-61923320D02*
X122256620Y-61923320D01*
X152831920Y-61923320D02*
X151656620Y-61923320D01*
X100382520Y-60748020D02*
X121448720Y-60748020D01*
X129782520Y-60748020D02*
X150848720Y-60748020D01*
X94031920Y-59383320D02*
X92856620Y-59383320D01*
X68631920Y-59383320D02*
X69807220Y-59383320D01*
X69807220Y-59383320D02*
X70982520Y-58208020D01*
X70982520Y-58208020D02*
X92048720Y-58208020D01*
X92048720Y-58208020D02*
X92856620Y-59015920D01*
X92856620Y-59015920D02*
X92856620Y-59383320D01*
X121448720Y-58208020D02*
X122256620Y-59015920D01*
X150848720Y-58208020D02*
X151656620Y-59015920D01*
X98031920Y-59383320D02*
X99207220Y-59383320D01*
X127431920Y-59383320D02*
X128607220Y-59383320D01*
X122256620Y-59015920D02*
X122256620Y-59383320D01*
X151656620Y-59015920D02*
X151656620Y-59383320D01*
X100382520Y-58208020D02*
X121448720Y-58208020D01*
X129782520Y-58208020D02*
X150848720Y-58208020D01*
X123431920Y-59383320D02*
X122256620Y-59383320D01*
X152831920Y-59383320D02*
X151656620Y-59383320D01*
X99207220Y-59383320D02*
X100382520Y-58208020D01*
X128607220Y-59383320D02*
X129782520Y-58208020D01*
X94031920Y-56843320D02*
X92856620Y-56843320D01*
X68631920Y-56843320D02*
X69807220Y-56843320D01*
X69807220Y-56843320D02*
X70982520Y-55668020D01*
X70982520Y-55668020D02*
X92048720Y-55668020D01*
X92048720Y-55668020D02*
X92856620Y-56475920D01*
X92856620Y-56475920D02*
X92856620Y-56843320D01*
X98031920Y-56843320D02*
X99207220Y-56843320D01*
X127431920Y-56843320D02*
X128607220Y-56843320D01*
X99207220Y-56843320D02*
X100382520Y-55668020D01*
X128607220Y-56843320D02*
X129782520Y-55668020D01*
X121448720Y-55668020D02*
X122256620Y-56475920D01*
X150848720Y-55668020D02*
X151656620Y-56475920D01*
X123431920Y-56843320D02*
X122256620Y-56843320D01*
X152831920Y-56843320D02*
X151656620Y-56843320D01*
X100382520Y-55668020D02*
X121448720Y-55668020D01*
X129782520Y-55668020D02*
X150848720Y-55668020D01*
X122256620Y-56475920D02*
X122256620Y-56843320D01*
X151656620Y-56475920D02*
X151656620Y-56843320D01*
X69807220Y-54303320D02*
X70844620Y-54303320D01*
X70844620Y-54303320D02*
X72019920Y-53128020D01*
X72019920Y-53128020D02*
X92048720Y-53128020D01*
X92048720Y-53128020D02*
X92856620Y-53935920D01*
X92856620Y-53935920D02*
X92856620Y-54303320D01*
X94031920Y-54303320D02*
X92856620Y-54303320D01*
X68631920Y-54303320D02*
X69807220Y-54303320D01*
X101419920Y-53128020D02*
X121448720Y-53128020D01*
X130819920Y-53128020D02*
X150848720Y-53128020D01*
X123431920Y-54303320D02*
X122256620Y-54303320D01*
X152831920Y-54303320D02*
X151656620Y-54303320D01*
X99207220Y-54303320D02*
X100244620Y-54303320D01*
X128607220Y-54303320D02*
X129644620Y-54303320D01*
X98031920Y-54303320D02*
X99207220Y-54303320D01*
X127431920Y-54303320D02*
X128607220Y-54303320D01*
X100244620Y-54303320D02*
X101419920Y-53128020D01*
X129644620Y-54303320D02*
X130819920Y-53128020D01*
X121448720Y-53128020D02*
X122256620Y-53935920D01*
X150848720Y-53128020D02*
X151656620Y-53935920D01*
X122256620Y-53935920D02*
X122256620Y-54303320D01*
X151656620Y-53935920D02*
X151656620Y-54303320D01*
X68631920Y-51763320D02*
X69807220Y-51763320D01*
X94031920Y-51763320D02*
X92856620Y-51763320D01*
X92856620Y-51763320D02*
X92856620Y-51396020D01*
X92856620Y-51396020D02*
X92048620Y-50588020D01*
X92048620Y-50588020D02*
X70982520Y-50588020D01*
X70982520Y-50588020D02*
X69807220Y-51763320D01*
X121448620Y-50588020D02*
X100382520Y-50588020D01*
X150848620Y-50588020D02*
X129782520Y-50588020D01*
X122256620Y-51763320D02*
X122256620Y-51396020D01*
X151656620Y-51763320D02*
X151656620Y-51396020D01*
X123431920Y-51763320D02*
X122256620Y-51763320D01*
X152831920Y-51763320D02*
X151656620Y-51763320D01*
X98031920Y-51763320D02*
X99207220Y-51763320D01*
X127431920Y-51763320D02*
X128607220Y-51763320D01*
X122256620Y-51396020D02*
X121448620Y-50588020D01*
X151656620Y-51396020D02*
X150848620Y-50588020D01*
X100382520Y-50588020D02*
X99207220Y-51763320D01*
X129782520Y-50588020D02*
X128607220Y-51763320D01*
X94031920Y-49223320D02*
X92856620Y-49223320D01*
X68631920Y-49223320D02*
X69807220Y-49223320D01*
X69807220Y-49223320D02*
X70982520Y-48048020D01*
X70982520Y-48048020D02*
X92048720Y-48048020D01*
X92048720Y-48048020D02*
X92856620Y-48855920D01*
X92856620Y-48855920D02*
X92856620Y-49223320D01*
X100382520Y-48048020D02*
X121448720Y-48048020D01*
X129782520Y-48048020D02*
X150848720Y-48048020D01*
X122256620Y-48855920D02*
X122256620Y-49223320D01*
X151656620Y-48855920D02*
X151656620Y-49223320D01*
X123431920Y-49223320D02*
X122256620Y-49223320D01*
X152831920Y-49223320D02*
X151656620Y-49223320D01*
X99207220Y-49223320D02*
X100382520Y-48048020D01*
X128607220Y-49223320D02*
X129782520Y-48048020D01*
X98031920Y-49223320D02*
X99207220Y-49223320D01*
X127431920Y-49223320D02*
X128607220Y-49223320D01*
X121448720Y-48048020D02*
X122256620Y-48855920D01*
X150848720Y-48048020D02*
X151656620Y-48855920D01*
X69807220Y-46683320D02*
X70982520Y-45508020D01*
X70982520Y-45508020D02*
X92048620Y-45508020D01*
X92048620Y-45508020D02*
X92856620Y-46316020D01*
X92856620Y-46316020D02*
X92856620Y-46683320D01*
X68631920Y-46683320D02*
X69807220Y-46683320D01*
X94031920Y-46683320D02*
X92856620Y-46683320D01*
X121448620Y-45508020D02*
X122256620Y-46316020D01*
X150848620Y-45508020D02*
X151656620Y-46316020D01*
X122256620Y-46316020D02*
X122256620Y-46683320D01*
X151656620Y-46316020D02*
X151656620Y-46683320D01*
X99207220Y-46683320D02*
X100382520Y-45508020D01*
X128607220Y-46683320D02*
X129782520Y-45508020D01*
X98031920Y-46683320D02*
X99207220Y-46683320D01*
X127431920Y-46683320D02*
X128607220Y-46683320D01*
X123431920Y-46683320D02*
X122256620Y-46683320D01*
X152831920Y-46683320D02*
X151656620Y-46683320D01*
X100382520Y-45508020D02*
X121448620Y-45508020D01*
X129782520Y-45508020D02*
X150848620Y-45508020D01*
X68631920Y-45318620D02*
X68264520Y-45318620D01*
X68264520Y-45318620D02*
X67456620Y-46126520D01*
X67456620Y-46126520D02*
X67456620Y-52251920D01*
X67456620Y-52251920D02*
X68183920Y-52979220D01*
X68183920Y-52979220D02*
X71142920Y-52979220D01*
X71142920Y-52979220D02*
X71296220Y-52825920D01*
X68631920Y-44143320D02*
X68631920Y-45318620D01*
X68631920Y-44143320D02*
X69807220Y-44143320D01*
X94031920Y-44143320D02*
X92856620Y-44143320D01*
X92856620Y-44143320D02*
X92856620Y-43776020D01*
X92856620Y-43776020D02*
X92048620Y-42968020D01*
X92048620Y-42968020D02*
X70982520Y-42968020D01*
X70982520Y-42968020D02*
X69807220Y-44143320D01*
X96856620Y-46126520D02*
X96856620Y-52251920D01*
X126256620Y-46126520D02*
X126256620Y-52251920D01*
X96856620Y-52251920D02*
X97583920Y-52979220D01*
X126256620Y-52251920D02*
X126983920Y-52979220D01*
X97583920Y-52979220D02*
X100542920Y-52979220D01*
X126983920Y-52979220D02*
X129942920Y-52979220D01*
X121448620Y-42968020D02*
X100382520Y-42968020D01*
X150848620Y-42968020D02*
X129782520Y-42968020D01*
X100382520Y-42968020D02*
X99207220Y-44143320D01*
X129782520Y-42968020D02*
X128607220Y-44143320D01*
X98031920Y-44143320D02*
X98031920Y-45318620D01*
X127431920Y-44143320D02*
X127431920Y-45318620D01*
X98031920Y-44143320D02*
X99207220Y-44143320D01*
X127431920Y-44143320D02*
X128607220Y-44143320D01*
X100542920Y-52979220D02*
X100696220Y-52825920D01*
X129942920Y-52979220D02*
X130096220Y-52825920D01*
X122256620Y-43776020D02*
X121448620Y-42968020D01*
X151656620Y-43776020D02*
X150848620Y-42968020D01*
X123431920Y-44143320D02*
X122256620Y-44143320D01*
X152831920Y-44143320D02*
X151656620Y-44143320D01*
X122256620Y-44143320D02*
X122256620Y-43776020D01*
X151656620Y-44143320D02*
X151656620Y-43776020D01*
X97664520Y-45318620D02*
X96856620Y-46126520D01*
X127064520Y-45318620D02*
X126256620Y-46126520D01*
X98031920Y-45318620D02*
X97664520Y-45318620D01*
X127431920Y-45318620D02*
X127064520Y-45318620D01*
X69807220Y-41603320D02*
X80121220Y-41603320D01*
X80121220Y-41603320D02*
X81296520Y-40428020D01*
X81296520Y-40428020D02*
X92048720Y-40428020D01*
X92048720Y-40428020D02*
X92856620Y-41235920D01*
X92856620Y-41235920D02*
X92856620Y-41603320D01*
X94031920Y-41603320D02*
X92856620Y-41603320D01*
X68631920Y-41603320D02*
X69807220Y-41603320D01*
X123431920Y-41603320D02*
X122256620Y-41603320D01*
X152831920Y-41603320D02*
X151656620Y-41603320D01*
X99207220Y-41603320D02*
X109521220Y-41603320D01*
X128607220Y-41603320D02*
X138921220Y-41603320D01*
X109521220Y-41603320D02*
X110696520Y-40428020D01*
X138921220Y-41603320D02*
X140096520Y-40428020D01*
X110696520Y-40428020D02*
X121448720Y-40428020D01*
X140096520Y-40428020D02*
X150848720Y-40428020D01*
X121448720Y-40428020D02*
X122256620Y-41235920D01*
X150848720Y-40428020D02*
X151656620Y-41235920D01*
X122256620Y-41235920D02*
X122256620Y-41603320D01*
X151656620Y-41235920D02*
X151656620Y-41603320D01*
X98031920Y-41603320D02*
X99207220Y-41603320D01*
X127431920Y-41603320D02*
X128607220Y-41603320D01*
X94031920Y-39063320D02*
X92856620Y-39063320D01*
X68631920Y-39063320D02*
X69807220Y-39063320D01*
X69807220Y-39063320D02*
X70982520Y-37888020D01*
X70982520Y-37888020D02*
X92048720Y-37888020D01*
X92048720Y-37888020D02*
X92856620Y-38695920D01*
X92856620Y-38695920D02*
X92856620Y-39063320D01*
X123431920Y-39063320D02*
X122256620Y-39063320D01*
X152831920Y-39063320D02*
X151656620Y-39063320D01*
X98031920Y-39063320D02*
X99207220Y-39063320D01*
X127431920Y-39063320D02*
X128607220Y-39063320D01*
X99207220Y-39063320D02*
X100382520Y-37888020D01*
X128607220Y-39063320D02*
X129782520Y-37888020D01*
X100382520Y-37888020D02*
X121448720Y-37888020D01*
X129782520Y-37888020D02*
X150848720Y-37888020D01*
X121448720Y-37888020D02*
X122256620Y-38695920D01*
X150848720Y-37888020D02*
X151656620Y-38695920D01*
X122256620Y-38695920D02*
X122256620Y-39063320D01*
X151656620Y-38695920D02*
X151656620Y-39063320D01*
X94031920Y-36523320D02*
X92856620Y-36523320D01*
X68631920Y-36523320D02*
X69807220Y-36523320D01*
X69807220Y-36523320D02*
X70982520Y-35348020D01*
X70982520Y-35348020D02*
X92048720Y-35348020D01*
X92048720Y-35348020D02*
X92856620Y-36155920D01*
X92856620Y-36155920D02*
X92856620Y-36523320D01*
X121448720Y-35348020D02*
X122256620Y-36155920D01*
X150848720Y-35348020D02*
X151656620Y-36155920D01*
X122256620Y-36155920D02*
X122256620Y-36523320D01*
X151656620Y-36155920D02*
X151656620Y-36523320D01*
X99207220Y-36523320D02*
X100382520Y-35348020D01*
X128607220Y-36523320D02*
X129782520Y-35348020D01*
X100382520Y-35348020D02*
X121448720Y-35348020D01*
X129782520Y-35348020D02*
X150848720Y-35348020D01*
X98031920Y-36523320D02*
X99207220Y-36523320D01*
X127431920Y-36523320D02*
X128607220Y-36523320D01*
X123431920Y-36523320D02*
X122256620Y-36523320D01*
X152831920Y-36523320D02*
X151656620Y-36523320D01*
X73467420Y-70189720D02*
X73467420Y-69000920D01*
X90316620Y-79703320D02*
X89141320Y-78528020D01*
X89141320Y-78528020D02*
X68313220Y-78528020D01*
X68313220Y-78528020D02*
X67402620Y-77617420D01*
X67402620Y-77617420D02*
X67402620Y-74119620D01*
X67402620Y-74119620D02*
X68168920Y-73353320D01*
X68168920Y-73353320D02*
X70303820Y-73353320D01*
X70303820Y-73353320D02*
X73467420Y-70189720D01*
X73467420Y-70189720D02*
X75388120Y-70189720D01*
X91491920Y-79703320D02*
X90316620Y-79703320D01*
X119716620Y-79703320D02*
X118541320Y-78528020D01*
X149116620Y-79703320D02*
X147941320Y-78528020D01*
X118541320Y-78528020D02*
X97713220Y-78528020D01*
X147941320Y-78528020D02*
X127113220Y-78528020D01*
X97568920Y-73353320D02*
X99703820Y-73353320D01*
X126968920Y-73353320D02*
X129103820Y-73353320D01*
X99703820Y-73353320D02*
X102867420Y-70189720D01*
X129103820Y-73353320D02*
X132267420Y-70189720D01*
X96802620Y-74119620D02*
X97568920Y-73353320D01*
X126202620Y-74119620D02*
X126968920Y-73353320D01*
X102867420Y-70189720D02*
X104788120Y-70189720D01*
X132267420Y-70189720D02*
X134188120Y-70189720D01*
X97713220Y-78528020D02*
X96802620Y-77617420D01*
X127113220Y-78528020D02*
X126202620Y-77617420D01*
X96802620Y-77617420D02*
X96802620Y-74119620D01*
X126202620Y-77617420D02*
X126202620Y-74119620D01*
X120891920Y-79703320D02*
X119716620Y-79703320D01*
X150291920Y-79703320D02*
X149116620Y-79703320D01*
X102867420Y-70189720D02*
X102867420Y-69000920D01*
X132267420Y-70189720D02*
X132267420Y-69000920D01*
M02*
