G04 #@! TF.GenerationSoftware,KiCad,Pcbnew,5.1.5+dfsg1-2build2*
G04 #@! TF.CreationDate,2022-03-02T19:41:26-05:00*
G04 #@! TF.ProjectId,,58585858-5858-4585-9858-585858585858,rev?*
G04 #@! TF.SameCoordinates,Original*
G04 #@! TF.FileFunction,Legend,Top*
G04 #@! TF.FilePolarity,Positive*
%FSLAX46Y46*%
G04 Gerber Fmt 4.6, Leading zero omitted, Abs format (unit mm)*
G04 Created by KiCad (PCBNEW 5.1.5+dfsg1-2build2) date 2022-03-02 19:41:26*
%MOMM*%
%LPD*%
G04 APERTURE LIST*
%ADD10C,0.150000*%
%ADD11C,0.087500*%
%ADD12C,0.120000*%
%ADD13C,0.010000*%
G04 APERTURE END LIST*
D10*
X135622543Y-73422500D02*
X135289210Y-72946310D01*
X135051115Y-73422500D02*
X135051115Y-72422500D01*
X135432067Y-72422500D01*
X135527305Y-72470120D01*
X135574924Y-72517739D01*
X135622543Y-72612977D01*
X135622543Y-72755834D01*
X135574924Y-72851072D01*
X135527305Y-72898691D01*
X135432067Y-72946310D01*
X135051115Y-72946310D01*
X136003496Y-73136786D02*
X136479686Y-73136786D01*
X135908258Y-73422500D02*
X136241591Y-72422500D01*
X136574924Y-73422500D01*
X136908258Y-73422500D02*
X136908258Y-72422500D01*
X137479686Y-73422500D02*
X137051115Y-72851072D01*
X137479686Y-72422500D02*
X136908258Y-72993929D01*
X138432067Y-73422500D02*
X137860639Y-73422500D01*
X138146353Y-73422500D02*
X138146353Y-72422500D01*
X138051115Y-72565358D01*
X137955877Y-72660596D01*
X137860639Y-72708215D01*
X139384448Y-73422500D02*
X138813020Y-73422500D01*
X139098734Y-73422500D02*
X139098734Y-72422500D01*
X139003496Y-72565358D01*
X138908258Y-72660596D01*
X138813020Y-72708215D01*
X139717781Y-72422500D02*
X140336829Y-72422500D01*
X140003496Y-72803453D01*
X140146353Y-72803453D01*
X140241591Y-72851072D01*
X140289210Y-72898691D01*
X140336829Y-72993929D01*
X140336829Y-73232024D01*
X140289210Y-73327262D01*
X140241591Y-73374881D01*
X140146353Y-73422500D01*
X139860639Y-73422500D01*
X139765400Y-73374881D01*
X139717781Y-73327262D01*
X140955877Y-72422500D02*
X141051115Y-72422500D01*
X141146353Y-72470120D01*
X141193972Y-72517739D01*
X141241591Y-72612977D01*
X141289210Y-72803453D01*
X141289210Y-73041548D01*
X141241591Y-73232024D01*
X141193972Y-73327262D01*
X141146353Y-73374881D01*
X141051115Y-73422500D01*
X140955877Y-73422500D01*
X140860639Y-73374881D01*
X140813020Y-73327262D01*
X140765400Y-73232024D01*
X140717781Y-73041548D01*
X140717781Y-72803453D01*
X140765400Y-72612977D01*
X140813020Y-72517739D01*
X140860639Y-72470120D01*
X140955877Y-72422500D01*
X141908258Y-72422500D02*
X142003496Y-72422500D01*
X142098734Y-72470120D01*
X142146353Y-72517739D01*
X142193972Y-72612977D01*
X142241591Y-72803453D01*
X142241591Y-73041548D01*
X142193972Y-73232024D01*
X142146353Y-73327262D01*
X142098734Y-73374881D01*
X142003496Y-73422500D01*
X141908258Y-73422500D01*
X141813020Y-73374881D01*
X141765400Y-73327262D01*
X141717781Y-73232024D01*
X141670162Y-73041548D01*
X141670162Y-72803453D01*
X141717781Y-72612977D01*
X141765400Y-72517739D01*
X141813020Y-72470120D01*
X141908258Y-72422500D01*
X135384448Y-74548691D02*
X135527305Y-74596310D01*
X135574924Y-74643929D01*
X135622543Y-74739167D01*
X135622543Y-74882024D01*
X135574924Y-74977262D01*
X135527305Y-75024881D01*
X135432067Y-75072500D01*
X135051115Y-75072500D01*
X135051115Y-74072500D01*
X135384448Y-74072500D01*
X135479686Y-74120120D01*
X135527305Y-74167739D01*
X135574924Y-74262977D01*
X135574924Y-74358215D01*
X135527305Y-74453453D01*
X135479686Y-74501072D01*
X135384448Y-74548691D01*
X135051115Y-74548691D01*
X136622543Y-75072500D02*
X136289210Y-74596310D01*
X136051115Y-75072500D02*
X136051115Y-74072500D01*
X136432067Y-74072500D01*
X136527305Y-74120120D01*
X136574924Y-74167739D01*
X136622543Y-74262977D01*
X136622543Y-74405834D01*
X136574924Y-74501072D01*
X136527305Y-74548691D01*
X136432067Y-74596310D01*
X136051115Y-74596310D01*
X137051115Y-74548691D02*
X137384448Y-74548691D01*
X137527305Y-75072500D02*
X137051115Y-75072500D01*
X137051115Y-74072500D01*
X137527305Y-74072500D01*
X137908258Y-74786786D02*
X138384448Y-74786786D01*
X137813020Y-75072500D02*
X138146353Y-74072500D01*
X138479686Y-75072500D01*
X138813020Y-75072500D02*
X138813020Y-74072500D01*
X139384448Y-75072500D02*
X138955877Y-74501072D01*
X139384448Y-74072500D02*
X138813020Y-74643929D01*
X140003496Y-74072500D02*
X140193972Y-74072500D01*
X140289210Y-74120120D01*
X140384448Y-74215358D01*
X140432067Y-74405834D01*
X140432067Y-74739167D01*
X140384448Y-74929643D01*
X140289210Y-75024881D01*
X140193972Y-75072500D01*
X140003496Y-75072500D01*
X139908258Y-75024881D01*
X139813020Y-74929643D01*
X139765400Y-74739167D01*
X139765400Y-74405834D01*
X139813020Y-74215358D01*
X139908258Y-74120120D01*
X140003496Y-74072500D01*
X140860639Y-74072500D02*
X140860639Y-74882024D01*
X140908258Y-74977262D01*
X140955877Y-75024881D01*
X141051115Y-75072500D01*
X141241591Y-75072500D01*
X141336829Y-75024881D01*
X141384448Y-74977262D01*
X141432067Y-74882024D01*
X141432067Y-74072500D01*
X141765400Y-74072500D02*
X142336829Y-74072500D01*
X142051115Y-75072500D02*
X142051115Y-74072500D01*
X134908258Y-75722500D02*
X135241591Y-76722500D01*
X135574924Y-75722500D01*
X136098734Y-75722500D02*
X136193972Y-75722500D01*
X136289210Y-75770120D01*
X136336829Y-75817739D01*
X136384448Y-75912977D01*
X136432067Y-76103453D01*
X136432067Y-76341548D01*
X136384448Y-76532024D01*
X136336829Y-76627262D01*
X136289210Y-76674881D01*
X136193972Y-76722500D01*
X136098734Y-76722500D01*
X136003496Y-76674881D01*
X135955877Y-76627262D01*
X135908258Y-76532024D01*
X135860639Y-76341548D01*
X135860639Y-76103453D01*
X135908258Y-75912977D01*
X135955877Y-75817739D01*
X136003496Y-75770120D01*
X136098734Y-75722500D01*
X106222543Y-73422500D02*
X105889210Y-72946310D01*
X105651115Y-73422500D02*
X105651115Y-72422500D01*
X106032067Y-72422500D01*
X106127305Y-72470120D01*
X106174924Y-72517739D01*
X106222543Y-72612977D01*
X106222543Y-72755834D01*
X106174924Y-72851072D01*
X106127305Y-72898691D01*
X106032067Y-72946310D01*
X105651115Y-72946310D01*
X106603496Y-73136786D02*
X107079686Y-73136786D01*
X106508258Y-73422500D02*
X106841591Y-72422500D01*
X107174924Y-73422500D01*
X107508258Y-73422500D02*
X107508258Y-72422500D01*
X108079686Y-73422500D02*
X107651115Y-72851072D01*
X108079686Y-72422500D02*
X107508258Y-72993929D01*
X109032067Y-73422500D02*
X108460639Y-73422500D01*
X108746353Y-73422500D02*
X108746353Y-72422500D01*
X108651115Y-72565358D01*
X108555877Y-72660596D01*
X108460639Y-72708215D01*
X109984448Y-73422500D02*
X109413020Y-73422500D01*
X109698734Y-73422500D02*
X109698734Y-72422500D01*
X109603496Y-72565358D01*
X109508258Y-72660596D01*
X109413020Y-72708215D01*
X110317781Y-72422500D02*
X110936829Y-72422500D01*
X110603496Y-72803453D01*
X110746353Y-72803453D01*
X110841591Y-72851072D01*
X110889210Y-72898691D01*
X110936829Y-72993929D01*
X110936829Y-73232024D01*
X110889210Y-73327262D01*
X110841591Y-73374881D01*
X110746353Y-73422500D01*
X110460639Y-73422500D01*
X110365400Y-73374881D01*
X110317781Y-73327262D01*
X111555877Y-72422500D02*
X111651115Y-72422500D01*
X111746353Y-72470120D01*
X111793972Y-72517739D01*
X111841591Y-72612977D01*
X111889210Y-72803453D01*
X111889210Y-73041548D01*
X111841591Y-73232024D01*
X111793972Y-73327262D01*
X111746353Y-73374881D01*
X111651115Y-73422500D01*
X111555877Y-73422500D01*
X111460639Y-73374881D01*
X111413020Y-73327262D01*
X111365400Y-73232024D01*
X111317781Y-73041548D01*
X111317781Y-72803453D01*
X111365400Y-72612977D01*
X111413020Y-72517739D01*
X111460639Y-72470120D01*
X111555877Y-72422500D01*
X112508258Y-72422500D02*
X112603496Y-72422500D01*
X112698734Y-72470120D01*
X112746353Y-72517739D01*
X112793972Y-72612977D01*
X112841591Y-72803453D01*
X112841591Y-73041548D01*
X112793972Y-73232024D01*
X112746353Y-73327262D01*
X112698734Y-73374881D01*
X112603496Y-73422500D01*
X112508258Y-73422500D01*
X112413020Y-73374881D01*
X112365400Y-73327262D01*
X112317781Y-73232024D01*
X112270162Y-73041548D01*
X112270162Y-72803453D01*
X112317781Y-72612977D01*
X112365400Y-72517739D01*
X112413020Y-72470120D01*
X112508258Y-72422500D01*
X105984448Y-74548691D02*
X106127305Y-74596310D01*
X106174924Y-74643929D01*
X106222543Y-74739167D01*
X106222543Y-74882024D01*
X106174924Y-74977262D01*
X106127305Y-75024881D01*
X106032067Y-75072500D01*
X105651115Y-75072500D01*
X105651115Y-74072500D01*
X105984448Y-74072500D01*
X106079686Y-74120120D01*
X106127305Y-74167739D01*
X106174924Y-74262977D01*
X106174924Y-74358215D01*
X106127305Y-74453453D01*
X106079686Y-74501072D01*
X105984448Y-74548691D01*
X105651115Y-74548691D01*
X107222543Y-75072500D02*
X106889210Y-74596310D01*
X106651115Y-75072500D02*
X106651115Y-74072500D01*
X107032067Y-74072500D01*
X107127305Y-74120120D01*
X107174924Y-74167739D01*
X107222543Y-74262977D01*
X107222543Y-74405834D01*
X107174924Y-74501072D01*
X107127305Y-74548691D01*
X107032067Y-74596310D01*
X106651115Y-74596310D01*
X107651115Y-74548691D02*
X107984448Y-74548691D01*
X108127305Y-75072500D02*
X107651115Y-75072500D01*
X107651115Y-74072500D01*
X108127305Y-74072500D01*
X108508258Y-74786786D02*
X108984448Y-74786786D01*
X108413020Y-75072500D02*
X108746353Y-74072500D01*
X109079686Y-75072500D01*
X109413020Y-75072500D02*
X109413020Y-74072500D01*
X109984448Y-75072500D02*
X109555877Y-74501072D01*
X109984448Y-74072500D02*
X109413020Y-74643929D01*
X110603496Y-74072500D02*
X110793972Y-74072500D01*
X110889210Y-74120120D01*
X110984448Y-74215358D01*
X111032067Y-74405834D01*
X111032067Y-74739167D01*
X110984448Y-74929643D01*
X110889210Y-75024881D01*
X110793972Y-75072500D01*
X110603496Y-75072500D01*
X110508258Y-75024881D01*
X110413020Y-74929643D01*
X110365400Y-74739167D01*
X110365400Y-74405834D01*
X110413020Y-74215358D01*
X110508258Y-74120120D01*
X110603496Y-74072500D01*
X111460639Y-74072500D02*
X111460639Y-74882024D01*
X111508258Y-74977262D01*
X111555877Y-75024881D01*
X111651115Y-75072500D01*
X111841591Y-75072500D01*
X111936829Y-75024881D01*
X111984448Y-74977262D01*
X112032067Y-74882024D01*
X112032067Y-74072500D01*
X112365400Y-74072500D02*
X112936829Y-74072500D01*
X112651115Y-75072500D02*
X112651115Y-74072500D01*
X105508258Y-75722500D02*
X105841591Y-76722500D01*
X106174924Y-75722500D01*
X106698734Y-75722500D02*
X106793972Y-75722500D01*
X106889210Y-75770120D01*
X106936829Y-75817739D01*
X106984448Y-75912977D01*
X107032067Y-76103453D01*
X107032067Y-76341548D01*
X106984448Y-76532024D01*
X106936829Y-76627262D01*
X106889210Y-76674881D01*
X106793972Y-76722500D01*
X106698734Y-76722500D01*
X106603496Y-76674881D01*
X106555877Y-76627262D01*
X106508258Y-76532024D01*
X106460639Y-76341548D01*
X106460639Y-76103453D01*
X106508258Y-75912977D01*
X106555877Y-75817739D01*
X106603496Y-75770120D01*
X106698734Y-75722500D01*
D11*
X147490120Y-30712903D02*
X147290120Y-30712903D01*
X147390120Y-30712903D02*
X147390120Y-30362903D01*
X147356786Y-30412903D01*
X147323453Y-30446236D01*
X147290120Y-30462903D01*
X147290120Y-31008736D02*
X147306786Y-30992070D01*
X147340120Y-30975403D01*
X147423453Y-30975403D01*
X147456786Y-30992070D01*
X147473453Y-31008736D01*
X147490120Y-31042070D01*
X147490120Y-31075403D01*
X147473453Y-31125403D01*
X147273453Y-31325403D01*
X147490120Y-31325403D01*
X147273453Y-31587903D02*
X147490120Y-31587903D01*
X147373453Y-31721236D01*
X147423453Y-31721236D01*
X147456786Y-31737903D01*
X147473453Y-31754570D01*
X147490120Y-31787903D01*
X147490120Y-31871236D01*
X147473453Y-31904570D01*
X147456786Y-31921236D01*
X147423453Y-31937903D01*
X147323453Y-31937903D01*
X147290120Y-31921236D01*
X147273453Y-31904570D01*
X147456786Y-32317070D02*
X147456786Y-32550403D01*
X147373453Y-32183736D02*
X147290120Y-32433736D01*
X147506786Y-32433736D01*
X147473453Y-32812903D02*
X147306786Y-32812903D01*
X147290120Y-32979570D01*
X147306786Y-32962903D01*
X147340120Y-32946236D01*
X147423453Y-32946236D01*
X147456786Y-32962903D01*
X147473453Y-32979570D01*
X147490120Y-33012903D01*
X147490120Y-33096236D01*
X147473453Y-33129570D01*
X147456786Y-33146236D01*
X147423453Y-33162903D01*
X147340120Y-33162903D01*
X147306786Y-33146236D01*
X147290120Y-33129570D01*
X147456786Y-33425403D02*
X147390120Y-33425403D01*
X147356786Y-33442070D01*
X147340120Y-33458736D01*
X147306786Y-33508736D01*
X147290120Y-33575403D01*
X147290120Y-33708736D01*
X147306786Y-33742070D01*
X147323453Y-33758736D01*
X147356786Y-33775403D01*
X147423453Y-33775403D01*
X147456786Y-33758736D01*
X147473453Y-33742070D01*
X147490120Y-33708736D01*
X147490120Y-33625403D01*
X147473453Y-33592070D01*
X147456786Y-33575403D01*
X147423453Y-33558736D01*
X147356786Y-33558736D01*
X147323453Y-33575403D01*
X147306786Y-33592070D01*
X147290120Y-33625403D01*
X147273453Y-34037903D02*
X147506786Y-34037903D01*
X147356786Y-34387903D01*
X147356786Y-34800403D02*
X147323453Y-34783736D01*
X147306786Y-34767070D01*
X147290120Y-34733736D01*
X147290120Y-34717070D01*
X147306786Y-34683736D01*
X147323453Y-34667070D01*
X147356786Y-34650403D01*
X147423453Y-34650403D01*
X147456786Y-34667070D01*
X147473453Y-34683736D01*
X147490120Y-34717070D01*
X147490120Y-34733736D01*
X147473453Y-34767070D01*
X147456786Y-34783736D01*
X147423453Y-34800403D01*
X147356786Y-34800403D01*
X147323453Y-34817070D01*
X147306786Y-34833736D01*
X147290120Y-34867070D01*
X147290120Y-34933736D01*
X147306786Y-34967070D01*
X147323453Y-34983736D01*
X147356786Y-35000403D01*
X147423453Y-35000403D01*
X147456786Y-34983736D01*
X147473453Y-34967070D01*
X147490120Y-34933736D01*
X147490120Y-34867070D01*
X147473453Y-34833736D01*
X147456786Y-34817070D01*
X147423453Y-34800403D01*
X147323453Y-35612903D02*
X147390120Y-35612903D01*
X147423453Y-35596236D01*
X147440120Y-35579570D01*
X147473453Y-35529570D01*
X147490120Y-35462903D01*
X147490120Y-35329570D01*
X147473453Y-35296236D01*
X147456786Y-35279570D01*
X147423453Y-35262903D01*
X147356786Y-35262903D01*
X147323453Y-35279570D01*
X147306786Y-35296236D01*
X147290120Y-35329570D01*
X147290120Y-35412903D01*
X147306786Y-35446236D01*
X147323453Y-35462903D01*
X147356786Y-35479570D01*
X147423453Y-35479570D01*
X147456786Y-35462903D01*
X147473453Y-35446236D01*
X147490120Y-35412903D01*
X147323453Y-36225403D02*
X147123453Y-36225403D01*
X147223453Y-36225403D02*
X147223453Y-35875403D01*
X147190120Y-35925403D01*
X147156786Y-35958736D01*
X147123453Y-35975403D01*
X147540120Y-35875403D02*
X147573453Y-35875403D01*
X147606786Y-35892070D01*
X147623453Y-35908736D01*
X147640120Y-35942070D01*
X147656786Y-36008736D01*
X147656786Y-36092070D01*
X147640120Y-36158736D01*
X147623453Y-36192070D01*
X147606786Y-36208736D01*
X147573453Y-36225403D01*
X147540120Y-36225403D01*
X147506786Y-36208736D01*
X147490120Y-36192070D01*
X147473453Y-36158736D01*
X147456786Y-36092070D01*
X147456786Y-36008736D01*
X147473453Y-35942070D01*
X147490120Y-35908736D01*
X147506786Y-35892070D01*
X147540120Y-35875403D01*
X147323453Y-36837903D02*
X147123453Y-36837903D01*
X147223453Y-36837903D02*
X147223453Y-36487903D01*
X147190120Y-36537903D01*
X147156786Y-36571236D01*
X147123453Y-36587903D01*
X147656786Y-36837903D02*
X147456786Y-36837903D01*
X147556786Y-36837903D02*
X147556786Y-36487903D01*
X147523453Y-36537903D01*
X147490120Y-36571236D01*
X147456786Y-36587903D01*
X147323453Y-37450403D02*
X147123453Y-37450403D01*
X147223453Y-37450403D02*
X147223453Y-37100403D01*
X147190120Y-37150403D01*
X147156786Y-37183736D01*
X147123453Y-37200403D01*
X147456786Y-37133736D02*
X147473453Y-37117070D01*
X147506786Y-37100403D01*
X147590120Y-37100403D01*
X147623453Y-37117070D01*
X147640120Y-37133736D01*
X147656786Y-37167070D01*
X147656786Y-37200403D01*
X147640120Y-37250403D01*
X147440120Y-37450403D01*
X147656786Y-37450403D01*
X147323453Y-38062903D02*
X147123453Y-38062903D01*
X147223453Y-38062903D02*
X147223453Y-37712903D01*
X147190120Y-37762903D01*
X147156786Y-37796236D01*
X147123453Y-37812903D01*
X147440120Y-37712903D02*
X147656786Y-37712903D01*
X147540120Y-37846236D01*
X147590120Y-37846236D01*
X147623453Y-37862903D01*
X147640120Y-37879570D01*
X147656786Y-37912903D01*
X147656786Y-37996236D01*
X147640120Y-38029570D01*
X147623453Y-38046236D01*
X147590120Y-38062903D01*
X147490120Y-38062903D01*
X147456786Y-38046236D01*
X147440120Y-38029570D01*
X147323453Y-38675403D02*
X147123453Y-38675403D01*
X147223453Y-38675403D02*
X147223453Y-38325403D01*
X147190120Y-38375403D01*
X147156786Y-38408736D01*
X147123453Y-38425403D01*
X147640120Y-38325403D02*
X147473453Y-38325403D01*
X147456786Y-38492070D01*
X147473453Y-38475403D01*
X147506786Y-38458736D01*
X147590120Y-38458736D01*
X147623453Y-38475403D01*
X147640120Y-38492070D01*
X147656786Y-38525403D01*
X147656786Y-38608736D01*
X147640120Y-38642070D01*
X147623453Y-38658736D01*
X147590120Y-38675403D01*
X147506786Y-38675403D01*
X147473453Y-38658736D01*
X147456786Y-38642070D01*
X147323453Y-39287903D02*
X147123453Y-39287903D01*
X147223453Y-39287903D02*
X147223453Y-38937903D01*
X147190120Y-38987903D01*
X147156786Y-39021236D01*
X147123453Y-39037903D01*
X147623453Y-38937903D02*
X147556786Y-38937903D01*
X147523453Y-38954570D01*
X147506786Y-38971236D01*
X147473453Y-39021236D01*
X147456786Y-39087903D01*
X147456786Y-39221236D01*
X147473453Y-39254570D01*
X147490120Y-39271236D01*
X147523453Y-39287903D01*
X147590120Y-39287903D01*
X147623453Y-39271236D01*
X147640120Y-39254570D01*
X147656786Y-39221236D01*
X147656786Y-39137903D01*
X147640120Y-39104570D01*
X147623453Y-39087903D01*
X147590120Y-39071236D01*
X147523453Y-39071236D01*
X147490120Y-39087903D01*
X147473453Y-39104570D01*
X147456786Y-39137903D01*
X147323453Y-39900403D02*
X147123453Y-39900403D01*
X147223453Y-39900403D02*
X147223453Y-39550403D01*
X147190120Y-39600403D01*
X147156786Y-39633736D01*
X147123453Y-39650403D01*
X147523453Y-39700403D02*
X147490120Y-39683736D01*
X147473453Y-39667070D01*
X147456786Y-39633736D01*
X147456786Y-39617070D01*
X147473453Y-39583736D01*
X147490120Y-39567070D01*
X147523453Y-39550403D01*
X147590120Y-39550403D01*
X147623453Y-39567070D01*
X147640120Y-39583736D01*
X147656786Y-39617070D01*
X147656786Y-39633736D01*
X147640120Y-39667070D01*
X147623453Y-39683736D01*
X147590120Y-39700403D01*
X147523453Y-39700403D01*
X147490120Y-39717070D01*
X147473453Y-39733736D01*
X147456786Y-39767070D01*
X147456786Y-39833736D01*
X147473453Y-39867070D01*
X147490120Y-39883736D01*
X147523453Y-39900403D01*
X147590120Y-39900403D01*
X147623453Y-39883736D01*
X147640120Y-39867070D01*
X147656786Y-39833736D01*
X147656786Y-39767070D01*
X147640120Y-39733736D01*
X147623453Y-39717070D01*
X147590120Y-39700403D01*
X147323453Y-40512903D02*
X147123453Y-40512903D01*
X147223453Y-40512903D02*
X147223453Y-40162903D01*
X147190120Y-40212903D01*
X147156786Y-40246236D01*
X147123453Y-40262903D01*
X147490120Y-40512903D02*
X147556786Y-40512903D01*
X147590120Y-40496236D01*
X147606786Y-40479570D01*
X147640120Y-40429570D01*
X147656786Y-40362903D01*
X147656786Y-40229570D01*
X147640120Y-40196236D01*
X147623453Y-40179570D01*
X147590120Y-40162903D01*
X147523453Y-40162903D01*
X147490120Y-40179570D01*
X147473453Y-40196236D01*
X147456786Y-40229570D01*
X147456786Y-40312903D01*
X147473453Y-40346236D01*
X147490120Y-40362903D01*
X147523453Y-40379570D01*
X147590120Y-40379570D01*
X147623453Y-40362903D01*
X147640120Y-40346236D01*
X147656786Y-40312903D01*
X147123453Y-40808736D02*
X147140120Y-40792070D01*
X147173453Y-40775403D01*
X147256786Y-40775403D01*
X147290120Y-40792070D01*
X147306786Y-40808736D01*
X147323453Y-40842070D01*
X147323453Y-40875403D01*
X147306786Y-40925403D01*
X147106786Y-41125403D01*
X147323453Y-41125403D01*
X147540120Y-40775403D02*
X147573453Y-40775403D01*
X147606786Y-40792070D01*
X147623453Y-40808736D01*
X147640120Y-40842070D01*
X147656786Y-40908736D01*
X147656786Y-40992070D01*
X147640120Y-41058736D01*
X147623453Y-41092070D01*
X147606786Y-41108736D01*
X147573453Y-41125403D01*
X147540120Y-41125403D01*
X147506786Y-41108736D01*
X147490120Y-41092070D01*
X147473453Y-41058736D01*
X147456786Y-40992070D01*
X147456786Y-40908736D01*
X147473453Y-40842070D01*
X147490120Y-40808736D01*
X147506786Y-40792070D01*
X147540120Y-40775403D01*
X147123453Y-41421236D02*
X147140120Y-41404570D01*
X147173453Y-41387903D01*
X147256786Y-41387903D01*
X147290120Y-41404570D01*
X147306786Y-41421236D01*
X147323453Y-41454570D01*
X147323453Y-41487903D01*
X147306786Y-41537903D01*
X147106786Y-41737903D01*
X147323453Y-41737903D01*
X147656786Y-41737903D02*
X147456786Y-41737903D01*
X147556786Y-41737903D02*
X147556786Y-41387903D01*
X147523453Y-41437903D01*
X147490120Y-41471236D01*
X147456786Y-41487903D01*
X147123453Y-42033736D02*
X147140120Y-42017070D01*
X147173453Y-42000403D01*
X147256786Y-42000403D01*
X147290120Y-42017070D01*
X147306786Y-42033736D01*
X147323453Y-42067070D01*
X147323453Y-42100403D01*
X147306786Y-42150403D01*
X147106786Y-42350403D01*
X147323453Y-42350403D01*
X147456786Y-42033736D02*
X147473453Y-42017070D01*
X147506786Y-42000403D01*
X147590120Y-42000403D01*
X147623453Y-42017070D01*
X147640120Y-42033736D01*
X147656786Y-42067070D01*
X147656786Y-42100403D01*
X147640120Y-42150403D01*
X147440120Y-42350403D01*
X147656786Y-42350403D01*
X118090120Y-30712903D02*
X117890120Y-30712903D01*
X117990120Y-30712903D02*
X117990120Y-30362903D01*
X117956786Y-30412903D01*
X117923453Y-30446236D01*
X117890120Y-30462903D01*
X117890120Y-31008736D02*
X117906786Y-30992070D01*
X117940120Y-30975403D01*
X118023453Y-30975403D01*
X118056786Y-30992070D01*
X118073453Y-31008736D01*
X118090120Y-31042070D01*
X118090120Y-31075403D01*
X118073453Y-31125403D01*
X117873453Y-31325403D01*
X118090120Y-31325403D01*
X117873453Y-31587903D02*
X118090120Y-31587903D01*
X117973453Y-31721236D01*
X118023453Y-31721236D01*
X118056786Y-31737903D01*
X118073453Y-31754570D01*
X118090120Y-31787903D01*
X118090120Y-31871236D01*
X118073453Y-31904570D01*
X118056786Y-31921236D01*
X118023453Y-31937903D01*
X117923453Y-31937903D01*
X117890120Y-31921236D01*
X117873453Y-31904570D01*
X118056786Y-32317070D02*
X118056786Y-32550403D01*
X117973453Y-32183736D02*
X117890120Y-32433736D01*
X118106786Y-32433736D01*
X118073453Y-32812903D02*
X117906786Y-32812903D01*
X117890120Y-32979570D01*
X117906786Y-32962903D01*
X117940120Y-32946236D01*
X118023453Y-32946236D01*
X118056786Y-32962903D01*
X118073453Y-32979570D01*
X118090120Y-33012903D01*
X118090120Y-33096236D01*
X118073453Y-33129570D01*
X118056786Y-33146236D01*
X118023453Y-33162903D01*
X117940120Y-33162903D01*
X117906786Y-33146236D01*
X117890120Y-33129570D01*
X118056786Y-33425403D02*
X117990120Y-33425403D01*
X117956786Y-33442070D01*
X117940120Y-33458736D01*
X117906786Y-33508736D01*
X117890120Y-33575403D01*
X117890120Y-33708736D01*
X117906786Y-33742070D01*
X117923453Y-33758736D01*
X117956786Y-33775403D01*
X118023453Y-33775403D01*
X118056786Y-33758736D01*
X118073453Y-33742070D01*
X118090120Y-33708736D01*
X118090120Y-33625403D01*
X118073453Y-33592070D01*
X118056786Y-33575403D01*
X118023453Y-33558736D01*
X117956786Y-33558736D01*
X117923453Y-33575403D01*
X117906786Y-33592070D01*
X117890120Y-33625403D01*
X117873453Y-34037903D02*
X118106786Y-34037903D01*
X117956786Y-34387903D01*
X117956786Y-34800403D02*
X117923453Y-34783736D01*
X117906786Y-34767070D01*
X117890120Y-34733736D01*
X117890120Y-34717070D01*
X117906786Y-34683736D01*
X117923453Y-34667070D01*
X117956786Y-34650403D01*
X118023453Y-34650403D01*
X118056786Y-34667070D01*
X118073453Y-34683736D01*
X118090120Y-34717070D01*
X118090120Y-34733736D01*
X118073453Y-34767070D01*
X118056786Y-34783736D01*
X118023453Y-34800403D01*
X117956786Y-34800403D01*
X117923453Y-34817070D01*
X117906786Y-34833736D01*
X117890120Y-34867070D01*
X117890120Y-34933736D01*
X117906786Y-34967070D01*
X117923453Y-34983736D01*
X117956786Y-35000403D01*
X118023453Y-35000403D01*
X118056786Y-34983736D01*
X118073453Y-34967070D01*
X118090120Y-34933736D01*
X118090120Y-34867070D01*
X118073453Y-34833736D01*
X118056786Y-34817070D01*
X118023453Y-34800403D01*
X117923453Y-35612903D02*
X117990120Y-35612903D01*
X118023453Y-35596236D01*
X118040120Y-35579570D01*
X118073453Y-35529570D01*
X118090120Y-35462903D01*
X118090120Y-35329570D01*
X118073453Y-35296236D01*
X118056786Y-35279570D01*
X118023453Y-35262903D01*
X117956786Y-35262903D01*
X117923453Y-35279570D01*
X117906786Y-35296236D01*
X117890120Y-35329570D01*
X117890120Y-35412903D01*
X117906786Y-35446236D01*
X117923453Y-35462903D01*
X117956786Y-35479570D01*
X118023453Y-35479570D01*
X118056786Y-35462903D01*
X118073453Y-35446236D01*
X118090120Y-35412903D01*
X117923453Y-36225403D02*
X117723453Y-36225403D01*
X117823453Y-36225403D02*
X117823453Y-35875403D01*
X117790120Y-35925403D01*
X117756786Y-35958736D01*
X117723453Y-35975403D01*
X118140120Y-35875403D02*
X118173453Y-35875403D01*
X118206786Y-35892070D01*
X118223453Y-35908736D01*
X118240120Y-35942070D01*
X118256786Y-36008736D01*
X118256786Y-36092070D01*
X118240120Y-36158736D01*
X118223453Y-36192070D01*
X118206786Y-36208736D01*
X118173453Y-36225403D01*
X118140120Y-36225403D01*
X118106786Y-36208736D01*
X118090120Y-36192070D01*
X118073453Y-36158736D01*
X118056786Y-36092070D01*
X118056786Y-36008736D01*
X118073453Y-35942070D01*
X118090120Y-35908736D01*
X118106786Y-35892070D01*
X118140120Y-35875403D01*
X117923453Y-36837903D02*
X117723453Y-36837903D01*
X117823453Y-36837903D02*
X117823453Y-36487903D01*
X117790120Y-36537903D01*
X117756786Y-36571236D01*
X117723453Y-36587903D01*
X118256786Y-36837903D02*
X118056786Y-36837903D01*
X118156786Y-36837903D02*
X118156786Y-36487903D01*
X118123453Y-36537903D01*
X118090120Y-36571236D01*
X118056786Y-36587903D01*
X117923453Y-37450403D02*
X117723453Y-37450403D01*
X117823453Y-37450403D02*
X117823453Y-37100403D01*
X117790120Y-37150403D01*
X117756786Y-37183736D01*
X117723453Y-37200403D01*
X118056786Y-37133736D02*
X118073453Y-37117070D01*
X118106786Y-37100403D01*
X118190120Y-37100403D01*
X118223453Y-37117070D01*
X118240120Y-37133736D01*
X118256786Y-37167070D01*
X118256786Y-37200403D01*
X118240120Y-37250403D01*
X118040120Y-37450403D01*
X118256786Y-37450403D01*
X117923453Y-38062903D02*
X117723453Y-38062903D01*
X117823453Y-38062903D02*
X117823453Y-37712903D01*
X117790120Y-37762903D01*
X117756786Y-37796236D01*
X117723453Y-37812903D01*
X118040120Y-37712903D02*
X118256786Y-37712903D01*
X118140120Y-37846236D01*
X118190120Y-37846236D01*
X118223453Y-37862903D01*
X118240120Y-37879570D01*
X118256786Y-37912903D01*
X118256786Y-37996236D01*
X118240120Y-38029570D01*
X118223453Y-38046236D01*
X118190120Y-38062903D01*
X118090120Y-38062903D01*
X118056786Y-38046236D01*
X118040120Y-38029570D01*
X117923453Y-38675403D02*
X117723453Y-38675403D01*
X117823453Y-38675403D02*
X117823453Y-38325403D01*
X117790120Y-38375403D01*
X117756786Y-38408736D01*
X117723453Y-38425403D01*
X118240120Y-38325403D02*
X118073453Y-38325403D01*
X118056786Y-38492070D01*
X118073453Y-38475403D01*
X118106786Y-38458736D01*
X118190120Y-38458736D01*
X118223453Y-38475403D01*
X118240120Y-38492070D01*
X118256786Y-38525403D01*
X118256786Y-38608736D01*
X118240120Y-38642070D01*
X118223453Y-38658736D01*
X118190120Y-38675403D01*
X118106786Y-38675403D01*
X118073453Y-38658736D01*
X118056786Y-38642070D01*
X117923453Y-39287903D02*
X117723453Y-39287903D01*
X117823453Y-39287903D02*
X117823453Y-38937903D01*
X117790120Y-38987903D01*
X117756786Y-39021236D01*
X117723453Y-39037903D01*
X118223453Y-38937903D02*
X118156786Y-38937903D01*
X118123453Y-38954570D01*
X118106786Y-38971236D01*
X118073453Y-39021236D01*
X118056786Y-39087903D01*
X118056786Y-39221236D01*
X118073453Y-39254570D01*
X118090120Y-39271236D01*
X118123453Y-39287903D01*
X118190120Y-39287903D01*
X118223453Y-39271236D01*
X118240120Y-39254570D01*
X118256786Y-39221236D01*
X118256786Y-39137903D01*
X118240120Y-39104570D01*
X118223453Y-39087903D01*
X118190120Y-39071236D01*
X118123453Y-39071236D01*
X118090120Y-39087903D01*
X118073453Y-39104570D01*
X118056786Y-39137903D01*
X117923453Y-39900403D02*
X117723453Y-39900403D01*
X117823453Y-39900403D02*
X117823453Y-39550403D01*
X117790120Y-39600403D01*
X117756786Y-39633736D01*
X117723453Y-39650403D01*
X118123453Y-39700403D02*
X118090120Y-39683736D01*
X118073453Y-39667070D01*
X118056786Y-39633736D01*
X118056786Y-39617070D01*
X118073453Y-39583736D01*
X118090120Y-39567070D01*
X118123453Y-39550403D01*
X118190120Y-39550403D01*
X118223453Y-39567070D01*
X118240120Y-39583736D01*
X118256786Y-39617070D01*
X118256786Y-39633736D01*
X118240120Y-39667070D01*
X118223453Y-39683736D01*
X118190120Y-39700403D01*
X118123453Y-39700403D01*
X118090120Y-39717070D01*
X118073453Y-39733736D01*
X118056786Y-39767070D01*
X118056786Y-39833736D01*
X118073453Y-39867070D01*
X118090120Y-39883736D01*
X118123453Y-39900403D01*
X118190120Y-39900403D01*
X118223453Y-39883736D01*
X118240120Y-39867070D01*
X118256786Y-39833736D01*
X118256786Y-39767070D01*
X118240120Y-39733736D01*
X118223453Y-39717070D01*
X118190120Y-39700403D01*
X117923453Y-40512903D02*
X117723453Y-40512903D01*
X117823453Y-40512903D02*
X117823453Y-40162903D01*
X117790120Y-40212903D01*
X117756786Y-40246236D01*
X117723453Y-40262903D01*
X118090120Y-40512903D02*
X118156786Y-40512903D01*
X118190120Y-40496236D01*
X118206786Y-40479570D01*
X118240120Y-40429570D01*
X118256786Y-40362903D01*
X118256786Y-40229570D01*
X118240120Y-40196236D01*
X118223453Y-40179570D01*
X118190120Y-40162903D01*
X118123453Y-40162903D01*
X118090120Y-40179570D01*
X118073453Y-40196236D01*
X118056786Y-40229570D01*
X118056786Y-40312903D01*
X118073453Y-40346236D01*
X118090120Y-40362903D01*
X118123453Y-40379570D01*
X118190120Y-40379570D01*
X118223453Y-40362903D01*
X118240120Y-40346236D01*
X118256786Y-40312903D01*
X117723453Y-40808736D02*
X117740120Y-40792070D01*
X117773453Y-40775403D01*
X117856786Y-40775403D01*
X117890120Y-40792070D01*
X117906786Y-40808736D01*
X117923453Y-40842070D01*
X117923453Y-40875403D01*
X117906786Y-40925403D01*
X117706786Y-41125403D01*
X117923453Y-41125403D01*
X118140120Y-40775403D02*
X118173453Y-40775403D01*
X118206786Y-40792070D01*
X118223453Y-40808736D01*
X118240120Y-40842070D01*
X118256786Y-40908736D01*
X118256786Y-40992070D01*
X118240120Y-41058736D01*
X118223453Y-41092070D01*
X118206786Y-41108736D01*
X118173453Y-41125403D01*
X118140120Y-41125403D01*
X118106786Y-41108736D01*
X118090120Y-41092070D01*
X118073453Y-41058736D01*
X118056786Y-40992070D01*
X118056786Y-40908736D01*
X118073453Y-40842070D01*
X118090120Y-40808736D01*
X118106786Y-40792070D01*
X118140120Y-40775403D01*
X117723453Y-41421236D02*
X117740120Y-41404570D01*
X117773453Y-41387903D01*
X117856786Y-41387903D01*
X117890120Y-41404570D01*
X117906786Y-41421236D01*
X117923453Y-41454570D01*
X117923453Y-41487903D01*
X117906786Y-41537903D01*
X117706786Y-41737903D01*
X117923453Y-41737903D01*
X118256786Y-41737903D02*
X118056786Y-41737903D01*
X118156786Y-41737903D02*
X118156786Y-41387903D01*
X118123453Y-41437903D01*
X118090120Y-41471236D01*
X118056786Y-41487903D01*
X117723453Y-42033736D02*
X117740120Y-42017070D01*
X117773453Y-42000403D01*
X117856786Y-42000403D01*
X117890120Y-42017070D01*
X117906786Y-42033736D01*
X117923453Y-42067070D01*
X117923453Y-42100403D01*
X117906786Y-42150403D01*
X117706786Y-42350403D01*
X117923453Y-42350403D01*
X118056786Y-42033736D02*
X118073453Y-42017070D01*
X118106786Y-42000403D01*
X118190120Y-42000403D01*
X118223453Y-42017070D01*
X118240120Y-42033736D01*
X118256786Y-42067070D01*
X118256786Y-42100403D01*
X118240120Y-42150403D01*
X118040120Y-42350403D01*
X118256786Y-42350403D01*
X143718880Y-30479570D02*
X143718880Y-30712903D01*
X143635546Y-30346236D02*
X143552213Y-30596236D01*
X143768880Y-30596236D01*
X144052213Y-30362903D02*
X143985546Y-30362903D01*
X143952213Y-30379570D01*
X143935546Y-30396236D01*
X143902213Y-30446236D01*
X143885546Y-30512903D01*
X143885546Y-30646236D01*
X143902213Y-30679570D01*
X143918880Y-30696236D01*
X143952213Y-30712903D01*
X144018880Y-30712903D01*
X144052213Y-30696236D01*
X144068880Y-30679570D01*
X144085546Y-30646236D01*
X144085546Y-30562903D01*
X144068880Y-30529570D01*
X144052213Y-30512903D01*
X144018880Y-30496236D01*
X143952213Y-30496236D01*
X143918880Y-30512903D01*
X143902213Y-30529570D01*
X143885546Y-30562903D01*
X143718880Y-31092070D02*
X143718880Y-31325403D01*
X143635546Y-30958736D02*
X143552213Y-31208736D01*
X143768880Y-31208736D01*
X144068880Y-30975403D02*
X143902213Y-30975403D01*
X143885546Y-31142070D01*
X143902213Y-31125403D01*
X143935546Y-31108736D01*
X144018880Y-31108736D01*
X144052213Y-31125403D01*
X144068880Y-31142070D01*
X144085546Y-31175403D01*
X144085546Y-31258736D01*
X144068880Y-31292070D01*
X144052213Y-31308736D01*
X144018880Y-31325403D01*
X143935546Y-31325403D01*
X143902213Y-31308736D01*
X143885546Y-31292070D01*
X143718880Y-31704570D02*
X143718880Y-31937903D01*
X143635546Y-31571236D02*
X143552213Y-31821236D01*
X143768880Y-31821236D01*
X143868880Y-31587903D02*
X144085546Y-31587903D01*
X143968880Y-31721236D01*
X144018880Y-31721236D01*
X144052213Y-31737903D01*
X144068880Y-31754570D01*
X144085546Y-31787903D01*
X144085546Y-31871236D01*
X144068880Y-31904570D01*
X144052213Y-31921236D01*
X144018880Y-31937903D01*
X143918880Y-31937903D01*
X143885546Y-31921236D01*
X143868880Y-31904570D01*
X143718880Y-32317070D02*
X143718880Y-32550403D01*
X143635546Y-32183736D02*
X143552213Y-32433736D01*
X143768880Y-32433736D01*
X143885546Y-32233736D02*
X143902213Y-32217070D01*
X143935546Y-32200403D01*
X144018880Y-32200403D01*
X144052213Y-32217070D01*
X144068880Y-32233736D01*
X144085546Y-32267070D01*
X144085546Y-32300403D01*
X144068880Y-32350403D01*
X143868880Y-32550403D01*
X144085546Y-32550403D01*
X143718880Y-32929570D02*
X143718880Y-33162903D01*
X143635546Y-32796236D02*
X143552213Y-33046236D01*
X143768880Y-33046236D01*
X144085546Y-33162903D02*
X143885546Y-33162903D01*
X143985546Y-33162903D02*
X143985546Y-32812903D01*
X143952213Y-32862903D01*
X143918880Y-32896236D01*
X143885546Y-32912903D01*
X143535546Y-33425403D02*
X143752213Y-33425403D01*
X143635546Y-33558736D01*
X143685546Y-33558736D01*
X143718880Y-33575403D01*
X143735546Y-33592070D01*
X143752213Y-33625403D01*
X143752213Y-33708736D01*
X143735546Y-33742070D01*
X143718880Y-33758736D01*
X143685546Y-33775403D01*
X143585546Y-33775403D01*
X143552213Y-33758736D01*
X143535546Y-33742070D01*
X143918880Y-33775403D02*
X143985546Y-33775403D01*
X144018880Y-33758736D01*
X144035546Y-33742070D01*
X144068880Y-33692070D01*
X144085546Y-33625403D01*
X144085546Y-33492070D01*
X144068880Y-33458736D01*
X144052213Y-33442070D01*
X144018880Y-33425403D01*
X143952213Y-33425403D01*
X143918880Y-33442070D01*
X143902213Y-33458736D01*
X143885546Y-33492070D01*
X143885546Y-33575403D01*
X143902213Y-33608736D01*
X143918880Y-33625403D01*
X143952213Y-33642070D01*
X144018880Y-33642070D01*
X144052213Y-33625403D01*
X144068880Y-33608736D01*
X144085546Y-33575403D01*
X143535546Y-34037903D02*
X143752213Y-34037903D01*
X143635546Y-34171236D01*
X143685546Y-34171236D01*
X143718880Y-34187903D01*
X143735546Y-34204570D01*
X143752213Y-34237903D01*
X143752213Y-34321236D01*
X143735546Y-34354570D01*
X143718880Y-34371236D01*
X143685546Y-34387903D01*
X143585546Y-34387903D01*
X143552213Y-34371236D01*
X143535546Y-34354570D01*
X143952213Y-34187903D02*
X143918880Y-34171236D01*
X143902213Y-34154570D01*
X143885546Y-34121236D01*
X143885546Y-34104570D01*
X143902213Y-34071236D01*
X143918880Y-34054570D01*
X143952213Y-34037903D01*
X144018880Y-34037903D01*
X144052213Y-34054570D01*
X144068880Y-34071236D01*
X144085546Y-34104570D01*
X144085546Y-34121236D01*
X144068880Y-34154570D01*
X144052213Y-34171236D01*
X144018880Y-34187903D01*
X143952213Y-34187903D01*
X143918880Y-34204570D01*
X143902213Y-34221236D01*
X143885546Y-34254570D01*
X143885546Y-34321236D01*
X143902213Y-34354570D01*
X143918880Y-34371236D01*
X143952213Y-34387903D01*
X144018880Y-34387903D01*
X144052213Y-34371236D01*
X144068880Y-34354570D01*
X144085546Y-34321236D01*
X144085546Y-34254570D01*
X144068880Y-34221236D01*
X144052213Y-34204570D01*
X144018880Y-34187903D01*
X143535546Y-34650403D02*
X143752213Y-34650403D01*
X143635546Y-34783736D01*
X143685546Y-34783736D01*
X143718880Y-34800403D01*
X143735546Y-34817070D01*
X143752213Y-34850403D01*
X143752213Y-34933736D01*
X143735546Y-34967070D01*
X143718880Y-34983736D01*
X143685546Y-35000403D01*
X143585546Y-35000403D01*
X143552213Y-34983736D01*
X143535546Y-34967070D01*
X144068880Y-34650403D02*
X143902213Y-34650403D01*
X143885546Y-34817070D01*
X143902213Y-34800403D01*
X143935546Y-34783736D01*
X144018880Y-34783736D01*
X144052213Y-34800403D01*
X144068880Y-34817070D01*
X144085546Y-34850403D01*
X144085546Y-34933736D01*
X144068880Y-34967070D01*
X144052213Y-34983736D01*
X144018880Y-35000403D01*
X143935546Y-35000403D01*
X143902213Y-34983736D01*
X143885546Y-34967070D01*
X143535546Y-35262903D02*
X143752213Y-35262903D01*
X143635546Y-35396236D01*
X143685546Y-35396236D01*
X143718880Y-35412903D01*
X143735546Y-35429570D01*
X143752213Y-35462903D01*
X143752213Y-35546236D01*
X143735546Y-35579570D01*
X143718880Y-35596236D01*
X143685546Y-35612903D01*
X143585546Y-35612903D01*
X143552213Y-35596236D01*
X143535546Y-35579570D01*
X144052213Y-35379570D02*
X144052213Y-35612903D01*
X143968880Y-35246236D02*
X143885546Y-35496236D01*
X144102213Y-35496236D01*
X143535546Y-35875403D02*
X143752213Y-35875403D01*
X143635546Y-36008736D01*
X143685546Y-36008736D01*
X143718880Y-36025403D01*
X143735546Y-36042070D01*
X143752213Y-36075403D01*
X143752213Y-36158736D01*
X143735546Y-36192070D01*
X143718880Y-36208736D01*
X143685546Y-36225403D01*
X143585546Y-36225403D01*
X143552213Y-36208736D01*
X143535546Y-36192070D01*
X143868880Y-35875403D02*
X144085546Y-35875403D01*
X143968880Y-36008736D01*
X144018880Y-36008736D01*
X144052213Y-36025403D01*
X144068880Y-36042070D01*
X144085546Y-36075403D01*
X144085546Y-36158736D01*
X144068880Y-36192070D01*
X144052213Y-36208736D01*
X144018880Y-36225403D01*
X143918880Y-36225403D01*
X143885546Y-36208736D01*
X143868880Y-36192070D01*
X143535546Y-36487903D02*
X143752213Y-36487903D01*
X143635546Y-36621236D01*
X143685546Y-36621236D01*
X143718880Y-36637903D01*
X143735546Y-36654570D01*
X143752213Y-36687903D01*
X143752213Y-36771236D01*
X143735546Y-36804570D01*
X143718880Y-36821236D01*
X143685546Y-36837903D01*
X143585546Y-36837903D01*
X143552213Y-36821236D01*
X143535546Y-36804570D01*
X143885546Y-36521236D02*
X143902213Y-36504570D01*
X143935546Y-36487903D01*
X144018880Y-36487903D01*
X144052213Y-36504570D01*
X144068880Y-36521236D01*
X144085546Y-36554570D01*
X144085546Y-36587903D01*
X144068880Y-36637903D01*
X143868880Y-36837903D01*
X144085546Y-36837903D01*
X143535546Y-37100403D02*
X143752213Y-37100403D01*
X143635546Y-37233736D01*
X143685546Y-37233736D01*
X143718880Y-37250403D01*
X143735546Y-37267070D01*
X143752213Y-37300403D01*
X143752213Y-37383736D01*
X143735546Y-37417070D01*
X143718880Y-37433736D01*
X143685546Y-37450403D01*
X143585546Y-37450403D01*
X143552213Y-37433736D01*
X143535546Y-37417070D01*
X144085546Y-37450403D02*
X143885546Y-37450403D01*
X143985546Y-37450403D02*
X143985546Y-37100403D01*
X143952213Y-37150403D01*
X143918880Y-37183736D01*
X143885546Y-37200403D01*
X143535546Y-37712903D02*
X143752213Y-37712903D01*
X143635546Y-37846236D01*
X143685546Y-37846236D01*
X143718880Y-37862903D01*
X143735546Y-37879570D01*
X143752213Y-37912903D01*
X143752213Y-37996236D01*
X143735546Y-38029570D01*
X143718880Y-38046236D01*
X143685546Y-38062903D01*
X143585546Y-38062903D01*
X143552213Y-38046236D01*
X143535546Y-38029570D01*
X143968880Y-37712903D02*
X144002213Y-37712903D01*
X144035546Y-37729570D01*
X144052213Y-37746236D01*
X144068880Y-37779570D01*
X144085546Y-37846236D01*
X144085546Y-37929570D01*
X144068880Y-37996236D01*
X144052213Y-38029570D01*
X144035546Y-38046236D01*
X144002213Y-38062903D01*
X143968880Y-38062903D01*
X143935546Y-38046236D01*
X143918880Y-38029570D01*
X143902213Y-37996236D01*
X143885546Y-37929570D01*
X143885546Y-37846236D01*
X143902213Y-37779570D01*
X143918880Y-37746236D01*
X143935546Y-37729570D01*
X143968880Y-37712903D01*
X143552213Y-38358736D02*
X143568880Y-38342070D01*
X143602213Y-38325403D01*
X143685546Y-38325403D01*
X143718880Y-38342070D01*
X143735546Y-38358736D01*
X143752213Y-38392070D01*
X143752213Y-38425403D01*
X143735546Y-38475403D01*
X143535546Y-38675403D01*
X143752213Y-38675403D01*
X143918880Y-38675403D02*
X143985546Y-38675403D01*
X144018880Y-38658736D01*
X144035546Y-38642070D01*
X144068880Y-38592070D01*
X144085546Y-38525403D01*
X144085546Y-38392070D01*
X144068880Y-38358736D01*
X144052213Y-38342070D01*
X144018880Y-38325403D01*
X143952213Y-38325403D01*
X143918880Y-38342070D01*
X143902213Y-38358736D01*
X143885546Y-38392070D01*
X143885546Y-38475403D01*
X143902213Y-38508736D01*
X143918880Y-38525403D01*
X143952213Y-38542070D01*
X144018880Y-38542070D01*
X144052213Y-38525403D01*
X144068880Y-38508736D01*
X144085546Y-38475403D01*
X143552213Y-38971236D02*
X143568880Y-38954570D01*
X143602213Y-38937903D01*
X143685546Y-38937903D01*
X143718880Y-38954570D01*
X143735546Y-38971236D01*
X143752213Y-39004570D01*
X143752213Y-39037903D01*
X143735546Y-39087903D01*
X143535546Y-39287903D01*
X143752213Y-39287903D01*
X143952213Y-39087903D02*
X143918880Y-39071236D01*
X143902213Y-39054570D01*
X143885546Y-39021236D01*
X143885546Y-39004570D01*
X143902213Y-38971236D01*
X143918880Y-38954570D01*
X143952213Y-38937903D01*
X144018880Y-38937903D01*
X144052213Y-38954570D01*
X144068880Y-38971236D01*
X144085546Y-39004570D01*
X144085546Y-39021236D01*
X144068880Y-39054570D01*
X144052213Y-39071236D01*
X144018880Y-39087903D01*
X143952213Y-39087903D01*
X143918880Y-39104570D01*
X143902213Y-39121236D01*
X143885546Y-39154570D01*
X143885546Y-39221236D01*
X143902213Y-39254570D01*
X143918880Y-39271236D01*
X143952213Y-39287903D01*
X144018880Y-39287903D01*
X144052213Y-39271236D01*
X144068880Y-39254570D01*
X144085546Y-39221236D01*
X144085546Y-39154570D01*
X144068880Y-39121236D01*
X144052213Y-39104570D01*
X144018880Y-39087903D01*
X143552213Y-39583736D02*
X143568880Y-39567070D01*
X143602213Y-39550403D01*
X143685546Y-39550403D01*
X143718880Y-39567070D01*
X143735546Y-39583736D01*
X143752213Y-39617070D01*
X143752213Y-39650403D01*
X143735546Y-39700403D01*
X143535546Y-39900403D01*
X143752213Y-39900403D01*
X143868880Y-39550403D02*
X144102213Y-39550403D01*
X143952213Y-39900403D01*
X143552213Y-40196236D02*
X143568880Y-40179570D01*
X143602213Y-40162903D01*
X143685546Y-40162903D01*
X143718880Y-40179570D01*
X143735546Y-40196236D01*
X143752213Y-40229570D01*
X143752213Y-40262903D01*
X143735546Y-40312903D01*
X143535546Y-40512903D01*
X143752213Y-40512903D01*
X144052213Y-40162903D02*
X143985546Y-40162903D01*
X143952213Y-40179570D01*
X143935546Y-40196236D01*
X143902213Y-40246236D01*
X143885546Y-40312903D01*
X143885546Y-40446236D01*
X143902213Y-40479570D01*
X143918880Y-40496236D01*
X143952213Y-40512903D01*
X144018880Y-40512903D01*
X144052213Y-40496236D01*
X144068880Y-40479570D01*
X144085546Y-40446236D01*
X144085546Y-40362903D01*
X144068880Y-40329570D01*
X144052213Y-40312903D01*
X144018880Y-40296236D01*
X143952213Y-40296236D01*
X143918880Y-40312903D01*
X143902213Y-40329570D01*
X143885546Y-40362903D01*
X143552213Y-40808736D02*
X143568880Y-40792070D01*
X143602213Y-40775403D01*
X143685546Y-40775403D01*
X143718880Y-40792070D01*
X143735546Y-40808736D01*
X143752213Y-40842070D01*
X143752213Y-40875403D01*
X143735546Y-40925403D01*
X143535546Y-41125403D01*
X143752213Y-41125403D01*
X144068880Y-40775403D02*
X143902213Y-40775403D01*
X143885546Y-40942070D01*
X143902213Y-40925403D01*
X143935546Y-40908736D01*
X144018880Y-40908736D01*
X144052213Y-40925403D01*
X144068880Y-40942070D01*
X144085546Y-40975403D01*
X144085546Y-41058736D01*
X144068880Y-41092070D01*
X144052213Y-41108736D01*
X144018880Y-41125403D01*
X143935546Y-41125403D01*
X143902213Y-41108736D01*
X143885546Y-41092070D01*
X143552213Y-41421236D02*
X143568880Y-41404570D01*
X143602213Y-41387903D01*
X143685546Y-41387903D01*
X143718880Y-41404570D01*
X143735546Y-41421236D01*
X143752213Y-41454570D01*
X143752213Y-41487903D01*
X143735546Y-41537903D01*
X143535546Y-41737903D01*
X143752213Y-41737903D01*
X144052213Y-41504570D02*
X144052213Y-41737903D01*
X143968880Y-41371236D02*
X143885546Y-41621236D01*
X144102213Y-41621236D01*
X143552213Y-42033736D02*
X143568880Y-42017070D01*
X143602213Y-42000403D01*
X143685546Y-42000403D01*
X143718880Y-42017070D01*
X143735546Y-42033736D01*
X143752213Y-42067070D01*
X143752213Y-42100403D01*
X143735546Y-42150403D01*
X143535546Y-42350403D01*
X143752213Y-42350403D01*
X143868880Y-42000403D02*
X144085546Y-42000403D01*
X143968880Y-42133736D01*
X144018880Y-42133736D01*
X144052213Y-42150403D01*
X144068880Y-42167070D01*
X144085546Y-42200403D01*
X144085546Y-42283736D01*
X144068880Y-42317070D01*
X144052213Y-42333736D01*
X144018880Y-42350403D01*
X143918880Y-42350403D01*
X143885546Y-42333736D01*
X143868880Y-42317070D01*
X114318880Y-30479570D02*
X114318880Y-30712903D01*
X114235546Y-30346236D02*
X114152213Y-30596236D01*
X114368880Y-30596236D01*
X114652213Y-30362903D02*
X114585546Y-30362903D01*
X114552213Y-30379570D01*
X114535546Y-30396236D01*
X114502213Y-30446236D01*
X114485546Y-30512903D01*
X114485546Y-30646236D01*
X114502213Y-30679570D01*
X114518880Y-30696236D01*
X114552213Y-30712903D01*
X114618880Y-30712903D01*
X114652213Y-30696236D01*
X114668880Y-30679570D01*
X114685546Y-30646236D01*
X114685546Y-30562903D01*
X114668880Y-30529570D01*
X114652213Y-30512903D01*
X114618880Y-30496236D01*
X114552213Y-30496236D01*
X114518880Y-30512903D01*
X114502213Y-30529570D01*
X114485546Y-30562903D01*
X114318880Y-31092070D02*
X114318880Y-31325403D01*
X114235546Y-30958736D02*
X114152213Y-31208736D01*
X114368880Y-31208736D01*
X114668880Y-30975403D02*
X114502213Y-30975403D01*
X114485546Y-31142070D01*
X114502213Y-31125403D01*
X114535546Y-31108736D01*
X114618880Y-31108736D01*
X114652213Y-31125403D01*
X114668880Y-31142070D01*
X114685546Y-31175403D01*
X114685546Y-31258736D01*
X114668880Y-31292070D01*
X114652213Y-31308736D01*
X114618880Y-31325403D01*
X114535546Y-31325403D01*
X114502213Y-31308736D01*
X114485546Y-31292070D01*
X114318880Y-31704570D02*
X114318880Y-31937903D01*
X114235546Y-31571236D02*
X114152213Y-31821236D01*
X114368880Y-31821236D01*
X114468880Y-31587903D02*
X114685546Y-31587903D01*
X114568880Y-31721236D01*
X114618880Y-31721236D01*
X114652213Y-31737903D01*
X114668880Y-31754570D01*
X114685546Y-31787903D01*
X114685546Y-31871236D01*
X114668880Y-31904570D01*
X114652213Y-31921236D01*
X114618880Y-31937903D01*
X114518880Y-31937903D01*
X114485546Y-31921236D01*
X114468880Y-31904570D01*
X114318880Y-32317070D02*
X114318880Y-32550403D01*
X114235546Y-32183736D02*
X114152213Y-32433736D01*
X114368880Y-32433736D01*
X114485546Y-32233736D02*
X114502213Y-32217070D01*
X114535546Y-32200403D01*
X114618880Y-32200403D01*
X114652213Y-32217070D01*
X114668880Y-32233736D01*
X114685546Y-32267070D01*
X114685546Y-32300403D01*
X114668880Y-32350403D01*
X114468880Y-32550403D01*
X114685546Y-32550403D01*
X114318880Y-32929570D02*
X114318880Y-33162903D01*
X114235546Y-32796236D02*
X114152213Y-33046236D01*
X114368880Y-33046236D01*
X114685546Y-33162903D02*
X114485546Y-33162903D01*
X114585546Y-33162903D02*
X114585546Y-32812903D01*
X114552213Y-32862903D01*
X114518880Y-32896236D01*
X114485546Y-32912903D01*
X114135546Y-33425403D02*
X114352213Y-33425403D01*
X114235546Y-33558736D01*
X114285546Y-33558736D01*
X114318880Y-33575403D01*
X114335546Y-33592070D01*
X114352213Y-33625403D01*
X114352213Y-33708736D01*
X114335546Y-33742070D01*
X114318880Y-33758736D01*
X114285546Y-33775403D01*
X114185546Y-33775403D01*
X114152213Y-33758736D01*
X114135546Y-33742070D01*
X114518880Y-33775403D02*
X114585546Y-33775403D01*
X114618880Y-33758736D01*
X114635546Y-33742070D01*
X114668880Y-33692070D01*
X114685546Y-33625403D01*
X114685546Y-33492070D01*
X114668880Y-33458736D01*
X114652213Y-33442070D01*
X114618880Y-33425403D01*
X114552213Y-33425403D01*
X114518880Y-33442070D01*
X114502213Y-33458736D01*
X114485546Y-33492070D01*
X114485546Y-33575403D01*
X114502213Y-33608736D01*
X114518880Y-33625403D01*
X114552213Y-33642070D01*
X114618880Y-33642070D01*
X114652213Y-33625403D01*
X114668880Y-33608736D01*
X114685546Y-33575403D01*
X114135546Y-34037903D02*
X114352213Y-34037903D01*
X114235546Y-34171236D01*
X114285546Y-34171236D01*
X114318880Y-34187903D01*
X114335546Y-34204570D01*
X114352213Y-34237903D01*
X114352213Y-34321236D01*
X114335546Y-34354570D01*
X114318880Y-34371236D01*
X114285546Y-34387903D01*
X114185546Y-34387903D01*
X114152213Y-34371236D01*
X114135546Y-34354570D01*
X114552213Y-34187903D02*
X114518880Y-34171236D01*
X114502213Y-34154570D01*
X114485546Y-34121236D01*
X114485546Y-34104570D01*
X114502213Y-34071236D01*
X114518880Y-34054570D01*
X114552213Y-34037903D01*
X114618880Y-34037903D01*
X114652213Y-34054570D01*
X114668880Y-34071236D01*
X114685546Y-34104570D01*
X114685546Y-34121236D01*
X114668880Y-34154570D01*
X114652213Y-34171236D01*
X114618880Y-34187903D01*
X114552213Y-34187903D01*
X114518880Y-34204570D01*
X114502213Y-34221236D01*
X114485546Y-34254570D01*
X114485546Y-34321236D01*
X114502213Y-34354570D01*
X114518880Y-34371236D01*
X114552213Y-34387903D01*
X114618880Y-34387903D01*
X114652213Y-34371236D01*
X114668880Y-34354570D01*
X114685546Y-34321236D01*
X114685546Y-34254570D01*
X114668880Y-34221236D01*
X114652213Y-34204570D01*
X114618880Y-34187903D01*
X114135546Y-34650403D02*
X114352213Y-34650403D01*
X114235546Y-34783736D01*
X114285546Y-34783736D01*
X114318880Y-34800403D01*
X114335546Y-34817070D01*
X114352213Y-34850403D01*
X114352213Y-34933736D01*
X114335546Y-34967070D01*
X114318880Y-34983736D01*
X114285546Y-35000403D01*
X114185546Y-35000403D01*
X114152213Y-34983736D01*
X114135546Y-34967070D01*
X114668880Y-34650403D02*
X114502213Y-34650403D01*
X114485546Y-34817070D01*
X114502213Y-34800403D01*
X114535546Y-34783736D01*
X114618880Y-34783736D01*
X114652213Y-34800403D01*
X114668880Y-34817070D01*
X114685546Y-34850403D01*
X114685546Y-34933736D01*
X114668880Y-34967070D01*
X114652213Y-34983736D01*
X114618880Y-35000403D01*
X114535546Y-35000403D01*
X114502213Y-34983736D01*
X114485546Y-34967070D01*
X114135546Y-35262903D02*
X114352213Y-35262903D01*
X114235546Y-35396236D01*
X114285546Y-35396236D01*
X114318880Y-35412903D01*
X114335546Y-35429570D01*
X114352213Y-35462903D01*
X114352213Y-35546236D01*
X114335546Y-35579570D01*
X114318880Y-35596236D01*
X114285546Y-35612903D01*
X114185546Y-35612903D01*
X114152213Y-35596236D01*
X114135546Y-35579570D01*
X114652213Y-35379570D02*
X114652213Y-35612903D01*
X114568880Y-35246236D02*
X114485546Y-35496236D01*
X114702213Y-35496236D01*
X114135546Y-35875403D02*
X114352213Y-35875403D01*
X114235546Y-36008736D01*
X114285546Y-36008736D01*
X114318880Y-36025403D01*
X114335546Y-36042070D01*
X114352213Y-36075403D01*
X114352213Y-36158736D01*
X114335546Y-36192070D01*
X114318880Y-36208736D01*
X114285546Y-36225403D01*
X114185546Y-36225403D01*
X114152213Y-36208736D01*
X114135546Y-36192070D01*
X114468880Y-35875403D02*
X114685546Y-35875403D01*
X114568880Y-36008736D01*
X114618880Y-36008736D01*
X114652213Y-36025403D01*
X114668880Y-36042070D01*
X114685546Y-36075403D01*
X114685546Y-36158736D01*
X114668880Y-36192070D01*
X114652213Y-36208736D01*
X114618880Y-36225403D01*
X114518880Y-36225403D01*
X114485546Y-36208736D01*
X114468880Y-36192070D01*
X114135546Y-36487903D02*
X114352213Y-36487903D01*
X114235546Y-36621236D01*
X114285546Y-36621236D01*
X114318880Y-36637903D01*
X114335546Y-36654570D01*
X114352213Y-36687903D01*
X114352213Y-36771236D01*
X114335546Y-36804570D01*
X114318880Y-36821236D01*
X114285546Y-36837903D01*
X114185546Y-36837903D01*
X114152213Y-36821236D01*
X114135546Y-36804570D01*
X114485546Y-36521236D02*
X114502213Y-36504570D01*
X114535546Y-36487903D01*
X114618880Y-36487903D01*
X114652213Y-36504570D01*
X114668880Y-36521236D01*
X114685546Y-36554570D01*
X114685546Y-36587903D01*
X114668880Y-36637903D01*
X114468880Y-36837903D01*
X114685546Y-36837903D01*
X114135546Y-37100403D02*
X114352213Y-37100403D01*
X114235546Y-37233736D01*
X114285546Y-37233736D01*
X114318880Y-37250403D01*
X114335546Y-37267070D01*
X114352213Y-37300403D01*
X114352213Y-37383736D01*
X114335546Y-37417070D01*
X114318880Y-37433736D01*
X114285546Y-37450403D01*
X114185546Y-37450403D01*
X114152213Y-37433736D01*
X114135546Y-37417070D01*
X114685546Y-37450403D02*
X114485546Y-37450403D01*
X114585546Y-37450403D02*
X114585546Y-37100403D01*
X114552213Y-37150403D01*
X114518880Y-37183736D01*
X114485546Y-37200403D01*
X114135546Y-37712903D02*
X114352213Y-37712903D01*
X114235546Y-37846236D01*
X114285546Y-37846236D01*
X114318880Y-37862903D01*
X114335546Y-37879570D01*
X114352213Y-37912903D01*
X114352213Y-37996236D01*
X114335546Y-38029570D01*
X114318880Y-38046236D01*
X114285546Y-38062903D01*
X114185546Y-38062903D01*
X114152213Y-38046236D01*
X114135546Y-38029570D01*
X114568880Y-37712903D02*
X114602213Y-37712903D01*
X114635546Y-37729570D01*
X114652213Y-37746236D01*
X114668880Y-37779570D01*
X114685546Y-37846236D01*
X114685546Y-37929570D01*
X114668880Y-37996236D01*
X114652213Y-38029570D01*
X114635546Y-38046236D01*
X114602213Y-38062903D01*
X114568880Y-38062903D01*
X114535546Y-38046236D01*
X114518880Y-38029570D01*
X114502213Y-37996236D01*
X114485546Y-37929570D01*
X114485546Y-37846236D01*
X114502213Y-37779570D01*
X114518880Y-37746236D01*
X114535546Y-37729570D01*
X114568880Y-37712903D01*
X114152213Y-38358736D02*
X114168880Y-38342070D01*
X114202213Y-38325403D01*
X114285546Y-38325403D01*
X114318880Y-38342070D01*
X114335546Y-38358736D01*
X114352213Y-38392070D01*
X114352213Y-38425403D01*
X114335546Y-38475403D01*
X114135546Y-38675403D01*
X114352213Y-38675403D01*
X114518880Y-38675403D02*
X114585546Y-38675403D01*
X114618880Y-38658736D01*
X114635546Y-38642070D01*
X114668880Y-38592070D01*
X114685546Y-38525403D01*
X114685546Y-38392070D01*
X114668880Y-38358736D01*
X114652213Y-38342070D01*
X114618880Y-38325403D01*
X114552213Y-38325403D01*
X114518880Y-38342070D01*
X114502213Y-38358736D01*
X114485546Y-38392070D01*
X114485546Y-38475403D01*
X114502213Y-38508736D01*
X114518880Y-38525403D01*
X114552213Y-38542070D01*
X114618880Y-38542070D01*
X114652213Y-38525403D01*
X114668880Y-38508736D01*
X114685546Y-38475403D01*
X114152213Y-38971236D02*
X114168880Y-38954570D01*
X114202213Y-38937903D01*
X114285546Y-38937903D01*
X114318880Y-38954570D01*
X114335546Y-38971236D01*
X114352213Y-39004570D01*
X114352213Y-39037903D01*
X114335546Y-39087903D01*
X114135546Y-39287903D01*
X114352213Y-39287903D01*
X114552213Y-39087903D02*
X114518880Y-39071236D01*
X114502213Y-39054570D01*
X114485546Y-39021236D01*
X114485546Y-39004570D01*
X114502213Y-38971236D01*
X114518880Y-38954570D01*
X114552213Y-38937903D01*
X114618880Y-38937903D01*
X114652213Y-38954570D01*
X114668880Y-38971236D01*
X114685546Y-39004570D01*
X114685546Y-39021236D01*
X114668880Y-39054570D01*
X114652213Y-39071236D01*
X114618880Y-39087903D01*
X114552213Y-39087903D01*
X114518880Y-39104570D01*
X114502213Y-39121236D01*
X114485546Y-39154570D01*
X114485546Y-39221236D01*
X114502213Y-39254570D01*
X114518880Y-39271236D01*
X114552213Y-39287903D01*
X114618880Y-39287903D01*
X114652213Y-39271236D01*
X114668880Y-39254570D01*
X114685546Y-39221236D01*
X114685546Y-39154570D01*
X114668880Y-39121236D01*
X114652213Y-39104570D01*
X114618880Y-39087903D01*
X114152213Y-39583736D02*
X114168880Y-39567070D01*
X114202213Y-39550403D01*
X114285546Y-39550403D01*
X114318880Y-39567070D01*
X114335546Y-39583736D01*
X114352213Y-39617070D01*
X114352213Y-39650403D01*
X114335546Y-39700403D01*
X114135546Y-39900403D01*
X114352213Y-39900403D01*
X114468880Y-39550403D02*
X114702213Y-39550403D01*
X114552213Y-39900403D01*
X114152213Y-40196236D02*
X114168880Y-40179570D01*
X114202213Y-40162903D01*
X114285546Y-40162903D01*
X114318880Y-40179570D01*
X114335546Y-40196236D01*
X114352213Y-40229570D01*
X114352213Y-40262903D01*
X114335546Y-40312903D01*
X114135546Y-40512903D01*
X114352213Y-40512903D01*
X114652213Y-40162903D02*
X114585546Y-40162903D01*
X114552213Y-40179570D01*
X114535546Y-40196236D01*
X114502213Y-40246236D01*
X114485546Y-40312903D01*
X114485546Y-40446236D01*
X114502213Y-40479570D01*
X114518880Y-40496236D01*
X114552213Y-40512903D01*
X114618880Y-40512903D01*
X114652213Y-40496236D01*
X114668880Y-40479570D01*
X114685546Y-40446236D01*
X114685546Y-40362903D01*
X114668880Y-40329570D01*
X114652213Y-40312903D01*
X114618880Y-40296236D01*
X114552213Y-40296236D01*
X114518880Y-40312903D01*
X114502213Y-40329570D01*
X114485546Y-40362903D01*
X114152213Y-40808736D02*
X114168880Y-40792070D01*
X114202213Y-40775403D01*
X114285546Y-40775403D01*
X114318880Y-40792070D01*
X114335546Y-40808736D01*
X114352213Y-40842070D01*
X114352213Y-40875403D01*
X114335546Y-40925403D01*
X114135546Y-41125403D01*
X114352213Y-41125403D01*
X114668880Y-40775403D02*
X114502213Y-40775403D01*
X114485546Y-40942070D01*
X114502213Y-40925403D01*
X114535546Y-40908736D01*
X114618880Y-40908736D01*
X114652213Y-40925403D01*
X114668880Y-40942070D01*
X114685546Y-40975403D01*
X114685546Y-41058736D01*
X114668880Y-41092070D01*
X114652213Y-41108736D01*
X114618880Y-41125403D01*
X114535546Y-41125403D01*
X114502213Y-41108736D01*
X114485546Y-41092070D01*
X114152213Y-41421236D02*
X114168880Y-41404570D01*
X114202213Y-41387903D01*
X114285546Y-41387903D01*
X114318880Y-41404570D01*
X114335546Y-41421236D01*
X114352213Y-41454570D01*
X114352213Y-41487903D01*
X114335546Y-41537903D01*
X114135546Y-41737903D01*
X114352213Y-41737903D01*
X114652213Y-41504570D02*
X114652213Y-41737903D01*
X114568880Y-41371236D02*
X114485546Y-41621236D01*
X114702213Y-41621236D01*
X114152213Y-42033736D02*
X114168880Y-42017070D01*
X114202213Y-42000403D01*
X114285546Y-42000403D01*
X114318880Y-42017070D01*
X114335546Y-42033736D01*
X114352213Y-42067070D01*
X114352213Y-42100403D01*
X114335546Y-42150403D01*
X114135546Y-42350403D01*
X114352213Y-42350403D01*
X114468880Y-42000403D02*
X114685546Y-42000403D01*
X114568880Y-42133736D01*
X114618880Y-42133736D01*
X114652213Y-42150403D01*
X114668880Y-42167070D01*
X114685546Y-42200403D01*
X114685546Y-42283736D01*
X114668880Y-42317070D01*
X114652213Y-42333736D01*
X114618880Y-42350403D01*
X114518880Y-42350403D01*
X114485546Y-42333736D01*
X114468880Y-42317070D01*
X132112960Y-30712903D02*
X131912960Y-30712903D01*
X132012960Y-30712903D02*
X132012960Y-30362903D01*
X131979626Y-30412903D01*
X131946293Y-30446236D01*
X131912960Y-30462903D01*
X131912960Y-31008736D02*
X131929626Y-30992070D01*
X131962960Y-30975403D01*
X132046293Y-30975403D01*
X132079626Y-30992070D01*
X132096293Y-31008736D01*
X132112960Y-31042070D01*
X132112960Y-31075403D01*
X132096293Y-31125403D01*
X131896293Y-31325403D01*
X132112960Y-31325403D01*
X131896293Y-31587903D02*
X132112960Y-31587903D01*
X131996293Y-31721236D01*
X132046293Y-31721236D01*
X132079626Y-31737903D01*
X132096293Y-31754570D01*
X132112960Y-31787903D01*
X132112960Y-31871236D01*
X132096293Y-31904570D01*
X132079626Y-31921236D01*
X132046293Y-31937903D01*
X131946293Y-31937903D01*
X131912960Y-31921236D01*
X131896293Y-31904570D01*
X132079626Y-32317070D02*
X132079626Y-32550403D01*
X131996293Y-32183736D02*
X131912960Y-32433736D01*
X132129626Y-32433736D01*
X132096293Y-32812903D02*
X131929626Y-32812903D01*
X131912960Y-32979570D01*
X131929626Y-32962903D01*
X131962960Y-32946236D01*
X132046293Y-32946236D01*
X132079626Y-32962903D01*
X132096293Y-32979570D01*
X132112960Y-33012903D01*
X132112960Y-33096236D01*
X132096293Y-33129570D01*
X132079626Y-33146236D01*
X132046293Y-33162903D01*
X131962960Y-33162903D01*
X131929626Y-33146236D01*
X131912960Y-33129570D01*
X132079626Y-33425403D02*
X132012960Y-33425403D01*
X131979626Y-33442070D01*
X131962960Y-33458736D01*
X131929626Y-33508736D01*
X131912960Y-33575403D01*
X131912960Y-33708736D01*
X131929626Y-33742070D01*
X131946293Y-33758736D01*
X131979626Y-33775403D01*
X132046293Y-33775403D01*
X132079626Y-33758736D01*
X132096293Y-33742070D01*
X132112960Y-33708736D01*
X132112960Y-33625403D01*
X132096293Y-33592070D01*
X132079626Y-33575403D01*
X132046293Y-33558736D01*
X131979626Y-33558736D01*
X131946293Y-33575403D01*
X131929626Y-33592070D01*
X131912960Y-33625403D01*
X131896293Y-34037903D02*
X132129626Y-34037903D01*
X131979626Y-34387903D01*
X131979626Y-34800403D02*
X131946293Y-34783736D01*
X131929626Y-34767070D01*
X131912960Y-34733736D01*
X131912960Y-34717070D01*
X131929626Y-34683736D01*
X131946293Y-34667070D01*
X131979626Y-34650403D01*
X132046293Y-34650403D01*
X132079626Y-34667070D01*
X132096293Y-34683736D01*
X132112960Y-34717070D01*
X132112960Y-34733736D01*
X132096293Y-34767070D01*
X132079626Y-34783736D01*
X132046293Y-34800403D01*
X131979626Y-34800403D01*
X131946293Y-34817070D01*
X131929626Y-34833736D01*
X131912960Y-34867070D01*
X131912960Y-34933736D01*
X131929626Y-34967070D01*
X131946293Y-34983736D01*
X131979626Y-35000403D01*
X132046293Y-35000403D01*
X132079626Y-34983736D01*
X132096293Y-34967070D01*
X132112960Y-34933736D01*
X132112960Y-34867070D01*
X132096293Y-34833736D01*
X132079626Y-34817070D01*
X132046293Y-34800403D01*
X131946293Y-35612903D02*
X132012960Y-35612903D01*
X132046293Y-35596236D01*
X132062960Y-35579570D01*
X132096293Y-35529570D01*
X132112960Y-35462903D01*
X132112960Y-35329570D01*
X132096293Y-35296236D01*
X132079626Y-35279570D01*
X132046293Y-35262903D01*
X131979626Y-35262903D01*
X131946293Y-35279570D01*
X131929626Y-35296236D01*
X131912960Y-35329570D01*
X131912960Y-35412903D01*
X131929626Y-35446236D01*
X131946293Y-35462903D01*
X131979626Y-35479570D01*
X132046293Y-35479570D01*
X132079626Y-35462903D01*
X132096293Y-35446236D01*
X132112960Y-35412903D01*
X131946293Y-36225403D02*
X131746293Y-36225403D01*
X131846293Y-36225403D02*
X131846293Y-35875403D01*
X131812960Y-35925403D01*
X131779626Y-35958736D01*
X131746293Y-35975403D01*
X132162960Y-35875403D02*
X132196293Y-35875403D01*
X132229626Y-35892070D01*
X132246293Y-35908736D01*
X132262960Y-35942070D01*
X132279626Y-36008736D01*
X132279626Y-36092070D01*
X132262960Y-36158736D01*
X132246293Y-36192070D01*
X132229626Y-36208736D01*
X132196293Y-36225403D01*
X132162960Y-36225403D01*
X132129626Y-36208736D01*
X132112960Y-36192070D01*
X132096293Y-36158736D01*
X132079626Y-36092070D01*
X132079626Y-36008736D01*
X132096293Y-35942070D01*
X132112960Y-35908736D01*
X132129626Y-35892070D01*
X132162960Y-35875403D01*
X131946293Y-36837903D02*
X131746293Y-36837903D01*
X131846293Y-36837903D02*
X131846293Y-36487903D01*
X131812960Y-36537903D01*
X131779626Y-36571236D01*
X131746293Y-36587903D01*
X132279626Y-36837903D02*
X132079626Y-36837903D01*
X132179626Y-36837903D02*
X132179626Y-36487903D01*
X132146293Y-36537903D01*
X132112960Y-36571236D01*
X132079626Y-36587903D01*
X131946293Y-37450403D02*
X131746293Y-37450403D01*
X131846293Y-37450403D02*
X131846293Y-37100403D01*
X131812960Y-37150403D01*
X131779626Y-37183736D01*
X131746293Y-37200403D01*
X132079626Y-37133736D02*
X132096293Y-37117070D01*
X132129626Y-37100403D01*
X132212960Y-37100403D01*
X132246293Y-37117070D01*
X132262960Y-37133736D01*
X132279626Y-37167070D01*
X132279626Y-37200403D01*
X132262960Y-37250403D01*
X132062960Y-37450403D01*
X132279626Y-37450403D01*
X131946293Y-38062903D02*
X131746293Y-38062903D01*
X131846293Y-38062903D02*
X131846293Y-37712903D01*
X131812960Y-37762903D01*
X131779626Y-37796236D01*
X131746293Y-37812903D01*
X132062960Y-37712903D02*
X132279626Y-37712903D01*
X132162960Y-37846236D01*
X132212960Y-37846236D01*
X132246293Y-37862903D01*
X132262960Y-37879570D01*
X132279626Y-37912903D01*
X132279626Y-37996236D01*
X132262960Y-38029570D01*
X132246293Y-38046236D01*
X132212960Y-38062903D01*
X132112960Y-38062903D01*
X132079626Y-38046236D01*
X132062960Y-38029570D01*
X131946293Y-38675403D02*
X131746293Y-38675403D01*
X131846293Y-38675403D02*
X131846293Y-38325403D01*
X131812960Y-38375403D01*
X131779626Y-38408736D01*
X131746293Y-38425403D01*
X132262960Y-38325403D02*
X132096293Y-38325403D01*
X132079626Y-38492070D01*
X132096293Y-38475403D01*
X132129626Y-38458736D01*
X132212960Y-38458736D01*
X132246293Y-38475403D01*
X132262960Y-38492070D01*
X132279626Y-38525403D01*
X132279626Y-38608736D01*
X132262960Y-38642070D01*
X132246293Y-38658736D01*
X132212960Y-38675403D01*
X132129626Y-38675403D01*
X132096293Y-38658736D01*
X132079626Y-38642070D01*
X131946293Y-39287903D02*
X131746293Y-39287903D01*
X131846293Y-39287903D02*
X131846293Y-38937903D01*
X131812960Y-38987903D01*
X131779626Y-39021236D01*
X131746293Y-39037903D01*
X132246293Y-38937903D02*
X132179626Y-38937903D01*
X132146293Y-38954570D01*
X132129626Y-38971236D01*
X132096293Y-39021236D01*
X132079626Y-39087903D01*
X132079626Y-39221236D01*
X132096293Y-39254570D01*
X132112960Y-39271236D01*
X132146293Y-39287903D01*
X132212960Y-39287903D01*
X132246293Y-39271236D01*
X132262960Y-39254570D01*
X132279626Y-39221236D01*
X132279626Y-39137903D01*
X132262960Y-39104570D01*
X132246293Y-39087903D01*
X132212960Y-39071236D01*
X132146293Y-39071236D01*
X132112960Y-39087903D01*
X132096293Y-39104570D01*
X132079626Y-39137903D01*
X131946293Y-39900403D02*
X131746293Y-39900403D01*
X131846293Y-39900403D02*
X131846293Y-39550403D01*
X131812960Y-39600403D01*
X131779626Y-39633736D01*
X131746293Y-39650403D01*
X132146293Y-39700403D02*
X132112960Y-39683736D01*
X132096293Y-39667070D01*
X132079626Y-39633736D01*
X132079626Y-39617070D01*
X132096293Y-39583736D01*
X132112960Y-39567070D01*
X132146293Y-39550403D01*
X132212960Y-39550403D01*
X132246293Y-39567070D01*
X132262960Y-39583736D01*
X132279626Y-39617070D01*
X132279626Y-39633736D01*
X132262960Y-39667070D01*
X132246293Y-39683736D01*
X132212960Y-39700403D01*
X132146293Y-39700403D01*
X132112960Y-39717070D01*
X132096293Y-39733736D01*
X132079626Y-39767070D01*
X132079626Y-39833736D01*
X132096293Y-39867070D01*
X132112960Y-39883736D01*
X132146293Y-39900403D01*
X132212960Y-39900403D01*
X132246293Y-39883736D01*
X132262960Y-39867070D01*
X132279626Y-39833736D01*
X132279626Y-39767070D01*
X132262960Y-39733736D01*
X132246293Y-39717070D01*
X132212960Y-39700403D01*
X131946293Y-40512903D02*
X131746293Y-40512903D01*
X131846293Y-40512903D02*
X131846293Y-40162903D01*
X131812960Y-40212903D01*
X131779626Y-40246236D01*
X131746293Y-40262903D01*
X132112960Y-40512903D02*
X132179626Y-40512903D01*
X132212960Y-40496236D01*
X132229626Y-40479570D01*
X132262960Y-40429570D01*
X132279626Y-40362903D01*
X132279626Y-40229570D01*
X132262960Y-40196236D01*
X132246293Y-40179570D01*
X132212960Y-40162903D01*
X132146293Y-40162903D01*
X132112960Y-40179570D01*
X132096293Y-40196236D01*
X132079626Y-40229570D01*
X132079626Y-40312903D01*
X132096293Y-40346236D01*
X132112960Y-40362903D01*
X132146293Y-40379570D01*
X132212960Y-40379570D01*
X132246293Y-40362903D01*
X132262960Y-40346236D01*
X132279626Y-40312903D01*
X131746293Y-40808736D02*
X131762960Y-40792070D01*
X131796293Y-40775403D01*
X131879626Y-40775403D01*
X131912960Y-40792070D01*
X131929626Y-40808736D01*
X131946293Y-40842070D01*
X131946293Y-40875403D01*
X131929626Y-40925403D01*
X131729626Y-41125403D01*
X131946293Y-41125403D01*
X132162960Y-40775403D02*
X132196293Y-40775403D01*
X132229626Y-40792070D01*
X132246293Y-40808736D01*
X132262960Y-40842070D01*
X132279626Y-40908736D01*
X132279626Y-40992070D01*
X132262960Y-41058736D01*
X132246293Y-41092070D01*
X132229626Y-41108736D01*
X132196293Y-41125403D01*
X132162960Y-41125403D01*
X132129626Y-41108736D01*
X132112960Y-41092070D01*
X132096293Y-41058736D01*
X132079626Y-40992070D01*
X132079626Y-40908736D01*
X132096293Y-40842070D01*
X132112960Y-40808736D01*
X132129626Y-40792070D01*
X132162960Y-40775403D01*
X131746293Y-41421236D02*
X131762960Y-41404570D01*
X131796293Y-41387903D01*
X131879626Y-41387903D01*
X131912960Y-41404570D01*
X131929626Y-41421236D01*
X131946293Y-41454570D01*
X131946293Y-41487903D01*
X131929626Y-41537903D01*
X131729626Y-41737903D01*
X131946293Y-41737903D01*
X132279626Y-41737903D02*
X132079626Y-41737903D01*
X132179626Y-41737903D02*
X132179626Y-41387903D01*
X132146293Y-41437903D01*
X132112960Y-41471236D01*
X132079626Y-41487903D01*
X131746293Y-42033736D02*
X131762960Y-42017070D01*
X131796293Y-42000403D01*
X131879626Y-42000403D01*
X131912960Y-42017070D01*
X131929626Y-42033736D01*
X131946293Y-42067070D01*
X131946293Y-42100403D01*
X131929626Y-42150403D01*
X131729626Y-42350403D01*
X131946293Y-42350403D01*
X132079626Y-42033736D02*
X132096293Y-42017070D01*
X132129626Y-42000403D01*
X132212960Y-42000403D01*
X132246293Y-42017070D01*
X132262960Y-42033736D01*
X132279626Y-42067070D01*
X132279626Y-42100403D01*
X132262960Y-42150403D01*
X132062960Y-42350403D01*
X132279626Y-42350403D01*
X102712960Y-30712903D02*
X102512960Y-30712903D01*
X102612960Y-30712903D02*
X102612960Y-30362903D01*
X102579626Y-30412903D01*
X102546293Y-30446236D01*
X102512960Y-30462903D01*
X102512960Y-31008736D02*
X102529626Y-30992070D01*
X102562960Y-30975403D01*
X102646293Y-30975403D01*
X102679626Y-30992070D01*
X102696293Y-31008736D01*
X102712960Y-31042070D01*
X102712960Y-31075403D01*
X102696293Y-31125403D01*
X102496293Y-31325403D01*
X102712960Y-31325403D01*
X102496293Y-31587903D02*
X102712960Y-31587903D01*
X102596293Y-31721236D01*
X102646293Y-31721236D01*
X102679626Y-31737903D01*
X102696293Y-31754570D01*
X102712960Y-31787903D01*
X102712960Y-31871236D01*
X102696293Y-31904570D01*
X102679626Y-31921236D01*
X102646293Y-31937903D01*
X102546293Y-31937903D01*
X102512960Y-31921236D01*
X102496293Y-31904570D01*
X102679626Y-32317070D02*
X102679626Y-32550403D01*
X102596293Y-32183736D02*
X102512960Y-32433736D01*
X102729626Y-32433736D01*
X102696293Y-32812903D02*
X102529626Y-32812903D01*
X102512960Y-32979570D01*
X102529626Y-32962903D01*
X102562960Y-32946236D01*
X102646293Y-32946236D01*
X102679626Y-32962903D01*
X102696293Y-32979570D01*
X102712960Y-33012903D01*
X102712960Y-33096236D01*
X102696293Y-33129570D01*
X102679626Y-33146236D01*
X102646293Y-33162903D01*
X102562960Y-33162903D01*
X102529626Y-33146236D01*
X102512960Y-33129570D01*
X102679626Y-33425403D02*
X102612960Y-33425403D01*
X102579626Y-33442070D01*
X102562960Y-33458736D01*
X102529626Y-33508736D01*
X102512960Y-33575403D01*
X102512960Y-33708736D01*
X102529626Y-33742070D01*
X102546293Y-33758736D01*
X102579626Y-33775403D01*
X102646293Y-33775403D01*
X102679626Y-33758736D01*
X102696293Y-33742070D01*
X102712960Y-33708736D01*
X102712960Y-33625403D01*
X102696293Y-33592070D01*
X102679626Y-33575403D01*
X102646293Y-33558736D01*
X102579626Y-33558736D01*
X102546293Y-33575403D01*
X102529626Y-33592070D01*
X102512960Y-33625403D01*
X102496293Y-34037903D02*
X102729626Y-34037903D01*
X102579626Y-34387903D01*
X102579626Y-34800403D02*
X102546293Y-34783736D01*
X102529626Y-34767070D01*
X102512960Y-34733736D01*
X102512960Y-34717070D01*
X102529626Y-34683736D01*
X102546293Y-34667070D01*
X102579626Y-34650403D01*
X102646293Y-34650403D01*
X102679626Y-34667070D01*
X102696293Y-34683736D01*
X102712960Y-34717070D01*
X102712960Y-34733736D01*
X102696293Y-34767070D01*
X102679626Y-34783736D01*
X102646293Y-34800403D01*
X102579626Y-34800403D01*
X102546293Y-34817070D01*
X102529626Y-34833736D01*
X102512960Y-34867070D01*
X102512960Y-34933736D01*
X102529626Y-34967070D01*
X102546293Y-34983736D01*
X102579626Y-35000403D01*
X102646293Y-35000403D01*
X102679626Y-34983736D01*
X102696293Y-34967070D01*
X102712960Y-34933736D01*
X102712960Y-34867070D01*
X102696293Y-34833736D01*
X102679626Y-34817070D01*
X102646293Y-34800403D01*
X102546293Y-35612903D02*
X102612960Y-35612903D01*
X102646293Y-35596236D01*
X102662960Y-35579570D01*
X102696293Y-35529570D01*
X102712960Y-35462903D01*
X102712960Y-35329570D01*
X102696293Y-35296236D01*
X102679626Y-35279570D01*
X102646293Y-35262903D01*
X102579626Y-35262903D01*
X102546293Y-35279570D01*
X102529626Y-35296236D01*
X102512960Y-35329570D01*
X102512960Y-35412903D01*
X102529626Y-35446236D01*
X102546293Y-35462903D01*
X102579626Y-35479570D01*
X102646293Y-35479570D01*
X102679626Y-35462903D01*
X102696293Y-35446236D01*
X102712960Y-35412903D01*
X102546293Y-36225403D02*
X102346293Y-36225403D01*
X102446293Y-36225403D02*
X102446293Y-35875403D01*
X102412960Y-35925403D01*
X102379626Y-35958736D01*
X102346293Y-35975403D01*
X102762960Y-35875403D02*
X102796293Y-35875403D01*
X102829626Y-35892070D01*
X102846293Y-35908736D01*
X102862960Y-35942070D01*
X102879626Y-36008736D01*
X102879626Y-36092070D01*
X102862960Y-36158736D01*
X102846293Y-36192070D01*
X102829626Y-36208736D01*
X102796293Y-36225403D01*
X102762960Y-36225403D01*
X102729626Y-36208736D01*
X102712960Y-36192070D01*
X102696293Y-36158736D01*
X102679626Y-36092070D01*
X102679626Y-36008736D01*
X102696293Y-35942070D01*
X102712960Y-35908736D01*
X102729626Y-35892070D01*
X102762960Y-35875403D01*
X102546293Y-36837903D02*
X102346293Y-36837903D01*
X102446293Y-36837903D02*
X102446293Y-36487903D01*
X102412960Y-36537903D01*
X102379626Y-36571236D01*
X102346293Y-36587903D01*
X102879626Y-36837903D02*
X102679626Y-36837903D01*
X102779626Y-36837903D02*
X102779626Y-36487903D01*
X102746293Y-36537903D01*
X102712960Y-36571236D01*
X102679626Y-36587903D01*
X102546293Y-37450403D02*
X102346293Y-37450403D01*
X102446293Y-37450403D02*
X102446293Y-37100403D01*
X102412960Y-37150403D01*
X102379626Y-37183736D01*
X102346293Y-37200403D01*
X102679626Y-37133736D02*
X102696293Y-37117070D01*
X102729626Y-37100403D01*
X102812960Y-37100403D01*
X102846293Y-37117070D01*
X102862960Y-37133736D01*
X102879626Y-37167070D01*
X102879626Y-37200403D01*
X102862960Y-37250403D01*
X102662960Y-37450403D01*
X102879626Y-37450403D01*
X102546293Y-38062903D02*
X102346293Y-38062903D01*
X102446293Y-38062903D02*
X102446293Y-37712903D01*
X102412960Y-37762903D01*
X102379626Y-37796236D01*
X102346293Y-37812903D01*
X102662960Y-37712903D02*
X102879626Y-37712903D01*
X102762960Y-37846236D01*
X102812960Y-37846236D01*
X102846293Y-37862903D01*
X102862960Y-37879570D01*
X102879626Y-37912903D01*
X102879626Y-37996236D01*
X102862960Y-38029570D01*
X102846293Y-38046236D01*
X102812960Y-38062903D01*
X102712960Y-38062903D01*
X102679626Y-38046236D01*
X102662960Y-38029570D01*
X102546293Y-38675403D02*
X102346293Y-38675403D01*
X102446293Y-38675403D02*
X102446293Y-38325403D01*
X102412960Y-38375403D01*
X102379626Y-38408736D01*
X102346293Y-38425403D01*
X102862960Y-38325403D02*
X102696293Y-38325403D01*
X102679626Y-38492070D01*
X102696293Y-38475403D01*
X102729626Y-38458736D01*
X102812960Y-38458736D01*
X102846293Y-38475403D01*
X102862960Y-38492070D01*
X102879626Y-38525403D01*
X102879626Y-38608736D01*
X102862960Y-38642070D01*
X102846293Y-38658736D01*
X102812960Y-38675403D01*
X102729626Y-38675403D01*
X102696293Y-38658736D01*
X102679626Y-38642070D01*
X102546293Y-39287903D02*
X102346293Y-39287903D01*
X102446293Y-39287903D02*
X102446293Y-38937903D01*
X102412960Y-38987903D01*
X102379626Y-39021236D01*
X102346293Y-39037903D01*
X102846293Y-38937903D02*
X102779626Y-38937903D01*
X102746293Y-38954570D01*
X102729626Y-38971236D01*
X102696293Y-39021236D01*
X102679626Y-39087903D01*
X102679626Y-39221236D01*
X102696293Y-39254570D01*
X102712960Y-39271236D01*
X102746293Y-39287903D01*
X102812960Y-39287903D01*
X102846293Y-39271236D01*
X102862960Y-39254570D01*
X102879626Y-39221236D01*
X102879626Y-39137903D01*
X102862960Y-39104570D01*
X102846293Y-39087903D01*
X102812960Y-39071236D01*
X102746293Y-39071236D01*
X102712960Y-39087903D01*
X102696293Y-39104570D01*
X102679626Y-39137903D01*
X102546293Y-39900403D02*
X102346293Y-39900403D01*
X102446293Y-39900403D02*
X102446293Y-39550403D01*
X102412960Y-39600403D01*
X102379626Y-39633736D01*
X102346293Y-39650403D01*
X102746293Y-39700403D02*
X102712960Y-39683736D01*
X102696293Y-39667070D01*
X102679626Y-39633736D01*
X102679626Y-39617070D01*
X102696293Y-39583736D01*
X102712960Y-39567070D01*
X102746293Y-39550403D01*
X102812960Y-39550403D01*
X102846293Y-39567070D01*
X102862960Y-39583736D01*
X102879626Y-39617070D01*
X102879626Y-39633736D01*
X102862960Y-39667070D01*
X102846293Y-39683736D01*
X102812960Y-39700403D01*
X102746293Y-39700403D01*
X102712960Y-39717070D01*
X102696293Y-39733736D01*
X102679626Y-39767070D01*
X102679626Y-39833736D01*
X102696293Y-39867070D01*
X102712960Y-39883736D01*
X102746293Y-39900403D01*
X102812960Y-39900403D01*
X102846293Y-39883736D01*
X102862960Y-39867070D01*
X102879626Y-39833736D01*
X102879626Y-39767070D01*
X102862960Y-39733736D01*
X102846293Y-39717070D01*
X102812960Y-39700403D01*
X102546293Y-40512903D02*
X102346293Y-40512903D01*
X102446293Y-40512903D02*
X102446293Y-40162903D01*
X102412960Y-40212903D01*
X102379626Y-40246236D01*
X102346293Y-40262903D01*
X102712960Y-40512903D02*
X102779626Y-40512903D01*
X102812960Y-40496236D01*
X102829626Y-40479570D01*
X102862960Y-40429570D01*
X102879626Y-40362903D01*
X102879626Y-40229570D01*
X102862960Y-40196236D01*
X102846293Y-40179570D01*
X102812960Y-40162903D01*
X102746293Y-40162903D01*
X102712960Y-40179570D01*
X102696293Y-40196236D01*
X102679626Y-40229570D01*
X102679626Y-40312903D01*
X102696293Y-40346236D01*
X102712960Y-40362903D01*
X102746293Y-40379570D01*
X102812960Y-40379570D01*
X102846293Y-40362903D01*
X102862960Y-40346236D01*
X102879626Y-40312903D01*
X102346293Y-40808736D02*
X102362960Y-40792070D01*
X102396293Y-40775403D01*
X102479626Y-40775403D01*
X102512960Y-40792070D01*
X102529626Y-40808736D01*
X102546293Y-40842070D01*
X102546293Y-40875403D01*
X102529626Y-40925403D01*
X102329626Y-41125403D01*
X102546293Y-41125403D01*
X102762960Y-40775403D02*
X102796293Y-40775403D01*
X102829626Y-40792070D01*
X102846293Y-40808736D01*
X102862960Y-40842070D01*
X102879626Y-40908736D01*
X102879626Y-40992070D01*
X102862960Y-41058736D01*
X102846293Y-41092070D01*
X102829626Y-41108736D01*
X102796293Y-41125403D01*
X102762960Y-41125403D01*
X102729626Y-41108736D01*
X102712960Y-41092070D01*
X102696293Y-41058736D01*
X102679626Y-40992070D01*
X102679626Y-40908736D01*
X102696293Y-40842070D01*
X102712960Y-40808736D01*
X102729626Y-40792070D01*
X102762960Y-40775403D01*
X102346293Y-41421236D02*
X102362960Y-41404570D01*
X102396293Y-41387903D01*
X102479626Y-41387903D01*
X102512960Y-41404570D01*
X102529626Y-41421236D01*
X102546293Y-41454570D01*
X102546293Y-41487903D01*
X102529626Y-41537903D01*
X102329626Y-41737903D01*
X102546293Y-41737903D01*
X102879626Y-41737903D02*
X102679626Y-41737903D01*
X102779626Y-41737903D02*
X102779626Y-41387903D01*
X102746293Y-41437903D01*
X102712960Y-41471236D01*
X102679626Y-41487903D01*
X102346293Y-42033736D02*
X102362960Y-42017070D01*
X102396293Y-42000403D01*
X102479626Y-42000403D01*
X102512960Y-42017070D01*
X102529626Y-42033736D01*
X102546293Y-42067070D01*
X102546293Y-42100403D01*
X102529626Y-42150403D01*
X102329626Y-42350403D01*
X102546293Y-42350403D01*
X102679626Y-42033736D02*
X102696293Y-42017070D01*
X102729626Y-42000403D01*
X102812960Y-42000403D01*
X102846293Y-42017070D01*
X102862960Y-42033736D01*
X102879626Y-42067070D01*
X102879626Y-42100403D01*
X102862960Y-42150403D01*
X102662960Y-42350403D01*
X102879626Y-42350403D01*
X84918880Y-30479570D02*
X84918880Y-30712903D01*
X84835546Y-30346236D02*
X84752213Y-30596236D01*
X84968880Y-30596236D01*
X85252213Y-30362903D02*
X85185546Y-30362903D01*
X85152213Y-30379570D01*
X85135546Y-30396236D01*
X85102213Y-30446236D01*
X85085546Y-30512903D01*
X85085546Y-30646236D01*
X85102213Y-30679570D01*
X85118880Y-30696236D01*
X85152213Y-30712903D01*
X85218880Y-30712903D01*
X85252213Y-30696236D01*
X85268880Y-30679570D01*
X85285546Y-30646236D01*
X85285546Y-30562903D01*
X85268880Y-30529570D01*
X85252213Y-30512903D01*
X85218880Y-30496236D01*
X85152213Y-30496236D01*
X85118880Y-30512903D01*
X85102213Y-30529570D01*
X85085546Y-30562903D01*
X84918880Y-31092070D02*
X84918880Y-31325403D01*
X84835546Y-30958736D02*
X84752213Y-31208736D01*
X84968880Y-31208736D01*
X85268880Y-30975403D02*
X85102213Y-30975403D01*
X85085546Y-31142070D01*
X85102213Y-31125403D01*
X85135546Y-31108736D01*
X85218880Y-31108736D01*
X85252213Y-31125403D01*
X85268880Y-31142070D01*
X85285546Y-31175403D01*
X85285546Y-31258736D01*
X85268880Y-31292070D01*
X85252213Y-31308736D01*
X85218880Y-31325403D01*
X85135546Y-31325403D01*
X85102213Y-31308736D01*
X85085546Y-31292070D01*
X84918880Y-31704570D02*
X84918880Y-31937903D01*
X84835546Y-31571236D02*
X84752213Y-31821236D01*
X84968880Y-31821236D01*
X85068880Y-31587903D02*
X85285546Y-31587903D01*
X85168880Y-31721236D01*
X85218880Y-31721236D01*
X85252213Y-31737903D01*
X85268880Y-31754570D01*
X85285546Y-31787903D01*
X85285546Y-31871236D01*
X85268880Y-31904570D01*
X85252213Y-31921236D01*
X85218880Y-31937903D01*
X85118880Y-31937903D01*
X85085546Y-31921236D01*
X85068880Y-31904570D01*
X84918880Y-32317070D02*
X84918880Y-32550403D01*
X84835546Y-32183736D02*
X84752213Y-32433736D01*
X84968880Y-32433736D01*
X85085546Y-32233736D02*
X85102213Y-32217070D01*
X85135546Y-32200403D01*
X85218880Y-32200403D01*
X85252213Y-32217070D01*
X85268880Y-32233736D01*
X85285546Y-32267070D01*
X85285546Y-32300403D01*
X85268880Y-32350403D01*
X85068880Y-32550403D01*
X85285546Y-32550403D01*
X84918880Y-32929570D02*
X84918880Y-33162903D01*
X84835546Y-32796236D02*
X84752213Y-33046236D01*
X84968880Y-33046236D01*
X85285546Y-33162903D02*
X85085546Y-33162903D01*
X85185546Y-33162903D02*
X85185546Y-32812903D01*
X85152213Y-32862903D01*
X85118880Y-32896236D01*
X85085546Y-32912903D01*
X84735546Y-33425403D02*
X84952213Y-33425403D01*
X84835546Y-33558736D01*
X84885546Y-33558736D01*
X84918880Y-33575403D01*
X84935546Y-33592070D01*
X84952213Y-33625403D01*
X84952213Y-33708736D01*
X84935546Y-33742070D01*
X84918880Y-33758736D01*
X84885546Y-33775403D01*
X84785546Y-33775403D01*
X84752213Y-33758736D01*
X84735546Y-33742070D01*
X85118880Y-33775403D02*
X85185546Y-33775403D01*
X85218880Y-33758736D01*
X85235546Y-33742070D01*
X85268880Y-33692070D01*
X85285546Y-33625403D01*
X85285546Y-33492070D01*
X85268880Y-33458736D01*
X85252213Y-33442070D01*
X85218880Y-33425403D01*
X85152213Y-33425403D01*
X85118880Y-33442070D01*
X85102213Y-33458736D01*
X85085546Y-33492070D01*
X85085546Y-33575403D01*
X85102213Y-33608736D01*
X85118880Y-33625403D01*
X85152213Y-33642070D01*
X85218880Y-33642070D01*
X85252213Y-33625403D01*
X85268880Y-33608736D01*
X85285546Y-33575403D01*
X84735546Y-34037903D02*
X84952213Y-34037903D01*
X84835546Y-34171236D01*
X84885546Y-34171236D01*
X84918880Y-34187903D01*
X84935546Y-34204570D01*
X84952213Y-34237903D01*
X84952213Y-34321236D01*
X84935546Y-34354570D01*
X84918880Y-34371236D01*
X84885546Y-34387903D01*
X84785546Y-34387903D01*
X84752213Y-34371236D01*
X84735546Y-34354570D01*
X85152213Y-34187903D02*
X85118880Y-34171236D01*
X85102213Y-34154570D01*
X85085546Y-34121236D01*
X85085546Y-34104570D01*
X85102213Y-34071236D01*
X85118880Y-34054570D01*
X85152213Y-34037903D01*
X85218880Y-34037903D01*
X85252213Y-34054570D01*
X85268880Y-34071236D01*
X85285546Y-34104570D01*
X85285546Y-34121236D01*
X85268880Y-34154570D01*
X85252213Y-34171236D01*
X85218880Y-34187903D01*
X85152213Y-34187903D01*
X85118880Y-34204570D01*
X85102213Y-34221236D01*
X85085546Y-34254570D01*
X85085546Y-34321236D01*
X85102213Y-34354570D01*
X85118880Y-34371236D01*
X85152213Y-34387903D01*
X85218880Y-34387903D01*
X85252213Y-34371236D01*
X85268880Y-34354570D01*
X85285546Y-34321236D01*
X85285546Y-34254570D01*
X85268880Y-34221236D01*
X85252213Y-34204570D01*
X85218880Y-34187903D01*
X84735546Y-34650403D02*
X84952213Y-34650403D01*
X84835546Y-34783736D01*
X84885546Y-34783736D01*
X84918880Y-34800403D01*
X84935546Y-34817070D01*
X84952213Y-34850403D01*
X84952213Y-34933736D01*
X84935546Y-34967070D01*
X84918880Y-34983736D01*
X84885546Y-35000403D01*
X84785546Y-35000403D01*
X84752213Y-34983736D01*
X84735546Y-34967070D01*
X85268880Y-34650403D02*
X85102213Y-34650403D01*
X85085546Y-34817070D01*
X85102213Y-34800403D01*
X85135546Y-34783736D01*
X85218880Y-34783736D01*
X85252213Y-34800403D01*
X85268880Y-34817070D01*
X85285546Y-34850403D01*
X85285546Y-34933736D01*
X85268880Y-34967070D01*
X85252213Y-34983736D01*
X85218880Y-35000403D01*
X85135546Y-35000403D01*
X85102213Y-34983736D01*
X85085546Y-34967070D01*
X84735546Y-35262903D02*
X84952213Y-35262903D01*
X84835546Y-35396236D01*
X84885546Y-35396236D01*
X84918880Y-35412903D01*
X84935546Y-35429570D01*
X84952213Y-35462903D01*
X84952213Y-35546236D01*
X84935546Y-35579570D01*
X84918880Y-35596236D01*
X84885546Y-35612903D01*
X84785546Y-35612903D01*
X84752213Y-35596236D01*
X84735546Y-35579570D01*
X85252213Y-35379570D02*
X85252213Y-35612903D01*
X85168880Y-35246236D02*
X85085546Y-35496236D01*
X85302213Y-35496236D01*
X84735546Y-35875403D02*
X84952213Y-35875403D01*
X84835546Y-36008736D01*
X84885546Y-36008736D01*
X84918880Y-36025403D01*
X84935546Y-36042070D01*
X84952213Y-36075403D01*
X84952213Y-36158736D01*
X84935546Y-36192070D01*
X84918880Y-36208736D01*
X84885546Y-36225403D01*
X84785546Y-36225403D01*
X84752213Y-36208736D01*
X84735546Y-36192070D01*
X85068880Y-35875403D02*
X85285546Y-35875403D01*
X85168880Y-36008736D01*
X85218880Y-36008736D01*
X85252213Y-36025403D01*
X85268880Y-36042070D01*
X85285546Y-36075403D01*
X85285546Y-36158736D01*
X85268880Y-36192070D01*
X85252213Y-36208736D01*
X85218880Y-36225403D01*
X85118880Y-36225403D01*
X85085546Y-36208736D01*
X85068880Y-36192070D01*
X84735546Y-36487903D02*
X84952213Y-36487903D01*
X84835546Y-36621236D01*
X84885546Y-36621236D01*
X84918880Y-36637903D01*
X84935546Y-36654570D01*
X84952213Y-36687903D01*
X84952213Y-36771236D01*
X84935546Y-36804570D01*
X84918880Y-36821236D01*
X84885546Y-36837903D01*
X84785546Y-36837903D01*
X84752213Y-36821236D01*
X84735546Y-36804570D01*
X85085546Y-36521236D02*
X85102213Y-36504570D01*
X85135546Y-36487903D01*
X85218880Y-36487903D01*
X85252213Y-36504570D01*
X85268880Y-36521236D01*
X85285546Y-36554570D01*
X85285546Y-36587903D01*
X85268880Y-36637903D01*
X85068880Y-36837903D01*
X85285546Y-36837903D01*
X84735546Y-37100403D02*
X84952213Y-37100403D01*
X84835546Y-37233736D01*
X84885546Y-37233736D01*
X84918880Y-37250403D01*
X84935546Y-37267070D01*
X84952213Y-37300403D01*
X84952213Y-37383736D01*
X84935546Y-37417070D01*
X84918880Y-37433736D01*
X84885546Y-37450403D01*
X84785546Y-37450403D01*
X84752213Y-37433736D01*
X84735546Y-37417070D01*
X85285546Y-37450403D02*
X85085546Y-37450403D01*
X85185546Y-37450403D02*
X85185546Y-37100403D01*
X85152213Y-37150403D01*
X85118880Y-37183736D01*
X85085546Y-37200403D01*
X84735546Y-37712903D02*
X84952213Y-37712903D01*
X84835546Y-37846236D01*
X84885546Y-37846236D01*
X84918880Y-37862903D01*
X84935546Y-37879570D01*
X84952213Y-37912903D01*
X84952213Y-37996236D01*
X84935546Y-38029570D01*
X84918880Y-38046236D01*
X84885546Y-38062903D01*
X84785546Y-38062903D01*
X84752213Y-38046236D01*
X84735546Y-38029570D01*
X85168880Y-37712903D02*
X85202213Y-37712903D01*
X85235546Y-37729570D01*
X85252213Y-37746236D01*
X85268880Y-37779570D01*
X85285546Y-37846236D01*
X85285546Y-37929570D01*
X85268880Y-37996236D01*
X85252213Y-38029570D01*
X85235546Y-38046236D01*
X85202213Y-38062903D01*
X85168880Y-38062903D01*
X85135546Y-38046236D01*
X85118880Y-38029570D01*
X85102213Y-37996236D01*
X85085546Y-37929570D01*
X85085546Y-37846236D01*
X85102213Y-37779570D01*
X85118880Y-37746236D01*
X85135546Y-37729570D01*
X85168880Y-37712903D01*
X84752213Y-38358736D02*
X84768880Y-38342070D01*
X84802213Y-38325403D01*
X84885546Y-38325403D01*
X84918880Y-38342070D01*
X84935546Y-38358736D01*
X84952213Y-38392070D01*
X84952213Y-38425403D01*
X84935546Y-38475403D01*
X84735546Y-38675403D01*
X84952213Y-38675403D01*
X85118880Y-38675403D02*
X85185546Y-38675403D01*
X85218880Y-38658736D01*
X85235546Y-38642070D01*
X85268880Y-38592070D01*
X85285546Y-38525403D01*
X85285546Y-38392070D01*
X85268880Y-38358736D01*
X85252213Y-38342070D01*
X85218880Y-38325403D01*
X85152213Y-38325403D01*
X85118880Y-38342070D01*
X85102213Y-38358736D01*
X85085546Y-38392070D01*
X85085546Y-38475403D01*
X85102213Y-38508736D01*
X85118880Y-38525403D01*
X85152213Y-38542070D01*
X85218880Y-38542070D01*
X85252213Y-38525403D01*
X85268880Y-38508736D01*
X85285546Y-38475403D01*
X84752213Y-38971236D02*
X84768880Y-38954570D01*
X84802213Y-38937903D01*
X84885546Y-38937903D01*
X84918880Y-38954570D01*
X84935546Y-38971236D01*
X84952213Y-39004570D01*
X84952213Y-39037903D01*
X84935546Y-39087903D01*
X84735546Y-39287903D01*
X84952213Y-39287903D01*
X85152213Y-39087903D02*
X85118880Y-39071236D01*
X85102213Y-39054570D01*
X85085546Y-39021236D01*
X85085546Y-39004570D01*
X85102213Y-38971236D01*
X85118880Y-38954570D01*
X85152213Y-38937903D01*
X85218880Y-38937903D01*
X85252213Y-38954570D01*
X85268880Y-38971236D01*
X85285546Y-39004570D01*
X85285546Y-39021236D01*
X85268880Y-39054570D01*
X85252213Y-39071236D01*
X85218880Y-39087903D01*
X85152213Y-39087903D01*
X85118880Y-39104570D01*
X85102213Y-39121236D01*
X85085546Y-39154570D01*
X85085546Y-39221236D01*
X85102213Y-39254570D01*
X85118880Y-39271236D01*
X85152213Y-39287903D01*
X85218880Y-39287903D01*
X85252213Y-39271236D01*
X85268880Y-39254570D01*
X85285546Y-39221236D01*
X85285546Y-39154570D01*
X85268880Y-39121236D01*
X85252213Y-39104570D01*
X85218880Y-39087903D01*
X84752213Y-39583736D02*
X84768880Y-39567070D01*
X84802213Y-39550403D01*
X84885546Y-39550403D01*
X84918880Y-39567070D01*
X84935546Y-39583736D01*
X84952213Y-39617070D01*
X84952213Y-39650403D01*
X84935546Y-39700403D01*
X84735546Y-39900403D01*
X84952213Y-39900403D01*
X85068880Y-39550403D02*
X85302213Y-39550403D01*
X85152213Y-39900403D01*
X84752213Y-40196236D02*
X84768880Y-40179570D01*
X84802213Y-40162903D01*
X84885546Y-40162903D01*
X84918880Y-40179570D01*
X84935546Y-40196236D01*
X84952213Y-40229570D01*
X84952213Y-40262903D01*
X84935546Y-40312903D01*
X84735546Y-40512903D01*
X84952213Y-40512903D01*
X85252213Y-40162903D02*
X85185546Y-40162903D01*
X85152213Y-40179570D01*
X85135546Y-40196236D01*
X85102213Y-40246236D01*
X85085546Y-40312903D01*
X85085546Y-40446236D01*
X85102213Y-40479570D01*
X85118880Y-40496236D01*
X85152213Y-40512903D01*
X85218880Y-40512903D01*
X85252213Y-40496236D01*
X85268880Y-40479570D01*
X85285546Y-40446236D01*
X85285546Y-40362903D01*
X85268880Y-40329570D01*
X85252213Y-40312903D01*
X85218880Y-40296236D01*
X85152213Y-40296236D01*
X85118880Y-40312903D01*
X85102213Y-40329570D01*
X85085546Y-40362903D01*
X84752213Y-40808736D02*
X84768880Y-40792070D01*
X84802213Y-40775403D01*
X84885546Y-40775403D01*
X84918880Y-40792070D01*
X84935546Y-40808736D01*
X84952213Y-40842070D01*
X84952213Y-40875403D01*
X84935546Y-40925403D01*
X84735546Y-41125403D01*
X84952213Y-41125403D01*
X85268880Y-40775403D02*
X85102213Y-40775403D01*
X85085546Y-40942070D01*
X85102213Y-40925403D01*
X85135546Y-40908736D01*
X85218880Y-40908736D01*
X85252213Y-40925403D01*
X85268880Y-40942070D01*
X85285546Y-40975403D01*
X85285546Y-41058736D01*
X85268880Y-41092070D01*
X85252213Y-41108736D01*
X85218880Y-41125403D01*
X85135546Y-41125403D01*
X85102213Y-41108736D01*
X85085546Y-41092070D01*
X84752213Y-41421236D02*
X84768880Y-41404570D01*
X84802213Y-41387903D01*
X84885546Y-41387903D01*
X84918880Y-41404570D01*
X84935546Y-41421236D01*
X84952213Y-41454570D01*
X84952213Y-41487903D01*
X84935546Y-41537903D01*
X84735546Y-41737903D01*
X84952213Y-41737903D01*
X85252213Y-41504570D02*
X85252213Y-41737903D01*
X85168880Y-41371236D02*
X85085546Y-41621236D01*
X85302213Y-41621236D01*
X84752213Y-42033736D02*
X84768880Y-42017070D01*
X84802213Y-42000403D01*
X84885546Y-42000403D01*
X84918880Y-42017070D01*
X84935546Y-42033736D01*
X84952213Y-42067070D01*
X84952213Y-42100403D01*
X84935546Y-42150403D01*
X84735546Y-42350403D01*
X84952213Y-42350403D01*
X85068880Y-42000403D02*
X85285546Y-42000403D01*
X85168880Y-42133736D01*
X85218880Y-42133736D01*
X85252213Y-42150403D01*
X85268880Y-42167070D01*
X85285546Y-42200403D01*
X85285546Y-42283736D01*
X85268880Y-42317070D01*
X85252213Y-42333736D01*
X85218880Y-42350403D01*
X85118880Y-42350403D01*
X85085546Y-42333736D01*
X85068880Y-42317070D01*
X88690120Y-30712903D02*
X88490120Y-30712903D01*
X88590120Y-30712903D02*
X88590120Y-30362903D01*
X88556786Y-30412903D01*
X88523453Y-30446236D01*
X88490120Y-30462903D01*
X88490120Y-31008736D02*
X88506786Y-30992070D01*
X88540120Y-30975403D01*
X88623453Y-30975403D01*
X88656786Y-30992070D01*
X88673453Y-31008736D01*
X88690120Y-31042070D01*
X88690120Y-31075403D01*
X88673453Y-31125403D01*
X88473453Y-31325403D01*
X88690120Y-31325403D01*
X88473453Y-31587903D02*
X88690120Y-31587903D01*
X88573453Y-31721236D01*
X88623453Y-31721236D01*
X88656786Y-31737903D01*
X88673453Y-31754570D01*
X88690120Y-31787903D01*
X88690120Y-31871236D01*
X88673453Y-31904570D01*
X88656786Y-31921236D01*
X88623453Y-31937903D01*
X88523453Y-31937903D01*
X88490120Y-31921236D01*
X88473453Y-31904570D01*
X88656786Y-32317070D02*
X88656786Y-32550403D01*
X88573453Y-32183736D02*
X88490120Y-32433736D01*
X88706786Y-32433736D01*
X88673453Y-32812903D02*
X88506786Y-32812903D01*
X88490120Y-32979570D01*
X88506786Y-32962903D01*
X88540120Y-32946236D01*
X88623453Y-32946236D01*
X88656786Y-32962903D01*
X88673453Y-32979570D01*
X88690120Y-33012903D01*
X88690120Y-33096236D01*
X88673453Y-33129570D01*
X88656786Y-33146236D01*
X88623453Y-33162903D01*
X88540120Y-33162903D01*
X88506786Y-33146236D01*
X88490120Y-33129570D01*
X88656786Y-33425403D02*
X88590120Y-33425403D01*
X88556786Y-33442070D01*
X88540120Y-33458736D01*
X88506786Y-33508736D01*
X88490120Y-33575403D01*
X88490120Y-33708736D01*
X88506786Y-33742070D01*
X88523453Y-33758736D01*
X88556786Y-33775403D01*
X88623453Y-33775403D01*
X88656786Y-33758736D01*
X88673453Y-33742070D01*
X88690120Y-33708736D01*
X88690120Y-33625403D01*
X88673453Y-33592070D01*
X88656786Y-33575403D01*
X88623453Y-33558736D01*
X88556786Y-33558736D01*
X88523453Y-33575403D01*
X88506786Y-33592070D01*
X88490120Y-33625403D01*
X88473453Y-34037903D02*
X88706786Y-34037903D01*
X88556786Y-34387903D01*
X88556786Y-34800403D02*
X88523453Y-34783736D01*
X88506786Y-34767070D01*
X88490120Y-34733736D01*
X88490120Y-34717070D01*
X88506786Y-34683736D01*
X88523453Y-34667070D01*
X88556786Y-34650403D01*
X88623453Y-34650403D01*
X88656786Y-34667070D01*
X88673453Y-34683736D01*
X88690120Y-34717070D01*
X88690120Y-34733736D01*
X88673453Y-34767070D01*
X88656786Y-34783736D01*
X88623453Y-34800403D01*
X88556786Y-34800403D01*
X88523453Y-34817070D01*
X88506786Y-34833736D01*
X88490120Y-34867070D01*
X88490120Y-34933736D01*
X88506786Y-34967070D01*
X88523453Y-34983736D01*
X88556786Y-35000403D01*
X88623453Y-35000403D01*
X88656786Y-34983736D01*
X88673453Y-34967070D01*
X88690120Y-34933736D01*
X88690120Y-34867070D01*
X88673453Y-34833736D01*
X88656786Y-34817070D01*
X88623453Y-34800403D01*
X88523453Y-35612903D02*
X88590120Y-35612903D01*
X88623453Y-35596236D01*
X88640120Y-35579570D01*
X88673453Y-35529570D01*
X88690120Y-35462903D01*
X88690120Y-35329570D01*
X88673453Y-35296236D01*
X88656786Y-35279570D01*
X88623453Y-35262903D01*
X88556786Y-35262903D01*
X88523453Y-35279570D01*
X88506786Y-35296236D01*
X88490120Y-35329570D01*
X88490120Y-35412903D01*
X88506786Y-35446236D01*
X88523453Y-35462903D01*
X88556786Y-35479570D01*
X88623453Y-35479570D01*
X88656786Y-35462903D01*
X88673453Y-35446236D01*
X88690120Y-35412903D01*
X88523453Y-36225403D02*
X88323453Y-36225403D01*
X88423453Y-36225403D02*
X88423453Y-35875403D01*
X88390120Y-35925403D01*
X88356786Y-35958736D01*
X88323453Y-35975403D01*
X88740120Y-35875403D02*
X88773453Y-35875403D01*
X88806786Y-35892070D01*
X88823453Y-35908736D01*
X88840120Y-35942070D01*
X88856786Y-36008736D01*
X88856786Y-36092070D01*
X88840120Y-36158736D01*
X88823453Y-36192070D01*
X88806786Y-36208736D01*
X88773453Y-36225403D01*
X88740120Y-36225403D01*
X88706786Y-36208736D01*
X88690120Y-36192070D01*
X88673453Y-36158736D01*
X88656786Y-36092070D01*
X88656786Y-36008736D01*
X88673453Y-35942070D01*
X88690120Y-35908736D01*
X88706786Y-35892070D01*
X88740120Y-35875403D01*
X88523453Y-36837903D02*
X88323453Y-36837903D01*
X88423453Y-36837903D02*
X88423453Y-36487903D01*
X88390120Y-36537903D01*
X88356786Y-36571236D01*
X88323453Y-36587903D01*
X88856786Y-36837903D02*
X88656786Y-36837903D01*
X88756786Y-36837903D02*
X88756786Y-36487903D01*
X88723453Y-36537903D01*
X88690120Y-36571236D01*
X88656786Y-36587903D01*
X88523453Y-37450403D02*
X88323453Y-37450403D01*
X88423453Y-37450403D02*
X88423453Y-37100403D01*
X88390120Y-37150403D01*
X88356786Y-37183736D01*
X88323453Y-37200403D01*
X88656786Y-37133736D02*
X88673453Y-37117070D01*
X88706786Y-37100403D01*
X88790120Y-37100403D01*
X88823453Y-37117070D01*
X88840120Y-37133736D01*
X88856786Y-37167070D01*
X88856786Y-37200403D01*
X88840120Y-37250403D01*
X88640120Y-37450403D01*
X88856786Y-37450403D01*
X88523453Y-38062903D02*
X88323453Y-38062903D01*
X88423453Y-38062903D02*
X88423453Y-37712903D01*
X88390120Y-37762903D01*
X88356786Y-37796236D01*
X88323453Y-37812903D01*
X88640120Y-37712903D02*
X88856786Y-37712903D01*
X88740120Y-37846236D01*
X88790120Y-37846236D01*
X88823453Y-37862903D01*
X88840120Y-37879570D01*
X88856786Y-37912903D01*
X88856786Y-37996236D01*
X88840120Y-38029570D01*
X88823453Y-38046236D01*
X88790120Y-38062903D01*
X88690120Y-38062903D01*
X88656786Y-38046236D01*
X88640120Y-38029570D01*
X88523453Y-38675403D02*
X88323453Y-38675403D01*
X88423453Y-38675403D02*
X88423453Y-38325403D01*
X88390120Y-38375403D01*
X88356786Y-38408736D01*
X88323453Y-38425403D01*
X88840120Y-38325403D02*
X88673453Y-38325403D01*
X88656786Y-38492070D01*
X88673453Y-38475403D01*
X88706786Y-38458736D01*
X88790120Y-38458736D01*
X88823453Y-38475403D01*
X88840120Y-38492070D01*
X88856786Y-38525403D01*
X88856786Y-38608736D01*
X88840120Y-38642070D01*
X88823453Y-38658736D01*
X88790120Y-38675403D01*
X88706786Y-38675403D01*
X88673453Y-38658736D01*
X88656786Y-38642070D01*
X88523453Y-39287903D02*
X88323453Y-39287903D01*
X88423453Y-39287903D02*
X88423453Y-38937903D01*
X88390120Y-38987903D01*
X88356786Y-39021236D01*
X88323453Y-39037903D01*
X88823453Y-38937903D02*
X88756786Y-38937903D01*
X88723453Y-38954570D01*
X88706786Y-38971236D01*
X88673453Y-39021236D01*
X88656786Y-39087903D01*
X88656786Y-39221236D01*
X88673453Y-39254570D01*
X88690120Y-39271236D01*
X88723453Y-39287903D01*
X88790120Y-39287903D01*
X88823453Y-39271236D01*
X88840120Y-39254570D01*
X88856786Y-39221236D01*
X88856786Y-39137903D01*
X88840120Y-39104570D01*
X88823453Y-39087903D01*
X88790120Y-39071236D01*
X88723453Y-39071236D01*
X88690120Y-39087903D01*
X88673453Y-39104570D01*
X88656786Y-39137903D01*
X88523453Y-39900403D02*
X88323453Y-39900403D01*
X88423453Y-39900403D02*
X88423453Y-39550403D01*
X88390120Y-39600403D01*
X88356786Y-39633736D01*
X88323453Y-39650403D01*
X88723453Y-39700403D02*
X88690120Y-39683736D01*
X88673453Y-39667070D01*
X88656786Y-39633736D01*
X88656786Y-39617070D01*
X88673453Y-39583736D01*
X88690120Y-39567070D01*
X88723453Y-39550403D01*
X88790120Y-39550403D01*
X88823453Y-39567070D01*
X88840120Y-39583736D01*
X88856786Y-39617070D01*
X88856786Y-39633736D01*
X88840120Y-39667070D01*
X88823453Y-39683736D01*
X88790120Y-39700403D01*
X88723453Y-39700403D01*
X88690120Y-39717070D01*
X88673453Y-39733736D01*
X88656786Y-39767070D01*
X88656786Y-39833736D01*
X88673453Y-39867070D01*
X88690120Y-39883736D01*
X88723453Y-39900403D01*
X88790120Y-39900403D01*
X88823453Y-39883736D01*
X88840120Y-39867070D01*
X88856786Y-39833736D01*
X88856786Y-39767070D01*
X88840120Y-39733736D01*
X88823453Y-39717070D01*
X88790120Y-39700403D01*
X88523453Y-40512903D02*
X88323453Y-40512903D01*
X88423453Y-40512903D02*
X88423453Y-40162903D01*
X88390120Y-40212903D01*
X88356786Y-40246236D01*
X88323453Y-40262903D01*
X88690120Y-40512903D02*
X88756786Y-40512903D01*
X88790120Y-40496236D01*
X88806786Y-40479570D01*
X88840120Y-40429570D01*
X88856786Y-40362903D01*
X88856786Y-40229570D01*
X88840120Y-40196236D01*
X88823453Y-40179570D01*
X88790120Y-40162903D01*
X88723453Y-40162903D01*
X88690120Y-40179570D01*
X88673453Y-40196236D01*
X88656786Y-40229570D01*
X88656786Y-40312903D01*
X88673453Y-40346236D01*
X88690120Y-40362903D01*
X88723453Y-40379570D01*
X88790120Y-40379570D01*
X88823453Y-40362903D01*
X88840120Y-40346236D01*
X88856786Y-40312903D01*
X88323453Y-40808736D02*
X88340120Y-40792070D01*
X88373453Y-40775403D01*
X88456786Y-40775403D01*
X88490120Y-40792070D01*
X88506786Y-40808736D01*
X88523453Y-40842070D01*
X88523453Y-40875403D01*
X88506786Y-40925403D01*
X88306786Y-41125403D01*
X88523453Y-41125403D01*
X88740120Y-40775403D02*
X88773453Y-40775403D01*
X88806786Y-40792070D01*
X88823453Y-40808736D01*
X88840120Y-40842070D01*
X88856786Y-40908736D01*
X88856786Y-40992070D01*
X88840120Y-41058736D01*
X88823453Y-41092070D01*
X88806786Y-41108736D01*
X88773453Y-41125403D01*
X88740120Y-41125403D01*
X88706786Y-41108736D01*
X88690120Y-41092070D01*
X88673453Y-41058736D01*
X88656786Y-40992070D01*
X88656786Y-40908736D01*
X88673453Y-40842070D01*
X88690120Y-40808736D01*
X88706786Y-40792070D01*
X88740120Y-40775403D01*
X88323453Y-41421236D02*
X88340120Y-41404570D01*
X88373453Y-41387903D01*
X88456786Y-41387903D01*
X88490120Y-41404570D01*
X88506786Y-41421236D01*
X88523453Y-41454570D01*
X88523453Y-41487903D01*
X88506786Y-41537903D01*
X88306786Y-41737903D01*
X88523453Y-41737903D01*
X88856786Y-41737903D02*
X88656786Y-41737903D01*
X88756786Y-41737903D02*
X88756786Y-41387903D01*
X88723453Y-41437903D01*
X88690120Y-41471236D01*
X88656786Y-41487903D01*
X88323453Y-42033736D02*
X88340120Y-42017070D01*
X88373453Y-42000403D01*
X88456786Y-42000403D01*
X88490120Y-42017070D01*
X88506786Y-42033736D01*
X88523453Y-42067070D01*
X88523453Y-42100403D01*
X88506786Y-42150403D01*
X88306786Y-42350403D01*
X88523453Y-42350403D01*
X88656786Y-42033736D02*
X88673453Y-42017070D01*
X88706786Y-42000403D01*
X88790120Y-42000403D01*
X88823453Y-42017070D01*
X88840120Y-42033736D01*
X88856786Y-42067070D01*
X88856786Y-42100403D01*
X88840120Y-42150403D01*
X88640120Y-42350403D01*
X88856786Y-42350403D01*
X73312960Y-30712903D02*
X73112960Y-30712903D01*
X73212960Y-30712903D02*
X73212960Y-30362903D01*
X73179626Y-30412903D01*
X73146293Y-30446236D01*
X73112960Y-30462903D01*
X73112960Y-31008736D02*
X73129626Y-30992070D01*
X73162960Y-30975403D01*
X73246293Y-30975403D01*
X73279626Y-30992070D01*
X73296293Y-31008736D01*
X73312960Y-31042070D01*
X73312960Y-31075403D01*
X73296293Y-31125403D01*
X73096293Y-31325403D01*
X73312960Y-31325403D01*
X73096293Y-31587903D02*
X73312960Y-31587903D01*
X73196293Y-31721236D01*
X73246293Y-31721236D01*
X73279626Y-31737903D01*
X73296293Y-31754570D01*
X73312960Y-31787903D01*
X73312960Y-31871236D01*
X73296293Y-31904570D01*
X73279626Y-31921236D01*
X73246293Y-31937903D01*
X73146293Y-31937903D01*
X73112960Y-31921236D01*
X73096293Y-31904570D01*
X73279626Y-32317070D02*
X73279626Y-32550403D01*
X73196293Y-32183736D02*
X73112960Y-32433736D01*
X73329626Y-32433736D01*
X73296293Y-32812903D02*
X73129626Y-32812903D01*
X73112960Y-32979570D01*
X73129626Y-32962903D01*
X73162960Y-32946236D01*
X73246293Y-32946236D01*
X73279626Y-32962903D01*
X73296293Y-32979570D01*
X73312960Y-33012903D01*
X73312960Y-33096236D01*
X73296293Y-33129570D01*
X73279626Y-33146236D01*
X73246293Y-33162903D01*
X73162960Y-33162903D01*
X73129626Y-33146236D01*
X73112960Y-33129570D01*
X73279626Y-33425403D02*
X73212960Y-33425403D01*
X73179626Y-33442070D01*
X73162960Y-33458736D01*
X73129626Y-33508736D01*
X73112960Y-33575403D01*
X73112960Y-33708736D01*
X73129626Y-33742070D01*
X73146293Y-33758736D01*
X73179626Y-33775403D01*
X73246293Y-33775403D01*
X73279626Y-33758736D01*
X73296293Y-33742070D01*
X73312960Y-33708736D01*
X73312960Y-33625403D01*
X73296293Y-33592070D01*
X73279626Y-33575403D01*
X73246293Y-33558736D01*
X73179626Y-33558736D01*
X73146293Y-33575403D01*
X73129626Y-33592070D01*
X73112960Y-33625403D01*
X73096293Y-34037903D02*
X73329626Y-34037903D01*
X73179626Y-34387903D01*
X73179626Y-34800403D02*
X73146293Y-34783736D01*
X73129626Y-34767070D01*
X73112960Y-34733736D01*
X73112960Y-34717070D01*
X73129626Y-34683736D01*
X73146293Y-34667070D01*
X73179626Y-34650403D01*
X73246293Y-34650403D01*
X73279626Y-34667070D01*
X73296293Y-34683736D01*
X73312960Y-34717070D01*
X73312960Y-34733736D01*
X73296293Y-34767070D01*
X73279626Y-34783736D01*
X73246293Y-34800403D01*
X73179626Y-34800403D01*
X73146293Y-34817070D01*
X73129626Y-34833736D01*
X73112960Y-34867070D01*
X73112960Y-34933736D01*
X73129626Y-34967070D01*
X73146293Y-34983736D01*
X73179626Y-35000403D01*
X73246293Y-35000403D01*
X73279626Y-34983736D01*
X73296293Y-34967070D01*
X73312960Y-34933736D01*
X73312960Y-34867070D01*
X73296293Y-34833736D01*
X73279626Y-34817070D01*
X73246293Y-34800403D01*
X73146293Y-35612903D02*
X73212960Y-35612903D01*
X73246293Y-35596236D01*
X73262960Y-35579570D01*
X73296293Y-35529570D01*
X73312960Y-35462903D01*
X73312960Y-35329570D01*
X73296293Y-35296236D01*
X73279626Y-35279570D01*
X73246293Y-35262903D01*
X73179626Y-35262903D01*
X73146293Y-35279570D01*
X73129626Y-35296236D01*
X73112960Y-35329570D01*
X73112960Y-35412903D01*
X73129626Y-35446236D01*
X73146293Y-35462903D01*
X73179626Y-35479570D01*
X73246293Y-35479570D01*
X73279626Y-35462903D01*
X73296293Y-35446236D01*
X73312960Y-35412903D01*
X73146293Y-36225403D02*
X72946293Y-36225403D01*
X73046293Y-36225403D02*
X73046293Y-35875403D01*
X73012960Y-35925403D01*
X72979626Y-35958736D01*
X72946293Y-35975403D01*
X73362960Y-35875403D02*
X73396293Y-35875403D01*
X73429626Y-35892070D01*
X73446293Y-35908736D01*
X73462960Y-35942070D01*
X73479626Y-36008736D01*
X73479626Y-36092070D01*
X73462960Y-36158736D01*
X73446293Y-36192070D01*
X73429626Y-36208736D01*
X73396293Y-36225403D01*
X73362960Y-36225403D01*
X73329626Y-36208736D01*
X73312960Y-36192070D01*
X73296293Y-36158736D01*
X73279626Y-36092070D01*
X73279626Y-36008736D01*
X73296293Y-35942070D01*
X73312960Y-35908736D01*
X73329626Y-35892070D01*
X73362960Y-35875403D01*
X73146293Y-36837903D02*
X72946293Y-36837903D01*
X73046293Y-36837903D02*
X73046293Y-36487903D01*
X73012960Y-36537903D01*
X72979626Y-36571236D01*
X72946293Y-36587903D01*
X73479626Y-36837903D02*
X73279626Y-36837903D01*
X73379626Y-36837903D02*
X73379626Y-36487903D01*
X73346293Y-36537903D01*
X73312960Y-36571236D01*
X73279626Y-36587903D01*
X73146293Y-37450403D02*
X72946293Y-37450403D01*
X73046293Y-37450403D02*
X73046293Y-37100403D01*
X73012960Y-37150403D01*
X72979626Y-37183736D01*
X72946293Y-37200403D01*
X73279626Y-37133736D02*
X73296293Y-37117070D01*
X73329626Y-37100403D01*
X73412960Y-37100403D01*
X73446293Y-37117070D01*
X73462960Y-37133736D01*
X73479626Y-37167070D01*
X73479626Y-37200403D01*
X73462960Y-37250403D01*
X73262960Y-37450403D01*
X73479626Y-37450403D01*
X73146293Y-38062903D02*
X72946293Y-38062903D01*
X73046293Y-38062903D02*
X73046293Y-37712903D01*
X73012960Y-37762903D01*
X72979626Y-37796236D01*
X72946293Y-37812903D01*
X73262960Y-37712903D02*
X73479626Y-37712903D01*
X73362960Y-37846236D01*
X73412960Y-37846236D01*
X73446293Y-37862903D01*
X73462960Y-37879570D01*
X73479626Y-37912903D01*
X73479626Y-37996236D01*
X73462960Y-38029570D01*
X73446293Y-38046236D01*
X73412960Y-38062903D01*
X73312960Y-38062903D01*
X73279626Y-38046236D01*
X73262960Y-38029570D01*
X73146293Y-38675403D02*
X72946293Y-38675403D01*
X73046293Y-38675403D02*
X73046293Y-38325403D01*
X73012960Y-38375403D01*
X72979626Y-38408736D01*
X72946293Y-38425403D01*
X73462960Y-38325403D02*
X73296293Y-38325403D01*
X73279626Y-38492070D01*
X73296293Y-38475403D01*
X73329626Y-38458736D01*
X73412960Y-38458736D01*
X73446293Y-38475403D01*
X73462960Y-38492070D01*
X73479626Y-38525403D01*
X73479626Y-38608736D01*
X73462960Y-38642070D01*
X73446293Y-38658736D01*
X73412960Y-38675403D01*
X73329626Y-38675403D01*
X73296293Y-38658736D01*
X73279626Y-38642070D01*
X73146293Y-39287903D02*
X72946293Y-39287903D01*
X73046293Y-39287903D02*
X73046293Y-38937903D01*
X73012960Y-38987903D01*
X72979626Y-39021236D01*
X72946293Y-39037903D01*
X73446293Y-38937903D02*
X73379626Y-38937903D01*
X73346293Y-38954570D01*
X73329626Y-38971236D01*
X73296293Y-39021236D01*
X73279626Y-39087903D01*
X73279626Y-39221236D01*
X73296293Y-39254570D01*
X73312960Y-39271236D01*
X73346293Y-39287903D01*
X73412960Y-39287903D01*
X73446293Y-39271236D01*
X73462960Y-39254570D01*
X73479626Y-39221236D01*
X73479626Y-39137903D01*
X73462960Y-39104570D01*
X73446293Y-39087903D01*
X73412960Y-39071236D01*
X73346293Y-39071236D01*
X73312960Y-39087903D01*
X73296293Y-39104570D01*
X73279626Y-39137903D01*
X73146293Y-39900403D02*
X72946293Y-39900403D01*
X73046293Y-39900403D02*
X73046293Y-39550403D01*
X73012960Y-39600403D01*
X72979626Y-39633736D01*
X72946293Y-39650403D01*
X73346293Y-39700403D02*
X73312960Y-39683736D01*
X73296293Y-39667070D01*
X73279626Y-39633736D01*
X73279626Y-39617070D01*
X73296293Y-39583736D01*
X73312960Y-39567070D01*
X73346293Y-39550403D01*
X73412960Y-39550403D01*
X73446293Y-39567070D01*
X73462960Y-39583736D01*
X73479626Y-39617070D01*
X73479626Y-39633736D01*
X73462960Y-39667070D01*
X73446293Y-39683736D01*
X73412960Y-39700403D01*
X73346293Y-39700403D01*
X73312960Y-39717070D01*
X73296293Y-39733736D01*
X73279626Y-39767070D01*
X73279626Y-39833736D01*
X73296293Y-39867070D01*
X73312960Y-39883736D01*
X73346293Y-39900403D01*
X73412960Y-39900403D01*
X73446293Y-39883736D01*
X73462960Y-39867070D01*
X73479626Y-39833736D01*
X73479626Y-39767070D01*
X73462960Y-39733736D01*
X73446293Y-39717070D01*
X73412960Y-39700403D01*
X73146293Y-40512903D02*
X72946293Y-40512903D01*
X73046293Y-40512903D02*
X73046293Y-40162903D01*
X73012960Y-40212903D01*
X72979626Y-40246236D01*
X72946293Y-40262903D01*
X73312960Y-40512903D02*
X73379626Y-40512903D01*
X73412960Y-40496236D01*
X73429626Y-40479570D01*
X73462960Y-40429570D01*
X73479626Y-40362903D01*
X73479626Y-40229570D01*
X73462960Y-40196236D01*
X73446293Y-40179570D01*
X73412960Y-40162903D01*
X73346293Y-40162903D01*
X73312960Y-40179570D01*
X73296293Y-40196236D01*
X73279626Y-40229570D01*
X73279626Y-40312903D01*
X73296293Y-40346236D01*
X73312960Y-40362903D01*
X73346293Y-40379570D01*
X73412960Y-40379570D01*
X73446293Y-40362903D01*
X73462960Y-40346236D01*
X73479626Y-40312903D01*
X72946293Y-40808736D02*
X72962960Y-40792070D01*
X72996293Y-40775403D01*
X73079626Y-40775403D01*
X73112960Y-40792070D01*
X73129626Y-40808736D01*
X73146293Y-40842070D01*
X73146293Y-40875403D01*
X73129626Y-40925403D01*
X72929626Y-41125403D01*
X73146293Y-41125403D01*
X73362960Y-40775403D02*
X73396293Y-40775403D01*
X73429626Y-40792070D01*
X73446293Y-40808736D01*
X73462960Y-40842070D01*
X73479626Y-40908736D01*
X73479626Y-40992070D01*
X73462960Y-41058736D01*
X73446293Y-41092070D01*
X73429626Y-41108736D01*
X73396293Y-41125403D01*
X73362960Y-41125403D01*
X73329626Y-41108736D01*
X73312960Y-41092070D01*
X73296293Y-41058736D01*
X73279626Y-40992070D01*
X73279626Y-40908736D01*
X73296293Y-40842070D01*
X73312960Y-40808736D01*
X73329626Y-40792070D01*
X73362960Y-40775403D01*
X72946293Y-41421236D02*
X72962960Y-41404570D01*
X72996293Y-41387903D01*
X73079626Y-41387903D01*
X73112960Y-41404570D01*
X73129626Y-41421236D01*
X73146293Y-41454570D01*
X73146293Y-41487903D01*
X73129626Y-41537903D01*
X72929626Y-41737903D01*
X73146293Y-41737903D01*
X73479626Y-41737903D02*
X73279626Y-41737903D01*
X73379626Y-41737903D02*
X73379626Y-41387903D01*
X73346293Y-41437903D01*
X73312960Y-41471236D01*
X73279626Y-41487903D01*
X72946293Y-42033736D02*
X72962960Y-42017070D01*
X72996293Y-42000403D01*
X73079626Y-42000403D01*
X73112960Y-42017070D01*
X73129626Y-42033736D01*
X73146293Y-42067070D01*
X73146293Y-42100403D01*
X73129626Y-42150403D01*
X72929626Y-42350403D01*
X73146293Y-42350403D01*
X73279626Y-42033736D02*
X73296293Y-42017070D01*
X73329626Y-42000403D01*
X73412960Y-42000403D01*
X73446293Y-42017070D01*
X73462960Y-42033736D01*
X73479626Y-42067070D01*
X73479626Y-42100403D01*
X73462960Y-42150403D01*
X73262960Y-42350403D01*
X73479626Y-42350403D01*
D10*
X76822543Y-73422500D02*
X76489210Y-72946310D01*
X76251115Y-73422500D02*
X76251115Y-72422500D01*
X76632067Y-72422500D01*
X76727305Y-72470120D01*
X76774924Y-72517739D01*
X76822543Y-72612977D01*
X76822543Y-72755834D01*
X76774924Y-72851072D01*
X76727305Y-72898691D01*
X76632067Y-72946310D01*
X76251115Y-72946310D01*
X77203496Y-73136786D02*
X77679686Y-73136786D01*
X77108258Y-73422500D02*
X77441591Y-72422500D01*
X77774924Y-73422500D01*
X78108258Y-73422500D02*
X78108258Y-72422500D01*
X78679686Y-73422500D02*
X78251115Y-72851072D01*
X78679686Y-72422500D02*
X78108258Y-72993929D01*
X79632067Y-73422500D02*
X79060639Y-73422500D01*
X79346353Y-73422500D02*
X79346353Y-72422500D01*
X79251115Y-72565358D01*
X79155877Y-72660596D01*
X79060639Y-72708215D01*
X80584448Y-73422500D02*
X80013020Y-73422500D01*
X80298734Y-73422500D02*
X80298734Y-72422500D01*
X80203496Y-72565358D01*
X80108258Y-72660596D01*
X80013020Y-72708215D01*
X80917781Y-72422500D02*
X81536829Y-72422500D01*
X81203496Y-72803453D01*
X81346353Y-72803453D01*
X81441591Y-72851072D01*
X81489210Y-72898691D01*
X81536829Y-72993929D01*
X81536829Y-73232024D01*
X81489210Y-73327262D01*
X81441591Y-73374881D01*
X81346353Y-73422500D01*
X81060639Y-73422500D01*
X80965400Y-73374881D01*
X80917781Y-73327262D01*
X82155877Y-72422500D02*
X82251115Y-72422500D01*
X82346353Y-72470120D01*
X82393972Y-72517739D01*
X82441591Y-72612977D01*
X82489210Y-72803453D01*
X82489210Y-73041548D01*
X82441591Y-73232024D01*
X82393972Y-73327262D01*
X82346353Y-73374881D01*
X82251115Y-73422500D01*
X82155877Y-73422500D01*
X82060639Y-73374881D01*
X82013020Y-73327262D01*
X81965400Y-73232024D01*
X81917781Y-73041548D01*
X81917781Y-72803453D01*
X81965400Y-72612977D01*
X82013020Y-72517739D01*
X82060639Y-72470120D01*
X82155877Y-72422500D01*
X83108258Y-72422500D02*
X83203496Y-72422500D01*
X83298734Y-72470120D01*
X83346353Y-72517739D01*
X83393972Y-72612977D01*
X83441591Y-72803453D01*
X83441591Y-73041548D01*
X83393972Y-73232024D01*
X83346353Y-73327262D01*
X83298734Y-73374881D01*
X83203496Y-73422500D01*
X83108258Y-73422500D01*
X83013020Y-73374881D01*
X82965400Y-73327262D01*
X82917781Y-73232024D01*
X82870162Y-73041548D01*
X82870162Y-72803453D01*
X82917781Y-72612977D01*
X82965400Y-72517739D01*
X83013020Y-72470120D01*
X83108258Y-72422500D01*
X76584448Y-74548691D02*
X76727305Y-74596310D01*
X76774924Y-74643929D01*
X76822543Y-74739167D01*
X76822543Y-74882024D01*
X76774924Y-74977262D01*
X76727305Y-75024881D01*
X76632067Y-75072500D01*
X76251115Y-75072500D01*
X76251115Y-74072500D01*
X76584448Y-74072500D01*
X76679686Y-74120120D01*
X76727305Y-74167739D01*
X76774924Y-74262977D01*
X76774924Y-74358215D01*
X76727305Y-74453453D01*
X76679686Y-74501072D01*
X76584448Y-74548691D01*
X76251115Y-74548691D01*
X77822543Y-75072500D02*
X77489210Y-74596310D01*
X77251115Y-75072500D02*
X77251115Y-74072500D01*
X77632067Y-74072500D01*
X77727305Y-74120120D01*
X77774924Y-74167739D01*
X77822543Y-74262977D01*
X77822543Y-74405834D01*
X77774924Y-74501072D01*
X77727305Y-74548691D01*
X77632067Y-74596310D01*
X77251115Y-74596310D01*
X78251115Y-74548691D02*
X78584448Y-74548691D01*
X78727305Y-75072500D02*
X78251115Y-75072500D01*
X78251115Y-74072500D01*
X78727305Y-74072500D01*
X79108258Y-74786786D02*
X79584448Y-74786786D01*
X79013020Y-75072500D02*
X79346353Y-74072500D01*
X79679686Y-75072500D01*
X80013020Y-75072500D02*
X80013020Y-74072500D01*
X80584448Y-75072500D02*
X80155877Y-74501072D01*
X80584448Y-74072500D02*
X80013020Y-74643929D01*
X81203496Y-74072500D02*
X81393972Y-74072500D01*
X81489210Y-74120120D01*
X81584448Y-74215358D01*
X81632067Y-74405834D01*
X81632067Y-74739167D01*
X81584448Y-74929643D01*
X81489210Y-75024881D01*
X81393972Y-75072500D01*
X81203496Y-75072500D01*
X81108258Y-75024881D01*
X81013020Y-74929643D01*
X80965400Y-74739167D01*
X80965400Y-74405834D01*
X81013020Y-74215358D01*
X81108258Y-74120120D01*
X81203496Y-74072500D01*
X82060639Y-74072500D02*
X82060639Y-74882024D01*
X82108258Y-74977262D01*
X82155877Y-75024881D01*
X82251115Y-75072500D01*
X82441591Y-75072500D01*
X82536829Y-75024881D01*
X82584448Y-74977262D01*
X82632067Y-74882024D01*
X82632067Y-74072500D01*
X82965400Y-74072500D02*
X83536829Y-74072500D01*
X83251115Y-75072500D02*
X83251115Y-74072500D01*
X76108258Y-75722500D02*
X76441591Y-76722500D01*
X76774924Y-75722500D01*
X77298734Y-75722500D02*
X77393972Y-75722500D01*
X77489210Y-75770120D01*
X77536829Y-75817739D01*
X77584448Y-75912977D01*
X77632067Y-76103453D01*
X77632067Y-76341548D01*
X77584448Y-76532024D01*
X77536829Y-76627262D01*
X77489210Y-76674881D01*
X77393972Y-76722500D01*
X77298734Y-76722500D01*
X77203496Y-76674881D01*
X77155877Y-76627262D01*
X77108258Y-76532024D01*
X77060639Y-76341548D01*
X77060639Y-76103453D01*
X77108258Y-75912977D01*
X77155877Y-75817739D01*
X77203496Y-75770120D01*
X77298734Y-75722500D01*
D12*
X151501920Y-81033320D02*
X154161920Y-81033320D01*
X151501920Y-32713320D02*
X151501920Y-81033320D01*
X154161920Y-32713320D02*
X154161920Y-81033320D01*
X151501920Y-32713320D02*
X154161920Y-32713320D01*
X151501920Y-31443320D02*
X151501920Y-30113320D01*
X151501920Y-30113320D02*
X152831920Y-30113320D01*
X122101920Y-81033320D02*
X124761920Y-81033320D01*
X122101920Y-32713320D02*
X122101920Y-81033320D01*
X124761920Y-32713320D02*
X124761920Y-81033320D01*
X122101920Y-32713320D02*
X124761920Y-32713320D01*
X122101920Y-31443320D02*
X122101920Y-30113320D01*
X122101920Y-30113320D02*
X123431920Y-30113320D01*
X145631920Y-67093320D02*
X146451920Y-67093320D01*
X146451920Y-66273320D02*
X146451920Y-67093320D01*
X132031920Y-67093320D02*
X131211920Y-67093320D01*
X131211920Y-66273320D02*
X131211920Y-67093320D01*
X146451920Y-43853320D02*
X145631920Y-43853320D01*
X146451920Y-44673320D02*
X146451920Y-43853320D01*
X131211920Y-43853320D02*
X132031920Y-43853320D01*
X116231920Y-67093320D02*
X117051920Y-67093320D01*
X117051920Y-66273320D02*
X117051920Y-67093320D01*
X102631920Y-67093320D02*
X101811920Y-67093320D01*
X101811920Y-66273320D02*
X101811920Y-67093320D01*
X117051920Y-43853320D02*
X116231920Y-43853320D01*
X117051920Y-44673320D02*
X117051920Y-43853320D01*
X101811920Y-43853320D02*
X102631920Y-43853320D01*
D13*
G36*
X138944174Y-33288011D02*
G01*
X139027995Y-33732635D01*
X139337280Y-33860133D01*
X139646566Y-33987631D01*
X140017606Y-33735326D01*
X140121517Y-33665076D01*
X140215447Y-33602352D01*
X140295012Y-33550018D01*
X140355830Y-33510937D01*
X140393517Y-33487973D01*
X140403781Y-33483022D01*
X140422270Y-33495756D01*
X140461780Y-33530962D01*
X140517882Y-33584142D01*
X140586147Y-33650798D01*
X140662146Y-33726434D01*
X140741452Y-33806552D01*
X140819635Y-33886654D01*
X140892267Y-33962244D01*
X140954919Y-34028825D01*
X141003163Y-34081898D01*
X141032570Y-34116967D01*
X141039601Y-34128703D01*
X141029483Y-34150340D01*
X141001119Y-34197742D01*
X140957489Y-34266273D01*
X140901578Y-34351295D01*
X140836366Y-34448173D01*
X140798579Y-34503430D01*
X140729703Y-34604328D01*
X140668500Y-34695379D01*
X140617938Y-34772050D01*
X140580988Y-34829808D01*
X140560618Y-34864123D01*
X140557557Y-34871334D01*
X140564496Y-34891828D01*
X140583411Y-34939593D01*
X140611447Y-35007912D01*
X140645751Y-35090069D01*
X140683469Y-35179350D01*
X140721747Y-35269038D01*
X140757730Y-35352418D01*
X140788566Y-35422774D01*
X140811399Y-35473390D01*
X140823377Y-35497551D01*
X140824084Y-35498502D01*
X140842891Y-35503116D01*
X140892978Y-35513408D01*
X140969153Y-35528367D01*
X141066225Y-35546981D01*
X141179003Y-35568239D01*
X141244802Y-35580498D01*
X141365310Y-35603442D01*
X141474157Y-35625275D01*
X141565836Y-35644802D01*
X141634841Y-35660828D01*
X141675664Y-35672159D01*
X141683871Y-35675754D01*
X141691908Y-35700086D01*
X141698393Y-35755039D01*
X141703330Y-35834188D01*
X141706724Y-35931106D01*
X141708578Y-36039367D01*
X141708898Y-36152545D01*
X141707687Y-36264215D01*
X141704950Y-36367948D01*
X141700691Y-36457321D01*
X141694915Y-36525906D01*
X141687627Y-36567277D01*
X141683255Y-36575890D01*
X141657124Y-36586213D01*
X141601753Y-36600972D01*
X141524467Y-36618432D01*
X141432590Y-36636860D01*
X141400518Y-36642821D01*
X141245884Y-36671146D01*
X141123735Y-36693956D01*
X141030033Y-36712160D01*
X140960744Y-36726663D01*
X140911831Y-36738372D01*
X140879257Y-36748195D01*
X140858988Y-36757036D01*
X140846986Y-36765804D01*
X140845307Y-36767537D01*
X140828544Y-36795451D01*
X140802974Y-36849775D01*
X140771148Y-36923857D01*
X140735620Y-37011045D01*
X140698943Y-37104688D01*
X140663671Y-37198132D01*
X140632356Y-37284727D01*
X140607553Y-37357820D01*
X140591814Y-37410758D01*
X140587692Y-37436891D01*
X140588036Y-37437806D01*
X140602001Y-37459166D01*
X140633682Y-37506164D01*
X140679751Y-37573907D01*
X140736878Y-37657503D01*
X140801733Y-37752062D01*
X140820203Y-37778934D01*
X140886059Y-37876355D01*
X140944010Y-37965243D01*
X140990898Y-38040492D01*
X141023567Y-38097000D01*
X141038860Y-38129661D01*
X141039601Y-38133673D01*
X141026752Y-38154764D01*
X140991248Y-38196544D01*
X140937653Y-38254525D01*
X140870531Y-38324215D01*
X140794447Y-38401125D01*
X140713964Y-38480763D01*
X140633647Y-38558641D01*
X140558059Y-38630266D01*
X140491765Y-38691150D01*
X140439329Y-38736801D01*
X140405315Y-38762730D01*
X140395905Y-38766963D01*
X140374003Y-38756992D01*
X140329160Y-38730100D01*
X140268681Y-38690816D01*
X140222149Y-38659197D01*
X140137835Y-38601178D01*
X140037986Y-38532864D01*
X139937833Y-38464659D01*
X139883987Y-38428155D01*
X139701731Y-38304880D01*
X139548741Y-38387600D01*
X139479042Y-38423839D01*
X139419774Y-38452006D01*
X139379671Y-38468071D01*
X139369463Y-38470306D01*
X139357189Y-38453802D01*
X139332973Y-38407162D01*
X139298623Y-38334689D01*
X139255948Y-38240686D01*
X139206754Y-38129454D01*
X139152850Y-38005295D01*
X139096044Y-37872512D01*
X139038142Y-37735407D01*
X138980953Y-37598282D01*
X138926284Y-37465438D01*
X138875944Y-37341178D01*
X138831740Y-37229805D01*
X138795479Y-37135619D01*
X138768969Y-37062924D01*
X138754018Y-37016021D01*
X138751614Y-36999913D01*
X138770671Y-36979366D01*
X138812396Y-36946013D01*
X138868066Y-36906782D01*
X138872738Y-36903679D01*
X139016624Y-36788503D01*
X139132643Y-36654133D01*
X139219790Y-36504864D01*
X139277059Y-36344993D01*
X139303446Y-36178817D01*
X139297945Y-36010632D01*
X139259550Y-35844735D01*
X139187255Y-35685422D01*
X139165986Y-35650567D01*
X139055356Y-35509817D01*
X138924662Y-35396794D01*
X138778424Y-35312083D01*
X138621168Y-35256274D01*
X138457417Y-35229954D01*
X138291693Y-35233710D01*
X138128522Y-35268130D01*
X137972425Y-35333803D01*
X137827927Y-35431315D01*
X137783229Y-35470893D01*
X137669472Y-35594783D01*
X137586578Y-35725204D01*
X137529716Y-35871395D01*
X137498047Y-36016168D01*
X137490229Y-36178940D01*
X137516298Y-36342520D01*
X137573605Y-36501378D01*
X137659504Y-36649986D01*
X137771346Y-36782815D01*
X137906483Y-36894336D01*
X137924243Y-36906091D01*
X137980510Y-36944588D01*
X138023283Y-36977943D01*
X138043732Y-36999240D01*
X138044029Y-36999913D01*
X138039639Y-37022951D01*
X138022236Y-37075237D01*
X137993628Y-37152470D01*
X137955625Y-37250348D01*
X137910034Y-37364571D01*
X137858663Y-37490838D01*
X137803322Y-37624847D01*
X137745818Y-37762298D01*
X137687961Y-37898888D01*
X137631558Y-38030317D01*
X137578418Y-38152285D01*
X137530350Y-38260489D01*
X137489161Y-38350629D01*
X137456661Y-38418403D01*
X137434657Y-38459510D01*
X137425796Y-38470306D01*
X137398720Y-38461899D01*
X137348057Y-38439352D01*
X137282543Y-38406693D01*
X137246519Y-38387600D01*
X137093528Y-38304880D01*
X136911272Y-38428155D01*
X136818235Y-38491308D01*
X136716375Y-38560807D01*
X136620922Y-38626245D01*
X136573110Y-38659197D01*
X136505865Y-38704353D01*
X136448924Y-38740137D01*
X136409714Y-38762018D01*
X136396979Y-38766643D01*
X136378443Y-38754165D01*
X136337419Y-38719332D01*
X136277885Y-38665758D01*
X136203818Y-38597063D01*
X136119195Y-38516861D01*
X136065675Y-38465366D01*
X135972041Y-38373366D01*
X135891119Y-38291079D01*
X135826183Y-38222025D01*
X135780502Y-38169724D01*
X135757349Y-38137696D01*
X135755128Y-38131196D01*
X135765436Y-38106474D01*
X135793921Y-38056485D01*
X135837423Y-37986292D01*
X135892783Y-37900955D01*
X135956840Y-37805536D01*
X135975057Y-37778934D01*
X136041433Y-37682247D01*
X136100982Y-37595197D01*
X136150376Y-37522675D01*
X136186285Y-37469573D01*
X136205379Y-37440783D01*
X136207224Y-37437806D01*
X136204465Y-37414862D01*
X136189822Y-37364416D01*
X136165847Y-37293121D01*
X136135094Y-37207627D01*
X136100116Y-37114587D01*
X136063467Y-37020654D01*
X136027699Y-36932479D01*
X135995366Y-36856714D01*
X135969022Y-36800011D01*
X135951218Y-36769023D01*
X135949953Y-36767537D01*
X135939066Y-36758681D01*
X135920678Y-36749923D01*
X135890754Y-36740357D01*
X135845257Y-36729076D01*
X135780151Y-36715173D01*
X135691399Y-36697743D01*
X135574967Y-36675878D01*
X135426818Y-36648671D01*
X135394742Y-36642821D01*
X135299674Y-36624454D01*
X135216795Y-36606485D01*
X135153430Y-36590649D01*
X135116902Y-36578680D01*
X135112004Y-36575890D01*
X135103933Y-36551152D01*
X135097373Y-36495870D01*
X135092327Y-36416469D01*
X135088801Y-36319376D01*
X135086799Y-36211018D01*
X135086324Y-36097820D01*
X135087383Y-35986208D01*
X135089978Y-35882609D01*
X135094114Y-35793448D01*
X135099797Y-35725152D01*
X135107029Y-35684146D01*
X135111389Y-35675754D01*
X135135662Y-35667288D01*
X135190934Y-35653515D01*
X135271698Y-35635630D01*
X135372448Y-35614828D01*
X135487677Y-35592303D01*
X135550458Y-35580498D01*
X135669573Y-35558231D01*
X135775795Y-35538059D01*
X135863933Y-35520995D01*
X135928794Y-35508049D01*
X135965186Y-35500235D01*
X135971176Y-35498502D01*
X135981299Y-35478970D01*
X136002698Y-35431923D01*
X136032521Y-35364083D01*
X136067915Y-35282171D01*
X136106028Y-35192908D01*
X136144007Y-35103015D01*
X136179000Y-35019215D01*
X136208154Y-34948227D01*
X136228617Y-34896774D01*
X136237537Y-34871577D01*
X136237703Y-34870476D01*
X136227591Y-34850599D01*
X136199243Y-34804857D01*
X136155637Y-34737797D01*
X136099754Y-34653964D01*
X136034573Y-34557906D01*
X135996681Y-34502730D01*
X135927635Y-34401561D01*
X135866310Y-34309710D01*
X135815697Y-34231824D01*
X135778789Y-34172549D01*
X135758578Y-34136531D01*
X135755659Y-34128457D01*
X135768207Y-34109664D01*
X135802897Y-34069537D01*
X135855297Y-34012573D01*
X135920976Y-33943265D01*
X135995504Y-33866111D01*
X136074447Y-33785605D01*
X136153377Y-33706243D01*
X136227860Y-33632520D01*
X136293466Y-33568932D01*
X136345764Y-33519974D01*
X136380321Y-33490141D01*
X136391882Y-33483022D01*
X136410706Y-33493033D01*
X136455729Y-33521158D01*
X136522573Y-33564534D01*
X136606861Y-33620298D01*
X136704216Y-33685586D01*
X136777653Y-33735326D01*
X137148693Y-33987631D01*
X137767265Y-33732635D01*
X137851085Y-33288011D01*
X137934906Y-32843387D01*
X138860354Y-32843387D01*
X138944174Y-33288011D01*
G37*
X138944174Y-33288011D02*
X139027995Y-33732635D01*
X139337280Y-33860133D01*
X139646566Y-33987631D01*
X140017606Y-33735326D01*
X140121517Y-33665076D01*
X140215447Y-33602352D01*
X140295012Y-33550018D01*
X140355830Y-33510937D01*
X140393517Y-33487973D01*
X140403781Y-33483022D01*
X140422270Y-33495756D01*
X140461780Y-33530962D01*
X140517882Y-33584142D01*
X140586147Y-33650798D01*
X140662146Y-33726434D01*
X140741452Y-33806552D01*
X140819635Y-33886654D01*
X140892267Y-33962244D01*
X140954919Y-34028825D01*
X141003163Y-34081898D01*
X141032570Y-34116967D01*
X141039601Y-34128703D01*
X141029483Y-34150340D01*
X141001119Y-34197742D01*
X140957489Y-34266273D01*
X140901578Y-34351295D01*
X140836366Y-34448173D01*
X140798579Y-34503430D01*
X140729703Y-34604328D01*
X140668500Y-34695379D01*
X140617938Y-34772050D01*
X140580988Y-34829808D01*
X140560618Y-34864123D01*
X140557557Y-34871334D01*
X140564496Y-34891828D01*
X140583411Y-34939593D01*
X140611447Y-35007912D01*
X140645751Y-35090069D01*
X140683469Y-35179350D01*
X140721747Y-35269038D01*
X140757730Y-35352418D01*
X140788566Y-35422774D01*
X140811399Y-35473390D01*
X140823377Y-35497551D01*
X140824084Y-35498502D01*
X140842891Y-35503116D01*
X140892978Y-35513408D01*
X140969153Y-35528367D01*
X141066225Y-35546981D01*
X141179003Y-35568239D01*
X141244802Y-35580498D01*
X141365310Y-35603442D01*
X141474157Y-35625275D01*
X141565836Y-35644802D01*
X141634841Y-35660828D01*
X141675664Y-35672159D01*
X141683871Y-35675754D01*
X141691908Y-35700086D01*
X141698393Y-35755039D01*
X141703330Y-35834188D01*
X141706724Y-35931106D01*
X141708578Y-36039367D01*
X141708898Y-36152545D01*
X141707687Y-36264215D01*
X141704950Y-36367948D01*
X141700691Y-36457321D01*
X141694915Y-36525906D01*
X141687627Y-36567277D01*
X141683255Y-36575890D01*
X141657124Y-36586213D01*
X141601753Y-36600972D01*
X141524467Y-36618432D01*
X141432590Y-36636860D01*
X141400518Y-36642821D01*
X141245884Y-36671146D01*
X141123735Y-36693956D01*
X141030033Y-36712160D01*
X140960744Y-36726663D01*
X140911831Y-36738372D01*
X140879257Y-36748195D01*
X140858988Y-36757036D01*
X140846986Y-36765804D01*
X140845307Y-36767537D01*
X140828544Y-36795451D01*
X140802974Y-36849775D01*
X140771148Y-36923857D01*
X140735620Y-37011045D01*
X140698943Y-37104688D01*
X140663671Y-37198132D01*
X140632356Y-37284727D01*
X140607553Y-37357820D01*
X140591814Y-37410758D01*
X140587692Y-37436891D01*
X140588036Y-37437806D01*
X140602001Y-37459166D01*
X140633682Y-37506164D01*
X140679751Y-37573907D01*
X140736878Y-37657503D01*
X140801733Y-37752062D01*
X140820203Y-37778934D01*
X140886059Y-37876355D01*
X140944010Y-37965243D01*
X140990898Y-38040492D01*
X141023567Y-38097000D01*
X141038860Y-38129661D01*
X141039601Y-38133673D01*
X141026752Y-38154764D01*
X140991248Y-38196544D01*
X140937653Y-38254525D01*
X140870531Y-38324215D01*
X140794447Y-38401125D01*
X140713964Y-38480763D01*
X140633647Y-38558641D01*
X140558059Y-38630266D01*
X140491765Y-38691150D01*
X140439329Y-38736801D01*
X140405315Y-38762730D01*
X140395905Y-38766963D01*
X140374003Y-38756992D01*
X140329160Y-38730100D01*
X140268681Y-38690816D01*
X140222149Y-38659197D01*
X140137835Y-38601178D01*
X140037986Y-38532864D01*
X139937833Y-38464659D01*
X139883987Y-38428155D01*
X139701731Y-38304880D01*
X139548741Y-38387600D01*
X139479042Y-38423839D01*
X139419774Y-38452006D01*
X139379671Y-38468071D01*
X139369463Y-38470306D01*
X139357189Y-38453802D01*
X139332973Y-38407162D01*
X139298623Y-38334689D01*
X139255948Y-38240686D01*
X139206754Y-38129454D01*
X139152850Y-38005295D01*
X139096044Y-37872512D01*
X139038142Y-37735407D01*
X138980953Y-37598282D01*
X138926284Y-37465438D01*
X138875944Y-37341178D01*
X138831740Y-37229805D01*
X138795479Y-37135619D01*
X138768969Y-37062924D01*
X138754018Y-37016021D01*
X138751614Y-36999913D01*
X138770671Y-36979366D01*
X138812396Y-36946013D01*
X138868066Y-36906782D01*
X138872738Y-36903679D01*
X139016624Y-36788503D01*
X139132643Y-36654133D01*
X139219790Y-36504864D01*
X139277059Y-36344993D01*
X139303446Y-36178817D01*
X139297945Y-36010632D01*
X139259550Y-35844735D01*
X139187255Y-35685422D01*
X139165986Y-35650567D01*
X139055356Y-35509817D01*
X138924662Y-35396794D01*
X138778424Y-35312083D01*
X138621168Y-35256274D01*
X138457417Y-35229954D01*
X138291693Y-35233710D01*
X138128522Y-35268130D01*
X137972425Y-35333803D01*
X137827927Y-35431315D01*
X137783229Y-35470893D01*
X137669472Y-35594783D01*
X137586578Y-35725204D01*
X137529716Y-35871395D01*
X137498047Y-36016168D01*
X137490229Y-36178940D01*
X137516298Y-36342520D01*
X137573605Y-36501378D01*
X137659504Y-36649986D01*
X137771346Y-36782815D01*
X137906483Y-36894336D01*
X137924243Y-36906091D01*
X137980510Y-36944588D01*
X138023283Y-36977943D01*
X138043732Y-36999240D01*
X138044029Y-36999913D01*
X138039639Y-37022951D01*
X138022236Y-37075237D01*
X137993628Y-37152470D01*
X137955625Y-37250348D01*
X137910034Y-37364571D01*
X137858663Y-37490838D01*
X137803322Y-37624847D01*
X137745818Y-37762298D01*
X137687961Y-37898888D01*
X137631558Y-38030317D01*
X137578418Y-38152285D01*
X137530350Y-38260489D01*
X137489161Y-38350629D01*
X137456661Y-38418403D01*
X137434657Y-38459510D01*
X137425796Y-38470306D01*
X137398720Y-38461899D01*
X137348057Y-38439352D01*
X137282543Y-38406693D01*
X137246519Y-38387600D01*
X137093528Y-38304880D01*
X136911272Y-38428155D01*
X136818235Y-38491308D01*
X136716375Y-38560807D01*
X136620922Y-38626245D01*
X136573110Y-38659197D01*
X136505865Y-38704353D01*
X136448924Y-38740137D01*
X136409714Y-38762018D01*
X136396979Y-38766643D01*
X136378443Y-38754165D01*
X136337419Y-38719332D01*
X136277885Y-38665758D01*
X136203818Y-38597063D01*
X136119195Y-38516861D01*
X136065675Y-38465366D01*
X135972041Y-38373366D01*
X135891119Y-38291079D01*
X135826183Y-38222025D01*
X135780502Y-38169724D01*
X135757349Y-38137696D01*
X135755128Y-38131196D01*
X135765436Y-38106474D01*
X135793921Y-38056485D01*
X135837423Y-37986292D01*
X135892783Y-37900955D01*
X135956840Y-37805536D01*
X135975057Y-37778934D01*
X136041433Y-37682247D01*
X136100982Y-37595197D01*
X136150376Y-37522675D01*
X136186285Y-37469573D01*
X136205379Y-37440783D01*
X136207224Y-37437806D01*
X136204465Y-37414862D01*
X136189822Y-37364416D01*
X136165847Y-37293121D01*
X136135094Y-37207627D01*
X136100116Y-37114587D01*
X136063467Y-37020654D01*
X136027699Y-36932479D01*
X135995366Y-36856714D01*
X135969022Y-36800011D01*
X135951218Y-36769023D01*
X135949953Y-36767537D01*
X135939066Y-36758681D01*
X135920678Y-36749923D01*
X135890754Y-36740357D01*
X135845257Y-36729076D01*
X135780151Y-36715173D01*
X135691399Y-36697743D01*
X135574967Y-36675878D01*
X135426818Y-36648671D01*
X135394742Y-36642821D01*
X135299674Y-36624454D01*
X135216795Y-36606485D01*
X135153430Y-36590649D01*
X135116902Y-36578680D01*
X135112004Y-36575890D01*
X135103933Y-36551152D01*
X135097373Y-36495870D01*
X135092327Y-36416469D01*
X135088801Y-36319376D01*
X135086799Y-36211018D01*
X135086324Y-36097820D01*
X135087383Y-35986208D01*
X135089978Y-35882609D01*
X135094114Y-35793448D01*
X135099797Y-35725152D01*
X135107029Y-35684146D01*
X135111389Y-35675754D01*
X135135662Y-35667288D01*
X135190934Y-35653515D01*
X135271698Y-35635630D01*
X135372448Y-35614828D01*
X135487677Y-35592303D01*
X135550458Y-35580498D01*
X135669573Y-35558231D01*
X135775795Y-35538059D01*
X135863933Y-35520995D01*
X135928794Y-35508049D01*
X135965186Y-35500235D01*
X135971176Y-35498502D01*
X135981299Y-35478970D01*
X136002698Y-35431923D01*
X136032521Y-35364083D01*
X136067915Y-35282171D01*
X136106028Y-35192908D01*
X136144007Y-35103015D01*
X136179000Y-35019215D01*
X136208154Y-34948227D01*
X136228617Y-34896774D01*
X136237537Y-34871577D01*
X136237703Y-34870476D01*
X136227591Y-34850599D01*
X136199243Y-34804857D01*
X136155637Y-34737797D01*
X136099754Y-34653964D01*
X136034573Y-34557906D01*
X135996681Y-34502730D01*
X135927635Y-34401561D01*
X135866310Y-34309710D01*
X135815697Y-34231824D01*
X135778789Y-34172549D01*
X135758578Y-34136531D01*
X135755659Y-34128457D01*
X135768207Y-34109664D01*
X135802897Y-34069537D01*
X135855297Y-34012573D01*
X135920976Y-33943265D01*
X135995504Y-33866111D01*
X136074447Y-33785605D01*
X136153377Y-33706243D01*
X136227860Y-33632520D01*
X136293466Y-33568932D01*
X136345764Y-33519974D01*
X136380321Y-33490141D01*
X136391882Y-33483022D01*
X136410706Y-33493033D01*
X136455729Y-33521158D01*
X136522573Y-33564534D01*
X136606861Y-33620298D01*
X136704216Y-33685586D01*
X136777653Y-33735326D01*
X137148693Y-33987631D01*
X137767265Y-33732635D01*
X137851085Y-33288011D01*
X137934906Y-32843387D01*
X138860354Y-32843387D01*
X138944174Y-33288011D01*
G36*
X109544174Y-33288011D02*
G01*
X109627995Y-33732635D01*
X109937280Y-33860133D01*
X110246566Y-33987631D01*
X110617606Y-33735326D01*
X110721517Y-33665076D01*
X110815447Y-33602352D01*
X110895012Y-33550018D01*
X110955830Y-33510937D01*
X110993517Y-33487973D01*
X111003781Y-33483022D01*
X111022270Y-33495756D01*
X111061780Y-33530962D01*
X111117882Y-33584142D01*
X111186147Y-33650798D01*
X111262146Y-33726434D01*
X111341452Y-33806552D01*
X111419635Y-33886654D01*
X111492267Y-33962244D01*
X111554919Y-34028825D01*
X111603163Y-34081898D01*
X111632570Y-34116967D01*
X111639601Y-34128703D01*
X111629483Y-34150340D01*
X111601119Y-34197742D01*
X111557489Y-34266273D01*
X111501578Y-34351295D01*
X111436366Y-34448173D01*
X111398579Y-34503430D01*
X111329703Y-34604328D01*
X111268500Y-34695379D01*
X111217938Y-34772050D01*
X111180988Y-34829808D01*
X111160618Y-34864123D01*
X111157557Y-34871334D01*
X111164496Y-34891828D01*
X111183411Y-34939593D01*
X111211447Y-35007912D01*
X111245751Y-35090069D01*
X111283469Y-35179350D01*
X111321747Y-35269038D01*
X111357730Y-35352418D01*
X111388566Y-35422774D01*
X111411399Y-35473390D01*
X111423377Y-35497551D01*
X111424084Y-35498502D01*
X111442891Y-35503116D01*
X111492978Y-35513408D01*
X111569153Y-35528367D01*
X111666225Y-35546981D01*
X111779003Y-35568239D01*
X111844802Y-35580498D01*
X111965310Y-35603442D01*
X112074157Y-35625275D01*
X112165836Y-35644802D01*
X112234841Y-35660828D01*
X112275664Y-35672159D01*
X112283871Y-35675754D01*
X112291908Y-35700086D01*
X112298393Y-35755039D01*
X112303330Y-35834188D01*
X112306724Y-35931106D01*
X112308578Y-36039367D01*
X112308898Y-36152545D01*
X112307687Y-36264215D01*
X112304950Y-36367948D01*
X112300691Y-36457321D01*
X112294915Y-36525906D01*
X112287627Y-36567277D01*
X112283255Y-36575890D01*
X112257124Y-36586213D01*
X112201753Y-36600972D01*
X112124467Y-36618432D01*
X112032590Y-36636860D01*
X112000518Y-36642821D01*
X111845884Y-36671146D01*
X111723735Y-36693956D01*
X111630033Y-36712160D01*
X111560744Y-36726663D01*
X111511831Y-36738372D01*
X111479257Y-36748195D01*
X111458988Y-36757036D01*
X111446986Y-36765804D01*
X111445307Y-36767537D01*
X111428544Y-36795451D01*
X111402974Y-36849775D01*
X111371148Y-36923857D01*
X111335620Y-37011045D01*
X111298943Y-37104688D01*
X111263671Y-37198132D01*
X111232356Y-37284727D01*
X111207553Y-37357820D01*
X111191814Y-37410758D01*
X111187692Y-37436891D01*
X111188036Y-37437806D01*
X111202001Y-37459166D01*
X111233682Y-37506164D01*
X111279751Y-37573907D01*
X111336878Y-37657503D01*
X111401733Y-37752062D01*
X111420203Y-37778934D01*
X111486059Y-37876355D01*
X111544010Y-37965243D01*
X111590898Y-38040492D01*
X111623567Y-38097000D01*
X111638860Y-38129661D01*
X111639601Y-38133673D01*
X111626752Y-38154764D01*
X111591248Y-38196544D01*
X111537653Y-38254525D01*
X111470531Y-38324215D01*
X111394447Y-38401125D01*
X111313964Y-38480763D01*
X111233647Y-38558641D01*
X111158059Y-38630266D01*
X111091765Y-38691150D01*
X111039329Y-38736801D01*
X111005315Y-38762730D01*
X110995905Y-38766963D01*
X110974003Y-38756992D01*
X110929160Y-38730100D01*
X110868681Y-38690816D01*
X110822149Y-38659197D01*
X110737835Y-38601178D01*
X110637986Y-38532864D01*
X110537833Y-38464659D01*
X110483987Y-38428155D01*
X110301731Y-38304880D01*
X110148741Y-38387600D01*
X110079042Y-38423839D01*
X110019774Y-38452006D01*
X109979671Y-38468071D01*
X109969463Y-38470306D01*
X109957189Y-38453802D01*
X109932973Y-38407162D01*
X109898623Y-38334689D01*
X109855948Y-38240686D01*
X109806754Y-38129454D01*
X109752850Y-38005295D01*
X109696044Y-37872512D01*
X109638142Y-37735407D01*
X109580953Y-37598282D01*
X109526284Y-37465438D01*
X109475944Y-37341178D01*
X109431740Y-37229805D01*
X109395479Y-37135619D01*
X109368969Y-37062924D01*
X109354018Y-37016021D01*
X109351614Y-36999913D01*
X109370671Y-36979366D01*
X109412396Y-36946013D01*
X109468066Y-36906782D01*
X109472738Y-36903679D01*
X109616624Y-36788503D01*
X109732643Y-36654133D01*
X109819790Y-36504864D01*
X109877059Y-36344993D01*
X109903446Y-36178817D01*
X109897945Y-36010632D01*
X109859550Y-35844735D01*
X109787255Y-35685422D01*
X109765986Y-35650567D01*
X109655356Y-35509817D01*
X109524662Y-35396794D01*
X109378424Y-35312083D01*
X109221168Y-35256274D01*
X109057417Y-35229954D01*
X108891693Y-35233710D01*
X108728522Y-35268130D01*
X108572425Y-35333803D01*
X108427927Y-35431315D01*
X108383229Y-35470893D01*
X108269472Y-35594783D01*
X108186578Y-35725204D01*
X108129716Y-35871395D01*
X108098047Y-36016168D01*
X108090229Y-36178940D01*
X108116298Y-36342520D01*
X108173605Y-36501378D01*
X108259504Y-36649986D01*
X108371346Y-36782815D01*
X108506483Y-36894336D01*
X108524243Y-36906091D01*
X108580510Y-36944588D01*
X108623283Y-36977943D01*
X108643732Y-36999240D01*
X108644029Y-36999913D01*
X108639639Y-37022951D01*
X108622236Y-37075237D01*
X108593628Y-37152470D01*
X108555625Y-37250348D01*
X108510034Y-37364571D01*
X108458663Y-37490838D01*
X108403322Y-37624847D01*
X108345818Y-37762298D01*
X108287961Y-37898888D01*
X108231558Y-38030317D01*
X108178418Y-38152285D01*
X108130350Y-38260489D01*
X108089161Y-38350629D01*
X108056661Y-38418403D01*
X108034657Y-38459510D01*
X108025796Y-38470306D01*
X107998720Y-38461899D01*
X107948057Y-38439352D01*
X107882543Y-38406693D01*
X107846519Y-38387600D01*
X107693528Y-38304880D01*
X107511272Y-38428155D01*
X107418235Y-38491308D01*
X107316375Y-38560807D01*
X107220922Y-38626245D01*
X107173110Y-38659197D01*
X107105865Y-38704353D01*
X107048924Y-38740137D01*
X107009714Y-38762018D01*
X106996979Y-38766643D01*
X106978443Y-38754165D01*
X106937419Y-38719332D01*
X106877885Y-38665758D01*
X106803818Y-38597063D01*
X106719195Y-38516861D01*
X106665675Y-38465366D01*
X106572041Y-38373366D01*
X106491119Y-38291079D01*
X106426183Y-38222025D01*
X106380502Y-38169724D01*
X106357349Y-38137696D01*
X106355128Y-38131196D01*
X106365436Y-38106474D01*
X106393921Y-38056485D01*
X106437423Y-37986292D01*
X106492783Y-37900955D01*
X106556840Y-37805536D01*
X106575057Y-37778934D01*
X106641433Y-37682247D01*
X106700982Y-37595197D01*
X106750376Y-37522675D01*
X106786285Y-37469573D01*
X106805379Y-37440783D01*
X106807224Y-37437806D01*
X106804465Y-37414862D01*
X106789822Y-37364416D01*
X106765847Y-37293121D01*
X106735094Y-37207627D01*
X106700116Y-37114587D01*
X106663467Y-37020654D01*
X106627699Y-36932479D01*
X106595366Y-36856714D01*
X106569022Y-36800011D01*
X106551218Y-36769023D01*
X106549953Y-36767537D01*
X106539066Y-36758681D01*
X106520678Y-36749923D01*
X106490754Y-36740357D01*
X106445257Y-36729076D01*
X106380151Y-36715173D01*
X106291399Y-36697743D01*
X106174967Y-36675878D01*
X106026818Y-36648671D01*
X105994742Y-36642821D01*
X105899674Y-36624454D01*
X105816795Y-36606485D01*
X105753430Y-36590649D01*
X105716902Y-36578680D01*
X105712004Y-36575890D01*
X105703933Y-36551152D01*
X105697373Y-36495870D01*
X105692327Y-36416469D01*
X105688801Y-36319376D01*
X105686799Y-36211018D01*
X105686324Y-36097820D01*
X105687383Y-35986208D01*
X105689978Y-35882609D01*
X105694114Y-35793448D01*
X105699797Y-35725152D01*
X105707029Y-35684146D01*
X105711389Y-35675754D01*
X105735662Y-35667288D01*
X105790934Y-35653515D01*
X105871698Y-35635630D01*
X105972448Y-35614828D01*
X106087677Y-35592303D01*
X106150458Y-35580498D01*
X106269573Y-35558231D01*
X106375795Y-35538059D01*
X106463933Y-35520995D01*
X106528794Y-35508049D01*
X106565186Y-35500235D01*
X106571176Y-35498502D01*
X106581299Y-35478970D01*
X106602698Y-35431923D01*
X106632521Y-35364083D01*
X106667915Y-35282171D01*
X106706028Y-35192908D01*
X106744007Y-35103015D01*
X106779000Y-35019215D01*
X106808154Y-34948227D01*
X106828617Y-34896774D01*
X106837537Y-34871577D01*
X106837703Y-34870476D01*
X106827591Y-34850599D01*
X106799243Y-34804857D01*
X106755637Y-34737797D01*
X106699754Y-34653964D01*
X106634573Y-34557906D01*
X106596681Y-34502730D01*
X106527635Y-34401561D01*
X106466310Y-34309710D01*
X106415697Y-34231824D01*
X106378789Y-34172549D01*
X106358578Y-34136531D01*
X106355659Y-34128457D01*
X106368207Y-34109664D01*
X106402897Y-34069537D01*
X106455297Y-34012573D01*
X106520976Y-33943265D01*
X106595504Y-33866111D01*
X106674447Y-33785605D01*
X106753377Y-33706243D01*
X106827860Y-33632520D01*
X106893466Y-33568932D01*
X106945764Y-33519974D01*
X106980321Y-33490141D01*
X106991882Y-33483022D01*
X107010706Y-33493033D01*
X107055729Y-33521158D01*
X107122573Y-33564534D01*
X107206861Y-33620298D01*
X107304216Y-33685586D01*
X107377653Y-33735326D01*
X107748693Y-33987631D01*
X108367265Y-33732635D01*
X108451085Y-33288011D01*
X108534906Y-32843387D01*
X109460354Y-32843387D01*
X109544174Y-33288011D01*
G37*
X109544174Y-33288011D02*
X109627995Y-33732635D01*
X109937280Y-33860133D01*
X110246566Y-33987631D01*
X110617606Y-33735326D01*
X110721517Y-33665076D01*
X110815447Y-33602352D01*
X110895012Y-33550018D01*
X110955830Y-33510937D01*
X110993517Y-33487973D01*
X111003781Y-33483022D01*
X111022270Y-33495756D01*
X111061780Y-33530962D01*
X111117882Y-33584142D01*
X111186147Y-33650798D01*
X111262146Y-33726434D01*
X111341452Y-33806552D01*
X111419635Y-33886654D01*
X111492267Y-33962244D01*
X111554919Y-34028825D01*
X111603163Y-34081898D01*
X111632570Y-34116967D01*
X111639601Y-34128703D01*
X111629483Y-34150340D01*
X111601119Y-34197742D01*
X111557489Y-34266273D01*
X111501578Y-34351295D01*
X111436366Y-34448173D01*
X111398579Y-34503430D01*
X111329703Y-34604328D01*
X111268500Y-34695379D01*
X111217938Y-34772050D01*
X111180988Y-34829808D01*
X111160618Y-34864123D01*
X111157557Y-34871334D01*
X111164496Y-34891828D01*
X111183411Y-34939593D01*
X111211447Y-35007912D01*
X111245751Y-35090069D01*
X111283469Y-35179350D01*
X111321747Y-35269038D01*
X111357730Y-35352418D01*
X111388566Y-35422774D01*
X111411399Y-35473390D01*
X111423377Y-35497551D01*
X111424084Y-35498502D01*
X111442891Y-35503116D01*
X111492978Y-35513408D01*
X111569153Y-35528367D01*
X111666225Y-35546981D01*
X111779003Y-35568239D01*
X111844802Y-35580498D01*
X111965310Y-35603442D01*
X112074157Y-35625275D01*
X112165836Y-35644802D01*
X112234841Y-35660828D01*
X112275664Y-35672159D01*
X112283871Y-35675754D01*
X112291908Y-35700086D01*
X112298393Y-35755039D01*
X112303330Y-35834188D01*
X112306724Y-35931106D01*
X112308578Y-36039367D01*
X112308898Y-36152545D01*
X112307687Y-36264215D01*
X112304950Y-36367948D01*
X112300691Y-36457321D01*
X112294915Y-36525906D01*
X112287627Y-36567277D01*
X112283255Y-36575890D01*
X112257124Y-36586213D01*
X112201753Y-36600972D01*
X112124467Y-36618432D01*
X112032590Y-36636860D01*
X112000518Y-36642821D01*
X111845884Y-36671146D01*
X111723735Y-36693956D01*
X111630033Y-36712160D01*
X111560744Y-36726663D01*
X111511831Y-36738372D01*
X111479257Y-36748195D01*
X111458988Y-36757036D01*
X111446986Y-36765804D01*
X111445307Y-36767537D01*
X111428544Y-36795451D01*
X111402974Y-36849775D01*
X111371148Y-36923857D01*
X111335620Y-37011045D01*
X111298943Y-37104688D01*
X111263671Y-37198132D01*
X111232356Y-37284727D01*
X111207553Y-37357820D01*
X111191814Y-37410758D01*
X111187692Y-37436891D01*
X111188036Y-37437806D01*
X111202001Y-37459166D01*
X111233682Y-37506164D01*
X111279751Y-37573907D01*
X111336878Y-37657503D01*
X111401733Y-37752062D01*
X111420203Y-37778934D01*
X111486059Y-37876355D01*
X111544010Y-37965243D01*
X111590898Y-38040492D01*
X111623567Y-38097000D01*
X111638860Y-38129661D01*
X111639601Y-38133673D01*
X111626752Y-38154764D01*
X111591248Y-38196544D01*
X111537653Y-38254525D01*
X111470531Y-38324215D01*
X111394447Y-38401125D01*
X111313964Y-38480763D01*
X111233647Y-38558641D01*
X111158059Y-38630266D01*
X111091765Y-38691150D01*
X111039329Y-38736801D01*
X111005315Y-38762730D01*
X110995905Y-38766963D01*
X110974003Y-38756992D01*
X110929160Y-38730100D01*
X110868681Y-38690816D01*
X110822149Y-38659197D01*
X110737835Y-38601178D01*
X110637986Y-38532864D01*
X110537833Y-38464659D01*
X110483987Y-38428155D01*
X110301731Y-38304880D01*
X110148741Y-38387600D01*
X110079042Y-38423839D01*
X110019774Y-38452006D01*
X109979671Y-38468071D01*
X109969463Y-38470306D01*
X109957189Y-38453802D01*
X109932973Y-38407162D01*
X109898623Y-38334689D01*
X109855948Y-38240686D01*
X109806754Y-38129454D01*
X109752850Y-38005295D01*
X109696044Y-37872512D01*
X109638142Y-37735407D01*
X109580953Y-37598282D01*
X109526284Y-37465438D01*
X109475944Y-37341178D01*
X109431740Y-37229805D01*
X109395479Y-37135619D01*
X109368969Y-37062924D01*
X109354018Y-37016021D01*
X109351614Y-36999913D01*
X109370671Y-36979366D01*
X109412396Y-36946013D01*
X109468066Y-36906782D01*
X109472738Y-36903679D01*
X109616624Y-36788503D01*
X109732643Y-36654133D01*
X109819790Y-36504864D01*
X109877059Y-36344993D01*
X109903446Y-36178817D01*
X109897945Y-36010632D01*
X109859550Y-35844735D01*
X109787255Y-35685422D01*
X109765986Y-35650567D01*
X109655356Y-35509817D01*
X109524662Y-35396794D01*
X109378424Y-35312083D01*
X109221168Y-35256274D01*
X109057417Y-35229954D01*
X108891693Y-35233710D01*
X108728522Y-35268130D01*
X108572425Y-35333803D01*
X108427927Y-35431315D01*
X108383229Y-35470893D01*
X108269472Y-35594783D01*
X108186578Y-35725204D01*
X108129716Y-35871395D01*
X108098047Y-36016168D01*
X108090229Y-36178940D01*
X108116298Y-36342520D01*
X108173605Y-36501378D01*
X108259504Y-36649986D01*
X108371346Y-36782815D01*
X108506483Y-36894336D01*
X108524243Y-36906091D01*
X108580510Y-36944588D01*
X108623283Y-36977943D01*
X108643732Y-36999240D01*
X108644029Y-36999913D01*
X108639639Y-37022951D01*
X108622236Y-37075237D01*
X108593628Y-37152470D01*
X108555625Y-37250348D01*
X108510034Y-37364571D01*
X108458663Y-37490838D01*
X108403322Y-37624847D01*
X108345818Y-37762298D01*
X108287961Y-37898888D01*
X108231558Y-38030317D01*
X108178418Y-38152285D01*
X108130350Y-38260489D01*
X108089161Y-38350629D01*
X108056661Y-38418403D01*
X108034657Y-38459510D01*
X108025796Y-38470306D01*
X107998720Y-38461899D01*
X107948057Y-38439352D01*
X107882543Y-38406693D01*
X107846519Y-38387600D01*
X107693528Y-38304880D01*
X107511272Y-38428155D01*
X107418235Y-38491308D01*
X107316375Y-38560807D01*
X107220922Y-38626245D01*
X107173110Y-38659197D01*
X107105865Y-38704353D01*
X107048924Y-38740137D01*
X107009714Y-38762018D01*
X106996979Y-38766643D01*
X106978443Y-38754165D01*
X106937419Y-38719332D01*
X106877885Y-38665758D01*
X106803818Y-38597063D01*
X106719195Y-38516861D01*
X106665675Y-38465366D01*
X106572041Y-38373366D01*
X106491119Y-38291079D01*
X106426183Y-38222025D01*
X106380502Y-38169724D01*
X106357349Y-38137696D01*
X106355128Y-38131196D01*
X106365436Y-38106474D01*
X106393921Y-38056485D01*
X106437423Y-37986292D01*
X106492783Y-37900955D01*
X106556840Y-37805536D01*
X106575057Y-37778934D01*
X106641433Y-37682247D01*
X106700982Y-37595197D01*
X106750376Y-37522675D01*
X106786285Y-37469573D01*
X106805379Y-37440783D01*
X106807224Y-37437806D01*
X106804465Y-37414862D01*
X106789822Y-37364416D01*
X106765847Y-37293121D01*
X106735094Y-37207627D01*
X106700116Y-37114587D01*
X106663467Y-37020654D01*
X106627699Y-36932479D01*
X106595366Y-36856714D01*
X106569022Y-36800011D01*
X106551218Y-36769023D01*
X106549953Y-36767537D01*
X106539066Y-36758681D01*
X106520678Y-36749923D01*
X106490754Y-36740357D01*
X106445257Y-36729076D01*
X106380151Y-36715173D01*
X106291399Y-36697743D01*
X106174967Y-36675878D01*
X106026818Y-36648671D01*
X105994742Y-36642821D01*
X105899674Y-36624454D01*
X105816795Y-36606485D01*
X105753430Y-36590649D01*
X105716902Y-36578680D01*
X105712004Y-36575890D01*
X105703933Y-36551152D01*
X105697373Y-36495870D01*
X105692327Y-36416469D01*
X105688801Y-36319376D01*
X105686799Y-36211018D01*
X105686324Y-36097820D01*
X105687383Y-35986208D01*
X105689978Y-35882609D01*
X105694114Y-35793448D01*
X105699797Y-35725152D01*
X105707029Y-35684146D01*
X105711389Y-35675754D01*
X105735662Y-35667288D01*
X105790934Y-35653515D01*
X105871698Y-35635630D01*
X105972448Y-35614828D01*
X106087677Y-35592303D01*
X106150458Y-35580498D01*
X106269573Y-35558231D01*
X106375795Y-35538059D01*
X106463933Y-35520995D01*
X106528794Y-35508049D01*
X106565186Y-35500235D01*
X106571176Y-35498502D01*
X106581299Y-35478970D01*
X106602698Y-35431923D01*
X106632521Y-35364083D01*
X106667915Y-35282171D01*
X106706028Y-35192908D01*
X106744007Y-35103015D01*
X106779000Y-35019215D01*
X106808154Y-34948227D01*
X106828617Y-34896774D01*
X106837537Y-34871577D01*
X106837703Y-34870476D01*
X106827591Y-34850599D01*
X106799243Y-34804857D01*
X106755637Y-34737797D01*
X106699754Y-34653964D01*
X106634573Y-34557906D01*
X106596681Y-34502730D01*
X106527635Y-34401561D01*
X106466310Y-34309710D01*
X106415697Y-34231824D01*
X106378789Y-34172549D01*
X106358578Y-34136531D01*
X106355659Y-34128457D01*
X106368207Y-34109664D01*
X106402897Y-34069537D01*
X106455297Y-34012573D01*
X106520976Y-33943265D01*
X106595504Y-33866111D01*
X106674447Y-33785605D01*
X106753377Y-33706243D01*
X106827860Y-33632520D01*
X106893466Y-33568932D01*
X106945764Y-33519974D01*
X106980321Y-33490141D01*
X106991882Y-33483022D01*
X107010706Y-33493033D01*
X107055729Y-33521158D01*
X107122573Y-33564534D01*
X107206861Y-33620298D01*
X107304216Y-33685586D01*
X107377653Y-33735326D01*
X107748693Y-33987631D01*
X108367265Y-33732635D01*
X108451085Y-33288011D01*
X108534906Y-32843387D01*
X109460354Y-32843387D01*
X109544174Y-33288011D01*
D12*
X148961920Y-81033320D02*
X151621920Y-81033320D01*
X148961920Y-32713320D02*
X148961920Y-81033320D01*
X151621920Y-32713320D02*
X151621920Y-81033320D01*
X148961920Y-32713320D02*
X151621920Y-32713320D01*
X148961920Y-31443320D02*
X148961920Y-30113320D01*
X148961920Y-30113320D02*
X150291920Y-30113320D01*
X119561920Y-81033320D02*
X122221920Y-81033320D01*
X119561920Y-32713320D02*
X119561920Y-81033320D01*
X122221920Y-32713320D02*
X122221920Y-81033320D01*
X119561920Y-32713320D02*
X122221920Y-32713320D01*
X119561920Y-31443320D02*
X119561920Y-30113320D01*
X119561920Y-30113320D02*
X120891920Y-30113320D01*
X126101920Y-81033320D02*
X128761920Y-81033320D01*
X126101920Y-32713320D02*
X126101920Y-81033320D01*
X128761920Y-32713320D02*
X128761920Y-81033320D01*
X126101920Y-32713320D02*
X128761920Y-32713320D01*
X126101920Y-31443320D02*
X126101920Y-30113320D01*
X126101920Y-30113320D02*
X127431920Y-30113320D01*
X96701920Y-81033320D02*
X99361920Y-81033320D01*
X96701920Y-32713320D02*
X96701920Y-81033320D01*
X99361920Y-32713320D02*
X99361920Y-81033320D01*
X96701920Y-32713320D02*
X99361920Y-32713320D01*
X96701920Y-31443320D02*
X96701920Y-30113320D01*
X96701920Y-30113320D02*
X98031920Y-30113320D01*
X92701920Y-30113320D02*
X94031920Y-30113320D01*
X92701920Y-31443320D02*
X92701920Y-30113320D01*
X92701920Y-32713320D02*
X95361920Y-32713320D01*
X95361920Y-32713320D02*
X95361920Y-81033320D01*
X92701920Y-32713320D02*
X92701920Y-81033320D01*
X92701920Y-81033320D02*
X95361920Y-81033320D01*
D13*
G36*
X80144174Y-33288011D02*
G01*
X80227995Y-33732635D01*
X80537280Y-33860133D01*
X80846566Y-33987631D01*
X81217606Y-33735326D01*
X81321517Y-33665076D01*
X81415447Y-33602352D01*
X81495012Y-33550018D01*
X81555830Y-33510937D01*
X81593517Y-33487973D01*
X81603781Y-33483022D01*
X81622270Y-33495756D01*
X81661780Y-33530962D01*
X81717882Y-33584142D01*
X81786147Y-33650798D01*
X81862146Y-33726434D01*
X81941452Y-33806552D01*
X82019635Y-33886654D01*
X82092267Y-33962244D01*
X82154919Y-34028825D01*
X82203163Y-34081898D01*
X82232570Y-34116967D01*
X82239601Y-34128703D01*
X82229483Y-34150340D01*
X82201119Y-34197742D01*
X82157489Y-34266273D01*
X82101578Y-34351295D01*
X82036366Y-34448173D01*
X81998579Y-34503430D01*
X81929703Y-34604328D01*
X81868500Y-34695379D01*
X81817938Y-34772050D01*
X81780988Y-34829808D01*
X81760618Y-34864123D01*
X81757557Y-34871334D01*
X81764496Y-34891828D01*
X81783411Y-34939593D01*
X81811447Y-35007912D01*
X81845751Y-35090069D01*
X81883469Y-35179350D01*
X81921747Y-35269038D01*
X81957730Y-35352418D01*
X81988566Y-35422774D01*
X82011399Y-35473390D01*
X82023377Y-35497551D01*
X82024084Y-35498502D01*
X82042891Y-35503116D01*
X82092978Y-35513408D01*
X82169153Y-35528367D01*
X82266225Y-35546981D01*
X82379003Y-35568239D01*
X82444802Y-35580498D01*
X82565310Y-35603442D01*
X82674157Y-35625275D01*
X82765836Y-35644802D01*
X82834841Y-35660828D01*
X82875664Y-35672159D01*
X82883871Y-35675754D01*
X82891908Y-35700086D01*
X82898393Y-35755039D01*
X82903330Y-35834188D01*
X82906724Y-35931106D01*
X82908578Y-36039367D01*
X82908898Y-36152545D01*
X82907687Y-36264215D01*
X82904950Y-36367948D01*
X82900691Y-36457321D01*
X82894915Y-36525906D01*
X82887627Y-36567277D01*
X82883255Y-36575890D01*
X82857124Y-36586213D01*
X82801753Y-36600972D01*
X82724467Y-36618432D01*
X82632590Y-36636860D01*
X82600518Y-36642821D01*
X82445884Y-36671146D01*
X82323735Y-36693956D01*
X82230033Y-36712160D01*
X82160744Y-36726663D01*
X82111831Y-36738372D01*
X82079257Y-36748195D01*
X82058988Y-36757036D01*
X82046986Y-36765804D01*
X82045307Y-36767537D01*
X82028544Y-36795451D01*
X82002974Y-36849775D01*
X81971148Y-36923857D01*
X81935620Y-37011045D01*
X81898943Y-37104688D01*
X81863671Y-37198132D01*
X81832356Y-37284727D01*
X81807553Y-37357820D01*
X81791814Y-37410758D01*
X81787692Y-37436891D01*
X81788036Y-37437806D01*
X81802001Y-37459166D01*
X81833682Y-37506164D01*
X81879751Y-37573907D01*
X81936878Y-37657503D01*
X82001733Y-37752062D01*
X82020203Y-37778934D01*
X82086059Y-37876355D01*
X82144010Y-37965243D01*
X82190898Y-38040492D01*
X82223567Y-38097000D01*
X82238860Y-38129661D01*
X82239601Y-38133673D01*
X82226752Y-38154764D01*
X82191248Y-38196544D01*
X82137653Y-38254525D01*
X82070531Y-38324215D01*
X81994447Y-38401125D01*
X81913964Y-38480763D01*
X81833647Y-38558641D01*
X81758059Y-38630266D01*
X81691765Y-38691150D01*
X81639329Y-38736801D01*
X81605315Y-38762730D01*
X81595905Y-38766963D01*
X81574003Y-38756992D01*
X81529160Y-38730100D01*
X81468681Y-38690816D01*
X81422149Y-38659197D01*
X81337835Y-38601178D01*
X81237986Y-38532864D01*
X81137833Y-38464659D01*
X81083987Y-38428155D01*
X80901731Y-38304880D01*
X80748741Y-38387600D01*
X80679042Y-38423839D01*
X80619774Y-38452006D01*
X80579671Y-38468071D01*
X80569463Y-38470306D01*
X80557189Y-38453802D01*
X80532973Y-38407162D01*
X80498623Y-38334689D01*
X80455948Y-38240686D01*
X80406754Y-38129454D01*
X80352850Y-38005295D01*
X80296044Y-37872512D01*
X80238142Y-37735407D01*
X80180953Y-37598282D01*
X80126284Y-37465438D01*
X80075944Y-37341178D01*
X80031740Y-37229805D01*
X79995479Y-37135619D01*
X79968969Y-37062924D01*
X79954018Y-37016021D01*
X79951614Y-36999913D01*
X79970671Y-36979366D01*
X80012396Y-36946013D01*
X80068066Y-36906782D01*
X80072738Y-36903679D01*
X80216624Y-36788503D01*
X80332643Y-36654133D01*
X80419790Y-36504864D01*
X80477059Y-36344993D01*
X80503446Y-36178817D01*
X80497945Y-36010632D01*
X80459550Y-35844735D01*
X80387255Y-35685422D01*
X80365986Y-35650567D01*
X80255356Y-35509817D01*
X80124662Y-35396794D01*
X79978424Y-35312083D01*
X79821168Y-35256274D01*
X79657417Y-35229954D01*
X79491693Y-35233710D01*
X79328522Y-35268130D01*
X79172425Y-35333803D01*
X79027927Y-35431315D01*
X78983229Y-35470893D01*
X78869472Y-35594783D01*
X78786578Y-35725204D01*
X78729716Y-35871395D01*
X78698047Y-36016168D01*
X78690229Y-36178940D01*
X78716298Y-36342520D01*
X78773605Y-36501378D01*
X78859504Y-36649986D01*
X78971346Y-36782815D01*
X79106483Y-36894336D01*
X79124243Y-36906091D01*
X79180510Y-36944588D01*
X79223283Y-36977943D01*
X79243732Y-36999240D01*
X79244029Y-36999913D01*
X79239639Y-37022951D01*
X79222236Y-37075237D01*
X79193628Y-37152470D01*
X79155625Y-37250348D01*
X79110034Y-37364571D01*
X79058663Y-37490838D01*
X79003322Y-37624847D01*
X78945818Y-37762298D01*
X78887961Y-37898888D01*
X78831558Y-38030317D01*
X78778418Y-38152285D01*
X78730350Y-38260489D01*
X78689161Y-38350629D01*
X78656661Y-38418403D01*
X78634657Y-38459510D01*
X78625796Y-38470306D01*
X78598720Y-38461899D01*
X78548057Y-38439352D01*
X78482543Y-38406693D01*
X78446519Y-38387600D01*
X78293528Y-38304880D01*
X78111272Y-38428155D01*
X78018235Y-38491308D01*
X77916375Y-38560807D01*
X77820922Y-38626245D01*
X77773110Y-38659197D01*
X77705865Y-38704353D01*
X77648924Y-38740137D01*
X77609714Y-38762018D01*
X77596979Y-38766643D01*
X77578443Y-38754165D01*
X77537419Y-38719332D01*
X77477885Y-38665758D01*
X77403818Y-38597063D01*
X77319195Y-38516861D01*
X77265675Y-38465366D01*
X77172041Y-38373366D01*
X77091119Y-38291079D01*
X77026183Y-38222025D01*
X76980502Y-38169724D01*
X76957349Y-38137696D01*
X76955128Y-38131196D01*
X76965436Y-38106474D01*
X76993921Y-38056485D01*
X77037423Y-37986292D01*
X77092783Y-37900955D01*
X77156840Y-37805536D01*
X77175057Y-37778934D01*
X77241433Y-37682247D01*
X77300982Y-37595197D01*
X77350376Y-37522675D01*
X77386285Y-37469573D01*
X77405379Y-37440783D01*
X77407224Y-37437806D01*
X77404465Y-37414862D01*
X77389822Y-37364416D01*
X77365847Y-37293121D01*
X77335094Y-37207627D01*
X77300116Y-37114587D01*
X77263467Y-37020654D01*
X77227699Y-36932479D01*
X77195366Y-36856714D01*
X77169022Y-36800011D01*
X77151218Y-36769023D01*
X77149953Y-36767537D01*
X77139066Y-36758681D01*
X77120678Y-36749923D01*
X77090754Y-36740357D01*
X77045257Y-36729076D01*
X76980151Y-36715173D01*
X76891399Y-36697743D01*
X76774967Y-36675878D01*
X76626818Y-36648671D01*
X76594742Y-36642821D01*
X76499674Y-36624454D01*
X76416795Y-36606485D01*
X76353430Y-36590649D01*
X76316902Y-36578680D01*
X76312004Y-36575890D01*
X76303933Y-36551152D01*
X76297373Y-36495870D01*
X76292327Y-36416469D01*
X76288801Y-36319376D01*
X76286799Y-36211018D01*
X76286324Y-36097820D01*
X76287383Y-35986208D01*
X76289978Y-35882609D01*
X76294114Y-35793448D01*
X76299797Y-35725152D01*
X76307029Y-35684146D01*
X76311389Y-35675754D01*
X76335662Y-35667288D01*
X76390934Y-35653515D01*
X76471698Y-35635630D01*
X76572448Y-35614828D01*
X76687677Y-35592303D01*
X76750458Y-35580498D01*
X76869573Y-35558231D01*
X76975795Y-35538059D01*
X77063933Y-35520995D01*
X77128794Y-35508049D01*
X77165186Y-35500235D01*
X77171176Y-35498502D01*
X77181299Y-35478970D01*
X77202698Y-35431923D01*
X77232521Y-35364083D01*
X77267915Y-35282171D01*
X77306028Y-35192908D01*
X77344007Y-35103015D01*
X77379000Y-35019215D01*
X77408154Y-34948227D01*
X77428617Y-34896774D01*
X77437537Y-34871577D01*
X77437703Y-34870476D01*
X77427591Y-34850599D01*
X77399243Y-34804857D01*
X77355637Y-34737797D01*
X77299754Y-34653964D01*
X77234573Y-34557906D01*
X77196681Y-34502730D01*
X77127635Y-34401561D01*
X77066310Y-34309710D01*
X77015697Y-34231824D01*
X76978789Y-34172549D01*
X76958578Y-34136531D01*
X76955659Y-34128457D01*
X76968207Y-34109664D01*
X77002897Y-34069537D01*
X77055297Y-34012573D01*
X77120976Y-33943265D01*
X77195504Y-33866111D01*
X77274447Y-33785605D01*
X77353377Y-33706243D01*
X77427860Y-33632520D01*
X77493466Y-33568932D01*
X77545764Y-33519974D01*
X77580321Y-33490141D01*
X77591882Y-33483022D01*
X77610706Y-33493033D01*
X77655729Y-33521158D01*
X77722573Y-33564534D01*
X77806861Y-33620298D01*
X77904216Y-33685586D01*
X77977653Y-33735326D01*
X78348693Y-33987631D01*
X78967265Y-33732635D01*
X79051085Y-33288011D01*
X79134906Y-32843387D01*
X80060354Y-32843387D01*
X80144174Y-33288011D01*
G37*
X80144174Y-33288011D02*
X80227995Y-33732635D01*
X80537280Y-33860133D01*
X80846566Y-33987631D01*
X81217606Y-33735326D01*
X81321517Y-33665076D01*
X81415447Y-33602352D01*
X81495012Y-33550018D01*
X81555830Y-33510937D01*
X81593517Y-33487973D01*
X81603781Y-33483022D01*
X81622270Y-33495756D01*
X81661780Y-33530962D01*
X81717882Y-33584142D01*
X81786147Y-33650798D01*
X81862146Y-33726434D01*
X81941452Y-33806552D01*
X82019635Y-33886654D01*
X82092267Y-33962244D01*
X82154919Y-34028825D01*
X82203163Y-34081898D01*
X82232570Y-34116967D01*
X82239601Y-34128703D01*
X82229483Y-34150340D01*
X82201119Y-34197742D01*
X82157489Y-34266273D01*
X82101578Y-34351295D01*
X82036366Y-34448173D01*
X81998579Y-34503430D01*
X81929703Y-34604328D01*
X81868500Y-34695379D01*
X81817938Y-34772050D01*
X81780988Y-34829808D01*
X81760618Y-34864123D01*
X81757557Y-34871334D01*
X81764496Y-34891828D01*
X81783411Y-34939593D01*
X81811447Y-35007912D01*
X81845751Y-35090069D01*
X81883469Y-35179350D01*
X81921747Y-35269038D01*
X81957730Y-35352418D01*
X81988566Y-35422774D01*
X82011399Y-35473390D01*
X82023377Y-35497551D01*
X82024084Y-35498502D01*
X82042891Y-35503116D01*
X82092978Y-35513408D01*
X82169153Y-35528367D01*
X82266225Y-35546981D01*
X82379003Y-35568239D01*
X82444802Y-35580498D01*
X82565310Y-35603442D01*
X82674157Y-35625275D01*
X82765836Y-35644802D01*
X82834841Y-35660828D01*
X82875664Y-35672159D01*
X82883871Y-35675754D01*
X82891908Y-35700086D01*
X82898393Y-35755039D01*
X82903330Y-35834188D01*
X82906724Y-35931106D01*
X82908578Y-36039367D01*
X82908898Y-36152545D01*
X82907687Y-36264215D01*
X82904950Y-36367948D01*
X82900691Y-36457321D01*
X82894915Y-36525906D01*
X82887627Y-36567277D01*
X82883255Y-36575890D01*
X82857124Y-36586213D01*
X82801753Y-36600972D01*
X82724467Y-36618432D01*
X82632590Y-36636860D01*
X82600518Y-36642821D01*
X82445884Y-36671146D01*
X82323735Y-36693956D01*
X82230033Y-36712160D01*
X82160744Y-36726663D01*
X82111831Y-36738372D01*
X82079257Y-36748195D01*
X82058988Y-36757036D01*
X82046986Y-36765804D01*
X82045307Y-36767537D01*
X82028544Y-36795451D01*
X82002974Y-36849775D01*
X81971148Y-36923857D01*
X81935620Y-37011045D01*
X81898943Y-37104688D01*
X81863671Y-37198132D01*
X81832356Y-37284727D01*
X81807553Y-37357820D01*
X81791814Y-37410758D01*
X81787692Y-37436891D01*
X81788036Y-37437806D01*
X81802001Y-37459166D01*
X81833682Y-37506164D01*
X81879751Y-37573907D01*
X81936878Y-37657503D01*
X82001733Y-37752062D01*
X82020203Y-37778934D01*
X82086059Y-37876355D01*
X82144010Y-37965243D01*
X82190898Y-38040492D01*
X82223567Y-38097000D01*
X82238860Y-38129661D01*
X82239601Y-38133673D01*
X82226752Y-38154764D01*
X82191248Y-38196544D01*
X82137653Y-38254525D01*
X82070531Y-38324215D01*
X81994447Y-38401125D01*
X81913964Y-38480763D01*
X81833647Y-38558641D01*
X81758059Y-38630266D01*
X81691765Y-38691150D01*
X81639329Y-38736801D01*
X81605315Y-38762730D01*
X81595905Y-38766963D01*
X81574003Y-38756992D01*
X81529160Y-38730100D01*
X81468681Y-38690816D01*
X81422149Y-38659197D01*
X81337835Y-38601178D01*
X81237986Y-38532864D01*
X81137833Y-38464659D01*
X81083987Y-38428155D01*
X80901731Y-38304880D01*
X80748741Y-38387600D01*
X80679042Y-38423839D01*
X80619774Y-38452006D01*
X80579671Y-38468071D01*
X80569463Y-38470306D01*
X80557189Y-38453802D01*
X80532973Y-38407162D01*
X80498623Y-38334689D01*
X80455948Y-38240686D01*
X80406754Y-38129454D01*
X80352850Y-38005295D01*
X80296044Y-37872512D01*
X80238142Y-37735407D01*
X80180953Y-37598282D01*
X80126284Y-37465438D01*
X80075944Y-37341178D01*
X80031740Y-37229805D01*
X79995479Y-37135619D01*
X79968969Y-37062924D01*
X79954018Y-37016021D01*
X79951614Y-36999913D01*
X79970671Y-36979366D01*
X80012396Y-36946013D01*
X80068066Y-36906782D01*
X80072738Y-36903679D01*
X80216624Y-36788503D01*
X80332643Y-36654133D01*
X80419790Y-36504864D01*
X80477059Y-36344993D01*
X80503446Y-36178817D01*
X80497945Y-36010632D01*
X80459550Y-35844735D01*
X80387255Y-35685422D01*
X80365986Y-35650567D01*
X80255356Y-35509817D01*
X80124662Y-35396794D01*
X79978424Y-35312083D01*
X79821168Y-35256274D01*
X79657417Y-35229954D01*
X79491693Y-35233710D01*
X79328522Y-35268130D01*
X79172425Y-35333803D01*
X79027927Y-35431315D01*
X78983229Y-35470893D01*
X78869472Y-35594783D01*
X78786578Y-35725204D01*
X78729716Y-35871395D01*
X78698047Y-36016168D01*
X78690229Y-36178940D01*
X78716298Y-36342520D01*
X78773605Y-36501378D01*
X78859504Y-36649986D01*
X78971346Y-36782815D01*
X79106483Y-36894336D01*
X79124243Y-36906091D01*
X79180510Y-36944588D01*
X79223283Y-36977943D01*
X79243732Y-36999240D01*
X79244029Y-36999913D01*
X79239639Y-37022951D01*
X79222236Y-37075237D01*
X79193628Y-37152470D01*
X79155625Y-37250348D01*
X79110034Y-37364571D01*
X79058663Y-37490838D01*
X79003322Y-37624847D01*
X78945818Y-37762298D01*
X78887961Y-37898888D01*
X78831558Y-38030317D01*
X78778418Y-38152285D01*
X78730350Y-38260489D01*
X78689161Y-38350629D01*
X78656661Y-38418403D01*
X78634657Y-38459510D01*
X78625796Y-38470306D01*
X78598720Y-38461899D01*
X78548057Y-38439352D01*
X78482543Y-38406693D01*
X78446519Y-38387600D01*
X78293528Y-38304880D01*
X78111272Y-38428155D01*
X78018235Y-38491308D01*
X77916375Y-38560807D01*
X77820922Y-38626245D01*
X77773110Y-38659197D01*
X77705865Y-38704353D01*
X77648924Y-38740137D01*
X77609714Y-38762018D01*
X77596979Y-38766643D01*
X77578443Y-38754165D01*
X77537419Y-38719332D01*
X77477885Y-38665758D01*
X77403818Y-38597063D01*
X77319195Y-38516861D01*
X77265675Y-38465366D01*
X77172041Y-38373366D01*
X77091119Y-38291079D01*
X77026183Y-38222025D01*
X76980502Y-38169724D01*
X76957349Y-38137696D01*
X76955128Y-38131196D01*
X76965436Y-38106474D01*
X76993921Y-38056485D01*
X77037423Y-37986292D01*
X77092783Y-37900955D01*
X77156840Y-37805536D01*
X77175057Y-37778934D01*
X77241433Y-37682247D01*
X77300982Y-37595197D01*
X77350376Y-37522675D01*
X77386285Y-37469573D01*
X77405379Y-37440783D01*
X77407224Y-37437806D01*
X77404465Y-37414862D01*
X77389822Y-37364416D01*
X77365847Y-37293121D01*
X77335094Y-37207627D01*
X77300116Y-37114587D01*
X77263467Y-37020654D01*
X77227699Y-36932479D01*
X77195366Y-36856714D01*
X77169022Y-36800011D01*
X77151218Y-36769023D01*
X77149953Y-36767537D01*
X77139066Y-36758681D01*
X77120678Y-36749923D01*
X77090754Y-36740357D01*
X77045257Y-36729076D01*
X76980151Y-36715173D01*
X76891399Y-36697743D01*
X76774967Y-36675878D01*
X76626818Y-36648671D01*
X76594742Y-36642821D01*
X76499674Y-36624454D01*
X76416795Y-36606485D01*
X76353430Y-36590649D01*
X76316902Y-36578680D01*
X76312004Y-36575890D01*
X76303933Y-36551152D01*
X76297373Y-36495870D01*
X76292327Y-36416469D01*
X76288801Y-36319376D01*
X76286799Y-36211018D01*
X76286324Y-36097820D01*
X76287383Y-35986208D01*
X76289978Y-35882609D01*
X76294114Y-35793448D01*
X76299797Y-35725152D01*
X76307029Y-35684146D01*
X76311389Y-35675754D01*
X76335662Y-35667288D01*
X76390934Y-35653515D01*
X76471698Y-35635630D01*
X76572448Y-35614828D01*
X76687677Y-35592303D01*
X76750458Y-35580498D01*
X76869573Y-35558231D01*
X76975795Y-35538059D01*
X77063933Y-35520995D01*
X77128794Y-35508049D01*
X77165186Y-35500235D01*
X77171176Y-35498502D01*
X77181299Y-35478970D01*
X77202698Y-35431923D01*
X77232521Y-35364083D01*
X77267915Y-35282171D01*
X77306028Y-35192908D01*
X77344007Y-35103015D01*
X77379000Y-35019215D01*
X77408154Y-34948227D01*
X77428617Y-34896774D01*
X77437537Y-34871577D01*
X77437703Y-34870476D01*
X77427591Y-34850599D01*
X77399243Y-34804857D01*
X77355637Y-34737797D01*
X77299754Y-34653964D01*
X77234573Y-34557906D01*
X77196681Y-34502730D01*
X77127635Y-34401561D01*
X77066310Y-34309710D01*
X77015697Y-34231824D01*
X76978789Y-34172549D01*
X76958578Y-34136531D01*
X76955659Y-34128457D01*
X76968207Y-34109664D01*
X77002897Y-34069537D01*
X77055297Y-34012573D01*
X77120976Y-33943265D01*
X77195504Y-33866111D01*
X77274447Y-33785605D01*
X77353377Y-33706243D01*
X77427860Y-33632520D01*
X77493466Y-33568932D01*
X77545764Y-33519974D01*
X77580321Y-33490141D01*
X77591882Y-33483022D01*
X77610706Y-33493033D01*
X77655729Y-33521158D01*
X77722573Y-33564534D01*
X77806861Y-33620298D01*
X77904216Y-33685586D01*
X77977653Y-33735326D01*
X78348693Y-33987631D01*
X78967265Y-33732635D01*
X79051085Y-33288011D01*
X79134906Y-32843387D01*
X80060354Y-32843387D01*
X80144174Y-33288011D01*
D12*
X72411920Y-43853320D02*
X73231920Y-43853320D01*
X87651920Y-44673320D02*
X87651920Y-43853320D01*
X87651920Y-43853320D02*
X86831920Y-43853320D01*
X72411920Y-66273320D02*
X72411920Y-67093320D01*
X73231920Y-67093320D02*
X72411920Y-67093320D01*
X87651920Y-66273320D02*
X87651920Y-67093320D01*
X86831920Y-67093320D02*
X87651920Y-67093320D01*
X90161920Y-30113320D02*
X91491920Y-30113320D01*
X90161920Y-31443320D02*
X90161920Y-30113320D01*
X90161920Y-32713320D02*
X92821920Y-32713320D01*
X92821920Y-32713320D02*
X92821920Y-81033320D01*
X90161920Y-32713320D02*
X90161920Y-81033320D01*
X90161920Y-81033320D02*
X92821920Y-81033320D01*
X67301920Y-30113320D02*
X68631920Y-30113320D01*
X67301920Y-31443320D02*
X67301920Y-30113320D01*
X67301920Y-32713320D02*
X69961920Y-32713320D01*
X69961920Y-32713320D02*
X69961920Y-81033320D01*
X67301920Y-32713320D02*
X67301920Y-81033320D01*
X67301920Y-81033320D02*
X69961920Y-81033320D01*
D10*
X145593746Y-30325700D02*
X145593746Y-31039986D01*
X145546127Y-31182843D01*
X145450889Y-31278081D01*
X145308032Y-31325700D01*
X145212794Y-31325700D01*
X145974699Y-30325700D02*
X146593746Y-30325700D01*
X146260413Y-30706653D01*
X146403270Y-30706653D01*
X146498508Y-30754272D01*
X146546127Y-30801891D01*
X146593746Y-30897129D01*
X146593746Y-31135224D01*
X146546127Y-31230462D01*
X146498508Y-31278081D01*
X146403270Y-31325700D01*
X146117556Y-31325700D01*
X146022318Y-31278081D01*
X145974699Y-31230462D01*
X116193746Y-30325700D02*
X116193746Y-31039986D01*
X116146127Y-31182843D01*
X116050889Y-31278081D01*
X115908032Y-31325700D01*
X115812794Y-31325700D01*
X116574699Y-30325700D02*
X117193746Y-30325700D01*
X116860413Y-30706653D01*
X117003270Y-30706653D01*
X117098508Y-30754272D01*
X117146127Y-30801891D01*
X117193746Y-30897129D01*
X117193746Y-31135224D01*
X117146127Y-31230462D01*
X117098508Y-31278081D01*
X117003270Y-31325700D01*
X116717556Y-31325700D01*
X116622318Y-31278081D01*
X116574699Y-31230462D01*
X130621135Y-70557140D02*
X130621135Y-71366664D01*
X130668754Y-71461902D01*
X130716373Y-71509521D01*
X130811611Y-71557140D01*
X131002087Y-71557140D01*
X131097325Y-71509521D01*
X131144944Y-71461902D01*
X131192563Y-71366664D01*
X131192563Y-70557140D01*
X132192563Y-71557140D02*
X131621135Y-71557140D01*
X131906849Y-71557140D02*
X131906849Y-70557140D01*
X131811611Y-70699998D01*
X131716373Y-70795236D01*
X131621135Y-70842855D01*
X101221135Y-70557140D02*
X101221135Y-71366664D01*
X101268754Y-71461902D01*
X101316373Y-71509521D01*
X101411611Y-71557140D01*
X101602087Y-71557140D01*
X101697325Y-71509521D01*
X101744944Y-71461902D01*
X101792563Y-71366664D01*
X101792563Y-70557140D01*
X102792563Y-71557140D02*
X102221135Y-71557140D01*
X102506849Y-71557140D02*
X102506849Y-70557140D01*
X102411611Y-70699998D01*
X102316373Y-70795236D01*
X102221135Y-70842855D01*
X142098706Y-30325700D02*
X142098706Y-31039986D01*
X142051087Y-31182843D01*
X141955849Y-31278081D01*
X141812992Y-31325700D01*
X141717754Y-31325700D01*
X142527278Y-30420939D02*
X142574897Y-30373320D01*
X142670135Y-30325700D01*
X142908230Y-30325700D01*
X143003468Y-30373320D01*
X143051087Y-30420939D01*
X143098706Y-30516177D01*
X143098706Y-30611415D01*
X143051087Y-30754272D01*
X142479659Y-31325700D01*
X143098706Y-31325700D01*
X112698706Y-30325700D02*
X112698706Y-31039986D01*
X112651087Y-31182843D01*
X112555849Y-31278081D01*
X112412992Y-31325700D01*
X112317754Y-31325700D01*
X113127278Y-30420939D02*
X113174897Y-30373320D01*
X113270135Y-30325700D01*
X113508230Y-30325700D01*
X113603468Y-30373320D01*
X113651087Y-30420939D01*
X113698706Y-30516177D01*
X113698706Y-30611415D01*
X113651087Y-30754272D01*
X113079659Y-31325700D01*
X113698706Y-31325700D01*
X130059106Y-30325700D02*
X130059106Y-31039986D01*
X130011487Y-31182843D01*
X129916249Y-31278081D01*
X129773392Y-31325700D01*
X129678154Y-31325700D01*
X131059106Y-31325700D02*
X130487678Y-31325700D01*
X130773392Y-31325700D02*
X130773392Y-30325700D01*
X130678154Y-30468558D01*
X130582916Y-30563796D01*
X130487678Y-30611415D01*
X100659106Y-30325700D02*
X100659106Y-31039986D01*
X100611487Y-31182843D01*
X100516249Y-31278081D01*
X100373392Y-31325700D01*
X100278154Y-31325700D01*
X101659106Y-31325700D02*
X101087678Y-31325700D01*
X101373392Y-31325700D02*
X101373392Y-30325700D01*
X101278154Y-30468558D01*
X101182916Y-30563796D01*
X101087678Y-30611415D01*
X86793746Y-30325700D02*
X86793746Y-31039986D01*
X86746127Y-31182843D01*
X86650889Y-31278081D01*
X86508032Y-31325700D01*
X86412794Y-31325700D01*
X87174699Y-30325700D02*
X87793746Y-30325700D01*
X87460413Y-30706653D01*
X87603270Y-30706653D01*
X87698508Y-30754272D01*
X87746127Y-30801891D01*
X87793746Y-30897129D01*
X87793746Y-31135224D01*
X87746127Y-31230462D01*
X87698508Y-31278081D01*
X87603270Y-31325700D01*
X87317556Y-31325700D01*
X87222318Y-31278081D01*
X87174699Y-31230462D01*
X71821135Y-70557140D02*
X71821135Y-71366664D01*
X71868754Y-71461902D01*
X71916373Y-71509521D01*
X72011611Y-71557140D01*
X72202087Y-71557140D01*
X72297325Y-71509521D01*
X72344944Y-71461902D01*
X72392563Y-71366664D01*
X72392563Y-70557140D01*
X73392563Y-71557140D02*
X72821135Y-71557140D01*
X73106849Y-71557140D02*
X73106849Y-70557140D01*
X73011611Y-70699998D01*
X72916373Y-70795236D01*
X72821135Y-70842855D01*
X83298706Y-30325700D02*
X83298706Y-31039986D01*
X83251087Y-31182843D01*
X83155849Y-31278081D01*
X83012992Y-31325700D01*
X82917754Y-31325700D01*
X83727278Y-30420939D02*
X83774897Y-30373320D01*
X83870135Y-30325700D01*
X84108230Y-30325700D01*
X84203468Y-30373320D01*
X84251087Y-30420939D01*
X84298706Y-30516177D01*
X84298706Y-30611415D01*
X84251087Y-30754272D01*
X83679659Y-31325700D01*
X84298706Y-31325700D01*
X71259106Y-30325700D02*
X71259106Y-31039986D01*
X71211487Y-31182843D01*
X71116249Y-31278081D01*
X70973392Y-31325700D01*
X70878154Y-31325700D01*
X72259106Y-31325700D02*
X71687678Y-31325700D01*
X71973392Y-31325700D02*
X71973392Y-30325700D01*
X71878154Y-30468558D01*
X71782916Y-30563796D01*
X71687678Y-30611415D01*
M02*
