G04 #@! TF.GenerationSoftware,KiCad,Pcbnew,5.1.5+dfsg1-2build2*
G04 #@! TF.CreationDate,2022-03-02T19:41:26-05:00*
G04 #@! TF.ProjectId,,58585858-5858-4585-9858-585858585858,rev?*
G04 #@! TF.SameCoordinates,Original*
G04 #@! TF.FileFunction,Legend,Bot*
G04 #@! TF.FilePolarity,Positive*
%FSLAX46Y46*%
G04 Gerber Fmt 4.6, Leading zero omitted, Abs format (unit mm)*
G04 Created by KiCad (PCBNEW 5.1.5+dfsg1-2build2) date 2022-03-02 19:41:26*
%MOMM*%
%LPD*%
G04 APERTURE LIST*
%ADD10C,0.150000*%
G04 APERTURE END LIST*
D10*
X141743456Y-75886300D02*
X142076789Y-75410110D01*
X142314884Y-75886300D02*
X142314884Y-74886300D01*
X141933932Y-74886300D01*
X141838694Y-74933920D01*
X141791075Y-74981539D01*
X141743456Y-75076777D01*
X141743456Y-75219634D01*
X141791075Y-75314872D01*
X141838694Y-75362491D01*
X141933932Y-75410110D01*
X142314884Y-75410110D01*
X141362503Y-75600586D02*
X140886313Y-75600586D01*
X141457741Y-75886300D02*
X141124408Y-74886300D01*
X140791075Y-75886300D01*
X140457741Y-75886300D02*
X140457741Y-74886300D01*
X139886313Y-75886300D02*
X140314884Y-75314872D01*
X139886313Y-74886300D02*
X140457741Y-75457729D01*
X138933932Y-75886300D02*
X139505360Y-75886300D01*
X139219646Y-75886300D02*
X139219646Y-74886300D01*
X139314884Y-75029158D01*
X139410122Y-75124396D01*
X139505360Y-75172015D01*
X137981551Y-75886300D02*
X138552980Y-75886300D01*
X138267265Y-75886300D02*
X138267265Y-74886300D01*
X138362503Y-75029158D01*
X138457741Y-75124396D01*
X138552980Y-75172015D01*
X137648218Y-74886300D02*
X137029170Y-74886300D01*
X137362503Y-75267253D01*
X137219646Y-75267253D01*
X137124408Y-75314872D01*
X137076789Y-75362491D01*
X137029170Y-75457729D01*
X137029170Y-75695824D01*
X137076789Y-75791062D01*
X137124408Y-75838681D01*
X137219646Y-75886300D01*
X137505360Y-75886300D01*
X137600599Y-75838681D01*
X137648218Y-75791062D01*
X136410122Y-74886300D02*
X136314884Y-74886300D01*
X136219646Y-74933920D01*
X136172027Y-74981539D01*
X136124408Y-75076777D01*
X136076789Y-75267253D01*
X136076789Y-75505348D01*
X136124408Y-75695824D01*
X136172027Y-75791062D01*
X136219646Y-75838681D01*
X136314884Y-75886300D01*
X136410122Y-75886300D01*
X136505360Y-75838681D01*
X136552980Y-75791062D01*
X136600599Y-75695824D01*
X136648218Y-75505348D01*
X136648218Y-75267253D01*
X136600599Y-75076777D01*
X136552980Y-74981539D01*
X136505360Y-74933920D01*
X136410122Y-74886300D01*
X135457741Y-74886300D02*
X135362503Y-74886300D01*
X135267265Y-74933920D01*
X135219646Y-74981539D01*
X135172027Y-75076777D01*
X135124408Y-75267253D01*
X135124408Y-75505348D01*
X135172027Y-75695824D01*
X135219646Y-75791062D01*
X135267265Y-75838681D01*
X135362503Y-75886300D01*
X135457741Y-75886300D01*
X135552980Y-75838681D01*
X135600599Y-75791062D01*
X135648218Y-75695824D01*
X135695837Y-75505348D01*
X135695837Y-75267253D01*
X135648218Y-75076777D01*
X135600599Y-74981539D01*
X135552980Y-74933920D01*
X135457741Y-74886300D01*
X141981551Y-77012491D02*
X141838694Y-77060110D01*
X141791075Y-77107729D01*
X141743456Y-77202967D01*
X141743456Y-77345824D01*
X141791075Y-77441062D01*
X141838694Y-77488681D01*
X141933932Y-77536300D01*
X142314884Y-77536300D01*
X142314884Y-76536300D01*
X141981551Y-76536300D01*
X141886313Y-76583920D01*
X141838694Y-76631539D01*
X141791075Y-76726777D01*
X141791075Y-76822015D01*
X141838694Y-76917253D01*
X141886313Y-76964872D01*
X141981551Y-77012491D01*
X142314884Y-77012491D01*
X140743456Y-77536300D02*
X141076789Y-77060110D01*
X141314884Y-77536300D02*
X141314884Y-76536300D01*
X140933932Y-76536300D01*
X140838694Y-76583920D01*
X140791075Y-76631539D01*
X140743456Y-76726777D01*
X140743456Y-76869634D01*
X140791075Y-76964872D01*
X140838694Y-77012491D01*
X140933932Y-77060110D01*
X141314884Y-77060110D01*
X140314884Y-77012491D02*
X139981551Y-77012491D01*
X139838694Y-77536300D02*
X140314884Y-77536300D01*
X140314884Y-76536300D01*
X139838694Y-76536300D01*
X139457741Y-77250586D02*
X138981551Y-77250586D01*
X139552980Y-77536300D02*
X139219646Y-76536300D01*
X138886313Y-77536300D01*
X138552980Y-77536300D02*
X138552980Y-76536300D01*
X137981551Y-77536300D02*
X138410122Y-76964872D01*
X137981551Y-76536300D02*
X138552980Y-77107729D01*
X137362503Y-76536300D02*
X137172027Y-76536300D01*
X137076789Y-76583920D01*
X136981551Y-76679158D01*
X136933932Y-76869634D01*
X136933932Y-77202967D01*
X136981551Y-77393443D01*
X137076789Y-77488681D01*
X137172027Y-77536300D01*
X137362503Y-77536300D01*
X137457741Y-77488681D01*
X137552980Y-77393443D01*
X137600599Y-77202967D01*
X137600599Y-76869634D01*
X137552980Y-76679158D01*
X137457741Y-76583920D01*
X137362503Y-76536300D01*
X136505360Y-76536300D02*
X136505360Y-77345824D01*
X136457741Y-77441062D01*
X136410122Y-77488681D01*
X136314884Y-77536300D01*
X136124408Y-77536300D01*
X136029170Y-77488681D01*
X135981551Y-77441062D01*
X135933932Y-77345824D01*
X135933932Y-76536300D01*
X135600599Y-76536300D02*
X135029170Y-76536300D01*
X135314884Y-77536300D02*
X135314884Y-76536300D01*
X142457741Y-78186300D02*
X142124408Y-79186300D01*
X141791075Y-78186300D01*
X141267265Y-78186300D02*
X141172027Y-78186300D01*
X141076789Y-78233920D01*
X141029170Y-78281539D01*
X140981551Y-78376777D01*
X140933932Y-78567253D01*
X140933932Y-78805348D01*
X140981551Y-78995824D01*
X141029170Y-79091062D01*
X141076789Y-79138681D01*
X141172027Y-79186300D01*
X141267265Y-79186300D01*
X141362503Y-79138681D01*
X141410122Y-79091062D01*
X141457741Y-78995824D01*
X141505360Y-78805348D01*
X141505360Y-78567253D01*
X141457741Y-78376777D01*
X141410122Y-78281539D01*
X141362503Y-78233920D01*
X141267265Y-78186300D01*
X112343456Y-75886300D02*
X112676789Y-75410110D01*
X112914884Y-75886300D02*
X112914884Y-74886300D01*
X112533932Y-74886300D01*
X112438694Y-74933920D01*
X112391075Y-74981539D01*
X112343456Y-75076777D01*
X112343456Y-75219634D01*
X112391075Y-75314872D01*
X112438694Y-75362491D01*
X112533932Y-75410110D01*
X112914884Y-75410110D01*
X111962503Y-75600586D02*
X111486313Y-75600586D01*
X112057741Y-75886300D02*
X111724408Y-74886300D01*
X111391075Y-75886300D01*
X111057741Y-75886300D02*
X111057741Y-74886300D01*
X110486313Y-75886300D02*
X110914884Y-75314872D01*
X110486313Y-74886300D02*
X111057741Y-75457729D01*
X109533932Y-75886300D02*
X110105360Y-75886300D01*
X109819646Y-75886300D02*
X109819646Y-74886300D01*
X109914884Y-75029158D01*
X110010122Y-75124396D01*
X110105360Y-75172015D01*
X108581551Y-75886300D02*
X109152980Y-75886300D01*
X108867265Y-75886300D02*
X108867265Y-74886300D01*
X108962503Y-75029158D01*
X109057741Y-75124396D01*
X109152980Y-75172015D01*
X108248218Y-74886300D02*
X107629170Y-74886300D01*
X107962503Y-75267253D01*
X107819646Y-75267253D01*
X107724408Y-75314872D01*
X107676789Y-75362491D01*
X107629170Y-75457729D01*
X107629170Y-75695824D01*
X107676789Y-75791062D01*
X107724408Y-75838681D01*
X107819646Y-75886300D01*
X108105360Y-75886300D01*
X108200599Y-75838681D01*
X108248218Y-75791062D01*
X107010122Y-74886300D02*
X106914884Y-74886300D01*
X106819646Y-74933920D01*
X106772027Y-74981539D01*
X106724408Y-75076777D01*
X106676789Y-75267253D01*
X106676789Y-75505348D01*
X106724408Y-75695824D01*
X106772027Y-75791062D01*
X106819646Y-75838681D01*
X106914884Y-75886300D01*
X107010122Y-75886300D01*
X107105360Y-75838681D01*
X107152980Y-75791062D01*
X107200599Y-75695824D01*
X107248218Y-75505348D01*
X107248218Y-75267253D01*
X107200599Y-75076777D01*
X107152980Y-74981539D01*
X107105360Y-74933920D01*
X107010122Y-74886300D01*
X106057741Y-74886300D02*
X105962503Y-74886300D01*
X105867265Y-74933920D01*
X105819646Y-74981539D01*
X105772027Y-75076777D01*
X105724408Y-75267253D01*
X105724408Y-75505348D01*
X105772027Y-75695824D01*
X105819646Y-75791062D01*
X105867265Y-75838681D01*
X105962503Y-75886300D01*
X106057741Y-75886300D01*
X106152979Y-75838681D01*
X106200599Y-75791062D01*
X106248218Y-75695824D01*
X106295837Y-75505348D01*
X106295837Y-75267253D01*
X106248218Y-75076777D01*
X106200599Y-74981539D01*
X106152979Y-74933920D01*
X106057741Y-74886300D01*
X112581551Y-77012491D02*
X112438694Y-77060110D01*
X112391075Y-77107729D01*
X112343456Y-77202967D01*
X112343456Y-77345824D01*
X112391075Y-77441062D01*
X112438694Y-77488681D01*
X112533932Y-77536300D01*
X112914884Y-77536300D01*
X112914884Y-76536300D01*
X112581551Y-76536300D01*
X112486313Y-76583920D01*
X112438694Y-76631539D01*
X112391075Y-76726777D01*
X112391075Y-76822015D01*
X112438694Y-76917253D01*
X112486313Y-76964872D01*
X112581551Y-77012491D01*
X112914884Y-77012491D01*
X111343456Y-77536300D02*
X111676789Y-77060110D01*
X111914884Y-77536300D02*
X111914884Y-76536300D01*
X111533932Y-76536300D01*
X111438694Y-76583920D01*
X111391075Y-76631539D01*
X111343456Y-76726777D01*
X111343456Y-76869634D01*
X111391075Y-76964872D01*
X111438694Y-77012491D01*
X111533932Y-77060110D01*
X111914884Y-77060110D01*
X110914884Y-77012491D02*
X110581551Y-77012491D01*
X110438694Y-77536300D02*
X110914884Y-77536300D01*
X110914884Y-76536300D01*
X110438694Y-76536300D01*
X110057741Y-77250586D02*
X109581551Y-77250586D01*
X110152980Y-77536300D02*
X109819646Y-76536300D01*
X109486313Y-77536300D01*
X109152980Y-77536300D02*
X109152980Y-76536300D01*
X108581551Y-77536300D02*
X109010122Y-76964872D01*
X108581551Y-76536300D02*
X109152980Y-77107729D01*
X107962503Y-76536300D02*
X107772027Y-76536300D01*
X107676789Y-76583920D01*
X107581551Y-76679158D01*
X107533932Y-76869634D01*
X107533932Y-77202967D01*
X107581551Y-77393443D01*
X107676789Y-77488681D01*
X107772027Y-77536300D01*
X107962503Y-77536300D01*
X108057741Y-77488681D01*
X108152980Y-77393443D01*
X108200599Y-77202967D01*
X108200599Y-76869634D01*
X108152980Y-76679158D01*
X108057741Y-76583920D01*
X107962503Y-76536300D01*
X107105360Y-76536300D02*
X107105360Y-77345824D01*
X107057741Y-77441062D01*
X107010122Y-77488681D01*
X106914884Y-77536300D01*
X106724408Y-77536300D01*
X106629170Y-77488681D01*
X106581551Y-77441062D01*
X106533932Y-77345824D01*
X106533932Y-76536300D01*
X106200599Y-76536300D02*
X105629170Y-76536300D01*
X105914884Y-77536300D02*
X105914884Y-76536300D01*
X113057741Y-78186300D02*
X112724408Y-79186300D01*
X112391075Y-78186300D01*
X111867265Y-78186300D02*
X111772027Y-78186300D01*
X111676789Y-78233920D01*
X111629170Y-78281539D01*
X111581551Y-78376777D01*
X111533932Y-78567253D01*
X111533932Y-78805348D01*
X111581551Y-78995824D01*
X111629170Y-79091062D01*
X111676789Y-79138681D01*
X111772027Y-79186300D01*
X111867265Y-79186300D01*
X111962503Y-79138681D01*
X112010122Y-79091062D01*
X112057741Y-78995824D01*
X112105360Y-78805348D01*
X112105360Y-78567253D01*
X112057741Y-78376777D01*
X112010122Y-78281539D01*
X111962503Y-78233920D01*
X111867265Y-78186300D01*
X82943456Y-75886300D02*
X83276789Y-75410110D01*
X83514884Y-75886300D02*
X83514884Y-74886300D01*
X83133932Y-74886300D01*
X83038694Y-74933920D01*
X82991075Y-74981539D01*
X82943456Y-75076777D01*
X82943456Y-75219634D01*
X82991075Y-75314872D01*
X83038694Y-75362491D01*
X83133932Y-75410110D01*
X83514884Y-75410110D01*
X82562503Y-75600586D02*
X82086313Y-75600586D01*
X82657741Y-75886300D02*
X82324408Y-74886300D01*
X81991075Y-75886300D01*
X81657741Y-75886300D02*
X81657741Y-74886300D01*
X81086313Y-75886300D02*
X81514884Y-75314872D01*
X81086313Y-74886300D02*
X81657741Y-75457729D01*
X80133932Y-75886300D02*
X80705360Y-75886300D01*
X80419646Y-75886300D02*
X80419646Y-74886300D01*
X80514884Y-75029158D01*
X80610122Y-75124396D01*
X80705360Y-75172015D01*
X79181551Y-75886300D02*
X79752980Y-75886300D01*
X79467265Y-75886300D02*
X79467265Y-74886300D01*
X79562503Y-75029158D01*
X79657741Y-75124396D01*
X79752980Y-75172015D01*
X78848218Y-74886300D02*
X78229170Y-74886300D01*
X78562503Y-75267253D01*
X78419646Y-75267253D01*
X78324408Y-75314872D01*
X78276789Y-75362491D01*
X78229170Y-75457729D01*
X78229170Y-75695824D01*
X78276789Y-75791062D01*
X78324408Y-75838681D01*
X78419646Y-75886300D01*
X78705360Y-75886300D01*
X78800599Y-75838681D01*
X78848218Y-75791062D01*
X77610122Y-74886300D02*
X77514884Y-74886300D01*
X77419646Y-74933920D01*
X77372027Y-74981539D01*
X77324408Y-75076777D01*
X77276789Y-75267253D01*
X77276789Y-75505348D01*
X77324408Y-75695824D01*
X77372027Y-75791062D01*
X77419646Y-75838681D01*
X77514884Y-75886300D01*
X77610122Y-75886300D01*
X77705360Y-75838681D01*
X77752980Y-75791062D01*
X77800599Y-75695824D01*
X77848218Y-75505348D01*
X77848218Y-75267253D01*
X77800599Y-75076777D01*
X77752980Y-74981539D01*
X77705360Y-74933920D01*
X77610122Y-74886300D01*
X76657741Y-74886300D02*
X76562503Y-74886300D01*
X76467265Y-74933920D01*
X76419646Y-74981539D01*
X76372027Y-75076777D01*
X76324408Y-75267253D01*
X76324408Y-75505348D01*
X76372027Y-75695824D01*
X76419646Y-75791062D01*
X76467265Y-75838681D01*
X76562503Y-75886300D01*
X76657741Y-75886300D01*
X76752979Y-75838681D01*
X76800599Y-75791062D01*
X76848218Y-75695824D01*
X76895837Y-75505348D01*
X76895837Y-75267253D01*
X76848218Y-75076777D01*
X76800599Y-74981539D01*
X76752979Y-74933920D01*
X76657741Y-74886300D01*
X83181551Y-77012491D02*
X83038694Y-77060110D01*
X82991075Y-77107729D01*
X82943456Y-77202967D01*
X82943456Y-77345824D01*
X82991075Y-77441062D01*
X83038694Y-77488681D01*
X83133932Y-77536300D01*
X83514884Y-77536300D01*
X83514884Y-76536300D01*
X83181551Y-76536300D01*
X83086313Y-76583920D01*
X83038694Y-76631539D01*
X82991075Y-76726777D01*
X82991075Y-76822015D01*
X83038694Y-76917253D01*
X83086313Y-76964872D01*
X83181551Y-77012491D01*
X83514884Y-77012491D01*
X81943456Y-77536300D02*
X82276789Y-77060110D01*
X82514884Y-77536300D02*
X82514884Y-76536300D01*
X82133932Y-76536300D01*
X82038694Y-76583920D01*
X81991075Y-76631539D01*
X81943456Y-76726777D01*
X81943456Y-76869634D01*
X81991075Y-76964872D01*
X82038694Y-77012491D01*
X82133932Y-77060110D01*
X82514884Y-77060110D01*
X81514884Y-77012491D02*
X81181551Y-77012491D01*
X81038694Y-77536300D02*
X81514884Y-77536300D01*
X81514884Y-76536300D01*
X81038694Y-76536300D01*
X80657741Y-77250586D02*
X80181551Y-77250586D01*
X80752980Y-77536300D02*
X80419646Y-76536300D01*
X80086313Y-77536300D01*
X79752980Y-77536300D02*
X79752980Y-76536300D01*
X79181551Y-77536300D02*
X79610122Y-76964872D01*
X79181551Y-76536300D02*
X79752980Y-77107729D01*
X78562503Y-76536300D02*
X78372027Y-76536300D01*
X78276789Y-76583920D01*
X78181551Y-76679158D01*
X78133932Y-76869634D01*
X78133932Y-77202967D01*
X78181551Y-77393443D01*
X78276789Y-77488681D01*
X78372027Y-77536300D01*
X78562503Y-77536300D01*
X78657741Y-77488681D01*
X78752980Y-77393443D01*
X78800599Y-77202967D01*
X78800599Y-76869634D01*
X78752980Y-76679158D01*
X78657741Y-76583920D01*
X78562503Y-76536300D01*
X77705360Y-76536300D02*
X77705360Y-77345824D01*
X77657741Y-77441062D01*
X77610122Y-77488681D01*
X77514884Y-77536300D01*
X77324408Y-77536300D01*
X77229170Y-77488681D01*
X77181551Y-77441062D01*
X77133932Y-77345824D01*
X77133932Y-76536300D01*
X76800599Y-76536300D02*
X76229170Y-76536300D01*
X76514884Y-77536300D02*
X76514884Y-76536300D01*
X83657741Y-78186300D02*
X83324408Y-79186300D01*
X82991075Y-78186300D01*
X82467265Y-78186300D02*
X82372027Y-78186300D01*
X82276789Y-78233920D01*
X82229170Y-78281539D01*
X82181551Y-78376777D01*
X82133932Y-78567253D01*
X82133932Y-78805348D01*
X82181551Y-78995824D01*
X82229170Y-79091062D01*
X82276789Y-79138681D01*
X82372027Y-79186300D01*
X82467265Y-79186300D01*
X82562503Y-79138681D01*
X82610122Y-79091062D01*
X82657741Y-78995824D01*
X82705360Y-78805348D01*
X82705360Y-78567253D01*
X82657741Y-78376777D01*
X82610122Y-78281539D01*
X82562503Y-78233920D01*
X82467265Y-78186300D01*
M02*
