G04 #@! TF.GenerationSoftware,KiCad,Pcbnew,5.1.5+dfsg1-2build2*
G04 #@! TF.CreationDate,2022-08-21T19:05:58-05:00*
G04 #@! TF.ProjectId,,58585858-5858-4585-9858-585858585858,rev?*
G04 #@! TF.SameCoordinates,Original*
G04 #@! TF.FileFunction,Copper,L1,Top*
G04 #@! TF.FilePolarity,Positive*
%FSLAX46Y46*%
G04 Gerber Fmt 4.6, Leading zero omitted, Abs format (unit mm)*
G04 Created by KiCad (PCBNEW 5.1.5+dfsg1-2build2) date 2022-08-21 19:05:58*
%MOMM*%
%LPD*%
G04 APERTURE LIST*
%ADD10R,2.000000X0.800000*%
%ADD11R,1.700000X1.700000*%
%ADD12O,1.700000X1.700000*%
%ADD13C,0.800000*%
%ADD14C,0.250000*%
G04 APERTURE END LIST*
D10*
X154292700Y-108285720D03*
X154292700Y-107185720D03*
X154292700Y-106085720D03*
X154292700Y-104985720D03*
X154292700Y-103885720D03*
X154292700Y-102785720D03*
X154292700Y-101685720D03*
X154292700Y-100585720D03*
X154292700Y-99485720D03*
X154292700Y-98385720D03*
X154292700Y-97285720D03*
X154292700Y-96185720D03*
X154292700Y-95085720D03*
X154292700Y-93985720D03*
X171292700Y-108285720D03*
X171292700Y-107185720D03*
X171292700Y-106085720D03*
X171292700Y-104985720D03*
X171292700Y-103885720D03*
X171292700Y-102785720D03*
X171292700Y-101685720D03*
X171292700Y-100585720D03*
X171292700Y-99485720D03*
X171292700Y-98385720D03*
X171292700Y-97285720D03*
X171292700Y-96185720D03*
X171292700Y-95085720D03*
X171292700Y-93985720D03*
X124892700Y-108285720D03*
X124892700Y-107185720D03*
X124892700Y-106085720D03*
X124892700Y-104985720D03*
X124892700Y-103885720D03*
X124892700Y-102785720D03*
X124892700Y-101685720D03*
X124892700Y-100585720D03*
X124892700Y-99485720D03*
X124892700Y-98385720D03*
X124892700Y-97285720D03*
X124892700Y-96185720D03*
X124892700Y-95085720D03*
X124892700Y-93985720D03*
X141892700Y-108285720D03*
X141892700Y-107185720D03*
X141892700Y-106085720D03*
X141892700Y-104985720D03*
X141892700Y-103885720D03*
X141892700Y-102785720D03*
X141892700Y-101685720D03*
X141892700Y-100585720D03*
X141892700Y-99485720D03*
X141892700Y-98385720D03*
X141892700Y-97285720D03*
X141892700Y-96185720D03*
X141892700Y-95085720D03*
X141892700Y-93985720D03*
X95492700Y-108285720D03*
X95492700Y-107185720D03*
X95492700Y-106085720D03*
X95492700Y-104985720D03*
X95492700Y-103885720D03*
X95492700Y-102785720D03*
X95492700Y-101685720D03*
X95492700Y-100585720D03*
X95492700Y-99485720D03*
X95492700Y-98385720D03*
X95492700Y-97285720D03*
X95492700Y-96185720D03*
X95492700Y-95085720D03*
X95492700Y-93985720D03*
X112492700Y-108285720D03*
X112492700Y-107185720D03*
X112492700Y-106085720D03*
X112492700Y-104985720D03*
X112492700Y-103885720D03*
X112492700Y-102785720D03*
X112492700Y-101685720D03*
X112492700Y-100585720D03*
X112492700Y-99485720D03*
X112492700Y-98385720D03*
X112492700Y-97285720D03*
X112492700Y-96185720D03*
X112492700Y-95085720D03*
X112492700Y-93985720D03*
X154292700Y-71525720D03*
X154292700Y-70425720D03*
X154292700Y-69325720D03*
X154292700Y-68225720D03*
X154292700Y-67125720D03*
X154292700Y-66025720D03*
X154292700Y-64925720D03*
X154292700Y-63825720D03*
X154292700Y-62725720D03*
X154292700Y-61625720D03*
X154292700Y-60525720D03*
X154292700Y-59425720D03*
X154292700Y-58325720D03*
X154292700Y-57225720D03*
X171292700Y-71525720D03*
X171292700Y-70425720D03*
X171292700Y-69325720D03*
X171292700Y-68225720D03*
X171292700Y-67125720D03*
X171292700Y-66025720D03*
X171292700Y-64925720D03*
X171292700Y-63825720D03*
X171292700Y-62725720D03*
X171292700Y-61625720D03*
X171292700Y-60525720D03*
X171292700Y-59425720D03*
X171292700Y-58325720D03*
X171292700Y-57225720D03*
X124892700Y-71525720D03*
X124892700Y-70425720D03*
X124892700Y-69325720D03*
X124892700Y-68225720D03*
X124892700Y-67125720D03*
X124892700Y-66025720D03*
X124892700Y-64925720D03*
X124892700Y-63825720D03*
X124892700Y-62725720D03*
X124892700Y-61625720D03*
X124892700Y-60525720D03*
X124892700Y-59425720D03*
X124892700Y-58325720D03*
X124892700Y-57225720D03*
X141892700Y-71525720D03*
X141892700Y-70425720D03*
X141892700Y-69325720D03*
X141892700Y-68225720D03*
X141892700Y-67125720D03*
X141892700Y-66025720D03*
X141892700Y-64925720D03*
X141892700Y-63825720D03*
X141892700Y-62725720D03*
X141892700Y-61625720D03*
X141892700Y-60525720D03*
X141892700Y-59425720D03*
X141892700Y-58325720D03*
X141892700Y-57225720D03*
D11*
X176763800Y-84865720D03*
D12*
X176763800Y-87405720D03*
X176763800Y-89945720D03*
X176763800Y-92485720D03*
X176763800Y-95025720D03*
X176763800Y-97565720D03*
X176763800Y-100105720D03*
X176763800Y-102645720D03*
X176763800Y-105185720D03*
X176763800Y-107725720D03*
X176763800Y-110265720D03*
X176763800Y-112805720D03*
X176763800Y-115345720D03*
X176763800Y-117885720D03*
D11*
X147363800Y-84865720D03*
D12*
X147363800Y-87405720D03*
X147363800Y-89945720D03*
X147363800Y-92485720D03*
X147363800Y-95025720D03*
X147363800Y-97565720D03*
X147363800Y-100105720D03*
X147363800Y-102645720D03*
X147363800Y-105185720D03*
X147363800Y-107725720D03*
X147363800Y-110265720D03*
X147363800Y-112805720D03*
X147363800Y-115345720D03*
X147363800Y-117885720D03*
D11*
X117963800Y-84865720D03*
D12*
X117963800Y-87405720D03*
X117963800Y-89945720D03*
X117963800Y-92485720D03*
X117963800Y-95025720D03*
X117963800Y-97565720D03*
X117963800Y-100105720D03*
X117963800Y-102645720D03*
X117963800Y-105185720D03*
X117963800Y-107725720D03*
X117963800Y-110265720D03*
X117963800Y-112805720D03*
X117963800Y-115345720D03*
X117963800Y-117885720D03*
D11*
X176763800Y-48105720D03*
D12*
X176763800Y-50645720D03*
X176763800Y-53185720D03*
X176763800Y-55725720D03*
X176763800Y-58265720D03*
X176763800Y-60805720D03*
X176763800Y-63345720D03*
X176763800Y-65885720D03*
X176763800Y-68425720D03*
X176763800Y-70965720D03*
X176763800Y-73505720D03*
X176763800Y-76045720D03*
X176763800Y-78585720D03*
X176763800Y-81125720D03*
D11*
X147363800Y-48105720D03*
D12*
X147363800Y-50645720D03*
X147363800Y-53185720D03*
X147363800Y-55725720D03*
X147363800Y-58265720D03*
X147363800Y-60805720D03*
X147363800Y-63345720D03*
X147363800Y-65885720D03*
X147363800Y-68425720D03*
X147363800Y-70965720D03*
X147363800Y-73505720D03*
X147363800Y-76045720D03*
X147363800Y-78585720D03*
X147363800Y-81125720D03*
D11*
X151363800Y-84865720D03*
D12*
X151363800Y-87405720D03*
X151363800Y-89945720D03*
X151363800Y-92485720D03*
X151363800Y-95025720D03*
X151363800Y-97565720D03*
X151363800Y-100105720D03*
X151363800Y-102645720D03*
X151363800Y-105185720D03*
X151363800Y-107725720D03*
X151363800Y-110265720D03*
X151363800Y-112805720D03*
X151363800Y-115345720D03*
X151363800Y-117885720D03*
D11*
X121963800Y-84865720D03*
D12*
X121963800Y-87405720D03*
X121963800Y-89945720D03*
X121963800Y-92485720D03*
X121963800Y-95025720D03*
X121963800Y-97565720D03*
X121963800Y-100105720D03*
X121963800Y-102645720D03*
X121963800Y-105185720D03*
X121963800Y-107725720D03*
X121963800Y-110265720D03*
X121963800Y-112805720D03*
X121963800Y-115345720D03*
X121963800Y-117885720D03*
D11*
X92563800Y-84865720D03*
D12*
X92563800Y-87405720D03*
X92563800Y-89945720D03*
X92563800Y-92485720D03*
X92563800Y-95025720D03*
X92563800Y-97565720D03*
X92563800Y-100105720D03*
X92563800Y-102645720D03*
X92563800Y-105185720D03*
X92563800Y-107725720D03*
X92563800Y-110265720D03*
X92563800Y-112805720D03*
X92563800Y-115345720D03*
X92563800Y-117885720D03*
D11*
X151363800Y-48105720D03*
D12*
X151363800Y-50645720D03*
X151363800Y-53185720D03*
X151363800Y-55725720D03*
X151363800Y-58265720D03*
X151363800Y-60805720D03*
X151363800Y-63345720D03*
X151363800Y-65885720D03*
X151363800Y-68425720D03*
X151363800Y-70965720D03*
X151363800Y-73505720D03*
X151363800Y-76045720D03*
X151363800Y-78585720D03*
X151363800Y-81125720D03*
D11*
X121963800Y-48105720D03*
D12*
X121963800Y-50645720D03*
X121963800Y-53185720D03*
X121963800Y-55725720D03*
X121963800Y-58265720D03*
X121963800Y-60805720D03*
X121963800Y-63345720D03*
X121963800Y-65885720D03*
X121963800Y-68425720D03*
X121963800Y-70965720D03*
X121963800Y-73505720D03*
X121963800Y-76045720D03*
X121963800Y-78585720D03*
X121963800Y-81125720D03*
D11*
X174223800Y-84865720D03*
D12*
X174223800Y-87405720D03*
X174223800Y-89945720D03*
X174223800Y-92485720D03*
X174223800Y-95025720D03*
X174223800Y-97565720D03*
X174223800Y-100105720D03*
X174223800Y-102645720D03*
X174223800Y-105185720D03*
X174223800Y-107725720D03*
X174223800Y-110265720D03*
X174223800Y-112805720D03*
X174223800Y-115345720D03*
X174223800Y-117885720D03*
D11*
X144823800Y-84865720D03*
D12*
X144823800Y-87405720D03*
X144823800Y-89945720D03*
X144823800Y-92485720D03*
X144823800Y-95025720D03*
X144823800Y-97565720D03*
X144823800Y-100105720D03*
X144823800Y-102645720D03*
X144823800Y-105185720D03*
X144823800Y-107725720D03*
X144823800Y-110265720D03*
X144823800Y-112805720D03*
X144823800Y-115345720D03*
X144823800Y-117885720D03*
D11*
X115423800Y-84865720D03*
D12*
X115423800Y-87405720D03*
X115423800Y-89945720D03*
X115423800Y-92485720D03*
X115423800Y-95025720D03*
X115423800Y-97565720D03*
X115423800Y-100105720D03*
X115423800Y-102645720D03*
X115423800Y-105185720D03*
X115423800Y-107725720D03*
X115423800Y-110265720D03*
X115423800Y-112805720D03*
X115423800Y-115345720D03*
X115423800Y-117885720D03*
D11*
X174223800Y-48105720D03*
D12*
X174223800Y-50645720D03*
X174223800Y-53185720D03*
X174223800Y-55725720D03*
X174223800Y-58265720D03*
X174223800Y-60805720D03*
X174223800Y-63345720D03*
X174223800Y-65885720D03*
X174223800Y-68425720D03*
X174223800Y-70965720D03*
X174223800Y-73505720D03*
X174223800Y-76045720D03*
X174223800Y-78585720D03*
X174223800Y-81125720D03*
D11*
X144823800Y-48105720D03*
D12*
X144823800Y-50645720D03*
X144823800Y-53185720D03*
X144823800Y-55725720D03*
X144823800Y-58265720D03*
X144823800Y-60805720D03*
X144823800Y-63345720D03*
X144823800Y-65885720D03*
X144823800Y-68425720D03*
X144823800Y-70965720D03*
X144823800Y-73505720D03*
X144823800Y-76045720D03*
X144823800Y-78585720D03*
X144823800Y-81125720D03*
D10*
X112492700Y-57225720D03*
X112492700Y-58325720D03*
X112492700Y-59425720D03*
X112492700Y-60525720D03*
X112492700Y-61625720D03*
X112492700Y-62725720D03*
X112492700Y-63825720D03*
X112492700Y-64925720D03*
X112492700Y-66025720D03*
X112492700Y-67125720D03*
X112492700Y-68225720D03*
X112492700Y-69325720D03*
X112492700Y-70425720D03*
X112492700Y-71525720D03*
X95492700Y-57225720D03*
X95492700Y-58325720D03*
X95492700Y-59425720D03*
X95492700Y-60525720D03*
X95492700Y-61625720D03*
X95492700Y-62725720D03*
X95492700Y-63825720D03*
X95492700Y-64925720D03*
X95492700Y-66025720D03*
X95492700Y-67125720D03*
X95492700Y-68225720D03*
X95492700Y-69325720D03*
X95492700Y-70425720D03*
X95492700Y-71525720D03*
D12*
X117963800Y-81125720D03*
X117963800Y-78585720D03*
X117963800Y-76045720D03*
X117963800Y-73505720D03*
X117963800Y-70965720D03*
X117963800Y-68425720D03*
X117963800Y-65885720D03*
X117963800Y-63345720D03*
X117963800Y-60805720D03*
X117963800Y-58265720D03*
X117963800Y-55725720D03*
X117963800Y-53185720D03*
X117963800Y-50645720D03*
D11*
X117963800Y-48105720D03*
D12*
X115423800Y-81125720D03*
X115423800Y-78585720D03*
X115423800Y-76045720D03*
X115423800Y-73505720D03*
X115423800Y-70965720D03*
X115423800Y-68425720D03*
X115423800Y-65885720D03*
X115423800Y-63345720D03*
X115423800Y-60805720D03*
X115423800Y-58265720D03*
X115423800Y-55725720D03*
X115423800Y-53185720D03*
X115423800Y-50645720D03*
D11*
X115423800Y-48105720D03*
D12*
X92563800Y-81125720D03*
X92563800Y-78585720D03*
X92563800Y-76045720D03*
X92563800Y-73505720D03*
X92563800Y-70965720D03*
X92563800Y-68425720D03*
X92563800Y-65885720D03*
X92563800Y-63345720D03*
X92563800Y-60805720D03*
X92563800Y-58265720D03*
X92563800Y-55725720D03*
X92563800Y-53185720D03*
X92563800Y-50645720D03*
D11*
X92563800Y-48105720D03*
D13*
X109189520Y-70947280D03*
X138589520Y-70947280D03*
X167989520Y-70947280D03*
X109189520Y-107707280D03*
X138589520Y-107707280D03*
X167989520Y-107707280D03*
X96740800Y-75254820D03*
X126140800Y-75254820D03*
X155540800Y-75254820D03*
X96740800Y-112014820D03*
X126140800Y-112014820D03*
X155540800Y-112014820D03*
X97800160Y-74086720D03*
X127200160Y-74086720D03*
X156600160Y-74086720D03*
X97800160Y-110846720D03*
X127200160Y-110846720D03*
X156600160Y-110846720D03*
X99552760Y-58496200D03*
X128952760Y-58496200D03*
X158352760Y-58496200D03*
X99552760Y-95256200D03*
X128952760Y-95256200D03*
X158352760Y-95256200D03*
X98099880Y-57668160D03*
X127499880Y-57668160D03*
X156899880Y-57668160D03*
X98099880Y-94428160D03*
X127499880Y-94428160D03*
X156899880Y-94428160D03*
X108884720Y-58352220D03*
X138284720Y-58352220D03*
X167684720Y-58352220D03*
X108884720Y-95112220D03*
X138284720Y-95112220D03*
X167684720Y-95112220D03*
X109540040Y-57353200D03*
X138940040Y-57353200D03*
X168340040Y-57353200D03*
X109540040Y-94113200D03*
X138940040Y-94113200D03*
X168340040Y-94113200D03*
D14*
X94167400Y-58325720D02*
X95492700Y-58325720D01*
X93903800Y-58062120D02*
X94167400Y-58325720D01*
X93903800Y-52542440D02*
X93903800Y-58062120D01*
X93182380Y-51821020D02*
X93903800Y-52542440D01*
X92563800Y-51821020D02*
X93182380Y-51821020D01*
X92563800Y-50645720D02*
X92563800Y-51821020D01*
X122582380Y-51821020D02*
X123303800Y-52542440D01*
X151982380Y-51821020D02*
X152703800Y-52542440D01*
X93182380Y-88581020D02*
X93903800Y-89302440D01*
X122582380Y-88581020D02*
X123303800Y-89302440D01*
X151982380Y-88581020D02*
X152703800Y-89302440D01*
X123303800Y-52542440D02*
X123303800Y-58062120D01*
X152703800Y-52542440D02*
X152703800Y-58062120D01*
X93903800Y-89302440D02*
X93903800Y-94822120D01*
X123303800Y-89302440D02*
X123303800Y-94822120D01*
X152703800Y-89302440D02*
X152703800Y-94822120D01*
X123303800Y-58062120D02*
X123567400Y-58325720D01*
X152703800Y-58062120D02*
X152967400Y-58325720D01*
X93903800Y-94822120D02*
X94167400Y-95085720D01*
X123303800Y-94822120D02*
X123567400Y-95085720D01*
X152703800Y-94822120D02*
X152967400Y-95085720D01*
X123567400Y-58325720D02*
X124892700Y-58325720D01*
X152967400Y-58325720D02*
X154292700Y-58325720D01*
X94167400Y-95085720D02*
X95492700Y-95085720D01*
X123567400Y-95085720D02*
X124892700Y-95085720D01*
X152967400Y-95085720D02*
X154292700Y-95085720D01*
X121963800Y-50645720D02*
X121963800Y-51821020D01*
X151363800Y-50645720D02*
X151363800Y-51821020D01*
X92563800Y-87405720D02*
X92563800Y-88581020D01*
X121963800Y-87405720D02*
X121963800Y-88581020D01*
X151363800Y-87405720D02*
X151363800Y-88581020D01*
X121963800Y-51821020D02*
X122582380Y-51821020D01*
X151363800Y-51821020D02*
X151982380Y-51821020D01*
X92563800Y-88581020D02*
X93182380Y-88581020D01*
X121963800Y-88581020D02*
X122582380Y-88581020D01*
X151363800Y-88581020D02*
X151982380Y-88581020D01*
X94402200Y-50414480D02*
X94402200Y-56135220D01*
X94402200Y-56135220D02*
X95492700Y-57225720D01*
X93268740Y-49281020D02*
X94402200Y-50414480D01*
X92563800Y-49281020D02*
X93268740Y-49281020D01*
X92563800Y-48105720D02*
X92563800Y-49281020D01*
X123802200Y-56135220D02*
X124892700Y-57225720D01*
X153202200Y-56135220D02*
X154292700Y-57225720D01*
X94402200Y-92895220D02*
X95492700Y-93985720D01*
X123802200Y-92895220D02*
X124892700Y-93985720D01*
X153202200Y-92895220D02*
X154292700Y-93985720D01*
X123802200Y-50414480D02*
X123802200Y-56135220D01*
X153202200Y-50414480D02*
X153202200Y-56135220D01*
X94402200Y-87174480D02*
X94402200Y-92895220D01*
X123802200Y-87174480D02*
X123802200Y-92895220D01*
X153202200Y-87174480D02*
X153202200Y-92895220D01*
X122668740Y-49281020D02*
X123802200Y-50414480D01*
X152068740Y-49281020D02*
X153202200Y-50414480D01*
X93268740Y-86041020D02*
X94402200Y-87174480D01*
X122668740Y-86041020D02*
X123802200Y-87174480D01*
X152068740Y-86041020D02*
X153202200Y-87174480D01*
X121963800Y-48105720D02*
X121963800Y-49281020D01*
X151363800Y-48105720D02*
X151363800Y-49281020D01*
X92563800Y-84865720D02*
X92563800Y-86041020D01*
X121963800Y-84865720D02*
X121963800Y-86041020D01*
X151363800Y-84865720D02*
X151363800Y-86041020D01*
X121963800Y-49281020D02*
X122668740Y-49281020D01*
X151363800Y-49281020D02*
X152068740Y-49281020D01*
X92563800Y-86041020D02*
X93268740Y-86041020D01*
X121963800Y-86041020D02*
X122668740Y-86041020D01*
X151363800Y-86041020D02*
X152068740Y-86041020D01*
X112492700Y-63825720D02*
X113818000Y-63825720D01*
X115423800Y-63345720D02*
X114248500Y-63345720D01*
X114248500Y-63345720D02*
X113818000Y-63776220D01*
X113818000Y-63776220D02*
X113818000Y-63825720D01*
X141892700Y-63825720D02*
X143218000Y-63825720D01*
X171292700Y-63825720D02*
X172618000Y-63825720D01*
X112492700Y-100585720D02*
X113818000Y-100585720D01*
X141892700Y-100585720D02*
X143218000Y-100585720D01*
X171292700Y-100585720D02*
X172618000Y-100585720D01*
X143218000Y-63776220D02*
X143218000Y-63825720D01*
X172618000Y-63776220D02*
X172618000Y-63825720D01*
X113818000Y-100536220D02*
X113818000Y-100585720D01*
X143218000Y-100536220D02*
X143218000Y-100585720D01*
X172618000Y-100536220D02*
X172618000Y-100585720D01*
X144823800Y-63345720D02*
X143648500Y-63345720D01*
X174223800Y-63345720D02*
X173048500Y-63345720D01*
X115423800Y-100105720D02*
X114248500Y-100105720D01*
X144823800Y-100105720D02*
X143648500Y-100105720D01*
X174223800Y-100105720D02*
X173048500Y-100105720D01*
X143648500Y-63345720D02*
X143218000Y-63776220D01*
X173048500Y-63345720D02*
X172618000Y-63776220D01*
X114248500Y-100105720D02*
X113818000Y-100536220D01*
X143648500Y-100105720D02*
X143218000Y-100536220D01*
X173048500Y-100105720D02*
X172618000Y-100536220D01*
X112492700Y-64925720D02*
X113818000Y-64925720D01*
X115423800Y-65885720D02*
X114248500Y-65885720D01*
X114248500Y-65885720D02*
X113818000Y-65455220D01*
X113818000Y-65455220D02*
X113818000Y-64925720D01*
X144823800Y-65885720D02*
X143648500Y-65885720D01*
X174223800Y-65885720D02*
X173048500Y-65885720D01*
X115423800Y-102645720D02*
X114248500Y-102645720D01*
X144823800Y-102645720D02*
X143648500Y-102645720D01*
X174223800Y-102645720D02*
X173048500Y-102645720D01*
X143648500Y-65885720D02*
X143218000Y-65455220D01*
X173048500Y-65885720D02*
X172618000Y-65455220D01*
X114248500Y-102645720D02*
X113818000Y-102215220D01*
X143648500Y-102645720D02*
X143218000Y-102215220D01*
X173048500Y-102645720D02*
X172618000Y-102215220D01*
X141892700Y-64925720D02*
X143218000Y-64925720D01*
X171292700Y-64925720D02*
X172618000Y-64925720D01*
X112492700Y-101685720D02*
X113818000Y-101685720D01*
X141892700Y-101685720D02*
X143218000Y-101685720D01*
X171292700Y-101685720D02*
X172618000Y-101685720D01*
X143218000Y-65455220D02*
X143218000Y-64925720D01*
X172618000Y-65455220D02*
X172618000Y-64925720D01*
X113818000Y-102215220D02*
X113818000Y-101685720D01*
X143218000Y-102215220D02*
X143218000Y-101685720D01*
X172618000Y-102215220D02*
X172618000Y-101685720D01*
X115423800Y-67172840D02*
X115423800Y-68425720D01*
X114471120Y-67172840D02*
X115423800Y-67172840D01*
X113324000Y-66025720D02*
X114471120Y-67172840D01*
X112492700Y-66025720D02*
X113324000Y-66025720D01*
X141892700Y-66025720D02*
X142724000Y-66025720D01*
X171292700Y-66025720D02*
X172124000Y-66025720D01*
X112492700Y-102785720D02*
X113324000Y-102785720D01*
X141892700Y-102785720D02*
X142724000Y-102785720D01*
X171292700Y-102785720D02*
X172124000Y-102785720D01*
X142724000Y-66025720D02*
X143871120Y-67172840D01*
X172124000Y-66025720D02*
X173271120Y-67172840D01*
X113324000Y-102785720D02*
X114471120Y-103932840D01*
X142724000Y-102785720D02*
X143871120Y-103932840D01*
X172124000Y-102785720D02*
X173271120Y-103932840D01*
X143871120Y-67172840D02*
X144823800Y-67172840D01*
X173271120Y-67172840D02*
X174223800Y-67172840D01*
X114471120Y-103932840D02*
X115423800Y-103932840D01*
X143871120Y-103932840D02*
X144823800Y-103932840D01*
X173271120Y-103932840D02*
X174223800Y-103932840D01*
X144823800Y-67172840D02*
X144823800Y-68425720D01*
X174223800Y-67172840D02*
X174223800Y-68425720D01*
X115423800Y-103932840D02*
X115423800Y-105185720D01*
X144823800Y-103932840D02*
X144823800Y-105185720D01*
X174223800Y-103932840D02*
X174223800Y-105185720D01*
X111167400Y-67125720D02*
X112492700Y-67125720D01*
X109189520Y-70947280D02*
X109189520Y-69103600D01*
X109189520Y-69103600D02*
X111167400Y-67125720D01*
X138589520Y-70947280D02*
X138589520Y-69103600D01*
X167989520Y-70947280D02*
X167989520Y-69103600D01*
X109189520Y-107707280D02*
X109189520Y-105863600D01*
X138589520Y-107707280D02*
X138589520Y-105863600D01*
X167989520Y-107707280D02*
X167989520Y-105863600D01*
X140567400Y-67125720D02*
X141892700Y-67125720D01*
X169967400Y-67125720D02*
X171292700Y-67125720D01*
X111167400Y-103885720D02*
X112492700Y-103885720D01*
X140567400Y-103885720D02*
X141892700Y-103885720D01*
X169967400Y-103885720D02*
X171292700Y-103885720D01*
X138589520Y-69103600D02*
X140567400Y-67125720D01*
X167989520Y-69103600D02*
X169967400Y-67125720D01*
X109189520Y-105863600D02*
X111167400Y-103885720D01*
X138589520Y-105863600D02*
X140567400Y-103885720D01*
X167989520Y-105863600D02*
X169967400Y-103885720D01*
X110920120Y-70425720D02*
X112492700Y-70425720D01*
X110459520Y-70886320D02*
X110920120Y-70425720D01*
X110459520Y-77874440D02*
X110459520Y-70886320D01*
X114919900Y-82334820D02*
X110459520Y-77874440D01*
X115884600Y-82334820D02*
X114919900Y-82334820D01*
X116609500Y-81609920D02*
X115884600Y-82334820D01*
X116609500Y-79771420D02*
X116609500Y-81609920D01*
X115423800Y-78585720D02*
X116609500Y-79771420D01*
X139859520Y-70886320D02*
X140320120Y-70425720D01*
X169259520Y-70886320D02*
X169720120Y-70425720D01*
X110459520Y-107646320D02*
X110920120Y-107185720D01*
X139859520Y-107646320D02*
X140320120Y-107185720D01*
X169259520Y-107646320D02*
X169720120Y-107185720D01*
X139859520Y-77874440D02*
X139859520Y-70886320D01*
X169259520Y-77874440D02*
X169259520Y-70886320D01*
X110459520Y-114634440D02*
X110459520Y-107646320D01*
X139859520Y-114634440D02*
X139859520Y-107646320D01*
X169259520Y-114634440D02*
X169259520Y-107646320D01*
X145284600Y-82334820D02*
X144319900Y-82334820D01*
X174684600Y-82334820D02*
X173719900Y-82334820D01*
X115884600Y-119094820D02*
X114919900Y-119094820D01*
X145284600Y-119094820D02*
X144319900Y-119094820D01*
X174684600Y-119094820D02*
X173719900Y-119094820D01*
X144823800Y-78585720D02*
X146009500Y-79771420D01*
X174223800Y-78585720D02*
X175409500Y-79771420D01*
X115423800Y-115345720D02*
X116609500Y-116531420D01*
X144823800Y-115345720D02*
X146009500Y-116531420D01*
X174223800Y-115345720D02*
X175409500Y-116531420D01*
X146009500Y-81609920D02*
X145284600Y-82334820D01*
X175409500Y-81609920D02*
X174684600Y-82334820D01*
X116609500Y-118369920D02*
X115884600Y-119094820D01*
X146009500Y-118369920D02*
X145284600Y-119094820D01*
X175409500Y-118369920D02*
X174684600Y-119094820D01*
X146009500Y-79771420D02*
X146009500Y-81609920D01*
X175409500Y-79771420D02*
X175409500Y-81609920D01*
X116609500Y-116531420D02*
X116609500Y-118369920D01*
X146009500Y-116531420D02*
X146009500Y-118369920D01*
X175409500Y-116531420D02*
X175409500Y-118369920D01*
X140320120Y-70425720D02*
X141892700Y-70425720D01*
X169720120Y-70425720D02*
X171292700Y-70425720D01*
X110920120Y-107185720D02*
X112492700Y-107185720D01*
X140320120Y-107185720D02*
X141892700Y-107185720D01*
X169720120Y-107185720D02*
X171292700Y-107185720D01*
X144319900Y-82334820D02*
X139859520Y-77874440D01*
X173719900Y-82334820D02*
X169259520Y-77874440D01*
X114919900Y-119094820D02*
X110459520Y-114634440D01*
X144319900Y-119094820D02*
X139859520Y-114634440D01*
X173719900Y-119094820D02*
X169259520Y-114634440D01*
X112492700Y-77821700D02*
X112492700Y-71525720D01*
X114621420Y-79950420D02*
X112492700Y-77821700D01*
X115423800Y-79950420D02*
X114621420Y-79950420D01*
X115423800Y-81125720D02*
X115423800Y-79950420D01*
X144021420Y-79950420D02*
X141892700Y-77821700D01*
X173421420Y-79950420D02*
X171292700Y-77821700D01*
X114621420Y-116710420D02*
X112492700Y-114581700D01*
X144021420Y-116710420D02*
X141892700Y-114581700D01*
X173421420Y-116710420D02*
X171292700Y-114581700D01*
X141892700Y-77821700D02*
X141892700Y-71525720D01*
X171292700Y-77821700D02*
X171292700Y-71525720D01*
X112492700Y-114581700D02*
X112492700Y-108285720D01*
X141892700Y-114581700D02*
X141892700Y-108285720D01*
X171292700Y-114581700D02*
X171292700Y-108285720D01*
X144823800Y-79950420D02*
X144021420Y-79950420D01*
X174223800Y-79950420D02*
X173421420Y-79950420D01*
X115423800Y-116710420D02*
X114621420Y-116710420D01*
X144823800Y-116710420D02*
X144021420Y-116710420D01*
X174223800Y-116710420D02*
X173421420Y-116710420D01*
X144823800Y-81125720D02*
X144823800Y-79950420D01*
X174223800Y-81125720D02*
X174223800Y-79950420D01*
X115423800Y-117885720D02*
X115423800Y-116710420D01*
X144823800Y-117885720D02*
X144823800Y-116710420D01*
X174223800Y-117885720D02*
X174223800Y-116710420D01*
X93868240Y-76657200D02*
X93868240Y-70425720D01*
X93868240Y-70425720D02*
X95492700Y-70425720D01*
X93115020Y-77410420D02*
X93868240Y-76657200D01*
X92563800Y-77410420D02*
X93115020Y-77410420D01*
X92563800Y-78585720D02*
X92563800Y-77410420D01*
X123268240Y-70425720D02*
X124892700Y-70425720D01*
X152668240Y-70425720D02*
X154292700Y-70425720D01*
X93868240Y-107185720D02*
X95492700Y-107185720D01*
X123268240Y-107185720D02*
X124892700Y-107185720D01*
X152668240Y-107185720D02*
X154292700Y-107185720D01*
X121963800Y-77410420D02*
X122515020Y-77410420D01*
X151363800Y-77410420D02*
X151915020Y-77410420D01*
X92563800Y-114170420D02*
X93115020Y-114170420D01*
X121963800Y-114170420D02*
X122515020Y-114170420D01*
X151363800Y-114170420D02*
X151915020Y-114170420D01*
X121963800Y-78585720D02*
X121963800Y-77410420D01*
X151363800Y-78585720D02*
X151363800Y-77410420D01*
X92563800Y-115345720D02*
X92563800Y-114170420D01*
X121963800Y-115345720D02*
X121963800Y-114170420D01*
X151363800Y-115345720D02*
X151363800Y-114170420D01*
X122515020Y-77410420D02*
X123268240Y-76657200D01*
X151915020Y-77410420D02*
X152668240Y-76657200D01*
X93115020Y-114170420D02*
X93868240Y-113417200D01*
X122515020Y-114170420D02*
X123268240Y-113417200D01*
X151915020Y-114170420D02*
X152668240Y-113417200D01*
X123268240Y-76657200D02*
X123268240Y-70425720D01*
X152668240Y-76657200D02*
X152668240Y-70425720D01*
X93868240Y-113417200D02*
X93868240Y-107185720D01*
X123268240Y-113417200D02*
X123268240Y-107185720D01*
X152668240Y-113417200D02*
X152668240Y-107185720D01*
X96678100Y-75192120D02*
X96740800Y-75254820D01*
X96678100Y-72628140D02*
X96678100Y-75192120D01*
X97337880Y-71968360D02*
X96678100Y-72628140D01*
X97337880Y-69164200D02*
X97337880Y-71968360D01*
X95654220Y-69164200D02*
X97337880Y-69164200D01*
X95492700Y-69325720D02*
X95654220Y-69164200D01*
X126078100Y-75192120D02*
X126140800Y-75254820D01*
X155478100Y-75192120D02*
X155540800Y-75254820D01*
X96678100Y-111952120D02*
X96740800Y-112014820D01*
X126078100Y-111952120D02*
X126140800Y-112014820D01*
X155478100Y-111952120D02*
X155540800Y-112014820D01*
X126078100Y-72628140D02*
X126078100Y-75192120D01*
X155478100Y-72628140D02*
X155478100Y-75192120D01*
X96678100Y-109388140D02*
X96678100Y-111952120D01*
X126078100Y-109388140D02*
X126078100Y-111952120D01*
X155478100Y-109388140D02*
X155478100Y-111952120D01*
X126737880Y-71968360D02*
X126078100Y-72628140D01*
X156137880Y-71968360D02*
X155478100Y-72628140D01*
X97337880Y-108728360D02*
X96678100Y-109388140D01*
X126737880Y-108728360D02*
X126078100Y-109388140D01*
X156137880Y-108728360D02*
X155478100Y-109388140D01*
X126737880Y-69164200D02*
X126737880Y-71968360D01*
X156137880Y-69164200D02*
X156137880Y-71968360D01*
X97337880Y-105924200D02*
X97337880Y-108728360D01*
X126737880Y-105924200D02*
X126737880Y-108728360D01*
X156137880Y-105924200D02*
X156137880Y-108728360D01*
X124892700Y-69325720D02*
X125054220Y-69164200D01*
X154292700Y-69325720D02*
X154454220Y-69164200D01*
X95492700Y-106085720D02*
X95654220Y-105924200D01*
X124892700Y-106085720D02*
X125054220Y-105924200D01*
X154292700Y-106085720D02*
X154454220Y-105924200D01*
X125054220Y-69164200D02*
X126737880Y-69164200D01*
X154454220Y-69164200D02*
X156137880Y-69164200D01*
X95654220Y-105924200D02*
X97337880Y-105924200D01*
X125054220Y-105924200D02*
X126737880Y-105924200D01*
X154454220Y-105924200D02*
X156137880Y-105924200D01*
X98165920Y-69194680D02*
X97196960Y-68225720D01*
X98165920Y-73720960D02*
X98165920Y-69194680D01*
X97196960Y-68225720D02*
X95492700Y-68225720D01*
X97800160Y-74086720D02*
X98165920Y-73720960D01*
X126596960Y-68225720D02*
X124892700Y-68225720D01*
X155996960Y-68225720D02*
X154292700Y-68225720D01*
X97196960Y-104985720D02*
X95492700Y-104985720D01*
X126596960Y-104985720D02*
X124892700Y-104985720D01*
X155996960Y-104985720D02*
X154292700Y-104985720D01*
X127200160Y-74086720D02*
X127565920Y-73720960D01*
X156600160Y-74086720D02*
X156965920Y-73720960D01*
X97800160Y-110846720D02*
X98165920Y-110480960D01*
X127200160Y-110846720D02*
X127565920Y-110480960D01*
X156600160Y-110846720D02*
X156965920Y-110480960D01*
X127565920Y-73720960D02*
X127565920Y-69194680D01*
X156965920Y-73720960D02*
X156965920Y-69194680D01*
X98165920Y-110480960D02*
X98165920Y-105954680D01*
X127565920Y-110480960D02*
X127565920Y-105954680D01*
X156965920Y-110480960D02*
X156965920Y-105954680D01*
X127565920Y-69194680D02*
X126596960Y-68225720D01*
X156965920Y-69194680D02*
X155996960Y-68225720D01*
X98165920Y-105954680D02*
X97196960Y-104985720D01*
X127565920Y-105954680D02*
X126596960Y-104985720D01*
X156965920Y-105954680D02*
X155996960Y-104985720D01*
X92563800Y-69790420D02*
X92563800Y-70965720D01*
X93165820Y-69790420D02*
X92563800Y-69790420D01*
X93853000Y-69103240D02*
X93165820Y-69790420D01*
X93853000Y-67993420D02*
X93853000Y-69103240D01*
X94720700Y-67125720D02*
X93853000Y-67993420D01*
X95492700Y-67125720D02*
X94720700Y-67125720D01*
X124892700Y-67125720D02*
X124120700Y-67125720D01*
X154292700Y-67125720D02*
X153520700Y-67125720D01*
X95492700Y-103885720D02*
X94720700Y-103885720D01*
X124892700Y-103885720D02*
X124120700Y-103885720D01*
X154292700Y-103885720D02*
X153520700Y-103885720D01*
X121963800Y-69790420D02*
X121963800Y-70965720D01*
X151363800Y-69790420D02*
X151363800Y-70965720D01*
X92563800Y-106550420D02*
X92563800Y-107725720D01*
X121963800Y-106550420D02*
X121963800Y-107725720D01*
X151363800Y-106550420D02*
X151363800Y-107725720D01*
X123253000Y-67993420D02*
X123253000Y-69103240D01*
X152653000Y-67993420D02*
X152653000Y-69103240D01*
X93853000Y-104753420D02*
X93853000Y-105863240D01*
X123253000Y-104753420D02*
X123253000Y-105863240D01*
X152653000Y-104753420D02*
X152653000Y-105863240D01*
X122565820Y-69790420D02*
X121963800Y-69790420D01*
X151965820Y-69790420D02*
X151363800Y-69790420D01*
X93165820Y-106550420D02*
X92563800Y-106550420D01*
X122565820Y-106550420D02*
X121963800Y-106550420D01*
X151965820Y-106550420D02*
X151363800Y-106550420D01*
X124120700Y-67125720D02*
X123253000Y-67993420D01*
X153520700Y-67125720D02*
X152653000Y-67993420D01*
X94720700Y-103885720D02*
X93853000Y-104753420D01*
X124120700Y-103885720D02*
X123253000Y-104753420D01*
X153520700Y-103885720D02*
X152653000Y-104753420D01*
X123253000Y-69103240D02*
X122565820Y-69790420D01*
X152653000Y-69103240D02*
X151965820Y-69790420D01*
X93853000Y-105863240D02*
X93165820Y-106550420D01*
X123253000Y-105863240D02*
X122565820Y-106550420D01*
X152653000Y-105863240D02*
X151965820Y-106550420D01*
X92563800Y-68425720D02*
X92563800Y-67250420D01*
X92563800Y-67250420D02*
X93455600Y-67250420D01*
X93455600Y-67250420D02*
X94680300Y-66025720D01*
X94680300Y-66025720D02*
X95492700Y-66025720D01*
X121963800Y-68425720D02*
X121963800Y-67250420D01*
X151363800Y-68425720D02*
X151363800Y-67250420D01*
X92563800Y-105185720D02*
X92563800Y-104010420D01*
X121963800Y-105185720D02*
X121963800Y-104010420D01*
X151363800Y-105185720D02*
X151363800Y-104010420D01*
X124080300Y-66025720D02*
X124892700Y-66025720D01*
X153480300Y-66025720D02*
X154292700Y-66025720D01*
X94680300Y-102785720D02*
X95492700Y-102785720D01*
X124080300Y-102785720D02*
X124892700Y-102785720D01*
X153480300Y-102785720D02*
X154292700Y-102785720D01*
X122855600Y-67250420D02*
X124080300Y-66025720D01*
X152255600Y-67250420D02*
X153480300Y-66025720D01*
X93455600Y-104010420D02*
X94680300Y-102785720D01*
X122855600Y-104010420D02*
X124080300Y-102785720D01*
X152255600Y-104010420D02*
X153480300Y-102785720D01*
X121963800Y-67250420D02*
X122855600Y-67250420D01*
X151363800Y-67250420D02*
X152255600Y-67250420D01*
X92563800Y-104010420D02*
X93455600Y-104010420D01*
X121963800Y-104010420D02*
X122855600Y-104010420D01*
X151363800Y-104010420D02*
X152255600Y-104010420D01*
X95492700Y-64925720D02*
X94167400Y-64925720D01*
X92563800Y-65885720D02*
X93739100Y-65885720D01*
X93739100Y-65885720D02*
X94167400Y-65457420D01*
X94167400Y-65457420D02*
X94167400Y-64925720D01*
X123139100Y-65885720D02*
X123567400Y-65457420D01*
X152539100Y-65885720D02*
X152967400Y-65457420D01*
X93739100Y-102645720D02*
X94167400Y-102217420D01*
X123139100Y-102645720D02*
X123567400Y-102217420D01*
X152539100Y-102645720D02*
X152967400Y-102217420D01*
X124892700Y-64925720D02*
X123567400Y-64925720D01*
X154292700Y-64925720D02*
X152967400Y-64925720D01*
X95492700Y-101685720D02*
X94167400Y-101685720D01*
X124892700Y-101685720D02*
X123567400Y-101685720D01*
X154292700Y-101685720D02*
X152967400Y-101685720D01*
X123567400Y-65457420D02*
X123567400Y-64925720D01*
X152967400Y-65457420D02*
X152967400Y-64925720D01*
X94167400Y-102217420D02*
X94167400Y-101685720D01*
X123567400Y-102217420D02*
X123567400Y-101685720D01*
X152967400Y-102217420D02*
X152967400Y-101685720D01*
X121963800Y-65885720D02*
X123139100Y-65885720D01*
X151363800Y-65885720D02*
X152539100Y-65885720D01*
X92563800Y-102645720D02*
X93739100Y-102645720D01*
X121963800Y-102645720D02*
X123139100Y-102645720D01*
X151363800Y-102645720D02*
X152539100Y-102645720D01*
X95492700Y-63825720D02*
X94167400Y-63825720D01*
X92563800Y-63345720D02*
X93739100Y-63345720D01*
X93739100Y-63345720D02*
X94167400Y-63774020D01*
X94167400Y-63774020D02*
X94167400Y-63825720D01*
X124892700Y-63825720D02*
X123567400Y-63825720D01*
X154292700Y-63825720D02*
X152967400Y-63825720D01*
X95492700Y-100585720D02*
X94167400Y-100585720D01*
X124892700Y-100585720D02*
X123567400Y-100585720D01*
X154292700Y-100585720D02*
X152967400Y-100585720D01*
X123139100Y-63345720D02*
X123567400Y-63774020D01*
X152539100Y-63345720D02*
X152967400Y-63774020D01*
X93739100Y-100105720D02*
X94167400Y-100534020D01*
X123139100Y-100105720D02*
X123567400Y-100534020D01*
X152539100Y-100105720D02*
X152967400Y-100534020D01*
X123567400Y-63774020D02*
X123567400Y-63825720D01*
X152967400Y-63774020D02*
X152967400Y-63825720D01*
X94167400Y-100534020D02*
X94167400Y-100585720D01*
X123567400Y-100534020D02*
X123567400Y-100585720D01*
X152967400Y-100534020D02*
X152967400Y-100585720D01*
X121963800Y-63345720D02*
X123139100Y-63345720D01*
X151363800Y-63345720D02*
X152539100Y-63345720D01*
X92563800Y-100105720D02*
X93739100Y-100105720D01*
X121963800Y-100105720D02*
X123139100Y-100105720D01*
X151363800Y-100105720D02*
X152539100Y-100105720D01*
X92563800Y-60805720D02*
X92563800Y-61981020D01*
X95492700Y-62725720D02*
X94167400Y-62725720D01*
X92563800Y-61981020D02*
X93422700Y-61981020D01*
X93422700Y-61981020D02*
X94167400Y-62725720D01*
X124892700Y-62725720D02*
X123567400Y-62725720D01*
X154292700Y-62725720D02*
X152967400Y-62725720D01*
X95492700Y-99485720D02*
X94167400Y-99485720D01*
X124892700Y-99485720D02*
X123567400Y-99485720D01*
X154292700Y-99485720D02*
X152967400Y-99485720D01*
X122822700Y-61981020D02*
X123567400Y-62725720D01*
X152222700Y-61981020D02*
X152967400Y-62725720D01*
X93422700Y-98741020D02*
X94167400Y-99485720D01*
X122822700Y-98741020D02*
X123567400Y-99485720D01*
X152222700Y-98741020D02*
X152967400Y-99485720D01*
X121963800Y-60805720D02*
X121963800Y-61981020D01*
X151363800Y-60805720D02*
X151363800Y-61981020D01*
X92563800Y-97565720D02*
X92563800Y-98741020D01*
X121963800Y-97565720D02*
X121963800Y-98741020D01*
X151363800Y-97565720D02*
X151363800Y-98741020D01*
X121963800Y-61981020D02*
X122822700Y-61981020D01*
X151363800Y-61981020D02*
X152222700Y-61981020D01*
X92563800Y-98741020D02*
X93422700Y-98741020D01*
X121963800Y-98741020D02*
X122822700Y-98741020D01*
X151363800Y-98741020D02*
X152222700Y-98741020D01*
X94167400Y-61625720D02*
X95492700Y-61625720D01*
X94167400Y-60370160D02*
X94167400Y-61625720D01*
X93238260Y-59441020D02*
X94167400Y-60370160D01*
X92563800Y-59441020D02*
X93238260Y-59441020D01*
X92563800Y-58265720D02*
X92563800Y-59441020D01*
X123567400Y-60370160D02*
X123567400Y-61625720D01*
X152967400Y-60370160D02*
X152967400Y-61625720D01*
X94167400Y-97130160D02*
X94167400Y-98385720D01*
X123567400Y-97130160D02*
X123567400Y-98385720D01*
X152967400Y-97130160D02*
X152967400Y-98385720D01*
X121963800Y-58265720D02*
X121963800Y-59441020D01*
X151363800Y-58265720D02*
X151363800Y-59441020D01*
X92563800Y-95025720D02*
X92563800Y-96201020D01*
X121963800Y-95025720D02*
X121963800Y-96201020D01*
X151363800Y-95025720D02*
X151363800Y-96201020D01*
X122638260Y-59441020D02*
X123567400Y-60370160D01*
X152038260Y-59441020D02*
X152967400Y-60370160D01*
X93238260Y-96201020D02*
X94167400Y-97130160D01*
X122638260Y-96201020D02*
X123567400Y-97130160D01*
X152038260Y-96201020D02*
X152967400Y-97130160D01*
X121963800Y-59441020D02*
X122638260Y-59441020D01*
X151363800Y-59441020D02*
X152038260Y-59441020D01*
X92563800Y-96201020D02*
X93238260Y-96201020D01*
X121963800Y-96201020D02*
X122638260Y-96201020D01*
X151363800Y-96201020D02*
X152038260Y-96201020D01*
X123567400Y-61625720D02*
X124892700Y-61625720D01*
X152967400Y-61625720D02*
X154292700Y-61625720D01*
X94167400Y-98385720D02*
X95492700Y-98385720D01*
X123567400Y-98385720D02*
X124892700Y-98385720D01*
X152967400Y-98385720D02*
X154292700Y-98385720D01*
X96818000Y-60525720D02*
X95492700Y-60525720D01*
X98847520Y-58496200D02*
X96818000Y-60525720D01*
X99552760Y-58496200D02*
X98847520Y-58496200D01*
X128952760Y-58496200D02*
X128247520Y-58496200D01*
X158352760Y-58496200D02*
X157647520Y-58496200D01*
X99552760Y-95256200D02*
X98847520Y-95256200D01*
X128952760Y-95256200D02*
X128247520Y-95256200D01*
X158352760Y-95256200D02*
X157647520Y-95256200D01*
X126218000Y-60525720D02*
X124892700Y-60525720D01*
X155618000Y-60525720D02*
X154292700Y-60525720D01*
X96818000Y-97285720D02*
X95492700Y-97285720D01*
X126218000Y-97285720D02*
X124892700Y-97285720D01*
X155618000Y-97285720D02*
X154292700Y-97285720D01*
X128247520Y-58496200D02*
X126218000Y-60525720D01*
X157647520Y-58496200D02*
X155618000Y-60525720D01*
X98847520Y-95256200D02*
X96818000Y-97285720D01*
X128247520Y-95256200D02*
X126218000Y-97285720D01*
X157647520Y-95256200D02*
X155618000Y-97285720D01*
X98099880Y-58143840D02*
X96818000Y-59425720D01*
X96818000Y-59425720D02*
X95492700Y-59425720D01*
X98099880Y-57668160D02*
X98099880Y-58143840D01*
X127499880Y-58143840D02*
X126218000Y-59425720D01*
X156899880Y-58143840D02*
X155618000Y-59425720D01*
X98099880Y-94903840D02*
X96818000Y-96185720D01*
X127499880Y-94903840D02*
X126218000Y-96185720D01*
X156899880Y-94903840D02*
X155618000Y-96185720D01*
X127499880Y-57668160D02*
X127499880Y-58143840D01*
X156899880Y-57668160D02*
X156899880Y-58143840D01*
X98099880Y-94428160D02*
X98099880Y-94903840D01*
X127499880Y-94428160D02*
X127499880Y-94903840D01*
X156899880Y-94428160D02*
X156899880Y-94903840D01*
X126218000Y-59425720D02*
X124892700Y-59425720D01*
X155618000Y-59425720D02*
X154292700Y-59425720D01*
X96818000Y-96185720D02*
X95492700Y-96185720D01*
X126218000Y-96185720D02*
X124892700Y-96185720D01*
X155618000Y-96185720D02*
X154292700Y-96185720D01*
X113818000Y-61625720D02*
X112492700Y-61625720D01*
X113818000Y-60517440D02*
X113818000Y-61625720D01*
X114808000Y-59527440D02*
X113818000Y-60517440D01*
X115255040Y-59527440D02*
X114808000Y-59527440D01*
X115423800Y-59358680D02*
X115255040Y-59527440D01*
X115423800Y-58265720D02*
X115423800Y-59358680D01*
X143218000Y-60517440D02*
X143218000Y-61625720D01*
X172618000Y-60517440D02*
X172618000Y-61625720D01*
X113818000Y-97277440D02*
X113818000Y-98385720D01*
X143218000Y-97277440D02*
X143218000Y-98385720D01*
X172618000Y-97277440D02*
X172618000Y-98385720D01*
X144655040Y-59527440D02*
X144208000Y-59527440D01*
X174055040Y-59527440D02*
X173608000Y-59527440D01*
X115255040Y-96287440D02*
X114808000Y-96287440D01*
X144655040Y-96287440D02*
X144208000Y-96287440D01*
X174055040Y-96287440D02*
X173608000Y-96287440D01*
X144208000Y-59527440D02*
X143218000Y-60517440D01*
X173608000Y-59527440D02*
X172618000Y-60517440D01*
X114808000Y-96287440D02*
X113818000Y-97277440D01*
X144208000Y-96287440D02*
X143218000Y-97277440D01*
X173608000Y-96287440D02*
X172618000Y-97277440D01*
X143218000Y-61625720D02*
X141892700Y-61625720D01*
X172618000Y-61625720D02*
X171292700Y-61625720D01*
X113818000Y-98385720D02*
X112492700Y-98385720D01*
X143218000Y-98385720D02*
X141892700Y-98385720D01*
X172618000Y-98385720D02*
X171292700Y-98385720D01*
X144823800Y-59358680D02*
X144655040Y-59527440D01*
X174223800Y-59358680D02*
X174055040Y-59527440D01*
X115423800Y-96118680D02*
X115255040Y-96287440D01*
X144823800Y-96118680D02*
X144655040Y-96287440D01*
X174223800Y-96118680D02*
X174055040Y-96287440D01*
X144823800Y-58265720D02*
X144823800Y-59358680D01*
X174223800Y-58265720D02*
X174223800Y-59358680D01*
X115423800Y-95025720D02*
X115423800Y-96118680D01*
X144823800Y-95025720D02*
X144823800Y-96118680D01*
X174223800Y-95025720D02*
X174223800Y-96118680D01*
X111167400Y-60525720D02*
X112492700Y-60525720D01*
X108993900Y-58352220D02*
X111167400Y-60525720D01*
X108884720Y-58352220D02*
X108993900Y-58352220D01*
X138393900Y-58352220D02*
X140567400Y-60525720D01*
X167793900Y-58352220D02*
X169967400Y-60525720D01*
X108993900Y-95112220D02*
X111167400Y-97285720D01*
X138393900Y-95112220D02*
X140567400Y-97285720D01*
X167793900Y-95112220D02*
X169967400Y-97285720D01*
X138284720Y-58352220D02*
X138393900Y-58352220D01*
X167684720Y-58352220D02*
X167793900Y-58352220D01*
X108884720Y-95112220D02*
X108993900Y-95112220D01*
X138284720Y-95112220D02*
X138393900Y-95112220D01*
X167684720Y-95112220D02*
X167793900Y-95112220D01*
X140567400Y-60525720D02*
X141892700Y-60525720D01*
X169967400Y-60525720D02*
X171292700Y-60525720D01*
X111167400Y-97285720D02*
X112492700Y-97285720D01*
X140567400Y-97285720D02*
X141892700Y-97285720D01*
X169967400Y-97285720D02*
X171292700Y-97285720D01*
X111167400Y-58980560D02*
X111167400Y-59425720D01*
X109540040Y-57353200D02*
X111167400Y-58980560D01*
X111167400Y-59425720D02*
X112492700Y-59425720D01*
X140567400Y-58980560D02*
X140567400Y-59425720D01*
X169967400Y-58980560D02*
X169967400Y-59425720D01*
X111167400Y-95740560D02*
X111167400Y-96185720D01*
X140567400Y-95740560D02*
X140567400Y-96185720D01*
X169967400Y-95740560D02*
X169967400Y-96185720D01*
X138940040Y-57353200D02*
X140567400Y-58980560D01*
X168340040Y-57353200D02*
X169967400Y-58980560D01*
X109540040Y-94113200D02*
X111167400Y-95740560D01*
X138940040Y-94113200D02*
X140567400Y-95740560D01*
X168340040Y-94113200D02*
X169967400Y-95740560D01*
X140567400Y-59425720D02*
X141892700Y-59425720D01*
X169967400Y-59425720D02*
X171292700Y-59425720D01*
X111167400Y-96185720D02*
X112492700Y-96185720D01*
X140567400Y-96185720D02*
X141892700Y-96185720D01*
X169967400Y-96185720D02*
X171292700Y-96185720D01*
X113818000Y-58325720D02*
X112492700Y-58325720D01*
X113818000Y-52775520D02*
X113818000Y-58325720D01*
X114772500Y-51821020D02*
X113818000Y-52775520D01*
X115423800Y-51821020D02*
X114772500Y-51821020D01*
X115423800Y-50645720D02*
X115423800Y-51821020D01*
X144823800Y-50645720D02*
X144823800Y-51821020D01*
X174223800Y-50645720D02*
X174223800Y-51821020D01*
X115423800Y-87405720D02*
X115423800Y-88581020D01*
X144823800Y-87405720D02*
X144823800Y-88581020D01*
X174223800Y-87405720D02*
X174223800Y-88581020D01*
X143218000Y-52775520D02*
X143218000Y-58325720D01*
X172618000Y-52775520D02*
X172618000Y-58325720D01*
X113818000Y-89535520D02*
X113818000Y-95085720D01*
X143218000Y-89535520D02*
X143218000Y-95085720D01*
X172618000Y-89535520D02*
X172618000Y-95085720D01*
X143218000Y-58325720D02*
X141892700Y-58325720D01*
X172618000Y-58325720D02*
X171292700Y-58325720D01*
X113818000Y-95085720D02*
X112492700Y-95085720D01*
X143218000Y-95085720D02*
X141892700Y-95085720D01*
X172618000Y-95085720D02*
X171292700Y-95085720D01*
X144172500Y-51821020D02*
X143218000Y-52775520D01*
X173572500Y-51821020D02*
X172618000Y-52775520D01*
X114772500Y-88581020D02*
X113818000Y-89535520D01*
X144172500Y-88581020D02*
X143218000Y-89535520D01*
X173572500Y-88581020D02*
X172618000Y-89535520D01*
X144823800Y-51821020D02*
X144172500Y-51821020D01*
X174223800Y-51821020D02*
X173572500Y-51821020D01*
X115423800Y-88581020D02*
X114772500Y-88581020D01*
X144823800Y-88581020D02*
X144172500Y-88581020D01*
X174223800Y-88581020D02*
X173572500Y-88581020D01*
X95492700Y-77791180D02*
X95492700Y-71525720D01*
X93333460Y-79950420D02*
X95492700Y-77791180D01*
X92563800Y-79950420D02*
X93333460Y-79950420D01*
X92563800Y-81125720D02*
X92563800Y-79950420D01*
X124892700Y-77791180D02*
X124892700Y-71525720D01*
X154292700Y-77791180D02*
X154292700Y-71525720D01*
X95492700Y-114551180D02*
X95492700Y-108285720D01*
X124892700Y-114551180D02*
X124892700Y-108285720D01*
X154292700Y-114551180D02*
X154292700Y-108285720D01*
X122733460Y-79950420D02*
X124892700Y-77791180D01*
X152133460Y-79950420D02*
X154292700Y-77791180D01*
X93333460Y-116710420D02*
X95492700Y-114551180D01*
X122733460Y-116710420D02*
X124892700Y-114551180D01*
X152133460Y-116710420D02*
X154292700Y-114551180D01*
X121963800Y-79950420D02*
X122733460Y-79950420D01*
X151363800Y-79950420D02*
X152133460Y-79950420D01*
X92563800Y-116710420D02*
X93333460Y-116710420D01*
X121963800Y-116710420D02*
X122733460Y-116710420D01*
X151363800Y-116710420D02*
X152133460Y-116710420D01*
X121963800Y-81125720D02*
X121963800Y-79950420D01*
X151363800Y-81125720D02*
X151363800Y-79950420D01*
X92563800Y-117885720D02*
X92563800Y-116710420D01*
X121963800Y-117885720D02*
X121963800Y-116710420D01*
X151363800Y-117885720D02*
X151363800Y-116710420D01*
X113818000Y-69325720D02*
X112492700Y-69325720D01*
X113818000Y-73899360D02*
X113818000Y-69325720D01*
X114789060Y-74870420D02*
X113818000Y-73899360D01*
X115423800Y-74870420D02*
X114789060Y-74870420D01*
X115423800Y-76045720D02*
X115423800Y-74870420D01*
X143218000Y-69325720D02*
X141892700Y-69325720D01*
X172618000Y-69325720D02*
X171292700Y-69325720D01*
X113818000Y-106085720D02*
X112492700Y-106085720D01*
X143218000Y-106085720D02*
X141892700Y-106085720D01*
X172618000Y-106085720D02*
X171292700Y-106085720D01*
X143218000Y-73899360D02*
X143218000Y-69325720D01*
X172618000Y-73899360D02*
X172618000Y-69325720D01*
X113818000Y-110659360D02*
X113818000Y-106085720D01*
X143218000Y-110659360D02*
X143218000Y-106085720D01*
X172618000Y-110659360D02*
X172618000Y-106085720D01*
X144823800Y-74870420D02*
X144189060Y-74870420D01*
X174223800Y-74870420D02*
X173589060Y-74870420D01*
X115423800Y-111630420D02*
X114789060Y-111630420D01*
X144823800Y-111630420D02*
X144189060Y-111630420D01*
X174223800Y-111630420D02*
X173589060Y-111630420D01*
X144823800Y-76045720D02*
X144823800Y-74870420D01*
X174223800Y-76045720D02*
X174223800Y-74870420D01*
X115423800Y-112805720D02*
X115423800Y-111630420D01*
X144823800Y-112805720D02*
X144823800Y-111630420D01*
X174223800Y-112805720D02*
X174223800Y-111630420D01*
X144189060Y-74870420D02*
X143218000Y-73899360D01*
X173589060Y-74870420D02*
X172618000Y-73899360D01*
X114789060Y-111630420D02*
X113818000Y-110659360D01*
X144189060Y-111630420D02*
X143218000Y-110659360D01*
X173589060Y-111630420D02*
X172618000Y-110659360D01*
X114086640Y-68320920D02*
X113991440Y-68225720D01*
X114843560Y-69707760D02*
X114086640Y-68950840D01*
X115830640Y-69707760D02*
X114843560Y-69707760D01*
X116707920Y-70585040D02*
X115830640Y-69707760D01*
X116707920Y-71744840D02*
X116707920Y-70585040D01*
X113991440Y-68225720D02*
X112492700Y-68225720D01*
X115423800Y-73028960D02*
X116707920Y-71744840D01*
X114086640Y-68950840D02*
X114086640Y-68320920D01*
X115423800Y-73505720D02*
X115423800Y-73028960D01*
X145230640Y-69707760D02*
X144243560Y-69707760D01*
X174630640Y-69707760D02*
X173643560Y-69707760D01*
X115830640Y-106467760D02*
X114843560Y-106467760D01*
X145230640Y-106467760D02*
X144243560Y-106467760D01*
X174630640Y-106467760D02*
X173643560Y-106467760D01*
X143486640Y-68320920D02*
X143391440Y-68225720D01*
X172886640Y-68320920D02*
X172791440Y-68225720D01*
X114086640Y-105080920D02*
X113991440Y-104985720D01*
X143486640Y-105080920D02*
X143391440Y-104985720D01*
X172886640Y-105080920D02*
X172791440Y-104985720D01*
X144243560Y-69707760D02*
X143486640Y-68950840D01*
X173643560Y-69707760D02*
X172886640Y-68950840D01*
X114843560Y-106467760D02*
X114086640Y-105710840D01*
X144243560Y-106467760D02*
X143486640Y-105710840D01*
X173643560Y-106467760D02*
X172886640Y-105710840D01*
X143391440Y-68225720D02*
X141892700Y-68225720D01*
X172791440Y-68225720D02*
X171292700Y-68225720D01*
X113991440Y-104985720D02*
X112492700Y-104985720D01*
X143391440Y-104985720D02*
X141892700Y-104985720D01*
X172791440Y-104985720D02*
X171292700Y-104985720D01*
X146107920Y-70585040D02*
X145230640Y-69707760D01*
X175507920Y-70585040D02*
X174630640Y-69707760D01*
X116707920Y-107345040D02*
X115830640Y-106467760D01*
X146107920Y-107345040D02*
X145230640Y-106467760D01*
X175507920Y-107345040D02*
X174630640Y-106467760D01*
X146107920Y-71744840D02*
X146107920Y-70585040D01*
X175507920Y-71744840D02*
X175507920Y-70585040D01*
X116707920Y-108504840D02*
X116707920Y-107345040D01*
X146107920Y-108504840D02*
X146107920Y-107345040D01*
X175507920Y-108504840D02*
X175507920Y-107345040D01*
X144823800Y-73028960D02*
X146107920Y-71744840D01*
X174223800Y-73028960D02*
X175507920Y-71744840D01*
X115423800Y-109788960D02*
X116707920Y-108504840D01*
X144823800Y-109788960D02*
X146107920Y-108504840D01*
X174223800Y-109788960D02*
X175507920Y-108504840D01*
X143486640Y-68950840D02*
X143486640Y-68320920D01*
X172886640Y-68950840D02*
X172886640Y-68320920D01*
X114086640Y-105710840D02*
X114086640Y-105080920D01*
X143486640Y-105710840D02*
X143486640Y-105080920D01*
X172886640Y-105710840D02*
X172886640Y-105080920D01*
X144823800Y-73505720D02*
X144823800Y-73028960D01*
X174223800Y-73505720D02*
X174223800Y-73028960D01*
X115423800Y-110265720D02*
X115423800Y-109788960D01*
X144823800Y-110265720D02*
X144823800Y-109788960D01*
X174223800Y-110265720D02*
X174223800Y-109788960D01*
X113818000Y-62725720D02*
X112492700Y-62725720D01*
X114481360Y-62062360D02*
X113818000Y-62725720D01*
X115423800Y-62062360D02*
X114481360Y-62062360D01*
X115423800Y-60805720D02*
X115423800Y-62062360D01*
X143881360Y-62062360D02*
X143218000Y-62725720D01*
X173281360Y-62062360D02*
X172618000Y-62725720D01*
X114481360Y-98822360D02*
X113818000Y-99485720D01*
X143881360Y-98822360D02*
X143218000Y-99485720D01*
X173281360Y-98822360D02*
X172618000Y-99485720D01*
X143218000Y-62725720D02*
X141892700Y-62725720D01*
X172618000Y-62725720D02*
X171292700Y-62725720D01*
X113818000Y-99485720D02*
X112492700Y-99485720D01*
X143218000Y-99485720D02*
X141892700Y-99485720D01*
X172618000Y-99485720D02*
X171292700Y-99485720D01*
X144823800Y-62062360D02*
X143881360Y-62062360D01*
X174223800Y-62062360D02*
X173281360Y-62062360D01*
X115423800Y-98822360D02*
X114481360Y-98822360D01*
X144823800Y-98822360D02*
X143881360Y-98822360D01*
X174223800Y-98822360D02*
X173281360Y-98822360D01*
X144823800Y-60805720D02*
X144823800Y-62062360D01*
X174223800Y-60805720D02*
X174223800Y-62062360D01*
X115423800Y-97565720D02*
X115423800Y-98822360D01*
X144823800Y-97565720D02*
X144823800Y-98822360D01*
X174223800Y-97565720D02*
X174223800Y-98822360D01*
X113035500Y-56682920D02*
X112492700Y-57225720D01*
X113035500Y-50987540D02*
X113035500Y-56682920D01*
X114742020Y-49281020D02*
X113035500Y-50987540D01*
X115423800Y-49281020D02*
X114742020Y-49281020D01*
X115423800Y-48105720D02*
X115423800Y-49281020D01*
X142435500Y-50987540D02*
X142435500Y-56682920D01*
X171835500Y-50987540D02*
X171835500Y-56682920D01*
X113035500Y-87747540D02*
X113035500Y-93442920D01*
X142435500Y-87747540D02*
X142435500Y-93442920D01*
X171835500Y-87747540D02*
X171835500Y-93442920D01*
X144142020Y-49281020D02*
X142435500Y-50987540D01*
X173542020Y-49281020D02*
X171835500Y-50987540D01*
X114742020Y-86041020D02*
X113035500Y-87747540D01*
X144142020Y-86041020D02*
X142435500Y-87747540D01*
X173542020Y-86041020D02*
X171835500Y-87747540D01*
X144823800Y-49281020D02*
X144142020Y-49281020D01*
X174223800Y-49281020D02*
X173542020Y-49281020D01*
X115423800Y-86041020D02*
X114742020Y-86041020D01*
X144823800Y-86041020D02*
X144142020Y-86041020D01*
X174223800Y-86041020D02*
X173542020Y-86041020D01*
X144823800Y-48105720D02*
X144823800Y-49281020D01*
X174223800Y-48105720D02*
X174223800Y-49281020D01*
X115423800Y-84865720D02*
X115423800Y-86041020D01*
X144823800Y-84865720D02*
X144823800Y-86041020D01*
X174223800Y-84865720D02*
X174223800Y-86041020D01*
X142435500Y-56682920D02*
X141892700Y-57225720D01*
X171835500Y-56682920D02*
X171292700Y-57225720D01*
X113035500Y-93442920D02*
X112492700Y-93985720D01*
X142435500Y-93442920D02*
X141892700Y-93985720D01*
X171835500Y-93442920D02*
X171292700Y-93985720D01*
M02*
