M48
; DRILL file {KiCad 5.1.5+dfsg1-2build2} date dom 21 ago 2022 19:05:53
; FORMAT={-:-/ absolute / metric / decimal}
; #@! TF.CreationDate,2022-08-21T19:05:53-05:00
; #@! TF.GenerationSoftware,Kicad,Pcbnew,5.1.5+dfsg1-2build2
; #@! TF.FileFunction,Plated,1,2,PTH
FMAT,2
METRIC
T1C0.400
T2C1.000
%
G90
G05
T1
X96.741Y-75.255
X96.741Y-112.015
X97.8Y-74.087
X97.8Y-110.847
X98.1Y-57.668
X98.1Y-94.428
X99.553Y-58.496
X99.553Y-95.256
X108.885Y-58.352
X108.885Y-95.112
X109.19Y-70.947
X109.19Y-107.707
X109.54Y-57.353
X109.54Y-94.113
X126.141Y-75.255
X126.141Y-112.015
X127.2Y-74.087
X127.2Y-110.847
X127.5Y-57.668
X127.5Y-94.428
X128.953Y-58.496
X128.953Y-95.256
X138.285Y-58.352
X138.285Y-95.112
X138.59Y-70.947
X138.59Y-107.707
X138.94Y-57.353
X138.94Y-94.113
X155.541Y-75.255
X155.541Y-112.015
X156.6Y-74.087
X156.6Y-110.847
X156.9Y-57.668
X156.9Y-94.428
X158.353Y-58.496
X158.353Y-95.256
X167.685Y-58.352
X167.685Y-95.112
X167.99Y-70.947
X167.99Y-107.707
X168.34Y-57.353
X168.34Y-94.113
T2
X151.364Y-48.106
X151.364Y-50.646
X151.364Y-53.186
X151.364Y-55.726
X151.364Y-58.266
X151.364Y-60.806
X151.364Y-63.346
X151.364Y-65.886
X151.364Y-68.426
X151.364Y-70.966
X151.364Y-73.506
X151.364Y-76.046
X151.364Y-78.586
X151.364Y-81.126
X121.964Y-48.106
X121.964Y-50.646
X121.964Y-53.186
X121.964Y-55.726
X121.964Y-58.266
X121.964Y-60.806
X121.964Y-63.346
X121.964Y-65.886
X121.964Y-68.426
X121.964Y-70.966
X121.964Y-73.506
X121.964Y-76.046
X121.964Y-78.586
X121.964Y-81.126
X174.224Y-48.106
X174.224Y-50.646
X174.224Y-53.186
X174.224Y-55.726
X174.224Y-58.266
X174.224Y-60.806
X174.224Y-63.346
X174.224Y-65.886
X174.224Y-68.426
X174.224Y-70.966
X174.224Y-73.506
X174.224Y-76.046
X174.224Y-78.586
X174.224Y-81.126
X121.964Y-84.866
X121.964Y-87.406
X121.964Y-89.946
X121.964Y-92.486
X121.964Y-95.026
X121.964Y-97.566
X121.964Y-100.106
X121.964Y-102.646
X121.964Y-105.186
X121.964Y-107.726
X121.964Y-110.266
X121.964Y-112.806
X121.964Y-115.346
X121.964Y-117.886
X147.364Y-84.866
X147.364Y-87.406
X147.364Y-89.946
X147.364Y-92.486
X147.364Y-95.026
X147.364Y-97.566
X147.364Y-100.106
X147.364Y-102.646
X147.364Y-105.186
X147.364Y-107.726
X147.364Y-110.266
X147.364Y-112.806
X147.364Y-115.346
X147.364Y-117.886
X147.364Y-48.106
X147.364Y-50.646
X147.364Y-53.186
X147.364Y-55.726
X147.364Y-58.266
X147.364Y-60.806
X147.364Y-63.346
X147.364Y-65.886
X147.364Y-68.426
X147.364Y-70.966
X147.364Y-73.506
X147.364Y-76.046
X147.364Y-78.586
X147.364Y-81.126
X144.824Y-84.866
X144.824Y-87.406
X144.824Y-89.946
X144.824Y-92.486
X144.824Y-95.026
X144.824Y-97.566
X144.824Y-100.106
X144.824Y-102.646
X144.824Y-105.186
X144.824Y-107.726
X144.824Y-110.266
X144.824Y-112.806
X144.824Y-115.346
X144.824Y-117.886
X117.964Y-48.106
X117.964Y-50.646
X117.964Y-53.186
X117.964Y-55.726
X117.964Y-58.266
X117.964Y-60.806
X117.964Y-63.346
X117.964Y-65.886
X117.964Y-68.426
X117.964Y-70.966
X117.964Y-73.506
X117.964Y-76.046
X117.964Y-78.586
X117.964Y-81.126
X92.564Y-48.106
X92.564Y-50.646
X92.564Y-53.186
X92.564Y-55.726
X92.564Y-58.266
X92.564Y-60.806
X92.564Y-63.346
X92.564Y-65.886
X92.564Y-68.426
X92.564Y-70.966
X92.564Y-73.506
X92.564Y-76.046
X92.564Y-78.586
X92.564Y-81.126
X92.564Y-84.866
X92.564Y-87.406
X92.564Y-89.946
X92.564Y-92.486
X92.564Y-95.026
X92.564Y-97.566
X92.564Y-100.106
X92.564Y-102.646
X92.564Y-105.186
X92.564Y-107.726
X92.564Y-110.266
X92.564Y-112.806
X92.564Y-115.346
X92.564Y-117.886
X117.964Y-84.866
X117.964Y-87.406
X117.964Y-89.946
X117.964Y-92.486
X117.964Y-95.026
X117.964Y-97.566
X117.964Y-100.106
X117.964Y-102.646
X117.964Y-105.186
X117.964Y-107.726
X117.964Y-110.266
X117.964Y-112.806
X117.964Y-115.346
X117.964Y-117.886
X174.224Y-84.866
X174.224Y-87.406
X174.224Y-89.946
X174.224Y-92.486
X174.224Y-95.026
X174.224Y-97.566
X174.224Y-100.106
X174.224Y-102.646
X174.224Y-105.186
X174.224Y-107.726
X174.224Y-110.266
X174.224Y-112.806
X174.224Y-115.346
X174.224Y-117.886
X151.364Y-84.866
X151.364Y-87.406
X151.364Y-89.946
X151.364Y-92.486
X151.364Y-95.026
X151.364Y-97.566
X151.364Y-100.106
X151.364Y-102.646
X151.364Y-105.186
X151.364Y-107.726
X151.364Y-110.266
X151.364Y-112.806
X151.364Y-115.346
X151.364Y-117.886
X176.764Y-84.866
X176.764Y-87.406
X176.764Y-89.946
X176.764Y-92.486
X176.764Y-95.026
X176.764Y-97.566
X176.764Y-100.106
X176.764Y-102.646
X176.764Y-105.186
X176.764Y-107.726
X176.764Y-110.266
X176.764Y-112.806
X176.764Y-115.346
X176.764Y-117.886
X115.424Y-84.866
X115.424Y-87.406
X115.424Y-89.946
X115.424Y-92.486
X115.424Y-95.026
X115.424Y-97.566
X115.424Y-100.106
X115.424Y-102.646
X115.424Y-105.186
X115.424Y-107.726
X115.424Y-110.266
X115.424Y-112.806
X115.424Y-115.346
X115.424Y-117.886
X115.424Y-48.106
X115.424Y-50.646
X115.424Y-53.186
X115.424Y-55.726
X115.424Y-58.266
X115.424Y-60.806
X115.424Y-63.346
X115.424Y-65.886
X115.424Y-68.426
X115.424Y-70.966
X115.424Y-73.506
X115.424Y-76.046
X115.424Y-78.586
X115.424Y-81.126
X144.824Y-48.106
X144.824Y-50.646
X144.824Y-53.186
X144.824Y-55.726
X144.824Y-58.266
X144.824Y-60.806
X144.824Y-63.346
X144.824Y-65.886
X144.824Y-68.426
X144.824Y-70.966
X144.824Y-73.506
X144.824Y-76.046
X144.824Y-78.586
X144.824Y-81.126
X176.764Y-48.106
X176.764Y-50.646
X176.764Y-53.186
X176.764Y-55.726
X176.764Y-58.266
X176.764Y-60.806
X176.764Y-63.346
X176.764Y-65.886
X176.764Y-68.426
X176.764Y-70.966
X176.764Y-73.506
X176.764Y-76.046
X176.764Y-78.586
X176.764Y-81.126
T0
M30
