G04 #@! TF.GenerationSoftware,KiCad,Pcbnew,5.1.5+dfsg1-2build2*
G04 #@! TF.CreationDate,2022-08-21T19:05:58-05:00*
G04 #@! TF.ProjectId,,58585858-5858-4585-9858-585858585858,rev?*
G04 #@! TF.SameCoordinates,Original*
G04 #@! TF.FileFunction,Copper,L2,Bot*
G04 #@! TF.FilePolarity,Positive*
%FSLAX46Y46*%
G04 Gerber Fmt 4.6, Leading zero omitted, Abs format (unit mm)*
G04 Created by KiCad (PCBNEW 5.1.5+dfsg1-2build2) date 2022-08-21 19:05:58*
%MOMM*%
%LPD*%
G04 APERTURE LIST*
%ADD10R,1.700000X1.700000*%
%ADD11O,1.700000X1.700000*%
%ADD12C,0.800000*%
%ADD13C,0.250000*%
G04 APERTURE END LIST*
D10*
X176763800Y-84865720D03*
D11*
X176763800Y-87405720D03*
X176763800Y-89945720D03*
X176763800Y-92485720D03*
X176763800Y-95025720D03*
X176763800Y-97565720D03*
X176763800Y-100105720D03*
X176763800Y-102645720D03*
X176763800Y-105185720D03*
X176763800Y-107725720D03*
X176763800Y-110265720D03*
X176763800Y-112805720D03*
X176763800Y-115345720D03*
X176763800Y-117885720D03*
D10*
X147363800Y-84865720D03*
D11*
X147363800Y-87405720D03*
X147363800Y-89945720D03*
X147363800Y-92485720D03*
X147363800Y-95025720D03*
X147363800Y-97565720D03*
X147363800Y-100105720D03*
X147363800Y-102645720D03*
X147363800Y-105185720D03*
X147363800Y-107725720D03*
X147363800Y-110265720D03*
X147363800Y-112805720D03*
X147363800Y-115345720D03*
X147363800Y-117885720D03*
D10*
X117963800Y-84865720D03*
D11*
X117963800Y-87405720D03*
X117963800Y-89945720D03*
X117963800Y-92485720D03*
X117963800Y-95025720D03*
X117963800Y-97565720D03*
X117963800Y-100105720D03*
X117963800Y-102645720D03*
X117963800Y-105185720D03*
X117963800Y-107725720D03*
X117963800Y-110265720D03*
X117963800Y-112805720D03*
X117963800Y-115345720D03*
X117963800Y-117885720D03*
D10*
X176763800Y-48105720D03*
D11*
X176763800Y-50645720D03*
X176763800Y-53185720D03*
X176763800Y-55725720D03*
X176763800Y-58265720D03*
X176763800Y-60805720D03*
X176763800Y-63345720D03*
X176763800Y-65885720D03*
X176763800Y-68425720D03*
X176763800Y-70965720D03*
X176763800Y-73505720D03*
X176763800Y-76045720D03*
X176763800Y-78585720D03*
X176763800Y-81125720D03*
D10*
X147363800Y-48105720D03*
D11*
X147363800Y-50645720D03*
X147363800Y-53185720D03*
X147363800Y-55725720D03*
X147363800Y-58265720D03*
X147363800Y-60805720D03*
X147363800Y-63345720D03*
X147363800Y-65885720D03*
X147363800Y-68425720D03*
X147363800Y-70965720D03*
X147363800Y-73505720D03*
X147363800Y-76045720D03*
X147363800Y-78585720D03*
X147363800Y-81125720D03*
D10*
X151363800Y-84865720D03*
D11*
X151363800Y-87405720D03*
X151363800Y-89945720D03*
X151363800Y-92485720D03*
X151363800Y-95025720D03*
X151363800Y-97565720D03*
X151363800Y-100105720D03*
X151363800Y-102645720D03*
X151363800Y-105185720D03*
X151363800Y-107725720D03*
X151363800Y-110265720D03*
X151363800Y-112805720D03*
X151363800Y-115345720D03*
X151363800Y-117885720D03*
D10*
X121963800Y-84865720D03*
D11*
X121963800Y-87405720D03*
X121963800Y-89945720D03*
X121963800Y-92485720D03*
X121963800Y-95025720D03*
X121963800Y-97565720D03*
X121963800Y-100105720D03*
X121963800Y-102645720D03*
X121963800Y-105185720D03*
X121963800Y-107725720D03*
X121963800Y-110265720D03*
X121963800Y-112805720D03*
X121963800Y-115345720D03*
X121963800Y-117885720D03*
D10*
X92563800Y-84865720D03*
D11*
X92563800Y-87405720D03*
X92563800Y-89945720D03*
X92563800Y-92485720D03*
X92563800Y-95025720D03*
X92563800Y-97565720D03*
X92563800Y-100105720D03*
X92563800Y-102645720D03*
X92563800Y-105185720D03*
X92563800Y-107725720D03*
X92563800Y-110265720D03*
X92563800Y-112805720D03*
X92563800Y-115345720D03*
X92563800Y-117885720D03*
D10*
X151363800Y-48105720D03*
D11*
X151363800Y-50645720D03*
X151363800Y-53185720D03*
X151363800Y-55725720D03*
X151363800Y-58265720D03*
X151363800Y-60805720D03*
X151363800Y-63345720D03*
X151363800Y-65885720D03*
X151363800Y-68425720D03*
X151363800Y-70965720D03*
X151363800Y-73505720D03*
X151363800Y-76045720D03*
X151363800Y-78585720D03*
X151363800Y-81125720D03*
D10*
X121963800Y-48105720D03*
D11*
X121963800Y-50645720D03*
X121963800Y-53185720D03*
X121963800Y-55725720D03*
X121963800Y-58265720D03*
X121963800Y-60805720D03*
X121963800Y-63345720D03*
X121963800Y-65885720D03*
X121963800Y-68425720D03*
X121963800Y-70965720D03*
X121963800Y-73505720D03*
X121963800Y-76045720D03*
X121963800Y-78585720D03*
X121963800Y-81125720D03*
D10*
X174223800Y-84865720D03*
D11*
X174223800Y-87405720D03*
X174223800Y-89945720D03*
X174223800Y-92485720D03*
X174223800Y-95025720D03*
X174223800Y-97565720D03*
X174223800Y-100105720D03*
X174223800Y-102645720D03*
X174223800Y-105185720D03*
X174223800Y-107725720D03*
X174223800Y-110265720D03*
X174223800Y-112805720D03*
X174223800Y-115345720D03*
X174223800Y-117885720D03*
D10*
X144823800Y-84865720D03*
D11*
X144823800Y-87405720D03*
X144823800Y-89945720D03*
X144823800Y-92485720D03*
X144823800Y-95025720D03*
X144823800Y-97565720D03*
X144823800Y-100105720D03*
X144823800Y-102645720D03*
X144823800Y-105185720D03*
X144823800Y-107725720D03*
X144823800Y-110265720D03*
X144823800Y-112805720D03*
X144823800Y-115345720D03*
X144823800Y-117885720D03*
D10*
X115423800Y-84865720D03*
D11*
X115423800Y-87405720D03*
X115423800Y-89945720D03*
X115423800Y-92485720D03*
X115423800Y-95025720D03*
X115423800Y-97565720D03*
X115423800Y-100105720D03*
X115423800Y-102645720D03*
X115423800Y-105185720D03*
X115423800Y-107725720D03*
X115423800Y-110265720D03*
X115423800Y-112805720D03*
X115423800Y-115345720D03*
X115423800Y-117885720D03*
D10*
X174223800Y-48105720D03*
D11*
X174223800Y-50645720D03*
X174223800Y-53185720D03*
X174223800Y-55725720D03*
X174223800Y-58265720D03*
X174223800Y-60805720D03*
X174223800Y-63345720D03*
X174223800Y-65885720D03*
X174223800Y-68425720D03*
X174223800Y-70965720D03*
X174223800Y-73505720D03*
X174223800Y-76045720D03*
X174223800Y-78585720D03*
X174223800Y-81125720D03*
D10*
X144823800Y-48105720D03*
D11*
X144823800Y-50645720D03*
X144823800Y-53185720D03*
X144823800Y-55725720D03*
X144823800Y-58265720D03*
X144823800Y-60805720D03*
X144823800Y-63345720D03*
X144823800Y-65885720D03*
X144823800Y-68425720D03*
X144823800Y-70965720D03*
X144823800Y-73505720D03*
X144823800Y-76045720D03*
X144823800Y-78585720D03*
X144823800Y-81125720D03*
X117963800Y-81125720D03*
X117963800Y-78585720D03*
X117963800Y-76045720D03*
X117963800Y-73505720D03*
X117963800Y-70965720D03*
X117963800Y-68425720D03*
X117963800Y-65885720D03*
X117963800Y-63345720D03*
X117963800Y-60805720D03*
X117963800Y-58265720D03*
X117963800Y-55725720D03*
X117963800Y-53185720D03*
X117963800Y-50645720D03*
D10*
X117963800Y-48105720D03*
D11*
X115423800Y-81125720D03*
X115423800Y-78585720D03*
X115423800Y-76045720D03*
X115423800Y-73505720D03*
X115423800Y-70965720D03*
X115423800Y-68425720D03*
X115423800Y-65885720D03*
X115423800Y-63345720D03*
X115423800Y-60805720D03*
X115423800Y-58265720D03*
X115423800Y-55725720D03*
X115423800Y-53185720D03*
X115423800Y-50645720D03*
D10*
X115423800Y-48105720D03*
D11*
X92563800Y-81125720D03*
X92563800Y-78585720D03*
X92563800Y-76045720D03*
X92563800Y-73505720D03*
X92563800Y-70965720D03*
X92563800Y-68425720D03*
X92563800Y-65885720D03*
X92563800Y-63345720D03*
X92563800Y-60805720D03*
X92563800Y-58265720D03*
X92563800Y-55725720D03*
X92563800Y-53185720D03*
X92563800Y-50645720D03*
D10*
X92563800Y-48105720D03*
D12*
X109189520Y-70947280D03*
X138589520Y-70947280D03*
X167989520Y-70947280D03*
X109189520Y-107707280D03*
X138589520Y-107707280D03*
X167989520Y-107707280D03*
X96740800Y-75254820D03*
X126140800Y-75254820D03*
X155540800Y-75254820D03*
X96740800Y-112014820D03*
X126140800Y-112014820D03*
X155540800Y-112014820D03*
X97800160Y-74086720D03*
X127200160Y-74086720D03*
X156600160Y-74086720D03*
X97800160Y-110846720D03*
X127200160Y-110846720D03*
X156600160Y-110846720D03*
X99552760Y-58496200D03*
X128952760Y-58496200D03*
X158352760Y-58496200D03*
X99552760Y-95256200D03*
X128952760Y-95256200D03*
X158352760Y-95256200D03*
X98099880Y-57668160D03*
X127499880Y-57668160D03*
X156899880Y-57668160D03*
X98099880Y-94428160D03*
X127499880Y-94428160D03*
X156899880Y-94428160D03*
X108884720Y-58352220D03*
X138284720Y-58352220D03*
X167684720Y-58352220D03*
X108884720Y-95112220D03*
X138284720Y-95112220D03*
X167684720Y-95112220D03*
X109540040Y-57353200D03*
X138940040Y-57353200D03*
X168340040Y-57353200D03*
X109540040Y-94113200D03*
X138940040Y-94113200D03*
X168340040Y-94113200D03*
D13*
X95377000Y-47665640D02*
X93739100Y-49303540D01*
X112755680Y-47665640D02*
X95377000Y-47665640D01*
X114493040Y-49403000D02*
X112755680Y-47665640D01*
X116098320Y-49403000D02*
X114493040Y-49403000D01*
X116788500Y-50093180D02*
X116098320Y-49403000D01*
X116788500Y-50645720D02*
X116788500Y-50093180D01*
X93739100Y-50645720D02*
X92563800Y-50645720D01*
X93739100Y-49303540D02*
X93739100Y-50645720D01*
X117963800Y-50645720D02*
X116788500Y-50645720D01*
X146188500Y-50645720D02*
X146188500Y-50093180D01*
X175588500Y-50645720D02*
X175588500Y-50093180D01*
X116788500Y-87405720D02*
X116788500Y-86853180D01*
X146188500Y-87405720D02*
X146188500Y-86853180D01*
X175588500Y-87405720D02*
X175588500Y-86853180D01*
X123139100Y-50645720D02*
X121963800Y-50645720D01*
X152539100Y-50645720D02*
X151363800Y-50645720D01*
X93739100Y-87405720D02*
X92563800Y-87405720D01*
X123139100Y-87405720D02*
X121963800Y-87405720D01*
X152539100Y-87405720D02*
X151363800Y-87405720D01*
X146188500Y-50093180D02*
X145498320Y-49403000D01*
X175588500Y-50093180D02*
X174898320Y-49403000D01*
X116788500Y-86853180D02*
X116098320Y-86163000D01*
X146188500Y-86853180D02*
X145498320Y-86163000D01*
X175588500Y-86853180D02*
X174898320Y-86163000D01*
X124777000Y-47665640D02*
X123139100Y-49303540D01*
X154177000Y-47665640D02*
X152539100Y-49303540D01*
X95377000Y-84425640D02*
X93739100Y-86063540D01*
X124777000Y-84425640D02*
X123139100Y-86063540D01*
X154177000Y-84425640D02*
X152539100Y-86063540D01*
X123139100Y-49303540D02*
X123139100Y-50645720D01*
X152539100Y-49303540D02*
X152539100Y-50645720D01*
X93739100Y-86063540D02*
X93739100Y-87405720D01*
X123139100Y-86063540D02*
X123139100Y-87405720D01*
X152539100Y-86063540D02*
X152539100Y-87405720D01*
X147363800Y-50645720D02*
X146188500Y-50645720D01*
X176763800Y-50645720D02*
X175588500Y-50645720D01*
X117963800Y-87405720D02*
X116788500Y-87405720D01*
X147363800Y-87405720D02*
X146188500Y-87405720D01*
X176763800Y-87405720D02*
X175588500Y-87405720D01*
X143893040Y-49403000D02*
X142155680Y-47665640D01*
X173293040Y-49403000D02*
X171555680Y-47665640D01*
X114493040Y-86163000D02*
X112755680Y-84425640D01*
X143893040Y-86163000D02*
X142155680Y-84425640D01*
X173293040Y-86163000D02*
X171555680Y-84425640D01*
X142155680Y-47665640D02*
X124777000Y-47665640D01*
X171555680Y-47665640D02*
X154177000Y-47665640D01*
X112755680Y-84425640D02*
X95377000Y-84425640D01*
X142155680Y-84425640D02*
X124777000Y-84425640D01*
X171555680Y-84425640D02*
X154177000Y-84425640D01*
X145498320Y-49403000D02*
X143893040Y-49403000D01*
X174898320Y-49403000D02*
X173293040Y-49403000D01*
X116098320Y-86163000D02*
X114493040Y-86163000D01*
X145498320Y-86163000D02*
X143893040Y-86163000D01*
X174898320Y-86163000D02*
X173293040Y-86163000D01*
X92563800Y-48105720D02*
X93739100Y-48105720D01*
X117963800Y-48105720D02*
X116788500Y-48105720D01*
X116788500Y-48105720D02*
X116788500Y-47297720D01*
X116788500Y-47297720D02*
X116421200Y-46930420D01*
X116421200Y-46930420D02*
X94914400Y-46930420D01*
X94914400Y-46930420D02*
X93739100Y-48105720D01*
X147363800Y-48105720D02*
X146188500Y-48105720D01*
X176763800Y-48105720D02*
X175588500Y-48105720D01*
X117963800Y-84865720D02*
X116788500Y-84865720D01*
X147363800Y-84865720D02*
X146188500Y-84865720D01*
X176763800Y-84865720D02*
X175588500Y-84865720D01*
X121963800Y-48105720D02*
X123139100Y-48105720D01*
X151363800Y-48105720D02*
X152539100Y-48105720D01*
X92563800Y-84865720D02*
X93739100Y-84865720D01*
X121963800Y-84865720D02*
X123139100Y-84865720D01*
X151363800Y-84865720D02*
X152539100Y-84865720D01*
X145821200Y-46930420D02*
X124314400Y-46930420D01*
X175221200Y-46930420D02*
X153714400Y-46930420D01*
X116421200Y-83690420D02*
X94914400Y-83690420D01*
X145821200Y-83690420D02*
X124314400Y-83690420D01*
X175221200Y-83690420D02*
X153714400Y-83690420D01*
X146188500Y-47297720D02*
X145821200Y-46930420D01*
X175588500Y-47297720D02*
X175221200Y-46930420D01*
X116788500Y-84057720D02*
X116421200Y-83690420D01*
X146188500Y-84057720D02*
X145821200Y-83690420D01*
X175588500Y-84057720D02*
X175221200Y-83690420D01*
X124314400Y-46930420D02*
X123139100Y-48105720D01*
X153714400Y-46930420D02*
X152539100Y-48105720D01*
X94914400Y-83690420D02*
X93739100Y-84865720D01*
X124314400Y-83690420D02*
X123139100Y-84865720D01*
X153714400Y-83690420D02*
X152539100Y-84865720D01*
X146188500Y-48105720D02*
X146188500Y-47297720D01*
X175588500Y-48105720D02*
X175588500Y-47297720D01*
X116788500Y-84865720D02*
X116788500Y-84057720D01*
X146188500Y-84865720D02*
X146188500Y-84057720D01*
X175588500Y-84865720D02*
X175588500Y-84057720D01*
X109207960Y-70965720D02*
X109189520Y-70947280D01*
X115423800Y-70965720D02*
X109207960Y-70965720D01*
X138607960Y-70965720D02*
X138589520Y-70947280D01*
X168007960Y-70965720D02*
X167989520Y-70947280D01*
X109207960Y-107725720D02*
X109189520Y-107707280D01*
X138607960Y-107725720D02*
X138589520Y-107707280D01*
X168007960Y-107725720D02*
X167989520Y-107707280D01*
X144823800Y-70965720D02*
X138607960Y-70965720D01*
X174223800Y-70965720D02*
X168007960Y-70965720D01*
X115423800Y-107725720D02*
X109207960Y-107725720D01*
X144823800Y-107725720D02*
X138607960Y-107725720D01*
X174223800Y-107725720D02*
X168007960Y-107725720D01*
X93739100Y-78585720D02*
X92563800Y-78585720D01*
X95031300Y-79877920D02*
X93739100Y-78585720D01*
X116788500Y-79035340D02*
X115945920Y-79877920D01*
X115945920Y-79877920D02*
X95031300Y-79877920D01*
X116788500Y-78585720D02*
X116788500Y-79035340D01*
X117963800Y-78585720D02*
X116788500Y-78585720D01*
X146188500Y-78585720D02*
X146188500Y-79035340D01*
X175588500Y-78585720D02*
X175588500Y-79035340D01*
X116788500Y-115345720D02*
X116788500Y-115795340D01*
X146188500Y-115345720D02*
X146188500Y-115795340D01*
X175588500Y-115345720D02*
X175588500Y-115795340D01*
X146188500Y-79035340D02*
X145345920Y-79877920D01*
X175588500Y-79035340D02*
X174745920Y-79877920D01*
X116788500Y-115795340D02*
X115945920Y-116637920D01*
X146188500Y-115795340D02*
X145345920Y-116637920D01*
X175588500Y-115795340D02*
X174745920Y-116637920D01*
X123139100Y-78585720D02*
X121963800Y-78585720D01*
X152539100Y-78585720D02*
X151363800Y-78585720D01*
X93739100Y-115345720D02*
X92563800Y-115345720D01*
X123139100Y-115345720D02*
X121963800Y-115345720D01*
X152539100Y-115345720D02*
X151363800Y-115345720D01*
X147363800Y-78585720D02*
X146188500Y-78585720D01*
X176763800Y-78585720D02*
X175588500Y-78585720D01*
X117963800Y-115345720D02*
X116788500Y-115345720D01*
X147363800Y-115345720D02*
X146188500Y-115345720D01*
X176763800Y-115345720D02*
X175588500Y-115345720D01*
X145345920Y-79877920D02*
X124431300Y-79877920D01*
X174745920Y-79877920D02*
X153831300Y-79877920D01*
X115945920Y-116637920D02*
X95031300Y-116637920D01*
X145345920Y-116637920D02*
X124431300Y-116637920D01*
X174745920Y-116637920D02*
X153831300Y-116637920D01*
X124431300Y-79877920D02*
X123139100Y-78585720D01*
X153831300Y-79877920D02*
X152539100Y-78585720D01*
X95031300Y-116637920D02*
X93739100Y-115345720D01*
X124431300Y-116637920D02*
X123139100Y-115345720D01*
X153831300Y-116637920D02*
X152539100Y-115345720D01*
X96740800Y-76045720D02*
X96740800Y-75254820D01*
X96740800Y-76045720D02*
X93739100Y-76045720D01*
X92563800Y-76045720D02*
X93739100Y-76045720D01*
X98027920Y-77332840D02*
X96740800Y-76045720D01*
X116788500Y-76607100D02*
X116062760Y-77332840D01*
X116788500Y-76045720D02*
X116788500Y-76607100D01*
X116062760Y-77332840D02*
X98027920Y-77332840D01*
X117963800Y-76045720D02*
X116788500Y-76045720D01*
X145462760Y-77332840D02*
X127427920Y-77332840D01*
X174862760Y-77332840D02*
X156827920Y-77332840D01*
X116062760Y-114092840D02*
X98027920Y-114092840D01*
X145462760Y-114092840D02*
X127427920Y-114092840D01*
X174862760Y-114092840D02*
X156827920Y-114092840D01*
X146188500Y-76045720D02*
X146188500Y-76607100D01*
X175588500Y-76045720D02*
X175588500Y-76607100D01*
X116788500Y-112805720D02*
X116788500Y-113367100D01*
X146188500Y-112805720D02*
X146188500Y-113367100D01*
X175588500Y-112805720D02*
X175588500Y-113367100D01*
X127427920Y-77332840D02*
X126140800Y-76045720D01*
X156827920Y-77332840D02*
X155540800Y-76045720D01*
X98027920Y-114092840D02*
X96740800Y-112805720D01*
X127427920Y-114092840D02*
X126140800Y-112805720D01*
X156827920Y-114092840D02*
X155540800Y-112805720D01*
X146188500Y-76607100D02*
X145462760Y-77332840D01*
X175588500Y-76607100D02*
X174862760Y-77332840D01*
X116788500Y-113367100D02*
X116062760Y-114092840D01*
X146188500Y-113367100D02*
X145462760Y-114092840D01*
X175588500Y-113367100D02*
X174862760Y-114092840D01*
X121963800Y-76045720D02*
X123139100Y-76045720D01*
X151363800Y-76045720D02*
X152539100Y-76045720D01*
X92563800Y-112805720D02*
X93739100Y-112805720D01*
X121963800Y-112805720D02*
X123139100Y-112805720D01*
X151363800Y-112805720D02*
X152539100Y-112805720D01*
X126140800Y-76045720D02*
X123139100Y-76045720D01*
X155540800Y-76045720D02*
X152539100Y-76045720D01*
X96740800Y-112805720D02*
X93739100Y-112805720D01*
X126140800Y-112805720D02*
X123139100Y-112805720D01*
X155540800Y-112805720D02*
X152539100Y-112805720D01*
X126140800Y-76045720D02*
X126140800Y-75254820D01*
X155540800Y-76045720D02*
X155540800Y-75254820D01*
X96740800Y-112805720D02*
X96740800Y-112014820D01*
X126140800Y-112805720D02*
X126140800Y-112014820D01*
X155540800Y-112805720D02*
X155540800Y-112014820D01*
X147363800Y-76045720D02*
X146188500Y-76045720D01*
X176763800Y-76045720D02*
X175588500Y-76045720D01*
X117963800Y-112805720D02*
X116788500Y-112805720D01*
X147363800Y-112805720D02*
X146188500Y-112805720D01*
X176763800Y-112805720D02*
X175588500Y-112805720D01*
X97800160Y-74086720D02*
X97219160Y-73505720D01*
X97219160Y-73505720D02*
X92563800Y-73505720D01*
X116788500Y-73505720D02*
X117963800Y-73505720D01*
X116788500Y-74031540D02*
X116788500Y-73505720D01*
X115996720Y-74823320D02*
X116788500Y-74031540D01*
X98536760Y-74823320D02*
X115996720Y-74823320D01*
X97800160Y-74086720D02*
X98536760Y-74823320D01*
X146188500Y-74031540D02*
X146188500Y-73505720D01*
X175588500Y-74031540D02*
X175588500Y-73505720D01*
X116788500Y-110791540D02*
X116788500Y-110265720D01*
X146188500Y-110791540D02*
X146188500Y-110265720D01*
X175588500Y-110791540D02*
X175588500Y-110265720D01*
X127200160Y-74086720D02*
X127936760Y-74823320D01*
X156600160Y-74086720D02*
X157336760Y-74823320D01*
X97800160Y-110846720D02*
X98536760Y-111583320D01*
X127200160Y-110846720D02*
X127936760Y-111583320D01*
X156600160Y-110846720D02*
X157336760Y-111583320D01*
X127936760Y-74823320D02*
X145396720Y-74823320D01*
X157336760Y-74823320D02*
X174796720Y-74823320D01*
X98536760Y-111583320D02*
X115996720Y-111583320D01*
X127936760Y-111583320D02*
X145396720Y-111583320D01*
X157336760Y-111583320D02*
X174796720Y-111583320D01*
X145396720Y-74823320D02*
X146188500Y-74031540D01*
X174796720Y-74823320D02*
X175588500Y-74031540D01*
X115996720Y-111583320D02*
X116788500Y-110791540D01*
X145396720Y-111583320D02*
X146188500Y-110791540D01*
X174796720Y-111583320D02*
X175588500Y-110791540D01*
X127200160Y-74086720D02*
X126619160Y-73505720D01*
X156600160Y-74086720D02*
X156019160Y-73505720D01*
X97800160Y-110846720D02*
X97219160Y-110265720D01*
X127200160Y-110846720D02*
X126619160Y-110265720D01*
X156600160Y-110846720D02*
X156019160Y-110265720D01*
X126619160Y-73505720D02*
X121963800Y-73505720D01*
X156019160Y-73505720D02*
X151363800Y-73505720D01*
X97219160Y-110265720D02*
X92563800Y-110265720D01*
X126619160Y-110265720D02*
X121963800Y-110265720D01*
X156019160Y-110265720D02*
X151363800Y-110265720D01*
X146188500Y-73505720D02*
X147363800Y-73505720D01*
X175588500Y-73505720D02*
X176763800Y-73505720D01*
X116788500Y-110265720D02*
X117963800Y-110265720D01*
X146188500Y-110265720D02*
X147363800Y-110265720D01*
X175588500Y-110265720D02*
X176763800Y-110265720D01*
X93739100Y-70965720D02*
X92563800Y-70965720D01*
X96666900Y-70965720D02*
X93739100Y-70965720D01*
X97898140Y-72196960D02*
X96666900Y-70965720D01*
X116047520Y-72196960D02*
X97898140Y-72196960D01*
X116788500Y-71455980D02*
X116047520Y-72196960D01*
X116788500Y-70965720D02*
X116788500Y-71455980D01*
X117963800Y-70965720D02*
X116788500Y-70965720D01*
X146188500Y-70965720D02*
X146188500Y-71455980D01*
X175588500Y-70965720D02*
X175588500Y-71455980D01*
X116788500Y-107725720D02*
X116788500Y-108215980D01*
X146188500Y-107725720D02*
X146188500Y-108215980D01*
X175588500Y-107725720D02*
X175588500Y-108215980D01*
X145447520Y-72196960D02*
X127298140Y-72196960D01*
X174847520Y-72196960D02*
X156698140Y-72196960D01*
X116047520Y-108956960D02*
X97898140Y-108956960D01*
X145447520Y-108956960D02*
X127298140Y-108956960D01*
X174847520Y-108956960D02*
X156698140Y-108956960D01*
X146188500Y-71455980D02*
X145447520Y-72196960D01*
X175588500Y-71455980D02*
X174847520Y-72196960D01*
X116788500Y-108215980D02*
X116047520Y-108956960D01*
X146188500Y-108215980D02*
X145447520Y-108956960D01*
X175588500Y-108215980D02*
X174847520Y-108956960D01*
X127298140Y-72196960D02*
X126066900Y-70965720D01*
X156698140Y-72196960D02*
X155466900Y-70965720D01*
X97898140Y-108956960D02*
X96666900Y-107725720D01*
X127298140Y-108956960D02*
X126066900Y-107725720D01*
X156698140Y-108956960D02*
X155466900Y-107725720D01*
X147363800Y-70965720D02*
X146188500Y-70965720D01*
X176763800Y-70965720D02*
X175588500Y-70965720D01*
X117963800Y-107725720D02*
X116788500Y-107725720D01*
X147363800Y-107725720D02*
X146188500Y-107725720D01*
X176763800Y-107725720D02*
X175588500Y-107725720D01*
X126066900Y-70965720D02*
X123139100Y-70965720D01*
X155466900Y-70965720D02*
X152539100Y-70965720D01*
X96666900Y-107725720D02*
X93739100Y-107725720D01*
X126066900Y-107725720D02*
X123139100Y-107725720D01*
X155466900Y-107725720D02*
X152539100Y-107725720D01*
X123139100Y-70965720D02*
X121963800Y-70965720D01*
X152539100Y-70965720D02*
X151363800Y-70965720D01*
X93739100Y-107725720D02*
X92563800Y-107725720D01*
X123139100Y-107725720D02*
X121963800Y-107725720D01*
X152539100Y-107725720D02*
X151363800Y-107725720D01*
X93739100Y-68425720D02*
X92563800Y-68425720D01*
X95016060Y-69702680D02*
X93739100Y-68425720D01*
X116128800Y-69702680D02*
X95016060Y-69702680D01*
X116788500Y-69042980D02*
X116128800Y-69702680D01*
X116788500Y-68425720D02*
X116788500Y-69042980D01*
X117963800Y-68425720D02*
X116788500Y-68425720D01*
X124416060Y-69702680D02*
X123139100Y-68425720D01*
X153816060Y-69702680D02*
X152539100Y-68425720D01*
X95016060Y-106462680D02*
X93739100Y-105185720D01*
X124416060Y-106462680D02*
X123139100Y-105185720D01*
X153816060Y-106462680D02*
X152539100Y-105185720D01*
X123139100Y-68425720D02*
X121963800Y-68425720D01*
X152539100Y-68425720D02*
X151363800Y-68425720D01*
X93739100Y-105185720D02*
X92563800Y-105185720D01*
X123139100Y-105185720D02*
X121963800Y-105185720D01*
X152539100Y-105185720D02*
X151363800Y-105185720D01*
X145528800Y-69702680D02*
X124416060Y-69702680D01*
X174928800Y-69702680D02*
X153816060Y-69702680D01*
X116128800Y-106462680D02*
X95016060Y-106462680D01*
X145528800Y-106462680D02*
X124416060Y-106462680D01*
X174928800Y-106462680D02*
X153816060Y-106462680D01*
X147363800Y-68425720D02*
X146188500Y-68425720D01*
X176763800Y-68425720D02*
X175588500Y-68425720D01*
X117963800Y-105185720D02*
X116788500Y-105185720D01*
X147363800Y-105185720D02*
X146188500Y-105185720D01*
X176763800Y-105185720D02*
X175588500Y-105185720D01*
X146188500Y-69042980D02*
X145528800Y-69702680D01*
X175588500Y-69042980D02*
X174928800Y-69702680D01*
X116788500Y-105802980D02*
X116128800Y-106462680D01*
X146188500Y-105802980D02*
X145528800Y-106462680D01*
X175588500Y-105802980D02*
X174928800Y-106462680D01*
X146188500Y-68425720D02*
X146188500Y-69042980D01*
X175588500Y-68425720D02*
X175588500Y-69042980D01*
X116788500Y-105185720D02*
X116788500Y-105802980D01*
X146188500Y-105185720D02*
X146188500Y-105802980D01*
X175588500Y-105185720D02*
X175588500Y-105802980D01*
X93739100Y-65885720D02*
X92563800Y-65885720D01*
X116088160Y-67167760D02*
X95021140Y-67167760D01*
X116788500Y-66467420D02*
X116088160Y-67167760D01*
X116788500Y-65885720D02*
X116788500Y-66467420D01*
X95021140Y-67167760D02*
X93739100Y-65885720D01*
X117963800Y-65885720D02*
X116788500Y-65885720D01*
X147363800Y-65885720D02*
X146188500Y-65885720D01*
X176763800Y-65885720D02*
X175588500Y-65885720D01*
X117963800Y-102645720D02*
X116788500Y-102645720D01*
X147363800Y-102645720D02*
X146188500Y-102645720D01*
X176763800Y-102645720D02*
X175588500Y-102645720D01*
X124421140Y-67167760D02*
X123139100Y-65885720D01*
X153821140Y-67167760D02*
X152539100Y-65885720D01*
X95021140Y-103927760D02*
X93739100Y-102645720D01*
X124421140Y-103927760D02*
X123139100Y-102645720D01*
X153821140Y-103927760D02*
X152539100Y-102645720D01*
X146188500Y-65885720D02*
X146188500Y-66467420D01*
X175588500Y-65885720D02*
X175588500Y-66467420D01*
X116788500Y-102645720D02*
X116788500Y-103227420D01*
X146188500Y-102645720D02*
X146188500Y-103227420D01*
X175588500Y-102645720D02*
X175588500Y-103227420D01*
X145488160Y-67167760D02*
X124421140Y-67167760D01*
X174888160Y-67167760D02*
X153821140Y-67167760D01*
X116088160Y-103927760D02*
X95021140Y-103927760D01*
X145488160Y-103927760D02*
X124421140Y-103927760D01*
X174888160Y-103927760D02*
X153821140Y-103927760D01*
X146188500Y-66467420D02*
X145488160Y-67167760D01*
X175588500Y-66467420D02*
X174888160Y-67167760D01*
X116788500Y-103227420D02*
X116088160Y-103927760D01*
X146188500Y-103227420D02*
X145488160Y-103927760D01*
X175588500Y-103227420D02*
X174888160Y-103927760D01*
X123139100Y-65885720D02*
X121963800Y-65885720D01*
X152539100Y-65885720D02*
X151363800Y-65885720D01*
X93739100Y-102645720D02*
X92563800Y-102645720D01*
X123139100Y-102645720D02*
X121963800Y-102645720D01*
X152539100Y-102645720D02*
X151363800Y-102645720D01*
X92563800Y-63345720D02*
X93739100Y-63345720D01*
X117963800Y-63345720D02*
X116788500Y-63345720D01*
X116788500Y-63345720D02*
X116788500Y-63713020D01*
X116788500Y-63713020D02*
X115980500Y-64521020D01*
X115980500Y-64521020D02*
X94914400Y-64521020D01*
X94914400Y-64521020D02*
X93739100Y-63345720D01*
X146188500Y-63713020D02*
X145380500Y-64521020D01*
X175588500Y-63713020D02*
X174780500Y-64521020D01*
X116788500Y-100473020D02*
X115980500Y-101281020D01*
X146188500Y-100473020D02*
X145380500Y-101281020D01*
X175588500Y-100473020D02*
X174780500Y-101281020D01*
X145380500Y-64521020D02*
X124314400Y-64521020D01*
X174780500Y-64521020D02*
X153714400Y-64521020D01*
X115980500Y-101281020D02*
X94914400Y-101281020D01*
X145380500Y-101281020D02*
X124314400Y-101281020D01*
X174780500Y-101281020D02*
X153714400Y-101281020D01*
X147363800Y-63345720D02*
X146188500Y-63345720D01*
X176763800Y-63345720D02*
X175588500Y-63345720D01*
X117963800Y-100105720D02*
X116788500Y-100105720D01*
X147363800Y-100105720D02*
X146188500Y-100105720D01*
X176763800Y-100105720D02*
X175588500Y-100105720D01*
X121963800Y-63345720D02*
X123139100Y-63345720D01*
X151363800Y-63345720D02*
X152539100Y-63345720D01*
X92563800Y-100105720D02*
X93739100Y-100105720D01*
X121963800Y-100105720D02*
X123139100Y-100105720D01*
X151363800Y-100105720D02*
X152539100Y-100105720D01*
X124314400Y-64521020D02*
X123139100Y-63345720D01*
X153714400Y-64521020D02*
X152539100Y-63345720D01*
X94914400Y-101281020D02*
X93739100Y-100105720D01*
X124314400Y-101281020D02*
X123139100Y-100105720D01*
X153714400Y-101281020D02*
X152539100Y-100105720D01*
X146188500Y-63345720D02*
X146188500Y-63713020D01*
X175588500Y-63345720D02*
X175588500Y-63713020D01*
X116788500Y-100105720D02*
X116788500Y-100473020D01*
X146188500Y-100105720D02*
X146188500Y-100473020D01*
X175588500Y-100105720D02*
X175588500Y-100473020D01*
X93739100Y-60805720D02*
X92563800Y-60805720D01*
X115899160Y-62062360D02*
X94995740Y-62062360D01*
X116788500Y-61173020D02*
X115899160Y-62062360D01*
X94995740Y-62062360D02*
X93739100Y-60805720D01*
X116788500Y-60805720D02*
X116788500Y-61173020D01*
X117963800Y-60805720D02*
X116788500Y-60805720D01*
X123139100Y-60805720D02*
X121963800Y-60805720D01*
X152539100Y-60805720D02*
X151363800Y-60805720D01*
X93739100Y-97565720D02*
X92563800Y-97565720D01*
X123139100Y-97565720D02*
X121963800Y-97565720D01*
X152539100Y-97565720D02*
X151363800Y-97565720D01*
X124395740Y-62062360D02*
X123139100Y-60805720D01*
X153795740Y-62062360D02*
X152539100Y-60805720D01*
X94995740Y-98822360D02*
X93739100Y-97565720D01*
X124395740Y-98822360D02*
X123139100Y-97565720D01*
X153795740Y-98822360D02*
X152539100Y-97565720D01*
X146188500Y-60805720D02*
X146188500Y-61173020D01*
X175588500Y-60805720D02*
X175588500Y-61173020D01*
X116788500Y-97565720D02*
X116788500Y-97933020D01*
X146188500Y-97565720D02*
X146188500Y-97933020D01*
X175588500Y-97565720D02*
X175588500Y-97933020D01*
X146188500Y-61173020D02*
X145299160Y-62062360D01*
X175588500Y-61173020D02*
X174699160Y-62062360D01*
X116788500Y-97933020D02*
X115899160Y-98822360D01*
X146188500Y-97933020D02*
X145299160Y-98822360D01*
X175588500Y-97933020D02*
X174699160Y-98822360D01*
X145299160Y-62062360D02*
X124395740Y-62062360D01*
X174699160Y-62062360D02*
X153795740Y-62062360D01*
X115899160Y-98822360D02*
X94995740Y-98822360D01*
X145299160Y-98822360D02*
X124395740Y-98822360D01*
X174699160Y-98822360D02*
X153795740Y-98822360D01*
X147363800Y-60805720D02*
X146188500Y-60805720D01*
X176763800Y-60805720D02*
X175588500Y-60805720D01*
X117963800Y-97565720D02*
X116788500Y-97565720D01*
X147363800Y-97565720D02*
X146188500Y-97565720D01*
X176763800Y-97565720D02*
X175588500Y-97565720D01*
X116788500Y-58265720D02*
X117963800Y-58265720D01*
X116788500Y-58898220D02*
X116788500Y-58265720D01*
X116138960Y-59547760D02*
X116788500Y-58898220D01*
X95021140Y-59547760D02*
X116138960Y-59547760D01*
X93739100Y-58265720D02*
X95021140Y-59547760D01*
X92563800Y-58265720D02*
X93739100Y-58265720D01*
X123139100Y-58265720D02*
X124421140Y-59547760D01*
X152539100Y-58265720D02*
X153821140Y-59547760D01*
X93739100Y-95025720D02*
X95021140Y-96307760D01*
X123139100Y-95025720D02*
X124421140Y-96307760D01*
X152539100Y-95025720D02*
X153821140Y-96307760D01*
X124421140Y-59547760D02*
X145538960Y-59547760D01*
X153821140Y-59547760D02*
X174938960Y-59547760D01*
X95021140Y-96307760D02*
X116138960Y-96307760D01*
X124421140Y-96307760D02*
X145538960Y-96307760D01*
X153821140Y-96307760D02*
X174938960Y-96307760D01*
X145538960Y-59547760D02*
X146188500Y-58898220D01*
X174938960Y-59547760D02*
X175588500Y-58898220D01*
X116138960Y-96307760D02*
X116788500Y-95658220D01*
X145538960Y-96307760D02*
X146188500Y-95658220D01*
X174938960Y-96307760D02*
X175588500Y-95658220D01*
X121963800Y-58265720D02*
X123139100Y-58265720D01*
X151363800Y-58265720D02*
X152539100Y-58265720D01*
X92563800Y-95025720D02*
X93739100Y-95025720D01*
X121963800Y-95025720D02*
X123139100Y-95025720D01*
X151363800Y-95025720D02*
X152539100Y-95025720D01*
X146188500Y-58265720D02*
X147363800Y-58265720D01*
X175588500Y-58265720D02*
X176763800Y-58265720D01*
X116788500Y-95025720D02*
X117963800Y-95025720D01*
X146188500Y-95025720D02*
X147363800Y-95025720D01*
X175588500Y-95025720D02*
X176763800Y-95025720D01*
X146188500Y-58898220D02*
X146188500Y-58265720D01*
X175588500Y-58898220D02*
X175588500Y-58265720D01*
X116788500Y-95658220D02*
X116788500Y-95025720D01*
X146188500Y-95658220D02*
X146188500Y-95025720D01*
X175588500Y-95658220D02*
X175588500Y-95025720D01*
X99552760Y-58496200D02*
X95774980Y-58496200D01*
X95774980Y-58496200D02*
X93739100Y-56460320D01*
X93739100Y-55725720D02*
X92563800Y-55725720D01*
X93739100Y-56460320D02*
X93739100Y-55725720D01*
X116788500Y-55725720D02*
X117963800Y-55725720D01*
X116788500Y-56093120D02*
X116788500Y-55725720D01*
X115980600Y-56901020D02*
X116788500Y-56093120D01*
X114347000Y-56901020D02*
X115980600Y-56901020D01*
X112156900Y-59091120D02*
X114347000Y-56901020D01*
X108016600Y-59091120D02*
X112156900Y-59091120D01*
X107421680Y-58496200D02*
X108016600Y-59091120D01*
X99552760Y-58496200D02*
X107421680Y-58496200D01*
X123139100Y-56460320D02*
X123139100Y-55725720D01*
X152539100Y-56460320D02*
X152539100Y-55725720D01*
X93739100Y-93220320D02*
X93739100Y-92485720D01*
X123139100Y-93220320D02*
X123139100Y-92485720D01*
X152539100Y-93220320D02*
X152539100Y-92485720D01*
X128952760Y-58496200D02*
X125174980Y-58496200D01*
X158352760Y-58496200D02*
X154574980Y-58496200D01*
X99552760Y-95256200D02*
X95774980Y-95256200D01*
X128952760Y-95256200D02*
X125174980Y-95256200D01*
X158352760Y-95256200D02*
X154574980Y-95256200D01*
X136821680Y-58496200D02*
X137416600Y-59091120D01*
X166221680Y-58496200D02*
X166816600Y-59091120D01*
X107421680Y-95256200D02*
X108016600Y-95851120D01*
X136821680Y-95256200D02*
X137416600Y-95851120D01*
X166221680Y-95256200D02*
X166816600Y-95851120D01*
X125174980Y-58496200D02*
X123139100Y-56460320D01*
X154574980Y-58496200D02*
X152539100Y-56460320D01*
X95774980Y-95256200D02*
X93739100Y-93220320D01*
X125174980Y-95256200D02*
X123139100Y-93220320D01*
X154574980Y-95256200D02*
X152539100Y-93220320D01*
X146188500Y-56093120D02*
X146188500Y-55725720D01*
X175588500Y-56093120D02*
X175588500Y-55725720D01*
X116788500Y-92853120D02*
X116788500Y-92485720D01*
X146188500Y-92853120D02*
X146188500Y-92485720D01*
X175588500Y-92853120D02*
X175588500Y-92485720D01*
X145380600Y-56901020D02*
X146188500Y-56093120D01*
X174780600Y-56901020D02*
X175588500Y-56093120D01*
X115980600Y-93661020D02*
X116788500Y-92853120D01*
X145380600Y-93661020D02*
X146188500Y-92853120D01*
X174780600Y-93661020D02*
X175588500Y-92853120D01*
X143747000Y-56901020D02*
X145380600Y-56901020D01*
X173147000Y-56901020D02*
X174780600Y-56901020D01*
X114347000Y-93661020D02*
X115980600Y-93661020D01*
X143747000Y-93661020D02*
X145380600Y-93661020D01*
X173147000Y-93661020D02*
X174780600Y-93661020D01*
X146188500Y-55725720D02*
X147363800Y-55725720D01*
X175588500Y-55725720D02*
X176763800Y-55725720D01*
X116788500Y-92485720D02*
X117963800Y-92485720D01*
X146188500Y-92485720D02*
X147363800Y-92485720D01*
X175588500Y-92485720D02*
X176763800Y-92485720D01*
X137416600Y-59091120D02*
X141556900Y-59091120D01*
X166816600Y-59091120D02*
X170956900Y-59091120D01*
X108016600Y-95851120D02*
X112156900Y-95851120D01*
X137416600Y-95851120D02*
X141556900Y-95851120D01*
X166816600Y-95851120D02*
X170956900Y-95851120D01*
X128952760Y-58496200D02*
X136821680Y-58496200D01*
X158352760Y-58496200D02*
X166221680Y-58496200D01*
X99552760Y-95256200D02*
X107421680Y-95256200D01*
X128952760Y-95256200D02*
X136821680Y-95256200D01*
X158352760Y-95256200D02*
X166221680Y-95256200D01*
X123139100Y-55725720D02*
X121963800Y-55725720D01*
X152539100Y-55725720D02*
X151363800Y-55725720D01*
X93739100Y-92485720D02*
X92563800Y-92485720D01*
X123139100Y-92485720D02*
X121963800Y-92485720D01*
X152539100Y-92485720D02*
X151363800Y-92485720D01*
X141556900Y-59091120D02*
X143747000Y-56901020D01*
X170956900Y-59091120D02*
X173147000Y-56901020D01*
X112156900Y-95851120D02*
X114347000Y-93661020D01*
X141556900Y-95851120D02*
X143747000Y-93661020D01*
X170956900Y-95851120D02*
X173147000Y-93661020D01*
X94239100Y-53185720D02*
X93739100Y-53185720D01*
X92563800Y-53185720D02*
X93739100Y-53185720D01*
X94239100Y-56287720D02*
X94239100Y-53185720D01*
X98099880Y-57668160D02*
X95619540Y-57668160D01*
X95619540Y-57668160D02*
X94239100Y-56287720D01*
X112385160Y-48417480D02*
X95453140Y-48417480D01*
X113737100Y-50665620D02*
X113737100Y-49769420D01*
X114968760Y-51897280D02*
X113737100Y-50665620D01*
X116113560Y-51897280D02*
X114968760Y-51897280D01*
X94239100Y-49631520D02*
X94239100Y-53185720D01*
X113737100Y-49769420D02*
X112385160Y-48417480D01*
X116788500Y-52572220D02*
X116113560Y-51897280D01*
X116788500Y-53185720D02*
X116788500Y-52572220D01*
X95453140Y-48417480D02*
X94239100Y-49631520D01*
X117963800Y-53185720D02*
X116788500Y-53185720D01*
X121963800Y-53185720D02*
X123139100Y-53185720D01*
X151363800Y-53185720D02*
X152539100Y-53185720D01*
X92563800Y-89945720D02*
X93739100Y-89945720D01*
X121963800Y-89945720D02*
X123139100Y-89945720D01*
X151363800Y-89945720D02*
X152539100Y-89945720D01*
X146188500Y-53185720D02*
X146188500Y-52572220D01*
X175588500Y-53185720D02*
X175588500Y-52572220D01*
X116788500Y-89945720D02*
X116788500Y-89332220D01*
X146188500Y-89945720D02*
X146188500Y-89332220D01*
X175588500Y-89945720D02*
X175588500Y-89332220D01*
X124853140Y-48417480D02*
X123639100Y-49631520D01*
X154253140Y-48417480D02*
X153039100Y-49631520D01*
X95453140Y-85177480D02*
X94239100Y-86391520D01*
X124853140Y-85177480D02*
X123639100Y-86391520D01*
X154253140Y-85177480D02*
X153039100Y-86391520D01*
X144368760Y-51897280D02*
X143137100Y-50665620D01*
X173768760Y-51897280D02*
X172537100Y-50665620D01*
X114968760Y-88657280D02*
X113737100Y-87425620D01*
X144368760Y-88657280D02*
X143137100Y-87425620D01*
X173768760Y-88657280D02*
X172537100Y-87425620D01*
X145513560Y-51897280D02*
X144368760Y-51897280D01*
X174913560Y-51897280D02*
X173768760Y-51897280D01*
X116113560Y-88657280D02*
X114968760Y-88657280D01*
X145513560Y-88657280D02*
X144368760Y-88657280D01*
X174913560Y-88657280D02*
X173768760Y-88657280D01*
X123639100Y-49631520D02*
X123639100Y-53185720D01*
X153039100Y-49631520D02*
X153039100Y-53185720D01*
X94239100Y-86391520D02*
X94239100Y-89945720D01*
X123639100Y-86391520D02*
X123639100Y-89945720D01*
X153039100Y-86391520D02*
X153039100Y-89945720D01*
X146188500Y-52572220D02*
X145513560Y-51897280D01*
X175588500Y-52572220D02*
X174913560Y-51897280D01*
X116788500Y-89332220D02*
X116113560Y-88657280D01*
X146188500Y-89332220D02*
X145513560Y-88657280D01*
X175588500Y-89332220D02*
X174913560Y-88657280D01*
X141785160Y-48417480D02*
X124853140Y-48417480D01*
X171185160Y-48417480D02*
X154253140Y-48417480D01*
X112385160Y-85177480D02*
X95453140Y-85177480D01*
X141785160Y-85177480D02*
X124853140Y-85177480D01*
X171185160Y-85177480D02*
X154253140Y-85177480D01*
X143137100Y-50665620D02*
X143137100Y-49769420D01*
X172537100Y-50665620D02*
X172537100Y-49769420D01*
X113737100Y-87425620D02*
X113737100Y-86529420D01*
X143137100Y-87425620D02*
X143137100Y-86529420D01*
X172537100Y-87425620D02*
X172537100Y-86529420D01*
X123639100Y-56287720D02*
X123639100Y-53185720D01*
X153039100Y-56287720D02*
X153039100Y-53185720D01*
X94239100Y-93047720D02*
X94239100Y-89945720D01*
X123639100Y-93047720D02*
X123639100Y-89945720D01*
X153039100Y-93047720D02*
X153039100Y-89945720D01*
X127499880Y-57668160D02*
X125019540Y-57668160D01*
X156899880Y-57668160D02*
X154419540Y-57668160D01*
X98099880Y-94428160D02*
X95619540Y-94428160D01*
X127499880Y-94428160D02*
X125019540Y-94428160D01*
X156899880Y-94428160D02*
X154419540Y-94428160D01*
X125019540Y-57668160D02*
X123639100Y-56287720D01*
X154419540Y-57668160D02*
X153039100Y-56287720D01*
X95619540Y-94428160D02*
X94239100Y-93047720D01*
X125019540Y-94428160D02*
X123639100Y-93047720D01*
X154419540Y-94428160D02*
X153039100Y-93047720D01*
X147363800Y-53185720D02*
X146188500Y-53185720D01*
X176763800Y-53185720D02*
X175588500Y-53185720D01*
X117963800Y-89945720D02*
X116788500Y-89945720D01*
X147363800Y-89945720D02*
X146188500Y-89945720D01*
X176763800Y-89945720D02*
X175588500Y-89945720D01*
X143137100Y-49769420D02*
X141785160Y-48417480D01*
X172537100Y-49769420D02*
X171185160Y-48417480D01*
X113737100Y-86529420D02*
X112385160Y-85177480D01*
X143137100Y-86529420D02*
X141785160Y-85177480D01*
X172537100Y-86529420D02*
X171185160Y-85177480D01*
X123639100Y-53185720D02*
X123139100Y-53185720D01*
X153039100Y-53185720D02*
X152539100Y-53185720D01*
X94239100Y-89945720D02*
X93739100Y-89945720D01*
X123639100Y-89945720D02*
X123139100Y-89945720D01*
X153039100Y-89945720D02*
X152539100Y-89945720D01*
X114248500Y-55725720D02*
X115423800Y-55725720D01*
X114248500Y-56044120D02*
X114248500Y-55725720D01*
X111940400Y-58352220D02*
X114248500Y-56044120D01*
X108884720Y-58352220D02*
X111940400Y-58352220D01*
X138284720Y-58352220D02*
X141340400Y-58352220D01*
X167684720Y-58352220D02*
X170740400Y-58352220D01*
X108884720Y-95112220D02*
X111940400Y-95112220D01*
X138284720Y-95112220D02*
X141340400Y-95112220D01*
X167684720Y-95112220D02*
X170740400Y-95112220D01*
X143648500Y-56044120D02*
X143648500Y-55725720D01*
X173048500Y-56044120D02*
X173048500Y-55725720D01*
X114248500Y-92804120D02*
X114248500Y-92485720D01*
X143648500Y-92804120D02*
X143648500Y-92485720D01*
X173048500Y-92804120D02*
X173048500Y-92485720D01*
X141340400Y-58352220D02*
X143648500Y-56044120D01*
X170740400Y-58352220D02*
X173048500Y-56044120D01*
X111940400Y-95112220D02*
X114248500Y-92804120D01*
X141340400Y-95112220D02*
X143648500Y-92804120D01*
X170740400Y-95112220D02*
X173048500Y-92804120D01*
X143648500Y-55725720D02*
X144823800Y-55725720D01*
X173048500Y-55725720D02*
X174223800Y-55725720D01*
X114248500Y-92485720D02*
X115423800Y-92485720D01*
X143648500Y-92485720D02*
X144823800Y-92485720D01*
X173048500Y-92485720D02*
X174223800Y-92485720D01*
X113682800Y-55630420D02*
X114952200Y-54361020D01*
X113682800Y-55947020D02*
X113682800Y-55630420D01*
X112276620Y-57353200D02*
X113682800Y-55947020D01*
X115423800Y-54361020D02*
X115423800Y-53185720D01*
X114952200Y-54361020D02*
X115423800Y-54361020D01*
X109540040Y-57353200D02*
X112276620Y-57353200D01*
X143082800Y-55947020D02*
X143082800Y-55630420D01*
X172482800Y-55947020D02*
X172482800Y-55630420D01*
X113682800Y-92707020D02*
X113682800Y-92390420D01*
X143082800Y-92707020D02*
X143082800Y-92390420D01*
X172482800Y-92707020D02*
X172482800Y-92390420D01*
X141676620Y-57353200D02*
X143082800Y-55947020D01*
X171076620Y-57353200D02*
X172482800Y-55947020D01*
X112276620Y-94113200D02*
X113682800Y-92707020D01*
X141676620Y-94113200D02*
X143082800Y-92707020D01*
X171076620Y-94113200D02*
X172482800Y-92707020D01*
X138940040Y-57353200D02*
X141676620Y-57353200D01*
X168340040Y-57353200D02*
X171076620Y-57353200D01*
X109540040Y-94113200D02*
X112276620Y-94113200D01*
X138940040Y-94113200D02*
X141676620Y-94113200D01*
X168340040Y-94113200D02*
X171076620Y-94113200D01*
X143082800Y-55630420D02*
X144352200Y-54361020D01*
X172482800Y-55630420D02*
X173752200Y-54361020D01*
X113682800Y-92390420D02*
X114952200Y-91121020D01*
X143082800Y-92390420D02*
X144352200Y-91121020D01*
X172482800Y-92390420D02*
X173752200Y-91121020D01*
X144823800Y-54361020D02*
X144823800Y-53185720D01*
X174223800Y-54361020D02*
X174223800Y-53185720D01*
X115423800Y-91121020D02*
X115423800Y-89945720D01*
X144823800Y-91121020D02*
X144823800Y-89945720D01*
X174223800Y-91121020D02*
X174223800Y-89945720D01*
X144352200Y-54361020D02*
X144823800Y-54361020D01*
X173752200Y-54361020D02*
X174223800Y-54361020D01*
X114952200Y-91121020D02*
X115423800Y-91121020D01*
X144352200Y-91121020D02*
X144823800Y-91121020D01*
X173752200Y-91121020D02*
X174223800Y-91121020D01*
X93739100Y-81125720D02*
X92563800Y-81125720D01*
X95107500Y-82494120D02*
X93739100Y-81125720D01*
X115900200Y-82494120D02*
X95107500Y-82494120D01*
X116657120Y-81737200D02*
X115900200Y-82494120D01*
X116657120Y-81125720D02*
X116657120Y-81737200D01*
X117963800Y-81125720D02*
X116657120Y-81125720D01*
X147363800Y-81125720D02*
X146057120Y-81125720D01*
X176763800Y-81125720D02*
X175457120Y-81125720D01*
X117963800Y-117885720D02*
X116657120Y-117885720D01*
X147363800Y-117885720D02*
X146057120Y-117885720D01*
X176763800Y-117885720D02*
X175457120Y-117885720D01*
X123139100Y-81125720D02*
X121963800Y-81125720D01*
X152539100Y-81125720D02*
X151363800Y-81125720D01*
X93739100Y-117885720D02*
X92563800Y-117885720D01*
X123139100Y-117885720D02*
X121963800Y-117885720D01*
X152539100Y-117885720D02*
X151363800Y-117885720D01*
X145300200Y-82494120D02*
X124507500Y-82494120D01*
X174700200Y-82494120D02*
X153907500Y-82494120D01*
X115900200Y-119254120D02*
X95107500Y-119254120D01*
X145300200Y-119254120D02*
X124507500Y-119254120D01*
X174700200Y-119254120D02*
X153907500Y-119254120D01*
X146057120Y-81737200D02*
X145300200Y-82494120D01*
X175457120Y-81737200D02*
X174700200Y-82494120D01*
X116657120Y-118497200D02*
X115900200Y-119254120D01*
X146057120Y-118497200D02*
X145300200Y-119254120D01*
X175457120Y-118497200D02*
X174700200Y-119254120D01*
X124507500Y-82494120D02*
X123139100Y-81125720D01*
X153907500Y-82494120D02*
X152539100Y-81125720D01*
X95107500Y-119254120D02*
X93739100Y-117885720D01*
X124507500Y-119254120D02*
X123139100Y-117885720D01*
X153907500Y-119254120D02*
X152539100Y-117885720D01*
X146057120Y-81125720D02*
X146057120Y-81737200D01*
X175457120Y-81125720D02*
X175457120Y-81737200D01*
X116657120Y-117885720D02*
X116657120Y-118497200D01*
X146057120Y-117885720D02*
X146057120Y-118497200D01*
X175457120Y-117885720D02*
X175457120Y-118497200D01*
M02*
