G04 #@! TF.GenerationSoftware,KiCad,Pcbnew,5.1.5+dfsg1-2build2*
G04 #@! TF.CreationDate,2022-08-21T19:05:58-05:00*
G04 #@! TF.ProjectId,,58585858-5858-4585-9858-585858585858,rev?*
G04 #@! TF.SameCoordinates,Original*
G04 #@! TF.FileFunction,Profile,NP*
%FSLAX46Y46*%
G04 Gerber Fmt 4.6, Leading zero omitted, Abs format (unit mm)*
G04 Created by KiCad (PCBNEW 5.1.5+dfsg1-2build2) date 2022-08-21 19:05:58*
%MOMM*%
%LPD*%
G04 APERTURE LIST*
%ADD10C,0.050000*%
G04 APERTURE END LIST*
D10*
X178763800Y-82995720D02*
X178763800Y-119755720D01*
X149363800Y-82995720D02*
X149363800Y-119755720D01*
X119963800Y-82995720D02*
X119963800Y-119755720D01*
X178763800Y-46235720D02*
X178763800Y-82995720D01*
X149363800Y-46235720D02*
X149363800Y-82995720D01*
X149363800Y-119755720D02*
X178763800Y-119755720D01*
X119963800Y-119755720D02*
X149363800Y-119755720D01*
X90563800Y-119755720D02*
X119963800Y-119755720D01*
X149363800Y-82995720D02*
X178763800Y-82995720D01*
X119963800Y-82995720D02*
X149363800Y-82995720D01*
X149363800Y-82995720D02*
X178763800Y-82995720D01*
X119963800Y-82995720D02*
X149363800Y-82995720D01*
X90563800Y-82995720D02*
X119963800Y-82995720D01*
X149363800Y-46235720D02*
X178763800Y-46235720D01*
X119963800Y-46235720D02*
X149363800Y-46235720D01*
X149363800Y-82995720D02*
X149363800Y-119755720D01*
X119963800Y-82995720D02*
X119963800Y-119755720D01*
X90563800Y-82995720D02*
X90563800Y-119755720D01*
X149363800Y-46235720D02*
X149363800Y-82995720D01*
X119963800Y-46235720D02*
X119963800Y-82995720D01*
X90563800Y-82995720D02*
X119963800Y-82995720D01*
X90563800Y-46235720D02*
X119963800Y-46235720D01*
X119963800Y-46235720D02*
X119963800Y-82995720D01*
X90563800Y-46235720D02*
X90563800Y-82995720D01*
M02*
