G04 #@! TF.GenerationSoftware,KiCad,Pcbnew,5.1.5+dfsg1-2build2*
G04 #@! TF.CreationDate,2022-03-02T16:10:57-05:00*
G04 #@! TF.ProjectId,RAK3172_BREAKOUT,52414b33-3137-4325-9f42-5245414b4f55,rev?*
G04 #@! TF.SameCoordinates,Original*
G04 #@! TF.FileFunction,Copper,L1,Top*
G04 #@! TF.FilePolarity,Positive*
%FSLAX46Y46*%
G04 Gerber Fmt 4.6, Leading zero omitted, Abs format (unit mm)*
G04 Created by KiCad (PCBNEW 5.1.5+dfsg1-2build2) date 2022-03-02 16:10:57*
%MOMM*%
%LPD*%
G04 APERTURE LIST*
%ADD10R,0.700000X1.800000*%
%ADD11R,1.800000X0.700000*%
%ADD12O,1.700000X1.700000*%
%ADD13R,1.700000X1.700000*%
%ADD14C,0.800000*%
%ADD15C,0.250000*%
G04 APERTURE END LIST*
D10*
X67630000Y-64630000D03*
X66630000Y-64630000D03*
X65630000Y-64630000D03*
X64630000Y-64630000D03*
X63630000Y-64630000D03*
X62630000Y-64630000D03*
X61630000Y-64630000D03*
X60630000Y-64630000D03*
D11*
X71530000Y-66530000D03*
X71530000Y-67530000D03*
X71530000Y-68530000D03*
X71530000Y-69530000D03*
X71530000Y-70530000D03*
X71530000Y-75530000D03*
X71530000Y-76530000D03*
X71530000Y-77530000D03*
X56730000Y-77530000D03*
X56730000Y-76530000D03*
X56730000Y-75530000D03*
X56730000Y-74530000D03*
X56730000Y-68530000D03*
X56730000Y-69530000D03*
X56730000Y-70530000D03*
X56730000Y-71530000D03*
D10*
X67630000Y-79930000D03*
D11*
X56730000Y-67530000D03*
X56730000Y-66530000D03*
D10*
X66630000Y-79930000D03*
X65630000Y-79930000D03*
X64630000Y-79930000D03*
D11*
X56730000Y-73530000D03*
X56730000Y-72530000D03*
D12*
X77400000Y-84890000D03*
X77400000Y-82350000D03*
X77400000Y-79810000D03*
X77400000Y-77270000D03*
X77400000Y-74730000D03*
X77400000Y-72190000D03*
X77400000Y-69650000D03*
X77400000Y-67110000D03*
X77400000Y-64570000D03*
X77400000Y-62030000D03*
X77400000Y-59490000D03*
X77400000Y-56950000D03*
X77400000Y-54410000D03*
D13*
X77400000Y-51870000D03*
D12*
X74860000Y-84890000D03*
X74860000Y-82350000D03*
X74860000Y-79810000D03*
X74860000Y-77270000D03*
X74860000Y-74730000D03*
X74860000Y-72190000D03*
X74860000Y-69650000D03*
X74860000Y-67110000D03*
X74860000Y-64570000D03*
X74860000Y-62030000D03*
X74860000Y-59490000D03*
X74860000Y-56950000D03*
X74860000Y-54410000D03*
D13*
X74860000Y-51870000D03*
D12*
X52000000Y-84890000D03*
X52000000Y-82350000D03*
X52000000Y-79810000D03*
X52000000Y-77270000D03*
X52000000Y-74730000D03*
X52000000Y-72190000D03*
X52000000Y-69650000D03*
X52000000Y-67110000D03*
X52000000Y-64570000D03*
X52000000Y-62030000D03*
X52000000Y-59490000D03*
X52000000Y-56950000D03*
X52000000Y-54410000D03*
D13*
X52000000Y-51870000D03*
D14*
X72978900Y-79591100D03*
X55163500Y-79724900D03*
X55202500Y-78259300D03*
X53718800Y-70220400D03*
X73032500Y-66789900D03*
D15*
X52000000Y-54410000D02*
X52000000Y-55585300D01*
X56730000Y-67530000D02*
X55504700Y-67530000D01*
X55504700Y-67530000D02*
X55054300Y-67079600D01*
X55054300Y-67079600D02*
X55054300Y-58272300D01*
X55054300Y-58272300D02*
X52367300Y-55585300D01*
X52367300Y-55585300D02*
X52000000Y-55585300D01*
X55504700Y-53252600D02*
X58062600Y-50694700D01*
X58062600Y-50694700D02*
X75857500Y-50694700D01*
X75857500Y-50694700D02*
X76224700Y-51061900D01*
X76224700Y-51061900D02*
X76224700Y-51870000D01*
X52000000Y-53045300D02*
X55297400Y-53045300D01*
X55297400Y-53045300D02*
X55504700Y-53252600D01*
X55504700Y-66530000D02*
X55504700Y-53252600D01*
X77400000Y-51870000D02*
X76224700Y-51870000D01*
X52000000Y-51870000D02*
X52000000Y-53045300D01*
X56730000Y-66530000D02*
X55504700Y-66530000D01*
X71530000Y-68530000D02*
X72755300Y-68530000D01*
X74860000Y-72190000D02*
X74860000Y-71014700D01*
X74860000Y-71014700D02*
X74514700Y-71014700D01*
X74514700Y-71014700D02*
X72755300Y-69255300D01*
X72755300Y-69255300D02*
X72755300Y-68530000D01*
X74860000Y-74730000D02*
X74860000Y-73554700D01*
X71530000Y-69530000D02*
X72393100Y-69530000D01*
X72393100Y-69530000D02*
X73684700Y-70821600D01*
X73684700Y-70821600D02*
X73684700Y-72746800D01*
X73684700Y-72746800D02*
X74492600Y-73554700D01*
X74492600Y-73554700D02*
X74860000Y-73554700D01*
X74860000Y-77270000D02*
X74860000Y-76094700D01*
X71530000Y-70530000D02*
X72755300Y-70530000D01*
X72755300Y-70530000D02*
X72755300Y-74354800D01*
X72755300Y-74354800D02*
X74495200Y-76094700D01*
X74495200Y-76094700D02*
X74860000Y-76094700D01*
X74860000Y-79810000D02*
X74860000Y-78634700D01*
X71530000Y-75530000D02*
X72755300Y-75530000D01*
X72755300Y-75530000D02*
X72755300Y-76827600D01*
X72755300Y-76827600D02*
X74562400Y-78634700D01*
X74562400Y-78634700D02*
X74860000Y-78634700D01*
X74860000Y-82350000D02*
X73684700Y-82350000D01*
X67630000Y-79930000D02*
X67630000Y-81155300D01*
X67630000Y-81155300D02*
X72490000Y-81155300D01*
X72490000Y-81155300D02*
X73684700Y-82350000D01*
X73684700Y-84890000D02*
X70364700Y-84890000D01*
X70364700Y-84890000D02*
X66630000Y-81155300D01*
X74860000Y-84890000D02*
X73684700Y-84890000D01*
X66630000Y-79930000D02*
X66630000Y-81155300D01*
X53175300Y-82350000D02*
X54370000Y-81155300D01*
X54370000Y-81155300D02*
X64630000Y-81155300D01*
X52000000Y-82350000D02*
X53175300Y-82350000D01*
X64630000Y-79930000D02*
X64630000Y-81155300D01*
X52000000Y-79810000D02*
X53175300Y-79810000D01*
X55504700Y-77530000D02*
X54867700Y-77530000D01*
X54867700Y-77530000D02*
X53175300Y-79222400D01*
X53175300Y-79222400D02*
X53175300Y-79810000D01*
X56730000Y-77530000D02*
X55504700Y-77530000D01*
X52000000Y-77270000D02*
X53175300Y-77270000D01*
X56730000Y-76530000D02*
X53915300Y-76530000D01*
X53915300Y-76530000D02*
X53175300Y-77270000D01*
X75291000Y-68380000D02*
X73605300Y-68380000D01*
X73605300Y-68380000D02*
X72755300Y-67530000D01*
X76235200Y-77270000D02*
X76035400Y-77070200D01*
X76035400Y-77070200D02*
X76035400Y-69124400D01*
X76035400Y-69124400D02*
X75291000Y-68380000D01*
X64630000Y-63404700D02*
X67180100Y-60854600D01*
X67180100Y-60854600D02*
X75411500Y-60854600D01*
X75411500Y-60854600D02*
X76078200Y-61521300D01*
X76078200Y-61521300D02*
X76078200Y-67592800D01*
X76078200Y-67592800D02*
X75291000Y-68380000D01*
X64630000Y-64630000D02*
X64630000Y-63404700D01*
X71530000Y-67530000D02*
X72755300Y-67530000D01*
X72978900Y-79591100D02*
X74373100Y-80985300D01*
X74373100Y-80985300D02*
X75346900Y-80985300D01*
X75346900Y-80985300D02*
X76224700Y-80107500D01*
X76224700Y-80107500D02*
X76224700Y-77280500D01*
X76224700Y-77280500D02*
X76235200Y-77270000D01*
X72030100Y-77530000D02*
X71530000Y-77029900D01*
X71530000Y-77029900D02*
X71530000Y-76530000D01*
X72030100Y-77530000D02*
X72755300Y-77530000D01*
X71530000Y-77530000D02*
X72030100Y-77530000D01*
X55202500Y-78259300D02*
X55202500Y-79685900D01*
X55202500Y-79685900D02*
X55163500Y-79724900D01*
X72755300Y-77530000D02*
X72755300Y-79367500D01*
X72755300Y-79367500D02*
X72978900Y-79591100D01*
X77400000Y-77270000D02*
X76235200Y-77270000D01*
X52000000Y-74730000D02*
X53175300Y-74730000D01*
X56730000Y-75530000D02*
X53975300Y-75530000D01*
X53975300Y-75530000D02*
X53175300Y-74730000D01*
X56730000Y-74530000D02*
X55504700Y-74530000D01*
X52000000Y-72190000D02*
X53175300Y-72190000D01*
X55504700Y-74530000D02*
X55504700Y-74519400D01*
X55504700Y-74519400D02*
X53175300Y-72190000D01*
X52000000Y-69650000D02*
X52000000Y-70825300D01*
X56730000Y-73530000D02*
X55504700Y-73530000D01*
X55504700Y-73530000D02*
X52800000Y-70825300D01*
X52800000Y-70825300D02*
X52000000Y-70825300D01*
X56730000Y-72530000D02*
X55504700Y-72530000D01*
X55504700Y-72530000D02*
X53718800Y-70744100D01*
X53718800Y-70744100D02*
X53718800Y-70220400D01*
X55504700Y-71530000D02*
X54861600Y-70886900D01*
X54861600Y-70886900D02*
X54861600Y-70303900D01*
X54861600Y-70303900D02*
X53175300Y-68617600D01*
X53175300Y-68617600D02*
X53175300Y-66619300D01*
X53175300Y-66619300D02*
X52301300Y-65745300D01*
X52301300Y-65745300D02*
X52000000Y-65745300D01*
X52000000Y-64570000D02*
X52000000Y-65745300D01*
X56730000Y-71530000D02*
X55504700Y-71530000D01*
X55504700Y-70530000D02*
X55504700Y-70310100D01*
X55504700Y-70310100D02*
X53625600Y-68431000D01*
X53625600Y-68431000D02*
X53625600Y-64463500D01*
X53625600Y-64463500D02*
X52367400Y-63205300D01*
X52367400Y-63205300D02*
X52000000Y-63205300D01*
X52000000Y-62030000D02*
X52000000Y-63205300D01*
X56730000Y-70530000D02*
X55504700Y-70530000D01*
X55504700Y-69530000D02*
X54075900Y-68101200D01*
X54075900Y-68101200D02*
X54075900Y-62373900D01*
X54075900Y-62373900D02*
X52367300Y-60665300D01*
X52367300Y-60665300D02*
X52000000Y-60665300D01*
X52000000Y-59490000D02*
X52000000Y-60665300D01*
X56730000Y-69530000D02*
X55504700Y-69530000D01*
X55504700Y-68530000D02*
X54526200Y-67551500D01*
X54526200Y-67551500D02*
X54526200Y-60284200D01*
X54526200Y-60284200D02*
X52367300Y-58125300D01*
X52367300Y-58125300D02*
X52000000Y-58125300D01*
X52000000Y-56950000D02*
X52000000Y-58125300D01*
X56730000Y-68530000D02*
X55504700Y-68530000D01*
X71530000Y-66530000D02*
X72772600Y-66530000D01*
X72772600Y-66530000D02*
X73032500Y-66789900D01*
X67630000Y-64630000D02*
X68071700Y-64188300D01*
X68071700Y-64188300D02*
X71938300Y-64188300D01*
X71938300Y-64188300D02*
X74860000Y-67110000D01*
X66630000Y-63404700D02*
X72519400Y-63404700D01*
X72519400Y-63404700D02*
X73684700Y-64570000D01*
X74860000Y-64570000D02*
X73684700Y-64570000D01*
X66630000Y-64630000D02*
X66630000Y-63404700D01*
X65630000Y-63404700D02*
X67004700Y-62030000D01*
X67004700Y-62030000D02*
X73684700Y-62030000D01*
X74860000Y-62030000D02*
X73684700Y-62030000D01*
X65630000Y-64630000D02*
X65630000Y-63404700D01*
X73684700Y-59490000D02*
X67544700Y-59490000D01*
X67544700Y-59490000D02*
X63630000Y-63404700D01*
X74860000Y-59490000D02*
X73684700Y-59490000D01*
X63630000Y-64630000D02*
X63630000Y-63404700D01*
X73684700Y-56950000D02*
X69084700Y-56950000D01*
X69084700Y-56950000D02*
X62630000Y-63404700D01*
X74860000Y-56950000D02*
X73684700Y-56950000D01*
X62630000Y-64630000D02*
X62630000Y-63404700D01*
X73684700Y-54410000D02*
X70624700Y-54410000D01*
X70624700Y-54410000D02*
X61630000Y-63404700D01*
X74860000Y-54410000D02*
X73684700Y-54410000D01*
X61630000Y-64630000D02*
X61630000Y-63404700D01*
X60630000Y-63404700D02*
X72164700Y-51870000D01*
X72164700Y-51870000D02*
X73684700Y-51870000D01*
X74860000Y-51870000D02*
X73684700Y-51870000D01*
X60630000Y-64630000D02*
X60630000Y-63404700D01*
X52000000Y-84890000D02*
X61895300Y-84890000D01*
X61895300Y-84890000D02*
X65630000Y-81155300D01*
X65630000Y-81155300D02*
X70540000Y-86065300D01*
X70540000Y-86065300D02*
X75416800Y-86065300D01*
X75416800Y-86065300D02*
X76224700Y-85257400D01*
X76224700Y-85257400D02*
X76224700Y-84890000D01*
X77400000Y-84890000D02*
X76224700Y-84890000D01*
X65630000Y-79930000D02*
X65630000Y-81155300D01*
M02*
