<?xml version="1.0" standalone="no"?>
 <!DOCTYPE svg PUBLIC "-//W3C//DTD SVG 1.1//EN" 
 "http://www.w3.org/Graphics/SVG/1.1/DTD/svg11.dtd"> 
<svg xmlns="http://www.w3.org/2000/svg" version="1.1" 
    width="29.7002cm" height="21.0007cm" viewBox="0 0 116930 82680 ">
<title>SVG Picture created as RAK3172_BREAKOUT-F_SilkS.svg date 2022/04/08 22:01:10 </title>
  <desc>Picture generated by PCBNEW </desc>
<g style="fill:#000000; fill-opacity:1;stroke:#000000; stroke-opacity:1;
stroke-linecap:round; stroke-linejoin:round; "
 transform="translate(0 0) scale(1 1)">
</g>
<g style="fill:#000000; fill-opacity:0.0; 
stroke:#000000; stroke-width:-0.000393701; stroke-opacity:1; 
stroke-linecap:round; stroke-linejoin:round;">
</g>
<g style="fill:#000000; fill-opacity:0.0; 
stroke:#000000; stroke-width:49.2126; stroke-opacity:1; 
stroke-linecap:round; stroke-linejoin:round;">
<text x="27308" y="20043.1"
textLength="526.715" font-size="314.961" lengthAdjust="spacingAndGlyphs"
text-anchor="middle" opacity="0">32</text>
<path d="M27116 19795
L27263 19795
L27184 19885
L27218 19885
L27240 19896
L27251 19908
L27263 19930
L27263 19986
L27251 20009
L27240 20020
L27218 20031
L27150 20031
L27128 20020
L27116 20009
" />
<path d="M27352 19818
L27364 19806
L27386 19795
L27442 19795
L27465 19806
L27476 19818
L27487 19840
L27487 19863
L27476 19896
L27341 20031
L27487 20031
" />
<text x="27308" y="20446.6"
textLength="513.92" font-size="314.961" lengthAdjust="spacingAndGlyphs"
text-anchor="middle" opacity="0">31</text>
<path d="M27116 20199
L27263 20199
L27184 20289
L27218 20289
L27240 20300
L27251 20311
L27263 20334
L27263 20390
L27251 20412
L27240 20424
L27218 20435
L27150 20435
L27128 20424
L27116 20412
" />
<path d="M27487 20435
L27352 20435
" />
<path d="M27420 20435
L27420 20199
L27397 20232
L27375 20255
L27352 20266
" />
<text x="27308" y="20850.2"
textLength="513.92" font-size="314.961" lengthAdjust="spacingAndGlyphs"
text-anchor="middle" opacity="0">30</text>
<path d="M27116 20602
L27263 20602
L27184 20692
L27218 20692
L27240 20703
L27251 20715
L27263 20737
L27263 20793
L27251 20816
L27240 20827
L27218 20838
L27150 20838
L27128 20827
L27116 20816
" />
<path d="M27409 20602
L27431 20602
L27454 20613
L27465 20625
L27476 20647
L27487 20692
L27487 20748
L27476 20793
L27465 20816
L27454 20827
L27431 20838
L27409 20838
L27386 20827
L27375 20816
L27364 20793
L27352 20748
L27352 20692
L27364 20647
L27375 20625
L27386 20613
L27409 20602
" />
<text x="27308" y="21253.7"
textLength="513.92" font-size="314.961" lengthAdjust="spacingAndGlyphs"
text-anchor="middle" opacity="0">29</text>
<path d="M27128 21028
L27139 21017
L27161 21006
L27218 21006
L27240 21017
L27251 21028
L27263 21051
L27263 21073
L27251 21107
L27116 21242
L27263 21242
" />
<path d="M27375 21242
L27420 21242
L27442 21231
L27454 21219
L27476 21186
L27487 21141
L27487 21051
L27476 21028
L27465 21017
L27442 21006
L27397 21006
L27375 21017
L27364 21028
L27352 21051
L27352 21107
L27364 21129
L27375 21141
L27397 21152
L27442 21152
L27465 21141
L27476 21129
L27487 21107
" />
<text x="27308" y="21657.3"
textLength="513.92" font-size="314.961" lengthAdjust="spacingAndGlyphs"
text-anchor="middle" opacity="0">27</text>
<path d="M27128 21432
L27139 21421
L27161 21409
L27218 21409
L27240 21421
L27251 21432
L27263 21454
L27263 21477
L27251 21511
L27116 21646
L27263 21646
" />
<path d="M27341 21409
L27499 21409
L27397 21646
" />
<text x="27308" y="22060.8"
textLength="513.92" font-size="314.961" lengthAdjust="spacingAndGlyphs"
text-anchor="middle" opacity="0">26</text>
<path d="M27128 21835
L27139 21824
L27161 21813
L27218 21813
L27240 21824
L27251 21835
L27263 21858
L27263 21880
L27251 21914
L27116 22049
L27263 22049
" />
<path d="M27465 21813
L27420 21813
L27397 21824
L27386 21835
L27364 21869
L27352 21914
L27352 22004
L27364 22027
L27375 22038
L27397 22049
L27442 22049
L27465 22038
L27476 22027
L27487 22004
L27487 21948
L27476 21925
L27465 21914
L27442 21903
L27397 21903
L27375 21914
L27364 21925
L27352 21948
" />
<text x="27308" y="22464.3"
textLength="513.92" font-size="314.961" lengthAdjust="spacingAndGlyphs"
text-anchor="middle" opacity="0">25</text>
<path d="M27128 22239
L27139 22228
L27161 22216
L27218 22216
L27240 22228
L27251 22239
L27263 22261
L27263 22284
L27251 22318
L27116 22453
L27263 22453
" />
<path d="M27476 22216
L27364 22216
L27352 22329
L27364 22318
L27386 22306
L27442 22306
L27465 22318
L27476 22329
L27487 22351
L27487 22408
L27476 22430
L27465 22441
L27442 22453
L27386 22453
L27364 22441
L27352 22430
" />
<text x="27308" y="22867.9"
textLength="513.92" font-size="314.961" lengthAdjust="spacingAndGlyphs"
text-anchor="middle" opacity="0">24</text>
<path d="M27128 22642
L27139 22631
L27161 22620
L27218 22620
L27240 22631
L27251 22642
L27263 22665
L27263 22687
L27251 22721
L27116 22856
L27263 22856
" />
<path d="M27465 22699
L27465 22856
" />
<path d="M27409 22609
L27352 22777
L27499 22777
" />
<text x="27308" y="23271.4"
textLength="513.92" font-size="314.961" lengthAdjust="spacingAndGlyphs"
text-anchor="middle" opacity="0">22</text>
<path d="M27128 23046
L27139 23035
L27161 23023
L27218 23023
L27240 23035
L27251 23046
L27263 23068
L27263 23091
L27251 23125
L27116 23260
L27263 23260
" />
<path d="M27352 23046
L27364 23035
L27386 23023
L27442 23023
L27465 23035
L27476 23046
L27487 23068
L27487 23091
L27476 23125
L27341 23260
L27487 23260
" />
<text x="27308" y="23675"
textLength="513.92" font-size="314.961" lengthAdjust="spacingAndGlyphs"
text-anchor="middle" opacity="0">21</text>
<path d="M27128 23449
L27139 23438
L27161 23427
L27218 23427
L27240 23438
L27251 23449
L27263 23472
L27263 23494
L27251 23528
L27116 23663
L27263 23663
" />
<path d="M27487 23663
L27352 23663
" />
<path d="M27420 23663
L27420 23427
L27397 23461
L27375 23483
L27352 23494
" />
<text x="27308" y="24078.5"
textLength="513.92" font-size="314.961" lengthAdjust="spacingAndGlyphs"
text-anchor="middle" opacity="0">20</text>
<path d="M27128 23853
L27139 23842
L27161 23831
L27218 23831
L27240 23842
L27251 23853
L27263 23876
L27263 23898
L27251 23932
L27116 24067
L27263 24067
" />
<path d="M27409 23831
L27431 23831
L27454 23842
L27465 23853
L27476 23876
L27487 23921
L27487 23977
L27476 24022
L27465 24044
L27454 24056
L27431 24067
L27409 24067
L27386 24056
L27375 24044
L27364 24022
L27352 23977
L27352 23921
L27364 23876
L27375 23853
L27386 23842
L27409 23831
" />
<text x="27308" y="24482.1"
textLength="513.92" font-size="314.961" lengthAdjust="spacingAndGlyphs"
text-anchor="middle" opacity="0">19</text>
<path d="M27263 24470
L27128 24470
" />
<path d="M27195 24470
L27195 24234
L27173 24268
L27150 24290
L27128 24302
" />
<path d="M27375 24470
L27420 24470
L27442 24459
L27454 24448
L27476 24414
L27487 24369
L27487 24279
L27476 24257
L27465 24245
L27442 24234
L27397 24234
L27375 24245
L27364 24257
L27352 24279
L27352 24335
L27364 24358
L27375 24369
L27397 24380
L27442 24380
L27465 24369
L27476 24358
L27487 24335
" />
<text x="27308" y="24885.6"
textLength="513.92" font-size="314.961" lengthAdjust="spacingAndGlyphs"
text-anchor="middle" opacity="0">16</text>
<path d="M27263 24874
L27128 24874
" />
<path d="M27195 24874
L27195 24638
L27173 24671
L27150 24694
L27128 24705
" />
<path d="M27465 24638
L27420 24638
L27397 24649
L27386 24660
L27364 24694
L27352 24739
L27352 24829
L27364 24851
L27375 24863
L27397 24874
L27442 24874
L27465 24863
L27476 24851
L27487 24829
L27487 24773
L27476 24750
L27465 24739
L27442 24728
L27397 24728
L27375 24739
L27364 24750
L27352 24773
" />
<text x="27308" y="25289.1"
textLength="513.92" font-size="314.961" lengthAdjust="spacingAndGlyphs"
text-anchor="middle" opacity="0">15</text>
<path d="M27263 25277
L27128 25277
" />
<path d="M27195 25277
L27195 25041
L27173 25075
L27150 25097
L27128 25109
" />
<path d="M27476 25041
L27364 25041
L27352 25154
L27364 25142
L27386 25131
L27442 25131
L27465 25142
L27476 25154
L27487 25176
L27487 25232
L27476 25255
L27465 25266
L27442 25277
L27386 25277
L27364 25266
L27352 25255
" />
<text x="21368" y="20061.1"
textLength="288.948" font-size="314.961" lengthAdjust="spacingAndGlyphs"
text-anchor="middle" opacity="0">1</text>
<path d="M21435 20049
L21300 20049
" />
<path d="M21368 20049
L21368 19813
L21345 19847
L21323 19869
L21300 19881
" />
<text x="21368" y="20464.6"
textLength="288.948" font-size="314.961" lengthAdjust="spacingAndGlyphs"
text-anchor="middle" opacity="0">2</text>
<path d="M21300 20239
L21311 20228
L21334 20217
L21390 20217
L21412 20228
L21424 20239
L21435 20262
L21435 20284
L21424 20318
L21289 20453
L21435 20453
" />
<text x="21368" y="20868.2"
textLength="288.948" font-size="314.961" lengthAdjust="spacingAndGlyphs"
text-anchor="middle" opacity="0">3</text>
<path d="M21289 20620
L21435 20620
L21356 20710
L21390 20710
L21412 20721
L21424 20733
L21435 20755
L21435 20811
L21424 20834
L21412 20845
L21390 20856
L21323 20856
L21300 20845
L21289 20834
" />
<text x="21368" y="21271.7"
textLength="288.948" font-size="314.961" lengthAdjust="spacingAndGlyphs"
text-anchor="middle" opacity="0">4</text>
<path d="M21412 21102
L21412 21260
" />
<path d="M21356 21012
L21300 21181
L21446 21181
" />
<text x="21368" y="21675.3"
textLength="288.948" font-size="314.961" lengthAdjust="spacingAndGlyphs"
text-anchor="middle" opacity="0">5</text>
<path d="M21424 21427
L21311 21427
L21300 21540
L21311 21529
L21334 21517
L21390 21517
L21412 21529
L21424 21540
L21435 21562
L21435 21619
L21424 21641
L21412 21652
L21390 21664
L21334 21664
L21311 21652
L21300 21641
" />
<text x="21368" y="22078.8"
textLength="288.948" font-size="314.961" lengthAdjust="spacingAndGlyphs"
text-anchor="middle" opacity="0">6</text>
<path d="M21412 21831
L21368 21831
L21345 21842
L21334 21853
L21311 21887
L21300 21932
L21300 22022
L21311 22045
L21323 22056
L21345 22067
L21390 22067
L21412 22056
L21424 22045
L21435 22022
L21435 21966
L21424 21943
L21412 21932
L21390 21921
L21345 21921
L21323 21932
L21311 21943
L21300 21966
" />
<text x="21368" y="22482.3"
textLength="288.948" font-size="314.961" lengthAdjust="spacingAndGlyphs"
text-anchor="middle" opacity="0">7</text>
<path d="M21289 22234
L21446 22234
L21345 22471
" />
<text x="21368" y="22885.9"
textLength="288.948" font-size="314.961" lengthAdjust="spacingAndGlyphs"
text-anchor="middle" opacity="0">8</text>
<path d="M21345 22739
L21323 22728
L21311 22717
L21300 22694
L21300 22683
L21311 22660
L21323 22649
L21345 22638
L21390 22638
L21412 22649
L21424 22660
L21435 22683
L21435 22694
L21424 22717
L21412 22728
L21390 22739
L21345 22739
L21323 22750
L21311 22762
L21300 22784
L21300 22829
L21311 22852
L21323 22863
L21345 22874
L21390 22874
L21412 22863
L21424 22852
L21435 22829
L21435 22784
L21424 22762
L21412 22750
L21390 22739
" />
<text x="21368" y="23289.4"
textLength="288.948" font-size="314.961" lengthAdjust="spacingAndGlyphs"
text-anchor="middle" opacity="0">9</text>
<path d="M21323 23278
L21368 23278
L21390 23266
L21401 23255
L21424 23221
L21435 23176
L21435 23086
L21424 23064
L21412 23053
L21390 23041
L21345 23041
L21323 23053
L21311 23064
L21300 23086
L21300 23143
L21311 23165
L21323 23176
L21345 23188
L21390 23188
L21412 23176
L21424 23165
L21435 23143
" />
<text x="21368" y="23693"
textLength="513.92" font-size="314.961" lengthAdjust="spacingAndGlyphs"
text-anchor="middle" opacity="0">10</text>
<path d="M21323 23681
L21188 23681
" />
<path d="M21255 23681
L21255 23445
L21233 23479
L21210 23501
L21188 23512
" />
<path d="M21469 23445
L21491 23445
L21514 23456
L21525 23467
L21536 23490
L21547 23535
L21547 23591
L21536 23636
L21525 23659
L21514 23670
L21491 23681
L21469 23681
L21446 23670
L21435 23659
L21424 23636
L21412 23591
L21412 23535
L21424 23490
L21435 23467
L21446 23456
L21469 23445
" />
<text x="21368" y="24096.5"
textLength="513.92" font-size="314.961" lengthAdjust="spacingAndGlyphs"
text-anchor="middle" opacity="0">11</text>
<path d="M21323 24085
L21188 24085
" />
<path d="M21255 24085
L21255 23849
L21233 23882
L21210 23905
L21188 23916
" />
<path d="M21547 24085
L21412 24085
" />
<path d="M21480 24085
L21480 23849
L21457 23882
L21435 23905
L21412 23916
" />
<text x="21368" y="24500.1"
textLength="513.92" font-size="314.961" lengthAdjust="spacingAndGlyphs"
text-anchor="middle" opacity="0">12</text>
<path d="M21323 24488
L21188 24488
" />
<path d="M21255 24488
L21255 24252
L21233 24286
L21210 24308
L21188 24320
" />
<path d="M21412 24275
L21424 24263
L21446 24252
L21502 24252
L21525 24263
L21536 24275
L21547 24297
L21547 24320
L21536 24353
L21401 24488
L21547 24488
" />
<text x="21368" y="24903.6"
textLength="513.92" font-size="314.961" lengthAdjust="spacingAndGlyphs"
text-anchor="middle" opacity="0">13</text>
<path d="M21323 24892
L21188 24892
" />
<path d="M21255 24892
L21255 24656
L21233 24689
L21210 24712
L21188 24723
" />
<path d="M21401 24656
L21547 24656
L21469 24746
L21502 24746
L21525 24757
L21536 24768
L21547 24791
L21547 24847
L21536 24869
L21525 24881
L21502 24892
L21435 24892
L21412 24881
L21401 24869
" />
<text x="21368" y="25307.1"
textLength="513.92" font-size="314.961" lengthAdjust="spacingAndGlyphs"
text-anchor="middle" opacity="0">14</text>
<path d="M21323 25295
L21188 25295
" />
<path d="M21255 25295
L21255 25059
L21233 25093
L21210 25115
L21188 25127
" />
<path d="M21525 25138
L21525 25295
" />
<path d="M21469 25048
L21412 25217
L21559 25217
" />
<text x="28552" y="20003.1"
textLength="288.948" font-size="314.961" lengthAdjust="spacingAndGlyphs"
text-anchor="middle" opacity="0">1</text>
<path d="M28619 19991
L28484 19991
" />
<path d="M28552 19991
L28552 19755
L28529 19789
L28507 19811
L28484 19823
" />
<text x="28552" y="20406.6"
textLength="288.948" font-size="314.961" lengthAdjust="spacingAndGlyphs"
text-anchor="middle" opacity="0">2</text>
<path d="M28484 20181
L28495 20170
L28518 20159
L28574 20159
L28596 20170
L28608 20181
L28619 20204
L28619 20226
L28608 20260
L28473 20395
L28619 20395
" />
<text x="28552" y="20810.2"
textLength="288.948" font-size="314.961" lengthAdjust="spacingAndGlyphs"
text-anchor="middle" opacity="0">3</text>
<path d="M28473 20562
L28619 20562
L28540 20652
L28574 20652
L28596 20663
L28608 20675
L28619 20697
L28619 20753
L28608 20776
L28596 20787
L28574 20798
L28507 20798
L28484 20787
L28473 20776
" />
<text x="28552" y="21213.7"
textLength="288.948" font-size="314.961" lengthAdjust="spacingAndGlyphs"
text-anchor="middle" opacity="0">4</text>
<path d="M28596 21044
L28596 21202
" />
<path d="M28540 20954
L28484 21123
L28630 21123
" />
<text x="28552" y="21617.3"
textLength="288.948" font-size="314.961" lengthAdjust="spacingAndGlyphs"
text-anchor="middle" opacity="0">5</text>
<path d="M28608 21369
L28495 21369
L28484 21482
L28495 21471
L28518 21459
L28574 21459
L28596 21471
L28608 21482
L28619 21504
L28619 21561
L28608 21583
L28596 21594
L28574 21606
L28518 21606
L28495 21594
L28484 21583
" />
<text x="28552" y="22020.8"
textLength="288.948" font-size="314.961" lengthAdjust="spacingAndGlyphs"
text-anchor="middle" opacity="0">6</text>
<path d="M28596 21773
L28552 21773
L28529 21784
L28518 21795
L28495 21829
L28484 21874
L28484 21964
L28495 21987
L28507 21998
L28529 22009
L28574 22009
L28596 21998
L28608 21987
L28619 21964
L28619 21908
L28608 21885
L28596 21874
L28574 21863
L28529 21863
L28507 21874
L28495 21885
L28484 21908
" />
<text x="28552" y="22424.3"
textLength="288.948" font-size="314.961" lengthAdjust="spacingAndGlyphs"
text-anchor="middle" opacity="0">7</text>
<path d="M28473 22176
L28630 22176
L28529 22413
" />
<text x="28552" y="22827.9"
textLength="288.948" font-size="314.961" lengthAdjust="spacingAndGlyphs"
text-anchor="middle" opacity="0">8</text>
<path d="M28529 22681
L28507 22670
L28495 22659
L28484 22636
L28484 22625
L28495 22602
L28507 22591
L28529 22580
L28574 22580
L28596 22591
L28608 22602
L28619 22625
L28619 22636
L28608 22659
L28596 22670
L28574 22681
L28529 22681
L28507 22692
L28495 22704
L28484 22726
L28484 22771
L28495 22794
L28507 22805
L28529 22816
L28574 22816
L28596 22805
L28608 22794
L28619 22771
L28619 22726
L28608 22704
L28596 22692
L28574 22681
" />
<text x="28552" y="23231.4"
textLength="288.948" font-size="314.961" lengthAdjust="spacingAndGlyphs"
text-anchor="middle" opacity="0">9</text>
<path d="M28507 23220
L28552 23220
L28574 23208
L28585 23197
L28608 23163
L28619 23118
L28619 23028
L28608 23006
L28596 22995
L28574 22983
L28529 22983
L28507 22995
L28495 23006
L28484 23028
L28484 23085
L28495 23107
L28507 23118
L28529 23130
L28574 23130
L28596 23118
L28608 23107
L28619 23085
" />
<text x="28552" y="23635"
textLength="513.92" font-size="314.961" lengthAdjust="spacingAndGlyphs"
text-anchor="middle" opacity="0">10</text>
<path d="M28507 23623
L28372 23623
" />
<path d="M28439 23623
L28439 23387
L28417 23421
L28394 23443
L28372 23454
" />
<path d="M28653 23387
L28675 23387
L28698 23398
L28709 23409
L28720 23432
L28731 23477
L28731 23533
L28720 23578
L28709 23601
L28698 23612
L28675 23623
L28653 23623
L28630 23612
L28619 23601
L28608 23578
L28596 23533
L28596 23477
L28608 23432
L28619 23409
L28630 23398
L28653 23387
" />
<text x="28552" y="24038.5"
textLength="513.92" font-size="314.961" lengthAdjust="spacingAndGlyphs"
text-anchor="middle" opacity="0">11</text>
<path d="M28507 24027
L28372 24027
" />
<path d="M28439 24027
L28439 23791
L28417 23824
L28394 23847
L28372 23858
" />
<path d="M28731 24027
L28596 24027
" />
<path d="M28664 24027
L28664 23791
L28641 23824
L28619 23847
L28596 23858
" />
<text x="28552" y="24442.1"
textLength="513.92" font-size="314.961" lengthAdjust="spacingAndGlyphs"
text-anchor="middle" opacity="0">12</text>
<path d="M28507 24430
L28372 24430
" />
<path d="M28439 24430
L28439 24194
L28417 24228
L28394 24250
L28372 24262
" />
<path d="M28596 24217
L28608 24205
L28630 24194
L28686 24194
L28709 24205
L28720 24217
L28731 24239
L28731 24262
L28720 24295
L28585 24430
L28731 24430
" />
<text x="28552" y="24845.6"
textLength="513.92" font-size="314.961" lengthAdjust="spacingAndGlyphs"
text-anchor="middle" opacity="0">13</text>
<path d="M28507 24834
L28372 24834
" />
<path d="M28439 24834
L28439 24598
L28417 24631
L28394 24654
L28372 24665
" />
<path d="M28585 24598
L28731 24598
L28653 24688
L28686 24688
L28709 24699
L28720 24710
L28731 24733
L28731 24789
L28720 24811
L28709 24823
L28686 24834
L28619 24834
L28596 24823
L28585 24811
" />
<text x="28552" y="25249.1"
textLength="513.92" font-size="314.961" lengthAdjust="spacingAndGlyphs"
text-anchor="middle" opacity="0">14</text>
<path d="M28507 25237
L28372 25237
" />
<path d="M28439 25237
L28439 25001
L28417 25035
L28394 25057
L28372 25069
" />
<path d="M28709 25080
L28709 25237
" />
<path d="M28653 24990
L28596 25159
L28743 25159
" />
</g>
<g style="fill:#000000; fill-opacity:0.0; 
stroke:#000000; stroke-width:59.0551; stroke-opacity:1; 
stroke-linecap:round; stroke-linejoin:round;">
<text x="25242" y="32669.2"
textLength="2688.65" font-size="524.934" lengthAdjust="spacingAndGlyphs"
text-anchor="start" opacity="0">RAK3172</text>
<path d="M25599 32650
L25467 32463
" />
<path d="M25374 32650
L25374 32256
L25524 32256
L25561 32275
L25580 32294
L25599 32331
L25599 32388
L25580 32425
L25561 32444
L25524 32463
L25374 32463
" />
<path d="M25749 32538
L25936 32538
" />
<path d="M25711 32650
L25842 32256
L25974 32650
" />
<path d="M26105 32650
L26105 32256
" />
<path d="M26330 32650
L26161 32425
" />
<path d="M26330 32256
L26105 32481
" />
<path d="M26461 32256
L26705 32256
L26573 32406
L26630 32406
L26667 32425
L26686 32444
L26705 32481
L26705 32575
L26686 32613
L26667 32631
L26630 32650
L26517 32650
L26480 32631
L26461 32613
" />
<path d="M27080 32650
L26855 32650
" />
<path d="M26967 32650
L26967 32256
L26930 32313
L26892 32350
L26855 32369
" />
<path d="M27211 32256
L27473 32256
L27305 32650
" />
<path d="M27605 32294
L27623 32275
L27661 32256
L27755 32256
L27792 32275
L27811 32294
L27830 32331
L27830 32369
L27811 32425
L27586 32650
L27830 32650
" />
<text x="25242" y="33318.9"
textLength="3376.36" font-size="524.934" lengthAdjust="spacingAndGlyphs"
text-anchor="start" opacity="0">BREAKOUT </text>
<path d="M25505 33093
L25561 33112
L25580 33131
L25599 33168
L25599 33225
L25580 33262
L25561 33281
L25524 33300
L25374 33300
L25374 32906
L25505 32906
L25542 32925
L25561 32943
L25580 32981
L25580 33018
L25561 33056
L25542 33075
L25505 33093
L25374 33093
" />
<path d="M25992 33300
L25861 33112
" />
<path d="M25767 33300
L25767 32906
L25917 32906
L25955 32925
L25974 32943
L25992 32981
L25992 33037
L25974 33075
L25955 33093
L25917 33112
L25767 33112
" />
<path d="M26161 33093
L26292 33093
" />
<path d="M26349 33300
L26161 33300
L26161 32906
L26349 32906
" />
<path d="M26498 33187
L26686 33187
" />
<path d="M26461 33300
L26592 32906
L26723 33300
" />
<path d="M26855 33300
L26855 32906
" />
<path d="M27080 33300
L26911 33075
" />
<path d="M27080 32906
L26855 33131
" />
<path d="M27323 32906
L27398 32906
L27436 32925
L27473 32962
L27492 33037
L27492 33168
L27473 33243
L27436 33281
L27398 33300
L27323 33300
L27286 33281
L27248 33243
L27230 33168
L27230 33037
L27248 32962
L27286 32925
L27323 32906
" />
<path d="M27661 32906
L27661 33225
L27680 33262
L27698 33281
L27736 33300
L27811 33300
L27848 33281
L27867 33262
L27886 33225
L27886 32906
" />
<path d="M28017 32906
L28242 32906
" />
<path d="M28130 33300
L28130 32906
" />
<text x="25242" y="33968.5"
textLength="789.183" font-size="524.934" lengthAdjust="spacingAndGlyphs"
text-anchor="start" opacity="0">V0</text>
<path d="M25317 33556
L25449 33949
L25580 33556
" />
<path d="M25786 33556
L25824 33556
L25861 33574
L25880 33593
L25899 33630
L25917 33705
L25917 33799
L25899 33874
L25880 33912
L25861 33930
L25824 33949
L25786 33949
L25749 33930
L25730 33912
L25711 33874
L25692 33799
L25692 33705
L25711 33630
L25730 33593
L25749 33574
L25786 33556
" />
</g>
<g style="fill:#000000; fill-opacity:0.0; 
stroke:#000000; stroke-width:19.685; stroke-opacity:1; 
stroke-linecap:round; stroke-linejoin:round;">
<path d="M19685 34157
L31259 34157
" />
<path d="M19685 19685
L31259 19685
" />
<path d="M31259 19685
L31259 34157
" />
<path d="M19685 19685
L19685 34157
" />
</g>
<g style="fill:#000000; fill-opacity:0.0; 
stroke:#000000; stroke-width:47.2441; stroke-opacity:1; 
stroke-linecap:round; stroke-linejoin:round;">
<path d="M22248 25358
L22570 25358
" />
<path d="M28248 25681
L28248 25358
" />
<path d="M28248 25358
L27925 25358
" />
<path d="M22248 31232
L22248 31555
" />
<path d="M22570 31555
L22248 31555
" />
<path d="M28248 31232
L28248 31555
" />
<path d="M27925 31555
L28248 31555
" />
<path d="M29948 19897
L30472 19897
" />
<path d="M29948 20421
L29948 19897
" />
<path d="M29948 20921
L30996 20921
" />
<path d="M30996 20921
L30996 33944
" />
<path d="M29948 20921
L29948 33944
" />
<path d="M29948 33944
L30996 33944
" />
<path d="M28948 19897
L29472 19897
" />
<path d="M28948 20421
L28948 19897
" />
<path d="M28948 20921
L29996 20921
" />
<path d="M29996 20921
L29996 33944
" />
<path d="M28948 20921
L28948 33944
" />
<path d="M28948 33944
L29996 33944
" />
<path d="M19948 19897
L20472 19897
" />
<path d="M19948 20421
L19948 19897
" />
<path d="M19948 20921
L20996 20921
" />
<path d="M20996 20921
L20996 33944
" />
<path d="M19948 20921
L19948 33944
" />
<path d="M19948 33944
L20996 33944
" />
</g>
<g style="fill:#000000; fill-opacity:1.0; 
stroke:#000000; stroke-width:3.93701; stroke-opacity:1; 
stroke-linecap:round; stroke-linejoin:round;">
<path style="fill:#000000; fill-opacity:1.0; 
stroke:#000000; stroke-width:3.93701; stroke-opacity:1; 
stroke-linecap:round; stroke-linejoin:round;fill-rule:evenodd;"
d="M 24148.8,21065.5
24181.8,21240.6
24303.6,21290.8
24425.4,21341
24571.4,21241.6
24612.3,21214
24649.3,21189.3
24680.7,21168.7
24704.6,21153.3
24719.4,21144.2
24723.5,21142.3
24730.8,21147.3
24746.3,21161.2
24768.4,21182.1
24795.3,21208.3
24825.2,21238.1
24856.4,21269.7
24887.2,21301.2
24915.8,21331
24940.5,21357.2
24959.5,21378.1
24971,21391.9
24973.8,21396.5
24969.8,21405
24958.6,21423.7
24941.5,21450.7
24919.5,21484.1
24893.8,21522.3
24878.9,21544
24851.8,21583.8
24827.7,21619.6
24807.8,21649.8
24793.2,21672.5
24785.2,21686
24784,21688.9
24786.7,21696.9
24794.2,21715.7
24805.2,21742.6
24818.7,21775
24833.6,21810.1
24848.7,21845.4
24862.8,21878.3
24875,21906
24884,21925.9
24888.7,21935.4
24888.9,21935.8
24896.4,21937.6
24916.1,21941.7
24946.1,21947.5
24984.3,21954.9
25028.7,21963.2
25054.6,21968.1
25102,21977.1
25144.9,21985.7
25181,21993.4
25208.1,21999.7
25224.2,22004.2
25227.4,22005.6
25230.6,22015.2
25233.2,22036.8
25235.1,22067.9
25236.4,22106.1
25237.2,22148.7
25237.3,22193.3
25236.8,22237.2
25235.7,22278.1
25234.1,22313.3
25231.8,22340.3
25228.9,22356.6
25227.2,22360
25216.9,22364
25195.1,22369.8
25164.7,22376.7
25128.5,22384
25115.9,22386.3
25055,22397.5
25006.9,22406.4
24970,22413.6
24942.7,22419.3
24923.5,22423.9
24910.7,22427.8
24902.7,22431.3
24898,22434.7
24897.3,22435.4
24890.7,22446.4
24880.6,22467.8
24868.1,22497
24854.1,22531.3
24839.7,22568.1
24825.8,22604.9
24813.5,22639
24803.7,22667.8
24797.5,22688.6
24795.9,22698.9
24796,22699.3
24801.5,22707.7
24814,22726.2
24832.1,22752.9
24854.6,22785.8
24880.1,22823
24887.4,22833.6
24913.3,22872
24936.2,22906.9
24954.6,22936.6
24967.5,22958.8
24973.5,22971.7
24973.8,22973.3
24968.7,22981.6
24954.8,22998
24933.7,23020.8
24907.2,23048.3
24877.3,23078.6
24845.6,23109.9
24814,23140.6
24784.2,23168.8
24758.1,23192.7
24737.5,23210.7
24724.1,23220.9
24720.4,23222.6
24711.7,23218.7
24694.1,23208.1
24670.3,23192.6
24652,23180.2
24618.8,23157.3
24579.5,23130.4
24540,23103.6
24518.8,23089.2
24447.1,23040.7
24386.8,23073.2
24359.4,23087.5
24336.1,23098.6
24320.3,23104.9
24316.3,23105.8
24311.4,23099.3
24301.9,23080.9
24288.4,23052.4
24271.6,23015.4
24252.2,22971.6
24231,22922.7
24208.6,22870.4
24185.8,22816.5
24163.3,22762.5
24141.8,22710.2
24122,22661.3
24104.6,22617.4
24090.3,22580.3
24079.8,22551.7
24074,22533.2
24073,22526.9
24080.5,22518.8
24096.9,22505.7
24118.9,22490.2
24120.7,22489
24177.3,22443.7
24223,22390.8
24257.3,22332
24279.9,22269.1
24290.3,22203.6
24288.1,22137.4
24273,22072.1
24244.5,22009.4
24236.2,21995.7
24192.6,21940.2
24141.1,21895.7
24083.6,21862.4
24021.7,21840.4
23957.2,21830.1
23891.9,21831.5
23827.7,21845.1
23766.2,21870.9
23709.4,21909.3
23691.8,21924.9
23647,21973.7
23614.3,22025
23592,22082.6
23579.5,22139.6
23576.4,22203.7
23586.7,22268.1
23609.2,22330.6
23643,22389.1
23687.1,22441.4
23740.3,22485.3
23747.3,22490
23769.4,22505.1
23786.3,22518.2
23794.3,22526.6
23794.4,22526.9
23792.7,22536
23785.9,22556.5
23774.6,22587
23759.6,22625.5
23741.7,22670.5
23721.5,22720.2
23699.7,22772.9
23677,22827
23654.3,22880.8
23632,22932.6
23611.1,22980.6
23592.2,23023.2
23576,23058.7
23563.2,23085.4
23554.5,23101.5
23551,23105.8
23540.4,23102.5
23520.4,23093.6
23494.6,23080.7
23480.5,23073.2
23420.2,23040.7
23348.5,23089.2
23311.8,23114.1
23271.7,23141.4
23234.2,23167.2
23215.3,23180.2
23188.9,23197.9
23166.4,23212
23151,23220.6
23146,23222.5
23138.7,23217.5
23122.5,23203.8
23099.1,23182.7
23069.9,23155.7
23036.6,23124.1
23015.6,23103.8
22978.7,23067.6
22946.8,23035.2
22921.3,23008
22903.3,22987.5
22894.2,22974.8
22893.3,22972.3
22897.4,22962.5
22908.6,22942.9
22925.7,22915.2
22947.5,22881.6
22972.7,22844.1
22979.9,22833.6
23006,22795.5
23029.5,22761.3
23048.9,22732.7
23063,22711.8
23070.6,22700.5
23071.3,22699.3
23070.2,22690.3
23064.4,22670.4
23055,22642.3
23042.9,22608.7
23029.1,22572
23014.7,22535.1
23000.6,22500.3
22987.9,22470.5
22977.5,22448.2
22970.5,22436
22970,22435.4
22965.7,22431.9
22958.5,22428.5
22946.7,22424.7
22928.8,22420.3
22903.1,22414.8
22868.2,22407.9
22822.4,22399.3
22764,22388.6
22751.4,22386.3
22714,22379.1
22681.4,22372
22656.4,22365.8
22642,22361.1
22640.1,22360
22636.9,22350.2
22634.3,22328.5
22632.3,22297.2
22631,22259
22630.2,22216.3
22630,22171.7
22630.4,22127.8
22631.4,22087
22633.1,22051.9
22635.3,22025
22638.1,22008.9
22639.9,22005.6
22649.4,22002.2
22671.2,21996.8
22703,21989.8
22742.6,21981.6
22788,21972.7
22812.7,21968.1
22859.6,21959.3
22901.4,21951.4
22936.1,21944.6
22961.7,21939.5
22976,21936.5
22978.4,21935.8
22982.3,21928.1
22990.8,21909.6
23002.5,21882.9
23016.4,21850.6
23031.4,21815.5
23046.4,21780.1
23060.2,21747.1
23071.7,21719.1
23079.7,21698.9
23083.2,21689
23083.3,21688.5
23079.3,21680.7
23068.1,21662.7
23051,21636.3
23029,21603.3
23003.3,21565.5
22988.4,21543.8
22961.2,21503.9
22937.1,21467.8
22917.1,21437.1
22902.6,21413.8
22894.7,21399.6
22893.5,21396.4
22898.4,21389
22912.1,21373.2
22932.7,21350.8
22958.6,21323.5
22987.9,21293.1
23019,21261.4
23050.1,21230.2
23079.4,21201.1
23105.2,21176.1
23125.8,21156.8
23139.4,21145.1
23144,21142.3
23151.4,21146.2
23169.1,21157.3
23195.4,21174.4
23228.6,21196.3
23267,21222
23295.9,21241.6
23441.9,21341
23685.5,21240.6
23718.5,21065.5
23751.5,20890.5
24115.8,20890.5
Z" /> 
<g >
</g>
<g >
</g>
<g >
</g>
<g >
</g>
<g >
</g>
</g>
<g style="fill:#000000; fill-opacity:1.0; 
stroke:#000000; stroke-width:3.93701; stroke-opacity:1; 
stroke-linecap:round; stroke-linejoin:round;">
</g>
<g style="fill:#000000; fill-opacity:0.0; 
stroke:#000000; stroke-width:3.93701; stroke-opacity:1; 
stroke-linecap:round; stroke-linejoin:round;">
</g>
<g style="fill:#000000; fill-opacity:0.0; 
stroke:#000000; stroke-width:59.0551; stroke-opacity:1; 
stroke-linecap:round; stroke-linejoin:round;">
<text x="21968" y="32532.9"
textLength="864.173" font-size="524.934" lengthAdjust="spacingAndGlyphs"
text-anchor="middle" opacity="0">U1</text>
<path d="M21668 32120
L21668 32439
L21686 32476
L21705 32495
L21743 32514
L21818 32514
L21855 32495
L21874 32476
L21893 32439
L21893 32120
" />
<path d="M22286 32514
L22061 32514
" />
<path d="M22174 32514
L22174 32120
L22136 32176
L22099 32214
L22061 32232
" />
<text x="28008" y="20180.9"
textLength="751.687" font-size="524.934" lengthAdjust="spacingAndGlyphs"
text-anchor="middle" opacity="0">J3</text>
<path d="M27876 19768
L27876 20049
L27858 20105
L27820 20143
L27764 20162
L27726 20162
" />
<path d="M28026 19768
L28270 19768
L28139 19918
L28195 19918
L28232 19937
L28251 19955
L28270 19993
L28270 20087
L28251 20124
L28232 20143
L28195 20162
L28082 20162
L28045 20143
L28026 20124
" />
<text x="26688" y="20174.9"
textLength="751.687" font-size="524.934" lengthAdjust="spacingAndGlyphs"
text-anchor="middle" opacity="0">J2</text>
<path d="M26556 19762
L26556 20043
L26538 20099
L26500 20137
L26444 20156
L26406 20156
" />
<path d="M26725 19799
L26744 19781
L26781 19762
L26875 19762
L26912 19781
L26931 19799
L26950 19837
L26950 19874
L26931 19931
L26706 20156
L26950 20156
" />
<text x="21912" y="20200.9"
textLength="751.687" font-size="524.934" lengthAdjust="spacingAndGlyphs"
text-anchor="middle" opacity="0">J1</text>
<path d="M21780 19788
L21780 20069
L21762 20125
L21724 20163
L21668 20182
L21630 20182
" />
<path d="M22174 20182
L21949 20182
" />
<path d="M22061 20182
L22061 19788
L22024 19844
L21986 19882
L21949 19900
" />
<g >
</g>
</g> 
</svg>
