G04 #@! TF.GenerationSoftware,KiCad,Pcbnew,5.1.5+dfsg1-2build2*
G04 #@! TF.CreationDate,2022-03-02T16:10:57-05:00*
G04 #@! TF.ProjectId,RAK3172_BREAKOUT,52414b33-3137-4325-9f42-5245414b4f55,rev?*
G04 #@! TF.SameCoordinates,Original*
G04 #@! TF.FileFunction,Legend,Bot*
G04 #@! TF.FilePolarity,Positive*
%FSLAX46Y46*%
G04 Gerber Fmt 4.6, Leading zero omitted, Abs format (unit mm)*
G04 Created by KiCad (PCBNEW 5.1.5+dfsg1-2build2) date 2022-03-02 16:10:57*
%MOMM*%
%LPD*%
G04 APERTURE LIST*
%ADD10C,0.150000*%
G04 APERTURE END LIST*
D10*
X63695336Y-82850980D02*
X64028669Y-82374790D01*
X64266764Y-82850980D02*
X64266764Y-81850980D01*
X63885812Y-81850980D01*
X63790574Y-81898600D01*
X63742955Y-81946219D01*
X63695336Y-82041457D01*
X63695336Y-82184314D01*
X63742955Y-82279552D01*
X63790574Y-82327171D01*
X63885812Y-82374790D01*
X64266764Y-82374790D01*
X63314383Y-82565266D02*
X62838193Y-82565266D01*
X63409621Y-82850980D02*
X63076288Y-81850980D01*
X62742955Y-82850980D01*
X62409621Y-82850980D02*
X62409621Y-81850980D01*
X61838193Y-82850980D02*
X62266764Y-82279552D01*
X61838193Y-81850980D02*
X62409621Y-82422409D01*
X61504860Y-81850980D02*
X60885812Y-81850980D01*
X61219145Y-82231933D01*
X61076288Y-82231933D01*
X60981050Y-82279552D01*
X60933431Y-82327171D01*
X60885812Y-82422409D01*
X60885812Y-82660504D01*
X60933431Y-82755742D01*
X60981050Y-82803361D01*
X61076288Y-82850980D01*
X61362002Y-82850980D01*
X61457240Y-82803361D01*
X61504860Y-82755742D01*
X59933431Y-82850980D02*
X60504860Y-82850980D01*
X60219145Y-82850980D02*
X60219145Y-81850980D01*
X60314383Y-81993838D01*
X60409621Y-82089076D01*
X60504860Y-82136695D01*
X59600098Y-81850980D02*
X58933431Y-81850980D01*
X59362002Y-82850980D01*
X58600098Y-81946219D02*
X58552479Y-81898600D01*
X58457240Y-81850980D01*
X58219145Y-81850980D01*
X58123907Y-81898600D01*
X58076288Y-81946219D01*
X58028669Y-82041457D01*
X58028669Y-82136695D01*
X58076288Y-82279552D01*
X58647717Y-82850980D01*
X58028669Y-82850980D01*
X63933431Y-83977171D02*
X63790574Y-84024790D01*
X63742955Y-84072409D01*
X63695336Y-84167647D01*
X63695336Y-84310504D01*
X63742955Y-84405742D01*
X63790574Y-84453361D01*
X63885812Y-84500980D01*
X64266764Y-84500980D01*
X64266764Y-83500980D01*
X63933431Y-83500980D01*
X63838193Y-83548600D01*
X63790574Y-83596219D01*
X63742955Y-83691457D01*
X63742955Y-83786695D01*
X63790574Y-83881933D01*
X63838193Y-83929552D01*
X63933431Y-83977171D01*
X64266764Y-83977171D01*
X62695336Y-84500980D02*
X63028669Y-84024790D01*
X63266764Y-84500980D02*
X63266764Y-83500980D01*
X62885812Y-83500980D01*
X62790574Y-83548600D01*
X62742955Y-83596219D01*
X62695336Y-83691457D01*
X62695336Y-83834314D01*
X62742955Y-83929552D01*
X62790574Y-83977171D01*
X62885812Y-84024790D01*
X63266764Y-84024790D01*
X62266764Y-83977171D02*
X61933431Y-83977171D01*
X61790574Y-84500980D02*
X62266764Y-84500980D01*
X62266764Y-83500980D01*
X61790574Y-83500980D01*
X61409621Y-84215266D02*
X60933431Y-84215266D01*
X61504860Y-84500980D02*
X61171526Y-83500980D01*
X60838193Y-84500980D01*
X60504860Y-84500980D02*
X60504860Y-83500980D01*
X59933431Y-84500980D02*
X60362002Y-83929552D01*
X59933431Y-83500980D02*
X60504860Y-84072409D01*
X59314383Y-83500980D02*
X59123907Y-83500980D01*
X59028669Y-83548600D01*
X58933431Y-83643838D01*
X58885812Y-83834314D01*
X58885812Y-84167647D01*
X58933431Y-84358123D01*
X59028669Y-84453361D01*
X59123907Y-84500980D01*
X59314383Y-84500980D01*
X59409621Y-84453361D01*
X59504860Y-84358123D01*
X59552479Y-84167647D01*
X59552479Y-83834314D01*
X59504860Y-83643838D01*
X59409621Y-83548600D01*
X59314383Y-83500980D01*
X58457240Y-83500980D02*
X58457240Y-84310504D01*
X58409621Y-84405742D01*
X58362002Y-84453361D01*
X58266764Y-84500980D01*
X58076288Y-84500980D01*
X57981050Y-84453361D01*
X57933431Y-84405742D01*
X57885812Y-84310504D01*
X57885812Y-83500980D01*
X57552479Y-83500980D02*
X56981050Y-83500980D01*
X57266764Y-84500980D02*
X57266764Y-83500980D01*
X64409621Y-85150980D02*
X64076288Y-86150980D01*
X63742955Y-85150980D01*
X63219145Y-85150980D02*
X63123907Y-85150980D01*
X63028669Y-85198600D01*
X62981050Y-85246219D01*
X62933431Y-85341457D01*
X62885812Y-85531933D01*
X62885812Y-85770028D01*
X62933431Y-85960504D01*
X62981050Y-86055742D01*
X63028669Y-86103361D01*
X63123907Y-86150980D01*
X63219145Y-86150980D01*
X63314383Y-86103361D01*
X63362002Y-86055742D01*
X63409621Y-85960504D01*
X63457240Y-85770028D01*
X63457240Y-85531933D01*
X63409621Y-85341457D01*
X63362002Y-85246219D01*
X63314383Y-85198600D01*
X63219145Y-85150980D01*
M02*
