<?xml version="1.0" standalone="no"?>
 <!DOCTYPE svg PUBLIC "-//W3C//DTD SVG 1.1//EN" 
 "http://www.w3.org/Graphics/SVG/1.1/DTD/svg11.dtd"> 
<svg xmlns="http://www.w3.org/2000/svg" version="1.1" 
    width="29.7002cm" height="21.0007cm" viewBox="0 0 116930 82680 ">
<title>SVG Picture created as RAK3172_BREAKOUT-B_SilkS.svg date 2022/04/08 22:01:10 </title>
  <desc>Picture generated by PCBNEW </desc>
<g style="fill:#000000; fill-opacity:1;stroke:#000000; stroke-opacity:1;
stroke-linecap:round; stroke-linejoin:round; "
 transform="translate(0 0) scale(1 1)">
</g>
<g style="fill:#000000; fill-opacity:0.0; 
stroke:#000000; stroke-width:-0.000393701; stroke-opacity:1; 
stroke-linecap:round; stroke-linejoin:round;">
</g>
<g style="fill:#000000; fill-opacity:0.0; 
stroke:#000000; stroke-width:59.0551; stroke-opacity:1; 
stroke-linecap:round; stroke-linejoin:round;">
<text x="25434" y="32637.2"
textLength="-2847.86" font-size="-524.934" lengthAdjust="spacingAndGlyphs"
text-anchor="start" opacity="0">RAK3172 </text>
<path d="M25076 32618
L25208 32431
" />
<path d="M25301 32618
L25301 32224
L25151 32224
L25114 32243
L25095 32262
L25076 32299
L25076 32356
L25095 32393
L25114 32412
L25151 32431
L25301 32431
" />
<path d="M24926 32506
L24739 32506
" />
<path d="M24964 32618
L24833 32224
L24701 32618
" />
<path d="M24570 32618
L24570 32224
" />
<path d="M24345 32618
L24514 32393
" />
<path d="M24345 32224
L24570 32449
" />
<path d="M24214 32224
L23970 32224
L24102 32374
L24045 32374
L24008 32393
L23989 32412
L23970 32449
L23970 32543
L23989 32581
L24008 32599
L24045 32618
L24158 32618
L24195 32599
L24214 32581
" />
<path d="M23595 32618
L23820 32618
" />
<path d="M23708 32618
L23708 32224
L23745 32281
L23783 32318
L23820 32337
" />
<path d="M23464 32224
L23202 32224
L23370 32618
" />
<path d="M23070 32262
L23052 32243
L23014 32224
L22920 32224
L22883 32243
L22864 32262
L22845 32299
L22845 32337
L22864 32393
L23089 32618
L22845 32618
" />
<text x="25434" y="33286.9"
textLength="-3222.82" font-size="-524.934" lengthAdjust="spacingAndGlyphs"
text-anchor="start" opacity="0">BREAKOUT </text>
<path d="M25170 33061
L25114 33080
L25095 33099
L25076 33136
L25076 33193
L25095 33230
L25114 33249
L25151 33268
L25301 33268
L25301 32874
L25170 32874
L25133 32893
L25114 32911
L25095 32949
L25095 32986
L25114 33024
L25133 33043
L25170 33061
L25301 33061
" />
<path d="M24683 33268
L24814 33080
" />
<path d="M24908 33268
L24908 32874
L24758 32874
L24720 32893
L24701 32911
L24683 32949
L24683 33005
L24701 33043
L24720 33061
L24758 33080
L24908 33080
" />
<path d="M24514 33061
L24383 33061
" />
<path d="M24326 33268
L24514 33268
L24514 32874
L24326 32874
" />
<path d="M24177 33155
L23989 33155
" />
<path d="M24214 33268
L24083 32874
L23952 33268
" />
<path d="M23820 33268
L23820 32874
" />
<path d="M23595 33268
L23764 33043
" />
<path d="M23595 32874
L23820 33099
" />
<path d="M23352 32874
L23277 32874
L23239 32893
L23202 32930
L23183 33005
L23183 33136
L23202 33211
L23239 33249
L23277 33268
L23352 33268
L23389 33249
L23427 33211
L23445 33136
L23445 33005
L23427 32930
L23389 32893
L23352 32874
" />
<path d="M23014 32874
L23014 33193
L22995 33230
L22977 33249
L22939 33268
L22864 33268
L22827 33249
L22808 33230
L22789 33193
L22789 32874
" />
<path d="M22658 32874
L22433 32874
" />
<path d="M22545 33268
L22545 32874
" />
<text x="25434" y="33936.5"
textLength="-635.639" font-size="-524.934" lengthAdjust="spacingAndGlyphs"
text-anchor="start" opacity="0">V0</text>
<path d="M25358 33524
L25226 33917
L25095 33524
" />
<path d="M24889 33524
L24851 33524
L24814 33542
L24795 33561
L24776 33598
L24758 33673
L24758 33767
L24776 33842
L24795 33880
L24814 33898
L24851 33917
L24889 33917
L24926 33898
L24945 33880
L24964 33842
L24983 33767
L24983 33673
L24964 33598
L24945 33561
L24926 33542
L24889 33524
" />
</g>
<g style="fill:#000000; fill-opacity:0.0; 
stroke:#000000; stroke-width:19.685; stroke-opacity:1; 
stroke-linecap:round; stroke-linejoin:round;">
<path d="M19685 34157
L31259 34157
" />
<path d="M19685 19685
L31259 19685
" />
<path d="M31259 19685
L31259 34157
" />
<path d="M19685 19685
L19685 34157
" />
<g >
</g>
<g >
</g>
<g >
</g>
<g >
</g>
<g >
</g>
<g >
</g>
</g> 
</svg>
