G04 #@! TF.GenerationSoftware,KiCad,Pcbnew,5.1.5+dfsg1-2build2*
G04 #@! TF.CreationDate,2022-03-02T16:10:57-05:00*
G04 #@! TF.ProjectId,RAK3172_BREAKOUT,52414b33-3137-4325-9f42-5245414b4f55,rev?*
G04 #@! TF.SameCoordinates,Original*
G04 #@! TF.FileFunction,Copper,L2,Bot*
G04 #@! TF.FilePolarity,Positive*
%FSLAX46Y46*%
G04 Gerber Fmt 4.6, Leading zero omitted, Abs format (unit mm)*
G04 Created by KiCad (PCBNEW 5.1.5+dfsg1-2build2) date 2022-03-02 16:10:57*
%MOMM*%
%LPD*%
G04 APERTURE LIST*
%ADD10O,1.700000X1.700000*%
%ADD11R,1.700000X1.700000*%
%ADD12C,0.800000*%
%ADD13C,0.250000*%
G04 APERTURE END LIST*
D10*
X77400000Y-84890000D03*
X77400000Y-82350000D03*
X77400000Y-79810000D03*
X77400000Y-77270000D03*
X77400000Y-74730000D03*
X77400000Y-72190000D03*
X77400000Y-69650000D03*
X77400000Y-67110000D03*
X77400000Y-64570000D03*
X77400000Y-62030000D03*
X77400000Y-59490000D03*
X77400000Y-56950000D03*
X77400000Y-54410000D03*
D11*
X77400000Y-51870000D03*
D10*
X74860000Y-84890000D03*
X74860000Y-82350000D03*
X74860000Y-79810000D03*
X74860000Y-77270000D03*
X74860000Y-74730000D03*
X74860000Y-72190000D03*
X74860000Y-69650000D03*
X74860000Y-67110000D03*
X74860000Y-64570000D03*
X74860000Y-62030000D03*
X74860000Y-59490000D03*
X74860000Y-56950000D03*
X74860000Y-54410000D03*
D11*
X74860000Y-51870000D03*
D10*
X52000000Y-84890000D03*
X52000000Y-82350000D03*
X52000000Y-79810000D03*
X52000000Y-77270000D03*
X52000000Y-74730000D03*
X52000000Y-72190000D03*
X52000000Y-69650000D03*
X52000000Y-67110000D03*
X52000000Y-64570000D03*
X52000000Y-62030000D03*
X52000000Y-59490000D03*
X52000000Y-56950000D03*
X52000000Y-54410000D03*
D11*
X52000000Y-51870000D03*
D12*
X72978900Y-79591100D03*
X55163500Y-79724900D03*
X55202500Y-78259300D03*
X53718800Y-70220400D03*
X73032500Y-66789900D03*
D13*
X77400000Y-54410000D02*
X76224700Y-54410000D01*
X52000000Y-54410000D02*
X53175300Y-54410000D01*
X53175300Y-54410000D02*
X54350600Y-53234700D01*
X54350600Y-53234700D02*
X75416800Y-53234700D01*
X75416800Y-53234700D02*
X76224700Y-54042600D01*
X76224700Y-54042600D02*
X76224700Y-54410000D01*
X77400000Y-82350000D02*
X76224700Y-82350000D01*
X52000000Y-82350000D02*
X53175300Y-82350000D01*
X53175300Y-82350000D02*
X54350600Y-81174700D01*
X54350600Y-81174700D02*
X75416800Y-81174700D01*
X75416800Y-81174700D02*
X76224700Y-81982600D01*
X76224700Y-81982600D02*
X76224700Y-82350000D01*
X77400000Y-79810000D02*
X76224700Y-79810000D01*
X52000000Y-79810000D02*
X53175300Y-79810000D01*
X53175300Y-79810000D02*
X53994100Y-78991200D01*
X53994100Y-78991200D02*
X64678700Y-78991200D01*
X64678700Y-78991200D02*
X65035200Y-78634700D01*
X65035200Y-78634700D02*
X75416800Y-78634700D01*
X75416800Y-78634700D02*
X76224700Y-79442600D01*
X76224700Y-79442600D02*
X76224700Y-79810000D01*
X72978900Y-79591100D02*
X55297300Y-79591100D01*
X55297300Y-79591100D02*
X55163500Y-79724900D01*
X52000000Y-77270000D02*
X54213200Y-77270000D01*
X54213200Y-77270000D02*
X55202500Y-78259300D01*
X77400000Y-74730000D02*
X76224700Y-74730000D01*
X52000000Y-74730000D02*
X53175300Y-74730000D01*
X53175300Y-74730000D02*
X54350600Y-75905300D01*
X54350600Y-75905300D02*
X75416800Y-75905300D01*
X75416800Y-75905300D02*
X76224700Y-75097400D01*
X76224700Y-75097400D02*
X76224700Y-74730000D01*
X77400000Y-72190000D02*
X76224700Y-72190000D01*
X52000000Y-72190000D02*
X53175300Y-72190000D01*
X53175300Y-72190000D02*
X54350600Y-73365300D01*
X54350600Y-73365300D02*
X75416800Y-73365300D01*
X75416800Y-73365300D02*
X76224700Y-72557400D01*
X76224700Y-72557400D02*
X76224700Y-72190000D01*
X77400000Y-69650000D02*
X76224700Y-69650000D01*
X52000000Y-69650000D02*
X53297900Y-70947900D01*
X53297900Y-70947900D02*
X75292100Y-70947900D01*
X75292100Y-70947900D02*
X76224700Y-70015300D01*
X76224700Y-70015300D02*
X76224700Y-69650000D01*
X53718800Y-69636800D02*
X52367300Y-68285300D01*
X52367300Y-68285300D02*
X52000000Y-68285300D01*
X53718800Y-70220400D02*
X53718800Y-69636800D01*
X53718800Y-69636800D02*
X57420900Y-65934700D01*
X57420900Y-65934700D02*
X75416800Y-65934700D01*
X75416800Y-65934700D02*
X76224700Y-66742600D01*
X76224700Y-66742600D02*
X76224700Y-67110000D01*
X77400000Y-67110000D02*
X76224700Y-67110000D01*
X52000000Y-67110000D02*
X52000000Y-68285300D01*
X53175300Y-64570000D02*
X54350600Y-63394700D01*
X54350600Y-63394700D02*
X75416800Y-63394700D01*
X75416800Y-63394700D02*
X76224700Y-64202600D01*
X76224700Y-64202600D02*
X76224700Y-64570000D01*
X77400000Y-64570000D02*
X76224700Y-64570000D01*
X52000000Y-64570000D02*
X53175300Y-64570000D01*
X77400000Y-62030000D02*
X76224700Y-62030000D01*
X52000000Y-62030000D02*
X53175300Y-62030000D01*
X53175300Y-62030000D02*
X54350600Y-60854700D01*
X54350600Y-60854700D02*
X75416800Y-60854700D01*
X75416800Y-60854700D02*
X76224700Y-61662600D01*
X76224700Y-61662600D02*
X76224700Y-62030000D01*
X77400000Y-59490000D02*
X76224700Y-59490000D01*
X52000000Y-59490000D02*
X53175300Y-59490000D01*
X53175300Y-59490000D02*
X54350600Y-58314700D01*
X54350600Y-58314700D02*
X75416800Y-58314700D01*
X75416800Y-58314700D02*
X76224700Y-59122600D01*
X76224700Y-59122600D02*
X76224700Y-59490000D01*
X77400000Y-56950000D02*
X76224700Y-56950000D01*
X52000000Y-56950000D02*
X53175300Y-56950000D01*
X53175300Y-56950000D02*
X54350600Y-55774700D01*
X54350600Y-55774700D02*
X75416800Y-55774700D01*
X75416800Y-55774700D02*
X76224700Y-56582600D01*
X76224700Y-56582600D02*
X76224700Y-56950000D01*
X74860000Y-68474700D02*
X74561400Y-68474700D01*
X74561400Y-68474700D02*
X73032500Y-66945800D01*
X73032500Y-66945800D02*
X73032500Y-66789900D01*
X74860000Y-69650000D02*
X74860000Y-68474700D01*
M02*
