<?xml version="1.0" standalone="no"?>
 <!DOCTYPE svg PUBLIC "-//W3C//DTD SVG 1.1//EN" 
 "http://www.w3.org/Graphics/SVG/1.1/DTD/svg11.dtd"> 
<svg xmlns="http://www.w3.org/2000/svg" version="1.1" 
    width="29.7002cm" height="21.0007cm" viewBox="0 0 116930 82680 ">
<title>SVG Picture created as RAK3172_BREAKOUT-F_Mask.svg date 2022/04/08 22:01:10 </title>
  <desc>Picture generated by PCBNEW </desc>
<g style="fill:#000000; fill-opacity:1;stroke:#000000; stroke-opacity:1;
stroke-linecap:round; stroke-linejoin:round; "
 transform="translate(0 0) scale(1 1)">
</g>
<g style="fill:#000000; fill-opacity:0.0; 
stroke:#000000; stroke-width:-0.000393701; stroke-opacity:1; 
stroke-linecap:round; stroke-linejoin:round;">
</g>
<g style="fill:#000000; fill-opacity:0.0; 
stroke:#000000; stroke-width:19.685; stroke-opacity:1; 
stroke-linecap:round; stroke-linejoin:round;">
<path d="M19685 34157
L31259 34157
" />
<path d="M19685 19685
L31259 19685
" />
<path d="M31259 19685
L31259 34157
" />
<path d="M19685 19685
L19685 34157
" />
</g>
<g style="fill:#000000; fill-opacity:1.0; 
stroke:#000000; stroke-width:0; stroke-opacity:1; 
stroke-linecap:round; stroke-linejoin:round;">
<path style="fill:#000000; fill-opacity:1.0; 
stroke:#000000; stroke-width:0; stroke-opacity:1; 
stroke-linecap:round; stroke-linejoin:round;fill-rule:evenodd;"
d="M 30517.1,33068.5
30575.9,33080.2
30640.5,33106.9
30698.6,33145.7
30748,33195.1
30786.8,33253.2
30813.5,33317.8
30827.2,33386.3
30827.2,33456.2
30813.5,33524.7
30786.8,33589.3
30748,33647.4
30698.6,33696.8
30640.5,33735.6
30575.9,33762.4
30517.1,33774
30507.4,33776
30437.5,33776
30427.8,33774
30369,33762.4
30304.4,33735.6
30246.3,33696.8
30196.9,33647.4
30158.1,33589.3
30131.3,33524.7
30117.7,33456.2
30117.7,33386.3
30131.3,33317.8
30158.1,33253.2
30196.9,33195.1
30246.3,33145.7
30304.4,33106.9
30369,33080.2
30427.8,33068.5
30437.5,33066.5
30507.4,33066.5
Z" /> 
<path style="fill:#000000; fill-opacity:1.0; 
stroke:#000000; stroke-width:0; stroke-opacity:1; 
stroke-linecap:round; stroke-linejoin:round;fill-rule:evenodd;"
d="M 20517.1,33068.5
20575.9,33080.2
20640.5,33106.9
20698.6,33145.7
20748,33195.1
20786.8,33253.2
20813.5,33317.8
20827.2,33386.3
20827.2,33456.2
20813.5,33524.7
20786.8,33589.3
20748,33647.4
20698.6,33696.8
20640.5,33735.6
20575.9,33762.4
20517.1,33774
20507.4,33776
20437.5,33776
20427.8,33774
20369,33762.4
20304.4,33735.6
20246.3,33696.8
20196.9,33647.4
20158.1,33589.3
20131.3,33524.7
20117.7,33456.2
20117.7,33386.3
20131.3,33317.8
20158.1,33253.2
20196.9,33195.1
20246.3,33145.7
20304.4,33106.9
20369,33080.2
20427.8,33068.5
20437.5,33066.5
20507.4,33066.5
Z" /> 
<path style="fill:#000000; fill-opacity:1.0; 
stroke:#000000; stroke-width:0; stroke-opacity:1; 
stroke-linecap:round; stroke-linejoin:round;fill-rule:evenodd;"
d="M 29517.1,33068.5
29575.9,33080.2
29640.5,33106.9
29698.6,33145.7
29748,33195.1
29786.8,33253.2
29813.5,33317.8
29827.2,33386.3
29827.2,33456.2
29813.5,33524.7
29786.8,33589.3
29748,33647.4
29698.6,33696.8
29640.5,33735.6
29575.9,33762.4
29517.1,33774
29507.4,33776
29437.5,33776
29427.8,33774
29369,33762.4
29304.4,33735.6
29246.3,33696.8
29196.9,33647.4
29158.1,33589.3
29131.3,33524.7
29117.7,33456.2
29117.7,33386.3
29131.3,33317.8
29158.1,33253.2
29196.9,33195.1
29246.3,33145.7
29304.4,33106.9
29369,33080.2
29427.8,33068.5
29437.5,33066.5
29507.4,33066.5
Z" /> 
<path style="fill:#000000; fill-opacity:1.0; 
stroke:#000000; stroke-width:0; stroke-opacity:1; 
stroke-linecap:round; stroke-linejoin:round;fill-rule:evenodd;"
d="M 20517.1,32068.5
20575.9,32080.2
20640.5,32106.9
20698.6,32145.7
20748,32195.1
20786.8,32253.2
20813.5,32317.8
20827.2,32386.3
20827.2,32456.2
20813.5,32524.7
20786.8,32589.3
20748,32647.4
20698.6,32696.8
20640.5,32735.6
20575.9,32762.4
20517.1,32774
20507.4,32776
20437.5,32776
20427.8,32774
20369,32762.4
20304.4,32735.6
20246.3,32696.8
20196.9,32647.4
20158.1,32589.3
20131.3,32524.7
20117.7,32456.2
20117.7,32386.3
20131.3,32317.8
20158.1,32253.2
20196.9,32195.1
20246.3,32145.7
20304.4,32106.9
20369,32080.2
20427.8,32068.5
20437.5,32066.5
20507.4,32066.5
Z" /> 
<path style="fill:#000000; fill-opacity:1.0; 
stroke:#000000; stroke-width:0; stroke-opacity:1; 
stroke-linecap:round; stroke-linejoin:round;fill-rule:evenodd;"
d="M 30517.1,32068.5
30575.9,32080.2
30640.5,32106.9
30698.6,32145.7
30748,32195.1
30786.8,32253.2
30813.5,32317.8
30827.2,32386.3
30827.2,32456.2
30813.5,32524.7
30786.8,32589.3
30748,32647.4
30698.6,32696.8
30640.5,32735.6
30575.9,32762.4
30517.1,32774
30507.4,32776
30437.5,32776
30427.8,32774
30369,32762.4
30304.4,32735.6
30246.3,32696.8
30196.9,32647.4
30158.1,32589.3
30131.3,32524.7
30117.7,32456.2
30117.7,32386.3
30131.3,32317.8
30158.1,32253.2
30196.9,32195.1
30246.3,32145.7
30304.4,32106.9
30369,32080.2
30427.8,32068.5
30437.5,32066.5
30507.4,32066.5
Z" /> 
<path style="fill:#000000; fill-opacity:1.0; 
stroke:#000000; stroke-width:0; stroke-opacity:1; 
stroke-linecap:round; stroke-linejoin:round;fill-rule:evenodd;"
d="M 29517.1,32068.5
29575.9,32080.2
29640.5,32106.9
29698.6,32145.7
29748,32195.1
29786.8,32253.2
29813.5,32317.8
29827.2,32386.3
29827.2,32456.2
29813.5,32524.7
29786.8,32589.3
29748,32647.4
29698.6,32696.8
29640.5,32735.6
29575.9,32762.4
29517.1,32774
29507.4,32776
29437.5,32776
29427.8,32774
29369,32762.4
29304.4,32735.6
29246.3,32696.8
29196.9,32647.4
29158.1,32589.3
29131.3,32524.7
29117.7,32456.2
29117.7,32386.3
29131.3,32317.8
29158.1,32253.2
29196.9,32195.1
29246.3,32145.7
29304.4,32106.9
29369,32080.2
29427.8,32068.5
29437.5,32066.5
29507.4,32066.5
Z" /> 
<path style="fill:#000000; fill-opacity:1.0; 
stroke:#000000; stroke-width:0; stroke-opacity:1; 
stroke-linecap:round; stroke-linejoin:round;fill-rule:evenodd;"
d="M 26783.9,31842.9
25287,31842.9
25287,31094.1
26783.9,31094.1
Z" /> 
<path style="fill:#000000; fill-opacity:1.0; 
stroke:#000000; stroke-width:0; stroke-opacity:1; 
stroke-linecap:round; stroke-linejoin:round;fill-rule:evenodd;"
d="M 30517.1,31068.5
30575.9,31080.2
30640.5,31106.9
30698.6,31145.7
30748,31195.1
30786.8,31253.2
30813.5,31317.8
30827.2,31386.3
30827.2,31456.2
30813.5,31524.7
30786.8,31589.3
30748,31647.4
30698.6,31696.8
30640.5,31735.6
30575.9,31762.4
30517.1,31774
30507.4,31776
30437.5,31776
30427.8,31774
30369,31762.4
30304.4,31735.6
30246.3,31696.8
30196.9,31647.4
30158.1,31589.3
30131.3,31524.7
30117.7,31456.2
30117.7,31386.3
30131.3,31317.8
30158.1,31253.2
30196.9,31195.1
30246.3,31145.7
30304.4,31106.9
30369,31080.2
30427.8,31068.5
30437.5,31066.5
30507.4,31066.5
Z" /> 
<path style="fill:#000000; fill-opacity:1.0; 
stroke:#000000; stroke-width:0; stroke-opacity:1; 
stroke-linecap:round; stroke-linejoin:round;fill-rule:evenodd;"
d="M 29517.1,31068.5
29575.9,31080.2
29640.5,31106.9
29698.6,31145.7
29748,31195.1
29786.8,31253.2
29813.5,31317.8
29827.2,31386.3
29827.2,31456.2
29813.5,31524.7
29786.8,31589.3
29748,31647.4
29698.6,31696.8
29640.5,31735.6
29575.9,31762.4
29517.1,31774
29507.4,31776
29437.5,31776
29427.8,31774
29369,31762.4
29304.4,31735.6
29246.3,31696.8
29196.9,31647.4
29158.1,31589.3
29131.3,31524.7
29117.7,31456.2
29117.7,31386.3
29131.3,31317.8
29158.1,31253.2
29196.9,31195.1
29246.3,31145.7
29304.4,31106.9
29369,31080.2
29427.8,31068.5
29437.5,31066.5
29507.4,31066.5
Z" /> 
<path style="fill:#000000; fill-opacity:1.0; 
stroke:#000000; stroke-width:0; stroke-opacity:1; 
stroke-linecap:round; stroke-linejoin:round;fill-rule:evenodd;"
d="M 20517.1,31068.5
20575.9,31080.2
20640.5,31106.9
20698.6,31145.7
20748,31195.1
20786.8,31253.2
20813.5,31317.8
20827.2,31386.3
20827.2,31456.2
20813.5,31524.7
20786.8,31589.3
20748,31647.4
20698.6,31696.8
20640.5,31735.6
20575.9,31762.4
20517.1,31774
20507.4,31776
20437.5,31776
20427.8,31774
20369,31762.4
20304.4,31735.6
20246.3,31696.8
20196.9,31647.4
20158.1,31589.3
20131.3,31524.7
20117.7,31456.2
20117.7,31386.3
20131.3,31317.8
20158.1,31253.2
20196.9,31195.1
20246.3,31145.7
20304.4,31106.9
20369,31080.2
20427.8,31068.5
20437.5,31066.5
20507.4,31066.5
Z" /> 
<path style="fill:#000000; fill-opacity:1.0; 
stroke:#000000; stroke-width:0; stroke-opacity:1; 
stroke-linecap:round; stroke-linejoin:round;fill-rule:evenodd;"
d="M 29517.1,30068.5
29575.9,30080.2
29640.5,30106.9
29698.6,30145.7
29748,30195.1
29786.8,30253.2
29813.5,30317.8
29827.2,30386.3
29827.2,30456.2
29813.5,30524.7
29786.8,30589.3
29748,30647.4
29698.6,30696.8
29640.5,30735.6
29575.9,30762.4
29517.1,30774
29507.4,30776
29437.5,30776
29427.8,30774
29369,30762.4
29304.4,30735.6
29246.3,30696.8
29196.9,30647.4
29158.1,30589.3
29131.3,30524.7
29117.7,30456.2
29117.7,30386.3
29131.3,30317.8
29158.1,30253.2
29196.9,30195.1
29246.3,30145.7
29304.4,30106.9
29369,30080.2
29427.8,30068.5
29437.5,30066.5
29507.4,30066.5
Z" /> 
<path style="fill:#000000; fill-opacity:1.0; 
stroke:#000000; stroke-width:0; stroke-opacity:1; 
stroke-linecap:round; stroke-linejoin:round;fill-rule:evenodd;"
d="M 30517.1,30068.5
30575.9,30080.2
30640.5,30106.9
30698.6,30145.7
30748,30195.1
30786.8,30253.2
30813.5,30317.8
30827.2,30386.3
30827.2,30456.2
30813.5,30524.7
30786.8,30589.3
30748,30647.4
30698.6,30696.8
30640.5,30735.6
30575.9,30762.4
30517.1,30774
30507.4,30776
30437.5,30776
30427.8,30774
30369,30762.4
30304.4,30735.6
30246.3,30696.8
30196.9,30647.4
30158.1,30589.3
30131.3,30524.7
30117.7,30456.2
30117.7,30386.3
30131.3,30317.8
30158.1,30253.2
30196.9,30195.1
30246.3,30145.7
30304.4,30106.9
30369,30080.2
30427.8,30068.5
30437.5,30066.5
30507.4,30066.5
Z" /> 
<path style="fill:#000000; fill-opacity:1.0; 
stroke:#000000; stroke-width:0; stroke-opacity:1; 
stroke-linecap:round; stroke-linejoin:round;fill-rule:evenodd;"
d="M 20517.1,30068.5
20575.9,30080.2
20640.5,30106.9
20698.6,30145.7
20748,30195.1
20786.8,30253.2
20813.5,30317.8
20827.2,30386.3
20827.2,30456.2
20813.5,30524.7
20786.8,30589.3
20748,30647.4
20698.6,30696.8
20640.5,30735.6
20575.9,30762.4
20517.1,30774
20507.4,30776
20437.5,30776
20427.8,30774
20369,30762.4
20304.4,30735.6
20246.3,30696.8
20196.9,30647.4
20158.1,30589.3
20131.3,30524.7
20117.7,30456.2
20117.7,30386.3
20131.3,30317.8
20158.1,30253.2
20196.9,30195.1
20246.3,30145.7
20304.4,30106.9
20369,30080.2
20427.8,30068.5
20437.5,30066.5
20507.4,30066.5
Z" /> 
<path style="fill:#000000; fill-opacity:1.0; 
stroke:#000000; stroke-width:0; stroke-opacity:1; 
stroke-linecap:round; stroke-linejoin:round;fill-rule:evenodd;"
d="M 22709.1,30681.5
21960.2,30681.5
21960.2,26035
22709.1,26035
Z" /> 
<path style="fill:#000000; fill-opacity:1.0; 
stroke:#000000; stroke-width:0; stroke-opacity:1; 
stroke-linecap:round; stroke-linejoin:round;fill-rule:evenodd;"
d="M 28535.8,30681.5
27787,30681.5
27787,29578.3
28535.8,29578.3
Z" /> 
<path style="fill:#000000; fill-opacity:1.0; 
stroke:#000000; stroke-width:0; stroke-opacity:1; 
stroke-linecap:round; stroke-linejoin:round;fill-rule:evenodd;"
d="M 30517.1,29068.5
30575.9,29080.2
30640.5,29106.9
30698.6,29145.7
30748,29195.1
30786.8,29253.2
30813.5,29317.8
30827.2,29386.3
30827.2,29456.2
30813.5,29524.7
30786.8,29589.3
30748,29647.4
30698.6,29696.8
30640.5,29735.6
30575.9,29762.4
30517.1,29774
30507.4,29776
30437.5,29776
30427.8,29774
30369,29762.4
30304.4,29735.6
30246.3,29696.8
30196.9,29647.4
30158.1,29589.3
30131.3,29524.7
30117.7,29456.2
30117.7,29386.3
30131.3,29317.8
30158.1,29253.2
30196.9,29195.1
30246.3,29145.7
30304.4,29106.9
30369,29080.2
30427.8,29068.5
30437.5,29066.5
30507.4,29066.5
Z" /> 
<path style="fill:#000000; fill-opacity:1.0; 
stroke:#000000; stroke-width:0; stroke-opacity:1; 
stroke-linecap:round; stroke-linejoin:round;fill-rule:evenodd;"
d="M 29517.1,29068.5
29575.9,29080.2
29640.5,29106.9
29698.6,29145.7
29748,29195.1
29786.8,29253.2
29813.5,29317.8
29827.2,29386.3
29827.2,29456.2
29813.5,29524.7
29786.8,29589.3
29748,29647.4
29698.6,29696.8
29640.5,29735.6
29575.9,29762.4
29517.1,29774
29507.4,29776
29437.5,29776
29427.8,29774
29369,29762.4
29304.4,29735.6
29246.3,29696.8
29196.9,29647.4
29158.1,29589.3
29131.3,29524.7
29117.7,29456.2
29117.7,29386.3
29131.3,29317.8
29158.1,29253.2
29196.9,29195.1
29246.3,29145.7
29304.4,29106.9
29369,29080.2
29427.8,29068.5
29437.5,29066.5
29507.4,29066.5
Z" /> 
<path style="fill:#000000; fill-opacity:1.0; 
stroke:#000000; stroke-width:0; stroke-opacity:1; 
stroke-linecap:round; stroke-linejoin:round;fill-rule:evenodd;"
d="M 20517.1,29068.5
20575.9,29080.2
20640.5,29106.9
20698.6,29145.7
20748,29195.1
20786.8,29253.2
20813.5,29317.8
20827.2,29386.3
20827.2,29456.2
20813.5,29524.7
20786.8,29589.3
20748,29647.4
20698.6,29696.8
20640.5,29735.6
20575.9,29762.4
20517.1,29774
20507.4,29776
20437.5,29776
20427.8,29774
20369,29762.4
20304.4,29735.6
20246.3,29696.8
20196.9,29647.4
20158.1,29589.3
20131.3,29524.7
20117.7,29456.2
20117.7,29386.3
20131.3,29317.8
20158.1,29253.2
20196.9,29195.1
20246.3,29145.7
20304.4,29106.9
20369,29080.2
20427.8,29068.5
20437.5,29066.5
20507.4,29066.5
Z" /> 
<path style="fill:#000000; fill-opacity:1.0; 
stroke:#000000; stroke-width:0; stroke-opacity:1; 
stroke-linecap:round; stroke-linejoin:round;fill-rule:evenodd;"
d="M 30517.1,28068.5
30575.9,28080.2
30640.5,28106.9
30698.6,28145.7
30748,28195.1
30786.8,28253.2
30813.5,28317.8
30827.2,28386.3
30827.2,28456.2
30813.5,28524.7
30786.8,28589.3
30748,28647.4
30698.6,28696.8
30640.5,28735.6
30575.9,28762.4
30517.1,28774
30507.4,28776
30437.5,28776
30427.8,28774
30369,28762.4
30304.4,28735.6
30246.3,28696.8
30196.9,28647.4
30158.1,28589.3
30131.3,28524.7
30117.7,28456.2
30117.7,28386.3
30131.3,28317.8
30158.1,28253.2
30196.9,28195.1
30246.3,28145.7
30304.4,28106.9
30369,28080.2
30427.8,28068.5
30437.5,28066.5
30507.4,28066.5
Z" /> 
<path style="fill:#000000; fill-opacity:1.0; 
stroke:#000000; stroke-width:0; stroke-opacity:1; 
stroke-linecap:round; stroke-linejoin:round;fill-rule:evenodd;"
d="M 20517.1,28068.5
20575.9,28080.2
20640.5,28106.9
20698.6,28145.7
20748,28195.1
20786.8,28253.2
20813.5,28317.8
20827.2,28386.3
20827.2,28456.2
20813.5,28524.7
20786.8,28589.3
20748,28647.4
20698.6,28696.8
20640.5,28735.6
20575.9,28762.4
20517.1,28774
20507.4,28776
20437.5,28776
20427.8,28774
20369,28762.4
20304.4,28735.6
20246.3,28696.8
20196.9,28647.4
20158.1,28589.3
20131.3,28524.7
20117.7,28456.2
20117.7,28386.3
20131.3,28317.8
20158.1,28253.2
20196.9,28195.1
20246.3,28145.7
20304.4,28106.9
20369,28080.2
20427.8,28068.5
20437.5,28066.5
20507.4,28066.5
Z" /> 
<path style="fill:#000000; fill-opacity:1.0; 
stroke:#000000; stroke-width:0; stroke-opacity:1; 
stroke-linecap:round; stroke-linejoin:round;fill-rule:evenodd;"
d="M 29517.1,28068.5
29575.9,28080.2
29640.5,28106.9
29698.6,28145.7
29748,28195.1
29786.8,28253.2
29813.5,28317.8
29827.2,28386.3
29827.2,28456.2
29813.5,28524.7
29786.8,28589.3
29748,28647.4
29698.6,28696.8
29640.5,28735.6
29575.9,28762.4
29517.1,28774
29507.4,28776
29437.5,28776
29427.8,28774
29369,28762.4
29304.4,28735.6
29246.3,28696.8
29196.9,28647.4
29158.1,28589.3
29131.3,28524.7
29117.7,28456.2
29117.7,28386.3
29131.3,28317.8
29158.1,28253.2
29196.9,28195.1
29246.3,28145.7
29304.4,28106.9
29369,28080.2
29427.8,28068.5
29437.5,28066.5
29507.4,28066.5
Z" /> 
<path style="fill:#000000; fill-opacity:1.0; 
stroke:#000000; stroke-width:0; stroke-opacity:1; 
stroke-linecap:round; stroke-linejoin:round;fill-rule:evenodd;"
d="M 28535.8,27925.6
27787,27925.6
27787,26035
28535.8,26035
Z" /> 
<path style="fill:#000000; fill-opacity:1.0; 
stroke:#000000; stroke-width:0; stroke-opacity:1; 
stroke-linecap:round; stroke-linejoin:round;fill-rule:evenodd;"
d="M 29517.1,27068.5
29575.9,27080.2
29640.5,27106.9
29698.6,27145.7
29748,27195.1
29786.8,27253.2
29813.5,27317.8
29827.2,27386.3
29827.2,27456.2
29813.5,27524.7
29786.8,27589.3
29748,27647.4
29698.6,27696.8
29640.5,27735.6
29575.9,27762.4
29517.1,27774
29507.4,27776
29437.5,27776
29427.8,27774
29369,27762.4
29304.4,27735.6
29246.3,27696.8
29196.9,27647.4
29158.1,27589.3
29131.3,27524.7
29117.7,27456.2
29117.7,27386.3
29131.3,27317.8
29158.1,27253.2
29196.9,27195.1
29246.3,27145.7
29304.4,27106.9
29369,27080.2
29427.8,27068.5
29437.5,27066.5
29507.4,27066.5
Z" /> 
<path style="fill:#000000; fill-opacity:1.0; 
stroke:#000000; stroke-width:0; stroke-opacity:1; 
stroke-linecap:round; stroke-linejoin:round;fill-rule:evenodd;"
d="M 20517.1,27068.5
20575.9,27080.2
20640.5,27106.9
20698.6,27145.7
20748,27195.1
20786.8,27253.2
20813.5,27317.8
20827.2,27386.3
20827.2,27456.2
20813.5,27524.7
20786.8,27589.3
20748,27647.4
20698.6,27696.8
20640.5,27735.6
20575.9,27762.4
20517.1,27774
20507.4,27776
20437.5,27776
20427.8,27774
20369,27762.4
20304.4,27735.6
20246.3,27696.8
20196.9,27647.4
20158.1,27589.3
20131.3,27524.7
20117.7,27456.2
20117.7,27386.3
20131.3,27317.8
20158.1,27253.2
20196.9,27195.1
20246.3,27145.7
20304.4,27106.9
20369,27080.2
20427.8,27068.5
20437.5,27066.5
20507.4,27066.5
Z" /> 
<path style="fill:#000000; fill-opacity:1.0; 
stroke:#000000; stroke-width:0; stroke-opacity:1; 
stroke-linecap:round; stroke-linejoin:round;fill-rule:evenodd;"
d="M 30517.1,27068.5
30575.9,27080.2
30640.5,27106.9
30698.6,27145.7
30748,27195.1
30786.8,27253.2
30813.5,27317.8
30827.2,27386.3
30827.2,27456.2
30813.5,27524.7
30786.8,27589.3
30748,27647.4
30698.6,27696.8
30640.5,27735.6
30575.9,27762.4
30517.1,27774
30507.4,27776
30437.5,27776
30427.8,27774
30369,27762.4
30304.4,27735.6
30246.3,27696.8
30196.9,27647.4
30158.1,27589.3
30131.3,27524.7
30117.7,27456.2
30117.7,27386.3
30131.3,27317.8
30158.1,27253.2
30196.9,27195.1
30246.3,27145.7
30304.4,27106.9
30369,27080.2
30427.8,27068.5
30437.5,27066.5
30507.4,27066.5
Z" /> 
<path style="fill:#000000; fill-opacity:1.0; 
stroke:#000000; stroke-width:0; stroke-opacity:1; 
stroke-linecap:round; stroke-linejoin:round;fill-rule:evenodd;"
d="M 20517.1,26068.5
20575.9,26080.2
20640.5,26106.9
20698.6,26145.7
20748,26195.1
20786.8,26253.2
20813.5,26317.8
20827.2,26386.3
20827.2,26456.2
20813.5,26524.7
20786.8,26589.3
20748,26647.4
20698.6,26696.8
20640.5,26735.6
20575.9,26762.4
20517.1,26774
20507.4,26776
20437.5,26776
20427.8,26774
20369,26762.4
20304.4,26735.6
20246.3,26696.8
20196.9,26647.4
20158.1,26589.3
20131.3,26524.7
20117.7,26456.2
20117.7,26386.3
20131.3,26317.8
20158.1,26253.2
20196.9,26195.1
20246.3,26145.7
20304.4,26106.9
20369,26080.2
20427.8,26068.5
20437.5,26066.5
20507.4,26066.5
Z" /> 
<path style="fill:#000000; fill-opacity:1.0; 
stroke:#000000; stroke-width:0; stroke-opacity:1; 
stroke-linecap:round; stroke-linejoin:round;fill-rule:evenodd;"
d="M 29517.1,26068.5
29575.9,26080.2
29640.5,26106.9
29698.6,26145.7
29748,26195.1
29786.8,26253.2
29813.5,26317.8
29827.2,26386.3
29827.2,26456.2
29813.5,26524.7
29786.8,26589.3
29748,26647.4
29698.6,26696.8
29640.5,26735.6
29575.9,26762.4
29517.1,26774
29507.4,26776
29437.5,26776
29427.8,26774
29369,26762.4
29304.4,26735.6
29246.3,26696.8
29196.9,26647.4
29158.1,26589.3
29131.3,26524.7
29117.7,26456.2
29117.7,26386.3
29131.3,26317.8
29158.1,26253.2
29196.9,26195.1
29246.3,26145.7
29304.4,26106.9
29369,26080.2
29427.8,26068.5
29437.5,26066.5
29507.4,26066.5
Z" /> 
<path style="fill:#000000; fill-opacity:1.0; 
stroke:#000000; stroke-width:0; stroke-opacity:1; 
stroke-linecap:round; stroke-linejoin:round;fill-rule:evenodd;"
d="M 30517.1,26068.5
30575.9,26080.2
30640.5,26106.9
30698.6,26145.7
30748,26195.1
30786.8,26253.2
30813.5,26317.8
30827.2,26386.3
30827.2,26456.2
30813.5,26524.7
30786.8,26589.3
30748,26647.4
30698.6,26696.8
30640.5,26735.6
30575.9,26762.4
30517.1,26774
30507.4,26776
30437.5,26776
30427.8,26774
30369,26762.4
30304.4,26735.6
30246.3,26696.8
30196.9,26647.4
30158.1,26589.3
30131.3,26524.7
30117.7,26456.2
30117.7,26386.3
30131.3,26317.8
30158.1,26253.2
30196.9,26195.1
30246.3,26145.7
30304.4,26106.9
30369,26080.2
30427.8,26068.5
30437.5,26066.5
30507.4,26066.5
Z" /> 
<path style="fill:#000000; fill-opacity:1.0; 
stroke:#000000; stroke-width:0; stroke-opacity:1; 
stroke-linecap:round; stroke-linejoin:round;fill-rule:evenodd;"
d="M 26783.9,25819.3
23712.2,25819.3
23712.2,25070.5
26783.9,25070.5
Z" /> 
<path style="fill:#000000; fill-opacity:1.0; 
stroke:#000000; stroke-width:0; stroke-opacity:1; 
stroke-linecap:round; stroke-linejoin:round;fill-rule:evenodd;"
d="M 29517.1,25068.5
29575.9,25080.2
29640.5,25106.9
29698.6,25145.7
29748,25195.1
29786.8,25253.2
29813.5,25317.8
29827.2,25386.3
29827.2,25456.2
29813.5,25524.7
29786.8,25589.3
29748,25647.4
29698.6,25696.8
29640.5,25735.6
29575.9,25762.4
29517.1,25774
29507.4,25776
29437.5,25776
29427.8,25774
29369,25762.4
29304.4,25735.6
29246.3,25696.8
29196.9,25647.4
29158.1,25589.3
29131.3,25524.7
29117.7,25456.2
29117.7,25386.3
29131.3,25317.8
29158.1,25253.2
29196.9,25195.1
29246.3,25145.7
29304.4,25106.9
29369,25080.2
29427.8,25068.5
29437.5,25066.5
29507.4,25066.5
Z" /> 
<path style="fill:#000000; fill-opacity:1.0; 
stroke:#000000; stroke-width:0; stroke-opacity:1; 
stroke-linecap:round; stroke-linejoin:round;fill-rule:evenodd;"
d="M 30517.1,25068.5
30575.9,25080.2
30640.5,25106.9
30698.6,25145.7
30748,25195.1
30786.8,25253.2
30813.5,25317.8
30827.2,25386.3
30827.2,25456.2
30813.5,25524.7
30786.8,25589.3
30748,25647.4
30698.6,25696.8
30640.5,25735.6
30575.9,25762.4
30517.1,25774
30507.4,25776
30437.5,25776
30427.8,25774
30369,25762.4
30304.4,25735.6
30246.3,25696.8
30196.9,25647.4
30158.1,25589.3
30131.3,25524.7
30117.7,25456.2
30117.7,25386.3
30131.3,25317.8
30158.1,25253.2
30196.9,25195.1
30246.3,25145.7
30304.4,25106.9
30369,25080.2
30427.8,25068.5
30437.5,25066.5
30507.4,25066.5
Z" /> 
<path style="fill:#000000; fill-opacity:1.0; 
stroke:#000000; stroke-width:0; stroke-opacity:1; 
stroke-linecap:round; stroke-linejoin:round;fill-rule:evenodd;"
d="M 20517.1,25068.5
20575.9,25080.2
20640.5,25106.9
20698.6,25145.7
20748,25195.1
20786.8,25253.2
20813.5,25317.8
20827.2,25386.3
20827.2,25456.2
20813.5,25524.7
20786.8,25589.3
20748,25647.4
20698.6,25696.8
20640.5,25735.6
20575.9,25762.4
20517.1,25774
20507.4,25776
20437.5,25776
20427.8,25774
20369,25762.4
20304.4,25735.6
20246.3,25696.8
20196.9,25647.4
20158.1,25589.3
20131.3,25524.7
20117.7,25456.2
20117.7,25386.3
20131.3,25317.8
20158.1,25253.2
20196.9,25195.1
20246.3,25145.7
20304.4,25106.9
20369,25080.2
20427.8,25068.5
20437.5,25066.5
20507.4,25066.5
Z" /> 
<path style="fill:#000000; fill-opacity:1.0; 
stroke:#000000; stroke-width:0; stroke-opacity:1; 
stroke-linecap:round; stroke-linejoin:round;fill-rule:evenodd;"
d="M 30517.1,24068.5
30575.9,24080.2
30640.5,24106.9
30698.6,24145.7
30748,24195.1
30786.8,24253.2
30813.5,24317.8
30827.2,24386.3
30827.2,24456.2
30813.5,24524.7
30786.8,24589.3
30748,24647.4
30698.6,24696.8
30640.5,24735.6
30575.9,24762.4
30517.1,24774
30507.4,24776
30437.5,24776
30427.8,24774
30369,24762.4
30304.4,24735.6
30246.3,24696.8
30196.9,24647.4
30158.1,24589.3
30131.3,24524.7
30117.7,24456.2
30117.7,24386.3
30131.3,24317.8
30158.1,24253.2
30196.9,24195.1
30246.3,24145.7
30304.4,24106.9
30369,24080.2
30427.8,24068.5
30437.5,24066.5
30507.4,24066.5
Z" /> 
<path style="fill:#000000; fill-opacity:1.0; 
stroke:#000000; stroke-width:0; stroke-opacity:1; 
stroke-linecap:round; stroke-linejoin:round;fill-rule:evenodd;"
d="M 29517.1,24068.5
29575.9,24080.2
29640.5,24106.9
29698.6,24145.7
29748,24195.1
29786.8,24253.2
29813.5,24317.8
29827.2,24386.3
29827.2,24456.2
29813.5,24524.7
29786.8,24589.3
29748,24647.4
29698.6,24696.8
29640.5,24735.6
29575.9,24762.4
29517.1,24774
29507.4,24776
29437.5,24776
29427.8,24774
29369,24762.4
29304.4,24735.6
29246.3,24696.8
29196.9,24647.4
29158.1,24589.3
29131.3,24524.7
29117.7,24456.2
29117.7,24386.3
29131.3,24317.8
29158.1,24253.2
29196.9,24195.1
29246.3,24145.7
29304.4,24106.9
29369,24080.2
29427.8,24068.5
29437.5,24066.5
29507.4,24066.5
Z" /> 
<path style="fill:#000000; fill-opacity:1.0; 
stroke:#000000; stroke-width:0; stroke-opacity:1; 
stroke-linecap:round; stroke-linejoin:round;fill-rule:evenodd;"
d="M 20517.1,24068.5
20575.9,24080.2
20640.5,24106.9
20698.6,24145.7
20748,24195.1
20786.8,24253.2
20813.5,24317.8
20827.2,24386.3
20827.2,24456.2
20813.5,24524.7
20786.8,24589.3
20748,24647.4
20698.6,24696.8
20640.5,24735.6
20575.9,24762.4
20517.1,24774
20507.4,24776
20437.5,24776
20427.8,24774
20369,24762.4
20304.4,24735.6
20246.3,24696.8
20196.9,24647.4
20158.1,24589.3
20131.3,24524.7
20117.7,24456.2
20117.7,24386.3
20131.3,24317.8
20158.1,24253.2
20196.9,24195.1
20246.3,24145.7
20304.4,24106.9
20369,24080.2
20427.8,24068.5
20437.5,24066.5
20507.4,24066.5
Z" /> 
<path style="fill:#000000; fill-opacity:1.0; 
stroke:#000000; stroke-width:0; stroke-opacity:1; 
stroke-linecap:round; stroke-linejoin:round;fill-rule:evenodd;"
d="M 20517.1,23068.5
20575.9,23080.2
20640.5,23106.9
20698.6,23145.7
20748,23195.1
20786.8,23253.2
20813.5,23317.8
20827.2,23386.3
20827.2,23456.2
20813.5,23524.7
20786.8,23589.3
20748,23647.4
20698.6,23696.8
20640.5,23735.6
20575.9,23762.4
20517.1,23774
20507.4,23776
20437.5,23776
20427.8,23774
20369,23762.4
20304.4,23735.6
20246.3,23696.8
20196.9,23647.4
20158.1,23589.3
20131.3,23524.7
20117.7,23456.2
20117.7,23386.3
20131.3,23317.8
20158.1,23253.2
20196.9,23195.1
20246.3,23145.7
20304.4,23106.9
20369,23080.2
20427.8,23068.5
20437.5,23066.5
20507.4,23066.5
Z" /> 
<path style="fill:#000000; fill-opacity:1.0; 
stroke:#000000; stroke-width:0; stroke-opacity:1; 
stroke-linecap:round; stroke-linejoin:round;fill-rule:evenodd;"
d="M 30517.1,23068.5
30575.9,23080.2
30640.5,23106.9
30698.6,23145.7
30748,23195.1
30786.8,23253.2
30813.5,23317.8
30827.2,23386.3
30827.2,23456.2
30813.5,23524.7
30786.8,23589.3
30748,23647.4
30698.6,23696.8
30640.5,23735.6
30575.9,23762.4
30517.1,23774
30507.4,23776
30437.5,23776
30427.8,23774
30369,23762.4
30304.4,23735.6
30246.3,23696.8
30196.9,23647.4
30158.1,23589.3
30131.3,23524.7
30117.7,23456.2
30117.7,23386.3
30131.3,23317.8
30158.1,23253.2
30196.9,23195.1
30246.3,23145.7
30304.4,23106.9
30369,23080.2
30427.8,23068.5
30437.5,23066.5
30507.4,23066.5
Z" /> 
<path style="fill:#000000; fill-opacity:1.0; 
stroke:#000000; stroke-width:0; stroke-opacity:1; 
stroke-linecap:round; stroke-linejoin:round;fill-rule:evenodd;"
d="M 29517.1,23068.5
29575.9,23080.2
29640.5,23106.9
29698.6,23145.7
29748,23195.1
29786.8,23253.2
29813.5,23317.8
29827.2,23386.3
29827.2,23456.2
29813.5,23524.7
29786.8,23589.3
29748,23647.4
29698.6,23696.8
29640.5,23735.6
29575.9,23762.4
29517.1,23774
29507.4,23776
29437.5,23776
29427.8,23774
29369,23762.4
29304.4,23735.6
29246.3,23696.8
29196.9,23647.4
29158.1,23589.3
29131.3,23524.7
29117.7,23456.2
29117.7,23386.3
29131.3,23317.8
29158.1,23253.2
29196.9,23195.1
29246.3,23145.7
29304.4,23106.9
29369,23080.2
29427.8,23068.5
29437.5,23066.5
29507.4,23066.5
Z" /> 
<path style="fill:#000000; fill-opacity:1.0; 
stroke:#000000; stroke-width:0; stroke-opacity:1; 
stroke-linecap:round; stroke-linejoin:round;fill-rule:evenodd;"
d="M 20517.1,22068.5
20575.9,22080.2
20640.5,22106.9
20698.6,22145.7
20748,22195.1
20786.8,22253.2
20813.5,22317.8
20827.2,22386.3
20827.2,22456.2
20813.5,22524.7
20786.8,22589.3
20748,22647.4
20698.6,22696.8
20640.5,22735.6
20575.9,22762.4
20517.1,22774
20507.4,22776
20437.5,22776
20427.8,22774
20369,22762.4
20304.4,22735.6
20246.3,22696.8
20196.9,22647.4
20158.1,22589.3
20131.3,22524.7
20117.7,22456.2
20117.7,22386.3
20131.3,22317.8
20158.1,22253.2
20196.9,22195.1
20246.3,22145.7
20304.4,22106.9
20369,22080.2
20427.8,22068.5
20437.5,22066.5
20507.4,22066.5
Z" /> 
<path style="fill:#000000; fill-opacity:1.0; 
stroke:#000000; stroke-width:0; stroke-opacity:1; 
stroke-linecap:round; stroke-linejoin:round;fill-rule:evenodd;"
d="M 30517.1,22068.5
30575.9,22080.2
30640.5,22106.9
30698.6,22145.7
30748,22195.1
30786.8,22253.2
30813.5,22317.8
30827.2,22386.3
30827.2,22456.2
30813.5,22524.7
30786.8,22589.3
30748,22647.4
30698.6,22696.8
30640.5,22735.6
30575.9,22762.4
30517.1,22774
30507.4,22776
30437.5,22776
30427.8,22774
30369,22762.4
30304.4,22735.6
30246.3,22696.8
30196.9,22647.4
30158.1,22589.3
30131.3,22524.7
30117.7,22456.2
30117.7,22386.3
30131.3,22317.8
30158.1,22253.2
30196.9,22195.1
30246.3,22145.7
30304.4,22106.9
30369,22080.2
30427.8,22068.5
30437.5,22066.5
30507.4,22066.5
Z" /> 
<path style="fill:#000000; fill-opacity:1.0; 
stroke:#000000; stroke-width:0; stroke-opacity:1; 
stroke-linecap:round; stroke-linejoin:round;fill-rule:evenodd;"
d="M 29517.1,22068.5
29575.9,22080.2
29640.5,22106.9
29698.6,22145.7
29748,22195.1
29786.8,22253.2
29813.5,22317.8
29827.2,22386.3
29827.2,22456.2
29813.5,22524.7
29786.8,22589.3
29748,22647.4
29698.6,22696.8
29640.5,22735.6
29575.9,22762.4
29517.1,22774
29507.4,22776
29437.5,22776
29427.8,22774
29369,22762.4
29304.4,22735.6
29246.3,22696.8
29196.9,22647.4
29158.1,22589.3
29131.3,22524.7
29117.7,22456.2
29117.7,22386.3
29131.3,22317.8
29158.1,22253.2
29196.9,22195.1
29246.3,22145.7
29304.4,22106.9
29369,22080.2
29427.8,22068.5
29437.5,22066.5
29507.4,22066.5
Z" /> 
<path style="fill:#000000; fill-opacity:1.0; 
stroke:#000000; stroke-width:0; stroke-opacity:1; 
stroke-linecap:round; stroke-linejoin:round;fill-rule:evenodd;"
d="M 29517.1,21068.5
29575.9,21080.2
29640.5,21106.9
29698.6,21145.7
29748,21195.1
29786.8,21253.2
29813.5,21317.8
29827.2,21386.3
29827.2,21456.2
29813.5,21524.7
29786.8,21589.3
29748,21647.4
29698.6,21696.8
29640.5,21735.6
29575.9,21762.4
29517.1,21774
29507.4,21776
29437.5,21776
29427.8,21774
29369,21762.4
29304.4,21735.6
29246.3,21696.8
29196.9,21647.4
29158.1,21589.3
29131.3,21524.7
29117.7,21456.2
29117.7,21386.3
29131.3,21317.8
29158.1,21253.2
29196.9,21195.1
29246.3,21145.7
29304.4,21106.9
29369,21080.2
29427.8,21068.5
29437.5,21066.5
29507.4,21066.5
Z" /> 
<path style="fill:#000000; fill-opacity:1.0; 
stroke:#000000; stroke-width:0; stroke-opacity:1; 
stroke-linecap:round; stroke-linejoin:round;fill-rule:evenodd;"
d="M 30517.1,21068.5
30575.9,21080.2
30640.5,21106.9
30698.6,21145.7
30748,21195.1
30786.8,21253.2
30813.5,21317.8
30827.2,21386.3
30827.2,21456.2
30813.5,21524.7
30786.8,21589.3
30748,21647.4
30698.6,21696.8
30640.5,21735.6
30575.9,21762.4
30517.1,21774
30507.4,21776
30437.5,21776
30427.8,21774
30369,21762.4
30304.4,21735.6
30246.3,21696.8
30196.9,21647.4
30158.1,21589.3
30131.3,21524.7
30117.7,21456.2
30117.7,21386.3
30131.3,21317.8
30158.1,21253.2
30196.9,21195.1
30246.3,21145.7
30304.4,21106.9
30369,21080.2
30427.8,21068.5
30437.5,21066.5
30507.4,21066.5
Z" /> 
<path style="fill:#000000; fill-opacity:1.0; 
stroke:#000000; stroke-width:0; stroke-opacity:1; 
stroke-linecap:round; stroke-linejoin:round;fill-rule:evenodd;"
d="M 20517.1,21068.5
20575.9,21080.2
20640.5,21106.9
20698.6,21145.7
20748,21195.1
20786.8,21253.2
20813.5,21317.8
20827.2,21386.3
20827.2,21456.2
20813.5,21524.7
20786.8,21589.3
20748,21647.4
20698.6,21696.8
20640.5,21735.6
20575.9,21762.4
20517.1,21774
20507.4,21776
20437.5,21776
20427.8,21774
20369,21762.4
20304.4,21735.6
20246.3,21696.8
20196.9,21647.4
20158.1,21589.3
20131.3,21524.7
20117.7,21456.2
20117.7,21386.3
20131.3,21317.8
20158.1,21253.2
20196.9,21195.1
20246.3,21145.7
20304.4,21106.9
20369,21080.2
20427.8,21068.5
20437.5,21066.5
20507.4,21066.5
Z" /> 
<path style="fill:#000000; fill-opacity:1.0; 
stroke:#000000; stroke-width:0; stroke-opacity:1; 
stroke-linecap:round; stroke-linejoin:round;fill-rule:evenodd;"
d="M 29827.2,20776
29117.7,20776
29117.7,20066.5
29827.2,20066.5
Z" /> 
<path style="fill:#000000; fill-opacity:1.0; 
stroke:#000000; stroke-width:0; stroke-opacity:1; 
stroke-linecap:round; stroke-linejoin:round;fill-rule:evenodd;"
d="M 30827.2,20776
30117.7,20776
30117.7,20066.5
30827.2,20066.5
Z" /> 
<path style="fill:#000000; fill-opacity:1.0; 
stroke:#000000; stroke-width:0; stroke-opacity:1; 
stroke-linecap:round; stroke-linejoin:round;fill-rule:evenodd;"
d="M 20827.2,20776
20117.7,20776
20117.7,20066.5
20827.2,20066.5
Z" /> 
</g> 
</svg>
