G04 #@! TF.GenerationSoftware,KiCad,Pcbnew,5.1.5+dfsg1-2build2*
G04 #@! TF.CreationDate,2022-03-02T19:09:04-05:00*
G04 #@! TF.ProjectId,RAK11300_BREAKOUT,52414b31-3133-4303-905f-425245414b4f,rev?*
G04 #@! TF.SameCoordinates,Original*
G04 #@! TF.FileFunction,Copper,L2,Bot*
G04 #@! TF.FilePolarity,Positive*
%FSLAX46Y46*%
G04 Gerber Fmt 4.6, Leading zero omitted, Abs format (unit mm)*
G04 Created by KiCad (PCBNEW 5.1.5+dfsg1-2build2) date 2022-03-02 19:09:04*
%MOMM*%
%LPD*%
G04 APERTURE LIST*
%ADD10O,1.700000X1.700000*%
%ADD11R,1.700000X1.700000*%
%ADD12C,0.800000*%
%ADD13C,0.250000*%
G04 APERTURE END LIST*
D10*
X77400000Y-100130000D03*
X77400000Y-97590000D03*
X77400000Y-95050000D03*
X77400000Y-92510000D03*
X77400000Y-89970000D03*
X77400000Y-87430000D03*
X77400000Y-84890000D03*
X77400000Y-82350000D03*
X77400000Y-79810000D03*
X77400000Y-77270000D03*
X77400000Y-74730000D03*
X77400000Y-72190000D03*
X77400000Y-69650000D03*
X77400000Y-67110000D03*
X77400000Y-64570000D03*
X77400000Y-62030000D03*
X77400000Y-59490000D03*
X77400000Y-56950000D03*
X77400000Y-54410000D03*
D11*
X77400000Y-51870000D03*
D10*
X74860000Y-100130000D03*
X74860000Y-97590000D03*
X74860000Y-95050000D03*
X74860000Y-92510000D03*
X74860000Y-89970000D03*
X74860000Y-87430000D03*
X74860000Y-84890000D03*
X74860000Y-82350000D03*
X74860000Y-79810000D03*
X74860000Y-77270000D03*
X74860000Y-74730000D03*
X74860000Y-72190000D03*
X74860000Y-69650000D03*
X74860000Y-67110000D03*
X74860000Y-64570000D03*
X74860000Y-62030000D03*
X74860000Y-59490000D03*
X74860000Y-56950000D03*
X74860000Y-54410000D03*
D11*
X74860000Y-51870000D03*
D10*
X52000000Y-100130000D03*
X52000000Y-97590000D03*
X52000000Y-95050000D03*
X52000000Y-92510000D03*
X52000000Y-89970000D03*
X52000000Y-87430000D03*
X52000000Y-84890000D03*
X52000000Y-82350000D03*
X52000000Y-79810000D03*
X52000000Y-77270000D03*
X52000000Y-74730000D03*
X52000000Y-72190000D03*
X52000000Y-69650000D03*
X52000000Y-67110000D03*
X52000000Y-64570000D03*
X52000000Y-62030000D03*
X52000000Y-59490000D03*
X52000000Y-56950000D03*
X52000000Y-54410000D03*
D11*
X52000000Y-51870000D03*
D12*
X54664300Y-73252600D03*
X58756200Y-90616400D03*
X56835500Y-89427600D03*
D13*
X77400000Y-54410000D02*
X76224700Y-54410000D01*
X52000000Y-54410000D02*
X53175300Y-54410000D01*
X53175300Y-54410000D02*
X54350600Y-53234700D01*
X54350600Y-53234700D02*
X75416800Y-53234700D01*
X75416800Y-53234700D02*
X76224700Y-54042600D01*
X76224700Y-54042600D02*
X76224700Y-54410000D01*
X77400000Y-97590000D02*
X76224700Y-97590000D01*
X52000000Y-97590000D02*
X53175300Y-97590000D01*
X53175300Y-97590000D02*
X54350600Y-96414700D01*
X54350600Y-96414700D02*
X75416800Y-96414700D01*
X75416800Y-96414700D02*
X76224700Y-97222600D01*
X76224700Y-97222600D02*
X76224700Y-97590000D01*
X77400000Y-95050000D02*
X76224700Y-95050000D01*
X52000000Y-95050000D02*
X53175300Y-95050000D01*
X53175300Y-95050000D02*
X54350600Y-93874700D01*
X54350600Y-93874700D02*
X75416800Y-93874700D01*
X75416800Y-93874700D02*
X76224700Y-94682600D01*
X76224700Y-94682600D02*
X76224700Y-95050000D01*
X76224700Y-92510000D02*
X76224700Y-92142600D01*
X76224700Y-92142600D02*
X75279100Y-91197000D01*
X75279100Y-91197000D02*
X60362600Y-91197000D01*
X60362600Y-91197000D02*
X59056700Y-89891100D01*
X59056700Y-89891100D02*
X58324800Y-89891100D01*
X58324800Y-89891100D02*
X57136000Y-88702300D01*
X57136000Y-88702300D02*
X56523100Y-88702300D01*
X56523100Y-88702300D02*
X53175300Y-92050100D01*
X53175300Y-92050100D02*
X53175300Y-92510000D01*
X77400000Y-92510000D02*
X76224700Y-92510000D01*
X52000000Y-92510000D02*
X53175300Y-92510000D01*
X76224700Y-89970000D02*
X76224700Y-89602700D01*
X76224700Y-89602700D02*
X75253700Y-88631700D01*
X75253700Y-88631700D02*
X57702300Y-88631700D01*
X57702300Y-88631700D02*
X57322600Y-88252000D01*
X57322600Y-88252000D02*
X54893300Y-88252000D01*
X54893300Y-88252000D02*
X53175300Y-89970000D01*
X77400000Y-89970000D02*
X76224700Y-89970000D01*
X52000000Y-89970000D02*
X53175300Y-89970000D01*
X77400000Y-87430000D02*
X76224700Y-87430000D01*
X52000000Y-87430000D02*
X53175300Y-87430000D01*
X53175300Y-87430000D02*
X54350600Y-86254700D01*
X54350600Y-86254700D02*
X75416800Y-86254700D01*
X75416800Y-86254700D02*
X76224700Y-87062600D01*
X76224700Y-87062600D02*
X76224700Y-87430000D01*
X77400000Y-84890000D02*
X76224700Y-84890000D01*
X52000000Y-84890000D02*
X53175300Y-84890000D01*
X53175300Y-84890000D02*
X54350600Y-83714700D01*
X54350600Y-83714700D02*
X75416800Y-83714700D01*
X75416800Y-83714700D02*
X76224700Y-84522600D01*
X76224700Y-84522600D02*
X76224700Y-84890000D01*
X77400000Y-82350000D02*
X76224700Y-82350000D01*
X52000000Y-82350000D02*
X53175300Y-82350000D01*
X53175300Y-82350000D02*
X54350600Y-81174700D01*
X54350600Y-81174700D02*
X75416800Y-81174700D01*
X75416800Y-81174700D02*
X76224700Y-81982600D01*
X76224700Y-81982600D02*
X76224700Y-82350000D01*
X77400000Y-79810000D02*
X76224700Y-79810000D01*
X52000000Y-79810000D02*
X53175300Y-79810000D01*
X53175300Y-79810000D02*
X54350600Y-78634700D01*
X54350600Y-78634700D02*
X75416800Y-78634700D01*
X75416800Y-78634700D02*
X76224700Y-79442600D01*
X76224700Y-79442600D02*
X76224700Y-79810000D01*
X77400000Y-77270000D02*
X76224700Y-77270000D01*
X52000000Y-77270000D02*
X53175300Y-77270000D01*
X53175300Y-77270000D02*
X54350600Y-76094700D01*
X54350600Y-76094700D02*
X75416800Y-76094700D01*
X75416800Y-76094700D02*
X76224700Y-76902600D01*
X76224700Y-76902600D02*
X76224700Y-77270000D01*
X53175300Y-74730000D02*
X54212700Y-74730000D01*
X54212700Y-74730000D02*
X55388000Y-73554700D01*
X55388000Y-73554700D02*
X75416800Y-73554700D01*
X75416800Y-73554700D02*
X76224700Y-74362600D01*
X76224700Y-74362600D02*
X76224700Y-74730000D01*
X77400000Y-74730000D02*
X76224700Y-74730000D01*
X52000000Y-74730000D02*
X53175300Y-74730000D01*
X52000000Y-72190000D02*
X53175300Y-72190000D01*
X77400000Y-72190000D02*
X76224700Y-72190000D01*
X76224700Y-72190000D02*
X76224700Y-71822700D01*
X76224700Y-71822700D02*
X75416700Y-71014700D01*
X75416700Y-71014700D02*
X54350600Y-71014700D01*
X54350600Y-71014700D02*
X53175300Y-72190000D01*
X77400000Y-69650000D02*
X76224700Y-69650000D01*
X52000000Y-69650000D02*
X53175300Y-69650000D01*
X53175300Y-69650000D02*
X54350600Y-68474700D01*
X54350600Y-68474700D02*
X75416800Y-68474700D01*
X75416800Y-68474700D02*
X76224700Y-69282600D01*
X76224700Y-69282600D02*
X76224700Y-69650000D01*
X53175300Y-67110000D02*
X54350600Y-65934700D01*
X54350600Y-65934700D02*
X75416700Y-65934700D01*
X75416700Y-65934700D02*
X76224700Y-66742700D01*
X76224700Y-66742700D02*
X76224700Y-67110000D01*
X52000000Y-67110000D02*
X53175300Y-67110000D01*
X77400000Y-67110000D02*
X76224700Y-67110000D01*
X52000000Y-65745300D02*
X51632600Y-65745300D01*
X51632600Y-65745300D02*
X50824700Y-66553200D01*
X50824700Y-66553200D02*
X50824700Y-72678600D01*
X50824700Y-72678600D02*
X51552000Y-73405900D01*
X51552000Y-73405900D02*
X54511000Y-73405900D01*
X54511000Y-73405900D02*
X54664300Y-73252600D01*
X52000000Y-64570000D02*
X52000000Y-65745300D01*
X52000000Y-64570000D02*
X53175300Y-64570000D01*
X77400000Y-64570000D02*
X76224700Y-64570000D01*
X76224700Y-64570000D02*
X76224700Y-64202700D01*
X76224700Y-64202700D02*
X75416700Y-63394700D01*
X75416700Y-63394700D02*
X54350600Y-63394700D01*
X54350600Y-63394700D02*
X53175300Y-64570000D01*
X53175300Y-62030000D02*
X63489300Y-62030000D01*
X63489300Y-62030000D02*
X64664600Y-60854700D01*
X64664600Y-60854700D02*
X75416800Y-60854700D01*
X75416800Y-60854700D02*
X76224700Y-61662600D01*
X76224700Y-61662600D02*
X76224700Y-62030000D01*
X77400000Y-62030000D02*
X76224700Y-62030000D01*
X52000000Y-62030000D02*
X53175300Y-62030000D01*
X77400000Y-59490000D02*
X76224700Y-59490000D01*
X52000000Y-59490000D02*
X53175300Y-59490000D01*
X53175300Y-59490000D02*
X54350600Y-58314700D01*
X54350600Y-58314700D02*
X75416800Y-58314700D01*
X75416800Y-58314700D02*
X76224700Y-59122600D01*
X76224700Y-59122600D02*
X76224700Y-59490000D01*
X77400000Y-56950000D02*
X76224700Y-56950000D01*
X52000000Y-56950000D02*
X53175300Y-56950000D01*
X53175300Y-56950000D02*
X54350600Y-55774700D01*
X54350600Y-55774700D02*
X75416800Y-55774700D01*
X75416800Y-55774700D02*
X76224700Y-56582600D01*
X76224700Y-56582600D02*
X76224700Y-56950000D01*
X56835500Y-90616400D02*
X56835500Y-89427600D01*
X73684700Y-100130000D02*
X72509400Y-98954700D01*
X72509400Y-98954700D02*
X51681300Y-98954700D01*
X51681300Y-98954700D02*
X50770700Y-98044100D01*
X50770700Y-98044100D02*
X50770700Y-94546300D01*
X50770700Y-94546300D02*
X51537000Y-93780000D01*
X51537000Y-93780000D02*
X53671900Y-93780000D01*
X53671900Y-93780000D02*
X56835500Y-90616400D01*
X56835500Y-90616400D02*
X58756200Y-90616400D01*
X74860000Y-100130000D02*
X73684700Y-100130000D01*
M02*
