G04 #@! TF.GenerationSoftware,KiCad,Pcbnew,5.1.5+dfsg1-2build2*
G04 #@! TF.CreationDate,2022-03-02T19:09:04-05:00*
G04 #@! TF.ProjectId,RAK11300_BREAKOUT,52414b31-3133-4303-905f-425245414b4f,rev?*
G04 #@! TF.SameCoordinates,Original*
G04 #@! TF.FileFunction,Legend,Bot*
G04 #@! TF.FilePolarity,Positive*
%FSLAX46Y46*%
G04 Gerber Fmt 4.6, Leading zero omitted, Abs format (unit mm)*
G04 Created by KiCad (PCBNEW 5.1.5+dfsg1-2build2) date 2022-03-02 19:09:04*
%MOMM*%
%LPD*%
G04 APERTURE LIST*
%ADD10C,0.150000*%
G04 APERTURE END LIST*
D10*
X66311536Y-96312980D02*
X66644869Y-95836790D01*
X66882964Y-96312980D02*
X66882964Y-95312980D01*
X66502012Y-95312980D01*
X66406774Y-95360600D01*
X66359155Y-95408219D01*
X66311536Y-95503457D01*
X66311536Y-95646314D01*
X66359155Y-95741552D01*
X66406774Y-95789171D01*
X66502012Y-95836790D01*
X66882964Y-95836790D01*
X65930583Y-96027266D02*
X65454393Y-96027266D01*
X66025821Y-96312980D02*
X65692488Y-95312980D01*
X65359155Y-96312980D01*
X65025821Y-96312980D02*
X65025821Y-95312980D01*
X64454393Y-96312980D02*
X64882964Y-95741552D01*
X64454393Y-95312980D02*
X65025821Y-95884409D01*
X63502012Y-96312980D02*
X64073440Y-96312980D01*
X63787726Y-96312980D02*
X63787726Y-95312980D01*
X63882964Y-95455838D01*
X63978202Y-95551076D01*
X64073440Y-95598695D01*
X62549631Y-96312980D02*
X63121060Y-96312980D01*
X62835345Y-96312980D02*
X62835345Y-95312980D01*
X62930583Y-95455838D01*
X63025821Y-95551076D01*
X63121060Y-95598695D01*
X62216298Y-95312980D02*
X61597250Y-95312980D01*
X61930583Y-95693933D01*
X61787726Y-95693933D01*
X61692488Y-95741552D01*
X61644869Y-95789171D01*
X61597250Y-95884409D01*
X61597250Y-96122504D01*
X61644869Y-96217742D01*
X61692488Y-96265361D01*
X61787726Y-96312980D01*
X62073440Y-96312980D01*
X62168679Y-96265361D01*
X62216298Y-96217742D01*
X60978202Y-95312980D02*
X60882964Y-95312980D01*
X60787726Y-95360600D01*
X60740107Y-95408219D01*
X60692488Y-95503457D01*
X60644869Y-95693933D01*
X60644869Y-95932028D01*
X60692488Y-96122504D01*
X60740107Y-96217742D01*
X60787726Y-96265361D01*
X60882964Y-96312980D01*
X60978202Y-96312980D01*
X61073440Y-96265361D01*
X61121060Y-96217742D01*
X61168679Y-96122504D01*
X61216298Y-95932028D01*
X61216298Y-95693933D01*
X61168679Y-95503457D01*
X61121060Y-95408219D01*
X61073440Y-95360600D01*
X60978202Y-95312980D01*
X60025821Y-95312980D02*
X59930583Y-95312980D01*
X59835345Y-95360600D01*
X59787726Y-95408219D01*
X59740107Y-95503457D01*
X59692488Y-95693933D01*
X59692488Y-95932028D01*
X59740107Y-96122504D01*
X59787726Y-96217742D01*
X59835345Y-96265361D01*
X59930583Y-96312980D01*
X60025821Y-96312980D01*
X60121060Y-96265361D01*
X60168679Y-96217742D01*
X60216298Y-96122504D01*
X60263917Y-95932028D01*
X60263917Y-95693933D01*
X60216298Y-95503457D01*
X60168679Y-95408219D01*
X60121060Y-95360600D01*
X60025821Y-95312980D01*
X66549631Y-97439171D02*
X66406774Y-97486790D01*
X66359155Y-97534409D01*
X66311536Y-97629647D01*
X66311536Y-97772504D01*
X66359155Y-97867742D01*
X66406774Y-97915361D01*
X66502012Y-97962980D01*
X66882964Y-97962980D01*
X66882964Y-96962980D01*
X66549631Y-96962980D01*
X66454393Y-97010600D01*
X66406774Y-97058219D01*
X66359155Y-97153457D01*
X66359155Y-97248695D01*
X66406774Y-97343933D01*
X66454393Y-97391552D01*
X66549631Y-97439171D01*
X66882964Y-97439171D01*
X65311536Y-97962980D02*
X65644869Y-97486790D01*
X65882964Y-97962980D02*
X65882964Y-96962980D01*
X65502012Y-96962980D01*
X65406774Y-97010600D01*
X65359155Y-97058219D01*
X65311536Y-97153457D01*
X65311536Y-97296314D01*
X65359155Y-97391552D01*
X65406774Y-97439171D01*
X65502012Y-97486790D01*
X65882964Y-97486790D01*
X64882964Y-97439171D02*
X64549631Y-97439171D01*
X64406774Y-97962980D02*
X64882964Y-97962980D01*
X64882964Y-96962980D01*
X64406774Y-96962980D01*
X64025821Y-97677266D02*
X63549631Y-97677266D01*
X64121060Y-97962980D02*
X63787726Y-96962980D01*
X63454393Y-97962980D01*
X63121060Y-97962980D02*
X63121060Y-96962980D01*
X62549631Y-97962980D02*
X62978202Y-97391552D01*
X62549631Y-96962980D02*
X63121060Y-97534409D01*
X61930583Y-96962980D02*
X61740107Y-96962980D01*
X61644869Y-97010600D01*
X61549631Y-97105838D01*
X61502012Y-97296314D01*
X61502012Y-97629647D01*
X61549631Y-97820123D01*
X61644869Y-97915361D01*
X61740107Y-97962980D01*
X61930583Y-97962980D01*
X62025821Y-97915361D01*
X62121060Y-97820123D01*
X62168679Y-97629647D01*
X62168679Y-97296314D01*
X62121060Y-97105838D01*
X62025821Y-97010600D01*
X61930583Y-96962980D01*
X61073440Y-96962980D02*
X61073440Y-97772504D01*
X61025821Y-97867742D01*
X60978202Y-97915361D01*
X60882964Y-97962980D01*
X60692488Y-97962980D01*
X60597250Y-97915361D01*
X60549631Y-97867742D01*
X60502012Y-97772504D01*
X60502012Y-96962980D01*
X60168679Y-96962980D02*
X59597250Y-96962980D01*
X59882964Y-97962980D02*
X59882964Y-96962980D01*
X67025821Y-98612980D02*
X66692488Y-99612980D01*
X66359155Y-98612980D01*
X65835345Y-98612980D02*
X65740107Y-98612980D01*
X65644869Y-98660600D01*
X65597250Y-98708219D01*
X65549631Y-98803457D01*
X65502012Y-98993933D01*
X65502012Y-99232028D01*
X65549631Y-99422504D01*
X65597250Y-99517742D01*
X65644869Y-99565361D01*
X65740107Y-99612980D01*
X65835345Y-99612980D01*
X65930583Y-99565361D01*
X65978202Y-99517742D01*
X66025821Y-99422504D01*
X66073440Y-99232028D01*
X66073440Y-98993933D01*
X66025821Y-98803457D01*
X65978202Y-98708219D01*
X65930583Y-98660600D01*
X65835345Y-98612980D01*
M02*
