G04 #@! TF.GenerationSoftware,KiCad,Pcbnew,5.1.5+dfsg1-2build2*
G04 #@! TF.CreationDate,2022-03-02T19:09:04-05:00*
G04 #@! TF.ProjectId,RAK11300_BREAKOUT,52414b31-3133-4303-905f-425245414b4f,rev?*
G04 #@! TF.SameCoordinates,Original*
G04 #@! TF.FileFunction,Soldermask,Bot*
G04 #@! TF.FilePolarity,Negative*
%FSLAX46Y46*%
G04 Gerber Fmt 4.6, Leading zero omitted, Abs format (unit mm)*
G04 Created by KiCad (PCBNEW 5.1.5+dfsg1-2build2) date 2022-03-02 19:09:04*
%MOMM*%
%LPD*%
G04 APERTURE LIST*
%ADD10C,0.100000*%
G04 APERTURE END LIST*
D10*
G36*
X52113512Y-99233927D02*
G01*
X52262812Y-99263624D01*
X52426784Y-99331544D01*
X52574354Y-99430147D01*
X52699853Y-99555646D01*
X52798456Y-99703216D01*
X52866376Y-99867188D01*
X52901000Y-100041259D01*
X52901000Y-100218741D01*
X52866376Y-100392812D01*
X52798456Y-100556784D01*
X52699853Y-100704354D01*
X52574354Y-100829853D01*
X52426784Y-100928456D01*
X52262812Y-100996376D01*
X52113512Y-101026073D01*
X52088742Y-101031000D01*
X51911258Y-101031000D01*
X51886488Y-101026073D01*
X51737188Y-100996376D01*
X51573216Y-100928456D01*
X51425646Y-100829853D01*
X51300147Y-100704354D01*
X51201544Y-100556784D01*
X51133624Y-100392812D01*
X51099000Y-100218741D01*
X51099000Y-100041259D01*
X51133624Y-99867188D01*
X51201544Y-99703216D01*
X51300147Y-99555646D01*
X51425646Y-99430147D01*
X51573216Y-99331544D01*
X51737188Y-99263624D01*
X51886488Y-99233927D01*
X51911258Y-99229000D01*
X52088742Y-99229000D01*
X52113512Y-99233927D01*
G37*
G36*
X77513512Y-99233927D02*
G01*
X77662812Y-99263624D01*
X77826784Y-99331544D01*
X77974354Y-99430147D01*
X78099853Y-99555646D01*
X78198456Y-99703216D01*
X78266376Y-99867188D01*
X78301000Y-100041259D01*
X78301000Y-100218741D01*
X78266376Y-100392812D01*
X78198456Y-100556784D01*
X78099853Y-100704354D01*
X77974354Y-100829853D01*
X77826784Y-100928456D01*
X77662812Y-100996376D01*
X77513512Y-101026073D01*
X77488742Y-101031000D01*
X77311258Y-101031000D01*
X77286488Y-101026073D01*
X77137188Y-100996376D01*
X76973216Y-100928456D01*
X76825646Y-100829853D01*
X76700147Y-100704354D01*
X76601544Y-100556784D01*
X76533624Y-100392812D01*
X76499000Y-100218741D01*
X76499000Y-100041259D01*
X76533624Y-99867188D01*
X76601544Y-99703216D01*
X76700147Y-99555646D01*
X76825646Y-99430147D01*
X76973216Y-99331544D01*
X77137188Y-99263624D01*
X77286488Y-99233927D01*
X77311258Y-99229000D01*
X77488742Y-99229000D01*
X77513512Y-99233927D01*
G37*
G36*
X74973512Y-99233927D02*
G01*
X75122812Y-99263624D01*
X75286784Y-99331544D01*
X75434354Y-99430147D01*
X75559853Y-99555646D01*
X75658456Y-99703216D01*
X75726376Y-99867188D01*
X75761000Y-100041259D01*
X75761000Y-100218741D01*
X75726376Y-100392812D01*
X75658456Y-100556784D01*
X75559853Y-100704354D01*
X75434354Y-100829853D01*
X75286784Y-100928456D01*
X75122812Y-100996376D01*
X74973512Y-101026073D01*
X74948742Y-101031000D01*
X74771258Y-101031000D01*
X74746488Y-101026073D01*
X74597188Y-100996376D01*
X74433216Y-100928456D01*
X74285646Y-100829853D01*
X74160147Y-100704354D01*
X74061544Y-100556784D01*
X73993624Y-100392812D01*
X73959000Y-100218741D01*
X73959000Y-100041259D01*
X73993624Y-99867188D01*
X74061544Y-99703216D01*
X74160147Y-99555646D01*
X74285646Y-99430147D01*
X74433216Y-99331544D01*
X74597188Y-99263624D01*
X74746488Y-99233927D01*
X74771258Y-99229000D01*
X74948742Y-99229000D01*
X74973512Y-99233927D01*
G37*
G36*
X52113512Y-96693927D02*
G01*
X52262812Y-96723624D01*
X52426784Y-96791544D01*
X52574354Y-96890147D01*
X52699853Y-97015646D01*
X52798456Y-97163216D01*
X52866376Y-97327188D01*
X52901000Y-97501259D01*
X52901000Y-97678741D01*
X52866376Y-97852812D01*
X52798456Y-98016784D01*
X52699853Y-98164354D01*
X52574354Y-98289853D01*
X52426784Y-98388456D01*
X52262812Y-98456376D01*
X52113512Y-98486073D01*
X52088742Y-98491000D01*
X51911258Y-98491000D01*
X51886488Y-98486073D01*
X51737188Y-98456376D01*
X51573216Y-98388456D01*
X51425646Y-98289853D01*
X51300147Y-98164354D01*
X51201544Y-98016784D01*
X51133624Y-97852812D01*
X51099000Y-97678741D01*
X51099000Y-97501259D01*
X51133624Y-97327188D01*
X51201544Y-97163216D01*
X51300147Y-97015646D01*
X51425646Y-96890147D01*
X51573216Y-96791544D01*
X51737188Y-96723624D01*
X51886488Y-96693927D01*
X51911258Y-96689000D01*
X52088742Y-96689000D01*
X52113512Y-96693927D01*
G37*
G36*
X74973512Y-96693927D02*
G01*
X75122812Y-96723624D01*
X75286784Y-96791544D01*
X75434354Y-96890147D01*
X75559853Y-97015646D01*
X75658456Y-97163216D01*
X75726376Y-97327188D01*
X75761000Y-97501259D01*
X75761000Y-97678741D01*
X75726376Y-97852812D01*
X75658456Y-98016784D01*
X75559853Y-98164354D01*
X75434354Y-98289853D01*
X75286784Y-98388456D01*
X75122812Y-98456376D01*
X74973512Y-98486073D01*
X74948742Y-98491000D01*
X74771258Y-98491000D01*
X74746488Y-98486073D01*
X74597188Y-98456376D01*
X74433216Y-98388456D01*
X74285646Y-98289853D01*
X74160147Y-98164354D01*
X74061544Y-98016784D01*
X73993624Y-97852812D01*
X73959000Y-97678741D01*
X73959000Y-97501259D01*
X73993624Y-97327188D01*
X74061544Y-97163216D01*
X74160147Y-97015646D01*
X74285646Y-96890147D01*
X74433216Y-96791544D01*
X74597188Y-96723624D01*
X74746488Y-96693927D01*
X74771258Y-96689000D01*
X74948742Y-96689000D01*
X74973512Y-96693927D01*
G37*
G36*
X77513512Y-96693927D02*
G01*
X77662812Y-96723624D01*
X77826784Y-96791544D01*
X77974354Y-96890147D01*
X78099853Y-97015646D01*
X78198456Y-97163216D01*
X78266376Y-97327188D01*
X78301000Y-97501259D01*
X78301000Y-97678741D01*
X78266376Y-97852812D01*
X78198456Y-98016784D01*
X78099853Y-98164354D01*
X77974354Y-98289853D01*
X77826784Y-98388456D01*
X77662812Y-98456376D01*
X77513512Y-98486073D01*
X77488742Y-98491000D01*
X77311258Y-98491000D01*
X77286488Y-98486073D01*
X77137188Y-98456376D01*
X76973216Y-98388456D01*
X76825646Y-98289853D01*
X76700147Y-98164354D01*
X76601544Y-98016784D01*
X76533624Y-97852812D01*
X76499000Y-97678741D01*
X76499000Y-97501259D01*
X76533624Y-97327188D01*
X76601544Y-97163216D01*
X76700147Y-97015646D01*
X76825646Y-96890147D01*
X76973216Y-96791544D01*
X77137188Y-96723624D01*
X77286488Y-96693927D01*
X77311258Y-96689000D01*
X77488742Y-96689000D01*
X77513512Y-96693927D01*
G37*
G36*
X74973512Y-94153927D02*
G01*
X75122812Y-94183624D01*
X75286784Y-94251544D01*
X75434354Y-94350147D01*
X75559853Y-94475646D01*
X75658456Y-94623216D01*
X75726376Y-94787188D01*
X75761000Y-94961259D01*
X75761000Y-95138741D01*
X75726376Y-95312812D01*
X75658456Y-95476784D01*
X75559853Y-95624354D01*
X75434354Y-95749853D01*
X75286784Y-95848456D01*
X75122812Y-95916376D01*
X74973512Y-95946073D01*
X74948742Y-95951000D01*
X74771258Y-95951000D01*
X74746488Y-95946073D01*
X74597188Y-95916376D01*
X74433216Y-95848456D01*
X74285646Y-95749853D01*
X74160147Y-95624354D01*
X74061544Y-95476784D01*
X73993624Y-95312812D01*
X73959000Y-95138741D01*
X73959000Y-94961259D01*
X73993624Y-94787188D01*
X74061544Y-94623216D01*
X74160147Y-94475646D01*
X74285646Y-94350147D01*
X74433216Y-94251544D01*
X74597188Y-94183624D01*
X74746488Y-94153927D01*
X74771258Y-94149000D01*
X74948742Y-94149000D01*
X74973512Y-94153927D01*
G37*
G36*
X52113512Y-94153927D02*
G01*
X52262812Y-94183624D01*
X52426784Y-94251544D01*
X52574354Y-94350147D01*
X52699853Y-94475646D01*
X52798456Y-94623216D01*
X52866376Y-94787188D01*
X52901000Y-94961259D01*
X52901000Y-95138741D01*
X52866376Y-95312812D01*
X52798456Y-95476784D01*
X52699853Y-95624354D01*
X52574354Y-95749853D01*
X52426784Y-95848456D01*
X52262812Y-95916376D01*
X52113512Y-95946073D01*
X52088742Y-95951000D01*
X51911258Y-95951000D01*
X51886488Y-95946073D01*
X51737188Y-95916376D01*
X51573216Y-95848456D01*
X51425646Y-95749853D01*
X51300147Y-95624354D01*
X51201544Y-95476784D01*
X51133624Y-95312812D01*
X51099000Y-95138741D01*
X51099000Y-94961259D01*
X51133624Y-94787188D01*
X51201544Y-94623216D01*
X51300147Y-94475646D01*
X51425646Y-94350147D01*
X51573216Y-94251544D01*
X51737188Y-94183624D01*
X51886488Y-94153927D01*
X51911258Y-94149000D01*
X52088742Y-94149000D01*
X52113512Y-94153927D01*
G37*
G36*
X77513512Y-94153927D02*
G01*
X77662812Y-94183624D01*
X77826784Y-94251544D01*
X77974354Y-94350147D01*
X78099853Y-94475646D01*
X78198456Y-94623216D01*
X78266376Y-94787188D01*
X78301000Y-94961259D01*
X78301000Y-95138741D01*
X78266376Y-95312812D01*
X78198456Y-95476784D01*
X78099853Y-95624354D01*
X77974354Y-95749853D01*
X77826784Y-95848456D01*
X77662812Y-95916376D01*
X77513512Y-95946073D01*
X77488742Y-95951000D01*
X77311258Y-95951000D01*
X77286488Y-95946073D01*
X77137188Y-95916376D01*
X76973216Y-95848456D01*
X76825646Y-95749853D01*
X76700147Y-95624354D01*
X76601544Y-95476784D01*
X76533624Y-95312812D01*
X76499000Y-95138741D01*
X76499000Y-94961259D01*
X76533624Y-94787188D01*
X76601544Y-94623216D01*
X76700147Y-94475646D01*
X76825646Y-94350147D01*
X76973216Y-94251544D01*
X77137188Y-94183624D01*
X77286488Y-94153927D01*
X77311258Y-94149000D01*
X77488742Y-94149000D01*
X77513512Y-94153927D01*
G37*
G36*
X74973512Y-91613927D02*
G01*
X75122812Y-91643624D01*
X75286784Y-91711544D01*
X75434354Y-91810147D01*
X75559853Y-91935646D01*
X75658456Y-92083216D01*
X75726376Y-92247188D01*
X75761000Y-92421259D01*
X75761000Y-92598741D01*
X75726376Y-92772812D01*
X75658456Y-92936784D01*
X75559853Y-93084354D01*
X75434354Y-93209853D01*
X75286784Y-93308456D01*
X75122812Y-93376376D01*
X74973512Y-93406073D01*
X74948742Y-93411000D01*
X74771258Y-93411000D01*
X74746488Y-93406073D01*
X74597188Y-93376376D01*
X74433216Y-93308456D01*
X74285646Y-93209853D01*
X74160147Y-93084354D01*
X74061544Y-92936784D01*
X73993624Y-92772812D01*
X73959000Y-92598741D01*
X73959000Y-92421259D01*
X73993624Y-92247188D01*
X74061544Y-92083216D01*
X74160147Y-91935646D01*
X74285646Y-91810147D01*
X74433216Y-91711544D01*
X74597188Y-91643624D01*
X74746488Y-91613927D01*
X74771258Y-91609000D01*
X74948742Y-91609000D01*
X74973512Y-91613927D01*
G37*
G36*
X77513512Y-91613927D02*
G01*
X77662812Y-91643624D01*
X77826784Y-91711544D01*
X77974354Y-91810147D01*
X78099853Y-91935646D01*
X78198456Y-92083216D01*
X78266376Y-92247188D01*
X78301000Y-92421259D01*
X78301000Y-92598741D01*
X78266376Y-92772812D01*
X78198456Y-92936784D01*
X78099853Y-93084354D01*
X77974354Y-93209853D01*
X77826784Y-93308456D01*
X77662812Y-93376376D01*
X77513512Y-93406073D01*
X77488742Y-93411000D01*
X77311258Y-93411000D01*
X77286488Y-93406073D01*
X77137188Y-93376376D01*
X76973216Y-93308456D01*
X76825646Y-93209853D01*
X76700147Y-93084354D01*
X76601544Y-92936784D01*
X76533624Y-92772812D01*
X76499000Y-92598741D01*
X76499000Y-92421259D01*
X76533624Y-92247188D01*
X76601544Y-92083216D01*
X76700147Y-91935646D01*
X76825646Y-91810147D01*
X76973216Y-91711544D01*
X77137188Y-91643624D01*
X77286488Y-91613927D01*
X77311258Y-91609000D01*
X77488742Y-91609000D01*
X77513512Y-91613927D01*
G37*
G36*
X52113512Y-91613927D02*
G01*
X52262812Y-91643624D01*
X52426784Y-91711544D01*
X52574354Y-91810147D01*
X52699853Y-91935646D01*
X52798456Y-92083216D01*
X52866376Y-92247188D01*
X52901000Y-92421259D01*
X52901000Y-92598741D01*
X52866376Y-92772812D01*
X52798456Y-92936784D01*
X52699853Y-93084354D01*
X52574354Y-93209853D01*
X52426784Y-93308456D01*
X52262812Y-93376376D01*
X52113512Y-93406073D01*
X52088742Y-93411000D01*
X51911258Y-93411000D01*
X51886488Y-93406073D01*
X51737188Y-93376376D01*
X51573216Y-93308456D01*
X51425646Y-93209853D01*
X51300147Y-93084354D01*
X51201544Y-92936784D01*
X51133624Y-92772812D01*
X51099000Y-92598741D01*
X51099000Y-92421259D01*
X51133624Y-92247188D01*
X51201544Y-92083216D01*
X51300147Y-91935646D01*
X51425646Y-91810147D01*
X51573216Y-91711544D01*
X51737188Y-91643624D01*
X51886488Y-91613927D01*
X51911258Y-91609000D01*
X52088742Y-91609000D01*
X52113512Y-91613927D01*
G37*
G36*
X52113512Y-89073927D02*
G01*
X52262812Y-89103624D01*
X52426784Y-89171544D01*
X52574354Y-89270147D01*
X52699853Y-89395646D01*
X52798456Y-89543216D01*
X52866376Y-89707188D01*
X52901000Y-89881259D01*
X52901000Y-90058741D01*
X52866376Y-90232812D01*
X52798456Y-90396784D01*
X52699853Y-90544354D01*
X52574354Y-90669853D01*
X52426784Y-90768456D01*
X52262812Y-90836376D01*
X52113512Y-90866073D01*
X52088742Y-90871000D01*
X51911258Y-90871000D01*
X51886488Y-90866073D01*
X51737188Y-90836376D01*
X51573216Y-90768456D01*
X51425646Y-90669853D01*
X51300147Y-90544354D01*
X51201544Y-90396784D01*
X51133624Y-90232812D01*
X51099000Y-90058741D01*
X51099000Y-89881259D01*
X51133624Y-89707188D01*
X51201544Y-89543216D01*
X51300147Y-89395646D01*
X51425646Y-89270147D01*
X51573216Y-89171544D01*
X51737188Y-89103624D01*
X51886488Y-89073927D01*
X51911258Y-89069000D01*
X52088742Y-89069000D01*
X52113512Y-89073927D01*
G37*
G36*
X74973512Y-89073927D02*
G01*
X75122812Y-89103624D01*
X75286784Y-89171544D01*
X75434354Y-89270147D01*
X75559853Y-89395646D01*
X75658456Y-89543216D01*
X75726376Y-89707188D01*
X75761000Y-89881259D01*
X75761000Y-90058741D01*
X75726376Y-90232812D01*
X75658456Y-90396784D01*
X75559853Y-90544354D01*
X75434354Y-90669853D01*
X75286784Y-90768456D01*
X75122812Y-90836376D01*
X74973512Y-90866073D01*
X74948742Y-90871000D01*
X74771258Y-90871000D01*
X74746488Y-90866073D01*
X74597188Y-90836376D01*
X74433216Y-90768456D01*
X74285646Y-90669853D01*
X74160147Y-90544354D01*
X74061544Y-90396784D01*
X73993624Y-90232812D01*
X73959000Y-90058741D01*
X73959000Y-89881259D01*
X73993624Y-89707188D01*
X74061544Y-89543216D01*
X74160147Y-89395646D01*
X74285646Y-89270147D01*
X74433216Y-89171544D01*
X74597188Y-89103624D01*
X74746488Y-89073927D01*
X74771258Y-89069000D01*
X74948742Y-89069000D01*
X74973512Y-89073927D01*
G37*
G36*
X77513512Y-89073927D02*
G01*
X77662812Y-89103624D01*
X77826784Y-89171544D01*
X77974354Y-89270147D01*
X78099853Y-89395646D01*
X78198456Y-89543216D01*
X78266376Y-89707188D01*
X78301000Y-89881259D01*
X78301000Y-90058741D01*
X78266376Y-90232812D01*
X78198456Y-90396784D01*
X78099853Y-90544354D01*
X77974354Y-90669853D01*
X77826784Y-90768456D01*
X77662812Y-90836376D01*
X77513512Y-90866073D01*
X77488742Y-90871000D01*
X77311258Y-90871000D01*
X77286488Y-90866073D01*
X77137188Y-90836376D01*
X76973216Y-90768456D01*
X76825646Y-90669853D01*
X76700147Y-90544354D01*
X76601544Y-90396784D01*
X76533624Y-90232812D01*
X76499000Y-90058741D01*
X76499000Y-89881259D01*
X76533624Y-89707188D01*
X76601544Y-89543216D01*
X76700147Y-89395646D01*
X76825646Y-89270147D01*
X76973216Y-89171544D01*
X77137188Y-89103624D01*
X77286488Y-89073927D01*
X77311258Y-89069000D01*
X77488742Y-89069000D01*
X77513512Y-89073927D01*
G37*
G36*
X77513512Y-86533927D02*
G01*
X77662812Y-86563624D01*
X77826784Y-86631544D01*
X77974354Y-86730147D01*
X78099853Y-86855646D01*
X78198456Y-87003216D01*
X78266376Y-87167188D01*
X78301000Y-87341259D01*
X78301000Y-87518741D01*
X78266376Y-87692812D01*
X78198456Y-87856784D01*
X78099853Y-88004354D01*
X77974354Y-88129853D01*
X77826784Y-88228456D01*
X77662812Y-88296376D01*
X77513512Y-88326073D01*
X77488742Y-88331000D01*
X77311258Y-88331000D01*
X77286488Y-88326073D01*
X77137188Y-88296376D01*
X76973216Y-88228456D01*
X76825646Y-88129853D01*
X76700147Y-88004354D01*
X76601544Y-87856784D01*
X76533624Y-87692812D01*
X76499000Y-87518741D01*
X76499000Y-87341259D01*
X76533624Y-87167188D01*
X76601544Y-87003216D01*
X76700147Y-86855646D01*
X76825646Y-86730147D01*
X76973216Y-86631544D01*
X77137188Y-86563624D01*
X77286488Y-86533927D01*
X77311258Y-86529000D01*
X77488742Y-86529000D01*
X77513512Y-86533927D01*
G37*
G36*
X52113512Y-86533927D02*
G01*
X52262812Y-86563624D01*
X52426784Y-86631544D01*
X52574354Y-86730147D01*
X52699853Y-86855646D01*
X52798456Y-87003216D01*
X52866376Y-87167188D01*
X52901000Y-87341259D01*
X52901000Y-87518741D01*
X52866376Y-87692812D01*
X52798456Y-87856784D01*
X52699853Y-88004354D01*
X52574354Y-88129853D01*
X52426784Y-88228456D01*
X52262812Y-88296376D01*
X52113512Y-88326073D01*
X52088742Y-88331000D01*
X51911258Y-88331000D01*
X51886488Y-88326073D01*
X51737188Y-88296376D01*
X51573216Y-88228456D01*
X51425646Y-88129853D01*
X51300147Y-88004354D01*
X51201544Y-87856784D01*
X51133624Y-87692812D01*
X51099000Y-87518741D01*
X51099000Y-87341259D01*
X51133624Y-87167188D01*
X51201544Y-87003216D01*
X51300147Y-86855646D01*
X51425646Y-86730147D01*
X51573216Y-86631544D01*
X51737188Y-86563624D01*
X51886488Y-86533927D01*
X51911258Y-86529000D01*
X52088742Y-86529000D01*
X52113512Y-86533927D01*
G37*
G36*
X74973512Y-86533927D02*
G01*
X75122812Y-86563624D01*
X75286784Y-86631544D01*
X75434354Y-86730147D01*
X75559853Y-86855646D01*
X75658456Y-87003216D01*
X75726376Y-87167188D01*
X75761000Y-87341259D01*
X75761000Y-87518741D01*
X75726376Y-87692812D01*
X75658456Y-87856784D01*
X75559853Y-88004354D01*
X75434354Y-88129853D01*
X75286784Y-88228456D01*
X75122812Y-88296376D01*
X74973512Y-88326073D01*
X74948742Y-88331000D01*
X74771258Y-88331000D01*
X74746488Y-88326073D01*
X74597188Y-88296376D01*
X74433216Y-88228456D01*
X74285646Y-88129853D01*
X74160147Y-88004354D01*
X74061544Y-87856784D01*
X73993624Y-87692812D01*
X73959000Y-87518741D01*
X73959000Y-87341259D01*
X73993624Y-87167188D01*
X74061544Y-87003216D01*
X74160147Y-86855646D01*
X74285646Y-86730147D01*
X74433216Y-86631544D01*
X74597188Y-86563624D01*
X74746488Y-86533927D01*
X74771258Y-86529000D01*
X74948742Y-86529000D01*
X74973512Y-86533927D01*
G37*
G36*
X74973512Y-83993927D02*
G01*
X75122812Y-84023624D01*
X75286784Y-84091544D01*
X75434354Y-84190147D01*
X75559853Y-84315646D01*
X75658456Y-84463216D01*
X75726376Y-84627188D01*
X75761000Y-84801259D01*
X75761000Y-84978741D01*
X75726376Y-85152812D01*
X75658456Y-85316784D01*
X75559853Y-85464354D01*
X75434354Y-85589853D01*
X75286784Y-85688456D01*
X75122812Y-85756376D01*
X74973512Y-85786073D01*
X74948742Y-85791000D01*
X74771258Y-85791000D01*
X74746488Y-85786073D01*
X74597188Y-85756376D01*
X74433216Y-85688456D01*
X74285646Y-85589853D01*
X74160147Y-85464354D01*
X74061544Y-85316784D01*
X73993624Y-85152812D01*
X73959000Y-84978741D01*
X73959000Y-84801259D01*
X73993624Y-84627188D01*
X74061544Y-84463216D01*
X74160147Y-84315646D01*
X74285646Y-84190147D01*
X74433216Y-84091544D01*
X74597188Y-84023624D01*
X74746488Y-83993927D01*
X74771258Y-83989000D01*
X74948742Y-83989000D01*
X74973512Y-83993927D01*
G37*
G36*
X52113512Y-83993927D02*
G01*
X52262812Y-84023624D01*
X52426784Y-84091544D01*
X52574354Y-84190147D01*
X52699853Y-84315646D01*
X52798456Y-84463216D01*
X52866376Y-84627188D01*
X52901000Y-84801259D01*
X52901000Y-84978741D01*
X52866376Y-85152812D01*
X52798456Y-85316784D01*
X52699853Y-85464354D01*
X52574354Y-85589853D01*
X52426784Y-85688456D01*
X52262812Y-85756376D01*
X52113512Y-85786073D01*
X52088742Y-85791000D01*
X51911258Y-85791000D01*
X51886488Y-85786073D01*
X51737188Y-85756376D01*
X51573216Y-85688456D01*
X51425646Y-85589853D01*
X51300147Y-85464354D01*
X51201544Y-85316784D01*
X51133624Y-85152812D01*
X51099000Y-84978741D01*
X51099000Y-84801259D01*
X51133624Y-84627188D01*
X51201544Y-84463216D01*
X51300147Y-84315646D01*
X51425646Y-84190147D01*
X51573216Y-84091544D01*
X51737188Y-84023624D01*
X51886488Y-83993927D01*
X51911258Y-83989000D01*
X52088742Y-83989000D01*
X52113512Y-83993927D01*
G37*
G36*
X77513512Y-83993927D02*
G01*
X77662812Y-84023624D01*
X77826784Y-84091544D01*
X77974354Y-84190147D01*
X78099853Y-84315646D01*
X78198456Y-84463216D01*
X78266376Y-84627188D01*
X78301000Y-84801259D01*
X78301000Y-84978741D01*
X78266376Y-85152812D01*
X78198456Y-85316784D01*
X78099853Y-85464354D01*
X77974354Y-85589853D01*
X77826784Y-85688456D01*
X77662812Y-85756376D01*
X77513512Y-85786073D01*
X77488742Y-85791000D01*
X77311258Y-85791000D01*
X77286488Y-85786073D01*
X77137188Y-85756376D01*
X76973216Y-85688456D01*
X76825646Y-85589853D01*
X76700147Y-85464354D01*
X76601544Y-85316784D01*
X76533624Y-85152812D01*
X76499000Y-84978741D01*
X76499000Y-84801259D01*
X76533624Y-84627188D01*
X76601544Y-84463216D01*
X76700147Y-84315646D01*
X76825646Y-84190147D01*
X76973216Y-84091544D01*
X77137188Y-84023624D01*
X77286488Y-83993927D01*
X77311258Y-83989000D01*
X77488742Y-83989000D01*
X77513512Y-83993927D01*
G37*
G36*
X74973512Y-81453927D02*
G01*
X75122812Y-81483624D01*
X75286784Y-81551544D01*
X75434354Y-81650147D01*
X75559853Y-81775646D01*
X75658456Y-81923216D01*
X75726376Y-82087188D01*
X75761000Y-82261259D01*
X75761000Y-82438741D01*
X75726376Y-82612812D01*
X75658456Y-82776784D01*
X75559853Y-82924354D01*
X75434354Y-83049853D01*
X75286784Y-83148456D01*
X75122812Y-83216376D01*
X74973512Y-83246073D01*
X74948742Y-83251000D01*
X74771258Y-83251000D01*
X74746488Y-83246073D01*
X74597188Y-83216376D01*
X74433216Y-83148456D01*
X74285646Y-83049853D01*
X74160147Y-82924354D01*
X74061544Y-82776784D01*
X73993624Y-82612812D01*
X73959000Y-82438741D01*
X73959000Y-82261259D01*
X73993624Y-82087188D01*
X74061544Y-81923216D01*
X74160147Y-81775646D01*
X74285646Y-81650147D01*
X74433216Y-81551544D01*
X74597188Y-81483624D01*
X74746488Y-81453927D01*
X74771258Y-81449000D01*
X74948742Y-81449000D01*
X74973512Y-81453927D01*
G37*
G36*
X52113512Y-81453927D02*
G01*
X52262812Y-81483624D01*
X52426784Y-81551544D01*
X52574354Y-81650147D01*
X52699853Y-81775646D01*
X52798456Y-81923216D01*
X52866376Y-82087188D01*
X52901000Y-82261259D01*
X52901000Y-82438741D01*
X52866376Y-82612812D01*
X52798456Y-82776784D01*
X52699853Y-82924354D01*
X52574354Y-83049853D01*
X52426784Y-83148456D01*
X52262812Y-83216376D01*
X52113512Y-83246073D01*
X52088742Y-83251000D01*
X51911258Y-83251000D01*
X51886488Y-83246073D01*
X51737188Y-83216376D01*
X51573216Y-83148456D01*
X51425646Y-83049853D01*
X51300147Y-82924354D01*
X51201544Y-82776784D01*
X51133624Y-82612812D01*
X51099000Y-82438741D01*
X51099000Y-82261259D01*
X51133624Y-82087188D01*
X51201544Y-81923216D01*
X51300147Y-81775646D01*
X51425646Y-81650147D01*
X51573216Y-81551544D01*
X51737188Y-81483624D01*
X51886488Y-81453927D01*
X51911258Y-81449000D01*
X52088742Y-81449000D01*
X52113512Y-81453927D01*
G37*
G36*
X77513512Y-81453927D02*
G01*
X77662812Y-81483624D01*
X77826784Y-81551544D01*
X77974354Y-81650147D01*
X78099853Y-81775646D01*
X78198456Y-81923216D01*
X78266376Y-82087188D01*
X78301000Y-82261259D01*
X78301000Y-82438741D01*
X78266376Y-82612812D01*
X78198456Y-82776784D01*
X78099853Y-82924354D01*
X77974354Y-83049853D01*
X77826784Y-83148456D01*
X77662812Y-83216376D01*
X77513512Y-83246073D01*
X77488742Y-83251000D01*
X77311258Y-83251000D01*
X77286488Y-83246073D01*
X77137188Y-83216376D01*
X76973216Y-83148456D01*
X76825646Y-83049853D01*
X76700147Y-82924354D01*
X76601544Y-82776784D01*
X76533624Y-82612812D01*
X76499000Y-82438741D01*
X76499000Y-82261259D01*
X76533624Y-82087188D01*
X76601544Y-81923216D01*
X76700147Y-81775646D01*
X76825646Y-81650147D01*
X76973216Y-81551544D01*
X77137188Y-81483624D01*
X77286488Y-81453927D01*
X77311258Y-81449000D01*
X77488742Y-81449000D01*
X77513512Y-81453927D01*
G37*
G36*
X77513512Y-78913927D02*
G01*
X77662812Y-78943624D01*
X77826784Y-79011544D01*
X77974354Y-79110147D01*
X78099853Y-79235646D01*
X78198456Y-79383216D01*
X78266376Y-79547188D01*
X78301000Y-79721259D01*
X78301000Y-79898741D01*
X78266376Y-80072812D01*
X78198456Y-80236784D01*
X78099853Y-80384354D01*
X77974354Y-80509853D01*
X77826784Y-80608456D01*
X77662812Y-80676376D01*
X77513512Y-80706073D01*
X77488742Y-80711000D01*
X77311258Y-80711000D01*
X77286488Y-80706073D01*
X77137188Y-80676376D01*
X76973216Y-80608456D01*
X76825646Y-80509853D01*
X76700147Y-80384354D01*
X76601544Y-80236784D01*
X76533624Y-80072812D01*
X76499000Y-79898741D01*
X76499000Y-79721259D01*
X76533624Y-79547188D01*
X76601544Y-79383216D01*
X76700147Y-79235646D01*
X76825646Y-79110147D01*
X76973216Y-79011544D01*
X77137188Y-78943624D01*
X77286488Y-78913927D01*
X77311258Y-78909000D01*
X77488742Y-78909000D01*
X77513512Y-78913927D01*
G37*
G36*
X74973512Y-78913927D02*
G01*
X75122812Y-78943624D01*
X75286784Y-79011544D01*
X75434354Y-79110147D01*
X75559853Y-79235646D01*
X75658456Y-79383216D01*
X75726376Y-79547188D01*
X75761000Y-79721259D01*
X75761000Y-79898741D01*
X75726376Y-80072812D01*
X75658456Y-80236784D01*
X75559853Y-80384354D01*
X75434354Y-80509853D01*
X75286784Y-80608456D01*
X75122812Y-80676376D01*
X74973512Y-80706073D01*
X74948742Y-80711000D01*
X74771258Y-80711000D01*
X74746488Y-80706073D01*
X74597188Y-80676376D01*
X74433216Y-80608456D01*
X74285646Y-80509853D01*
X74160147Y-80384354D01*
X74061544Y-80236784D01*
X73993624Y-80072812D01*
X73959000Y-79898741D01*
X73959000Y-79721259D01*
X73993624Y-79547188D01*
X74061544Y-79383216D01*
X74160147Y-79235646D01*
X74285646Y-79110147D01*
X74433216Y-79011544D01*
X74597188Y-78943624D01*
X74746488Y-78913927D01*
X74771258Y-78909000D01*
X74948742Y-78909000D01*
X74973512Y-78913927D01*
G37*
G36*
X52113512Y-78913927D02*
G01*
X52262812Y-78943624D01*
X52426784Y-79011544D01*
X52574354Y-79110147D01*
X52699853Y-79235646D01*
X52798456Y-79383216D01*
X52866376Y-79547188D01*
X52901000Y-79721259D01*
X52901000Y-79898741D01*
X52866376Y-80072812D01*
X52798456Y-80236784D01*
X52699853Y-80384354D01*
X52574354Y-80509853D01*
X52426784Y-80608456D01*
X52262812Y-80676376D01*
X52113512Y-80706073D01*
X52088742Y-80711000D01*
X51911258Y-80711000D01*
X51886488Y-80706073D01*
X51737188Y-80676376D01*
X51573216Y-80608456D01*
X51425646Y-80509853D01*
X51300147Y-80384354D01*
X51201544Y-80236784D01*
X51133624Y-80072812D01*
X51099000Y-79898741D01*
X51099000Y-79721259D01*
X51133624Y-79547188D01*
X51201544Y-79383216D01*
X51300147Y-79235646D01*
X51425646Y-79110147D01*
X51573216Y-79011544D01*
X51737188Y-78943624D01*
X51886488Y-78913927D01*
X51911258Y-78909000D01*
X52088742Y-78909000D01*
X52113512Y-78913927D01*
G37*
G36*
X77513512Y-76373927D02*
G01*
X77662812Y-76403624D01*
X77826784Y-76471544D01*
X77974354Y-76570147D01*
X78099853Y-76695646D01*
X78198456Y-76843216D01*
X78266376Y-77007188D01*
X78301000Y-77181259D01*
X78301000Y-77358741D01*
X78266376Y-77532812D01*
X78198456Y-77696784D01*
X78099853Y-77844354D01*
X77974354Y-77969853D01*
X77826784Y-78068456D01*
X77662812Y-78136376D01*
X77513512Y-78166073D01*
X77488742Y-78171000D01*
X77311258Y-78171000D01*
X77286488Y-78166073D01*
X77137188Y-78136376D01*
X76973216Y-78068456D01*
X76825646Y-77969853D01*
X76700147Y-77844354D01*
X76601544Y-77696784D01*
X76533624Y-77532812D01*
X76499000Y-77358741D01*
X76499000Y-77181259D01*
X76533624Y-77007188D01*
X76601544Y-76843216D01*
X76700147Y-76695646D01*
X76825646Y-76570147D01*
X76973216Y-76471544D01*
X77137188Y-76403624D01*
X77286488Y-76373927D01*
X77311258Y-76369000D01*
X77488742Y-76369000D01*
X77513512Y-76373927D01*
G37*
G36*
X74973512Y-76373927D02*
G01*
X75122812Y-76403624D01*
X75286784Y-76471544D01*
X75434354Y-76570147D01*
X75559853Y-76695646D01*
X75658456Y-76843216D01*
X75726376Y-77007188D01*
X75761000Y-77181259D01*
X75761000Y-77358741D01*
X75726376Y-77532812D01*
X75658456Y-77696784D01*
X75559853Y-77844354D01*
X75434354Y-77969853D01*
X75286784Y-78068456D01*
X75122812Y-78136376D01*
X74973512Y-78166073D01*
X74948742Y-78171000D01*
X74771258Y-78171000D01*
X74746488Y-78166073D01*
X74597188Y-78136376D01*
X74433216Y-78068456D01*
X74285646Y-77969853D01*
X74160147Y-77844354D01*
X74061544Y-77696784D01*
X73993624Y-77532812D01*
X73959000Y-77358741D01*
X73959000Y-77181259D01*
X73993624Y-77007188D01*
X74061544Y-76843216D01*
X74160147Y-76695646D01*
X74285646Y-76570147D01*
X74433216Y-76471544D01*
X74597188Y-76403624D01*
X74746488Y-76373927D01*
X74771258Y-76369000D01*
X74948742Y-76369000D01*
X74973512Y-76373927D01*
G37*
G36*
X52113512Y-76373927D02*
G01*
X52262812Y-76403624D01*
X52426784Y-76471544D01*
X52574354Y-76570147D01*
X52699853Y-76695646D01*
X52798456Y-76843216D01*
X52866376Y-77007188D01*
X52901000Y-77181259D01*
X52901000Y-77358741D01*
X52866376Y-77532812D01*
X52798456Y-77696784D01*
X52699853Y-77844354D01*
X52574354Y-77969853D01*
X52426784Y-78068456D01*
X52262812Y-78136376D01*
X52113512Y-78166073D01*
X52088742Y-78171000D01*
X51911258Y-78171000D01*
X51886488Y-78166073D01*
X51737188Y-78136376D01*
X51573216Y-78068456D01*
X51425646Y-77969853D01*
X51300147Y-77844354D01*
X51201544Y-77696784D01*
X51133624Y-77532812D01*
X51099000Y-77358741D01*
X51099000Y-77181259D01*
X51133624Y-77007188D01*
X51201544Y-76843216D01*
X51300147Y-76695646D01*
X51425646Y-76570147D01*
X51573216Y-76471544D01*
X51737188Y-76403624D01*
X51886488Y-76373927D01*
X51911258Y-76369000D01*
X52088742Y-76369000D01*
X52113512Y-76373927D01*
G37*
G36*
X52113512Y-73833927D02*
G01*
X52262812Y-73863624D01*
X52426784Y-73931544D01*
X52574354Y-74030147D01*
X52699853Y-74155646D01*
X52798456Y-74303216D01*
X52866376Y-74467188D01*
X52901000Y-74641259D01*
X52901000Y-74818741D01*
X52866376Y-74992812D01*
X52798456Y-75156784D01*
X52699853Y-75304354D01*
X52574354Y-75429853D01*
X52426784Y-75528456D01*
X52262812Y-75596376D01*
X52113512Y-75626073D01*
X52088742Y-75631000D01*
X51911258Y-75631000D01*
X51886488Y-75626073D01*
X51737188Y-75596376D01*
X51573216Y-75528456D01*
X51425646Y-75429853D01*
X51300147Y-75304354D01*
X51201544Y-75156784D01*
X51133624Y-74992812D01*
X51099000Y-74818741D01*
X51099000Y-74641259D01*
X51133624Y-74467188D01*
X51201544Y-74303216D01*
X51300147Y-74155646D01*
X51425646Y-74030147D01*
X51573216Y-73931544D01*
X51737188Y-73863624D01*
X51886488Y-73833927D01*
X51911258Y-73829000D01*
X52088742Y-73829000D01*
X52113512Y-73833927D01*
G37*
G36*
X74973512Y-73833927D02*
G01*
X75122812Y-73863624D01*
X75286784Y-73931544D01*
X75434354Y-74030147D01*
X75559853Y-74155646D01*
X75658456Y-74303216D01*
X75726376Y-74467188D01*
X75761000Y-74641259D01*
X75761000Y-74818741D01*
X75726376Y-74992812D01*
X75658456Y-75156784D01*
X75559853Y-75304354D01*
X75434354Y-75429853D01*
X75286784Y-75528456D01*
X75122812Y-75596376D01*
X74973512Y-75626073D01*
X74948742Y-75631000D01*
X74771258Y-75631000D01*
X74746488Y-75626073D01*
X74597188Y-75596376D01*
X74433216Y-75528456D01*
X74285646Y-75429853D01*
X74160147Y-75304354D01*
X74061544Y-75156784D01*
X73993624Y-74992812D01*
X73959000Y-74818741D01*
X73959000Y-74641259D01*
X73993624Y-74467188D01*
X74061544Y-74303216D01*
X74160147Y-74155646D01*
X74285646Y-74030147D01*
X74433216Y-73931544D01*
X74597188Y-73863624D01*
X74746488Y-73833927D01*
X74771258Y-73829000D01*
X74948742Y-73829000D01*
X74973512Y-73833927D01*
G37*
G36*
X77513512Y-73833927D02*
G01*
X77662812Y-73863624D01*
X77826784Y-73931544D01*
X77974354Y-74030147D01*
X78099853Y-74155646D01*
X78198456Y-74303216D01*
X78266376Y-74467188D01*
X78301000Y-74641259D01*
X78301000Y-74818741D01*
X78266376Y-74992812D01*
X78198456Y-75156784D01*
X78099853Y-75304354D01*
X77974354Y-75429853D01*
X77826784Y-75528456D01*
X77662812Y-75596376D01*
X77513512Y-75626073D01*
X77488742Y-75631000D01*
X77311258Y-75631000D01*
X77286488Y-75626073D01*
X77137188Y-75596376D01*
X76973216Y-75528456D01*
X76825646Y-75429853D01*
X76700147Y-75304354D01*
X76601544Y-75156784D01*
X76533624Y-74992812D01*
X76499000Y-74818741D01*
X76499000Y-74641259D01*
X76533624Y-74467188D01*
X76601544Y-74303216D01*
X76700147Y-74155646D01*
X76825646Y-74030147D01*
X76973216Y-73931544D01*
X77137188Y-73863624D01*
X77286488Y-73833927D01*
X77311258Y-73829000D01*
X77488742Y-73829000D01*
X77513512Y-73833927D01*
G37*
G36*
X52113512Y-71293927D02*
G01*
X52262812Y-71323624D01*
X52426784Y-71391544D01*
X52574354Y-71490147D01*
X52699853Y-71615646D01*
X52798456Y-71763216D01*
X52866376Y-71927188D01*
X52901000Y-72101259D01*
X52901000Y-72278741D01*
X52866376Y-72452812D01*
X52798456Y-72616784D01*
X52699853Y-72764354D01*
X52574354Y-72889853D01*
X52426784Y-72988456D01*
X52262812Y-73056376D01*
X52113512Y-73086073D01*
X52088742Y-73091000D01*
X51911258Y-73091000D01*
X51886488Y-73086073D01*
X51737188Y-73056376D01*
X51573216Y-72988456D01*
X51425646Y-72889853D01*
X51300147Y-72764354D01*
X51201544Y-72616784D01*
X51133624Y-72452812D01*
X51099000Y-72278741D01*
X51099000Y-72101259D01*
X51133624Y-71927188D01*
X51201544Y-71763216D01*
X51300147Y-71615646D01*
X51425646Y-71490147D01*
X51573216Y-71391544D01*
X51737188Y-71323624D01*
X51886488Y-71293927D01*
X51911258Y-71289000D01*
X52088742Y-71289000D01*
X52113512Y-71293927D01*
G37*
G36*
X77513512Y-71293927D02*
G01*
X77662812Y-71323624D01*
X77826784Y-71391544D01*
X77974354Y-71490147D01*
X78099853Y-71615646D01*
X78198456Y-71763216D01*
X78266376Y-71927188D01*
X78301000Y-72101259D01*
X78301000Y-72278741D01*
X78266376Y-72452812D01*
X78198456Y-72616784D01*
X78099853Y-72764354D01*
X77974354Y-72889853D01*
X77826784Y-72988456D01*
X77662812Y-73056376D01*
X77513512Y-73086073D01*
X77488742Y-73091000D01*
X77311258Y-73091000D01*
X77286488Y-73086073D01*
X77137188Y-73056376D01*
X76973216Y-72988456D01*
X76825646Y-72889853D01*
X76700147Y-72764354D01*
X76601544Y-72616784D01*
X76533624Y-72452812D01*
X76499000Y-72278741D01*
X76499000Y-72101259D01*
X76533624Y-71927188D01*
X76601544Y-71763216D01*
X76700147Y-71615646D01*
X76825646Y-71490147D01*
X76973216Y-71391544D01*
X77137188Y-71323624D01*
X77286488Y-71293927D01*
X77311258Y-71289000D01*
X77488742Y-71289000D01*
X77513512Y-71293927D01*
G37*
G36*
X74973512Y-71293927D02*
G01*
X75122812Y-71323624D01*
X75286784Y-71391544D01*
X75434354Y-71490147D01*
X75559853Y-71615646D01*
X75658456Y-71763216D01*
X75726376Y-71927188D01*
X75761000Y-72101259D01*
X75761000Y-72278741D01*
X75726376Y-72452812D01*
X75658456Y-72616784D01*
X75559853Y-72764354D01*
X75434354Y-72889853D01*
X75286784Y-72988456D01*
X75122812Y-73056376D01*
X74973512Y-73086073D01*
X74948742Y-73091000D01*
X74771258Y-73091000D01*
X74746488Y-73086073D01*
X74597188Y-73056376D01*
X74433216Y-72988456D01*
X74285646Y-72889853D01*
X74160147Y-72764354D01*
X74061544Y-72616784D01*
X73993624Y-72452812D01*
X73959000Y-72278741D01*
X73959000Y-72101259D01*
X73993624Y-71927188D01*
X74061544Y-71763216D01*
X74160147Y-71615646D01*
X74285646Y-71490147D01*
X74433216Y-71391544D01*
X74597188Y-71323624D01*
X74746488Y-71293927D01*
X74771258Y-71289000D01*
X74948742Y-71289000D01*
X74973512Y-71293927D01*
G37*
G36*
X77513512Y-68753927D02*
G01*
X77662812Y-68783624D01*
X77826784Y-68851544D01*
X77974354Y-68950147D01*
X78099853Y-69075646D01*
X78198456Y-69223216D01*
X78266376Y-69387188D01*
X78301000Y-69561259D01*
X78301000Y-69738741D01*
X78266376Y-69912812D01*
X78198456Y-70076784D01*
X78099853Y-70224354D01*
X77974354Y-70349853D01*
X77826784Y-70448456D01*
X77662812Y-70516376D01*
X77513512Y-70546073D01*
X77488742Y-70551000D01*
X77311258Y-70551000D01*
X77286488Y-70546073D01*
X77137188Y-70516376D01*
X76973216Y-70448456D01*
X76825646Y-70349853D01*
X76700147Y-70224354D01*
X76601544Y-70076784D01*
X76533624Y-69912812D01*
X76499000Y-69738741D01*
X76499000Y-69561259D01*
X76533624Y-69387188D01*
X76601544Y-69223216D01*
X76700147Y-69075646D01*
X76825646Y-68950147D01*
X76973216Y-68851544D01*
X77137188Y-68783624D01*
X77286488Y-68753927D01*
X77311258Y-68749000D01*
X77488742Y-68749000D01*
X77513512Y-68753927D01*
G37*
G36*
X74973512Y-68753927D02*
G01*
X75122812Y-68783624D01*
X75286784Y-68851544D01*
X75434354Y-68950147D01*
X75559853Y-69075646D01*
X75658456Y-69223216D01*
X75726376Y-69387188D01*
X75761000Y-69561259D01*
X75761000Y-69738741D01*
X75726376Y-69912812D01*
X75658456Y-70076784D01*
X75559853Y-70224354D01*
X75434354Y-70349853D01*
X75286784Y-70448456D01*
X75122812Y-70516376D01*
X74973512Y-70546073D01*
X74948742Y-70551000D01*
X74771258Y-70551000D01*
X74746488Y-70546073D01*
X74597188Y-70516376D01*
X74433216Y-70448456D01*
X74285646Y-70349853D01*
X74160147Y-70224354D01*
X74061544Y-70076784D01*
X73993624Y-69912812D01*
X73959000Y-69738741D01*
X73959000Y-69561259D01*
X73993624Y-69387188D01*
X74061544Y-69223216D01*
X74160147Y-69075646D01*
X74285646Y-68950147D01*
X74433216Y-68851544D01*
X74597188Y-68783624D01*
X74746488Y-68753927D01*
X74771258Y-68749000D01*
X74948742Y-68749000D01*
X74973512Y-68753927D01*
G37*
G36*
X52113512Y-68753927D02*
G01*
X52262812Y-68783624D01*
X52426784Y-68851544D01*
X52574354Y-68950147D01*
X52699853Y-69075646D01*
X52798456Y-69223216D01*
X52866376Y-69387188D01*
X52901000Y-69561259D01*
X52901000Y-69738741D01*
X52866376Y-69912812D01*
X52798456Y-70076784D01*
X52699853Y-70224354D01*
X52574354Y-70349853D01*
X52426784Y-70448456D01*
X52262812Y-70516376D01*
X52113512Y-70546073D01*
X52088742Y-70551000D01*
X51911258Y-70551000D01*
X51886488Y-70546073D01*
X51737188Y-70516376D01*
X51573216Y-70448456D01*
X51425646Y-70349853D01*
X51300147Y-70224354D01*
X51201544Y-70076784D01*
X51133624Y-69912812D01*
X51099000Y-69738741D01*
X51099000Y-69561259D01*
X51133624Y-69387188D01*
X51201544Y-69223216D01*
X51300147Y-69075646D01*
X51425646Y-68950147D01*
X51573216Y-68851544D01*
X51737188Y-68783624D01*
X51886488Y-68753927D01*
X51911258Y-68749000D01*
X52088742Y-68749000D01*
X52113512Y-68753927D01*
G37*
G36*
X77513512Y-66213927D02*
G01*
X77662812Y-66243624D01*
X77826784Y-66311544D01*
X77974354Y-66410147D01*
X78099853Y-66535646D01*
X78198456Y-66683216D01*
X78266376Y-66847188D01*
X78301000Y-67021259D01*
X78301000Y-67198741D01*
X78266376Y-67372812D01*
X78198456Y-67536784D01*
X78099853Y-67684354D01*
X77974354Y-67809853D01*
X77826784Y-67908456D01*
X77662812Y-67976376D01*
X77513512Y-68006073D01*
X77488742Y-68011000D01*
X77311258Y-68011000D01*
X77286488Y-68006073D01*
X77137188Y-67976376D01*
X76973216Y-67908456D01*
X76825646Y-67809853D01*
X76700147Y-67684354D01*
X76601544Y-67536784D01*
X76533624Y-67372812D01*
X76499000Y-67198741D01*
X76499000Y-67021259D01*
X76533624Y-66847188D01*
X76601544Y-66683216D01*
X76700147Y-66535646D01*
X76825646Y-66410147D01*
X76973216Y-66311544D01*
X77137188Y-66243624D01*
X77286488Y-66213927D01*
X77311258Y-66209000D01*
X77488742Y-66209000D01*
X77513512Y-66213927D01*
G37*
G36*
X52113512Y-66213927D02*
G01*
X52262812Y-66243624D01*
X52426784Y-66311544D01*
X52574354Y-66410147D01*
X52699853Y-66535646D01*
X52798456Y-66683216D01*
X52866376Y-66847188D01*
X52901000Y-67021259D01*
X52901000Y-67198741D01*
X52866376Y-67372812D01*
X52798456Y-67536784D01*
X52699853Y-67684354D01*
X52574354Y-67809853D01*
X52426784Y-67908456D01*
X52262812Y-67976376D01*
X52113512Y-68006073D01*
X52088742Y-68011000D01*
X51911258Y-68011000D01*
X51886488Y-68006073D01*
X51737188Y-67976376D01*
X51573216Y-67908456D01*
X51425646Y-67809853D01*
X51300147Y-67684354D01*
X51201544Y-67536784D01*
X51133624Y-67372812D01*
X51099000Y-67198741D01*
X51099000Y-67021259D01*
X51133624Y-66847188D01*
X51201544Y-66683216D01*
X51300147Y-66535646D01*
X51425646Y-66410147D01*
X51573216Y-66311544D01*
X51737188Y-66243624D01*
X51886488Y-66213927D01*
X51911258Y-66209000D01*
X52088742Y-66209000D01*
X52113512Y-66213927D01*
G37*
G36*
X74973512Y-66213927D02*
G01*
X75122812Y-66243624D01*
X75286784Y-66311544D01*
X75434354Y-66410147D01*
X75559853Y-66535646D01*
X75658456Y-66683216D01*
X75726376Y-66847188D01*
X75761000Y-67021259D01*
X75761000Y-67198741D01*
X75726376Y-67372812D01*
X75658456Y-67536784D01*
X75559853Y-67684354D01*
X75434354Y-67809853D01*
X75286784Y-67908456D01*
X75122812Y-67976376D01*
X74973512Y-68006073D01*
X74948742Y-68011000D01*
X74771258Y-68011000D01*
X74746488Y-68006073D01*
X74597188Y-67976376D01*
X74433216Y-67908456D01*
X74285646Y-67809853D01*
X74160147Y-67684354D01*
X74061544Y-67536784D01*
X73993624Y-67372812D01*
X73959000Y-67198741D01*
X73959000Y-67021259D01*
X73993624Y-66847188D01*
X74061544Y-66683216D01*
X74160147Y-66535646D01*
X74285646Y-66410147D01*
X74433216Y-66311544D01*
X74597188Y-66243624D01*
X74746488Y-66213927D01*
X74771258Y-66209000D01*
X74948742Y-66209000D01*
X74973512Y-66213927D01*
G37*
G36*
X74973512Y-63673927D02*
G01*
X75122812Y-63703624D01*
X75286784Y-63771544D01*
X75434354Y-63870147D01*
X75559853Y-63995646D01*
X75658456Y-64143216D01*
X75726376Y-64307188D01*
X75761000Y-64481259D01*
X75761000Y-64658741D01*
X75726376Y-64832812D01*
X75658456Y-64996784D01*
X75559853Y-65144354D01*
X75434354Y-65269853D01*
X75286784Y-65368456D01*
X75122812Y-65436376D01*
X74973512Y-65466073D01*
X74948742Y-65471000D01*
X74771258Y-65471000D01*
X74746488Y-65466073D01*
X74597188Y-65436376D01*
X74433216Y-65368456D01*
X74285646Y-65269853D01*
X74160147Y-65144354D01*
X74061544Y-64996784D01*
X73993624Y-64832812D01*
X73959000Y-64658741D01*
X73959000Y-64481259D01*
X73993624Y-64307188D01*
X74061544Y-64143216D01*
X74160147Y-63995646D01*
X74285646Y-63870147D01*
X74433216Y-63771544D01*
X74597188Y-63703624D01*
X74746488Y-63673927D01*
X74771258Y-63669000D01*
X74948742Y-63669000D01*
X74973512Y-63673927D01*
G37*
G36*
X77513512Y-63673927D02*
G01*
X77662812Y-63703624D01*
X77826784Y-63771544D01*
X77974354Y-63870147D01*
X78099853Y-63995646D01*
X78198456Y-64143216D01*
X78266376Y-64307188D01*
X78301000Y-64481259D01*
X78301000Y-64658741D01*
X78266376Y-64832812D01*
X78198456Y-64996784D01*
X78099853Y-65144354D01*
X77974354Y-65269853D01*
X77826784Y-65368456D01*
X77662812Y-65436376D01*
X77513512Y-65466073D01*
X77488742Y-65471000D01*
X77311258Y-65471000D01*
X77286488Y-65466073D01*
X77137188Y-65436376D01*
X76973216Y-65368456D01*
X76825646Y-65269853D01*
X76700147Y-65144354D01*
X76601544Y-64996784D01*
X76533624Y-64832812D01*
X76499000Y-64658741D01*
X76499000Y-64481259D01*
X76533624Y-64307188D01*
X76601544Y-64143216D01*
X76700147Y-63995646D01*
X76825646Y-63870147D01*
X76973216Y-63771544D01*
X77137188Y-63703624D01*
X77286488Y-63673927D01*
X77311258Y-63669000D01*
X77488742Y-63669000D01*
X77513512Y-63673927D01*
G37*
G36*
X52113512Y-63673927D02*
G01*
X52262812Y-63703624D01*
X52426784Y-63771544D01*
X52574354Y-63870147D01*
X52699853Y-63995646D01*
X52798456Y-64143216D01*
X52866376Y-64307188D01*
X52901000Y-64481259D01*
X52901000Y-64658741D01*
X52866376Y-64832812D01*
X52798456Y-64996784D01*
X52699853Y-65144354D01*
X52574354Y-65269853D01*
X52426784Y-65368456D01*
X52262812Y-65436376D01*
X52113512Y-65466073D01*
X52088742Y-65471000D01*
X51911258Y-65471000D01*
X51886488Y-65466073D01*
X51737188Y-65436376D01*
X51573216Y-65368456D01*
X51425646Y-65269853D01*
X51300147Y-65144354D01*
X51201544Y-64996784D01*
X51133624Y-64832812D01*
X51099000Y-64658741D01*
X51099000Y-64481259D01*
X51133624Y-64307188D01*
X51201544Y-64143216D01*
X51300147Y-63995646D01*
X51425646Y-63870147D01*
X51573216Y-63771544D01*
X51737188Y-63703624D01*
X51886488Y-63673927D01*
X51911258Y-63669000D01*
X52088742Y-63669000D01*
X52113512Y-63673927D01*
G37*
G36*
X52113512Y-61133927D02*
G01*
X52262812Y-61163624D01*
X52426784Y-61231544D01*
X52574354Y-61330147D01*
X52699853Y-61455646D01*
X52798456Y-61603216D01*
X52866376Y-61767188D01*
X52901000Y-61941259D01*
X52901000Y-62118741D01*
X52866376Y-62292812D01*
X52798456Y-62456784D01*
X52699853Y-62604354D01*
X52574354Y-62729853D01*
X52426784Y-62828456D01*
X52262812Y-62896376D01*
X52113512Y-62926073D01*
X52088742Y-62931000D01*
X51911258Y-62931000D01*
X51886488Y-62926073D01*
X51737188Y-62896376D01*
X51573216Y-62828456D01*
X51425646Y-62729853D01*
X51300147Y-62604354D01*
X51201544Y-62456784D01*
X51133624Y-62292812D01*
X51099000Y-62118741D01*
X51099000Y-61941259D01*
X51133624Y-61767188D01*
X51201544Y-61603216D01*
X51300147Y-61455646D01*
X51425646Y-61330147D01*
X51573216Y-61231544D01*
X51737188Y-61163624D01*
X51886488Y-61133927D01*
X51911258Y-61129000D01*
X52088742Y-61129000D01*
X52113512Y-61133927D01*
G37*
G36*
X77513512Y-61133927D02*
G01*
X77662812Y-61163624D01*
X77826784Y-61231544D01*
X77974354Y-61330147D01*
X78099853Y-61455646D01*
X78198456Y-61603216D01*
X78266376Y-61767188D01*
X78301000Y-61941259D01*
X78301000Y-62118741D01*
X78266376Y-62292812D01*
X78198456Y-62456784D01*
X78099853Y-62604354D01*
X77974354Y-62729853D01*
X77826784Y-62828456D01*
X77662812Y-62896376D01*
X77513512Y-62926073D01*
X77488742Y-62931000D01*
X77311258Y-62931000D01*
X77286488Y-62926073D01*
X77137188Y-62896376D01*
X76973216Y-62828456D01*
X76825646Y-62729853D01*
X76700147Y-62604354D01*
X76601544Y-62456784D01*
X76533624Y-62292812D01*
X76499000Y-62118741D01*
X76499000Y-61941259D01*
X76533624Y-61767188D01*
X76601544Y-61603216D01*
X76700147Y-61455646D01*
X76825646Y-61330147D01*
X76973216Y-61231544D01*
X77137188Y-61163624D01*
X77286488Y-61133927D01*
X77311258Y-61129000D01*
X77488742Y-61129000D01*
X77513512Y-61133927D01*
G37*
G36*
X74973512Y-61133927D02*
G01*
X75122812Y-61163624D01*
X75286784Y-61231544D01*
X75434354Y-61330147D01*
X75559853Y-61455646D01*
X75658456Y-61603216D01*
X75726376Y-61767188D01*
X75761000Y-61941259D01*
X75761000Y-62118741D01*
X75726376Y-62292812D01*
X75658456Y-62456784D01*
X75559853Y-62604354D01*
X75434354Y-62729853D01*
X75286784Y-62828456D01*
X75122812Y-62896376D01*
X74973512Y-62926073D01*
X74948742Y-62931000D01*
X74771258Y-62931000D01*
X74746488Y-62926073D01*
X74597188Y-62896376D01*
X74433216Y-62828456D01*
X74285646Y-62729853D01*
X74160147Y-62604354D01*
X74061544Y-62456784D01*
X73993624Y-62292812D01*
X73959000Y-62118741D01*
X73959000Y-61941259D01*
X73993624Y-61767188D01*
X74061544Y-61603216D01*
X74160147Y-61455646D01*
X74285646Y-61330147D01*
X74433216Y-61231544D01*
X74597188Y-61163624D01*
X74746488Y-61133927D01*
X74771258Y-61129000D01*
X74948742Y-61129000D01*
X74973512Y-61133927D01*
G37*
G36*
X74973512Y-58593927D02*
G01*
X75122812Y-58623624D01*
X75286784Y-58691544D01*
X75434354Y-58790147D01*
X75559853Y-58915646D01*
X75658456Y-59063216D01*
X75726376Y-59227188D01*
X75761000Y-59401259D01*
X75761000Y-59578741D01*
X75726376Y-59752812D01*
X75658456Y-59916784D01*
X75559853Y-60064354D01*
X75434354Y-60189853D01*
X75286784Y-60288456D01*
X75122812Y-60356376D01*
X74973512Y-60386073D01*
X74948742Y-60391000D01*
X74771258Y-60391000D01*
X74746488Y-60386073D01*
X74597188Y-60356376D01*
X74433216Y-60288456D01*
X74285646Y-60189853D01*
X74160147Y-60064354D01*
X74061544Y-59916784D01*
X73993624Y-59752812D01*
X73959000Y-59578741D01*
X73959000Y-59401259D01*
X73993624Y-59227188D01*
X74061544Y-59063216D01*
X74160147Y-58915646D01*
X74285646Y-58790147D01*
X74433216Y-58691544D01*
X74597188Y-58623624D01*
X74746488Y-58593927D01*
X74771258Y-58589000D01*
X74948742Y-58589000D01*
X74973512Y-58593927D01*
G37*
G36*
X52113512Y-58593927D02*
G01*
X52262812Y-58623624D01*
X52426784Y-58691544D01*
X52574354Y-58790147D01*
X52699853Y-58915646D01*
X52798456Y-59063216D01*
X52866376Y-59227188D01*
X52901000Y-59401259D01*
X52901000Y-59578741D01*
X52866376Y-59752812D01*
X52798456Y-59916784D01*
X52699853Y-60064354D01*
X52574354Y-60189853D01*
X52426784Y-60288456D01*
X52262812Y-60356376D01*
X52113512Y-60386073D01*
X52088742Y-60391000D01*
X51911258Y-60391000D01*
X51886488Y-60386073D01*
X51737188Y-60356376D01*
X51573216Y-60288456D01*
X51425646Y-60189853D01*
X51300147Y-60064354D01*
X51201544Y-59916784D01*
X51133624Y-59752812D01*
X51099000Y-59578741D01*
X51099000Y-59401259D01*
X51133624Y-59227188D01*
X51201544Y-59063216D01*
X51300147Y-58915646D01*
X51425646Y-58790147D01*
X51573216Y-58691544D01*
X51737188Y-58623624D01*
X51886488Y-58593927D01*
X51911258Y-58589000D01*
X52088742Y-58589000D01*
X52113512Y-58593927D01*
G37*
G36*
X77513512Y-58593927D02*
G01*
X77662812Y-58623624D01*
X77826784Y-58691544D01*
X77974354Y-58790147D01*
X78099853Y-58915646D01*
X78198456Y-59063216D01*
X78266376Y-59227188D01*
X78301000Y-59401259D01*
X78301000Y-59578741D01*
X78266376Y-59752812D01*
X78198456Y-59916784D01*
X78099853Y-60064354D01*
X77974354Y-60189853D01*
X77826784Y-60288456D01*
X77662812Y-60356376D01*
X77513512Y-60386073D01*
X77488742Y-60391000D01*
X77311258Y-60391000D01*
X77286488Y-60386073D01*
X77137188Y-60356376D01*
X76973216Y-60288456D01*
X76825646Y-60189853D01*
X76700147Y-60064354D01*
X76601544Y-59916784D01*
X76533624Y-59752812D01*
X76499000Y-59578741D01*
X76499000Y-59401259D01*
X76533624Y-59227188D01*
X76601544Y-59063216D01*
X76700147Y-58915646D01*
X76825646Y-58790147D01*
X76973216Y-58691544D01*
X77137188Y-58623624D01*
X77286488Y-58593927D01*
X77311258Y-58589000D01*
X77488742Y-58589000D01*
X77513512Y-58593927D01*
G37*
G36*
X74973512Y-56053927D02*
G01*
X75122812Y-56083624D01*
X75286784Y-56151544D01*
X75434354Y-56250147D01*
X75559853Y-56375646D01*
X75658456Y-56523216D01*
X75726376Y-56687188D01*
X75761000Y-56861259D01*
X75761000Y-57038741D01*
X75726376Y-57212812D01*
X75658456Y-57376784D01*
X75559853Y-57524354D01*
X75434354Y-57649853D01*
X75286784Y-57748456D01*
X75122812Y-57816376D01*
X74973512Y-57846073D01*
X74948742Y-57851000D01*
X74771258Y-57851000D01*
X74746488Y-57846073D01*
X74597188Y-57816376D01*
X74433216Y-57748456D01*
X74285646Y-57649853D01*
X74160147Y-57524354D01*
X74061544Y-57376784D01*
X73993624Y-57212812D01*
X73959000Y-57038741D01*
X73959000Y-56861259D01*
X73993624Y-56687188D01*
X74061544Y-56523216D01*
X74160147Y-56375646D01*
X74285646Y-56250147D01*
X74433216Y-56151544D01*
X74597188Y-56083624D01*
X74746488Y-56053927D01*
X74771258Y-56049000D01*
X74948742Y-56049000D01*
X74973512Y-56053927D01*
G37*
G36*
X52113512Y-56053927D02*
G01*
X52262812Y-56083624D01*
X52426784Y-56151544D01*
X52574354Y-56250147D01*
X52699853Y-56375646D01*
X52798456Y-56523216D01*
X52866376Y-56687188D01*
X52901000Y-56861259D01*
X52901000Y-57038741D01*
X52866376Y-57212812D01*
X52798456Y-57376784D01*
X52699853Y-57524354D01*
X52574354Y-57649853D01*
X52426784Y-57748456D01*
X52262812Y-57816376D01*
X52113512Y-57846073D01*
X52088742Y-57851000D01*
X51911258Y-57851000D01*
X51886488Y-57846073D01*
X51737188Y-57816376D01*
X51573216Y-57748456D01*
X51425646Y-57649853D01*
X51300147Y-57524354D01*
X51201544Y-57376784D01*
X51133624Y-57212812D01*
X51099000Y-57038741D01*
X51099000Y-56861259D01*
X51133624Y-56687188D01*
X51201544Y-56523216D01*
X51300147Y-56375646D01*
X51425646Y-56250147D01*
X51573216Y-56151544D01*
X51737188Y-56083624D01*
X51886488Y-56053927D01*
X51911258Y-56049000D01*
X52088742Y-56049000D01*
X52113512Y-56053927D01*
G37*
G36*
X77513512Y-56053927D02*
G01*
X77662812Y-56083624D01*
X77826784Y-56151544D01*
X77974354Y-56250147D01*
X78099853Y-56375646D01*
X78198456Y-56523216D01*
X78266376Y-56687188D01*
X78301000Y-56861259D01*
X78301000Y-57038741D01*
X78266376Y-57212812D01*
X78198456Y-57376784D01*
X78099853Y-57524354D01*
X77974354Y-57649853D01*
X77826784Y-57748456D01*
X77662812Y-57816376D01*
X77513512Y-57846073D01*
X77488742Y-57851000D01*
X77311258Y-57851000D01*
X77286488Y-57846073D01*
X77137188Y-57816376D01*
X76973216Y-57748456D01*
X76825646Y-57649853D01*
X76700147Y-57524354D01*
X76601544Y-57376784D01*
X76533624Y-57212812D01*
X76499000Y-57038741D01*
X76499000Y-56861259D01*
X76533624Y-56687188D01*
X76601544Y-56523216D01*
X76700147Y-56375646D01*
X76825646Y-56250147D01*
X76973216Y-56151544D01*
X77137188Y-56083624D01*
X77286488Y-56053927D01*
X77311258Y-56049000D01*
X77488742Y-56049000D01*
X77513512Y-56053927D01*
G37*
G36*
X52113512Y-53513927D02*
G01*
X52262812Y-53543624D01*
X52426784Y-53611544D01*
X52574354Y-53710147D01*
X52699853Y-53835646D01*
X52798456Y-53983216D01*
X52866376Y-54147188D01*
X52901000Y-54321259D01*
X52901000Y-54498741D01*
X52866376Y-54672812D01*
X52798456Y-54836784D01*
X52699853Y-54984354D01*
X52574354Y-55109853D01*
X52426784Y-55208456D01*
X52262812Y-55276376D01*
X52113512Y-55306073D01*
X52088742Y-55311000D01*
X51911258Y-55311000D01*
X51886488Y-55306073D01*
X51737188Y-55276376D01*
X51573216Y-55208456D01*
X51425646Y-55109853D01*
X51300147Y-54984354D01*
X51201544Y-54836784D01*
X51133624Y-54672812D01*
X51099000Y-54498741D01*
X51099000Y-54321259D01*
X51133624Y-54147188D01*
X51201544Y-53983216D01*
X51300147Y-53835646D01*
X51425646Y-53710147D01*
X51573216Y-53611544D01*
X51737188Y-53543624D01*
X51886488Y-53513927D01*
X51911258Y-53509000D01*
X52088742Y-53509000D01*
X52113512Y-53513927D01*
G37*
G36*
X77513512Y-53513927D02*
G01*
X77662812Y-53543624D01*
X77826784Y-53611544D01*
X77974354Y-53710147D01*
X78099853Y-53835646D01*
X78198456Y-53983216D01*
X78266376Y-54147188D01*
X78301000Y-54321259D01*
X78301000Y-54498741D01*
X78266376Y-54672812D01*
X78198456Y-54836784D01*
X78099853Y-54984354D01*
X77974354Y-55109853D01*
X77826784Y-55208456D01*
X77662812Y-55276376D01*
X77513512Y-55306073D01*
X77488742Y-55311000D01*
X77311258Y-55311000D01*
X77286488Y-55306073D01*
X77137188Y-55276376D01*
X76973216Y-55208456D01*
X76825646Y-55109853D01*
X76700147Y-54984354D01*
X76601544Y-54836784D01*
X76533624Y-54672812D01*
X76499000Y-54498741D01*
X76499000Y-54321259D01*
X76533624Y-54147188D01*
X76601544Y-53983216D01*
X76700147Y-53835646D01*
X76825646Y-53710147D01*
X76973216Y-53611544D01*
X77137188Y-53543624D01*
X77286488Y-53513927D01*
X77311258Y-53509000D01*
X77488742Y-53509000D01*
X77513512Y-53513927D01*
G37*
G36*
X74973512Y-53513927D02*
G01*
X75122812Y-53543624D01*
X75286784Y-53611544D01*
X75434354Y-53710147D01*
X75559853Y-53835646D01*
X75658456Y-53983216D01*
X75726376Y-54147188D01*
X75761000Y-54321259D01*
X75761000Y-54498741D01*
X75726376Y-54672812D01*
X75658456Y-54836784D01*
X75559853Y-54984354D01*
X75434354Y-55109853D01*
X75286784Y-55208456D01*
X75122812Y-55276376D01*
X74973512Y-55306073D01*
X74948742Y-55311000D01*
X74771258Y-55311000D01*
X74746488Y-55306073D01*
X74597188Y-55276376D01*
X74433216Y-55208456D01*
X74285646Y-55109853D01*
X74160147Y-54984354D01*
X74061544Y-54836784D01*
X73993624Y-54672812D01*
X73959000Y-54498741D01*
X73959000Y-54321259D01*
X73993624Y-54147188D01*
X74061544Y-53983216D01*
X74160147Y-53835646D01*
X74285646Y-53710147D01*
X74433216Y-53611544D01*
X74597188Y-53543624D01*
X74746488Y-53513927D01*
X74771258Y-53509000D01*
X74948742Y-53509000D01*
X74973512Y-53513927D01*
G37*
G36*
X78301000Y-52771000D02*
G01*
X76499000Y-52771000D01*
X76499000Y-50969000D01*
X78301000Y-50969000D01*
X78301000Y-52771000D01*
G37*
G36*
X75761000Y-52771000D02*
G01*
X73959000Y-52771000D01*
X73959000Y-50969000D01*
X75761000Y-50969000D01*
X75761000Y-52771000D01*
G37*
G36*
X52901000Y-52771000D02*
G01*
X51099000Y-52771000D01*
X51099000Y-50969000D01*
X52901000Y-50969000D01*
X52901000Y-52771000D01*
G37*
M02*
