<?xml version="1.0" standalone="no"?>
 <!DOCTYPE svg PUBLIC "-//W3C//DTD SVG 1.1//EN" 
 "http://www.w3.org/Graphics/SVG/1.1/DTD/svg11.dtd"> 
<svg xmlns="http://www.w3.org/2000/svg" version="1.1" 
    width="29.7002cm" height="21.0007cm" viewBox="0 0 116930 82680 ">
<title>SVG Picture created as SA818_BREAKOUT-B_Mask.svg date 2022/04/09 21:58:40 </title>
  <desc>Picture generated by PCBNEW </desc>
<g style="fill:#000000; fill-opacity:1;stroke:#000000; stroke-opacity:1;
stroke-linecap:round; stroke-linejoin:round; "
 transform="translate(0 0) scale(1 1)">
</g>
<g style="fill:#000000; fill-opacity:0.0; 
stroke:#000000; stroke-width:-0.000393701; stroke-opacity:1; 
stroke-linecap:round; stroke-linejoin:round;">
</g>
<g style="fill:#000000; fill-opacity:0.0; 
stroke:#000000; stroke-width:19.685; stroke-opacity:1; 
stroke-linecap:round; stroke-linejoin:round;">
<path d="M53543 39370
L53543 58370
" />
<path d="M39370 58370
L53543 58370
" />
<path d="M39370 39370
L39370 58370
" />
<path d="M39370 39370
L53543 39370
" />
</g>
<g style="fill:#000000; fill-opacity:1.0; 
stroke:#000000; stroke-width:0; stroke-opacity:1; 
stroke-linecap:round; stroke-linejoin:round;">
<path style="fill:#000000; fill-opacity:1.0; 
stroke:#000000; stroke-width:0; stroke-opacity:1; 
stroke-linecap:round; stroke-linejoin:round;fill-rule:evenodd;"
d="M 40194.7,52517.3
40253.5,52529
40318,52555.7
40376.1,52594.5
40425.5,52644
40464.4,52702.1
40491.1,52766.6
40504.7,52835.1
40504.7,52905
40491.1,52973.5
40464.4,53038.1
40425.5,53096.2
40376.1,53145.6
40318,53184.4
40253.5,53211.2
40194.7,53222.9
40184.9,53224.8
40115.1,53224.8
40105.3,53222.9
40046.5,53211.2
39982,53184.4
39923.9,53145.6
39874.5,53096.2
39835.6,53038.1
39808.9,52973.5
39795.3,52905
39795.3,52835.1
39808.9,52766.6
39835.6,52702.1
39874.5,52644
39923.9,52594.5
39982,52555.7
40046.5,52529
40105.3,52517.3
40115.1,52515.4
40184.9,52515.4
Z" /> 
<path style="fill:#000000; fill-opacity:1.0; 
stroke:#000000; stroke-width:0; stroke-opacity:1; 
stroke-linecap:round; stroke-linejoin:round;fill-rule:evenodd;"
d="M 52194.7,52517.3
52253.5,52529
52318,52555.7
52376.1,52594.5
52425.5,52644
52464.4,52702.1
52491.1,52766.6
52504.7,52835.1
52504.7,52905
52491.1,52973.5
52464.4,53038.1
52425.5,53096.2
52376.1,53145.6
52318,53184.4
52253.5,53211.2
52194.7,53222.9
52184.9,53224.8
52115.1,53224.8
52105.3,53222.9
52046.5,53211.2
51982,53184.4
51923.9,53145.6
51874.5,53096.2
51835.6,53038.1
51808.9,52973.5
51795.3,52905
51795.3,52835.1
51808.9,52766.6
51835.6,52702.1
51874.5,52644
51923.9,52594.5
51982,52555.7
52046.5,52529
52105.3,52517.3
52115.1,52515.4
52184.9,52515.4
Z" /> 
<path style="fill:#000000; fill-opacity:1.0; 
stroke:#000000; stroke-width:0; stroke-opacity:1; 
stroke-linecap:round; stroke-linejoin:round;fill-rule:evenodd;"
d="M 51194.7,52517.3
51253.5,52529
51318,52555.7
51376.1,52594.5
51425.5,52644
51464.4,52702.1
51491.1,52766.6
51504.7,52835.1
51504.7,52905
51491.1,52973.5
51464.4,53038.1
51425.5,53096.2
51376.1,53145.6
51318,53184.4
51253.5,53211.2
51194.7,53222.9
51184.9,53224.8
51115.1,53224.8
51105.3,53222.9
51046.5,53211.2
50982,53184.4
50923.9,53145.6
50874.5,53096.2
50835.6,53038.1
50808.9,52973.5
50795.3,52905
50795.3,52835.1
50808.9,52766.6
50835.6,52702.1
50874.5,52644
50923.9,52594.5
50982,52555.7
51046.5,52529
51105.3,52517.3
51115.1,52515.4
51184.9,52515.4
Z" /> 
<path style="fill:#000000; fill-opacity:1.0; 
stroke:#000000; stroke-width:0; stroke-opacity:1; 
stroke-linecap:round; stroke-linejoin:round;fill-rule:evenodd;"
d="M 40194.7,51517.3
40253.5,51529
40318,51555.7
40376.1,51594.5
40425.5,51644
40464.4,51702.1
40491.1,51766.6
40504.7,51835.1
40504.7,51905
40491.1,51973.5
40464.4,52038.1
40425.5,52096.2
40376.1,52145.6
40318,52184.4
40253.5,52211.2
40194.7,52222.9
40184.9,52224.8
40115.1,52224.8
40105.3,52222.9
40046.5,52211.2
39982,52184.4
39923.9,52145.6
39874.5,52096.2
39835.6,52038.1
39808.9,51973.5
39795.3,51905
39795.3,51835.1
39808.9,51766.6
39835.6,51702.1
39874.5,51644
39923.9,51594.5
39982,51555.7
40046.5,51529
40105.3,51517.3
40115.1,51515.4
40184.9,51515.4
Z" /> 
<path style="fill:#000000; fill-opacity:1.0; 
stroke:#000000; stroke-width:0; stroke-opacity:1; 
stroke-linecap:round; stroke-linejoin:round;fill-rule:evenodd;"
d="M 51194.7,51517.3
51253.5,51529
51318,51555.7
51376.1,51594.5
51425.5,51644
51464.4,51702.1
51491.1,51766.6
51504.7,51835.1
51504.7,51905
51491.1,51973.5
51464.4,52038.1
51425.5,52096.2
51376.1,52145.6
51318,52184.4
51253.5,52211.2
51194.7,52222.9
51184.9,52224.8
51115.1,52224.8
51105.3,52222.9
51046.5,52211.2
50982,52184.4
50923.9,52145.6
50874.5,52096.2
50835.6,52038.1
50808.9,51973.5
50795.3,51905
50795.3,51835.1
50808.9,51766.6
50835.6,51702.1
50874.5,51644
50923.9,51594.5
50982,51555.7
51046.5,51529
51105.3,51517.3
51115.1,51515.4
51184.9,51515.4
Z" /> 
<path style="fill:#000000; fill-opacity:1.0; 
stroke:#000000; stroke-width:0; stroke-opacity:1; 
stroke-linecap:round; stroke-linejoin:round;fill-rule:evenodd;"
d="M 52194.7,51517.3
52253.5,51529
52318,51555.7
52376.1,51594.5
52425.5,51644
52464.4,51702.1
52491.1,51766.6
52504.7,51835.1
52504.7,51905
52491.1,51973.5
52464.4,52038.1
52425.5,52096.2
52376.1,52145.6
52318,52184.4
52253.5,52211.2
52194.7,52222.9
52184.9,52224.8
52115.1,52224.8
52105.3,52222.9
52046.5,52211.2
51982,52184.4
51923.9,52145.6
51874.5,52096.2
51835.6,52038.1
51808.9,51973.5
51795.3,51905
51795.3,51835.1
51808.9,51766.6
51835.6,51702.1
51874.5,51644
51923.9,51594.5
51982,51555.7
52046.5,51529
52105.3,51517.3
52115.1,51515.4
52184.9,51515.4
Z" /> 
<path style="fill:#000000; fill-opacity:1.0; 
stroke:#000000; stroke-width:0; stroke-opacity:1; 
stroke-linecap:round; stroke-linejoin:round;fill-rule:evenodd;"
d="M 40194.7,50517.3
40253.5,50529
40318,50555.7
40376.1,50594.5
40425.5,50644
40464.4,50702.1
40491.1,50766.6
40504.7,50835.1
40504.7,50905
40491.1,50973.5
40464.4,51038.1
40425.5,51096.2
40376.1,51145.6
40318,51184.4
40253.5,51211.2
40194.7,51222.9
40184.9,51224.8
40115.1,51224.8
40105.3,51222.9
40046.5,51211.2
39982,51184.4
39923.9,51145.6
39874.5,51096.2
39835.6,51038.1
39808.9,50973.5
39795.3,50905
39795.3,50835.1
39808.9,50766.6
39835.6,50702.1
39874.5,50644
39923.9,50594.5
39982,50555.7
40046.5,50529
40105.3,50517.3
40115.1,50515.4
40184.9,50515.4
Z" /> 
<path style="fill:#000000; fill-opacity:1.0; 
stroke:#000000; stroke-width:0; stroke-opacity:1; 
stroke-linecap:round; stroke-linejoin:round;fill-rule:evenodd;"
d="M 52194.7,50517.3
52253.5,50529
52318,50555.7
52376.1,50594.5
52425.5,50644
52464.4,50702.1
52491.1,50766.6
52504.7,50835.1
52504.7,50905
52491.1,50973.5
52464.4,51038.1
52425.5,51096.2
52376.1,51145.6
52318,51184.4
52253.5,51211.2
52194.7,51222.9
52184.9,51224.8
52115.1,51224.8
52105.3,51222.9
52046.5,51211.2
51982,51184.4
51923.9,51145.6
51874.5,51096.2
51835.6,51038.1
51808.9,50973.5
51795.3,50905
51795.3,50835.1
51808.9,50766.6
51835.6,50702.1
51874.5,50644
51923.9,50594.5
51982,50555.7
52046.5,50529
52105.3,50517.3
52115.1,50515.4
52184.9,50515.4
Z" /> 
<path style="fill:#000000; fill-opacity:1.0; 
stroke:#000000; stroke-width:0; stroke-opacity:1; 
stroke-linecap:round; stroke-linejoin:round;fill-rule:evenodd;"
d="M 51194.7,50517.3
51253.5,50529
51318,50555.7
51376.1,50594.5
51425.5,50644
51464.4,50702.1
51491.1,50766.6
51504.7,50835.1
51504.7,50905
51491.1,50973.5
51464.4,51038.1
51425.5,51096.2
51376.1,51145.6
51318,51184.4
51253.5,51211.2
51194.7,51222.9
51184.9,51224.8
51115.1,51224.8
51105.3,51222.9
51046.5,51211.2
50982,51184.4
50923.9,51145.6
50874.5,51096.2
50835.6,51038.1
50808.9,50973.5
50795.3,50905
50795.3,50835.1
50808.9,50766.6
50835.6,50702.1
50874.5,50644
50923.9,50594.5
50982,50555.7
51046.5,50529
51105.3,50517.3
51115.1,50515.4
51184.9,50515.4
Z" /> 
<path style="fill:#000000; fill-opacity:1.0; 
stroke:#000000; stroke-width:0; stroke-opacity:1; 
stroke-linecap:round; stroke-linejoin:round;fill-rule:evenodd;"
d="M 40194.7,49517.3
40253.5,49529
40318,49555.7
40376.1,49594.5
40425.5,49644
40464.4,49702.1
40491.1,49766.6
40504.7,49835.1
40504.7,49905
40491.1,49973.5
40464.4,50038.1
40425.5,50096.2
40376.1,50145.6
40318,50184.4
40253.5,50211.2
40194.7,50222.9
40184.9,50224.8
40115.1,50224.8
40105.3,50222.9
40046.5,50211.2
39982,50184.4
39923.9,50145.6
39874.5,50096.2
39835.6,50038.1
39808.9,49973.5
39795.3,49905
39795.3,49835.1
39808.9,49766.6
39835.6,49702.1
39874.5,49644
39923.9,49594.5
39982,49555.7
40046.5,49529
40105.3,49517.3
40115.1,49515.4
40184.9,49515.4
Z" /> 
<path style="fill:#000000; fill-opacity:1.0; 
stroke:#000000; stroke-width:0; stroke-opacity:1; 
stroke-linecap:round; stroke-linejoin:round;fill-rule:evenodd;"
d="M 51194.7,49517.3
51253.5,49529
51318,49555.7
51376.1,49594.5
51425.5,49644
51464.4,49702.1
51491.1,49766.6
51504.7,49835.1
51504.7,49905
51491.1,49973.5
51464.4,50038.1
51425.5,50096.2
51376.1,50145.6
51318,50184.4
51253.5,50211.2
51194.7,50222.9
51184.9,50224.8
51115.1,50224.8
51105.3,50222.9
51046.5,50211.2
50982,50184.4
50923.9,50145.6
50874.5,50096.2
50835.6,50038.1
50808.9,49973.5
50795.3,49905
50795.3,49835.1
50808.9,49766.6
50835.6,49702.1
50874.5,49644
50923.9,49594.5
50982,49555.7
51046.5,49529
51105.3,49517.3
51115.1,49515.4
51184.9,49515.4
Z" /> 
<path style="fill:#000000; fill-opacity:1.0; 
stroke:#000000; stroke-width:0; stroke-opacity:1; 
stroke-linecap:round; stroke-linejoin:round;fill-rule:evenodd;"
d="M 52194.7,49517.3
52253.5,49529
52318,49555.7
52376.1,49594.5
52425.5,49644
52464.4,49702.1
52491.1,49766.6
52504.7,49835.1
52504.7,49905
52491.1,49973.5
52464.4,50038.1
52425.5,50096.2
52376.1,50145.6
52318,50184.4
52253.5,50211.2
52194.7,50222.9
52184.9,50224.8
52115.1,50224.8
52105.3,50222.9
52046.5,50211.2
51982,50184.4
51923.9,50145.6
51874.5,50096.2
51835.6,50038.1
51808.9,49973.5
51795.3,49905
51795.3,49835.1
51808.9,49766.6
51835.6,49702.1
51874.5,49644
51923.9,49594.5
51982,49555.7
52046.5,49529
52105.3,49517.3
52115.1,49515.4
52184.9,49515.4
Z" /> 
<path style="fill:#000000; fill-opacity:1.0; 
stroke:#000000; stroke-width:0; stroke-opacity:1; 
stroke-linecap:round; stroke-linejoin:round;fill-rule:evenodd;"
d="M 51194.7,48517.3
51253.5,48529
51318,48555.7
51376.1,48594.5
51425.5,48644
51464.4,48702.1
51491.1,48766.6
51504.7,48835.1
51504.7,48905
51491.1,48973.5
51464.4,49038.1
51425.5,49096.2
51376.1,49145.6
51318,49184.4
51253.5,49211.2
51194.7,49222.9
51184.9,49224.8
51115.1,49224.8
51105.3,49222.9
51046.5,49211.2
50982,49184.4
50923.9,49145.6
50874.5,49096.2
50835.6,49038.1
50808.9,48973.5
50795.3,48905
50795.3,48835.1
50808.9,48766.6
50835.6,48702.1
50874.5,48644
50923.9,48594.5
50982,48555.7
51046.5,48529
51105.3,48517.3
51115.1,48515.4
51184.9,48515.4
Z" /> 
<path style="fill:#000000; fill-opacity:1.0; 
stroke:#000000; stroke-width:0; stroke-opacity:1; 
stroke-linecap:round; stroke-linejoin:round;fill-rule:evenodd;"
d="M 40194.7,48517.3
40253.5,48529
40318,48555.7
40376.1,48594.5
40425.5,48644
40464.4,48702.1
40491.1,48766.6
40504.7,48835.1
40504.7,48905
40491.1,48973.5
40464.4,49038.1
40425.5,49096.2
40376.1,49145.6
40318,49184.4
40253.5,49211.2
40194.7,49222.9
40184.9,49224.8
40115.1,49224.8
40105.3,49222.9
40046.5,49211.2
39982,49184.4
39923.9,49145.6
39874.5,49096.2
39835.6,49038.1
39808.9,48973.5
39795.3,48905
39795.3,48835.1
39808.9,48766.6
39835.6,48702.1
39874.5,48644
39923.9,48594.5
39982,48555.7
40046.5,48529
40105.3,48517.3
40115.1,48515.4
40184.9,48515.4
Z" /> 
<path style="fill:#000000; fill-opacity:1.0; 
stroke:#000000; stroke-width:0; stroke-opacity:1; 
stroke-linecap:round; stroke-linejoin:round;fill-rule:evenodd;"
d="M 52194.7,48517.3
52253.5,48529
52318,48555.7
52376.1,48594.5
52425.5,48644
52464.4,48702.1
52491.1,48766.6
52504.7,48835.1
52504.7,48905
52491.1,48973.5
52464.4,49038.1
52425.5,49096.2
52376.1,49145.6
52318,49184.4
52253.5,49211.2
52194.7,49222.9
52184.9,49224.8
52115.1,49224.8
52105.3,49222.9
52046.5,49211.2
51982,49184.4
51923.9,49145.6
51874.5,49096.2
51835.6,49038.1
51808.9,48973.5
51795.3,48905
51795.3,48835.1
51808.9,48766.6
51835.6,48702.1
51874.5,48644
51923.9,48594.5
51982,48555.7
52046.5,48529
52105.3,48517.3
52115.1,48515.4
52184.9,48515.4
Z" /> 
<path style="fill:#000000; fill-opacity:1.0; 
stroke:#000000; stroke-width:0; stroke-opacity:1; 
stroke-linecap:round; stroke-linejoin:round;fill-rule:evenodd;"
d="M 52194.7,47517.3
52253.5,47529
52318,47555.7
52376.1,47594.5
52425.5,47644
52464.4,47702.1
52491.1,47766.6
52504.7,47835.1
52504.7,47905
52491.1,47973.5
52464.4,48038.1
52425.5,48096.2
52376.1,48145.6
52318,48184.4
52253.5,48211.2
52194.7,48222.9
52184.9,48224.8
52115.1,48224.8
52105.3,48222.9
52046.5,48211.2
51982,48184.4
51923.9,48145.6
51874.5,48096.2
51835.6,48038.1
51808.9,47973.5
51795.3,47905
51795.3,47835.1
51808.9,47766.6
51835.6,47702.1
51874.5,47644
51923.9,47594.5
51982,47555.7
52046.5,47529
52105.3,47517.3
52115.1,47515.4
52184.9,47515.4
Z" /> 
<path style="fill:#000000; fill-opacity:1.0; 
stroke:#000000; stroke-width:0; stroke-opacity:1; 
stroke-linecap:round; stroke-linejoin:round;fill-rule:evenodd;"
d="M 51194.7,47517.3
51253.5,47529
51318,47555.7
51376.1,47594.5
51425.5,47644
51464.4,47702.1
51491.1,47766.6
51504.7,47835.1
51504.7,47905
51491.1,47973.5
51464.4,48038.1
51425.5,48096.2
51376.1,48145.6
51318,48184.4
51253.5,48211.2
51194.7,48222.9
51184.9,48224.8
51115.1,48224.8
51105.3,48222.9
51046.5,48211.2
50982,48184.4
50923.9,48145.6
50874.5,48096.2
50835.6,48038.1
50808.9,47973.5
50795.3,47905
50795.3,47835.1
50808.9,47766.6
50835.6,47702.1
50874.5,47644
50923.9,47594.5
50982,47555.7
51046.5,47529
51105.3,47517.3
51115.1,47515.4
51184.9,47515.4
Z" /> 
<path style="fill:#000000; fill-opacity:1.0; 
stroke:#000000; stroke-width:0; stroke-opacity:1; 
stroke-linecap:round; stroke-linejoin:round;fill-rule:evenodd;"
d="M 40194.7,47517.3
40253.5,47529
40318,47555.7
40376.1,47594.5
40425.5,47644
40464.4,47702.1
40491.1,47766.6
40504.7,47835.1
40504.7,47905
40491.1,47973.5
40464.4,48038.1
40425.5,48096.2
40376.1,48145.6
40318,48184.4
40253.5,48211.2
40194.7,48222.9
40184.9,48224.8
40115.1,48224.8
40105.3,48222.9
40046.5,48211.2
39982,48184.4
39923.9,48145.6
39874.5,48096.2
39835.6,48038.1
39808.9,47973.5
39795.3,47905
39795.3,47835.1
39808.9,47766.6
39835.6,47702.1
39874.5,47644
39923.9,47594.5
39982,47555.7
40046.5,47529
40105.3,47517.3
40115.1,47515.4
40184.9,47515.4
Z" /> 
<path style="fill:#000000; fill-opacity:1.0; 
stroke:#000000; stroke-width:0; stroke-opacity:1; 
stroke-linecap:round; stroke-linejoin:round;fill-rule:evenodd;"
d="M 52194.7,46517.3
52253.5,46529
52318,46555.7
52376.1,46594.5
52425.5,46644
52464.4,46702.1
52491.1,46766.6
52504.7,46835.1
52504.7,46905
52491.1,46973.5
52464.4,47038.1
52425.5,47096.2
52376.1,47145.6
52318,47184.4
52253.5,47211.2
52194.7,47222.9
52184.9,47224.8
52115.1,47224.8
52105.3,47222.9
52046.5,47211.2
51982,47184.4
51923.9,47145.6
51874.5,47096.2
51835.6,47038.1
51808.9,46973.5
51795.3,46905
51795.3,46835.1
51808.9,46766.6
51835.6,46702.1
51874.5,46644
51923.9,46594.5
51982,46555.7
52046.5,46529
52105.3,46517.3
52115.1,46515.4
52184.9,46515.4
Z" /> 
<path style="fill:#000000; fill-opacity:1.0; 
stroke:#000000; stroke-width:0; stroke-opacity:1; 
stroke-linecap:round; stroke-linejoin:round;fill-rule:evenodd;"
d="M 40194.7,46517.3
40253.5,46529
40318,46555.7
40376.1,46594.5
40425.5,46644
40464.4,46702.1
40491.1,46766.6
40504.7,46835.1
40504.7,46905
40491.1,46973.5
40464.4,47038.1
40425.5,47096.2
40376.1,47145.6
40318,47184.4
40253.5,47211.2
40194.7,47222.9
40184.9,47224.8
40115.1,47224.8
40105.3,47222.9
40046.5,47211.2
39982,47184.4
39923.9,47145.6
39874.5,47096.2
39835.6,47038.1
39808.9,46973.5
39795.3,46905
39795.3,46835.1
39808.9,46766.6
39835.6,46702.1
39874.5,46644
39923.9,46594.5
39982,46555.7
40046.5,46529
40105.3,46517.3
40115.1,46515.4
40184.9,46515.4
Z" /> 
<path style="fill:#000000; fill-opacity:1.0; 
stroke:#000000; stroke-width:0; stroke-opacity:1; 
stroke-linecap:round; stroke-linejoin:round;fill-rule:evenodd;"
d="M 51194.7,46517.3
51253.5,46529
51318,46555.7
51376.1,46594.5
51425.5,46644
51464.4,46702.1
51491.1,46766.6
51504.7,46835.1
51504.7,46905
51491.1,46973.5
51464.4,47038.1
51425.5,47096.2
51376.1,47145.6
51318,47184.4
51253.5,47211.2
51194.7,47222.9
51184.9,47224.8
51115.1,47224.8
51105.3,47222.9
51046.5,47211.2
50982,47184.4
50923.9,47145.6
50874.5,47096.2
50835.6,47038.1
50808.9,46973.5
50795.3,46905
50795.3,46835.1
50808.9,46766.6
50835.6,46702.1
50874.5,46644
50923.9,46594.5
50982,46555.7
51046.5,46529
51105.3,46517.3
51115.1,46515.4
51184.9,46515.4
Z" /> 
<path style="fill:#000000; fill-opacity:1.0; 
stroke:#000000; stroke-width:0; stroke-opacity:1; 
stroke-linecap:round; stroke-linejoin:round;fill-rule:evenodd;"
d="M 52194.7,45517.3
52253.5,45529
52318,45555.7
52376.1,45594.5
52425.5,45644
52464.4,45702.1
52491.1,45766.6
52504.7,45835.1
52504.7,45905
52491.1,45973.5
52464.4,46038.1
52425.5,46096.2
52376.1,46145.6
52318,46184.4
52253.5,46211.2
52194.7,46222.9
52184.9,46224.8
52115.1,46224.8
52105.3,46222.9
52046.5,46211.2
51982,46184.4
51923.9,46145.6
51874.5,46096.2
51835.6,46038.1
51808.9,45973.5
51795.3,45905
51795.3,45835.1
51808.9,45766.6
51835.6,45702.1
51874.5,45644
51923.9,45594.5
51982,45555.7
52046.5,45529
52105.3,45517.3
52115.1,45515.4
52184.9,45515.4
Z" /> 
<path style="fill:#000000; fill-opacity:1.0; 
stroke:#000000; stroke-width:0; stroke-opacity:1; 
stroke-linecap:round; stroke-linejoin:round;fill-rule:evenodd;"
d="M 51194.7,45517.3
51253.5,45529
51318,45555.7
51376.1,45594.5
51425.5,45644
51464.4,45702.1
51491.1,45766.6
51504.7,45835.1
51504.7,45905
51491.1,45973.5
51464.4,46038.1
51425.5,46096.2
51376.1,46145.6
51318,46184.4
51253.5,46211.2
51194.7,46222.9
51184.9,46224.8
51115.1,46224.8
51105.3,46222.9
51046.5,46211.2
50982,46184.4
50923.9,46145.6
50874.5,46096.2
50835.6,46038.1
50808.9,45973.5
50795.3,45905
50795.3,45835.1
50808.9,45766.6
50835.6,45702.1
50874.5,45644
50923.9,45594.5
50982,45555.7
51046.5,45529
51105.3,45517.3
51115.1,45515.4
51184.9,45515.4
Z" /> 
<path style="fill:#000000; fill-opacity:1.0; 
stroke:#000000; stroke-width:0; stroke-opacity:1; 
stroke-linecap:round; stroke-linejoin:round;fill-rule:evenodd;"
d="M 40194.7,45517.3
40253.5,45529
40318,45555.7
40376.1,45594.5
40425.5,45644
40464.4,45702.1
40491.1,45766.6
40504.7,45835.1
40504.7,45905
40491.1,45973.5
40464.4,46038.1
40425.5,46096.2
40376.1,46145.6
40318,46184.4
40253.5,46211.2
40194.7,46222.9
40184.9,46224.8
40115.1,46224.8
40105.3,46222.9
40046.5,46211.2
39982,46184.4
39923.9,46145.6
39874.5,46096.2
39835.6,46038.1
39808.9,45973.5
39795.3,45905
39795.3,45835.1
39808.9,45766.6
39835.6,45702.1
39874.5,45644
39923.9,45594.5
39982,45555.7
40046.5,45529
40105.3,45517.3
40115.1,45515.4
40184.9,45515.4
Z" /> 
<path style="fill:#000000; fill-opacity:1.0; 
stroke:#000000; stroke-width:0; stroke-opacity:1; 
stroke-linecap:round; stroke-linejoin:round;fill-rule:evenodd;"
d="M 40504.7,45224.8
39795.3,45224.8
39795.3,44515.4
40504.7,44515.4
Z" /> 
<path style="fill:#000000; fill-opacity:1.0; 
stroke:#000000; stroke-width:0; stroke-opacity:1; 
stroke-linecap:round; stroke-linejoin:round;fill-rule:evenodd;"
d="M 51504.7,45224.8
50795.3,45224.8
50795.3,44515.4
51504.7,44515.4
Z" /> 
<path style="fill:#000000; fill-opacity:1.0; 
stroke:#000000; stroke-width:0; stroke-opacity:1; 
stroke-linecap:round; stroke-linejoin:round;fill-rule:evenodd;"
d="M 52194.7,44517.3
52253.5,44529
52318,44555.7
52376.1,44594.5
52425.5,44644
52464.4,44702.1
52491.1,44766.6
52504.7,44835.1
52504.7,44905
52491.1,44973.5
52464.4,45038.1
52425.5,45096.2
52376.1,45145.6
52318,45184.4
52253.5,45211.2
52194.7,45222.9
52184.9,45224.8
52115.1,45224.8
52105.3,45222.9
52046.5,45211.2
51982,45184.4
51923.9,45145.6
51874.5,45096.2
51835.6,45038.1
51808.9,44973.5
51795.3,44905
51795.3,44835.1
51808.9,44766.6
51835.6,44702.1
51874.5,44644
51923.9,44594.5
51982,44555.7
52046.5,44529
52105.3,44517.3
52115.1,44515.4
52184.9,44515.4
Z" /> 
</g> 
</svg>
