G04 #@! TF.GenerationSoftware,KiCad,Pcbnew,5.1.5+dfsg1-2build2*
G04 #@! TF.CreationDate,2021-10-04T21:53:14-05:00*
G04 #@! TF.ProjectId,SA818_DIL,53413831-385f-4444-994c-2e6b69636164,rev?*
G04 #@! TF.SameCoordinates,Original*
G04 #@! TF.FileFunction,Soldermask,Bot*
G04 #@! TF.FilePolarity,Negative*
%FSLAX46Y46*%
G04 Gerber Fmt 4.6, Leading zero omitted, Abs format (unit mm)*
G04 Created by KiCad (PCBNEW 5.1.5+dfsg1-2build2) date 2021-10-04 21:53:14*
%MOMM*%
%LPD*%
G04 APERTURE LIST*
%ADD10C,0.100000*%
G04 APERTURE END LIST*
D10*
G36*
X102094512Y-133393927D02*
G01*
X102243812Y-133423624D01*
X102407784Y-133491544D01*
X102555354Y-133590147D01*
X102680853Y-133715646D01*
X102779456Y-133863216D01*
X102847376Y-134027188D01*
X102882000Y-134201259D01*
X102882000Y-134378741D01*
X102847376Y-134552812D01*
X102779456Y-134716784D01*
X102680853Y-134864354D01*
X102555354Y-134989853D01*
X102407784Y-135088456D01*
X102243812Y-135156376D01*
X102094512Y-135186073D01*
X102069742Y-135191000D01*
X101892258Y-135191000D01*
X101867488Y-135186073D01*
X101718188Y-135156376D01*
X101554216Y-135088456D01*
X101406646Y-134989853D01*
X101281147Y-134864354D01*
X101182544Y-134716784D01*
X101114624Y-134552812D01*
X101080000Y-134378741D01*
X101080000Y-134201259D01*
X101114624Y-134027188D01*
X101182544Y-133863216D01*
X101281147Y-133715646D01*
X101406646Y-133590147D01*
X101554216Y-133491544D01*
X101718188Y-133423624D01*
X101867488Y-133393927D01*
X101892258Y-133389000D01*
X102069742Y-133389000D01*
X102094512Y-133393927D01*
G37*
G36*
X132574512Y-133393927D02*
G01*
X132723812Y-133423624D01*
X132887784Y-133491544D01*
X133035354Y-133590147D01*
X133160853Y-133715646D01*
X133259456Y-133863216D01*
X133327376Y-134027188D01*
X133362000Y-134201259D01*
X133362000Y-134378741D01*
X133327376Y-134552812D01*
X133259456Y-134716784D01*
X133160853Y-134864354D01*
X133035354Y-134989853D01*
X132887784Y-135088456D01*
X132723812Y-135156376D01*
X132574512Y-135186073D01*
X132549742Y-135191000D01*
X132372258Y-135191000D01*
X132347488Y-135186073D01*
X132198188Y-135156376D01*
X132034216Y-135088456D01*
X131886646Y-134989853D01*
X131761147Y-134864354D01*
X131662544Y-134716784D01*
X131594624Y-134552812D01*
X131560000Y-134378741D01*
X131560000Y-134201259D01*
X131594624Y-134027188D01*
X131662544Y-133863216D01*
X131761147Y-133715646D01*
X131886646Y-133590147D01*
X132034216Y-133491544D01*
X132198188Y-133423624D01*
X132347488Y-133393927D01*
X132372258Y-133389000D01*
X132549742Y-133389000D01*
X132574512Y-133393927D01*
G37*
G36*
X130034512Y-133393927D02*
G01*
X130183812Y-133423624D01*
X130347784Y-133491544D01*
X130495354Y-133590147D01*
X130620853Y-133715646D01*
X130719456Y-133863216D01*
X130787376Y-134027188D01*
X130822000Y-134201259D01*
X130822000Y-134378741D01*
X130787376Y-134552812D01*
X130719456Y-134716784D01*
X130620853Y-134864354D01*
X130495354Y-134989853D01*
X130347784Y-135088456D01*
X130183812Y-135156376D01*
X130034512Y-135186073D01*
X130009742Y-135191000D01*
X129832258Y-135191000D01*
X129807488Y-135186073D01*
X129658188Y-135156376D01*
X129494216Y-135088456D01*
X129346646Y-134989853D01*
X129221147Y-134864354D01*
X129122544Y-134716784D01*
X129054624Y-134552812D01*
X129020000Y-134378741D01*
X129020000Y-134201259D01*
X129054624Y-134027188D01*
X129122544Y-133863216D01*
X129221147Y-133715646D01*
X129346646Y-133590147D01*
X129494216Y-133491544D01*
X129658188Y-133423624D01*
X129807488Y-133393927D01*
X129832258Y-133389000D01*
X130009742Y-133389000D01*
X130034512Y-133393927D01*
G37*
G36*
X102094512Y-130853927D02*
G01*
X102243812Y-130883624D01*
X102407784Y-130951544D01*
X102555354Y-131050147D01*
X102680853Y-131175646D01*
X102779456Y-131323216D01*
X102847376Y-131487188D01*
X102882000Y-131661259D01*
X102882000Y-131838741D01*
X102847376Y-132012812D01*
X102779456Y-132176784D01*
X102680853Y-132324354D01*
X102555354Y-132449853D01*
X102407784Y-132548456D01*
X102243812Y-132616376D01*
X102094512Y-132646073D01*
X102069742Y-132651000D01*
X101892258Y-132651000D01*
X101867488Y-132646073D01*
X101718188Y-132616376D01*
X101554216Y-132548456D01*
X101406646Y-132449853D01*
X101281147Y-132324354D01*
X101182544Y-132176784D01*
X101114624Y-132012812D01*
X101080000Y-131838741D01*
X101080000Y-131661259D01*
X101114624Y-131487188D01*
X101182544Y-131323216D01*
X101281147Y-131175646D01*
X101406646Y-131050147D01*
X101554216Y-130951544D01*
X101718188Y-130883624D01*
X101867488Y-130853927D01*
X101892258Y-130849000D01*
X102069742Y-130849000D01*
X102094512Y-130853927D01*
G37*
G36*
X130034512Y-130853927D02*
G01*
X130183812Y-130883624D01*
X130347784Y-130951544D01*
X130495354Y-131050147D01*
X130620853Y-131175646D01*
X130719456Y-131323216D01*
X130787376Y-131487188D01*
X130822000Y-131661259D01*
X130822000Y-131838741D01*
X130787376Y-132012812D01*
X130719456Y-132176784D01*
X130620853Y-132324354D01*
X130495354Y-132449853D01*
X130347784Y-132548456D01*
X130183812Y-132616376D01*
X130034512Y-132646073D01*
X130009742Y-132651000D01*
X129832258Y-132651000D01*
X129807488Y-132646073D01*
X129658188Y-132616376D01*
X129494216Y-132548456D01*
X129346646Y-132449853D01*
X129221147Y-132324354D01*
X129122544Y-132176784D01*
X129054624Y-132012812D01*
X129020000Y-131838741D01*
X129020000Y-131661259D01*
X129054624Y-131487188D01*
X129122544Y-131323216D01*
X129221147Y-131175646D01*
X129346646Y-131050147D01*
X129494216Y-130951544D01*
X129658188Y-130883624D01*
X129807488Y-130853927D01*
X129832258Y-130849000D01*
X130009742Y-130849000D01*
X130034512Y-130853927D01*
G37*
G36*
X132574512Y-130853927D02*
G01*
X132723812Y-130883624D01*
X132887784Y-130951544D01*
X133035354Y-131050147D01*
X133160853Y-131175646D01*
X133259456Y-131323216D01*
X133327376Y-131487188D01*
X133362000Y-131661259D01*
X133362000Y-131838741D01*
X133327376Y-132012812D01*
X133259456Y-132176784D01*
X133160853Y-132324354D01*
X133035354Y-132449853D01*
X132887784Y-132548456D01*
X132723812Y-132616376D01*
X132574512Y-132646073D01*
X132549742Y-132651000D01*
X132372258Y-132651000D01*
X132347488Y-132646073D01*
X132198188Y-132616376D01*
X132034216Y-132548456D01*
X131886646Y-132449853D01*
X131761147Y-132324354D01*
X131662544Y-132176784D01*
X131594624Y-132012812D01*
X131560000Y-131838741D01*
X131560000Y-131661259D01*
X131594624Y-131487188D01*
X131662544Y-131323216D01*
X131761147Y-131175646D01*
X131886646Y-131050147D01*
X132034216Y-130951544D01*
X132198188Y-130883624D01*
X132347488Y-130853927D01*
X132372258Y-130849000D01*
X132549742Y-130849000D01*
X132574512Y-130853927D01*
G37*
G36*
X102094512Y-128313927D02*
G01*
X102243812Y-128343624D01*
X102407784Y-128411544D01*
X102555354Y-128510147D01*
X102680853Y-128635646D01*
X102779456Y-128783216D01*
X102847376Y-128947188D01*
X102882000Y-129121259D01*
X102882000Y-129298741D01*
X102847376Y-129472812D01*
X102779456Y-129636784D01*
X102680853Y-129784354D01*
X102555354Y-129909853D01*
X102407784Y-130008456D01*
X102243812Y-130076376D01*
X102094512Y-130106073D01*
X102069742Y-130111000D01*
X101892258Y-130111000D01*
X101867488Y-130106073D01*
X101718188Y-130076376D01*
X101554216Y-130008456D01*
X101406646Y-129909853D01*
X101281147Y-129784354D01*
X101182544Y-129636784D01*
X101114624Y-129472812D01*
X101080000Y-129298741D01*
X101080000Y-129121259D01*
X101114624Y-128947188D01*
X101182544Y-128783216D01*
X101281147Y-128635646D01*
X101406646Y-128510147D01*
X101554216Y-128411544D01*
X101718188Y-128343624D01*
X101867488Y-128313927D01*
X101892258Y-128309000D01*
X102069742Y-128309000D01*
X102094512Y-128313927D01*
G37*
G36*
X132574512Y-128313927D02*
G01*
X132723812Y-128343624D01*
X132887784Y-128411544D01*
X133035354Y-128510147D01*
X133160853Y-128635646D01*
X133259456Y-128783216D01*
X133327376Y-128947188D01*
X133362000Y-129121259D01*
X133362000Y-129298741D01*
X133327376Y-129472812D01*
X133259456Y-129636784D01*
X133160853Y-129784354D01*
X133035354Y-129909853D01*
X132887784Y-130008456D01*
X132723812Y-130076376D01*
X132574512Y-130106073D01*
X132549742Y-130111000D01*
X132372258Y-130111000D01*
X132347488Y-130106073D01*
X132198188Y-130076376D01*
X132034216Y-130008456D01*
X131886646Y-129909853D01*
X131761147Y-129784354D01*
X131662544Y-129636784D01*
X131594624Y-129472812D01*
X131560000Y-129298741D01*
X131560000Y-129121259D01*
X131594624Y-128947188D01*
X131662544Y-128783216D01*
X131761147Y-128635646D01*
X131886646Y-128510147D01*
X132034216Y-128411544D01*
X132198188Y-128343624D01*
X132347488Y-128313927D01*
X132372258Y-128309000D01*
X132549742Y-128309000D01*
X132574512Y-128313927D01*
G37*
G36*
X130034512Y-128313927D02*
G01*
X130183812Y-128343624D01*
X130347784Y-128411544D01*
X130495354Y-128510147D01*
X130620853Y-128635646D01*
X130719456Y-128783216D01*
X130787376Y-128947188D01*
X130822000Y-129121259D01*
X130822000Y-129298741D01*
X130787376Y-129472812D01*
X130719456Y-129636784D01*
X130620853Y-129784354D01*
X130495354Y-129909853D01*
X130347784Y-130008456D01*
X130183812Y-130076376D01*
X130034512Y-130106073D01*
X130009742Y-130111000D01*
X129832258Y-130111000D01*
X129807488Y-130106073D01*
X129658188Y-130076376D01*
X129494216Y-130008456D01*
X129346646Y-129909853D01*
X129221147Y-129784354D01*
X129122544Y-129636784D01*
X129054624Y-129472812D01*
X129020000Y-129298741D01*
X129020000Y-129121259D01*
X129054624Y-128947188D01*
X129122544Y-128783216D01*
X129221147Y-128635646D01*
X129346646Y-128510147D01*
X129494216Y-128411544D01*
X129658188Y-128343624D01*
X129807488Y-128313927D01*
X129832258Y-128309000D01*
X130009742Y-128309000D01*
X130034512Y-128313927D01*
G37*
G36*
X102094512Y-125773927D02*
G01*
X102243812Y-125803624D01*
X102407784Y-125871544D01*
X102555354Y-125970147D01*
X102680853Y-126095646D01*
X102779456Y-126243216D01*
X102847376Y-126407188D01*
X102882000Y-126581259D01*
X102882000Y-126758741D01*
X102847376Y-126932812D01*
X102779456Y-127096784D01*
X102680853Y-127244354D01*
X102555354Y-127369853D01*
X102407784Y-127468456D01*
X102243812Y-127536376D01*
X102094512Y-127566073D01*
X102069742Y-127571000D01*
X101892258Y-127571000D01*
X101867488Y-127566073D01*
X101718188Y-127536376D01*
X101554216Y-127468456D01*
X101406646Y-127369853D01*
X101281147Y-127244354D01*
X101182544Y-127096784D01*
X101114624Y-126932812D01*
X101080000Y-126758741D01*
X101080000Y-126581259D01*
X101114624Y-126407188D01*
X101182544Y-126243216D01*
X101281147Y-126095646D01*
X101406646Y-125970147D01*
X101554216Y-125871544D01*
X101718188Y-125803624D01*
X101867488Y-125773927D01*
X101892258Y-125769000D01*
X102069742Y-125769000D01*
X102094512Y-125773927D01*
G37*
G36*
X130034512Y-125773927D02*
G01*
X130183812Y-125803624D01*
X130347784Y-125871544D01*
X130495354Y-125970147D01*
X130620853Y-126095646D01*
X130719456Y-126243216D01*
X130787376Y-126407188D01*
X130822000Y-126581259D01*
X130822000Y-126758741D01*
X130787376Y-126932812D01*
X130719456Y-127096784D01*
X130620853Y-127244354D01*
X130495354Y-127369853D01*
X130347784Y-127468456D01*
X130183812Y-127536376D01*
X130034512Y-127566073D01*
X130009742Y-127571000D01*
X129832258Y-127571000D01*
X129807488Y-127566073D01*
X129658188Y-127536376D01*
X129494216Y-127468456D01*
X129346646Y-127369853D01*
X129221147Y-127244354D01*
X129122544Y-127096784D01*
X129054624Y-126932812D01*
X129020000Y-126758741D01*
X129020000Y-126581259D01*
X129054624Y-126407188D01*
X129122544Y-126243216D01*
X129221147Y-126095646D01*
X129346646Y-125970147D01*
X129494216Y-125871544D01*
X129658188Y-125803624D01*
X129807488Y-125773927D01*
X129832258Y-125769000D01*
X130009742Y-125769000D01*
X130034512Y-125773927D01*
G37*
G36*
X132574512Y-125773927D02*
G01*
X132723812Y-125803624D01*
X132887784Y-125871544D01*
X133035354Y-125970147D01*
X133160853Y-126095646D01*
X133259456Y-126243216D01*
X133327376Y-126407188D01*
X133362000Y-126581259D01*
X133362000Y-126758741D01*
X133327376Y-126932812D01*
X133259456Y-127096784D01*
X133160853Y-127244354D01*
X133035354Y-127369853D01*
X132887784Y-127468456D01*
X132723812Y-127536376D01*
X132574512Y-127566073D01*
X132549742Y-127571000D01*
X132372258Y-127571000D01*
X132347488Y-127566073D01*
X132198188Y-127536376D01*
X132034216Y-127468456D01*
X131886646Y-127369853D01*
X131761147Y-127244354D01*
X131662544Y-127096784D01*
X131594624Y-126932812D01*
X131560000Y-126758741D01*
X131560000Y-126581259D01*
X131594624Y-126407188D01*
X131662544Y-126243216D01*
X131761147Y-126095646D01*
X131886646Y-125970147D01*
X132034216Y-125871544D01*
X132198188Y-125803624D01*
X132347488Y-125773927D01*
X132372258Y-125769000D01*
X132549742Y-125769000D01*
X132574512Y-125773927D01*
G37*
G36*
X130034512Y-123233927D02*
G01*
X130183812Y-123263624D01*
X130347784Y-123331544D01*
X130495354Y-123430147D01*
X130620853Y-123555646D01*
X130719456Y-123703216D01*
X130787376Y-123867188D01*
X130822000Y-124041259D01*
X130822000Y-124218741D01*
X130787376Y-124392812D01*
X130719456Y-124556784D01*
X130620853Y-124704354D01*
X130495354Y-124829853D01*
X130347784Y-124928456D01*
X130183812Y-124996376D01*
X130034512Y-125026073D01*
X130009742Y-125031000D01*
X129832258Y-125031000D01*
X129807488Y-125026073D01*
X129658188Y-124996376D01*
X129494216Y-124928456D01*
X129346646Y-124829853D01*
X129221147Y-124704354D01*
X129122544Y-124556784D01*
X129054624Y-124392812D01*
X129020000Y-124218741D01*
X129020000Y-124041259D01*
X129054624Y-123867188D01*
X129122544Y-123703216D01*
X129221147Y-123555646D01*
X129346646Y-123430147D01*
X129494216Y-123331544D01*
X129658188Y-123263624D01*
X129807488Y-123233927D01*
X129832258Y-123229000D01*
X130009742Y-123229000D01*
X130034512Y-123233927D01*
G37*
G36*
X102094512Y-123233927D02*
G01*
X102243812Y-123263624D01*
X102407784Y-123331544D01*
X102555354Y-123430147D01*
X102680853Y-123555646D01*
X102779456Y-123703216D01*
X102847376Y-123867188D01*
X102882000Y-124041259D01*
X102882000Y-124218741D01*
X102847376Y-124392812D01*
X102779456Y-124556784D01*
X102680853Y-124704354D01*
X102555354Y-124829853D01*
X102407784Y-124928456D01*
X102243812Y-124996376D01*
X102094512Y-125026073D01*
X102069742Y-125031000D01*
X101892258Y-125031000D01*
X101867488Y-125026073D01*
X101718188Y-124996376D01*
X101554216Y-124928456D01*
X101406646Y-124829853D01*
X101281147Y-124704354D01*
X101182544Y-124556784D01*
X101114624Y-124392812D01*
X101080000Y-124218741D01*
X101080000Y-124041259D01*
X101114624Y-123867188D01*
X101182544Y-123703216D01*
X101281147Y-123555646D01*
X101406646Y-123430147D01*
X101554216Y-123331544D01*
X101718188Y-123263624D01*
X101867488Y-123233927D01*
X101892258Y-123229000D01*
X102069742Y-123229000D01*
X102094512Y-123233927D01*
G37*
G36*
X132574512Y-123233927D02*
G01*
X132723812Y-123263624D01*
X132887784Y-123331544D01*
X133035354Y-123430147D01*
X133160853Y-123555646D01*
X133259456Y-123703216D01*
X133327376Y-123867188D01*
X133362000Y-124041259D01*
X133362000Y-124218741D01*
X133327376Y-124392812D01*
X133259456Y-124556784D01*
X133160853Y-124704354D01*
X133035354Y-124829853D01*
X132887784Y-124928456D01*
X132723812Y-124996376D01*
X132574512Y-125026073D01*
X132549742Y-125031000D01*
X132372258Y-125031000D01*
X132347488Y-125026073D01*
X132198188Y-124996376D01*
X132034216Y-124928456D01*
X131886646Y-124829853D01*
X131761147Y-124704354D01*
X131662544Y-124556784D01*
X131594624Y-124392812D01*
X131560000Y-124218741D01*
X131560000Y-124041259D01*
X131594624Y-123867188D01*
X131662544Y-123703216D01*
X131761147Y-123555646D01*
X131886646Y-123430147D01*
X132034216Y-123331544D01*
X132198188Y-123263624D01*
X132347488Y-123233927D01*
X132372258Y-123229000D01*
X132549742Y-123229000D01*
X132574512Y-123233927D01*
G37*
G36*
X132574512Y-120693927D02*
G01*
X132723812Y-120723624D01*
X132887784Y-120791544D01*
X133035354Y-120890147D01*
X133160853Y-121015646D01*
X133259456Y-121163216D01*
X133327376Y-121327188D01*
X133362000Y-121501259D01*
X133362000Y-121678741D01*
X133327376Y-121852812D01*
X133259456Y-122016784D01*
X133160853Y-122164354D01*
X133035354Y-122289853D01*
X132887784Y-122388456D01*
X132723812Y-122456376D01*
X132574512Y-122486073D01*
X132549742Y-122491000D01*
X132372258Y-122491000D01*
X132347488Y-122486073D01*
X132198188Y-122456376D01*
X132034216Y-122388456D01*
X131886646Y-122289853D01*
X131761147Y-122164354D01*
X131662544Y-122016784D01*
X131594624Y-121852812D01*
X131560000Y-121678741D01*
X131560000Y-121501259D01*
X131594624Y-121327188D01*
X131662544Y-121163216D01*
X131761147Y-121015646D01*
X131886646Y-120890147D01*
X132034216Y-120791544D01*
X132198188Y-120723624D01*
X132347488Y-120693927D01*
X132372258Y-120689000D01*
X132549742Y-120689000D01*
X132574512Y-120693927D01*
G37*
G36*
X130034512Y-120693927D02*
G01*
X130183812Y-120723624D01*
X130347784Y-120791544D01*
X130495354Y-120890147D01*
X130620853Y-121015646D01*
X130719456Y-121163216D01*
X130787376Y-121327188D01*
X130822000Y-121501259D01*
X130822000Y-121678741D01*
X130787376Y-121852812D01*
X130719456Y-122016784D01*
X130620853Y-122164354D01*
X130495354Y-122289853D01*
X130347784Y-122388456D01*
X130183812Y-122456376D01*
X130034512Y-122486073D01*
X130009742Y-122491000D01*
X129832258Y-122491000D01*
X129807488Y-122486073D01*
X129658188Y-122456376D01*
X129494216Y-122388456D01*
X129346646Y-122289853D01*
X129221147Y-122164354D01*
X129122544Y-122016784D01*
X129054624Y-121852812D01*
X129020000Y-121678741D01*
X129020000Y-121501259D01*
X129054624Y-121327188D01*
X129122544Y-121163216D01*
X129221147Y-121015646D01*
X129346646Y-120890147D01*
X129494216Y-120791544D01*
X129658188Y-120723624D01*
X129807488Y-120693927D01*
X129832258Y-120689000D01*
X130009742Y-120689000D01*
X130034512Y-120693927D01*
G37*
G36*
X102094512Y-120693927D02*
G01*
X102243812Y-120723624D01*
X102407784Y-120791544D01*
X102555354Y-120890147D01*
X102680853Y-121015646D01*
X102779456Y-121163216D01*
X102847376Y-121327188D01*
X102882000Y-121501259D01*
X102882000Y-121678741D01*
X102847376Y-121852812D01*
X102779456Y-122016784D01*
X102680853Y-122164354D01*
X102555354Y-122289853D01*
X102407784Y-122388456D01*
X102243812Y-122456376D01*
X102094512Y-122486073D01*
X102069742Y-122491000D01*
X101892258Y-122491000D01*
X101867488Y-122486073D01*
X101718188Y-122456376D01*
X101554216Y-122388456D01*
X101406646Y-122289853D01*
X101281147Y-122164354D01*
X101182544Y-122016784D01*
X101114624Y-121852812D01*
X101080000Y-121678741D01*
X101080000Y-121501259D01*
X101114624Y-121327188D01*
X101182544Y-121163216D01*
X101281147Y-121015646D01*
X101406646Y-120890147D01*
X101554216Y-120791544D01*
X101718188Y-120723624D01*
X101867488Y-120693927D01*
X101892258Y-120689000D01*
X102069742Y-120689000D01*
X102094512Y-120693927D01*
G37*
G36*
X132574512Y-118153927D02*
G01*
X132723812Y-118183624D01*
X132887784Y-118251544D01*
X133035354Y-118350147D01*
X133160853Y-118475646D01*
X133259456Y-118623216D01*
X133327376Y-118787188D01*
X133362000Y-118961259D01*
X133362000Y-119138741D01*
X133327376Y-119312812D01*
X133259456Y-119476784D01*
X133160853Y-119624354D01*
X133035354Y-119749853D01*
X132887784Y-119848456D01*
X132723812Y-119916376D01*
X132574512Y-119946073D01*
X132549742Y-119951000D01*
X132372258Y-119951000D01*
X132347488Y-119946073D01*
X132198188Y-119916376D01*
X132034216Y-119848456D01*
X131886646Y-119749853D01*
X131761147Y-119624354D01*
X131662544Y-119476784D01*
X131594624Y-119312812D01*
X131560000Y-119138741D01*
X131560000Y-118961259D01*
X131594624Y-118787188D01*
X131662544Y-118623216D01*
X131761147Y-118475646D01*
X131886646Y-118350147D01*
X132034216Y-118251544D01*
X132198188Y-118183624D01*
X132347488Y-118153927D01*
X132372258Y-118149000D01*
X132549742Y-118149000D01*
X132574512Y-118153927D01*
G37*
G36*
X102094512Y-118153927D02*
G01*
X102243812Y-118183624D01*
X102407784Y-118251544D01*
X102555354Y-118350147D01*
X102680853Y-118475646D01*
X102779456Y-118623216D01*
X102847376Y-118787188D01*
X102882000Y-118961259D01*
X102882000Y-119138741D01*
X102847376Y-119312812D01*
X102779456Y-119476784D01*
X102680853Y-119624354D01*
X102555354Y-119749853D01*
X102407784Y-119848456D01*
X102243812Y-119916376D01*
X102094512Y-119946073D01*
X102069742Y-119951000D01*
X101892258Y-119951000D01*
X101867488Y-119946073D01*
X101718188Y-119916376D01*
X101554216Y-119848456D01*
X101406646Y-119749853D01*
X101281147Y-119624354D01*
X101182544Y-119476784D01*
X101114624Y-119312812D01*
X101080000Y-119138741D01*
X101080000Y-118961259D01*
X101114624Y-118787188D01*
X101182544Y-118623216D01*
X101281147Y-118475646D01*
X101406646Y-118350147D01*
X101554216Y-118251544D01*
X101718188Y-118183624D01*
X101867488Y-118153927D01*
X101892258Y-118149000D01*
X102069742Y-118149000D01*
X102094512Y-118153927D01*
G37*
G36*
X130034512Y-118153927D02*
G01*
X130183812Y-118183624D01*
X130347784Y-118251544D01*
X130495354Y-118350147D01*
X130620853Y-118475646D01*
X130719456Y-118623216D01*
X130787376Y-118787188D01*
X130822000Y-118961259D01*
X130822000Y-119138741D01*
X130787376Y-119312812D01*
X130719456Y-119476784D01*
X130620853Y-119624354D01*
X130495354Y-119749853D01*
X130347784Y-119848456D01*
X130183812Y-119916376D01*
X130034512Y-119946073D01*
X130009742Y-119951000D01*
X129832258Y-119951000D01*
X129807488Y-119946073D01*
X129658188Y-119916376D01*
X129494216Y-119848456D01*
X129346646Y-119749853D01*
X129221147Y-119624354D01*
X129122544Y-119476784D01*
X129054624Y-119312812D01*
X129020000Y-119138741D01*
X129020000Y-118961259D01*
X129054624Y-118787188D01*
X129122544Y-118623216D01*
X129221147Y-118475646D01*
X129346646Y-118350147D01*
X129494216Y-118251544D01*
X129658188Y-118183624D01*
X129807488Y-118153927D01*
X129832258Y-118149000D01*
X130009742Y-118149000D01*
X130034512Y-118153927D01*
G37*
G36*
X132574512Y-115613927D02*
G01*
X132723812Y-115643624D01*
X132887784Y-115711544D01*
X133035354Y-115810147D01*
X133160853Y-115935646D01*
X133259456Y-116083216D01*
X133327376Y-116247188D01*
X133362000Y-116421259D01*
X133362000Y-116598741D01*
X133327376Y-116772812D01*
X133259456Y-116936784D01*
X133160853Y-117084354D01*
X133035354Y-117209853D01*
X132887784Y-117308456D01*
X132723812Y-117376376D01*
X132574512Y-117406073D01*
X132549742Y-117411000D01*
X132372258Y-117411000D01*
X132347488Y-117406073D01*
X132198188Y-117376376D01*
X132034216Y-117308456D01*
X131886646Y-117209853D01*
X131761147Y-117084354D01*
X131662544Y-116936784D01*
X131594624Y-116772812D01*
X131560000Y-116598741D01*
X131560000Y-116421259D01*
X131594624Y-116247188D01*
X131662544Y-116083216D01*
X131761147Y-115935646D01*
X131886646Y-115810147D01*
X132034216Y-115711544D01*
X132198188Y-115643624D01*
X132347488Y-115613927D01*
X132372258Y-115609000D01*
X132549742Y-115609000D01*
X132574512Y-115613927D01*
G37*
G36*
X130034512Y-115613927D02*
G01*
X130183812Y-115643624D01*
X130347784Y-115711544D01*
X130495354Y-115810147D01*
X130620853Y-115935646D01*
X130719456Y-116083216D01*
X130787376Y-116247188D01*
X130822000Y-116421259D01*
X130822000Y-116598741D01*
X130787376Y-116772812D01*
X130719456Y-116936784D01*
X130620853Y-117084354D01*
X130495354Y-117209853D01*
X130347784Y-117308456D01*
X130183812Y-117376376D01*
X130034512Y-117406073D01*
X130009742Y-117411000D01*
X129832258Y-117411000D01*
X129807488Y-117406073D01*
X129658188Y-117376376D01*
X129494216Y-117308456D01*
X129346646Y-117209853D01*
X129221147Y-117084354D01*
X129122544Y-116936784D01*
X129054624Y-116772812D01*
X129020000Y-116598741D01*
X129020000Y-116421259D01*
X129054624Y-116247188D01*
X129122544Y-116083216D01*
X129221147Y-115935646D01*
X129346646Y-115810147D01*
X129494216Y-115711544D01*
X129658188Y-115643624D01*
X129807488Y-115613927D01*
X129832258Y-115609000D01*
X130009742Y-115609000D01*
X130034512Y-115613927D01*
G37*
G36*
X102094512Y-115613927D02*
G01*
X102243812Y-115643624D01*
X102407784Y-115711544D01*
X102555354Y-115810147D01*
X102680853Y-115935646D01*
X102779456Y-116083216D01*
X102847376Y-116247188D01*
X102882000Y-116421259D01*
X102882000Y-116598741D01*
X102847376Y-116772812D01*
X102779456Y-116936784D01*
X102680853Y-117084354D01*
X102555354Y-117209853D01*
X102407784Y-117308456D01*
X102243812Y-117376376D01*
X102094512Y-117406073D01*
X102069742Y-117411000D01*
X101892258Y-117411000D01*
X101867488Y-117406073D01*
X101718188Y-117376376D01*
X101554216Y-117308456D01*
X101406646Y-117209853D01*
X101281147Y-117084354D01*
X101182544Y-116936784D01*
X101114624Y-116772812D01*
X101080000Y-116598741D01*
X101080000Y-116421259D01*
X101114624Y-116247188D01*
X101182544Y-116083216D01*
X101281147Y-115935646D01*
X101406646Y-115810147D01*
X101554216Y-115711544D01*
X101718188Y-115643624D01*
X101867488Y-115613927D01*
X101892258Y-115609000D01*
X102069742Y-115609000D01*
X102094512Y-115613927D01*
G37*
G36*
X102882000Y-114871000D02*
G01*
X101080000Y-114871000D01*
X101080000Y-113069000D01*
X102882000Y-113069000D01*
X102882000Y-114871000D01*
G37*
G36*
X130822000Y-114871000D02*
G01*
X129020000Y-114871000D01*
X129020000Y-113069000D01*
X130822000Y-113069000D01*
X130822000Y-114871000D01*
G37*
G36*
X132574512Y-113073927D02*
G01*
X132723812Y-113103624D01*
X132887784Y-113171544D01*
X133035354Y-113270147D01*
X133160853Y-113395646D01*
X133259456Y-113543216D01*
X133327376Y-113707188D01*
X133362000Y-113881259D01*
X133362000Y-114058741D01*
X133327376Y-114232812D01*
X133259456Y-114396784D01*
X133160853Y-114544354D01*
X133035354Y-114669853D01*
X132887784Y-114768456D01*
X132723812Y-114836376D01*
X132574512Y-114866073D01*
X132549742Y-114871000D01*
X132372258Y-114871000D01*
X132347488Y-114866073D01*
X132198188Y-114836376D01*
X132034216Y-114768456D01*
X131886646Y-114669853D01*
X131761147Y-114544354D01*
X131662544Y-114396784D01*
X131594624Y-114232812D01*
X131560000Y-114058741D01*
X131560000Y-113881259D01*
X131594624Y-113707188D01*
X131662544Y-113543216D01*
X131761147Y-113395646D01*
X131886646Y-113270147D01*
X132034216Y-113171544D01*
X132198188Y-113103624D01*
X132347488Y-113073927D01*
X132372258Y-113069000D01*
X132549742Y-113069000D01*
X132574512Y-113073927D01*
G37*
M02*
