<?xml version="1.0" standalone="no"?>
 <!DOCTYPE svg PUBLIC "-//W3C//DTD SVG 1.1//EN" 
 "http://www.w3.org/Graphics/SVG/1.1/DTD/svg11.dtd"> 
<svg xmlns="http://www.w3.org/2000/svg" version="1.1" 
    width="29.7002cm" height="21.0007cm" viewBox="0 0 116930 82680 ">
<title>SVG Picture created as SA818_BREAKOUT-F_SilkS.svg date 2022/04/09 21:58:40 </title>
  <desc>Picture generated by PCBNEW </desc>
<g style="fill:#000000; fill-opacity:1;stroke:#000000; stroke-opacity:1;
stroke-linecap:round; stroke-linejoin:round; "
 transform="translate(0 0) scale(1 1)">
</g>
<g style="fill:#000000; fill-opacity:0.0; 
stroke:#000000; stroke-width:-0.000393701; stroke-opacity:1; 
stroke-linecap:round; stroke-linejoin:round;">
</g>
<g style="fill:#000000; fill-opacity:0.0; 
stroke:#000000; stroke-width:59.0551; stroke-opacity:1; 
stroke-linecap:round; stroke-linejoin:round;">
<text x="52150" y="55172"
textLength="1837.27" font-size="524.934" lengthAdjust="spacingAndGlyphs"
text-anchor="middle" opacity="0">SA818</text>
<path d="M51306 55134
L51362 55153
L51456 55153
L51493 55134
L51512 55115
L51531 55078
L51531 55040
L51512 55003
L51493 54984
L51456 54965
L51381 54947
L51343 54928
L51325 54909
L51306 54872
L51306 54834
L51325 54797
L51343 54778
L51381 54759
L51475 54759
L51531 54778
" />
<path d="M51681 55040
L51868 55040
" />
<path d="M51643 55153
L51775 54759
L51906 55153
" />
<path d="M52093 54928
L52056 54909
L52037 54890
L52018 54853
L52018 54834
L52037 54797
L52056 54778
L52093 54759
L52168 54759
L52206 54778
L52224 54797
L52243 54834
L52243 54853
L52224 54890
L52206 54909
L52168 54928
L52093 54928
L52056 54947
L52037 54965
L52018 55003
L52018 55078
L52037 55115
L52056 55134
L52093 55153
L52168 55153
L52206 55134
L52224 55115
L52243 55078
L52243 55003
L52224 54965
L52206 54947
L52168 54928
" />
<path d="M52618 55153
L52393 55153
" />
<path d="M52506 55153
L52506 54759
L52468 54815
L52431 54853
L52393 54872
" />
<path d="M52843 54928
L52806 54909
L52787 54890
L52768 54853
L52768 54834
L52787 54797
L52806 54778
L52843 54759
L52918 54759
L52956 54778
L52974 54797
L52993 54834
L52993 54853
L52974 54890
L52956 54909
L52918 54928
L52843 54928
L52806 54947
L52787 54965
L52768 55003
L52768 55078
L52787 55115
L52806 55134
L52843 55153
L52918 55153
L52956 55134
L52974 55115
L52993 55078
L52993 55003
L52974 54965
L52956 54947
L52918 54928
" />
<text x="52150" y="55821.7"
textLength="976.659" font-size="524.934" lengthAdjust="spacingAndGlyphs"
text-anchor="middle" opacity="0">DIL</text>
<path d="M51793 55802
L51793 55409
L51887 55409
L51943 55427
L51981 55465
L52000 55502
L52018 55577
L52018 55634
L52000 55709
L51981 55746
L51943 55784
L51887 55802
L51793 55802
" />
<path d="M52187 55802
L52187 55409
" />
<path d="M52562 55802
L52374 55802
L52374 55409
" />
</g>
<g style="fill:#000000; fill-opacity:0.0; 
stroke:#000000; stroke-width:49.2126; stroke-opacity:1; 
stroke-linecap:round; stroke-linejoin:round;">
<text x="51650" y="40187.4"
textLength="1284.12" font-size="367.454" lengthAdjust="spacingAndGlyphs"
text-anchor="middle" opacity="0">1  18</text>
<path d="M51256 40174
L51098 40174
" />
<path d="M51177 40174
L51177 39898
L51151 39938
L51125 39964
L51098 39977
" />
<path d="M51938 40174
L51781 40174
" />
<path d="M51859 40174
L51859 39898
L51833 39938
L51807 39964
L51781 39977
" />
<path d="M52096 40016
L52069 40003
L52056 39990
L52043 39964
L52043 39951
L52056 39924
L52069 39911
L52096 39898
L52148 39898
L52174 39911
L52188 39924
L52201 39951
L52201 39964
L52188 39990
L52174 40003
L52148 40016
L52096 40016
L52069 40029
L52056 40043
L52043 40069
L52043 40121
L52056 40148
L52069 40161
L52096 40174
L52148 40174
L52174 40161
L52188 40148
L52201 40121
L52201 40069
L52188 40043
L52174 40029
L52148 40016
" />
<text x="51650" y="40650"
textLength="1271.33" font-size="367.454" lengthAdjust="spacingAndGlyphs"
text-anchor="middle" opacity="0">2  17</text>
<path d="M51098 40387
L51111 40374
L51138 40361
L51203 40361
L51230 40374
L51243 40387
L51256 40413
L51256 40440
L51243 40479
L51085 40636
L51256 40636
" />
<path d="M51938 40636
L51781 40636
" />
<path d="M51859 40636
L51859 40361
L51833 40400
L51807 40426
L51781 40440
" />
<path d="M52030 40361
L52214 40361
L52096 40636
" />
<text x="51650" y="41112.6"
textLength="1271.33" font-size="367.454" lengthAdjust="spacingAndGlyphs"
text-anchor="middle" opacity="0">3  16</text>
<path d="M51085 40823
L51256 40823
L51164 40928
L51203 40928
L51230 40941
L51243 40955
L51256 40981
L51256 41046
L51243 41073
L51230 41086
L51203 41099
L51125 41099
L51098 41086
L51085 41073
" />
<path d="M51938 41099
L51781 41099
" />
<path d="M51859 41099
L51859 40823
L51833 40863
L51807 40889
L51781 40902
" />
<path d="M52174 40823
L52122 40823
L52096 40837
L52083 40850
L52056 40889
L52043 40941
L52043 41046
L52056 41073
L52069 41086
L52096 41099
L52148 41099
L52174 41086
L52188 41073
L52201 41046
L52201 40981
L52188 40955
L52174 40941
L52148 40928
L52096 40928
L52069 40941
L52056 40955
L52043 40981
" />
<text x="51650" y="41575.2"
textLength="1271.33" font-size="367.454" lengthAdjust="spacingAndGlyphs"
text-anchor="middle" opacity="0">4  15</text>
<path d="M51230 41378
L51230 41562
" />
<path d="M51164 41273
L51098 41470
L51269 41470
" />
<path d="M51938 41562
L51781 41562
" />
<path d="M51859 41562
L51859 41286
L51833 41325
L51807 41352
L51781 41365
" />
<path d="M52188 41286
L52056 41286
L52043 41417
L52056 41404
L52083 41391
L52148 41391
L52174 41404
L52188 41417
L52201 41443
L52201 41509
L52188 41535
L52174 41548
L52148 41562
L52083 41562
L52056 41548
L52043 41535
" />
<text x="51650" y="42037.8"
textLength="1271.33" font-size="367.454" lengthAdjust="spacingAndGlyphs"
text-anchor="middle" opacity="0">5  14</text>
<path d="M51243 41749
L51111 41749
L51098 41880
L51111 41867
L51138 41854
L51203 41854
L51230 41867
L51243 41880
L51256 41906
L51256 41972
L51243 41998
L51230 42011
L51203 42024
L51138 42024
L51111 42011
L51098 41998
" />
<path d="M51938 42024
L51781 42024
" />
<path d="M51859 42024
L51859 41749
L51833 41788
L51807 41814
L51781 41827
" />
<path d="M52174 41840
L52174 42024
" />
<path d="M52109 41735
L52043 41932
L52214 41932
" />
<text x="51650" y="42500.4"
textLength="1271.33" font-size="367.454" lengthAdjust="spacingAndGlyphs"
text-anchor="middle" opacity="0">6  13</text>
<path d="M51230 42211
L51177 42211
L51151 42224
L51138 42237
L51111 42277
L51098 42329
L51098 42434
L51111 42461
L51125 42474
L51151 42487
L51203 42487
L51230 42474
L51243 42461
L51256 42434
L51256 42369
L51243 42342
L51230 42329
L51203 42316
L51151 42316
L51125 42329
L51111 42342
L51098 42369
" />
<path d="M51938 42487
L51781 42487
" />
<path d="M51859 42487
L51859 42211
L51833 42251
L51807 42277
L51781 42290
" />
<path d="M52030 42211
L52201 42211
L52109 42316
L52148 42316
L52174 42329
L52188 42342
L52201 42369
L52201 42434
L52188 42461
L52174 42474
L52148 42487
L52069 42487
L52043 42474
L52030 42461
" />
<text x="51650" y="42963"
textLength="1310.7" font-size="367.454" lengthAdjust="spacingAndGlyphs"
text-anchor="middle" opacity="0">7  NC</text>
<path d="M51066 42674
L51249 42674
L51131 42949
" />
<path d="M51774 42949
L51774 42674
L51932 42949
L51932 42674
" />
<path d="M52220 42923
L52207 42936
L52168 42949
L52142 42949
L52102 42936
L52076 42910
L52063 42884
L52050 42831
L52050 42792
L52063 42739
L52076 42713
L52102 42687
L52142 42674
L52168 42674
L52207 42687
L52220 42700
" />
<text x="51650" y="43425.6"
textLength="1271.33" font-size="367.454" lengthAdjust="spacingAndGlyphs"
text-anchor="middle" opacity="0">8  11</text>
<path d="M51151 43254
L51125 43241
L51111 43228
L51098 43202
L51098 43189
L51111 43163
L51125 43150
L51151 43136
L51203 43136
L51230 43150
L51243 43163
L51256 43189
L51256 43202
L51243 43228
L51230 43241
L51203 43254
L51151 43254
L51125 43268
L51111 43281
L51098 43307
L51098 43359
L51111 43386
L51125 43399
L51151 43412
L51203 43412
L51230 43399
L51243 43386
L51256 43359
L51256 43307
L51243 43281
L51230 43268
L51203 43254
" />
<path d="M51938 43412
L51781 43412
" />
<path d="M51859 43412
L51859 43136
L51833 43176
L51807 43202
L51781 43215
" />
<path d="M52201 43412
L52043 43412
" />
<path d="M52122 43412
L52122 43136
L52096 43176
L52069 43202
L52043 43215
" />
<text x="51650" y="43888.2"
textLength="1271.33" font-size="367.454" lengthAdjust="spacingAndGlyphs"
text-anchor="middle" opacity="0">9  10</text>
<path d="M51125 43875
L51177 43875
L51203 43861
L51216 43848
L51243 43809
L51256 43756
L51256 43651
L51243 43625
L51230 43612
L51203 43599
L51151 43599
L51125 43612
L51111 43625
L51098 43651
L51098 43717
L51111 43743
L51125 43756
L51151 43770
L51203 43770
L51230 43756
L51243 43743
L51256 43717
" />
<path d="M51938 43875
L51781 43875
" />
<path d="M51859 43875
L51859 43599
L51833 43638
L51807 43665
L51781 43678
" />
<path d="M52109 43599
L52135 43599
L52161 43612
L52174 43625
L52188 43651
L52201 43704
L52201 43770
L52188 43822
L52174 43848
L52161 43861
L52135 43875
L52109 43875
L52083 43861
L52069 43848
L52056 43822
L52043 43770
L52043 43704
L52056 43651
L52069 43625
L52083 43612
L52109 43599
" />
<text x="40200" y="40187.4"
textLength="588.911" font-size="367.454" lengthAdjust="spacingAndGlyphs"
text-anchor="middle" opacity="0">18</text>
<path d="M40147 40174
L39990 40174
" />
<path d="M40068 40174
L40068 39898
L40042 39938
L40016 39964
L39990 39977
" />
<path d="M40304 40016
L40278 40003
L40265 39990
L40252 39964
L40252 39951
L40265 39924
L40278 39911
L40304 39898
L40357 39898
L40383 39911
L40396 39924
L40409 39951
L40409 39964
L40396 39990
L40383 40003
L40357 40016
L40304 40016
L40278 40029
L40265 40043
L40252 40069
L40252 40121
L40265 40148
L40278 40161
L40304 40174
L40357 40174
L40383 40161
L40396 40148
L40409 40121
L40409 40069
L40396 40043
L40383 40029
L40357 40016
" />
<text x="40200" y="40650"
textLength="588.911" font-size="367.454" lengthAdjust="spacingAndGlyphs"
text-anchor="middle" opacity="0">17</text>
<path d="M40147 40636
L39990 40636
" />
<path d="M40068 40636
L40068 40361
L40042 40400
L40016 40426
L39990 40440
" />
<path d="M40239 40361
L40423 40361
L40304 40636
" />
<text x="40200" y="41112.6"
textLength="588.911" font-size="367.454" lengthAdjust="spacingAndGlyphs"
text-anchor="middle" opacity="0">16</text>
<path d="M40147 41099
L39990 41099
" />
<path d="M40068 41099
L40068 40823
L40042 40863
L40016 40889
L39990 40902
" />
<path d="M40383 40823
L40331 40823
L40304 40837
L40291 40850
L40265 40889
L40252 40941
L40252 41046
L40265 41073
L40278 41086
L40304 41099
L40357 41099
L40383 41086
L40396 41073
L40409 41046
L40409 40981
L40396 40955
L40383 40941
L40357 40928
L40304 40928
L40278 40941
L40265 40955
L40252 40981
" />
<text x="40200" y="41575.2"
textLength="588.911" font-size="367.454" lengthAdjust="spacingAndGlyphs"
text-anchor="middle" opacity="0">15</text>
<path d="M40147 41562
L39990 41562
" />
<path d="M40068 41562
L40068 41286
L40042 41325
L40016 41352
L39990 41365
" />
<path d="M40396 41286
L40265 41286
L40252 41417
L40265 41404
L40291 41391
L40357 41391
L40383 41404
L40396 41417
L40409 41443
L40409 41509
L40396 41535
L40383 41548
L40357 41562
L40291 41562
L40265 41548
L40252 41535
" />
<text x="40200" y="42037.8"
textLength="588.911" font-size="367.454" lengthAdjust="spacingAndGlyphs"
text-anchor="middle" opacity="0">14</text>
<path d="M40147 42024
L39990 42024
" />
<path d="M40068 42024
L40068 41749
L40042 41788
L40016 41814
L39990 41827
" />
<path d="M40383 41840
L40383 42024
" />
<path d="M40318 41735
L40252 41932
L40423 41932
" />
<text x="40200" y="42500.4"
textLength="588.911" font-size="367.454" lengthAdjust="spacingAndGlyphs"
text-anchor="middle" opacity="0">13</text>
<path d="M40147 42487
L39990 42487
" />
<path d="M40068 42487
L40068 42211
L40042 42251
L40016 42277
L39990 42290
" />
<path d="M40239 42211
L40409 42211
L40318 42316
L40357 42316
L40383 42329
L40396 42342
L40409 42369
L40409 42434
L40396 42461
L40383 42474
L40357 42487
L40278 42487
L40252 42474
L40239 42461
" />
<text x="40200" y="42963"
textLength="628.281" font-size="367.454" lengthAdjust="spacingAndGlyphs"
text-anchor="middle" opacity="0">NC</text>
<path d="M39983 42949
L39983 42674
L40140 42949
L40140 42674
" />
<path d="M40429 42923
L40416 42936
L40377 42949
L40350 42949
L40311 42936
L40285 42910
L40272 42884
L40259 42831
L40259 42792
L40272 42739
L40285 42713
L40311 42687
L40350 42674
L40377 42674
L40416 42687
L40429 42700
" />
<text x="40200" y="43425.6"
textLength="588.911" font-size="367.454" lengthAdjust="spacingAndGlyphs"
text-anchor="middle" opacity="0">11</text>
<path d="M40147 43412
L39990 43412
" />
<path d="M40068 43412
L40068 43136
L40042 43176
L40016 43202
L39990 43215
" />
<path d="M40409 43412
L40252 43412
" />
<path d="M40331 43412
L40331 43136
L40304 43176
L40278 43202
L40252 43215
" />
<text x="40200" y="43888.2"
textLength="588.911" font-size="367.454" lengthAdjust="spacingAndGlyphs"
text-anchor="middle" opacity="0">10</text>
<path d="M40147 43875
L39990 43875
" />
<path d="M40068 43875
L40068 43599
L40042 43638
L40016 43665
L39990 43678
" />
<path d="M40318 43599
L40344 43599
L40370 43612
L40383 43625
L40396 43651
L40409 43704
L40409 43770
L40396 43822
L40383 43848
L40370 43861
L40344 43875
L40318 43875
L40291 43861
L40278 43848
L40265 43822
L40252 43770
L40252 43704
L40265 43651
L40278 43625
L40291 43612
L40318 43599
" />
</g>
<g style="fill:#000000; fill-opacity:0.0; 
stroke:#000000; stroke-width:19.685; stroke-opacity:1; 
stroke-linecap:round; stroke-linejoin:round;">
<path d="M53543 39370
L53543 58370
" />
<path d="M39370 58370
L53543 58370
" />
<path d="M39370 39370
L39370 58370
" />
<path d="M39370 39370
L53543 39370
" />
</g>
<g style="fill:#000000; fill-opacity:0.0; 
stroke:#000000; stroke-width:47.2441; stroke-opacity:1; 
stroke-linecap:round; stroke-linejoin:round;">
<path d="M51201 56851
L50949 56851
" />
<path d="M50098 56851
L50350 56851
" />
<path d="M50949 56851
L50949 56603
" />
<path d="M51181 57922
L50118 57922
" />
<path d="M42197 56129
L42402 56129
" />
<path d="M42197 55570
L42402 55570
" />
<path d="M40597 55329
L40802 55329
" />
<path d="M40597 54770
L40802 54770
" />
<path d="M46947 56129
L47152 56129
" />
<path d="M46947 55570
L47152 55570
" />
<path d="M44597 56179
L44802 56179
" />
<path d="M44597 55620
L44802 55620
" />
<path d="M47920 56947
L47920 57152
" />
<path d="M48479 56947
L48479 57152
" />
<path d="M45620 56947
L45620 57152
" />
<path d="M46179 56947
L46179 57152
" />
<path d="M43170 56947
L43170 57152
" />
<path d="M43729 56947
L43729 57152
" />
<path d="M40597 56129
L40802 56129
" />
<path d="M40597 55570
L40802 55570
" />
<path d="M41299 56851
L41047 56851
" />
<path d="M40196 56851
L40448 56851
" />
<path d="M41047 56851
L41047 56603
" />
<path d="M41279 57922
L40216 57922
" />
<path d="M50650 44370
L51150 44370
" />
<path d="M50650 44870
L50650 44370
" />
<path d="M51560 53019
L51739 53019
" />
<path d="M51560 52720
L51739 52720
" />
<path d="M52560 53019
L52716 53019
" />
<path d="M52560 52720
L52716 52720
" />
<path d="M56126 53019
L53764 53019
" />
<path d="M56126 52720
L56126 53019
" />
<path d="M53764 52720
L56126 52720
" />
<path d="M52716 52370
L53764 52370
" />
<path d="M51560 52019
L51739 52019
" />
<path d="M51560 51720
L51739 51720
" />
<path d="M52560 52019
L52716 52019
" />
<path d="M52560 51720
L52716 51720
" />
<path d="M56126 52019
L53764 52019
" />
<path d="M56126 51720
L56126 52019
" />
<path d="M53764 51720
L56126 51720
" />
<path d="M52716 51370
L53764 51370
" />
<path d="M51560 51019
L51739 51019
" />
<path d="M51560 50720
L51739 50720
" />
<path d="M52560 51019
L52716 51019
" />
<path d="M52560 50720
L52716 50720
" />
<path d="M56126 51019
L53764 51019
" />
<path d="M56126 50720
L56126 51019
" />
<path d="M53764 50720
L56126 50720
" />
<path d="M52716 50370
L53764 50370
" />
<path d="M51560 50019
L51739 50019
" />
<path d="M51560 49720
L51739 49720
" />
<path d="M52560 50019
L52716 50019
" />
<path d="M52560 49720
L52716 49720
" />
<path d="M56126 50019
L53764 50019
" />
<path d="M56126 49720
L56126 50019
" />
<path d="M53764 49720
L56126 49720
" />
<path d="M52716 49370
L53764 49370
" />
<path d="M51560 49019
L51739 49019
" />
<path d="M51560 48720
L51739 48720
" />
<path d="M52560 49019
L52716 49019
" />
<path d="M52560 48720
L52716 48720
" />
<path d="M56126 49019
L53764 49019
" />
<path d="M56126 48720
L56126 49019
" />
<path d="M53764 48720
L56126 48720
" />
<path d="M52716 48370
L53764 48370
" />
<path d="M51560 48019
L51739 48019
" />
<path d="M51560 47720
L51739 47720
" />
<path d="M52560 48019
L52716 48019
" />
<path d="M52560 47720
L52716 47720
" />
<path d="M56126 48019
L53764 48019
" />
<path d="M56126 47720
L56126 48019
" />
<path d="M53764 47720
L56126 47720
" />
<path d="M52716 47370
L53764 47370
" />
<path d="M51560 47019
L51739 47019
" />
<path d="M51560 46720
L51739 46720
" />
<path d="M52560 47019
L52716 47019
" />
<path d="M52560 46720
L52716 46720
" />
<path d="M56126 47019
L53764 47019
" />
<path d="M56126 46720
L56126 47019
" />
<path d="M53764 46720
L56126 46720
" />
<path d="M52716 46370
L53764 46370
" />
<path d="M51560 46019
L51739 46019
" />
<path d="M51560 45720
L51739 45720
" />
<path d="M52560 46019
L52716 46019
" />
<path d="M52560 45720
L52716 45720
" />
<path d="M56126 46019
L53764 46019
" />
<path d="M56126 45720
L56126 46019
" />
<path d="M53764 45720
L56126 45720
" />
<path d="M52716 45370
L53764 45370
" />
<path d="M51587 45019
L51739 45019
" />
<path d="M51587 44720
L51739 44720
" />
<path d="M52560 45019
L52716 45019
" />
<path d="M52560 44720
L52716 44720
" />
<path d="M53764 44980
L56126 44980
" />
<path d="M53764 44933
L56126 44933
" />
<path d="M53764 44885
L56126 44885
" />
<path d="M53764 44838
L56126 44838
" />
<path d="M53764 44791
L56126 44791
" />
<path d="M53764 44744
L56126 44744
" />
<path d="M56126 45019
L53764 45019
" />
<path d="M56126 44720
L56126 45019
" />
<path d="M53764 44720
L56126 44720
" />
<path d="M53764 44346
L52716 44346
" />
<path d="M53764 53393
L53764 44346
" />
<path d="M52716 53393
L53764 53393
" />
<path d="M52716 44346
L52716 53393
" />
<path d="M39626 44346
L40150 44346
" />
<path d="M39626 44870
L39626 44346
" />
<path d="M39626 45370
L40673 45370
" />
<path d="M40673 45370
L40673 53393
" />
<path d="M39626 45370
L39626 53393
" />
<path d="M39626 53393
L40673 53393
" />
<path d="M41912 40094
L42235 40094
" />
<path d="M41912 40417
L41912 40094
" />
<path d="M49487 40094
L49164 40094
" />
<path d="M41912 53882
L41912 54205
" />
<path d="M42235 54205
L41912 54205
" />
<path d="M49487 53882
L49487 54205
" />
<path d="M49164 54205
L49487 54205
" />
<g >
</g>
<g >
</g>
<g >
</g>
<g >
</g>
<g >
</g>
<g >
</g>
<g >
</g>
<g >
</g>
<g >
</g>
<g >
</g>
<g >
</g>
<g >
</g>
<g >
</g>
<g >
</g>
</g>
<g style="fill:#000000; fill-opacity:0.0; 
stroke:#000000; stroke-width:47.2441; stroke-opacity:1; 
stroke-linecap:round; stroke-linejoin:round;">
</g>
<g style="fill:#000000; fill-opacity:0.0; 
stroke:#000000; stroke-width:59.0551; stroke-opacity:1; 
stroke-linecap:round; stroke-linejoin:round;">
<g transform="rotate(-90 51909.8 57387)">
<text x="51909.8" y="57583.9"
textLength="738.892" font-size="524.934" lengthAdjust="spacingAndGlyphs"
text-anchor="middle" opacity="0">J4</text>
</g>
<path d="M51694 57518
L51975 57518
L52031 57536
L52069 57574
L52087 57630
L52087 57668
" />
<path d="M51825 57162
L52087 57162
" />
<path d="M51675 57255
L51956 57349
L51956 57105
" />
<text x="42300" y="55397.2"
textLength="845.426" font-size="524.934" lengthAdjust="spacingAndGlyphs"
text-anchor="middle" opacity="0">R3</text>
<path d="M42234 55378
L42103 55191
" />
<path d="M42009 55378
L42009 54984
L42159 54984
L42196 55003
L42215 55022
L42234 55059
L42234 55116
L42215 55153
L42196 55172
L42159 55191
L42009 55191
" />
<path d="M42365 54984
L42609 54984
L42478 55134
L42534 55134
L42571 55153
L42590 55172
L42609 55209
L42609 55303
L42590 55341
L42571 55359
L42534 55378
L42421 55378
L42384 55359
L42365 55341
" />
<text x="40700" y="54597.2"
textLength="845.426" font-size="524.934" lengthAdjust="spacingAndGlyphs"
text-anchor="middle" opacity="0">R2</text>
<path d="M40634 54578
L40503 54391
" />
<path d="M40409 54578
L40409 54184
L40559 54184
L40596 54203
L40615 54222
L40634 54259
L40634 54316
L40615 54353
L40596 54372
L40559 54391
L40409 54391
" />
<path d="M40784 54222
L40803 54203
L40840 54184
L40934 54184
L40971 54203
L40990 54222
L41009 54259
L41009 54297
L40990 54353
L40765 54578
L41009 54578
" />
<text x="47050" y="55397.2"
textLength="770.435" font-size="524.934" lengthAdjust="spacingAndGlyphs"
text-anchor="middle" opacity="0">L2</text>
<path d="M46984 55378
L46796 55378
L46796 54984
" />
<path d="M47096 55022
L47115 55003
L47153 54984
L47246 54984
L47284 55003
L47303 55022
L47321 55059
L47321 55097
L47303 55153
L47078 55378
L47321 55378
" />
<text x="44700" y="55447.2"
textLength="770.435" font-size="524.934" lengthAdjust="spacingAndGlyphs"
text-anchor="middle" opacity="0">L1</text>
<path d="M44634 55428
L44446 55428
L44446 55034
" />
<path d="M44971 55428
L44746 55428
" />
<path d="M44859 55428
L44859 55034
L44821 55091
L44784 55128
L44746 55147
" />
<g transform="rotate(-90 48849.6 57050)">
<text x="48849.6" y="57246.9"
textLength="845.426" font-size="524.934" lengthAdjust="spacingAndGlyphs"
text-anchor="middle" opacity="0">C3</text>
</g>
<path d="M48990 57115
L49008 57134
L49027 57190
L49027 57228
L49008 57284
L48971 57321
L48933 57340
L48858 57359
L48802 57359
L48727 57340
L48690 57321
L48652 57284
L48634 57228
L48634 57190
L48652 57134
L48671 57115
" />
<path d="M48634 56984
L48634 56740
L48783 56871
L48783 56815
L48802 56778
L48821 56759
L48858 56740
L48952 56740
L48990 56759
L49008 56778
L49027 56815
L49027 56928
L49008 56965
L48990 56984
" />
<g transform="rotate(-90 46549.6 57050)">
<text x="46549.6" y="57246.9"
textLength="845.426" font-size="524.934" lengthAdjust="spacingAndGlyphs"
text-anchor="middle" opacity="0">C2</text>
</g>
<path d="M46690 57115
L46708 57134
L46727 57190
L46727 57228
L46708 57284
L46671 57321
L46633 57340
L46558 57359
L46502 57359
L46427 57340
L46390 57321
L46352 57284
L46334 57228
L46334 57190
L46352 57134
L46371 57115
" />
<path d="M46371 56965
L46352 56946
L46334 56909
L46334 56815
L46352 56778
L46371 56759
L46408 56740
L46446 56740
L46502 56759
L46727 56984
L46727 56740
" />
<g transform="rotate(-90 44099.6 57050)">
<text x="44099.6" y="57246.9"
textLength="845.426" font-size="524.934" lengthAdjust="spacingAndGlyphs"
text-anchor="middle" opacity="0">C1</text>
</g>
<path d="M44240 57115
L44258 57134
L44277 57190
L44277 57228
L44258 57284
L44221 57321
L44183 57340
L44108 57359
L44052 57359
L43977 57340
L43940 57321
L43902 57284
L43884 57228
L43884 57190
L43902 57134
L43921 57115
" />
<path d="M44277 56740
L44277 56965
" />
<path d="M44277 56853
L43884 56853
L43940 56890
L43977 56928
L43996 56965
" />
<text x="40700" y="55397.2"
textLength="845.426" font-size="524.934" lengthAdjust="spacingAndGlyphs"
text-anchor="middle" opacity="0">R1</text>
<path d="M40634 55378
L40503 55191
" />
<path d="M40409 55378
L40409 54984
L40559 54984
L40596 55003
L40615 55022
L40634 55059
L40634 55116
L40615 55153
L40596 55172
L40559 55191
L40409 55191
" />
<path d="M41009 55378
L40784 55378
" />
<path d="M40896 55378
L40896 54984
L40859 55041
L40821 55078
L40784 55097
" />
<g transform="rotate(-90 42007.9 57387)">
<text x="42007.9" y="57583.9"
textLength="751.687" font-size="524.934" lengthAdjust="spacingAndGlyphs"
text-anchor="middle" opacity="0">J3</text>
</g>
<path d="M41792 57518
L42073 57518
L42129 57536
L42167 57574
L42185 57630
L42185 57668
" />
<path d="M41792 57368
L41792 57124
L41942 57255
L41942 57199
L41961 57162
L41979 57143
L42017 57124
L42110 57124
L42148 57143
L42167 57162
L42185 57199
L42185 57312
L42167 57349
L42148 57368
" />
<text x="51650" y="53996.9"
textLength="751.687" font-size="524.934" lengthAdjust="spacingAndGlyphs"
text-anchor="middle" opacity="0">J2</text>
<path d="M51518 53584
L51518 53865
L51500 53921
L51462 53959
L51406 53978
L51368 53978
" />
<path d="M51687 53621
L51706 53603
L51743 53584
L51837 53584
L51874 53603
L51893 53621
L51912 53659
L51912 53696
L51893 53753
L51668 53978
L51912 53978
" />
<text x="39950" y="53896.9"
textLength="751.687" font-size="524.934" lengthAdjust="spacingAndGlyphs"
text-anchor="middle" opacity="0">J1</text>
<path d="M39818 53484
L39818 53765
L39800 53821
L39762 53859
L39706 53878
L39668 53878
" />
<path d="M40212 53878
L39987 53878
" />
<path d="M40099 53878
L40099 53484
L40062 53540
L40024 53578
L39987 53596
" />
<text x="41200" y="39896.9"
textLength="864.173" font-size="524.934" lengthAdjust="spacingAndGlyphs"
text-anchor="middle" opacity="0">U1</text>
<path d="M40900 39484
L40900 39803
L40918 39840
L40937 39859
L40975 39878
L41050 39878
L41087 39859
L41106 39840
L41125 39803
L41125 39484
" />
<path d="M41518 39878
L41293 39878
" />
<path d="M41406 39878
L41406 39484
L41368 39540
L41331 39578
L41293 39596
" />
<g >
</g>
</g> 
</svg>
