G04 #@! TF.GenerationSoftware,KiCad,Pcbnew,5.1.5+dfsg1-2build2*
G04 #@! TF.CreationDate,2021-10-04T21:53:14-05:00*
G04 #@! TF.ProjectId,SA818_DIL,53413831-385f-4444-994c-2e6b69636164,rev?*
G04 #@! TF.SameCoordinates,Original*
G04 #@! TF.FileFunction,Soldermask,Top*
G04 #@! TF.FilePolarity,Negative*
%FSLAX46Y46*%
G04 Gerber Fmt 4.6, Leading zero omitted, Abs format (unit mm)*
G04 Created by KiCad (PCBNEW 5.1.5+dfsg1-2build2) date 2021-10-04 21:53:14*
%MOMM*%
%LPD*%
G04 APERTURE LIST*
%ADD10C,0.100000*%
G04 APERTURE END LIST*
D10*
G36*
X102601000Y-146914000D02*
G01*
X101449000Y-146914000D01*
X101449000Y-144612000D01*
X102601000Y-144612000D01*
X102601000Y-146914000D01*
G37*
G36*
X127752000Y-146914000D02*
G01*
X126600000Y-146914000D01*
X126600000Y-144612000D01*
X127752000Y-144612000D01*
X127752000Y-146914000D01*
G37*
G36*
X130702000Y-146914000D02*
G01*
X129550000Y-146914000D01*
X129550000Y-144612000D01*
X130702000Y-144612000D01*
X130702000Y-146914000D01*
G37*
G36*
X105551000Y-146914000D02*
G01*
X104399000Y-146914000D01*
X104399000Y-144612000D01*
X105551000Y-144612000D01*
X105551000Y-146914000D01*
G37*
G36*
X110951674Y-145310465D02*
G01*
X110989367Y-145321899D01*
X111024103Y-145340466D01*
X111054548Y-145365452D01*
X111079534Y-145395897D01*
X111098101Y-145430633D01*
X111109535Y-145468326D01*
X111114000Y-145513661D01*
X111114000Y-146350339D01*
X111109535Y-146395674D01*
X111098101Y-146433367D01*
X111079534Y-146468103D01*
X111054548Y-146498548D01*
X111024103Y-146523534D01*
X110989367Y-146542101D01*
X110951674Y-146553535D01*
X110906339Y-146558000D01*
X109819661Y-146558000D01*
X109774326Y-146553535D01*
X109736633Y-146542101D01*
X109701897Y-146523534D01*
X109671452Y-146498548D01*
X109646466Y-146468103D01*
X109627899Y-146433367D01*
X109616465Y-146395674D01*
X109612000Y-146350339D01*
X109612000Y-145513661D01*
X109616465Y-145468326D01*
X109627899Y-145430633D01*
X109646466Y-145395897D01*
X109671452Y-145365452D01*
X109701897Y-145340466D01*
X109736633Y-145321899D01*
X109774326Y-145310465D01*
X109819661Y-145306000D01*
X110906339Y-145306000D01*
X110951674Y-145310465D01*
G37*
G36*
X117174674Y-145310465D02*
G01*
X117212367Y-145321899D01*
X117247103Y-145340466D01*
X117277548Y-145365452D01*
X117302534Y-145395897D01*
X117321101Y-145430633D01*
X117332535Y-145468326D01*
X117337000Y-145513661D01*
X117337000Y-146350339D01*
X117332535Y-146395674D01*
X117321101Y-146433367D01*
X117302534Y-146468103D01*
X117277548Y-146498548D01*
X117247103Y-146523534D01*
X117212367Y-146542101D01*
X117174674Y-146553535D01*
X117129339Y-146558000D01*
X116042661Y-146558000D01*
X115997326Y-146553535D01*
X115959633Y-146542101D01*
X115924897Y-146523534D01*
X115894452Y-146498548D01*
X115869466Y-146468103D01*
X115850899Y-146433367D01*
X115839465Y-146395674D01*
X115835000Y-146350339D01*
X115835000Y-145513661D01*
X115839465Y-145468326D01*
X115850899Y-145430633D01*
X115869466Y-145395897D01*
X115894452Y-145365452D01*
X115924897Y-145340466D01*
X115959633Y-145321899D01*
X115997326Y-145310465D01*
X116042661Y-145306000D01*
X117129339Y-145306000D01*
X117174674Y-145310465D01*
G37*
G36*
X123016674Y-145310465D02*
G01*
X123054367Y-145321899D01*
X123089103Y-145340466D01*
X123119548Y-145365452D01*
X123144534Y-145395897D01*
X123163101Y-145430633D01*
X123174535Y-145468326D01*
X123179000Y-145513661D01*
X123179000Y-146350339D01*
X123174535Y-146395674D01*
X123163101Y-146433367D01*
X123144534Y-146468103D01*
X123119548Y-146498548D01*
X123089103Y-146523534D01*
X123054367Y-146542101D01*
X123016674Y-146553535D01*
X122971339Y-146558000D01*
X121884661Y-146558000D01*
X121839326Y-146553535D01*
X121801633Y-146542101D01*
X121766897Y-146523534D01*
X121736452Y-146498548D01*
X121711466Y-146468103D01*
X121692899Y-146433367D01*
X121681465Y-146395674D01*
X121677000Y-146350339D01*
X121677000Y-145513661D01*
X121681465Y-145468326D01*
X121692899Y-145430633D01*
X121711466Y-145395897D01*
X121736452Y-145365452D01*
X121766897Y-145340466D01*
X121801633Y-145321899D01*
X121839326Y-145310465D01*
X121884661Y-145306000D01*
X122971339Y-145306000D01*
X123016674Y-145310465D01*
G37*
G36*
X129202000Y-144814000D02*
G01*
X128100000Y-144814000D01*
X128100000Y-143662000D01*
X129202000Y-143662000D01*
X129202000Y-144814000D01*
G37*
G36*
X104051000Y-144814000D02*
G01*
X102949000Y-144814000D01*
X102949000Y-143662000D01*
X104051000Y-143662000D01*
X104051000Y-144814000D01*
G37*
G36*
X110951674Y-143260465D02*
G01*
X110989367Y-143271899D01*
X111024103Y-143290466D01*
X111054548Y-143315452D01*
X111079534Y-143345897D01*
X111098101Y-143380633D01*
X111109535Y-143418326D01*
X111114000Y-143463661D01*
X111114000Y-144300339D01*
X111109535Y-144345674D01*
X111098101Y-144383367D01*
X111079534Y-144418103D01*
X111054548Y-144448548D01*
X111024103Y-144473534D01*
X110989367Y-144492101D01*
X110951674Y-144503535D01*
X110906339Y-144508000D01*
X109819661Y-144508000D01*
X109774326Y-144503535D01*
X109736633Y-144492101D01*
X109701897Y-144473534D01*
X109671452Y-144448548D01*
X109646466Y-144418103D01*
X109627899Y-144383367D01*
X109616465Y-144345674D01*
X109612000Y-144300339D01*
X109612000Y-143463661D01*
X109616465Y-143418326D01*
X109627899Y-143380633D01*
X109646466Y-143345897D01*
X109671452Y-143315452D01*
X109701897Y-143290466D01*
X109736633Y-143271899D01*
X109774326Y-143260465D01*
X109819661Y-143256000D01*
X110906339Y-143256000D01*
X110951674Y-143260465D01*
G37*
G36*
X117174674Y-143260465D02*
G01*
X117212367Y-143271899D01*
X117247103Y-143290466D01*
X117277548Y-143315452D01*
X117302534Y-143345897D01*
X117321101Y-143380633D01*
X117332535Y-143418326D01*
X117337000Y-143463661D01*
X117337000Y-144300339D01*
X117332535Y-144345674D01*
X117321101Y-144383367D01*
X117302534Y-144418103D01*
X117277548Y-144448548D01*
X117247103Y-144473534D01*
X117212367Y-144492101D01*
X117174674Y-144503535D01*
X117129339Y-144508000D01*
X116042661Y-144508000D01*
X115997326Y-144503535D01*
X115959633Y-144492101D01*
X115924897Y-144473534D01*
X115894452Y-144448548D01*
X115869466Y-144418103D01*
X115850899Y-144383367D01*
X115839465Y-144345674D01*
X115835000Y-144300339D01*
X115835000Y-143463661D01*
X115839465Y-143418326D01*
X115850899Y-143380633D01*
X115869466Y-143345897D01*
X115894452Y-143315452D01*
X115924897Y-143290466D01*
X115959633Y-143271899D01*
X115997326Y-143260465D01*
X116042661Y-143256000D01*
X117129339Y-143256000D01*
X117174674Y-143260465D01*
G37*
G36*
X123016674Y-143260465D02*
G01*
X123054367Y-143271899D01*
X123089103Y-143290466D01*
X123119548Y-143315452D01*
X123144534Y-143345897D01*
X123163101Y-143380633D01*
X123174535Y-143418326D01*
X123179000Y-143463661D01*
X123179000Y-144300339D01*
X123174535Y-144345674D01*
X123163101Y-144383367D01*
X123144534Y-144418103D01*
X123119548Y-144448548D01*
X123089103Y-144473534D01*
X123054367Y-144492101D01*
X123016674Y-144503535D01*
X122971339Y-144508000D01*
X121884661Y-144508000D01*
X121839326Y-144503535D01*
X121801633Y-144492101D01*
X121766897Y-144473534D01*
X121736452Y-144448548D01*
X121711466Y-144418103D01*
X121692899Y-144383367D01*
X121681465Y-144345674D01*
X121677000Y-144300339D01*
X121677000Y-143463661D01*
X121681465Y-143418326D01*
X121692899Y-143380633D01*
X121711466Y-143345897D01*
X121736452Y-143315452D01*
X121766897Y-143290466D01*
X121801633Y-143271899D01*
X121839326Y-143260465D01*
X121884661Y-143256000D01*
X122971339Y-143256000D01*
X123016674Y-143260465D01*
G37*
G36*
X115026674Y-141239465D02*
G01*
X115064367Y-141250899D01*
X115099103Y-141269466D01*
X115129548Y-141294452D01*
X115154534Y-141324897D01*
X115173101Y-141359633D01*
X115184535Y-141397326D01*
X115189000Y-141442661D01*
X115189000Y-142529339D01*
X115184535Y-142574674D01*
X115173101Y-142612367D01*
X115154534Y-142647103D01*
X115129548Y-142677548D01*
X115099103Y-142702534D01*
X115064367Y-142721101D01*
X115026674Y-142732535D01*
X114981339Y-142737000D01*
X114144661Y-142737000D01*
X114099326Y-142732535D01*
X114061633Y-142721101D01*
X114026897Y-142702534D01*
X113996452Y-142677548D01*
X113971466Y-142647103D01*
X113952899Y-142612367D01*
X113941465Y-142574674D01*
X113937000Y-142529339D01*
X113937000Y-141442661D01*
X113941465Y-141397326D01*
X113952899Y-141359633D01*
X113971466Y-141324897D01*
X113996452Y-141294452D01*
X114026897Y-141269466D01*
X114061633Y-141250899D01*
X114099326Y-141239465D01*
X114144661Y-141235000D01*
X114981339Y-141235000D01*
X115026674Y-141239465D01*
G37*
G36*
X112976674Y-141239465D02*
G01*
X113014367Y-141250899D01*
X113049103Y-141269466D01*
X113079548Y-141294452D01*
X113104534Y-141324897D01*
X113123101Y-141359633D01*
X113134535Y-141397326D01*
X113139000Y-141442661D01*
X113139000Y-142529339D01*
X113134535Y-142574674D01*
X113123101Y-142612367D01*
X113104534Y-142647103D01*
X113079548Y-142677548D01*
X113049103Y-142702534D01*
X113014367Y-142721101D01*
X112976674Y-142732535D01*
X112931339Y-142737000D01*
X112094661Y-142737000D01*
X112049326Y-142732535D01*
X112011633Y-142721101D01*
X111976897Y-142702534D01*
X111946452Y-142677548D01*
X111921466Y-142647103D01*
X111902899Y-142612367D01*
X111891465Y-142574674D01*
X111887000Y-142529339D01*
X111887000Y-141442661D01*
X111891465Y-141397326D01*
X111902899Y-141359633D01*
X111921466Y-141324897D01*
X111946452Y-141294452D01*
X111976897Y-141269466D01*
X112011633Y-141250899D01*
X112049326Y-141239465D01*
X112094661Y-141235000D01*
X112931339Y-141235000D01*
X112976674Y-141239465D01*
G37*
G36*
X118945674Y-141112465D02*
G01*
X118983367Y-141123899D01*
X119018103Y-141142466D01*
X119048548Y-141167452D01*
X119073534Y-141197897D01*
X119092101Y-141232633D01*
X119103535Y-141270326D01*
X119108000Y-141315661D01*
X119108000Y-142402339D01*
X119103535Y-142447674D01*
X119092101Y-142485367D01*
X119073534Y-142520103D01*
X119048548Y-142550548D01*
X119018103Y-142575534D01*
X118983367Y-142594101D01*
X118945674Y-142605535D01*
X118900339Y-142610000D01*
X118063661Y-142610000D01*
X118018326Y-142605535D01*
X117980633Y-142594101D01*
X117945897Y-142575534D01*
X117915452Y-142550548D01*
X117890466Y-142520103D01*
X117871899Y-142485367D01*
X117860465Y-142447674D01*
X117856000Y-142402339D01*
X117856000Y-141315661D01*
X117860465Y-141270326D01*
X117871899Y-141232633D01*
X117890466Y-141197897D01*
X117915452Y-141167452D01*
X117945897Y-141142466D01*
X117980633Y-141123899D01*
X118018326Y-141112465D01*
X118063661Y-141108000D01*
X118900339Y-141108000D01*
X118945674Y-141112465D01*
G37*
G36*
X108930674Y-141112465D02*
G01*
X108968367Y-141123899D01*
X109003103Y-141142466D01*
X109033548Y-141167452D01*
X109058534Y-141197897D01*
X109077101Y-141232633D01*
X109088535Y-141270326D01*
X109093000Y-141315661D01*
X109093000Y-142402339D01*
X109088535Y-142447674D01*
X109077101Y-142485367D01*
X109058534Y-142520103D01*
X109033548Y-142550548D01*
X109003103Y-142575534D01*
X108968367Y-142594101D01*
X108930674Y-142605535D01*
X108885339Y-142610000D01*
X108048661Y-142610000D01*
X108003326Y-142605535D01*
X107965633Y-142594101D01*
X107930897Y-142575534D01*
X107900452Y-142550548D01*
X107875466Y-142520103D01*
X107856899Y-142485367D01*
X107845465Y-142447674D01*
X107841000Y-142402339D01*
X107841000Y-141315661D01*
X107845465Y-141270326D01*
X107856899Y-141232633D01*
X107875466Y-141197897D01*
X107900452Y-141167452D01*
X107930897Y-141142466D01*
X107965633Y-141123899D01*
X108003326Y-141112465D01*
X108048661Y-141108000D01*
X108885339Y-141108000D01*
X108930674Y-141112465D01*
G37*
G36*
X120995674Y-141112465D02*
G01*
X121033367Y-141123899D01*
X121068103Y-141142466D01*
X121098548Y-141167452D01*
X121123534Y-141197897D01*
X121142101Y-141232633D01*
X121153535Y-141270326D01*
X121158000Y-141315661D01*
X121158000Y-142402339D01*
X121153535Y-142447674D01*
X121142101Y-142485367D01*
X121123534Y-142520103D01*
X121098548Y-142550548D01*
X121068103Y-142575534D01*
X121033367Y-142594101D01*
X120995674Y-142605535D01*
X120950339Y-142610000D01*
X120113661Y-142610000D01*
X120068326Y-142605535D01*
X120030633Y-142594101D01*
X119995897Y-142575534D01*
X119965452Y-142550548D01*
X119940466Y-142520103D01*
X119921899Y-142485367D01*
X119910465Y-142447674D01*
X119906000Y-142402339D01*
X119906000Y-141315661D01*
X119910465Y-141270326D01*
X119921899Y-141232633D01*
X119940466Y-141197897D01*
X119965452Y-141167452D01*
X119995897Y-141142466D01*
X120030633Y-141123899D01*
X120068326Y-141112465D01*
X120113661Y-141108000D01*
X120950339Y-141108000D01*
X120995674Y-141112465D01*
G37*
G36*
X106880674Y-141112465D02*
G01*
X106918367Y-141123899D01*
X106953103Y-141142466D01*
X106983548Y-141167452D01*
X107008534Y-141197897D01*
X107027101Y-141232633D01*
X107038535Y-141270326D01*
X107043000Y-141315661D01*
X107043000Y-142402339D01*
X107038535Y-142447674D01*
X107027101Y-142485367D01*
X107008534Y-142520103D01*
X106983548Y-142550548D01*
X106953103Y-142575534D01*
X106918367Y-142594101D01*
X106880674Y-142605535D01*
X106835339Y-142610000D01*
X105998661Y-142610000D01*
X105953326Y-142605535D01*
X105915633Y-142594101D01*
X105880897Y-142575534D01*
X105850452Y-142550548D01*
X105825466Y-142520103D01*
X105806899Y-142485367D01*
X105795465Y-142447674D01*
X105791000Y-142402339D01*
X105791000Y-141315661D01*
X105795465Y-141270326D01*
X105806899Y-141232633D01*
X105825466Y-141197897D01*
X105850452Y-141167452D01*
X105880897Y-141142466D01*
X105915633Y-141123899D01*
X105953326Y-141112465D01*
X105998661Y-141108000D01*
X106835339Y-141108000D01*
X106880674Y-141112465D01*
G37*
G36*
X102816674Y-141112465D02*
G01*
X102854367Y-141123899D01*
X102889103Y-141142466D01*
X102919548Y-141167452D01*
X102944534Y-141197897D01*
X102963101Y-141232633D01*
X102974535Y-141270326D01*
X102979000Y-141315661D01*
X102979000Y-142402339D01*
X102974535Y-142447674D01*
X102963101Y-142485367D01*
X102944534Y-142520103D01*
X102919548Y-142550548D01*
X102889103Y-142575534D01*
X102854367Y-142594101D01*
X102816674Y-142605535D01*
X102771339Y-142610000D01*
X101934661Y-142610000D01*
X101889326Y-142605535D01*
X101851633Y-142594101D01*
X101816897Y-142575534D01*
X101786452Y-142550548D01*
X101761466Y-142520103D01*
X101742899Y-142485367D01*
X101731465Y-142447674D01*
X101727000Y-142402339D01*
X101727000Y-141315661D01*
X101731465Y-141270326D01*
X101742899Y-141232633D01*
X101761466Y-141197897D01*
X101786452Y-141167452D01*
X101816897Y-141142466D01*
X101851633Y-141123899D01*
X101889326Y-141112465D01*
X101934661Y-141108000D01*
X102771339Y-141108000D01*
X102816674Y-141112465D01*
G37*
G36*
X104866674Y-141112465D02*
G01*
X104904367Y-141123899D01*
X104939103Y-141142466D01*
X104969548Y-141167452D01*
X104994534Y-141197897D01*
X105013101Y-141232633D01*
X105024535Y-141270326D01*
X105029000Y-141315661D01*
X105029000Y-142402339D01*
X105024535Y-142447674D01*
X105013101Y-142485367D01*
X104994534Y-142520103D01*
X104969548Y-142550548D01*
X104939103Y-142575534D01*
X104904367Y-142594101D01*
X104866674Y-142605535D01*
X104821339Y-142610000D01*
X103984661Y-142610000D01*
X103939326Y-142605535D01*
X103901633Y-142594101D01*
X103866897Y-142575534D01*
X103836452Y-142550548D01*
X103811466Y-142520103D01*
X103792899Y-142485367D01*
X103781465Y-142447674D01*
X103777000Y-142402339D01*
X103777000Y-141315661D01*
X103781465Y-141270326D01*
X103792899Y-141232633D01*
X103811466Y-141197897D01*
X103836452Y-141167452D01*
X103866897Y-141142466D01*
X103901633Y-141123899D01*
X103939326Y-141112465D01*
X103984661Y-141108000D01*
X104821339Y-141108000D01*
X104866674Y-141112465D01*
G37*
G36*
X104866674Y-139080465D02*
G01*
X104904367Y-139091899D01*
X104939103Y-139110466D01*
X104969548Y-139135452D01*
X104994534Y-139165897D01*
X105013101Y-139200633D01*
X105024535Y-139238326D01*
X105029000Y-139283661D01*
X105029000Y-140370339D01*
X105024535Y-140415674D01*
X105013101Y-140453367D01*
X104994534Y-140488103D01*
X104969548Y-140518548D01*
X104939103Y-140543534D01*
X104904367Y-140562101D01*
X104866674Y-140573535D01*
X104821339Y-140578000D01*
X103984661Y-140578000D01*
X103939326Y-140573535D01*
X103901633Y-140562101D01*
X103866897Y-140543534D01*
X103836452Y-140518548D01*
X103811466Y-140488103D01*
X103792899Y-140453367D01*
X103781465Y-140415674D01*
X103777000Y-140370339D01*
X103777000Y-139283661D01*
X103781465Y-139238326D01*
X103792899Y-139200633D01*
X103811466Y-139165897D01*
X103836452Y-139135452D01*
X103866897Y-139110466D01*
X103901633Y-139091899D01*
X103939326Y-139080465D01*
X103984661Y-139076000D01*
X104821339Y-139076000D01*
X104866674Y-139080465D01*
G37*
G36*
X102816674Y-139080465D02*
G01*
X102854367Y-139091899D01*
X102889103Y-139110466D01*
X102919548Y-139135452D01*
X102944534Y-139165897D01*
X102963101Y-139200633D01*
X102974535Y-139238326D01*
X102979000Y-139283661D01*
X102979000Y-140370339D01*
X102974535Y-140415674D01*
X102963101Y-140453367D01*
X102944534Y-140488103D01*
X102919548Y-140518548D01*
X102889103Y-140543534D01*
X102854367Y-140562101D01*
X102816674Y-140573535D01*
X102771339Y-140578000D01*
X101934661Y-140578000D01*
X101889326Y-140573535D01*
X101851633Y-140562101D01*
X101816897Y-140543534D01*
X101786452Y-140518548D01*
X101761466Y-140488103D01*
X101742899Y-140453367D01*
X101731465Y-140415674D01*
X101727000Y-140370339D01*
X101727000Y-139283661D01*
X101731465Y-139238326D01*
X101742899Y-139200633D01*
X101761466Y-139165897D01*
X101786452Y-139135452D01*
X101816897Y-139110466D01*
X101851633Y-139091899D01*
X101889326Y-139080465D01*
X101934661Y-139076000D01*
X102771339Y-139076000D01*
X102816674Y-139080465D01*
G37*
G36*
X110069000Y-138312000D02*
G01*
X108167000Y-138312000D01*
X108167000Y-135610000D01*
X110069000Y-135610000D01*
X110069000Y-138312000D01*
G37*
G36*
X114669000Y-138312000D02*
G01*
X112767000Y-138312000D01*
X112767000Y-135610000D01*
X114669000Y-135610000D01*
X114669000Y-138312000D01*
G37*
G36*
X119419000Y-138312000D02*
G01*
X117517000Y-138312000D01*
X117517000Y-135610000D01*
X119419000Y-135610000D01*
X119419000Y-138312000D01*
G37*
G36*
X123869000Y-138312000D02*
G01*
X121967000Y-138312000D01*
X121967000Y-135610000D01*
X123869000Y-135610000D01*
X123869000Y-138312000D01*
G37*
G36*
X102094512Y-133393927D02*
G01*
X102243812Y-133423624D01*
X102407784Y-133491544D01*
X102555354Y-133590147D01*
X102680853Y-133715646D01*
X102779456Y-133863216D01*
X102847376Y-134027188D01*
X102882000Y-134201259D01*
X102882000Y-134378741D01*
X102847376Y-134552812D01*
X102779456Y-134716784D01*
X102680853Y-134864354D01*
X102555354Y-134989853D01*
X102407784Y-135088456D01*
X102243812Y-135156376D01*
X102094512Y-135186073D01*
X102069742Y-135191000D01*
X101892258Y-135191000D01*
X101867488Y-135186073D01*
X101718188Y-135156376D01*
X101554216Y-135088456D01*
X101406646Y-134989853D01*
X101281147Y-134864354D01*
X101182544Y-134716784D01*
X101114624Y-134552812D01*
X101080000Y-134378741D01*
X101080000Y-134201259D01*
X101114624Y-134027188D01*
X101182544Y-133863216D01*
X101281147Y-133715646D01*
X101406646Y-133590147D01*
X101554216Y-133491544D01*
X101718188Y-133423624D01*
X101867488Y-133393927D01*
X101892258Y-133389000D01*
X102069742Y-133389000D01*
X102094512Y-133393927D01*
G37*
G36*
X130034512Y-133393927D02*
G01*
X130183812Y-133423624D01*
X130347784Y-133491544D01*
X130495354Y-133590147D01*
X130620853Y-133715646D01*
X130719456Y-133863216D01*
X130787376Y-134027188D01*
X130822000Y-134201259D01*
X130822000Y-134378741D01*
X130787376Y-134552812D01*
X130719456Y-134716784D01*
X130620853Y-134864354D01*
X130495354Y-134989853D01*
X130347784Y-135088456D01*
X130183812Y-135156376D01*
X130034512Y-135186073D01*
X130009742Y-135191000D01*
X129832258Y-135191000D01*
X129807488Y-135186073D01*
X129658188Y-135156376D01*
X129494216Y-135088456D01*
X129346646Y-134989853D01*
X129221147Y-134864354D01*
X129122544Y-134716784D01*
X129054624Y-134552812D01*
X129020000Y-134378741D01*
X129020000Y-134201259D01*
X129054624Y-134027188D01*
X129122544Y-133863216D01*
X129221147Y-133715646D01*
X129346646Y-133590147D01*
X129494216Y-133491544D01*
X129658188Y-133423624D01*
X129807488Y-133393927D01*
X129832258Y-133389000D01*
X130009742Y-133389000D01*
X130034512Y-133393927D01*
G37*
G36*
X132574512Y-133393927D02*
G01*
X132723812Y-133423624D01*
X132887784Y-133491544D01*
X133035354Y-133590147D01*
X133160853Y-133715646D01*
X133259456Y-133863216D01*
X133327376Y-134027188D01*
X133362000Y-134201259D01*
X133362000Y-134378741D01*
X133327376Y-134552812D01*
X133259456Y-134716784D01*
X133160853Y-134864354D01*
X133035354Y-134989853D01*
X132887784Y-135088456D01*
X132723812Y-135156376D01*
X132574512Y-135186073D01*
X132549742Y-135191000D01*
X132372258Y-135191000D01*
X132347488Y-135186073D01*
X132198188Y-135156376D01*
X132034216Y-135088456D01*
X131886646Y-134989853D01*
X131761147Y-134864354D01*
X131662544Y-134716784D01*
X131594624Y-134552812D01*
X131560000Y-134378741D01*
X131560000Y-134201259D01*
X131594624Y-134027188D01*
X131662544Y-133863216D01*
X131761147Y-133715646D01*
X131886646Y-133590147D01*
X132034216Y-133491544D01*
X132198188Y-133423624D01*
X132347488Y-133393927D01*
X132372258Y-133389000D01*
X132549742Y-133389000D01*
X132574512Y-133393927D01*
G37*
G36*
X108529000Y-134062000D02*
G01*
X105827000Y-134062000D01*
X105827000Y-132160000D01*
X108529000Y-132160000D01*
X108529000Y-134062000D01*
G37*
G36*
X126329000Y-134062000D02*
G01*
X123627000Y-134062000D01*
X123627000Y-132160000D01*
X126329000Y-132160000D01*
X126329000Y-134062000D01*
G37*
G36*
X102094512Y-130853927D02*
G01*
X102243812Y-130883624D01*
X102407784Y-130951544D01*
X102555354Y-131050147D01*
X102680853Y-131175646D01*
X102779456Y-131323216D01*
X102847376Y-131487188D01*
X102882000Y-131661259D01*
X102882000Y-131838741D01*
X102847376Y-132012812D01*
X102779456Y-132176784D01*
X102680853Y-132324354D01*
X102555354Y-132449853D01*
X102407784Y-132548456D01*
X102243812Y-132616376D01*
X102094512Y-132646073D01*
X102069742Y-132651000D01*
X101892258Y-132651000D01*
X101867488Y-132646073D01*
X101718188Y-132616376D01*
X101554216Y-132548456D01*
X101406646Y-132449853D01*
X101281147Y-132324354D01*
X101182544Y-132176784D01*
X101114624Y-132012812D01*
X101080000Y-131838741D01*
X101080000Y-131661259D01*
X101114624Y-131487188D01*
X101182544Y-131323216D01*
X101281147Y-131175646D01*
X101406646Y-131050147D01*
X101554216Y-130951544D01*
X101718188Y-130883624D01*
X101867488Y-130853927D01*
X101892258Y-130849000D01*
X102069742Y-130849000D01*
X102094512Y-130853927D01*
G37*
G36*
X130034512Y-130853927D02*
G01*
X130183812Y-130883624D01*
X130347784Y-130951544D01*
X130495354Y-131050147D01*
X130620853Y-131175646D01*
X130719456Y-131323216D01*
X130787376Y-131487188D01*
X130822000Y-131661259D01*
X130822000Y-131838741D01*
X130787376Y-132012812D01*
X130719456Y-132176784D01*
X130620853Y-132324354D01*
X130495354Y-132449853D01*
X130347784Y-132548456D01*
X130183812Y-132616376D01*
X130034512Y-132646073D01*
X130009742Y-132651000D01*
X129832258Y-132651000D01*
X129807488Y-132646073D01*
X129658188Y-132616376D01*
X129494216Y-132548456D01*
X129346646Y-132449853D01*
X129221147Y-132324354D01*
X129122544Y-132176784D01*
X129054624Y-132012812D01*
X129020000Y-131838741D01*
X129020000Y-131661259D01*
X129054624Y-131487188D01*
X129122544Y-131323216D01*
X129221147Y-131175646D01*
X129346646Y-131050147D01*
X129494216Y-130951544D01*
X129658188Y-130883624D01*
X129807488Y-130853927D01*
X129832258Y-130849000D01*
X130009742Y-130849000D01*
X130034512Y-130853927D01*
G37*
G36*
X132574512Y-130853927D02*
G01*
X132723812Y-130883624D01*
X132887784Y-130951544D01*
X133035354Y-131050147D01*
X133160853Y-131175646D01*
X133259456Y-131323216D01*
X133327376Y-131487188D01*
X133362000Y-131661259D01*
X133362000Y-131838741D01*
X133327376Y-132012812D01*
X133259456Y-132176784D01*
X133160853Y-132324354D01*
X133035354Y-132449853D01*
X132887784Y-132548456D01*
X132723812Y-132616376D01*
X132574512Y-132646073D01*
X132549742Y-132651000D01*
X132372258Y-132651000D01*
X132347488Y-132646073D01*
X132198188Y-132616376D01*
X132034216Y-132548456D01*
X131886646Y-132449853D01*
X131761147Y-132324354D01*
X131662544Y-132176784D01*
X131594624Y-132012812D01*
X131560000Y-131838741D01*
X131560000Y-131661259D01*
X131594624Y-131487188D01*
X131662544Y-131323216D01*
X131761147Y-131175646D01*
X131886646Y-131050147D01*
X132034216Y-130951544D01*
X132198188Y-130883624D01*
X132347488Y-130853927D01*
X132372258Y-130849000D01*
X132549742Y-130849000D01*
X132574512Y-130853927D01*
G37*
G36*
X132574512Y-128313927D02*
G01*
X132723812Y-128343624D01*
X132887784Y-128411544D01*
X133035354Y-128510147D01*
X133160853Y-128635646D01*
X133259456Y-128783216D01*
X133327376Y-128947188D01*
X133362000Y-129121259D01*
X133362000Y-129298741D01*
X133327376Y-129472812D01*
X133259456Y-129636784D01*
X133160853Y-129784354D01*
X133035354Y-129909853D01*
X132887784Y-130008456D01*
X132723812Y-130076376D01*
X132574512Y-130106073D01*
X132549742Y-130111000D01*
X132372258Y-130111000D01*
X132347488Y-130106073D01*
X132198188Y-130076376D01*
X132034216Y-130008456D01*
X131886646Y-129909853D01*
X131761147Y-129784354D01*
X131662544Y-129636784D01*
X131594624Y-129472812D01*
X131560000Y-129298741D01*
X131560000Y-129121259D01*
X131594624Y-128947188D01*
X131662544Y-128783216D01*
X131761147Y-128635646D01*
X131886646Y-128510147D01*
X132034216Y-128411544D01*
X132198188Y-128343624D01*
X132347488Y-128313927D01*
X132372258Y-128309000D01*
X132549742Y-128309000D01*
X132574512Y-128313927D01*
G37*
G36*
X130034512Y-128313927D02*
G01*
X130183812Y-128343624D01*
X130347784Y-128411544D01*
X130495354Y-128510147D01*
X130620853Y-128635646D01*
X130719456Y-128783216D01*
X130787376Y-128947188D01*
X130822000Y-129121259D01*
X130822000Y-129298741D01*
X130787376Y-129472812D01*
X130719456Y-129636784D01*
X130620853Y-129784354D01*
X130495354Y-129909853D01*
X130347784Y-130008456D01*
X130183812Y-130076376D01*
X130034512Y-130106073D01*
X130009742Y-130111000D01*
X129832258Y-130111000D01*
X129807488Y-130106073D01*
X129658188Y-130076376D01*
X129494216Y-130008456D01*
X129346646Y-129909853D01*
X129221147Y-129784354D01*
X129122544Y-129636784D01*
X129054624Y-129472812D01*
X129020000Y-129298741D01*
X129020000Y-129121259D01*
X129054624Y-128947188D01*
X129122544Y-128783216D01*
X129221147Y-128635646D01*
X129346646Y-128510147D01*
X129494216Y-128411544D01*
X129658188Y-128343624D01*
X129807488Y-128313927D01*
X129832258Y-128309000D01*
X130009742Y-128309000D01*
X130034512Y-128313927D01*
G37*
G36*
X102094512Y-128313927D02*
G01*
X102243812Y-128343624D01*
X102407784Y-128411544D01*
X102555354Y-128510147D01*
X102680853Y-128635646D01*
X102779456Y-128783216D01*
X102847376Y-128947188D01*
X102882000Y-129121259D01*
X102882000Y-129298741D01*
X102847376Y-129472812D01*
X102779456Y-129636784D01*
X102680853Y-129784354D01*
X102555354Y-129909853D01*
X102407784Y-130008456D01*
X102243812Y-130076376D01*
X102094512Y-130106073D01*
X102069742Y-130111000D01*
X101892258Y-130111000D01*
X101867488Y-130106073D01*
X101718188Y-130076376D01*
X101554216Y-130008456D01*
X101406646Y-129909853D01*
X101281147Y-129784354D01*
X101182544Y-129636784D01*
X101114624Y-129472812D01*
X101080000Y-129298741D01*
X101080000Y-129121259D01*
X101114624Y-128947188D01*
X101182544Y-128783216D01*
X101281147Y-128635646D01*
X101406646Y-128510147D01*
X101554216Y-128411544D01*
X101718188Y-128343624D01*
X101867488Y-128313927D01*
X101892258Y-128309000D01*
X102069742Y-128309000D01*
X102094512Y-128313927D01*
G37*
G36*
X126329000Y-129612000D02*
G01*
X123627000Y-129612000D01*
X123627000Y-127710000D01*
X126329000Y-127710000D01*
X126329000Y-129612000D01*
G37*
G36*
X108529000Y-129612000D02*
G01*
X105827000Y-129612000D01*
X105827000Y-127710000D01*
X108529000Y-127710000D01*
X108529000Y-129612000D01*
G37*
G36*
X102094512Y-125773927D02*
G01*
X102243812Y-125803624D01*
X102407784Y-125871544D01*
X102555354Y-125970147D01*
X102680853Y-126095646D01*
X102779456Y-126243216D01*
X102847376Y-126407188D01*
X102882000Y-126581259D01*
X102882000Y-126758741D01*
X102847376Y-126932812D01*
X102779456Y-127096784D01*
X102680853Y-127244354D01*
X102555354Y-127369853D01*
X102407784Y-127468456D01*
X102243812Y-127536376D01*
X102094512Y-127566073D01*
X102069742Y-127571000D01*
X101892258Y-127571000D01*
X101867488Y-127566073D01*
X101718188Y-127536376D01*
X101554216Y-127468456D01*
X101406646Y-127369853D01*
X101281147Y-127244354D01*
X101182544Y-127096784D01*
X101114624Y-126932812D01*
X101080000Y-126758741D01*
X101080000Y-126581259D01*
X101114624Y-126407188D01*
X101182544Y-126243216D01*
X101281147Y-126095646D01*
X101406646Y-125970147D01*
X101554216Y-125871544D01*
X101718188Y-125803624D01*
X101867488Y-125773927D01*
X101892258Y-125769000D01*
X102069742Y-125769000D01*
X102094512Y-125773927D01*
G37*
G36*
X132574512Y-125773927D02*
G01*
X132723812Y-125803624D01*
X132887784Y-125871544D01*
X133035354Y-125970147D01*
X133160853Y-126095646D01*
X133259456Y-126243216D01*
X133327376Y-126407188D01*
X133362000Y-126581259D01*
X133362000Y-126758741D01*
X133327376Y-126932812D01*
X133259456Y-127096784D01*
X133160853Y-127244354D01*
X133035354Y-127369853D01*
X132887784Y-127468456D01*
X132723812Y-127536376D01*
X132574512Y-127566073D01*
X132549742Y-127571000D01*
X132372258Y-127571000D01*
X132347488Y-127566073D01*
X132198188Y-127536376D01*
X132034216Y-127468456D01*
X131886646Y-127369853D01*
X131761147Y-127244354D01*
X131662544Y-127096784D01*
X131594624Y-126932812D01*
X131560000Y-126758741D01*
X131560000Y-126581259D01*
X131594624Y-126407188D01*
X131662544Y-126243216D01*
X131761147Y-126095646D01*
X131886646Y-125970147D01*
X132034216Y-125871544D01*
X132198188Y-125803624D01*
X132347488Y-125773927D01*
X132372258Y-125769000D01*
X132549742Y-125769000D01*
X132574512Y-125773927D01*
G37*
G36*
X130034512Y-125773927D02*
G01*
X130183812Y-125803624D01*
X130347784Y-125871544D01*
X130495354Y-125970147D01*
X130620853Y-126095646D01*
X130719456Y-126243216D01*
X130787376Y-126407188D01*
X130822000Y-126581259D01*
X130822000Y-126758741D01*
X130787376Y-126932812D01*
X130719456Y-127096784D01*
X130620853Y-127244354D01*
X130495354Y-127369853D01*
X130347784Y-127468456D01*
X130183812Y-127536376D01*
X130034512Y-127566073D01*
X130009742Y-127571000D01*
X129832258Y-127571000D01*
X129807488Y-127566073D01*
X129658188Y-127536376D01*
X129494216Y-127468456D01*
X129346646Y-127369853D01*
X129221147Y-127244354D01*
X129122544Y-127096784D01*
X129054624Y-126932812D01*
X129020000Y-126758741D01*
X129020000Y-126581259D01*
X129054624Y-126407188D01*
X129122544Y-126243216D01*
X129221147Y-126095646D01*
X129346646Y-125970147D01*
X129494216Y-125871544D01*
X129658188Y-125803624D01*
X129807488Y-125773927D01*
X129832258Y-125769000D01*
X130009742Y-125769000D01*
X130034512Y-125773927D01*
G37*
G36*
X108529000Y-125162000D02*
G01*
X105827000Y-125162000D01*
X105827000Y-123260000D01*
X108529000Y-123260000D01*
X108529000Y-125162000D01*
G37*
G36*
X126329000Y-125162000D02*
G01*
X123627000Y-125162000D01*
X123627000Y-123260000D01*
X126329000Y-123260000D01*
X126329000Y-125162000D01*
G37*
G36*
X102094512Y-123233927D02*
G01*
X102243812Y-123263624D01*
X102407784Y-123331544D01*
X102555354Y-123430147D01*
X102680853Y-123555646D01*
X102779456Y-123703216D01*
X102847376Y-123867188D01*
X102882000Y-124041259D01*
X102882000Y-124218741D01*
X102847376Y-124392812D01*
X102779456Y-124556784D01*
X102680853Y-124704354D01*
X102555354Y-124829853D01*
X102407784Y-124928456D01*
X102243812Y-124996376D01*
X102094512Y-125026073D01*
X102069742Y-125031000D01*
X101892258Y-125031000D01*
X101867488Y-125026073D01*
X101718188Y-124996376D01*
X101554216Y-124928456D01*
X101406646Y-124829853D01*
X101281147Y-124704354D01*
X101182544Y-124556784D01*
X101114624Y-124392812D01*
X101080000Y-124218741D01*
X101080000Y-124041259D01*
X101114624Y-123867188D01*
X101182544Y-123703216D01*
X101281147Y-123555646D01*
X101406646Y-123430147D01*
X101554216Y-123331544D01*
X101718188Y-123263624D01*
X101867488Y-123233927D01*
X101892258Y-123229000D01*
X102069742Y-123229000D01*
X102094512Y-123233927D01*
G37*
G36*
X130034512Y-123233927D02*
G01*
X130183812Y-123263624D01*
X130347784Y-123331544D01*
X130495354Y-123430147D01*
X130620853Y-123555646D01*
X130719456Y-123703216D01*
X130787376Y-123867188D01*
X130822000Y-124041259D01*
X130822000Y-124218741D01*
X130787376Y-124392812D01*
X130719456Y-124556784D01*
X130620853Y-124704354D01*
X130495354Y-124829853D01*
X130347784Y-124928456D01*
X130183812Y-124996376D01*
X130034512Y-125026073D01*
X130009742Y-125031000D01*
X129832258Y-125031000D01*
X129807488Y-125026073D01*
X129658188Y-124996376D01*
X129494216Y-124928456D01*
X129346646Y-124829853D01*
X129221147Y-124704354D01*
X129122544Y-124556784D01*
X129054624Y-124392812D01*
X129020000Y-124218741D01*
X129020000Y-124041259D01*
X129054624Y-123867188D01*
X129122544Y-123703216D01*
X129221147Y-123555646D01*
X129346646Y-123430147D01*
X129494216Y-123331544D01*
X129658188Y-123263624D01*
X129807488Y-123233927D01*
X129832258Y-123229000D01*
X130009742Y-123229000D01*
X130034512Y-123233927D01*
G37*
G36*
X132574512Y-123233927D02*
G01*
X132723812Y-123263624D01*
X132887784Y-123331544D01*
X133035354Y-123430147D01*
X133160853Y-123555646D01*
X133259456Y-123703216D01*
X133327376Y-123867188D01*
X133362000Y-124041259D01*
X133362000Y-124218741D01*
X133327376Y-124392812D01*
X133259456Y-124556784D01*
X133160853Y-124704354D01*
X133035354Y-124829853D01*
X132887784Y-124928456D01*
X132723812Y-124996376D01*
X132574512Y-125026073D01*
X132549742Y-125031000D01*
X132372258Y-125031000D01*
X132347488Y-125026073D01*
X132198188Y-124996376D01*
X132034216Y-124928456D01*
X131886646Y-124829853D01*
X131761147Y-124704354D01*
X131662544Y-124556784D01*
X131594624Y-124392812D01*
X131560000Y-124218741D01*
X131560000Y-124041259D01*
X131594624Y-123867188D01*
X131662544Y-123703216D01*
X131761147Y-123555646D01*
X131886646Y-123430147D01*
X132034216Y-123331544D01*
X132198188Y-123263624D01*
X132347488Y-123233927D01*
X132372258Y-123229000D01*
X132549742Y-123229000D01*
X132574512Y-123233927D01*
G37*
G36*
X132574512Y-120693927D02*
G01*
X132723812Y-120723624D01*
X132887784Y-120791544D01*
X133035354Y-120890147D01*
X133160853Y-121015646D01*
X133259456Y-121163216D01*
X133327376Y-121327188D01*
X133362000Y-121501259D01*
X133362000Y-121678741D01*
X133327376Y-121852812D01*
X133259456Y-122016784D01*
X133160853Y-122164354D01*
X133035354Y-122289853D01*
X132887784Y-122388456D01*
X132723812Y-122456376D01*
X132574512Y-122486073D01*
X132549742Y-122491000D01*
X132372258Y-122491000D01*
X132347488Y-122486073D01*
X132198188Y-122456376D01*
X132034216Y-122388456D01*
X131886646Y-122289853D01*
X131761147Y-122164354D01*
X131662544Y-122016784D01*
X131594624Y-121852812D01*
X131560000Y-121678741D01*
X131560000Y-121501259D01*
X131594624Y-121327188D01*
X131662544Y-121163216D01*
X131761147Y-121015646D01*
X131886646Y-120890147D01*
X132034216Y-120791544D01*
X132198188Y-120723624D01*
X132347488Y-120693927D01*
X132372258Y-120689000D01*
X132549742Y-120689000D01*
X132574512Y-120693927D01*
G37*
G36*
X102094512Y-120693927D02*
G01*
X102243812Y-120723624D01*
X102407784Y-120791544D01*
X102555354Y-120890147D01*
X102680853Y-121015646D01*
X102779456Y-121163216D01*
X102847376Y-121327188D01*
X102882000Y-121501259D01*
X102882000Y-121678741D01*
X102847376Y-121852812D01*
X102779456Y-122016784D01*
X102680853Y-122164354D01*
X102555354Y-122289853D01*
X102407784Y-122388456D01*
X102243812Y-122456376D01*
X102094512Y-122486073D01*
X102069742Y-122491000D01*
X101892258Y-122491000D01*
X101867488Y-122486073D01*
X101718188Y-122456376D01*
X101554216Y-122388456D01*
X101406646Y-122289853D01*
X101281147Y-122164354D01*
X101182544Y-122016784D01*
X101114624Y-121852812D01*
X101080000Y-121678741D01*
X101080000Y-121501259D01*
X101114624Y-121327188D01*
X101182544Y-121163216D01*
X101281147Y-121015646D01*
X101406646Y-120890147D01*
X101554216Y-120791544D01*
X101718188Y-120723624D01*
X101867488Y-120693927D01*
X101892258Y-120689000D01*
X102069742Y-120689000D01*
X102094512Y-120693927D01*
G37*
G36*
X130034512Y-120693927D02*
G01*
X130183812Y-120723624D01*
X130347784Y-120791544D01*
X130495354Y-120890147D01*
X130620853Y-121015646D01*
X130719456Y-121163216D01*
X130787376Y-121327188D01*
X130822000Y-121501259D01*
X130822000Y-121678741D01*
X130787376Y-121852812D01*
X130719456Y-122016784D01*
X130620853Y-122164354D01*
X130495354Y-122289853D01*
X130347784Y-122388456D01*
X130183812Y-122456376D01*
X130034512Y-122486073D01*
X130009742Y-122491000D01*
X129832258Y-122491000D01*
X129807488Y-122486073D01*
X129658188Y-122456376D01*
X129494216Y-122388456D01*
X129346646Y-122289853D01*
X129221147Y-122164354D01*
X129122544Y-122016784D01*
X129054624Y-121852812D01*
X129020000Y-121678741D01*
X129020000Y-121501259D01*
X129054624Y-121327188D01*
X129122544Y-121163216D01*
X129221147Y-121015646D01*
X129346646Y-120890147D01*
X129494216Y-120791544D01*
X129658188Y-120723624D01*
X129807488Y-120693927D01*
X129832258Y-120689000D01*
X130009742Y-120689000D01*
X130034512Y-120693927D01*
G37*
G36*
X126329000Y-120712000D02*
G01*
X123627000Y-120712000D01*
X123627000Y-118810000D01*
X126329000Y-118810000D01*
X126329000Y-120712000D01*
G37*
G36*
X108529000Y-120712000D02*
G01*
X105827000Y-120712000D01*
X105827000Y-118810000D01*
X108529000Y-118810000D01*
X108529000Y-120712000D01*
G37*
G36*
X132574512Y-118153927D02*
G01*
X132723812Y-118183624D01*
X132887784Y-118251544D01*
X133035354Y-118350147D01*
X133160853Y-118475646D01*
X133259456Y-118623216D01*
X133327376Y-118787188D01*
X133362000Y-118961259D01*
X133362000Y-119138741D01*
X133327376Y-119312812D01*
X133259456Y-119476784D01*
X133160853Y-119624354D01*
X133035354Y-119749853D01*
X132887784Y-119848456D01*
X132723812Y-119916376D01*
X132574512Y-119946073D01*
X132549742Y-119951000D01*
X132372258Y-119951000D01*
X132347488Y-119946073D01*
X132198188Y-119916376D01*
X132034216Y-119848456D01*
X131886646Y-119749853D01*
X131761147Y-119624354D01*
X131662544Y-119476784D01*
X131594624Y-119312812D01*
X131560000Y-119138741D01*
X131560000Y-118961259D01*
X131594624Y-118787188D01*
X131662544Y-118623216D01*
X131761147Y-118475646D01*
X131886646Y-118350147D01*
X132034216Y-118251544D01*
X132198188Y-118183624D01*
X132347488Y-118153927D01*
X132372258Y-118149000D01*
X132549742Y-118149000D01*
X132574512Y-118153927D01*
G37*
G36*
X130034512Y-118153927D02*
G01*
X130183812Y-118183624D01*
X130347784Y-118251544D01*
X130495354Y-118350147D01*
X130620853Y-118475646D01*
X130719456Y-118623216D01*
X130787376Y-118787188D01*
X130822000Y-118961259D01*
X130822000Y-119138741D01*
X130787376Y-119312812D01*
X130719456Y-119476784D01*
X130620853Y-119624354D01*
X130495354Y-119749853D01*
X130347784Y-119848456D01*
X130183812Y-119916376D01*
X130034512Y-119946073D01*
X130009742Y-119951000D01*
X129832258Y-119951000D01*
X129807488Y-119946073D01*
X129658188Y-119916376D01*
X129494216Y-119848456D01*
X129346646Y-119749853D01*
X129221147Y-119624354D01*
X129122544Y-119476784D01*
X129054624Y-119312812D01*
X129020000Y-119138741D01*
X129020000Y-118961259D01*
X129054624Y-118787188D01*
X129122544Y-118623216D01*
X129221147Y-118475646D01*
X129346646Y-118350147D01*
X129494216Y-118251544D01*
X129658188Y-118183624D01*
X129807488Y-118153927D01*
X129832258Y-118149000D01*
X130009742Y-118149000D01*
X130034512Y-118153927D01*
G37*
G36*
X102094512Y-118153927D02*
G01*
X102243812Y-118183624D01*
X102407784Y-118251544D01*
X102555354Y-118350147D01*
X102680853Y-118475646D01*
X102779456Y-118623216D01*
X102847376Y-118787188D01*
X102882000Y-118961259D01*
X102882000Y-119138741D01*
X102847376Y-119312812D01*
X102779456Y-119476784D01*
X102680853Y-119624354D01*
X102555354Y-119749853D01*
X102407784Y-119848456D01*
X102243812Y-119916376D01*
X102094512Y-119946073D01*
X102069742Y-119951000D01*
X101892258Y-119951000D01*
X101867488Y-119946073D01*
X101718188Y-119916376D01*
X101554216Y-119848456D01*
X101406646Y-119749853D01*
X101281147Y-119624354D01*
X101182544Y-119476784D01*
X101114624Y-119312812D01*
X101080000Y-119138741D01*
X101080000Y-118961259D01*
X101114624Y-118787188D01*
X101182544Y-118623216D01*
X101281147Y-118475646D01*
X101406646Y-118350147D01*
X101554216Y-118251544D01*
X101718188Y-118183624D01*
X101867488Y-118153927D01*
X101892258Y-118149000D01*
X102069742Y-118149000D01*
X102094512Y-118153927D01*
G37*
G36*
X130034512Y-115613927D02*
G01*
X130183812Y-115643624D01*
X130347784Y-115711544D01*
X130495354Y-115810147D01*
X130620853Y-115935646D01*
X130719456Y-116083216D01*
X130787376Y-116247188D01*
X130822000Y-116421259D01*
X130822000Y-116598741D01*
X130787376Y-116772812D01*
X130719456Y-116936784D01*
X130620853Y-117084354D01*
X130495354Y-117209853D01*
X130347784Y-117308456D01*
X130183812Y-117376376D01*
X130034512Y-117406073D01*
X130009742Y-117411000D01*
X129832258Y-117411000D01*
X129807488Y-117406073D01*
X129658188Y-117376376D01*
X129494216Y-117308456D01*
X129346646Y-117209853D01*
X129221147Y-117084354D01*
X129122544Y-116936784D01*
X129054624Y-116772812D01*
X129020000Y-116598741D01*
X129020000Y-116421259D01*
X129054624Y-116247188D01*
X129122544Y-116083216D01*
X129221147Y-115935646D01*
X129346646Y-115810147D01*
X129494216Y-115711544D01*
X129658188Y-115643624D01*
X129807488Y-115613927D01*
X129832258Y-115609000D01*
X130009742Y-115609000D01*
X130034512Y-115613927D01*
G37*
G36*
X132574512Y-115613927D02*
G01*
X132723812Y-115643624D01*
X132887784Y-115711544D01*
X133035354Y-115810147D01*
X133160853Y-115935646D01*
X133259456Y-116083216D01*
X133327376Y-116247188D01*
X133362000Y-116421259D01*
X133362000Y-116598741D01*
X133327376Y-116772812D01*
X133259456Y-116936784D01*
X133160853Y-117084354D01*
X133035354Y-117209853D01*
X132887784Y-117308456D01*
X132723812Y-117376376D01*
X132574512Y-117406073D01*
X132549742Y-117411000D01*
X132372258Y-117411000D01*
X132347488Y-117406073D01*
X132198188Y-117376376D01*
X132034216Y-117308456D01*
X131886646Y-117209853D01*
X131761147Y-117084354D01*
X131662544Y-116936784D01*
X131594624Y-116772812D01*
X131560000Y-116598741D01*
X131560000Y-116421259D01*
X131594624Y-116247188D01*
X131662544Y-116083216D01*
X131761147Y-115935646D01*
X131886646Y-115810147D01*
X132034216Y-115711544D01*
X132198188Y-115643624D01*
X132347488Y-115613927D01*
X132372258Y-115609000D01*
X132549742Y-115609000D01*
X132574512Y-115613927D01*
G37*
G36*
X102094512Y-115613927D02*
G01*
X102243812Y-115643624D01*
X102407784Y-115711544D01*
X102555354Y-115810147D01*
X102680853Y-115935646D01*
X102779456Y-116083216D01*
X102847376Y-116247188D01*
X102882000Y-116421259D01*
X102882000Y-116598741D01*
X102847376Y-116772812D01*
X102779456Y-116936784D01*
X102680853Y-117084354D01*
X102555354Y-117209853D01*
X102407784Y-117308456D01*
X102243812Y-117376376D01*
X102094512Y-117406073D01*
X102069742Y-117411000D01*
X101892258Y-117411000D01*
X101867488Y-117406073D01*
X101718188Y-117376376D01*
X101554216Y-117308456D01*
X101406646Y-117209853D01*
X101281147Y-117084354D01*
X101182544Y-116936784D01*
X101114624Y-116772812D01*
X101080000Y-116598741D01*
X101080000Y-116421259D01*
X101114624Y-116247188D01*
X101182544Y-116083216D01*
X101281147Y-115935646D01*
X101406646Y-115810147D01*
X101554216Y-115711544D01*
X101718188Y-115643624D01*
X101867488Y-115613927D01*
X101892258Y-115609000D01*
X102069742Y-115609000D01*
X102094512Y-115613927D01*
G37*
G36*
X126329000Y-116262000D02*
G01*
X123627000Y-116262000D01*
X123627000Y-114360000D01*
X126329000Y-114360000D01*
X126329000Y-116262000D01*
G37*
G36*
X108529000Y-115962000D02*
G01*
X105827000Y-115962000D01*
X105827000Y-114060000D01*
X108529000Y-114060000D01*
X108529000Y-115962000D01*
G37*
G36*
X130822000Y-114871000D02*
G01*
X129020000Y-114871000D01*
X129020000Y-113069000D01*
X130822000Y-113069000D01*
X130822000Y-114871000D01*
G37*
G36*
X102882000Y-114871000D02*
G01*
X101080000Y-114871000D01*
X101080000Y-113069000D01*
X102882000Y-113069000D01*
X102882000Y-114871000D01*
G37*
G36*
X132574512Y-113073927D02*
G01*
X132723812Y-113103624D01*
X132887784Y-113171544D01*
X133035354Y-113270147D01*
X133160853Y-113395646D01*
X133259456Y-113543216D01*
X133327376Y-113707188D01*
X133362000Y-113881259D01*
X133362000Y-114058741D01*
X133327376Y-114232812D01*
X133259456Y-114396784D01*
X133160853Y-114544354D01*
X133035354Y-114669853D01*
X132887784Y-114768456D01*
X132723812Y-114836376D01*
X132574512Y-114866073D01*
X132549742Y-114871000D01*
X132372258Y-114871000D01*
X132347488Y-114866073D01*
X132198188Y-114836376D01*
X132034216Y-114768456D01*
X131886646Y-114669853D01*
X131761147Y-114544354D01*
X131662544Y-114396784D01*
X131594624Y-114232812D01*
X131560000Y-114058741D01*
X131560000Y-113881259D01*
X131594624Y-113707188D01*
X131662544Y-113543216D01*
X131761147Y-113395646D01*
X131886646Y-113270147D01*
X132034216Y-113171544D01*
X132198188Y-113103624D01*
X132347488Y-113073927D01*
X132372258Y-113069000D01*
X132549742Y-113069000D01*
X132574512Y-113073927D01*
G37*
G36*
X126329000Y-111812000D02*
G01*
X123627000Y-111812000D01*
X123627000Y-109910000D01*
X126329000Y-109910000D01*
X126329000Y-111812000D01*
G37*
G36*
X108529000Y-111812000D02*
G01*
X105827000Y-111812000D01*
X105827000Y-109910000D01*
X108529000Y-109910000D01*
X108529000Y-111812000D01*
G37*
G36*
X108529000Y-107362000D02*
G01*
X105827000Y-107362000D01*
X105827000Y-105460000D01*
X108529000Y-105460000D01*
X108529000Y-107362000D01*
G37*
G36*
X126329000Y-107362000D02*
G01*
X123627000Y-107362000D01*
X123627000Y-105460000D01*
X126329000Y-105460000D01*
X126329000Y-107362000D01*
G37*
M02*
