G04 #@! TF.GenerationSoftware,KiCad,Pcbnew,5.1.5+dfsg1-2build2*
G04 #@! TF.CreationDate,2021-10-04T21:53:14-05:00*
G04 #@! TF.ProjectId,SA818_DIL,53413831-385f-4444-994c-2e6b69636164,rev?*
G04 #@! TF.SameCoordinates,Original*
G04 #@! TF.FileFunction,Legend,Top*
G04 #@! TF.FilePolarity,Positive*
%FSLAX46Y46*%
G04 Gerber Fmt 4.6, Leading zero omitted, Abs format (unit mm)*
G04 Created by KiCad (PCBNEW 5.1.5+dfsg1-2build2) date 2021-10-04 21:53:14*
%MOMM*%
%LPD*%
G04 APERTURE LIST*
%ADD10C,0.150000*%
%ADD11C,0.125000*%
%ADD12C,0.120000*%
G04 APERTURE END LIST*
D10*
X130318142Y-140041761D02*
X130461000Y-140089380D01*
X130699095Y-140089380D01*
X130794333Y-140041761D01*
X130841952Y-139994142D01*
X130889571Y-139898904D01*
X130889571Y-139803666D01*
X130841952Y-139708428D01*
X130794333Y-139660809D01*
X130699095Y-139613190D01*
X130508619Y-139565571D01*
X130413380Y-139517952D01*
X130365761Y-139470333D01*
X130318142Y-139375095D01*
X130318142Y-139279857D01*
X130365761Y-139184619D01*
X130413380Y-139137000D01*
X130508619Y-139089380D01*
X130746714Y-139089380D01*
X130889571Y-139137000D01*
X131270523Y-139803666D02*
X131746714Y-139803666D01*
X131175285Y-140089380D02*
X131508619Y-139089380D01*
X131841952Y-140089380D01*
X132318142Y-139517952D02*
X132222904Y-139470333D01*
X132175285Y-139422714D01*
X132127666Y-139327476D01*
X132127666Y-139279857D01*
X132175285Y-139184619D01*
X132222904Y-139137000D01*
X132318142Y-139089380D01*
X132508619Y-139089380D01*
X132603857Y-139137000D01*
X132651476Y-139184619D01*
X132699095Y-139279857D01*
X132699095Y-139327476D01*
X132651476Y-139422714D01*
X132603857Y-139470333D01*
X132508619Y-139517952D01*
X132318142Y-139517952D01*
X132222904Y-139565571D01*
X132175285Y-139613190D01*
X132127666Y-139708428D01*
X132127666Y-139898904D01*
X132175285Y-139994142D01*
X132222904Y-140041761D01*
X132318142Y-140089380D01*
X132508619Y-140089380D01*
X132603857Y-140041761D01*
X132651476Y-139994142D01*
X132699095Y-139898904D01*
X132699095Y-139708428D01*
X132651476Y-139613190D01*
X132603857Y-139565571D01*
X132508619Y-139517952D01*
X133651476Y-140089380D02*
X133080047Y-140089380D01*
X133365761Y-140089380D02*
X133365761Y-139089380D01*
X133270523Y-139232238D01*
X133175285Y-139327476D01*
X133080047Y-139375095D01*
X134222904Y-139517952D02*
X134127666Y-139470333D01*
X134080047Y-139422714D01*
X134032428Y-139327476D01*
X134032428Y-139279857D01*
X134080047Y-139184619D01*
X134127666Y-139137000D01*
X134222904Y-139089380D01*
X134413380Y-139089380D01*
X134508619Y-139137000D01*
X134556238Y-139184619D01*
X134603857Y-139279857D01*
X134603857Y-139327476D01*
X134556238Y-139422714D01*
X134508619Y-139470333D01*
X134413380Y-139517952D01*
X134222904Y-139517952D01*
X134127666Y-139565571D01*
X134080047Y-139613190D01*
X134032428Y-139708428D01*
X134032428Y-139898904D01*
X134080047Y-139994142D01*
X134127666Y-140041761D01*
X134222904Y-140089380D01*
X134413380Y-140089380D01*
X134508619Y-140041761D01*
X134556238Y-139994142D01*
X134603857Y-139898904D01*
X134603857Y-139708428D01*
X134556238Y-139613190D01*
X134508619Y-139565571D01*
X134413380Y-139517952D01*
X131556238Y-141739380D02*
X131556238Y-140739380D01*
X131794333Y-140739380D01*
X131937190Y-140787000D01*
X132032428Y-140882238D01*
X132080047Y-140977476D01*
X132127666Y-141167952D01*
X132127666Y-141310809D01*
X132080047Y-141501285D01*
X132032428Y-141596523D01*
X131937190Y-141691761D01*
X131794333Y-141739380D01*
X131556238Y-141739380D01*
X132556238Y-141739380D02*
X132556238Y-140739380D01*
X133508619Y-141739380D02*
X133032428Y-141739380D01*
X133032428Y-140739380D01*
D11*
X130191000Y-102042666D02*
X129791000Y-102042666D01*
X129991000Y-102042666D02*
X129991000Y-101342666D01*
X129924333Y-101442666D01*
X129857666Y-101509333D01*
X129791000Y-101542666D01*
X131924333Y-102042666D02*
X131524333Y-102042666D01*
X131724333Y-102042666D02*
X131724333Y-101342666D01*
X131657666Y-101442666D01*
X131591000Y-101509333D01*
X131524333Y-101542666D01*
X132324333Y-101642666D02*
X132257666Y-101609333D01*
X132224333Y-101576000D01*
X132191000Y-101509333D01*
X132191000Y-101476000D01*
X132224333Y-101409333D01*
X132257666Y-101376000D01*
X132324333Y-101342666D01*
X132457666Y-101342666D01*
X132524333Y-101376000D01*
X132557666Y-101409333D01*
X132591000Y-101476000D01*
X132591000Y-101509333D01*
X132557666Y-101576000D01*
X132524333Y-101609333D01*
X132457666Y-101642666D01*
X132324333Y-101642666D01*
X132257666Y-101676000D01*
X132224333Y-101709333D01*
X132191000Y-101776000D01*
X132191000Y-101909333D01*
X132224333Y-101976000D01*
X132257666Y-102009333D01*
X132324333Y-102042666D01*
X132457666Y-102042666D01*
X132524333Y-102009333D01*
X132557666Y-101976000D01*
X132591000Y-101909333D01*
X132591000Y-101776000D01*
X132557666Y-101709333D01*
X132524333Y-101676000D01*
X132457666Y-101642666D01*
X129791000Y-102584333D02*
X129824333Y-102551000D01*
X129891000Y-102517666D01*
X130057666Y-102517666D01*
X130124333Y-102551000D01*
X130157666Y-102584333D01*
X130191000Y-102651000D01*
X130191000Y-102717666D01*
X130157666Y-102817666D01*
X129757666Y-103217666D01*
X130191000Y-103217666D01*
X131924333Y-103217666D02*
X131524333Y-103217666D01*
X131724333Y-103217666D02*
X131724333Y-102517666D01*
X131657666Y-102617666D01*
X131591000Y-102684333D01*
X131524333Y-102717666D01*
X132157666Y-102517666D02*
X132624333Y-102517666D01*
X132324333Y-103217666D01*
X129757666Y-103692666D02*
X130191000Y-103692666D01*
X129957666Y-103959333D01*
X130057666Y-103959333D01*
X130124333Y-103992666D01*
X130157666Y-104026000D01*
X130191000Y-104092666D01*
X130191000Y-104259333D01*
X130157666Y-104326000D01*
X130124333Y-104359333D01*
X130057666Y-104392666D01*
X129857666Y-104392666D01*
X129791000Y-104359333D01*
X129757666Y-104326000D01*
X131924333Y-104392666D02*
X131524333Y-104392666D01*
X131724333Y-104392666D02*
X131724333Y-103692666D01*
X131657666Y-103792666D01*
X131591000Y-103859333D01*
X131524333Y-103892666D01*
X132524333Y-103692666D02*
X132391000Y-103692666D01*
X132324333Y-103726000D01*
X132291000Y-103759333D01*
X132224333Y-103859333D01*
X132191000Y-103992666D01*
X132191000Y-104259333D01*
X132224333Y-104326000D01*
X132257666Y-104359333D01*
X132324333Y-104392666D01*
X132457666Y-104392666D01*
X132524333Y-104359333D01*
X132557666Y-104326000D01*
X132591000Y-104259333D01*
X132591000Y-104092666D01*
X132557666Y-104026000D01*
X132524333Y-103992666D01*
X132457666Y-103959333D01*
X132324333Y-103959333D01*
X132257666Y-103992666D01*
X132224333Y-104026000D01*
X132191000Y-104092666D01*
X130124333Y-105101000D02*
X130124333Y-105567666D01*
X129957666Y-104834333D02*
X129791000Y-105334333D01*
X130224333Y-105334333D01*
X131924333Y-105567666D02*
X131524333Y-105567666D01*
X131724333Y-105567666D02*
X131724333Y-104867666D01*
X131657666Y-104967666D01*
X131591000Y-105034333D01*
X131524333Y-105067666D01*
X132557666Y-104867666D02*
X132224333Y-104867666D01*
X132191000Y-105201000D01*
X132224333Y-105167666D01*
X132291000Y-105134333D01*
X132457666Y-105134333D01*
X132524333Y-105167666D01*
X132557666Y-105201000D01*
X132591000Y-105267666D01*
X132591000Y-105434333D01*
X132557666Y-105501000D01*
X132524333Y-105534333D01*
X132457666Y-105567666D01*
X132291000Y-105567666D01*
X132224333Y-105534333D01*
X132191000Y-105501000D01*
X130157666Y-106042666D02*
X129824333Y-106042666D01*
X129791000Y-106376000D01*
X129824333Y-106342666D01*
X129891000Y-106309333D01*
X130057666Y-106309333D01*
X130124333Y-106342666D01*
X130157666Y-106376000D01*
X130191000Y-106442666D01*
X130191000Y-106609333D01*
X130157666Y-106676000D01*
X130124333Y-106709333D01*
X130057666Y-106742666D01*
X129891000Y-106742666D01*
X129824333Y-106709333D01*
X129791000Y-106676000D01*
X131924333Y-106742666D02*
X131524333Y-106742666D01*
X131724333Y-106742666D02*
X131724333Y-106042666D01*
X131657666Y-106142666D01*
X131591000Y-106209333D01*
X131524333Y-106242666D01*
X132524333Y-106276000D02*
X132524333Y-106742666D01*
X132357666Y-106009333D02*
X132191000Y-106509333D01*
X132624333Y-106509333D01*
X130124333Y-107217666D02*
X129991000Y-107217666D01*
X129924333Y-107251000D01*
X129891000Y-107284333D01*
X129824333Y-107384333D01*
X129791000Y-107517666D01*
X129791000Y-107784333D01*
X129824333Y-107851000D01*
X129857666Y-107884333D01*
X129924333Y-107917666D01*
X130057666Y-107917666D01*
X130124333Y-107884333D01*
X130157666Y-107851000D01*
X130191000Y-107784333D01*
X130191000Y-107617666D01*
X130157666Y-107551000D01*
X130124333Y-107517666D01*
X130057666Y-107484333D01*
X129924333Y-107484333D01*
X129857666Y-107517666D01*
X129824333Y-107551000D01*
X129791000Y-107617666D01*
X131924333Y-107917666D02*
X131524333Y-107917666D01*
X131724333Y-107917666D02*
X131724333Y-107217666D01*
X131657666Y-107317666D01*
X131591000Y-107384333D01*
X131524333Y-107417666D01*
X132157666Y-107217666D02*
X132591000Y-107217666D01*
X132357666Y-107484333D01*
X132457666Y-107484333D01*
X132524333Y-107517666D01*
X132557666Y-107551000D01*
X132591000Y-107617666D01*
X132591000Y-107784333D01*
X132557666Y-107851000D01*
X132524333Y-107884333D01*
X132457666Y-107917666D01*
X132257666Y-107917666D01*
X132191000Y-107884333D01*
X132157666Y-107851000D01*
X129707666Y-108392666D02*
X130174333Y-108392666D01*
X129874333Y-109092666D01*
X131507666Y-109092666D02*
X131507666Y-108392666D01*
X131907666Y-109092666D01*
X131907666Y-108392666D01*
X132641000Y-109026000D02*
X132607666Y-109059333D01*
X132507666Y-109092666D01*
X132441000Y-109092666D01*
X132341000Y-109059333D01*
X132274333Y-108992666D01*
X132241000Y-108926000D01*
X132207666Y-108792666D01*
X132207666Y-108692666D01*
X132241000Y-108559333D01*
X132274333Y-108492666D01*
X132341000Y-108426000D01*
X132441000Y-108392666D01*
X132507666Y-108392666D01*
X132607666Y-108426000D01*
X132641000Y-108459333D01*
X129924333Y-109867666D02*
X129857666Y-109834333D01*
X129824333Y-109801000D01*
X129791000Y-109734333D01*
X129791000Y-109701000D01*
X129824333Y-109634333D01*
X129857666Y-109601000D01*
X129924333Y-109567666D01*
X130057666Y-109567666D01*
X130124333Y-109601000D01*
X130157666Y-109634333D01*
X130191000Y-109701000D01*
X130191000Y-109734333D01*
X130157666Y-109801000D01*
X130124333Y-109834333D01*
X130057666Y-109867666D01*
X129924333Y-109867666D01*
X129857666Y-109901000D01*
X129824333Y-109934333D01*
X129791000Y-110001000D01*
X129791000Y-110134333D01*
X129824333Y-110201000D01*
X129857666Y-110234333D01*
X129924333Y-110267666D01*
X130057666Y-110267666D01*
X130124333Y-110234333D01*
X130157666Y-110201000D01*
X130191000Y-110134333D01*
X130191000Y-110001000D01*
X130157666Y-109934333D01*
X130124333Y-109901000D01*
X130057666Y-109867666D01*
X131924333Y-110267666D02*
X131524333Y-110267666D01*
X131724333Y-110267666D02*
X131724333Y-109567666D01*
X131657666Y-109667666D01*
X131591000Y-109734333D01*
X131524333Y-109767666D01*
X132591000Y-110267666D02*
X132191000Y-110267666D01*
X132391000Y-110267666D02*
X132391000Y-109567666D01*
X132324333Y-109667666D01*
X132257666Y-109734333D01*
X132191000Y-109767666D01*
X129857666Y-111442666D02*
X129991000Y-111442666D01*
X130057666Y-111409333D01*
X130091000Y-111376000D01*
X130157666Y-111276000D01*
X130191000Y-111142666D01*
X130191000Y-110876000D01*
X130157666Y-110809333D01*
X130124333Y-110776000D01*
X130057666Y-110742666D01*
X129924333Y-110742666D01*
X129857666Y-110776000D01*
X129824333Y-110809333D01*
X129791000Y-110876000D01*
X129791000Y-111042666D01*
X129824333Y-111109333D01*
X129857666Y-111142666D01*
X129924333Y-111176000D01*
X130057666Y-111176000D01*
X130124333Y-111142666D01*
X130157666Y-111109333D01*
X130191000Y-111042666D01*
X131924333Y-111442666D02*
X131524333Y-111442666D01*
X131724333Y-111442666D02*
X131724333Y-110742666D01*
X131657666Y-110842666D01*
X131591000Y-110909333D01*
X131524333Y-110942666D01*
X132357666Y-110742666D02*
X132424333Y-110742666D01*
X132491000Y-110776000D01*
X132524333Y-110809333D01*
X132557666Y-110876000D01*
X132591000Y-111009333D01*
X132591000Y-111176000D01*
X132557666Y-111309333D01*
X132524333Y-111376000D01*
X132491000Y-111409333D01*
X132424333Y-111442666D01*
X132357666Y-111442666D01*
X132291000Y-111409333D01*
X132257666Y-111376000D01*
X132224333Y-111309333D01*
X132191000Y-111176000D01*
X132191000Y-111009333D01*
X132224333Y-110876000D01*
X132257666Y-110809333D01*
X132291000Y-110776000D01*
X132357666Y-110742666D01*
X101974666Y-102042666D02*
X101574666Y-102042666D01*
X101774666Y-102042666D02*
X101774666Y-101342666D01*
X101708000Y-101442666D01*
X101641333Y-101509333D01*
X101574666Y-101542666D01*
X102374666Y-101642666D02*
X102308000Y-101609333D01*
X102274666Y-101576000D01*
X102241333Y-101509333D01*
X102241333Y-101476000D01*
X102274666Y-101409333D01*
X102308000Y-101376000D01*
X102374666Y-101342666D01*
X102508000Y-101342666D01*
X102574666Y-101376000D01*
X102608000Y-101409333D01*
X102641333Y-101476000D01*
X102641333Y-101509333D01*
X102608000Y-101576000D01*
X102574666Y-101609333D01*
X102508000Y-101642666D01*
X102374666Y-101642666D01*
X102308000Y-101676000D01*
X102274666Y-101709333D01*
X102241333Y-101776000D01*
X102241333Y-101909333D01*
X102274666Y-101976000D01*
X102308000Y-102009333D01*
X102374666Y-102042666D01*
X102508000Y-102042666D01*
X102574666Y-102009333D01*
X102608000Y-101976000D01*
X102641333Y-101909333D01*
X102641333Y-101776000D01*
X102608000Y-101709333D01*
X102574666Y-101676000D01*
X102508000Y-101642666D01*
X101974666Y-103217666D02*
X101574666Y-103217666D01*
X101774666Y-103217666D02*
X101774666Y-102517666D01*
X101708000Y-102617666D01*
X101641333Y-102684333D01*
X101574666Y-102717666D01*
X102208000Y-102517666D02*
X102674666Y-102517666D01*
X102374666Y-103217666D01*
X101974666Y-104392666D02*
X101574666Y-104392666D01*
X101774666Y-104392666D02*
X101774666Y-103692666D01*
X101708000Y-103792666D01*
X101641333Y-103859333D01*
X101574666Y-103892666D01*
X102574666Y-103692666D02*
X102441333Y-103692666D01*
X102374666Y-103726000D01*
X102341333Y-103759333D01*
X102274666Y-103859333D01*
X102241333Y-103992666D01*
X102241333Y-104259333D01*
X102274666Y-104326000D01*
X102308000Y-104359333D01*
X102374666Y-104392666D01*
X102508000Y-104392666D01*
X102574666Y-104359333D01*
X102608000Y-104326000D01*
X102641333Y-104259333D01*
X102641333Y-104092666D01*
X102608000Y-104026000D01*
X102574666Y-103992666D01*
X102508000Y-103959333D01*
X102374666Y-103959333D01*
X102308000Y-103992666D01*
X102274666Y-104026000D01*
X102241333Y-104092666D01*
X101974666Y-105567666D02*
X101574666Y-105567666D01*
X101774666Y-105567666D02*
X101774666Y-104867666D01*
X101708000Y-104967666D01*
X101641333Y-105034333D01*
X101574666Y-105067666D01*
X102608000Y-104867666D02*
X102274666Y-104867666D01*
X102241333Y-105201000D01*
X102274666Y-105167666D01*
X102341333Y-105134333D01*
X102508000Y-105134333D01*
X102574666Y-105167666D01*
X102608000Y-105201000D01*
X102641333Y-105267666D01*
X102641333Y-105434333D01*
X102608000Y-105501000D01*
X102574666Y-105534333D01*
X102508000Y-105567666D01*
X102341333Y-105567666D01*
X102274666Y-105534333D01*
X102241333Y-105501000D01*
X101974666Y-106742666D02*
X101574666Y-106742666D01*
X101774666Y-106742666D02*
X101774666Y-106042666D01*
X101708000Y-106142666D01*
X101641333Y-106209333D01*
X101574666Y-106242666D01*
X102574666Y-106276000D02*
X102574666Y-106742666D01*
X102408000Y-106009333D02*
X102241333Y-106509333D01*
X102674666Y-106509333D01*
X101974666Y-107917666D02*
X101574666Y-107917666D01*
X101774666Y-107917666D02*
X101774666Y-107217666D01*
X101708000Y-107317666D01*
X101641333Y-107384333D01*
X101574666Y-107417666D01*
X102208000Y-107217666D02*
X102641333Y-107217666D01*
X102408000Y-107484333D01*
X102508000Y-107484333D01*
X102574666Y-107517666D01*
X102608000Y-107551000D01*
X102641333Y-107617666D01*
X102641333Y-107784333D01*
X102608000Y-107851000D01*
X102574666Y-107884333D01*
X102508000Y-107917666D01*
X102308000Y-107917666D01*
X102241333Y-107884333D01*
X102208000Y-107851000D01*
X101558000Y-109092666D02*
X101558000Y-108392666D01*
X101958000Y-109092666D01*
X101958000Y-108392666D01*
X102691333Y-109026000D02*
X102658000Y-109059333D01*
X102558000Y-109092666D01*
X102491333Y-109092666D01*
X102391333Y-109059333D01*
X102324666Y-108992666D01*
X102291333Y-108926000D01*
X102258000Y-108792666D01*
X102258000Y-108692666D01*
X102291333Y-108559333D01*
X102324666Y-108492666D01*
X102391333Y-108426000D01*
X102491333Y-108392666D01*
X102558000Y-108392666D01*
X102658000Y-108426000D01*
X102691333Y-108459333D01*
X101974666Y-110267666D02*
X101574666Y-110267666D01*
X101774666Y-110267666D02*
X101774666Y-109567666D01*
X101708000Y-109667666D01*
X101641333Y-109734333D01*
X101574666Y-109767666D01*
X102641333Y-110267666D02*
X102241333Y-110267666D01*
X102441333Y-110267666D02*
X102441333Y-109567666D01*
X102374666Y-109667666D01*
X102308000Y-109734333D01*
X102241333Y-109767666D01*
X101974666Y-111442666D02*
X101574666Y-111442666D01*
X101774666Y-111442666D02*
X101774666Y-110742666D01*
X101708000Y-110842666D01*
X101641333Y-110909333D01*
X101574666Y-110942666D01*
X102408000Y-110742666D02*
X102474666Y-110742666D01*
X102541333Y-110776000D01*
X102574666Y-110809333D01*
X102608000Y-110876000D01*
X102641333Y-111009333D01*
X102641333Y-111176000D01*
X102608000Y-111309333D01*
X102574666Y-111376000D01*
X102541333Y-111409333D01*
X102474666Y-111442666D01*
X102408000Y-111442666D01*
X102341333Y-111409333D01*
X102308000Y-111376000D01*
X102274666Y-111309333D01*
X102241333Y-111176000D01*
X102241333Y-111009333D01*
X102274666Y-110876000D01*
X102308000Y-110809333D01*
X102341333Y-110776000D01*
X102408000Y-110742666D01*
D12*
X130051000Y-144403000D02*
X129411000Y-144403000D01*
X127251000Y-144403000D02*
X127891000Y-144403000D01*
X129411000Y-144403000D02*
X129411000Y-143773000D01*
X130001000Y-147123000D02*
X127301000Y-147123000D01*
X107180748Y-142569000D02*
X107703252Y-142569000D01*
X107180748Y-141149000D02*
X107703252Y-141149000D01*
X103116748Y-140537000D02*
X103639252Y-140537000D01*
X103116748Y-139117000D02*
X103639252Y-139117000D01*
X119245748Y-142569000D02*
X119768252Y-142569000D01*
X119245748Y-141149000D02*
X119768252Y-141149000D01*
X113276748Y-142696000D02*
X113799252Y-142696000D01*
X113276748Y-141276000D02*
X113799252Y-141276000D01*
X121718000Y-144645748D02*
X121718000Y-145168252D01*
X123138000Y-144645748D02*
X123138000Y-145168252D01*
X115876000Y-144645748D02*
X115876000Y-145168252D01*
X117296000Y-144645748D02*
X117296000Y-145168252D01*
X109653000Y-144645748D02*
X109653000Y-145168252D01*
X111073000Y-144645748D02*
X111073000Y-145168252D01*
X103116748Y-142569000D02*
X103639252Y-142569000D01*
X103116748Y-141149000D02*
X103639252Y-141149000D01*
X104900000Y-144403000D02*
X104260000Y-144403000D01*
X102100000Y-144403000D02*
X102740000Y-144403000D01*
X104260000Y-144403000D02*
X104260000Y-143773000D01*
X104850000Y-147123000D02*
X102150000Y-147123000D01*
X128651000Y-112700000D02*
X129921000Y-112700000D01*
X128651000Y-113970000D02*
X128651000Y-112700000D01*
X130963929Y-134670000D02*
X131418071Y-134670000D01*
X130963929Y-133910000D02*
X131418071Y-133910000D01*
X133503929Y-134670000D02*
X133901000Y-134670000D01*
X133503929Y-133910000D02*
X133901000Y-133910000D01*
X142561000Y-134670000D02*
X136561000Y-134670000D01*
X142561000Y-133910000D02*
X142561000Y-134670000D01*
X136561000Y-133910000D02*
X142561000Y-133910000D01*
X133901000Y-133020000D02*
X136561000Y-133020000D01*
X130963929Y-132130000D02*
X131418071Y-132130000D01*
X130963929Y-131370000D02*
X131418071Y-131370000D01*
X133503929Y-132130000D02*
X133901000Y-132130000D01*
X133503929Y-131370000D02*
X133901000Y-131370000D01*
X142561000Y-132130000D02*
X136561000Y-132130000D01*
X142561000Y-131370000D02*
X142561000Y-132130000D01*
X136561000Y-131370000D02*
X142561000Y-131370000D01*
X133901000Y-130480000D02*
X136561000Y-130480000D01*
X130963929Y-129590000D02*
X131418071Y-129590000D01*
X130963929Y-128830000D02*
X131418071Y-128830000D01*
X133503929Y-129590000D02*
X133901000Y-129590000D01*
X133503929Y-128830000D02*
X133901000Y-128830000D01*
X142561000Y-129590000D02*
X136561000Y-129590000D01*
X142561000Y-128830000D02*
X142561000Y-129590000D01*
X136561000Y-128830000D02*
X142561000Y-128830000D01*
X133901000Y-127940000D02*
X136561000Y-127940000D01*
X130963929Y-127050000D02*
X131418071Y-127050000D01*
X130963929Y-126290000D02*
X131418071Y-126290000D01*
X133503929Y-127050000D02*
X133901000Y-127050000D01*
X133503929Y-126290000D02*
X133901000Y-126290000D01*
X142561000Y-127050000D02*
X136561000Y-127050000D01*
X142561000Y-126290000D02*
X142561000Y-127050000D01*
X136561000Y-126290000D02*
X142561000Y-126290000D01*
X133901000Y-125400000D02*
X136561000Y-125400000D01*
X130963929Y-124510000D02*
X131418071Y-124510000D01*
X130963929Y-123750000D02*
X131418071Y-123750000D01*
X133503929Y-124510000D02*
X133901000Y-124510000D01*
X133503929Y-123750000D02*
X133901000Y-123750000D01*
X142561000Y-124510000D02*
X136561000Y-124510000D01*
X142561000Y-123750000D02*
X142561000Y-124510000D01*
X136561000Y-123750000D02*
X142561000Y-123750000D01*
X133901000Y-122860000D02*
X136561000Y-122860000D01*
X130963929Y-121970000D02*
X131418071Y-121970000D01*
X130963929Y-121210000D02*
X131418071Y-121210000D01*
X133503929Y-121970000D02*
X133901000Y-121970000D01*
X133503929Y-121210000D02*
X133901000Y-121210000D01*
X142561000Y-121970000D02*
X136561000Y-121970000D01*
X142561000Y-121210000D02*
X142561000Y-121970000D01*
X136561000Y-121210000D02*
X142561000Y-121210000D01*
X133901000Y-120320000D02*
X136561000Y-120320000D01*
X130963929Y-119430000D02*
X131418071Y-119430000D01*
X130963929Y-118670000D02*
X131418071Y-118670000D01*
X133503929Y-119430000D02*
X133901000Y-119430000D01*
X133503929Y-118670000D02*
X133901000Y-118670000D01*
X142561000Y-119430000D02*
X136561000Y-119430000D01*
X142561000Y-118670000D02*
X142561000Y-119430000D01*
X136561000Y-118670000D02*
X142561000Y-118670000D01*
X133901000Y-117780000D02*
X136561000Y-117780000D01*
X130963929Y-116890000D02*
X131418071Y-116890000D01*
X130963929Y-116130000D02*
X131418071Y-116130000D01*
X133503929Y-116890000D02*
X133901000Y-116890000D01*
X133503929Y-116130000D02*
X133901000Y-116130000D01*
X142561000Y-116890000D02*
X136561000Y-116890000D01*
X142561000Y-116130000D02*
X142561000Y-116890000D01*
X136561000Y-116130000D02*
X142561000Y-116130000D01*
X133901000Y-115240000D02*
X136561000Y-115240000D01*
X131031000Y-114350000D02*
X131418071Y-114350000D01*
X131031000Y-113590000D02*
X131418071Y-113590000D01*
X133503929Y-114350000D02*
X133901000Y-114350000D01*
X133503929Y-113590000D02*
X133901000Y-113590000D01*
X136561000Y-114250000D02*
X142561000Y-114250000D01*
X136561000Y-114130000D02*
X142561000Y-114130000D01*
X136561000Y-114010000D02*
X142561000Y-114010000D01*
X136561000Y-113890000D02*
X142561000Y-113890000D01*
X136561000Y-113770000D02*
X142561000Y-113770000D01*
X136561000Y-113650000D02*
X142561000Y-113650000D01*
X142561000Y-114350000D02*
X136561000Y-114350000D01*
X142561000Y-113590000D02*
X142561000Y-114350000D01*
X136561000Y-113590000D02*
X142561000Y-113590000D01*
X136561000Y-112640000D02*
X133901000Y-112640000D01*
X136561000Y-135620000D02*
X136561000Y-112640000D01*
X133901000Y-135620000D02*
X136561000Y-135620000D01*
X133901000Y-112640000D02*
X133901000Y-135620000D01*
X100651000Y-112640000D02*
X101981000Y-112640000D01*
X100651000Y-113970000D02*
X100651000Y-112640000D01*
X100651000Y-115240000D02*
X103311000Y-115240000D01*
X103311000Y-115240000D02*
X103311000Y-135620000D01*
X100651000Y-115240000D02*
X100651000Y-135620000D01*
X100651000Y-135620000D02*
X103311000Y-135620000D01*
X106458000Y-101841000D02*
X107278000Y-101841000D01*
X106458000Y-102661000D02*
X106458000Y-101841000D01*
X125698000Y-101841000D02*
X124878000Y-101841000D01*
X106458000Y-136861000D02*
X106458000Y-137681000D01*
X107278000Y-137681000D02*
X106458000Y-137681000D01*
X125698000Y-136861000D02*
X125698000Y-137681000D01*
X124878000Y-137681000D02*
X125698000Y-137681000D01*
D10*
X131303380Y-146096333D02*
X132017666Y-146096333D01*
X132160523Y-146143952D01*
X132255761Y-146239190D01*
X132303380Y-146382047D01*
X132303380Y-146477285D01*
X131636714Y-145191571D02*
X132303380Y-145191571D01*
X131255761Y-145429666D02*
X131970047Y-145667761D01*
X131970047Y-145048714D01*
X107275333Y-140661380D02*
X106942000Y-140185190D01*
X106703904Y-140661380D02*
X106703904Y-139661380D01*
X107084857Y-139661380D01*
X107180095Y-139709000D01*
X107227714Y-139756619D01*
X107275333Y-139851857D01*
X107275333Y-139994714D01*
X107227714Y-140089952D01*
X107180095Y-140137571D01*
X107084857Y-140185190D01*
X106703904Y-140185190D01*
X107608666Y-139661380D02*
X108227714Y-139661380D01*
X107894380Y-140042333D01*
X108037238Y-140042333D01*
X108132476Y-140089952D01*
X108180095Y-140137571D01*
X108227714Y-140232809D01*
X108227714Y-140470904D01*
X108180095Y-140566142D01*
X108132476Y-140613761D01*
X108037238Y-140661380D01*
X107751523Y-140661380D01*
X107656285Y-140613761D01*
X107608666Y-140566142D01*
X103211333Y-138629380D02*
X102878000Y-138153190D01*
X102639904Y-138629380D02*
X102639904Y-137629380D01*
X103020857Y-137629380D01*
X103116095Y-137677000D01*
X103163714Y-137724619D01*
X103211333Y-137819857D01*
X103211333Y-137962714D01*
X103163714Y-138057952D01*
X103116095Y-138105571D01*
X103020857Y-138153190D01*
X102639904Y-138153190D01*
X103592285Y-137724619D02*
X103639904Y-137677000D01*
X103735142Y-137629380D01*
X103973238Y-137629380D01*
X104068476Y-137677000D01*
X104116095Y-137724619D01*
X104163714Y-137819857D01*
X104163714Y-137915095D01*
X104116095Y-138057952D01*
X103544666Y-138629380D01*
X104163714Y-138629380D01*
X119340333Y-140661380D02*
X118864142Y-140661380D01*
X118864142Y-139661380D01*
X119626047Y-139756619D02*
X119673666Y-139709000D01*
X119768904Y-139661380D01*
X120007000Y-139661380D01*
X120102238Y-139709000D01*
X120149857Y-139756619D01*
X120197476Y-139851857D01*
X120197476Y-139947095D01*
X120149857Y-140089952D01*
X119578428Y-140661380D01*
X120197476Y-140661380D01*
X113371333Y-140788380D02*
X112895142Y-140788380D01*
X112895142Y-139788380D01*
X114228476Y-140788380D02*
X113657047Y-140788380D01*
X113942761Y-140788380D02*
X113942761Y-139788380D01*
X113847523Y-139931238D01*
X113752285Y-140026476D01*
X113657047Y-140074095D01*
X124435142Y-145073666D02*
X124482761Y-145121285D01*
X124530380Y-145264142D01*
X124530380Y-145359380D01*
X124482761Y-145502238D01*
X124387523Y-145597476D01*
X124292285Y-145645095D01*
X124101809Y-145692714D01*
X123958952Y-145692714D01*
X123768476Y-145645095D01*
X123673238Y-145597476D01*
X123578000Y-145502238D01*
X123530380Y-145359380D01*
X123530380Y-145264142D01*
X123578000Y-145121285D01*
X123625619Y-145073666D01*
X123530380Y-144740333D02*
X123530380Y-144121285D01*
X123911333Y-144454619D01*
X123911333Y-144311761D01*
X123958952Y-144216523D01*
X124006571Y-144168904D01*
X124101809Y-144121285D01*
X124339904Y-144121285D01*
X124435142Y-144168904D01*
X124482761Y-144216523D01*
X124530380Y-144311761D01*
X124530380Y-144597476D01*
X124482761Y-144692714D01*
X124435142Y-144740333D01*
X118593142Y-145073666D02*
X118640761Y-145121285D01*
X118688380Y-145264142D01*
X118688380Y-145359380D01*
X118640761Y-145502238D01*
X118545523Y-145597476D01*
X118450285Y-145645095D01*
X118259809Y-145692714D01*
X118116952Y-145692714D01*
X117926476Y-145645095D01*
X117831238Y-145597476D01*
X117736000Y-145502238D01*
X117688380Y-145359380D01*
X117688380Y-145264142D01*
X117736000Y-145121285D01*
X117783619Y-145073666D01*
X117783619Y-144692714D02*
X117736000Y-144645095D01*
X117688380Y-144549857D01*
X117688380Y-144311761D01*
X117736000Y-144216523D01*
X117783619Y-144168904D01*
X117878857Y-144121285D01*
X117974095Y-144121285D01*
X118116952Y-144168904D01*
X118688380Y-144740333D01*
X118688380Y-144121285D01*
X112370142Y-145073666D02*
X112417761Y-145121285D01*
X112465380Y-145264142D01*
X112465380Y-145359380D01*
X112417761Y-145502238D01*
X112322523Y-145597476D01*
X112227285Y-145645095D01*
X112036809Y-145692714D01*
X111893952Y-145692714D01*
X111703476Y-145645095D01*
X111608238Y-145597476D01*
X111513000Y-145502238D01*
X111465380Y-145359380D01*
X111465380Y-145264142D01*
X111513000Y-145121285D01*
X111560619Y-145073666D01*
X112465380Y-144121285D02*
X112465380Y-144692714D01*
X112465380Y-144407000D02*
X111465380Y-144407000D01*
X111608238Y-144502238D01*
X111703476Y-144597476D01*
X111751095Y-144692714D01*
X103211333Y-140661380D02*
X102878000Y-140185190D01*
X102639904Y-140661380D02*
X102639904Y-139661380D01*
X103020857Y-139661380D01*
X103116095Y-139709000D01*
X103163714Y-139756619D01*
X103211333Y-139851857D01*
X103211333Y-139994714D01*
X103163714Y-140089952D01*
X103116095Y-140137571D01*
X103020857Y-140185190D01*
X102639904Y-140185190D01*
X104163714Y-140661380D02*
X103592285Y-140661380D01*
X103878000Y-140661380D02*
X103878000Y-139661380D01*
X103782761Y-139804238D01*
X103687523Y-139899476D01*
X103592285Y-139947095D01*
X106152380Y-146096333D02*
X106866666Y-146096333D01*
X107009523Y-146143952D01*
X107104761Y-146239190D01*
X107152380Y-146382047D01*
X107152380Y-146477285D01*
X106152380Y-145715380D02*
X106152380Y-145096333D01*
X106533333Y-145429666D01*
X106533333Y-145286809D01*
X106580952Y-145191571D01*
X106628571Y-145143952D01*
X106723809Y-145096333D01*
X106961904Y-145096333D01*
X107057142Y-145143952D01*
X107104761Y-145191571D01*
X107152380Y-145286809D01*
X107152380Y-145572523D01*
X107104761Y-145667761D01*
X107057142Y-145715380D01*
X130857666Y-136104380D02*
X130857666Y-136818666D01*
X130810047Y-136961523D01*
X130714809Y-137056761D01*
X130571952Y-137104380D01*
X130476714Y-137104380D01*
X131286238Y-136199619D02*
X131333857Y-136152000D01*
X131429095Y-136104380D01*
X131667190Y-136104380D01*
X131762428Y-136152000D01*
X131810047Y-136199619D01*
X131857666Y-136294857D01*
X131857666Y-136390095D01*
X131810047Y-136532952D01*
X131238619Y-137104380D01*
X131857666Y-137104380D01*
X101139666Y-135850380D02*
X101139666Y-136564666D01*
X101092047Y-136707523D01*
X100996809Y-136802761D01*
X100853952Y-136850380D01*
X100758714Y-136850380D01*
X102139666Y-136850380D02*
X101568238Y-136850380D01*
X101853952Y-136850380D02*
X101853952Y-135850380D01*
X101758714Y-135993238D01*
X101663476Y-136088476D01*
X101568238Y-136136095D01*
X103886095Y-100290380D02*
X103886095Y-101099904D01*
X103933714Y-101195142D01*
X103981333Y-101242761D01*
X104076571Y-101290380D01*
X104267047Y-101290380D01*
X104362285Y-101242761D01*
X104409904Y-101195142D01*
X104457523Y-101099904D01*
X104457523Y-100290380D01*
X105457523Y-101290380D02*
X104886095Y-101290380D01*
X105171809Y-101290380D02*
X105171809Y-100290380D01*
X105076571Y-100433238D01*
X104981333Y-100528476D01*
X104886095Y-100576095D01*
M02*
