<?xml version="1.0" standalone="no"?>
 <!DOCTYPE svg PUBLIC "-//W3C//DTD SVG 1.1//EN" 
 "http://www.w3.org/Graphics/SVG/1.1/DTD/svg11.dtd"> 
<svg xmlns="http://www.w3.org/2000/svg" version="1.1" 
    width="29.7002cm" height="21.0007cm" viewBox="0 0 116930 82680 ">
<title>SVG Picture created as SA818_BREAKOUT-F_Mask.svg date 2022/04/09 21:58:40 </title>
  <desc>Picture generated by PCBNEW </desc>
<g style="fill:#000000; fill-opacity:1;stroke:#000000; stroke-opacity:1;
stroke-linecap:round; stroke-linejoin:round; "
 transform="translate(0 0) scale(1 1)">
</g>
<g style="fill:#000000; fill-opacity:0.0; 
stroke:#000000; stroke-width:-0.000393701; stroke-opacity:1; 
stroke-linecap:round; stroke-linejoin:round;">
</g>
<g style="fill:#000000; fill-opacity:0.0; 
stroke:#000000; stroke-width:19.685; stroke-opacity:1; 
stroke-linecap:round; stroke-linejoin:round;">
<path d="M53543 39370
L53543 58370
" />
<path d="M39370 58370
L53543 58370
" />
<path d="M39370 39370
L39370 58370
" />
<path d="M39370 39370
L53543 39370
" />
</g>
<g style="fill:#000000; fill-opacity:1.0; 
stroke:#000000; stroke-width:0; stroke-opacity:1; 
stroke-linecap:round; stroke-linejoin:round;">
<path style="fill:#000000; fill-opacity:1.0; 
stroke:#000000; stroke-width:0; stroke-opacity:1; 
stroke-linecap:round; stroke-linejoin:round;fill-rule:evenodd;"
d="M 40394.1,57840.2
39940.6,57840.2
39940.6,56933.9
40394.1,56933.9
Z" /> 
<path style="fill:#000000; fill-opacity:1.0; 
stroke:#000000; stroke-width:0; stroke-opacity:1; 
stroke-linecap:round; stroke-linejoin:round;fill-rule:evenodd;"
d="M 50296.1,57840.2
49842.5,57840.2
49842.5,56933.9
50296.1,56933.9
Z" /> 
<path style="fill:#000000; fill-opacity:1.0; 
stroke:#000000; stroke-width:0; stroke-opacity:1; 
stroke-linecap:round; stroke-linejoin:round;fill-rule:evenodd;"
d="M 51457.5,57840.2
51003.9,57840.2
51003.9,56933.9
51457.5,56933.9
Z" /> 
<path style="fill:#000000; fill-opacity:1.0; 
stroke:#000000; stroke-width:0; stroke-opacity:1; 
stroke-linecap:round; stroke-linejoin:round;fill-rule:evenodd;"
d="M 41555.5,57840.2
41102,57840.2
41102,56933.9
41555.5,56933.9
Z" /> 
<path style="fill:#000000; fill-opacity:1.0; 
stroke:#000000; stroke-width:0; stroke-opacity:1; 
stroke-linecap:round; stroke-linejoin:round;fill-rule:evenodd;"
d="M 43681.8,57208.8
43696.6,57213.3
43710.3,57220.7
43722.3,57230.5
43732.1,57242.5
43739.4,57256.2
43743.9,57271
43745.7,57288.8
43745.7,57618.2
43743.9,57636.1
43739.4,57650.9
43732.1,57664.6
43722.3,57676.6
43710.3,57686.4
43696.6,57693.7
43681.8,57698.2
43663.9,57700
43236.1,57700
43218.2,57698.2
43203.4,57693.7
43189.7,57686.4
43177.7,57676.6
43167.9,57664.6
43160.6,57650.9
43156.1,57636.1
43154.3,57618.2
43154.3,57288.8
43156.1,57271
43160.6,57256.2
43167.9,57242.5
43177.7,57230.5
43189.7,57220.7
43203.4,57213.3
43218.2,57208.8
43236.1,57207.1
43663.9,57207.1
Z" /> 
<path style="fill:#000000; fill-opacity:1.0; 
stroke:#000000; stroke-width:0; stroke-opacity:1; 
stroke-linecap:round; stroke-linejoin:round;fill-rule:evenodd;"
d="M 46131.8,57208.8
46146.6,57213.3
46160.3,57220.7
46172.3,57230.5
46182.1,57242.5
46189.4,57256.2
46193.9,57271
46195.7,57288.8
46195.7,57618.2
46193.9,57636.1
46189.4,57650.9
46182.1,57664.6
46172.3,57676.6
46160.3,57686.4
46146.6,57693.7
46131.8,57698.2
46113.9,57700
45686.1,57700
45668.2,57698.2
45653.4,57693.7
45639.7,57686.4
45627.7,57676.6
45617.9,57664.6
45610.6,57650.9
45606.1,57636.1
45604.3,57618.2
45604.3,57288.8
45606.1,57271
45610.6,57256.2
45617.9,57242.5
45627.7,57230.5
45639.7,57220.7
45653.4,57213.3
45668.2,57208.8
45686.1,57207.1
46113.9,57207.1
Z" /> 
<path style="fill:#000000; fill-opacity:1.0; 
stroke:#000000; stroke-width:0; stroke-opacity:1; 
stroke-linecap:round; stroke-linejoin:round;fill-rule:evenodd;"
d="M 48431.8,57208.8
48446.6,57213.3
48460.3,57220.7
48472.3,57230.5
48482.1,57242.5
48489.4,57256.2
48493.9,57271
48495.7,57288.8
48495.7,57618.2
48493.9,57636.1
48489.4,57650.9
48482.1,57664.6
48472.3,57676.6
48460.3,57686.4
48446.6,57693.7
48431.8,57698.2
48413.9,57700
47986.1,57700
47968.2,57698.2
47953.4,57693.7
47939.7,57686.4
47927.7,57676.6
47917.9,57664.6
47910.6,57650.9
47906.1,57636.1
47904.3,57618.2
47904.3,57288.8
47906.1,57271
47910.6,57256.2
47917.9,57242.5
47927.7,57230.5
47939.7,57220.7
47953.4,57213.3
47968.2,57208.8
47986.1,57207.1
48413.9,57207.1
Z" /> 
<path style="fill:#000000; fill-opacity:1.0; 
stroke:#000000; stroke-width:0; stroke-opacity:1; 
stroke-linecap:round; stroke-linejoin:round;fill-rule:evenodd;"
d="M 50866.9,57013.4
50433.1,57013.4
50433.1,56559.8
50866.9,56559.8
Z" /> 
<path style="fill:#000000; fill-opacity:1.0; 
stroke:#000000; stroke-width:0; stroke-opacity:1; 
stroke-linecap:round; stroke-linejoin:round;fill-rule:evenodd;"
d="M 40965,57013.4
40531.1,57013.4
40531.1,56559.8
40965,56559.8
Z" /> 
<path style="fill:#000000; fill-opacity:1.0; 
stroke:#000000; stroke-width:0; stroke-opacity:1; 
stroke-linecap:round; stroke-linejoin:round;fill-rule:evenodd;"
d="M 43681.8,56401.8
43696.6,56406.3
43710.3,56413.6
43722.3,56423.4
43732.1,56435.4
43739.4,56449.1
43743.9,56463.9
43745.7,56481.8
43745.7,56811.2
43743.9,56829
43739.4,56843.8
43732.1,56857.5
43722.3,56869.5
43710.3,56879.3
43696.6,56886.7
43681.8,56891.2
43663.9,56892.9
43236.1,56892.9
43218.2,56891.2
43203.4,56886.7
43189.7,56879.3
43177.7,56869.5
43167.9,56857.5
43160.6,56843.8
43156.1,56829
43154.3,56811.2
43154.3,56481.8
43156.1,56463.9
43160.6,56449.1
43167.9,56435.4
43177.7,56423.4
43189.7,56413.6
43203.4,56406.3
43218.2,56401.8
43236.1,56400
43663.9,56400
Z" /> 
<path style="fill:#000000; fill-opacity:1.0; 
stroke:#000000; stroke-width:0; stroke-opacity:1; 
stroke-linecap:round; stroke-linejoin:round;fill-rule:evenodd;"
d="M 46131.8,56401.8
46146.6,56406.3
46160.3,56413.6
46172.3,56423.4
46182.1,56435.4
46189.4,56449.1
46193.9,56463.9
46195.7,56481.8
46195.7,56811.2
46193.9,56829
46189.4,56843.8
46182.1,56857.5
46172.3,56869.5
46160.3,56879.3
46146.6,56886.7
46131.8,56891.2
46113.9,56892.9
45686.1,56892.9
45668.2,56891.2
45653.4,56886.7
45639.7,56879.3
45627.7,56869.5
45617.9,56857.5
45610.6,56843.8
45606.1,56829
45604.3,56811.2
45604.3,56481.8
45606.1,56463.9
45610.6,56449.1
45617.9,56435.4
45627.7,56423.4
45639.7,56413.6
45653.4,56406.3
45668.2,56401.8
45686.1,56400
46113.9,56400
Z" /> 
<path style="fill:#000000; fill-opacity:1.0; 
stroke:#000000; stroke-width:0; stroke-opacity:1; 
stroke-linecap:round; stroke-linejoin:round;fill-rule:evenodd;"
d="M 48431.8,56401.8
48446.6,56406.3
48460.3,56413.6
48472.3,56423.4
48482.1,56435.4
48489.4,56449.1
48493.9,56463.9
48495.7,56481.8
48495.7,56811.2
48493.9,56829
48489.4,56843.8
48482.1,56857.5
48472.3,56869.5
48460.3,56879.3
48446.6,56886.7
48431.8,56891.2
48413.9,56892.9
47986.1,56892.9
47968.2,56891.2
47953.4,56886.7
47939.7,56879.3
47927.7,56869.5
47917.9,56857.5
47910.6,56843.8
47906.1,56829
47904.3,56811.2
47904.3,56481.8
47906.1,56463.9
47910.6,56449.1
47917.9,56435.4
47927.7,56423.4
47939.7,56413.6
47953.4,56406.3
47968.2,56401.8
47986.1,56400
48413.9,56400
Z" /> 
<path style="fill:#000000; fill-opacity:1.0; 
stroke:#000000; stroke-width:0; stroke-opacity:1; 
stroke-linecap:round; stroke-linejoin:round;fill-rule:evenodd;"
d="M 45286.1,55606.1
45300.9,55610.6
45314.6,55617.9
45326.6,55627.7
45336.4,55639.7
45343.7,55653.4
45348.2,55668.2
45350,55686.1
45350,56113.9
45348.2,56131.8
45343.7,56146.6
45336.4,56160.3
45326.6,56172.3
45314.6,56182.1
45300.9,56189.4
45286.1,56193.9
45268.2,56195.7
44938.8,56195.7
44921,56193.9
44906.2,56189.4
44892.5,56182.1
44880.5,56172.3
44870.7,56160.3
44863.3,56146.6
44858.8,56131.8
44857.1,56113.9
44857.1,55686.1
44858.8,55668.2
44863.3,55653.4
44870.7,55639.7
44880.5,55627.7
44892.5,55617.9
44906.2,55610.6
44921,55606.1
44938.8,55604.3
45268.2,55604.3
Z" /> 
<path style="fill:#000000; fill-opacity:1.0; 
stroke:#000000; stroke-width:0; stroke-opacity:1; 
stroke-linecap:round; stroke-linejoin:round;fill-rule:evenodd;"
d="M 44479,55606.1
44493.8,55610.6
44507.5,55617.9
44519.5,55627.7
44529.3,55639.7
44536.7,55653.4
44541.2,55668.2
44542.9,55686.1
44542.9,56113.9
44541.2,56131.8
44536.7,56146.6
44529.3,56160.3
44519.5,56172.3
44507.5,56182.1
44493.8,56189.4
44479,56193.9
44461.2,56195.7
44131.8,56195.7
44113.9,56193.9
44099.1,56189.4
44085.4,56182.1
44073.4,56172.3
44063.6,56160.3
44056.3,56146.6
44051.8,56131.8
44050,56113.9
44050,55686.1
44051.8,55668.2
44056.3,55653.4
44063.6,55639.7
44073.4,55627.7
44085.4,55617.9
44099.1,55610.6
44113.9,55606.1
44131.8,55604.3
44461.2,55604.3
Z" /> 
<path style="fill:#000000; fill-opacity:1.0; 
stroke:#000000; stroke-width:0; stroke-opacity:1; 
stroke-linecap:round; stroke-linejoin:round;fill-rule:evenodd;"
d="M 46829,55556.1
46843.8,55560.6
46857.5,55567.9
46869.5,55577.7
46879.3,55589.7
46886.7,55603.4
46891.2,55618.2
46892.9,55636.1
46892.9,56063.9
46891.2,56081.8
46886.7,56096.6
46879.3,56110.3
46869.5,56122.3
46857.5,56132.1
46843.8,56139.4
46829,56143.9
46811.2,56145.7
46481.8,56145.7
46463.9,56143.9
46449.1,56139.4
46435.4,56132.1
46423.4,56122.3
46413.6,56110.3
46406.3,56096.6
46401.8,56081.8
46400,56063.9
46400,55636.1
46401.8,55618.2
46406.3,55603.4
46413.6,55589.7
46423.4,55577.7
46435.4,55567.9
46449.1,55560.6
46463.9,55556.1
46481.8,55554.3
46811.2,55554.3
Z" /> 
<path style="fill:#000000; fill-opacity:1.0; 
stroke:#000000; stroke-width:0; stroke-opacity:1; 
stroke-linecap:round; stroke-linejoin:round;fill-rule:evenodd;"
d="M 42886.1,55556.1
42900.9,55560.6
42914.6,55567.9
42926.6,55577.7
42936.4,55589.7
42943.7,55603.4
42948.2,55618.2
42950,55636.1
42950,56063.9
42948.2,56081.8
42943.7,56096.6
42936.4,56110.3
42926.6,56122.3
42914.6,56132.1
42900.9,56139.4
42886.1,56143.9
42868.2,56145.7
42538.8,56145.7
42521,56143.9
42506.2,56139.4
42492.5,56132.1
42480.5,56122.3
42470.7,56110.3
42463.3,56096.6
42458.8,56081.8
42457.1,56063.9
42457.1,55636.1
42458.8,55618.2
42463.3,55603.4
42470.7,55589.7
42480.5,55577.7
42492.5,55567.9
42506.2,55560.6
42521,55556.1
42538.8,55554.3
42868.2,55554.3
Z" /> 
<path style="fill:#000000; fill-opacity:1.0; 
stroke:#000000; stroke-width:0; stroke-opacity:1; 
stroke-linecap:round; stroke-linejoin:round;fill-rule:evenodd;"
d="M 47636.1,55556.1
47650.9,55560.6
47664.6,55567.9
47676.6,55577.7
47686.4,55589.7
47693.7,55603.4
47698.2,55618.2
47700,55636.1
47700,56063.9
47698.2,56081.8
47693.7,56096.6
47686.4,56110.3
47676.6,56122.3
47664.6,56132.1
47650.9,56139.4
47636.1,56143.9
47618.2,56145.7
47288.8,56145.7
47271,56143.9
47256.2,56139.4
47242.5,56132.1
47230.5,56122.3
47220.7,56110.3
47213.3,56096.6
47208.8,56081.8
47207.1,56063.9
47207.1,55636.1
47208.8,55618.2
47213.3,55603.4
47220.7,55589.7
47230.5,55577.7
47242.5,55567.9
47256.2,55560.6
47271,55556.1
47288.8,55554.3
47618.2,55554.3
Z" /> 
<path style="fill:#000000; fill-opacity:1.0; 
stroke:#000000; stroke-width:0; stroke-opacity:1; 
stroke-linecap:round; stroke-linejoin:round;fill-rule:evenodd;"
d="M 42079,55556.1
42093.8,55560.6
42107.5,55567.9
42119.5,55577.7
42129.3,55589.7
42136.7,55603.4
42141.2,55618.2
42142.9,55636.1
42142.9,56063.9
42141.2,56081.8
42136.7,56096.6
42129.3,56110.3
42119.5,56122.3
42107.5,56132.1
42093.8,56139.4
42079,56143.9
42061.2,56145.7
41731.8,56145.7
41713.9,56143.9
41699.1,56139.4
41685.4,56132.1
41673.4,56122.3
41663.6,56110.3
41656.3,56096.6
41651.8,56081.8
41650,56063.9
41650,55636.1
41651.8,55618.2
41656.3,55603.4
41663.6,55589.7
41673.4,55577.7
41685.4,55567.9
41699.1,55560.6
41713.9,55556.1
41731.8,55554.3
42061.2,55554.3
Z" /> 
<path style="fill:#000000; fill-opacity:1.0; 
stroke:#000000; stroke-width:0; stroke-opacity:1; 
stroke-linecap:round; stroke-linejoin:round;fill-rule:evenodd;"
d="M 40479,55556.1
40493.8,55560.6
40507.5,55567.9
40519.5,55577.7
40529.3,55589.7
40536.7,55603.4
40541.2,55618.2
40542.9,55636.1
40542.9,56063.9
40541.2,56081.8
40536.7,56096.6
40529.3,56110.3
40519.5,56122.3
40507.5,56132.1
40493.8,56139.4
40479,56143.9
40461.2,56145.7
40131.8,56145.7
40113.9,56143.9
40099.1,56139.4
40085.4,56132.1
40073.4,56122.3
40063.6,56110.3
40056.3,56096.6
40051.8,56081.8
40050,56063.9
40050,55636.1
40051.8,55618.2
40056.3,55603.4
40063.6,55589.7
40073.4,55577.7
40085.4,55567.9
40099.1,55560.6
40113.9,55556.1
40131.8,55554.3
40461.2,55554.3
Z" /> 
<path style="fill:#000000; fill-opacity:1.0; 
stroke:#000000; stroke-width:0; stroke-opacity:1; 
stroke-linecap:round; stroke-linejoin:round;fill-rule:evenodd;"
d="M 41286.1,55556.1
41300.9,55560.6
41314.6,55567.9
41326.6,55577.7
41336.4,55589.7
41343.7,55603.4
41348.2,55618.2
41350,55636.1
41350,56063.9
41348.2,56081.8
41343.7,56096.6
41336.4,56110.3
41326.6,56122.3
41314.6,56132.1
41300.9,56139.4
41286.1,56143.9
41268.2,56145.7
40938.8,56145.7
40921,56143.9
40906.2,56139.4
40892.5,56132.1
40880.5,56122.3
40870.7,56110.3
40863.3,56096.6
40858.8,56081.8
40857.1,56063.9
40857.1,55636.1
40858.8,55618.2
40863.3,55603.4
40870.7,55589.7
40880.5,55577.7
40892.5,55567.9
40906.2,55560.6
40921,55556.1
40938.8,55554.3
41268.2,55554.3
Z" /> 
<path style="fill:#000000; fill-opacity:1.0; 
stroke:#000000; stroke-width:0; stroke-opacity:1; 
stroke-linecap:round; stroke-linejoin:round;fill-rule:evenodd;"
d="M 41286.1,54756.1
41300.9,54760.6
41314.6,54767.9
41326.6,54777.7
41336.4,54789.7
41343.7,54803.4
41348.2,54818.2
41350,54836.1
41350,55263.9
41348.2,55281.8
41343.7,55296.6
41336.4,55310.3
41326.6,55322.3
41314.6,55332.1
41300.9,55339.4
41286.1,55343.9
41268.2,55345.7
40938.8,55345.7
40921,55343.9
40906.2,55339.4
40892.5,55332.1
40880.5,55322.3
40870.7,55310.3
40863.3,55296.6
40858.8,55281.8
40857.1,55263.9
40857.1,54836.1
40858.8,54818.2
40863.3,54803.4
40870.7,54789.7
40880.5,54777.7
40892.5,54767.9
40906.2,54760.6
40921,54756.1
40938.8,54754.3
41268.2,54754.3
Z" /> 
<path style="fill:#000000; fill-opacity:1.0; 
stroke:#000000; stroke-width:0; stroke-opacity:1; 
stroke-linecap:round; stroke-linejoin:round;fill-rule:evenodd;"
d="M 40479,54756.1
40493.8,54760.6
40507.5,54767.9
40519.5,54777.7
40529.3,54789.7
40536.7,54803.4
40541.2,54818.2
40542.9,54836.1
40542.9,55263.9
40541.2,55281.8
40536.7,55296.6
40529.3,55310.3
40519.5,55322.3
40507.5,55332.1
40493.8,55339.4
40479,55343.9
40461.2,55345.7
40131.8,55345.7
40113.9,55343.9
40099.1,55339.4
40085.4,55332.1
40073.4,55322.3
40063.6,55310.3
40056.3,55296.6
40051.8,55281.8
40050,55263.9
40050,54836.1
40051.8,54818.2
40056.3,54803.4
40063.6,54789.7
40073.4,54777.7
40085.4,54767.9
40099.1,54760.6
40113.9,54756.1
40131.8,54754.3
40461.2,54754.3
Z" /> 
<path style="fill:#000000; fill-opacity:1.0; 
stroke:#000000; stroke-width:0; stroke-opacity:1; 
stroke-linecap:round; stroke-linejoin:round;fill-rule:evenodd;"
d="M 43334.3,54453.5
42585.4,54453.5
42585.4,53389.8
43334.3,53389.8
Z" /> 
<path style="fill:#000000; fill-opacity:1.0; 
stroke:#000000; stroke-width:0; stroke-opacity:1; 
stroke-linecap:round; stroke-linejoin:round;fill-rule:evenodd;"
d="M 45145.3,54453.5
44396.5,54453.5
44396.5,53389.8
45145.3,53389.8
Z" /> 
<path style="fill:#000000; fill-opacity:1.0; 
stroke:#000000; stroke-width:0; stroke-opacity:1; 
stroke-linecap:round; stroke-linejoin:round;fill-rule:evenodd;"
d="M 47015.4,54453.5
46266.5,54453.5
46266.5,53389.8
47015.4,53389.8
Z" /> 
<path style="fill:#000000; fill-opacity:1.0; 
stroke:#000000; stroke-width:0; stroke-opacity:1; 
stroke-linecap:round; stroke-linejoin:round;fill-rule:evenodd;"
d="M 48767.3,54453.5
48018.5,54453.5
48018.5,53389.8
48767.3,53389.8
Z" /> 
<path style="fill:#000000; fill-opacity:1.0; 
stroke:#000000; stroke-width:0; stroke-opacity:1; 
stroke-linecap:round; stroke-linejoin:round;fill-rule:evenodd;"
d="M 40194.7,52517.3
40253.5,52529
40318,52555.7
40376.1,52594.5
40425.5,52644
40464.4,52702.1
40491.1,52766.6
40504.7,52835.1
40504.7,52905
40491.1,52973.5
40464.4,53038.1
40425.5,53096.2
40376.1,53145.6
40318,53184.4
40253.5,53211.2
40194.7,53222.9
40184.9,53224.8
40115.1,53224.8
40105.3,53222.9
40046.5,53211.2
39982,53184.4
39923.9,53145.6
39874.5,53096.2
39835.6,53038.1
39808.9,52973.5
39795.3,52905
39795.3,52835.1
39808.9,52766.6
39835.6,52702.1
39874.5,52644
39923.9,52594.5
39982,52555.7
40046.5,52529
40105.3,52517.3
40115.1,52515.4
40184.9,52515.4
Z" /> 
<path style="fill:#000000; fill-opacity:1.0; 
stroke:#000000; stroke-width:0; stroke-opacity:1; 
stroke-linecap:round; stroke-linejoin:round;fill-rule:evenodd;"
d="M 51194.7,52517.3
51253.5,52529
51318,52555.7
51376.1,52594.5
51425.5,52644
51464.4,52702.1
51491.1,52766.6
51504.7,52835.1
51504.7,52905
51491.1,52973.5
51464.4,53038.1
51425.5,53096.2
51376.1,53145.6
51318,53184.4
51253.5,53211.2
51194.7,53222.9
51184.9,53224.8
51115.1,53224.8
51105.3,53222.9
51046.5,53211.2
50982,53184.4
50923.9,53145.6
50874.5,53096.2
50835.6,53038.1
50808.9,52973.5
50795.3,52905
50795.3,52835.1
50808.9,52766.6
50835.6,52702.1
50874.5,52644
50923.9,52594.5
50982,52555.7
51046.5,52529
51105.3,52517.3
51115.1,52515.4
51184.9,52515.4
Z" /> 
<path style="fill:#000000; fill-opacity:1.0; 
stroke:#000000; stroke-width:0; stroke-opacity:1; 
stroke-linecap:round; stroke-linejoin:round;fill-rule:evenodd;"
d="M 52194.7,52517.3
52253.5,52529
52318,52555.7
52376.1,52594.5
52425.5,52644
52464.4,52702.1
52491.1,52766.6
52504.7,52835.1
52504.7,52905
52491.1,52973.5
52464.4,53038.1
52425.5,53096.2
52376.1,53145.6
52318,53184.4
52253.5,53211.2
52194.7,53222.9
52184.9,53224.8
52115.1,53224.8
52105.3,53222.9
52046.5,53211.2
51982,53184.4
51923.9,53145.6
51874.5,53096.2
51835.6,53038.1
51808.9,52973.5
51795.3,52905
51795.3,52835.1
51808.9,52766.6
51835.6,52702.1
51874.5,52644
51923.9,52594.5
51982,52555.7
52046.5,52529
52105.3,52517.3
52115.1,52515.4
52184.9,52515.4
Z" /> 
<path style="fill:#000000; fill-opacity:1.0; 
stroke:#000000; stroke-width:0; stroke-opacity:1; 
stroke-linecap:round; stroke-linejoin:round;fill-rule:evenodd;"
d="M 42728,52780.3
41664.2,52780.3
41664.2,52031.5
42728,52031.5
Z" /> 
<path style="fill:#000000; fill-opacity:1.0; 
stroke:#000000; stroke-width:0; stroke-opacity:1; 
stroke-linecap:round; stroke-linejoin:round;fill-rule:evenodd;"
d="M 49735.8,52780.3
48672,52780.3
48672,52031.5
49735.8,52031.5
Z" /> 
<path style="fill:#000000; fill-opacity:1.0; 
stroke:#000000; stroke-width:0; stroke-opacity:1; 
stroke-linecap:round; stroke-linejoin:round;fill-rule:evenodd;"
d="M 40194.7,51517.3
40253.5,51529
40318,51555.7
40376.1,51594.5
40425.5,51644
40464.4,51702.1
40491.1,51766.6
40504.7,51835.1
40504.7,51905
40491.1,51973.5
40464.4,52038.1
40425.5,52096.2
40376.1,52145.6
40318,52184.4
40253.5,52211.2
40194.7,52222.9
40184.9,52224.8
40115.1,52224.8
40105.3,52222.9
40046.5,52211.2
39982,52184.4
39923.9,52145.6
39874.5,52096.2
39835.6,52038.1
39808.9,51973.5
39795.3,51905
39795.3,51835.1
39808.9,51766.6
39835.6,51702.1
39874.5,51644
39923.9,51594.5
39982,51555.7
40046.5,51529
40105.3,51517.3
40115.1,51515.4
40184.9,51515.4
Z" /> 
<path style="fill:#000000; fill-opacity:1.0; 
stroke:#000000; stroke-width:0; stroke-opacity:1; 
stroke-linecap:round; stroke-linejoin:round;fill-rule:evenodd;"
d="M 51194.7,51517.3
51253.5,51529
51318,51555.7
51376.1,51594.5
51425.5,51644
51464.4,51702.1
51491.1,51766.6
51504.7,51835.1
51504.7,51905
51491.1,51973.5
51464.4,52038.1
51425.5,52096.2
51376.1,52145.6
51318,52184.4
51253.5,52211.2
51194.7,52222.9
51184.9,52224.8
51115.1,52224.8
51105.3,52222.9
51046.5,52211.2
50982,52184.4
50923.9,52145.6
50874.5,52096.2
50835.6,52038.1
50808.9,51973.5
50795.3,51905
50795.3,51835.1
50808.9,51766.6
50835.6,51702.1
50874.5,51644
50923.9,51594.5
50982,51555.7
51046.5,51529
51105.3,51517.3
51115.1,51515.4
51184.9,51515.4
Z" /> 
<path style="fill:#000000; fill-opacity:1.0; 
stroke:#000000; stroke-width:0; stroke-opacity:1; 
stroke-linecap:round; stroke-linejoin:round;fill-rule:evenodd;"
d="M 52194.7,51517.3
52253.5,51529
52318,51555.7
52376.1,51594.5
52425.5,51644
52464.4,51702.1
52491.1,51766.6
52504.7,51835.1
52504.7,51905
52491.1,51973.5
52464.4,52038.1
52425.5,52096.2
52376.1,52145.6
52318,52184.4
52253.5,52211.2
52194.7,52222.9
52184.9,52224.8
52115.1,52224.8
52105.3,52222.9
52046.5,52211.2
51982,52184.4
51923.9,52145.6
51874.5,52096.2
51835.6,52038.1
51808.9,51973.5
51795.3,51905
51795.3,51835.1
51808.9,51766.6
51835.6,51702.1
51874.5,51644
51923.9,51594.5
51982,51555.7
52046.5,51529
52105.3,51517.3
52115.1,51515.4
52184.9,51515.4
Z" /> 
<path style="fill:#000000; fill-opacity:1.0; 
stroke:#000000; stroke-width:0; stroke-opacity:1; 
stroke-linecap:round; stroke-linejoin:round;fill-rule:evenodd;"
d="M 52194.7,50517.3
52253.5,50529
52318,50555.7
52376.1,50594.5
52425.5,50644
52464.4,50702.1
52491.1,50766.6
52504.7,50835.1
52504.7,50905
52491.1,50973.5
52464.4,51038.1
52425.5,51096.2
52376.1,51145.6
52318,51184.4
52253.5,51211.2
52194.7,51222.9
52184.9,51224.8
52115.1,51224.8
52105.3,51222.9
52046.5,51211.2
51982,51184.4
51923.9,51145.6
51874.5,51096.2
51835.6,51038.1
51808.9,50973.5
51795.3,50905
51795.3,50835.1
51808.9,50766.6
51835.6,50702.1
51874.5,50644
51923.9,50594.5
51982,50555.7
52046.5,50529
52105.3,50517.3
52115.1,50515.4
52184.9,50515.4
Z" /> 
<path style="fill:#000000; fill-opacity:1.0; 
stroke:#000000; stroke-width:0; stroke-opacity:1; 
stroke-linecap:round; stroke-linejoin:round;fill-rule:evenodd;"
d="M 51194.7,50517.3
51253.5,50529
51318,50555.7
51376.1,50594.5
51425.5,50644
51464.4,50702.1
51491.1,50766.6
51504.7,50835.1
51504.7,50905
51491.1,50973.5
51464.4,51038.1
51425.5,51096.2
51376.1,51145.6
51318,51184.4
51253.5,51211.2
51194.7,51222.9
51184.9,51224.8
51115.1,51224.8
51105.3,51222.9
51046.5,51211.2
50982,51184.4
50923.9,51145.6
50874.5,51096.2
50835.6,51038.1
50808.9,50973.5
50795.3,50905
50795.3,50835.1
50808.9,50766.6
50835.6,50702.1
50874.5,50644
50923.9,50594.5
50982,50555.7
51046.5,50529
51105.3,50517.3
51115.1,50515.4
51184.9,50515.4
Z" /> 
<path style="fill:#000000; fill-opacity:1.0; 
stroke:#000000; stroke-width:0; stroke-opacity:1; 
stroke-linecap:round; stroke-linejoin:round;fill-rule:evenodd;"
d="M 40194.7,50517.3
40253.5,50529
40318,50555.7
40376.1,50594.5
40425.5,50644
40464.4,50702.1
40491.1,50766.6
40504.7,50835.1
40504.7,50905
40491.1,50973.5
40464.4,51038.1
40425.5,51096.2
40376.1,51145.6
40318,51184.4
40253.5,51211.2
40194.7,51222.9
40184.9,51224.8
40115.1,51224.8
40105.3,51222.9
40046.5,51211.2
39982,51184.4
39923.9,51145.6
39874.5,51096.2
39835.6,51038.1
39808.9,50973.5
39795.3,50905
39795.3,50835.1
39808.9,50766.6
39835.6,50702.1
39874.5,50644
39923.9,50594.5
39982,50555.7
40046.5,50529
40105.3,50517.3
40115.1,50515.4
40184.9,50515.4
Z" /> 
<path style="fill:#000000; fill-opacity:1.0; 
stroke:#000000; stroke-width:0; stroke-opacity:1; 
stroke-linecap:round; stroke-linejoin:round;fill-rule:evenodd;"
d="M 49735.8,51028.3
48672,51028.3
48672,50279.5
49735.8,50279.5
Z" /> 
<path style="fill:#000000; fill-opacity:1.0; 
stroke:#000000; stroke-width:0; stroke-opacity:1; 
stroke-linecap:round; stroke-linejoin:round;fill-rule:evenodd;"
d="M 42728,51028.3
41664.2,51028.3
41664.2,50279.5
42728,50279.5
Z" /> 
<path style="fill:#000000; fill-opacity:1.0; 
stroke:#000000; stroke-width:0; stroke-opacity:1; 
stroke-linecap:round; stroke-linejoin:round;fill-rule:evenodd;"
d="M 40194.7,49517.3
40253.5,49529
40318,49555.7
40376.1,49594.5
40425.5,49644
40464.4,49702.1
40491.1,49766.6
40504.7,49835.1
40504.7,49905
40491.1,49973.5
40464.4,50038.1
40425.5,50096.2
40376.1,50145.6
40318,50184.4
40253.5,50211.2
40194.7,50222.9
40184.9,50224.8
40115.1,50224.8
40105.3,50222.9
40046.5,50211.2
39982,50184.4
39923.9,50145.6
39874.5,50096.2
39835.6,50038.1
39808.9,49973.5
39795.3,49905
39795.3,49835.1
39808.9,49766.6
39835.6,49702.1
39874.5,49644
39923.9,49594.5
39982,49555.7
40046.5,49529
40105.3,49517.3
40115.1,49515.4
40184.9,49515.4
Z" /> 
<path style="fill:#000000; fill-opacity:1.0; 
stroke:#000000; stroke-width:0; stroke-opacity:1; 
stroke-linecap:round; stroke-linejoin:round;fill-rule:evenodd;"
d="M 52194.7,49517.3
52253.5,49529
52318,49555.7
52376.1,49594.5
52425.5,49644
52464.4,49702.1
52491.1,49766.6
52504.7,49835.1
52504.7,49905
52491.1,49973.5
52464.4,50038.1
52425.5,50096.2
52376.1,50145.6
52318,50184.4
52253.5,50211.2
52194.7,50222.9
52184.9,50224.8
52115.1,50224.8
52105.3,50222.9
52046.5,50211.2
51982,50184.4
51923.9,50145.6
51874.5,50096.2
51835.6,50038.1
51808.9,49973.5
51795.3,49905
51795.3,49835.1
51808.9,49766.6
51835.6,49702.1
51874.5,49644
51923.9,49594.5
51982,49555.7
52046.5,49529
52105.3,49517.3
52115.1,49515.4
52184.9,49515.4
Z" /> 
<path style="fill:#000000; fill-opacity:1.0; 
stroke:#000000; stroke-width:0; stroke-opacity:1; 
stroke-linecap:round; stroke-linejoin:round;fill-rule:evenodd;"
d="M 51194.7,49517.3
51253.5,49529
51318,49555.7
51376.1,49594.5
51425.5,49644
51464.4,49702.1
51491.1,49766.6
51504.7,49835.1
51504.7,49905
51491.1,49973.5
51464.4,50038.1
51425.5,50096.2
51376.1,50145.6
51318,50184.4
51253.5,50211.2
51194.7,50222.9
51184.9,50224.8
51115.1,50224.8
51105.3,50222.9
51046.5,50211.2
50982,50184.4
50923.9,50145.6
50874.5,50096.2
50835.6,50038.1
50808.9,49973.5
50795.3,49905
50795.3,49835.1
50808.9,49766.6
50835.6,49702.1
50874.5,49644
50923.9,49594.5
50982,49555.7
51046.5,49529
51105.3,49517.3
51115.1,49515.4
51184.9,49515.4
Z" /> 
<path style="fill:#000000; fill-opacity:1.0; 
stroke:#000000; stroke-width:0; stroke-opacity:1; 
stroke-linecap:round; stroke-linejoin:round;fill-rule:evenodd;"
d="M 42728,49276.4
41664.2,49276.4
41664.2,48527.6
42728,48527.6
Z" /> 
<path style="fill:#000000; fill-opacity:1.0; 
stroke:#000000; stroke-width:0; stroke-opacity:1; 
stroke-linecap:round; stroke-linejoin:round;fill-rule:evenodd;"
d="M 49735.8,49276.4
48672,49276.4
48672,48527.6
49735.8,48527.6
Z" /> 
<path style="fill:#000000; fill-opacity:1.0; 
stroke:#000000; stroke-width:0; stroke-opacity:1; 
stroke-linecap:round; stroke-linejoin:round;fill-rule:evenodd;"
d="M 40194.7,48517.3
40253.5,48529
40318,48555.7
40376.1,48594.5
40425.5,48644
40464.4,48702.1
40491.1,48766.6
40504.7,48835.1
40504.7,48905
40491.1,48973.5
40464.4,49038.1
40425.5,49096.2
40376.1,49145.6
40318,49184.4
40253.5,49211.2
40194.7,49222.9
40184.9,49224.8
40115.1,49224.8
40105.3,49222.9
40046.5,49211.2
39982,49184.4
39923.9,49145.6
39874.5,49096.2
39835.6,49038.1
39808.9,48973.5
39795.3,48905
39795.3,48835.1
39808.9,48766.6
39835.6,48702.1
39874.5,48644
39923.9,48594.5
39982,48555.7
40046.5,48529
40105.3,48517.3
40115.1,48515.4
40184.9,48515.4
Z" /> 
<path style="fill:#000000; fill-opacity:1.0; 
stroke:#000000; stroke-width:0; stroke-opacity:1; 
stroke-linecap:round; stroke-linejoin:round;fill-rule:evenodd;"
d="M 51194.7,48517.3
51253.5,48529
51318,48555.7
51376.1,48594.5
51425.5,48644
51464.4,48702.1
51491.1,48766.6
51504.7,48835.1
51504.7,48905
51491.1,48973.5
51464.4,49038.1
51425.5,49096.2
51376.1,49145.6
51318,49184.4
51253.5,49211.2
51194.7,49222.9
51184.9,49224.8
51115.1,49224.8
51105.3,49222.9
51046.5,49211.2
50982,49184.4
50923.9,49145.6
50874.5,49096.2
50835.6,49038.1
50808.9,48973.5
50795.3,48905
50795.3,48835.1
50808.9,48766.6
50835.6,48702.1
50874.5,48644
50923.9,48594.5
50982,48555.7
51046.5,48529
51105.3,48517.3
51115.1,48515.4
51184.9,48515.4
Z" /> 
<path style="fill:#000000; fill-opacity:1.0; 
stroke:#000000; stroke-width:0; stroke-opacity:1; 
stroke-linecap:round; stroke-linejoin:round;fill-rule:evenodd;"
d="M 52194.7,48517.3
52253.5,48529
52318,48555.7
52376.1,48594.5
52425.5,48644
52464.4,48702.1
52491.1,48766.6
52504.7,48835.1
52504.7,48905
52491.1,48973.5
52464.4,49038.1
52425.5,49096.2
52376.1,49145.6
52318,49184.4
52253.5,49211.2
52194.7,49222.9
52184.9,49224.8
52115.1,49224.8
52105.3,49222.9
52046.5,49211.2
51982,49184.4
51923.9,49145.6
51874.5,49096.2
51835.6,49038.1
51808.9,48973.5
51795.3,48905
51795.3,48835.1
51808.9,48766.6
51835.6,48702.1
51874.5,48644
51923.9,48594.5
51982,48555.7
52046.5,48529
52105.3,48517.3
52115.1,48515.4
52184.9,48515.4
Z" /> 
<path style="fill:#000000; fill-opacity:1.0; 
stroke:#000000; stroke-width:0; stroke-opacity:1; 
stroke-linecap:round; stroke-linejoin:round;fill-rule:evenodd;"
d="M 52194.7,47517.3
52253.5,47529
52318,47555.7
52376.1,47594.5
52425.5,47644
52464.4,47702.1
52491.1,47766.6
52504.7,47835.1
52504.7,47905
52491.1,47973.5
52464.4,48038.1
52425.5,48096.2
52376.1,48145.6
52318,48184.4
52253.5,48211.2
52194.7,48222.9
52184.9,48224.8
52115.1,48224.8
52105.3,48222.9
52046.5,48211.2
51982,48184.4
51923.9,48145.6
51874.5,48096.2
51835.6,48038.1
51808.9,47973.5
51795.3,47905
51795.3,47835.1
51808.9,47766.6
51835.6,47702.1
51874.5,47644
51923.9,47594.5
51982,47555.7
52046.5,47529
52105.3,47517.3
52115.1,47515.4
52184.9,47515.4
Z" /> 
<path style="fill:#000000; fill-opacity:1.0; 
stroke:#000000; stroke-width:0; stroke-opacity:1; 
stroke-linecap:round; stroke-linejoin:round;fill-rule:evenodd;"
d="M 40194.7,47517.3
40253.5,47529
40318,47555.7
40376.1,47594.5
40425.5,47644
40464.4,47702.1
40491.1,47766.6
40504.7,47835.1
40504.7,47905
40491.1,47973.5
40464.4,48038.1
40425.5,48096.2
40376.1,48145.6
40318,48184.4
40253.5,48211.2
40194.7,48222.9
40184.9,48224.8
40115.1,48224.8
40105.3,48222.9
40046.5,48211.2
39982,48184.4
39923.9,48145.6
39874.5,48096.2
39835.6,48038.1
39808.9,47973.5
39795.3,47905
39795.3,47835.1
39808.9,47766.6
39835.6,47702.1
39874.5,47644
39923.9,47594.5
39982,47555.7
40046.5,47529
40105.3,47517.3
40115.1,47515.4
40184.9,47515.4
Z" /> 
<path style="fill:#000000; fill-opacity:1.0; 
stroke:#000000; stroke-width:0; stroke-opacity:1; 
stroke-linecap:round; stroke-linejoin:round;fill-rule:evenodd;"
d="M 51194.7,47517.3
51253.5,47529
51318,47555.7
51376.1,47594.5
51425.5,47644
51464.4,47702.1
51491.1,47766.6
51504.7,47835.1
51504.7,47905
51491.1,47973.5
51464.4,48038.1
51425.5,48096.2
51376.1,48145.6
51318,48184.4
51253.5,48211.2
51194.7,48222.9
51184.9,48224.8
51115.1,48224.8
51105.3,48222.9
51046.5,48211.2
50982,48184.4
50923.9,48145.6
50874.5,48096.2
50835.6,48038.1
50808.9,47973.5
50795.3,47905
50795.3,47835.1
50808.9,47766.6
50835.6,47702.1
50874.5,47644
50923.9,47594.5
50982,47555.7
51046.5,47529
51105.3,47517.3
51115.1,47515.4
51184.9,47515.4
Z" /> 
<path style="fill:#000000; fill-opacity:1.0; 
stroke:#000000; stroke-width:0; stroke-opacity:1; 
stroke-linecap:round; stroke-linejoin:round;fill-rule:evenodd;"
d="M 49735.8,47524.4
48672,47524.4
48672,46775.6
49735.8,46775.6
Z" /> 
<path style="fill:#000000; fill-opacity:1.0; 
stroke:#000000; stroke-width:0; stroke-opacity:1; 
stroke-linecap:round; stroke-linejoin:round;fill-rule:evenodd;"
d="M 42728,47524.4
41664.2,47524.4
41664.2,46775.6
42728,46775.6
Z" /> 
<path style="fill:#000000; fill-opacity:1.0; 
stroke:#000000; stroke-width:0; stroke-opacity:1; 
stroke-linecap:round; stroke-linejoin:round;fill-rule:evenodd;"
d="M 52194.7,46517.3
52253.5,46529
52318,46555.7
52376.1,46594.5
52425.5,46644
52464.4,46702.1
52491.1,46766.6
52504.7,46835.1
52504.7,46905
52491.1,46973.5
52464.4,47038.1
52425.5,47096.2
52376.1,47145.6
52318,47184.4
52253.5,47211.2
52194.7,47222.9
52184.9,47224.8
52115.1,47224.8
52105.3,47222.9
52046.5,47211.2
51982,47184.4
51923.9,47145.6
51874.5,47096.2
51835.6,47038.1
51808.9,46973.5
51795.3,46905
51795.3,46835.1
51808.9,46766.6
51835.6,46702.1
51874.5,46644
51923.9,46594.5
51982,46555.7
52046.5,46529
52105.3,46517.3
52115.1,46515.4
52184.9,46515.4
Z" /> 
<path style="fill:#000000; fill-opacity:1.0; 
stroke:#000000; stroke-width:0; stroke-opacity:1; 
stroke-linecap:round; stroke-linejoin:round;fill-rule:evenodd;"
d="M 51194.7,46517.3
51253.5,46529
51318,46555.7
51376.1,46594.5
51425.5,46644
51464.4,46702.1
51491.1,46766.6
51504.7,46835.1
51504.7,46905
51491.1,46973.5
51464.4,47038.1
51425.5,47096.2
51376.1,47145.6
51318,47184.4
51253.5,47211.2
51194.7,47222.9
51184.9,47224.8
51115.1,47224.8
51105.3,47222.9
51046.5,47211.2
50982,47184.4
50923.9,47145.6
50874.5,47096.2
50835.6,47038.1
50808.9,46973.5
50795.3,46905
50795.3,46835.1
50808.9,46766.6
50835.6,46702.1
50874.5,46644
50923.9,46594.5
50982,46555.7
51046.5,46529
51105.3,46517.3
51115.1,46515.4
51184.9,46515.4
Z" /> 
<path style="fill:#000000; fill-opacity:1.0; 
stroke:#000000; stroke-width:0; stroke-opacity:1; 
stroke-linecap:round; stroke-linejoin:round;fill-rule:evenodd;"
d="M 40194.7,46517.3
40253.5,46529
40318,46555.7
40376.1,46594.5
40425.5,46644
40464.4,46702.1
40491.1,46766.6
40504.7,46835.1
40504.7,46905
40491.1,46973.5
40464.4,47038.1
40425.5,47096.2
40376.1,47145.6
40318,47184.4
40253.5,47211.2
40194.7,47222.9
40184.9,47224.8
40115.1,47224.8
40105.3,47222.9
40046.5,47211.2
39982,47184.4
39923.9,47145.6
39874.5,47096.2
39835.6,47038.1
39808.9,46973.5
39795.3,46905
39795.3,46835.1
39808.9,46766.6
39835.6,46702.1
39874.5,46644
39923.9,46594.5
39982,46555.7
40046.5,46529
40105.3,46517.3
40115.1,46515.4
40184.9,46515.4
Z" /> 
<path style="fill:#000000; fill-opacity:1.0; 
stroke:#000000; stroke-width:0; stroke-opacity:1; 
stroke-linecap:round; stroke-linejoin:round;fill-rule:evenodd;"
d="M 51194.7,45517.3
51253.5,45529
51318,45555.7
51376.1,45594.5
51425.5,45644
51464.4,45702.1
51491.1,45766.6
51504.7,45835.1
51504.7,45905
51491.1,45973.5
51464.4,46038.1
51425.5,46096.2
51376.1,46145.6
51318,46184.4
51253.5,46211.2
51194.7,46222.9
51184.9,46224.8
51115.1,46224.8
51105.3,46222.9
51046.5,46211.2
50982,46184.4
50923.9,46145.6
50874.5,46096.2
50835.6,46038.1
50808.9,45973.5
50795.3,45905
50795.3,45835.1
50808.9,45766.6
50835.6,45702.1
50874.5,45644
50923.9,45594.5
50982,45555.7
51046.5,45529
51105.3,45517.3
51115.1,45515.4
51184.9,45515.4
Z" /> 
<path style="fill:#000000; fill-opacity:1.0; 
stroke:#000000; stroke-width:0; stroke-opacity:1; 
stroke-linecap:round; stroke-linejoin:round;fill-rule:evenodd;"
d="M 52194.7,45517.3
52253.5,45529
52318,45555.7
52376.1,45594.5
52425.5,45644
52464.4,45702.1
52491.1,45766.6
52504.7,45835.1
52504.7,45905
52491.1,45973.5
52464.4,46038.1
52425.5,46096.2
52376.1,46145.6
52318,46184.4
52253.5,46211.2
52194.7,46222.9
52184.9,46224.8
52115.1,46224.8
52105.3,46222.9
52046.5,46211.2
51982,46184.4
51923.9,46145.6
51874.5,46096.2
51835.6,46038.1
51808.9,45973.5
51795.3,45905
51795.3,45835.1
51808.9,45766.6
51835.6,45702.1
51874.5,45644
51923.9,45594.5
51982,45555.7
52046.5,45529
52105.3,45517.3
52115.1,45515.4
52184.9,45515.4
Z" /> 
<path style="fill:#000000; fill-opacity:1.0; 
stroke:#000000; stroke-width:0; stroke-opacity:1; 
stroke-linecap:round; stroke-linejoin:round;fill-rule:evenodd;"
d="M 40194.7,45517.3
40253.5,45529
40318,45555.7
40376.1,45594.5
40425.5,45644
40464.4,45702.1
40491.1,45766.6
40504.7,45835.1
40504.7,45905
40491.1,45973.5
40464.4,46038.1
40425.5,46096.2
40376.1,46145.6
40318,46184.4
40253.5,46211.2
40194.7,46222.9
40184.9,46224.8
40115.1,46224.8
40105.3,46222.9
40046.5,46211.2
39982,46184.4
39923.9,46145.6
39874.5,46096.2
39835.6,46038.1
39808.9,45973.5
39795.3,45905
39795.3,45835.1
39808.9,45766.6
39835.6,45702.1
39874.5,45644
39923.9,45594.5
39982,45555.7
40046.5,45529
40105.3,45517.3
40115.1,45515.4
40184.9,45515.4
Z" /> 
<path style="fill:#000000; fill-opacity:1.0; 
stroke:#000000; stroke-width:0; stroke-opacity:1; 
stroke-linecap:round; stroke-linejoin:round;fill-rule:evenodd;"
d="M 49735.8,45772.4
48672,45772.4
48672,45023.6
49735.8,45023.6
Z" /> 
<path style="fill:#000000; fill-opacity:1.0; 
stroke:#000000; stroke-width:0; stroke-opacity:1; 
stroke-linecap:round; stroke-linejoin:round;fill-rule:evenodd;"
d="M 42728,45654.3
41664.2,45654.3
41664.2,44905.5
42728,44905.5
Z" /> 
<path style="fill:#000000; fill-opacity:1.0; 
stroke:#000000; stroke-width:0; stroke-opacity:1; 
stroke-linecap:round; stroke-linejoin:round;fill-rule:evenodd;"
d="M 51504.7,45224.8
50795.3,45224.8
50795.3,44515.4
51504.7,44515.4
Z" /> 
<path style="fill:#000000; fill-opacity:1.0; 
stroke:#000000; stroke-width:0; stroke-opacity:1; 
stroke-linecap:round; stroke-linejoin:round;fill-rule:evenodd;"
d="M 40504.7,45224.8
39795.3,45224.8
39795.3,44515.4
40504.7,44515.4
Z" /> 
<path style="fill:#000000; fill-opacity:1.0; 
stroke:#000000; stroke-width:0; stroke-opacity:1; 
stroke-linecap:round; stroke-linejoin:round;fill-rule:evenodd;"
d="M 52194.7,44517.3
52253.5,44529
52318,44555.7
52376.1,44594.5
52425.5,44644
52464.4,44702.1
52491.1,44766.6
52504.7,44835.1
52504.7,44905
52491.1,44973.5
52464.4,45038.1
52425.5,45096.2
52376.1,45145.6
52318,45184.4
52253.5,45211.2
52194.7,45222.9
52184.9,45224.8
52115.1,45224.8
52105.3,45222.9
52046.5,45211.2
51982,45184.4
51923.9,45145.6
51874.5,45096.2
51835.6,45038.1
51808.9,44973.5
51795.3,44905
51795.3,44835.1
51808.9,44766.6
51835.6,44702.1
51874.5,44644
51923.9,44594.5
51982,44555.7
52046.5,44529
52105.3,44517.3
52115.1,44515.4
52184.9,44515.4
Z" /> 
<path style="fill:#000000; fill-opacity:1.0; 
stroke:#000000; stroke-width:0; stroke-opacity:1; 
stroke-linecap:round; stroke-linejoin:round;fill-rule:evenodd;"
d="M 49735.8,44020.5
48672,44020.5
48672,43271.7
49735.8,43271.7
Z" /> 
<path style="fill:#000000; fill-opacity:1.0; 
stroke:#000000; stroke-width:0; stroke-opacity:1; 
stroke-linecap:round; stroke-linejoin:round;fill-rule:evenodd;"
d="M 42728,44020.5
41664.2,44020.5
41664.2,43271.7
42728,43271.7
Z" /> 
<path style="fill:#000000; fill-opacity:1.0; 
stroke:#000000; stroke-width:0; stroke-opacity:1; 
stroke-linecap:round; stroke-linejoin:round;fill-rule:evenodd;"
d="M 42728,42268.5
41664.2,42268.5
41664.2,41519.7
42728,41519.7
Z" /> 
<path style="fill:#000000; fill-opacity:1.0; 
stroke:#000000; stroke-width:0; stroke-opacity:1; 
stroke-linecap:round; stroke-linejoin:round;fill-rule:evenodd;"
d="M 49735.8,42268.5
48672,42268.5
48672,41519.7
49735.8,41519.7
Z" /> 
</g> 
</svg>
