<?xml version="1.0" standalone="no"?>
 <!DOCTYPE svg PUBLIC "-//W3C//DTD SVG 1.1//EN" 
 "http://www.w3.org/Graphics/SVG/1.1/DTD/svg11.dtd"> 
<svg xmlns="http://www.w3.org/2000/svg" version="1.1" 
    width="29.7002cm" height="21.0007cm" viewBox="0 0 116930 82680 ">
<title>SVG Picture created as SA818_BREAKOUT-B_SilkS.svg date 2022/04/09 21:58:40 </title>
  <desc>Picture generated by PCBNEW </desc>
<g style="fill:#000000; fill-opacity:1;stroke:#000000; stroke-opacity:1;
stroke-linecap:round; stroke-linejoin:round; "
 transform="translate(0 0) scale(1 1)">
</g>
<g style="fill:#000000; fill-opacity:0.0; 
stroke:#000000; stroke-width:-0.000393701; stroke-opacity:1; 
stroke-linecap:round; stroke-linejoin:round;">
</g>
<g style="fill:#000000; fill-opacity:0.0; 
stroke:#000000; stroke-width:59.0551; stroke-opacity:1; 
stroke-linecap:round; stroke-linejoin:round;">
<text x="49600" y="41272"
textLength="-1760.5" font-size="-524.934" lengthAdjust="spacingAndGlyphs"
text-anchor="middle" opacity="0">SA818</text>
<path d="M50443 41234
L50387 41253
L50293 41253
L50256 41234
L50237 41215
L50218 41178
L50218 41140
L50237 41103
L50256 41084
L50293 41065
L50368 41047
L50406 41028
L50424 41009
L50443 40972
L50443 40934
L50424 40897
L50406 40878
L50368 40859
L50274 40859
L50218 40878
" />
<path d="M50068 41140
L49881 41140
" />
<path d="M50106 41253
L49974 40859
L49843 41253
" />
<path d="M49656 41028
L49693 41009
L49712 40990
L49731 40953
L49731 40934
L49712 40897
L49693 40878
L49656 40859
L49581 40859
L49543 40878
L49525 40897
L49506 40934
L49506 40953
L49525 40990
L49543 41009
L49581 41028
L49656 41028
L49693 41047
L49712 41065
L49731 41103
L49731 41178
L49712 41215
L49693 41234
L49656 41253
L49581 41253
L49543 41234
L49525 41215
L49506 41178
L49506 41103
L49525 41065
L49543 41047
L49581 41028
" />
<path d="M49131 41253
L49356 41253
" />
<path d="M49243 41253
L49243 40859
L49281 40915
L49318 40953
L49356 40972
" />
<path d="M48906 41028
L48943 41009
L48962 40990
L48981 40953
L48981 40934
L48962 40897
L48943 40878
L48906 40859
L48831 40859
L48793 40878
L48775 40897
L48756 40934
L48756 40953
L48775 40990
L48793 41009
L48831 41028
L48906 41028
L48943 41047
L48962 41065
L48981 41103
L48981 41178
L48962 41215
L48943 41234
L48906 41253
L48831 41253
L48793 41234
L48775 41215
L48756 41178
L48756 41103
L48775 41065
L48793 41047
L48831 41028
" />
<text x="49600" y="41921.7"
textLength="-823.116" font-size="-524.934" lengthAdjust="spacingAndGlyphs"
text-anchor="middle" opacity="0">DIL</text>
<path d="M49956 41902
L49956 41509
L49862 41509
L49806 41527
L49768 41565
L49749 41602
L49731 41677
L49731 41734
L49749 41809
L49768 41846
L49806 41884
L49862 41902
L49956 41902
" />
<path d="M49562 41902
L49562 41509
" />
<path d="M49187 41902
L49375 41902
L49375 41509
" />
</g>
<g style="fill:#000000; fill-opacity:0.0; 
stroke:#000000; stroke-width:19.685; stroke-opacity:1; 
stroke-linecap:round; stroke-linejoin:round;">
<path d="M53543 39370
L53543 58370
" />
<path d="M39370 58370
L53543 58370
" />
<path d="M39370 39370
L39370 58370
" />
<path d="M39370 39370
L53543 39370
" />
<g >
</g>
<g >
</g>
<g >
</g>
<g >
</g>
<g >
</g>
<g >
</g>
<g >
</g>
<g >
</g>
<g >
</g>
<g >
</g>
<g >
</g>
<g >
</g>
<g >
</g>
<g >
</g>
<g >
</g>
</g> 
</svg>
