G04 #@! TF.GenerationSoftware,KiCad,Pcbnew,5.1.5+dfsg1-2build2*
G04 #@! TF.CreationDate,2021-10-04T21:53:14-05:00*
G04 #@! TF.ProjectId,SA818_DIL,53413831-385f-4444-994c-2e6b69636164,rev?*
G04 #@! TF.SameCoordinates,Original*
G04 #@! TF.FileFunction,Copper,L2,Bot*
G04 #@! TF.FilePolarity,Positive*
%FSLAX46Y46*%
G04 Gerber Fmt 4.6, Leading zero omitted, Abs format (unit mm)*
G04 Created by KiCad (PCBNEW 5.1.5+dfsg1-2build2) date 2021-10-04 21:53:14*
%MOMM*%
%LPD*%
G04 APERTURE LIST*
%ADD10C,0.010000*%
%ADD11O,1.700000X1.700000*%
%ADD12R,1.700000X1.700000*%
%ADD13C,0.800000*%
%ADD14C,0.500000*%
%ADD15C,0.300000*%
%ADD16C,0.254000*%
G04 APERTURE END LIST*
D10*
G36*
X118443186Y-103259931D02*
G01*
X118359365Y-103704555D01*
X118050080Y-103832053D01*
X117740794Y-103959551D01*
X117369754Y-103707246D01*
X117265843Y-103636996D01*
X117171913Y-103574272D01*
X117092348Y-103521938D01*
X117031530Y-103482857D01*
X116993843Y-103459893D01*
X116983579Y-103454942D01*
X116965090Y-103467676D01*
X116925580Y-103502882D01*
X116869478Y-103556062D01*
X116801213Y-103622718D01*
X116725214Y-103698354D01*
X116645908Y-103778472D01*
X116567725Y-103858574D01*
X116495093Y-103934164D01*
X116432441Y-104000745D01*
X116384197Y-104053818D01*
X116354790Y-104088887D01*
X116347759Y-104100623D01*
X116357877Y-104122260D01*
X116386241Y-104169662D01*
X116429871Y-104238193D01*
X116485782Y-104323215D01*
X116550994Y-104420093D01*
X116588781Y-104475350D01*
X116657657Y-104576248D01*
X116718860Y-104667299D01*
X116769422Y-104743970D01*
X116806372Y-104801728D01*
X116826742Y-104836043D01*
X116829803Y-104843254D01*
X116822864Y-104863748D01*
X116803949Y-104911513D01*
X116775913Y-104979832D01*
X116741609Y-105061989D01*
X116703891Y-105151270D01*
X116665613Y-105240958D01*
X116629630Y-105324338D01*
X116598794Y-105394694D01*
X116575961Y-105445310D01*
X116563983Y-105469471D01*
X116563276Y-105470422D01*
X116544469Y-105475036D01*
X116494382Y-105485328D01*
X116418207Y-105500287D01*
X116321135Y-105518901D01*
X116208357Y-105540159D01*
X116142558Y-105552418D01*
X116022050Y-105575362D01*
X115913203Y-105597195D01*
X115821524Y-105616722D01*
X115752519Y-105632748D01*
X115711696Y-105644079D01*
X115703489Y-105647674D01*
X115695452Y-105672006D01*
X115688967Y-105726959D01*
X115684030Y-105806108D01*
X115680636Y-105903026D01*
X115678782Y-106011287D01*
X115678462Y-106124465D01*
X115679673Y-106236135D01*
X115682410Y-106339868D01*
X115686669Y-106429241D01*
X115692445Y-106497826D01*
X115699733Y-106539197D01*
X115704105Y-106547810D01*
X115730236Y-106558133D01*
X115785607Y-106572892D01*
X115862893Y-106590352D01*
X115954770Y-106608780D01*
X115986842Y-106614741D01*
X116141476Y-106643066D01*
X116263625Y-106665876D01*
X116357327Y-106684080D01*
X116426616Y-106698583D01*
X116475529Y-106710292D01*
X116508103Y-106720115D01*
X116528372Y-106728956D01*
X116540374Y-106737724D01*
X116542053Y-106739457D01*
X116558816Y-106767371D01*
X116584386Y-106821695D01*
X116616212Y-106895777D01*
X116651740Y-106982965D01*
X116688417Y-107076608D01*
X116723689Y-107170052D01*
X116755004Y-107256647D01*
X116779807Y-107329740D01*
X116795546Y-107382678D01*
X116799668Y-107408811D01*
X116799324Y-107409726D01*
X116785359Y-107431086D01*
X116753678Y-107478084D01*
X116707609Y-107545827D01*
X116650482Y-107629423D01*
X116585627Y-107723982D01*
X116567157Y-107750854D01*
X116501301Y-107848275D01*
X116443350Y-107937163D01*
X116396462Y-108012412D01*
X116363793Y-108068920D01*
X116348500Y-108101581D01*
X116347759Y-108105593D01*
X116360608Y-108126684D01*
X116396112Y-108168464D01*
X116449707Y-108226445D01*
X116516829Y-108296135D01*
X116592913Y-108373045D01*
X116673396Y-108452683D01*
X116753713Y-108530561D01*
X116829301Y-108602186D01*
X116895595Y-108663070D01*
X116948031Y-108708721D01*
X116982045Y-108734650D01*
X116991455Y-108738883D01*
X117013357Y-108728912D01*
X117058200Y-108702020D01*
X117118679Y-108662736D01*
X117165211Y-108631117D01*
X117249525Y-108573098D01*
X117349374Y-108504784D01*
X117449527Y-108436579D01*
X117503373Y-108400075D01*
X117685629Y-108276800D01*
X117838619Y-108359520D01*
X117908318Y-108395759D01*
X117967586Y-108423926D01*
X118007689Y-108439991D01*
X118017897Y-108442226D01*
X118030171Y-108425722D01*
X118054387Y-108379082D01*
X118088737Y-108306609D01*
X118131412Y-108212606D01*
X118180606Y-108101374D01*
X118234510Y-107977215D01*
X118291316Y-107844432D01*
X118349218Y-107707327D01*
X118406407Y-107570202D01*
X118461076Y-107437358D01*
X118511416Y-107313098D01*
X118555620Y-107201725D01*
X118591881Y-107107539D01*
X118618391Y-107034844D01*
X118633342Y-106987941D01*
X118635746Y-106971833D01*
X118616689Y-106951286D01*
X118574964Y-106917933D01*
X118519294Y-106878702D01*
X118514622Y-106875599D01*
X118370736Y-106760423D01*
X118254717Y-106626053D01*
X118167570Y-106476784D01*
X118110301Y-106316913D01*
X118083914Y-106150737D01*
X118089415Y-105982552D01*
X118127810Y-105816655D01*
X118200105Y-105657342D01*
X118221374Y-105622487D01*
X118332004Y-105481737D01*
X118462698Y-105368714D01*
X118608936Y-105284003D01*
X118766192Y-105228194D01*
X118929943Y-105201874D01*
X119095667Y-105205630D01*
X119258838Y-105240050D01*
X119414935Y-105305723D01*
X119559433Y-105403235D01*
X119604131Y-105442813D01*
X119717888Y-105566703D01*
X119800782Y-105697124D01*
X119857644Y-105843315D01*
X119889313Y-105988088D01*
X119897131Y-106150860D01*
X119871062Y-106314440D01*
X119813755Y-106473298D01*
X119727856Y-106621906D01*
X119616014Y-106754735D01*
X119480877Y-106866256D01*
X119463117Y-106878011D01*
X119406850Y-106916508D01*
X119364077Y-106949863D01*
X119343628Y-106971160D01*
X119343331Y-106971833D01*
X119347721Y-106994871D01*
X119365124Y-107047157D01*
X119393732Y-107124390D01*
X119431735Y-107222268D01*
X119477326Y-107336491D01*
X119528697Y-107462758D01*
X119584038Y-107596767D01*
X119641542Y-107734218D01*
X119699399Y-107870808D01*
X119755802Y-108002237D01*
X119808942Y-108124205D01*
X119857010Y-108232409D01*
X119898199Y-108322549D01*
X119930699Y-108390323D01*
X119952703Y-108431430D01*
X119961564Y-108442226D01*
X119988640Y-108433819D01*
X120039303Y-108411272D01*
X120104817Y-108378613D01*
X120140841Y-108359520D01*
X120293832Y-108276800D01*
X120476088Y-108400075D01*
X120569125Y-108463228D01*
X120670985Y-108532727D01*
X120766438Y-108598165D01*
X120814250Y-108631117D01*
X120881495Y-108676273D01*
X120938436Y-108712057D01*
X120977646Y-108733938D01*
X120990381Y-108738563D01*
X121008917Y-108726085D01*
X121049941Y-108691252D01*
X121109475Y-108637678D01*
X121183542Y-108568983D01*
X121268165Y-108488781D01*
X121321685Y-108437286D01*
X121415319Y-108345286D01*
X121496241Y-108262999D01*
X121561177Y-108193945D01*
X121606858Y-108141644D01*
X121630011Y-108109616D01*
X121632232Y-108103116D01*
X121621924Y-108078394D01*
X121593439Y-108028405D01*
X121549937Y-107958212D01*
X121494577Y-107872875D01*
X121430520Y-107777456D01*
X121412303Y-107750854D01*
X121345927Y-107654167D01*
X121286378Y-107567117D01*
X121236984Y-107494595D01*
X121201075Y-107441493D01*
X121181981Y-107412703D01*
X121180136Y-107409726D01*
X121182895Y-107386782D01*
X121197538Y-107336336D01*
X121221513Y-107265041D01*
X121252266Y-107179547D01*
X121287244Y-107086507D01*
X121323893Y-106992574D01*
X121359661Y-106904399D01*
X121391994Y-106828634D01*
X121418338Y-106771931D01*
X121436142Y-106740943D01*
X121437407Y-106739457D01*
X121448294Y-106730601D01*
X121466682Y-106721843D01*
X121496606Y-106712277D01*
X121542103Y-106700996D01*
X121607209Y-106687093D01*
X121695961Y-106669663D01*
X121812393Y-106647798D01*
X121960542Y-106620591D01*
X121992618Y-106614741D01*
X122087686Y-106596374D01*
X122170565Y-106578405D01*
X122233930Y-106562569D01*
X122270458Y-106550600D01*
X122275356Y-106547810D01*
X122283427Y-106523072D01*
X122289987Y-106467790D01*
X122295033Y-106388389D01*
X122298559Y-106291296D01*
X122300561Y-106182938D01*
X122301036Y-106069740D01*
X122299977Y-105958128D01*
X122297382Y-105854529D01*
X122293246Y-105765368D01*
X122287563Y-105697072D01*
X122280331Y-105656066D01*
X122275971Y-105647674D01*
X122251698Y-105639208D01*
X122196426Y-105625435D01*
X122115662Y-105607550D01*
X122014912Y-105586748D01*
X121899683Y-105564223D01*
X121836902Y-105552418D01*
X121717787Y-105530151D01*
X121611565Y-105509979D01*
X121523427Y-105492915D01*
X121458566Y-105479969D01*
X121422174Y-105472155D01*
X121416184Y-105470422D01*
X121406061Y-105450890D01*
X121384662Y-105403843D01*
X121354839Y-105336003D01*
X121319445Y-105254091D01*
X121281332Y-105164828D01*
X121243353Y-105074935D01*
X121208360Y-104991135D01*
X121179206Y-104920147D01*
X121158743Y-104868694D01*
X121149823Y-104843497D01*
X121149657Y-104842396D01*
X121159769Y-104822519D01*
X121188117Y-104776777D01*
X121231723Y-104709717D01*
X121287606Y-104625884D01*
X121352787Y-104529826D01*
X121390679Y-104474650D01*
X121459725Y-104373481D01*
X121521050Y-104281630D01*
X121571663Y-104203744D01*
X121608571Y-104144469D01*
X121628782Y-104108451D01*
X121631701Y-104100377D01*
X121619153Y-104081584D01*
X121584463Y-104041457D01*
X121532063Y-103984493D01*
X121466384Y-103915185D01*
X121391856Y-103838031D01*
X121312913Y-103757525D01*
X121233983Y-103678163D01*
X121159500Y-103604440D01*
X121093894Y-103540852D01*
X121041596Y-103491894D01*
X121007039Y-103462061D01*
X120995478Y-103454942D01*
X120976654Y-103464953D01*
X120931631Y-103493078D01*
X120864787Y-103536454D01*
X120780499Y-103592218D01*
X120683144Y-103657506D01*
X120609707Y-103707246D01*
X120238667Y-103959551D01*
X119620095Y-103704555D01*
X119536275Y-103259931D01*
X119452454Y-102815307D01*
X118527006Y-102815307D01*
X118443186Y-103259931D01*
G37*
X118443186Y-103259931D02*
X118359365Y-103704555D01*
X118050080Y-103832053D01*
X117740794Y-103959551D01*
X117369754Y-103707246D01*
X117265843Y-103636996D01*
X117171913Y-103574272D01*
X117092348Y-103521938D01*
X117031530Y-103482857D01*
X116993843Y-103459893D01*
X116983579Y-103454942D01*
X116965090Y-103467676D01*
X116925580Y-103502882D01*
X116869478Y-103556062D01*
X116801213Y-103622718D01*
X116725214Y-103698354D01*
X116645908Y-103778472D01*
X116567725Y-103858574D01*
X116495093Y-103934164D01*
X116432441Y-104000745D01*
X116384197Y-104053818D01*
X116354790Y-104088887D01*
X116347759Y-104100623D01*
X116357877Y-104122260D01*
X116386241Y-104169662D01*
X116429871Y-104238193D01*
X116485782Y-104323215D01*
X116550994Y-104420093D01*
X116588781Y-104475350D01*
X116657657Y-104576248D01*
X116718860Y-104667299D01*
X116769422Y-104743970D01*
X116806372Y-104801728D01*
X116826742Y-104836043D01*
X116829803Y-104843254D01*
X116822864Y-104863748D01*
X116803949Y-104911513D01*
X116775913Y-104979832D01*
X116741609Y-105061989D01*
X116703891Y-105151270D01*
X116665613Y-105240958D01*
X116629630Y-105324338D01*
X116598794Y-105394694D01*
X116575961Y-105445310D01*
X116563983Y-105469471D01*
X116563276Y-105470422D01*
X116544469Y-105475036D01*
X116494382Y-105485328D01*
X116418207Y-105500287D01*
X116321135Y-105518901D01*
X116208357Y-105540159D01*
X116142558Y-105552418D01*
X116022050Y-105575362D01*
X115913203Y-105597195D01*
X115821524Y-105616722D01*
X115752519Y-105632748D01*
X115711696Y-105644079D01*
X115703489Y-105647674D01*
X115695452Y-105672006D01*
X115688967Y-105726959D01*
X115684030Y-105806108D01*
X115680636Y-105903026D01*
X115678782Y-106011287D01*
X115678462Y-106124465D01*
X115679673Y-106236135D01*
X115682410Y-106339868D01*
X115686669Y-106429241D01*
X115692445Y-106497826D01*
X115699733Y-106539197D01*
X115704105Y-106547810D01*
X115730236Y-106558133D01*
X115785607Y-106572892D01*
X115862893Y-106590352D01*
X115954770Y-106608780D01*
X115986842Y-106614741D01*
X116141476Y-106643066D01*
X116263625Y-106665876D01*
X116357327Y-106684080D01*
X116426616Y-106698583D01*
X116475529Y-106710292D01*
X116508103Y-106720115D01*
X116528372Y-106728956D01*
X116540374Y-106737724D01*
X116542053Y-106739457D01*
X116558816Y-106767371D01*
X116584386Y-106821695D01*
X116616212Y-106895777D01*
X116651740Y-106982965D01*
X116688417Y-107076608D01*
X116723689Y-107170052D01*
X116755004Y-107256647D01*
X116779807Y-107329740D01*
X116795546Y-107382678D01*
X116799668Y-107408811D01*
X116799324Y-107409726D01*
X116785359Y-107431086D01*
X116753678Y-107478084D01*
X116707609Y-107545827D01*
X116650482Y-107629423D01*
X116585627Y-107723982D01*
X116567157Y-107750854D01*
X116501301Y-107848275D01*
X116443350Y-107937163D01*
X116396462Y-108012412D01*
X116363793Y-108068920D01*
X116348500Y-108101581D01*
X116347759Y-108105593D01*
X116360608Y-108126684D01*
X116396112Y-108168464D01*
X116449707Y-108226445D01*
X116516829Y-108296135D01*
X116592913Y-108373045D01*
X116673396Y-108452683D01*
X116753713Y-108530561D01*
X116829301Y-108602186D01*
X116895595Y-108663070D01*
X116948031Y-108708721D01*
X116982045Y-108734650D01*
X116991455Y-108738883D01*
X117013357Y-108728912D01*
X117058200Y-108702020D01*
X117118679Y-108662736D01*
X117165211Y-108631117D01*
X117249525Y-108573098D01*
X117349374Y-108504784D01*
X117449527Y-108436579D01*
X117503373Y-108400075D01*
X117685629Y-108276800D01*
X117838619Y-108359520D01*
X117908318Y-108395759D01*
X117967586Y-108423926D01*
X118007689Y-108439991D01*
X118017897Y-108442226D01*
X118030171Y-108425722D01*
X118054387Y-108379082D01*
X118088737Y-108306609D01*
X118131412Y-108212606D01*
X118180606Y-108101374D01*
X118234510Y-107977215D01*
X118291316Y-107844432D01*
X118349218Y-107707327D01*
X118406407Y-107570202D01*
X118461076Y-107437358D01*
X118511416Y-107313098D01*
X118555620Y-107201725D01*
X118591881Y-107107539D01*
X118618391Y-107034844D01*
X118633342Y-106987941D01*
X118635746Y-106971833D01*
X118616689Y-106951286D01*
X118574964Y-106917933D01*
X118519294Y-106878702D01*
X118514622Y-106875599D01*
X118370736Y-106760423D01*
X118254717Y-106626053D01*
X118167570Y-106476784D01*
X118110301Y-106316913D01*
X118083914Y-106150737D01*
X118089415Y-105982552D01*
X118127810Y-105816655D01*
X118200105Y-105657342D01*
X118221374Y-105622487D01*
X118332004Y-105481737D01*
X118462698Y-105368714D01*
X118608936Y-105284003D01*
X118766192Y-105228194D01*
X118929943Y-105201874D01*
X119095667Y-105205630D01*
X119258838Y-105240050D01*
X119414935Y-105305723D01*
X119559433Y-105403235D01*
X119604131Y-105442813D01*
X119717888Y-105566703D01*
X119800782Y-105697124D01*
X119857644Y-105843315D01*
X119889313Y-105988088D01*
X119897131Y-106150860D01*
X119871062Y-106314440D01*
X119813755Y-106473298D01*
X119727856Y-106621906D01*
X119616014Y-106754735D01*
X119480877Y-106866256D01*
X119463117Y-106878011D01*
X119406850Y-106916508D01*
X119364077Y-106949863D01*
X119343628Y-106971160D01*
X119343331Y-106971833D01*
X119347721Y-106994871D01*
X119365124Y-107047157D01*
X119393732Y-107124390D01*
X119431735Y-107222268D01*
X119477326Y-107336491D01*
X119528697Y-107462758D01*
X119584038Y-107596767D01*
X119641542Y-107734218D01*
X119699399Y-107870808D01*
X119755802Y-108002237D01*
X119808942Y-108124205D01*
X119857010Y-108232409D01*
X119898199Y-108322549D01*
X119930699Y-108390323D01*
X119952703Y-108431430D01*
X119961564Y-108442226D01*
X119988640Y-108433819D01*
X120039303Y-108411272D01*
X120104817Y-108378613D01*
X120140841Y-108359520D01*
X120293832Y-108276800D01*
X120476088Y-108400075D01*
X120569125Y-108463228D01*
X120670985Y-108532727D01*
X120766438Y-108598165D01*
X120814250Y-108631117D01*
X120881495Y-108676273D01*
X120938436Y-108712057D01*
X120977646Y-108733938D01*
X120990381Y-108738563D01*
X121008917Y-108726085D01*
X121049941Y-108691252D01*
X121109475Y-108637678D01*
X121183542Y-108568983D01*
X121268165Y-108488781D01*
X121321685Y-108437286D01*
X121415319Y-108345286D01*
X121496241Y-108262999D01*
X121561177Y-108193945D01*
X121606858Y-108141644D01*
X121630011Y-108109616D01*
X121632232Y-108103116D01*
X121621924Y-108078394D01*
X121593439Y-108028405D01*
X121549937Y-107958212D01*
X121494577Y-107872875D01*
X121430520Y-107777456D01*
X121412303Y-107750854D01*
X121345927Y-107654167D01*
X121286378Y-107567117D01*
X121236984Y-107494595D01*
X121201075Y-107441493D01*
X121181981Y-107412703D01*
X121180136Y-107409726D01*
X121182895Y-107386782D01*
X121197538Y-107336336D01*
X121221513Y-107265041D01*
X121252266Y-107179547D01*
X121287244Y-107086507D01*
X121323893Y-106992574D01*
X121359661Y-106904399D01*
X121391994Y-106828634D01*
X121418338Y-106771931D01*
X121436142Y-106740943D01*
X121437407Y-106739457D01*
X121448294Y-106730601D01*
X121466682Y-106721843D01*
X121496606Y-106712277D01*
X121542103Y-106700996D01*
X121607209Y-106687093D01*
X121695961Y-106669663D01*
X121812393Y-106647798D01*
X121960542Y-106620591D01*
X121992618Y-106614741D01*
X122087686Y-106596374D01*
X122170565Y-106578405D01*
X122233930Y-106562569D01*
X122270458Y-106550600D01*
X122275356Y-106547810D01*
X122283427Y-106523072D01*
X122289987Y-106467790D01*
X122295033Y-106388389D01*
X122298559Y-106291296D01*
X122300561Y-106182938D01*
X122301036Y-106069740D01*
X122299977Y-105958128D01*
X122297382Y-105854529D01*
X122293246Y-105765368D01*
X122287563Y-105697072D01*
X122280331Y-105656066D01*
X122275971Y-105647674D01*
X122251698Y-105639208D01*
X122196426Y-105625435D01*
X122115662Y-105607550D01*
X122014912Y-105586748D01*
X121899683Y-105564223D01*
X121836902Y-105552418D01*
X121717787Y-105530151D01*
X121611565Y-105509979D01*
X121523427Y-105492915D01*
X121458566Y-105479969D01*
X121422174Y-105472155D01*
X121416184Y-105470422D01*
X121406061Y-105450890D01*
X121384662Y-105403843D01*
X121354839Y-105336003D01*
X121319445Y-105254091D01*
X121281332Y-105164828D01*
X121243353Y-105074935D01*
X121208360Y-104991135D01*
X121179206Y-104920147D01*
X121158743Y-104868694D01*
X121149823Y-104843497D01*
X121149657Y-104842396D01*
X121159769Y-104822519D01*
X121188117Y-104776777D01*
X121231723Y-104709717D01*
X121287606Y-104625884D01*
X121352787Y-104529826D01*
X121390679Y-104474650D01*
X121459725Y-104373481D01*
X121521050Y-104281630D01*
X121571663Y-104203744D01*
X121608571Y-104144469D01*
X121628782Y-104108451D01*
X121631701Y-104100377D01*
X121619153Y-104081584D01*
X121584463Y-104041457D01*
X121532063Y-103984493D01*
X121466384Y-103915185D01*
X121391856Y-103838031D01*
X121312913Y-103757525D01*
X121233983Y-103678163D01*
X121159500Y-103604440D01*
X121093894Y-103540852D01*
X121041596Y-103491894D01*
X121007039Y-103462061D01*
X120995478Y-103454942D01*
X120976654Y-103464953D01*
X120931631Y-103493078D01*
X120864787Y-103536454D01*
X120780499Y-103592218D01*
X120683144Y-103657506D01*
X120609707Y-103707246D01*
X120238667Y-103959551D01*
X119620095Y-103704555D01*
X119536275Y-103259931D01*
X119452454Y-102815307D01*
X118527006Y-102815307D01*
X118443186Y-103259931D01*
D11*
X132461000Y-134290000D03*
X129921000Y-134290000D03*
X132461000Y-131750000D03*
X129921000Y-131750000D03*
X132461000Y-129210000D03*
X129921000Y-129210000D03*
X132461000Y-126670000D03*
X129921000Y-126670000D03*
X132461000Y-124130000D03*
X129921000Y-124130000D03*
X132461000Y-121590000D03*
X129921000Y-121590000D03*
X132461000Y-119050000D03*
X129921000Y-119050000D03*
X132461000Y-116510000D03*
X129921000Y-116510000D03*
X132461000Y-113970000D03*
D12*
X129921000Y-113970000D03*
D11*
X101981000Y-134290000D03*
X101981000Y-131750000D03*
X101981000Y-129210000D03*
X101981000Y-126670000D03*
X101981000Y-124130000D03*
X101981000Y-121590000D03*
X101981000Y-119050000D03*
X101981000Y-116510000D03*
D12*
X101981000Y-113970000D03*
D13*
X107950000Y-135255000D03*
X104648000Y-132080000D03*
X112395000Y-135382000D03*
X102616000Y-136144000D03*
X101219000Y-137160000D03*
X105283000Y-134747000D03*
X105029000Y-137160000D03*
X103632000Y-138430000D03*
X100965000Y-138938000D03*
X100965000Y-140843000D03*
X101346000Y-143510000D03*
X105029000Y-143510000D03*
X107442000Y-143383000D03*
X108712000Y-145161000D03*
X106045000Y-140208000D03*
X107442000Y-140335000D03*
X110490000Y-140589000D03*
X113538000Y-140462000D03*
X116586000Y-140716000D03*
X119507000Y-140335000D03*
X121920000Y-140589000D03*
X124968000Y-140589000D03*
X127254000Y-140589000D03*
X129413000Y-141859000D03*
X127127000Y-143510000D03*
X125730000Y-143129000D03*
X124206000Y-143129000D03*
X120777000Y-143637000D03*
X119507000Y-143510000D03*
X118237000Y-143637000D03*
X113538000Y-143510000D03*
X112014000Y-143764000D03*
X106045000Y-139192000D03*
X106553000Y-145034000D03*
X106553000Y-147193000D03*
X108966000Y-147193000D03*
X112014000Y-147193000D03*
X114935000Y-143637000D03*
X112141000Y-145542000D03*
X115062000Y-147193000D03*
X118364000Y-145415000D03*
X114808000Y-145415000D03*
X118364000Y-147066000D03*
X120777000Y-145415000D03*
X120777000Y-147193000D03*
X124206000Y-145415000D03*
X123825000Y-147193000D03*
X125603000Y-145542000D03*
X125730000Y-147320000D03*
X131826000Y-147193000D03*
X131699000Y-145669000D03*
X130302000Y-143637000D03*
X135001000Y-136398000D03*
X127762000Y-136525000D03*
X134620000Y-147193000D03*
X127508000Y-138303000D03*
X108712000Y-143510000D03*
D14*
X108349999Y-134855001D02*
X108857999Y-134855001D01*
X107950000Y-135255000D02*
X108349999Y-134855001D01*
X108857999Y-134855001D02*
X109855000Y-133858000D01*
X109855000Y-133858000D02*
X109855000Y-131826000D01*
X109855000Y-131826000D02*
X109347000Y-131318000D01*
X105410000Y-131318000D02*
X104648000Y-132080000D01*
X109347000Y-131318000D02*
X105410000Y-131318000D01*
D15*
X110998000Y-137795000D02*
X110998000Y-135001000D01*
X112395000Y-139192000D02*
X110998000Y-137795000D01*
X115062000Y-139192000D02*
X112395000Y-139192000D01*
X120650000Y-130556000D02*
X115951000Y-135255000D01*
X115951000Y-138303000D02*
X115062000Y-139192000D01*
X115951000Y-135255000D02*
X115951000Y-138303000D01*
X129338998Y-130556000D02*
X120650000Y-130556000D01*
X129344999Y-130549999D02*
X129338998Y-130556000D01*
X110998000Y-135001000D02*
X109855000Y-133858000D01*
X131260999Y-130549999D02*
X129344999Y-130549999D01*
X132461000Y-131750000D02*
X131260999Y-130549999D01*
X131260999Y-125469999D02*
X105162001Y-125469999D01*
X132461000Y-126670000D02*
X131260999Y-125469999D01*
X103962000Y-126670000D02*
X101981000Y-126670000D01*
X105162001Y-125469999D02*
X103962000Y-126670000D01*
X103708000Y-124130000D02*
X101981000Y-124130000D01*
X129338998Y-122936000D02*
X104902000Y-122936000D01*
X129344999Y-122929999D02*
X129338998Y-122936000D01*
X130497001Y-122929999D02*
X129344999Y-122929999D01*
X104902000Y-122936000D02*
X103708000Y-124130000D01*
X130503002Y-122936000D02*
X130497001Y-122929999D01*
X131267000Y-122936000D02*
X130503002Y-122936000D01*
X132461000Y-124130000D02*
X131267000Y-122936000D01*
X103251000Y-121539000D02*
X102032000Y-121539000D01*
X104400001Y-120389999D02*
X103251000Y-121539000D01*
X131260999Y-120389999D02*
X104400001Y-120389999D01*
X102032000Y-121539000D02*
X101981000Y-121590000D01*
X132461000Y-121590000D02*
X131260999Y-120389999D01*
X104394000Y-117856000D02*
X103200000Y-119050000D01*
X129344999Y-117849999D02*
X129338998Y-117856000D01*
X130497001Y-117849999D02*
X129344999Y-117849999D01*
X103200000Y-119050000D02*
X101981000Y-119050000D01*
X130503002Y-117856000D02*
X130497001Y-117849999D01*
X131267000Y-117856000D02*
X130503002Y-117856000D01*
X129338998Y-117856000D02*
X104394000Y-117856000D01*
X132461000Y-119050000D02*
X131267000Y-117856000D01*
X103200000Y-116510000D02*
X101981000Y-116510000D01*
X104400001Y-115309999D02*
X103200000Y-116510000D01*
X131260999Y-115309999D02*
X104400001Y-115309999D01*
X132461000Y-116510000D02*
X131260999Y-115309999D01*
D14*
X104953000Y-110998000D02*
X101981000Y-113970000D01*
X130175000Y-110998000D02*
X104953000Y-110998000D01*
X132461000Y-113284000D02*
X130175000Y-110998000D01*
X132461000Y-113970000D02*
X132461000Y-113284000D01*
D15*
X133663081Y-134290000D02*
X132461000Y-134290000D01*
X134366000Y-133587081D02*
X133663081Y-134290000D01*
X133724999Y-128009999D02*
X134366000Y-128651000D01*
X113036001Y-128009999D02*
X133724999Y-128009999D01*
X134366000Y-128651000D02*
X134366000Y-133587081D01*
X102830999Y-133440001D02*
X102830999Y-133389001D01*
X101981000Y-134290000D02*
X102830999Y-133440001D01*
X102830999Y-133389001D02*
X103505000Y-132715000D01*
X103505000Y-132715000D02*
X103505000Y-130683000D01*
X104013000Y-130175000D02*
X103505000Y-130683000D01*
X110871000Y-130175000D02*
X104013000Y-130175000D01*
X110744000Y-130302000D02*
X110871000Y-130175000D01*
X110871000Y-130175000D02*
X113036001Y-128009999D01*
X112395000Y-131699000D02*
X110871000Y-130175000D01*
X112395000Y-135382000D02*
X112395000Y-131699000D01*
D16*
G36*
X135340001Y-147600000D02*
G01*
X100660000Y-147600000D01*
X100660000Y-134953292D01*
X100709359Y-135056920D01*
X100883412Y-135290269D01*
X101099645Y-135485178D01*
X101349748Y-135634157D01*
X101624109Y-135731481D01*
X101854000Y-135610814D01*
X101854000Y-134417000D01*
X102108000Y-134417000D01*
X102108000Y-135610814D01*
X102337891Y-135731481D01*
X102612252Y-135634157D01*
X102862355Y-135485178D01*
X103078588Y-135290269D01*
X103252641Y-135056920D01*
X103377825Y-134794099D01*
X103422476Y-134646890D01*
X103301155Y-134417000D01*
X102108000Y-134417000D01*
X101854000Y-134417000D01*
X101834000Y-134417000D01*
X101834000Y-134163000D01*
X101854000Y-134163000D01*
X101854000Y-134143000D01*
X102108000Y-134143000D01*
X102108000Y-134163000D01*
X103301155Y-134163000D01*
X103422476Y-133933110D01*
X103377825Y-133785901D01*
X103252641Y-133523080D01*
X103078588Y-133289731D01*
X102862355Y-133094822D01*
X102745466Y-133025195D01*
X102927632Y-132903475D01*
X103134475Y-132696632D01*
X103296990Y-132453411D01*
X103408932Y-132183158D01*
X103466000Y-131896260D01*
X103466000Y-131603740D01*
X103408932Y-131316842D01*
X103296990Y-131046589D01*
X103134475Y-130803368D01*
X102927632Y-130596525D01*
X102753240Y-130480000D01*
X102927632Y-130363475D01*
X103134475Y-130156632D01*
X103296990Y-129913411D01*
X103408932Y-129643158D01*
X103466000Y-129356260D01*
X103466000Y-129063740D01*
X103408932Y-128776842D01*
X103296990Y-128506589D01*
X103134475Y-128263368D01*
X102927632Y-128056525D01*
X102753240Y-127940000D01*
X102927632Y-127823475D01*
X103134475Y-127616632D01*
X103242474Y-127455000D01*
X103923447Y-127455000D01*
X103962000Y-127458797D01*
X104000553Y-127455000D01*
X104000561Y-127455000D01*
X104115887Y-127443641D01*
X104263860Y-127398754D01*
X104400233Y-127325862D01*
X104519764Y-127227764D01*
X104544347Y-127197810D01*
X105487158Y-126254999D01*
X128489456Y-126254999D01*
X128436000Y-126523740D01*
X128436000Y-126816260D01*
X128493068Y-127103158D01*
X128605010Y-127373411D01*
X128767525Y-127616632D01*
X128974368Y-127823475D01*
X129148760Y-127940000D01*
X128974368Y-128056525D01*
X128767525Y-128263368D01*
X128605010Y-128506589D01*
X128493068Y-128776842D01*
X128436000Y-129063740D01*
X128436000Y-129356260D01*
X128493068Y-129643158D01*
X128546022Y-129771000D01*
X120688556Y-129771000D01*
X120650000Y-129767203D01*
X120611444Y-129771000D01*
X120611439Y-129771000D01*
X120571026Y-129774980D01*
X120496113Y-129782358D01*
X120348140Y-129827246D01*
X120211767Y-129900138D01*
X120092236Y-129998236D01*
X120067655Y-130028188D01*
X115423190Y-134672653D01*
X115393236Y-134697236D01*
X115295138Y-134816768D01*
X115222246Y-134953141D01*
X115177359Y-135101114D01*
X115166000Y-135216440D01*
X115166000Y-135216447D01*
X115162203Y-135255000D01*
X115166000Y-135293553D01*
X115166001Y-137977842D01*
X114736843Y-138407000D01*
X112720158Y-138407000D01*
X111783000Y-137469843D01*
X111783000Y-135039552D01*
X111786797Y-135000999D01*
X111783000Y-134962446D01*
X111783000Y-134962439D01*
X111771641Y-134847113D01*
X111755560Y-134794099D01*
X111726754Y-134699140D01*
X111671211Y-134595226D01*
X111653862Y-134562767D01*
X111591531Y-134486817D01*
X111580345Y-134473187D01*
X111580342Y-134473184D01*
X111555764Y-134443236D01*
X111525815Y-134418658D01*
X110740000Y-133632843D01*
X110740000Y-131869465D01*
X110744281Y-131825999D01*
X110740000Y-131782533D01*
X110740000Y-131782523D01*
X110727195Y-131652510D01*
X110676589Y-131485687D01*
X110594411Y-131331941D01*
X110483817Y-131197183D01*
X110450044Y-131169466D01*
X110003534Y-130722956D01*
X109975817Y-130689183D01*
X109841059Y-130578589D01*
X109687313Y-130496411D01*
X109520490Y-130445805D01*
X109390477Y-130433000D01*
X109390469Y-130433000D01*
X109347000Y-130428719D01*
X109303531Y-130433000D01*
X105453469Y-130433000D01*
X105410000Y-130428719D01*
X105366531Y-130433000D01*
X105366523Y-130433000D01*
X105236510Y-130445805D01*
X105069687Y-130496411D01*
X104969430Y-130549999D01*
X104915941Y-130578589D01*
X104814953Y-130661468D01*
X104814951Y-130661470D01*
X104781183Y-130689183D01*
X104753470Y-130722951D01*
X104402956Y-131073465D01*
X104346102Y-131084774D01*
X104157744Y-131162795D01*
X103988226Y-131276063D01*
X103844063Y-131420226D01*
X103730795Y-131589744D01*
X103652774Y-131778102D01*
X103613000Y-131978061D01*
X103613000Y-132181939D01*
X103652774Y-132381898D01*
X103730795Y-132570256D01*
X103844063Y-132739774D01*
X103988226Y-132883937D01*
X104157744Y-132997205D01*
X104346102Y-133075226D01*
X104546061Y-133115000D01*
X104749939Y-133115000D01*
X104949898Y-133075226D01*
X105138256Y-132997205D01*
X105307774Y-132883937D01*
X105451937Y-132739774D01*
X105565205Y-132570256D01*
X105643226Y-132381898D01*
X105654535Y-132325044D01*
X105776579Y-132203000D01*
X108970001Y-132203000D01*
X108970000Y-133491421D01*
X108491421Y-133970001D01*
X108393465Y-133970001D01*
X108349998Y-133965720D01*
X108306532Y-133970001D01*
X108306522Y-133970001D01*
X108176509Y-133982806D01*
X108009686Y-134033412D01*
X107855940Y-134115590D01*
X107721182Y-134226184D01*
X107702494Y-134248955D01*
X107648102Y-134259774D01*
X107459744Y-134337795D01*
X107290226Y-134451063D01*
X107146063Y-134595226D01*
X107032795Y-134764744D01*
X106954774Y-134953102D01*
X106915000Y-135153061D01*
X106915000Y-135356939D01*
X106954774Y-135556898D01*
X107032795Y-135745256D01*
X107146063Y-135914774D01*
X107290226Y-136058937D01*
X107459744Y-136172205D01*
X107648102Y-136250226D01*
X107848061Y-136290000D01*
X108051939Y-136290000D01*
X108251898Y-136250226D01*
X108440256Y-136172205D01*
X108609774Y-136058937D01*
X108753937Y-135914774D01*
X108867205Y-135745256D01*
X108868017Y-135743295D01*
X108901468Y-135740001D01*
X108901476Y-135740001D01*
X109031489Y-135727196D01*
X109198312Y-135676590D01*
X109352058Y-135594412D01*
X109486816Y-135483818D01*
X109514533Y-135450045D01*
X109925710Y-135038868D01*
X110213001Y-135326159D01*
X110213000Y-137756447D01*
X110209203Y-137795000D01*
X110213000Y-137833553D01*
X110213000Y-137833560D01*
X110224359Y-137948886D01*
X110269246Y-138096859D01*
X110342138Y-138233232D01*
X110440236Y-138352764D01*
X110470190Y-138377347D01*
X111812658Y-139719816D01*
X111837236Y-139749764D01*
X111867184Y-139774342D01*
X111867187Y-139774345D01*
X111896559Y-139798450D01*
X111956767Y-139847862D01*
X112093140Y-139920754D01*
X112206672Y-139955194D01*
X112241112Y-139965641D01*
X112255490Y-139967057D01*
X112356439Y-139977000D01*
X112356446Y-139977000D01*
X112394999Y-139980797D01*
X112433552Y-139977000D01*
X115023447Y-139977000D01*
X115062000Y-139980797D01*
X115100553Y-139977000D01*
X115100561Y-139977000D01*
X115215887Y-139965641D01*
X115363860Y-139920754D01*
X115500233Y-139847862D01*
X115619764Y-139749764D01*
X115644347Y-139719810D01*
X116478810Y-138885347D01*
X116508764Y-138860764D01*
X116606862Y-138741233D01*
X116679754Y-138604860D01*
X116700601Y-138536138D01*
X116724642Y-138456887D01*
X116732020Y-138381974D01*
X116736000Y-138341561D01*
X116736000Y-138341556D01*
X116739797Y-138303000D01*
X116736000Y-138264444D01*
X116736000Y-135580157D01*
X117669267Y-134646890D01*
X128479524Y-134646890D01*
X128524175Y-134794099D01*
X128649359Y-135056920D01*
X128823412Y-135290269D01*
X129039645Y-135485178D01*
X129289748Y-135634157D01*
X129564109Y-135731481D01*
X129794000Y-135610814D01*
X129794000Y-134417000D01*
X130048000Y-134417000D01*
X130048000Y-135610814D01*
X130277891Y-135731481D01*
X130552252Y-135634157D01*
X130802355Y-135485178D01*
X131018588Y-135290269D01*
X131191000Y-135059120D01*
X131363412Y-135290269D01*
X131579645Y-135485178D01*
X131829748Y-135634157D01*
X132104109Y-135731481D01*
X132334000Y-135610814D01*
X132334000Y-134417000D01*
X132588000Y-134417000D01*
X132588000Y-135610814D01*
X132817891Y-135731481D01*
X133092252Y-135634157D01*
X133342355Y-135485178D01*
X133558588Y-135290269D01*
X133732641Y-135056920D01*
X133857825Y-134794099D01*
X133902476Y-134646890D01*
X133781155Y-134417000D01*
X132588000Y-134417000D01*
X132334000Y-134417000D01*
X130048000Y-134417000D01*
X129794000Y-134417000D01*
X128600845Y-134417000D01*
X128479524Y-134646890D01*
X117669267Y-134646890D01*
X120975157Y-131341000D01*
X128488263Y-131341000D01*
X128436000Y-131603740D01*
X128436000Y-131896260D01*
X128493068Y-132183158D01*
X128605010Y-132453411D01*
X128767525Y-132696632D01*
X128974368Y-132903475D01*
X129156534Y-133025195D01*
X129039645Y-133094822D01*
X128823412Y-133289731D01*
X128649359Y-133523080D01*
X128524175Y-133785901D01*
X128479524Y-133933110D01*
X128600845Y-134163000D01*
X129794000Y-134163000D01*
X129794000Y-134143000D01*
X130048000Y-134143000D01*
X130048000Y-134163000D01*
X132334000Y-134163000D01*
X132334000Y-134143000D01*
X132588000Y-134143000D01*
X132588000Y-134163000D01*
X133781155Y-134163000D01*
X133902476Y-133933110D01*
X133857825Y-133785901D01*
X133732641Y-133523080D01*
X133558588Y-133289731D01*
X133342355Y-133094822D01*
X133225466Y-133025195D01*
X133407632Y-132903475D01*
X133614475Y-132696632D01*
X133776990Y-132453411D01*
X133888932Y-132183158D01*
X133946000Y-131896260D01*
X133946000Y-131603740D01*
X133888932Y-131316842D01*
X133776990Y-131046589D01*
X133614475Y-130803368D01*
X133407632Y-130596525D01*
X133233240Y-130480000D01*
X133407632Y-130363475D01*
X133614475Y-130156632D01*
X133776990Y-129913411D01*
X133888932Y-129643158D01*
X133946000Y-129356260D01*
X133946000Y-129063740D01*
X133888932Y-128776842D01*
X133776990Y-128506589D01*
X133614475Y-128263368D01*
X133407632Y-128056525D01*
X133233240Y-127940000D01*
X133407632Y-127823475D01*
X133614475Y-127616632D01*
X133776990Y-127373411D01*
X133888932Y-127103158D01*
X133946000Y-126816260D01*
X133946000Y-126523740D01*
X133888932Y-126236842D01*
X133776990Y-125966589D01*
X133614475Y-125723368D01*
X133407632Y-125516525D01*
X133233240Y-125400000D01*
X133407632Y-125283475D01*
X133614475Y-125076632D01*
X133776990Y-124833411D01*
X133888932Y-124563158D01*
X133946000Y-124276260D01*
X133946000Y-123983740D01*
X133888932Y-123696842D01*
X133776990Y-123426589D01*
X133614475Y-123183368D01*
X133407632Y-122976525D01*
X133233240Y-122860000D01*
X133407632Y-122743475D01*
X133614475Y-122536632D01*
X133776990Y-122293411D01*
X133888932Y-122023158D01*
X133946000Y-121736260D01*
X133946000Y-121443740D01*
X133888932Y-121156842D01*
X133776990Y-120886589D01*
X133614475Y-120643368D01*
X133407632Y-120436525D01*
X133233240Y-120320000D01*
X133407632Y-120203475D01*
X133614475Y-119996632D01*
X133776990Y-119753411D01*
X133888932Y-119483158D01*
X133946000Y-119196260D01*
X133946000Y-118903740D01*
X133888932Y-118616842D01*
X133776990Y-118346589D01*
X133614475Y-118103368D01*
X133407632Y-117896525D01*
X133233240Y-117780000D01*
X133407632Y-117663475D01*
X133614475Y-117456632D01*
X133776990Y-117213411D01*
X133888932Y-116943158D01*
X133946000Y-116656260D01*
X133946000Y-116363740D01*
X133888932Y-116076842D01*
X133776990Y-115806589D01*
X133614475Y-115563368D01*
X133407632Y-115356525D01*
X133233240Y-115240000D01*
X133407632Y-115123475D01*
X133614475Y-114916632D01*
X133776990Y-114673411D01*
X133888932Y-114403158D01*
X133946000Y-114116260D01*
X133946000Y-113823740D01*
X133888932Y-113536842D01*
X133776990Y-113266589D01*
X133614475Y-113023368D01*
X133407632Y-112816525D01*
X133164411Y-112654010D01*
X133024732Y-112596153D01*
X130831534Y-110402956D01*
X130803817Y-110369183D01*
X130669059Y-110258589D01*
X130515313Y-110176411D01*
X130348490Y-110125805D01*
X130218477Y-110113000D01*
X130218469Y-110113000D01*
X130175000Y-110108719D01*
X130131531Y-110113000D01*
X104996469Y-110113000D01*
X104953000Y-110108719D01*
X104909531Y-110113000D01*
X104909523Y-110113000D01*
X104779510Y-110125805D01*
X104612687Y-110176411D01*
X104458941Y-110258589D01*
X104357953Y-110341468D01*
X104357951Y-110341470D01*
X104324183Y-110369183D01*
X104296470Y-110402951D01*
X102217494Y-112481928D01*
X101131000Y-112481928D01*
X101006518Y-112494188D01*
X100886820Y-112530498D01*
X100776506Y-112589463D01*
X100679815Y-112668815D01*
X100660000Y-112692960D01*
X100660000Y-106122469D01*
X115038465Y-106122469D01*
X115038465Y-106122655D01*
X115038466Y-106122663D01*
X115038500Y-106131405D01*
X115039711Y-106243075D01*
X115039765Y-106243574D01*
X115039722Y-106244081D01*
X115039896Y-106253016D01*
X115042633Y-106356748D01*
X115042922Y-106359065D01*
X115042772Y-106361403D01*
X115043135Y-106370332D01*
X115047394Y-106459705D01*
X115048438Y-106466834D01*
X115048238Y-106474040D01*
X115048927Y-106482950D01*
X115054703Y-106551535D01*
X115059127Y-106575609D01*
X115060661Y-106600049D01*
X115062150Y-106608860D01*
X115069438Y-106650231D01*
X115076836Y-106676744D01*
X115081289Y-106703898D01*
X115093580Y-106736751D01*
X115103009Y-106770541D01*
X115111590Y-106787536D01*
X115114301Y-106796269D01*
X115119302Y-106805501D01*
X115125057Y-106820884D01*
X115129046Y-106828880D01*
X115133418Y-106837493D01*
X115149769Y-106863146D01*
X115159309Y-106882040D01*
X115164050Y-106888110D01*
X115173793Y-106906097D01*
X115188319Y-106923629D01*
X115200553Y-106942823D01*
X115228069Y-106971604D01*
X115253485Y-107002279D01*
X115271142Y-107016657D01*
X115286869Y-107033107D01*
X115319455Y-107055999D01*
X115350341Y-107081149D01*
X115370446Y-107091820D01*
X115389076Y-107104907D01*
X115425492Y-107121034D01*
X115460670Y-107139705D01*
X115468958Y-107143046D01*
X115495089Y-107153369D01*
X115526423Y-107162328D01*
X115556782Y-107174180D01*
X115565401Y-107176542D01*
X115620771Y-107191301D01*
X115628487Y-107192568D01*
X115635873Y-107195130D01*
X115644576Y-107197160D01*
X115721862Y-107214620D01*
X115725140Y-107215030D01*
X115728284Y-107216036D01*
X115737033Y-107217854D01*
X115828910Y-107236282D01*
X115828976Y-107236289D01*
X115829046Y-107236310D01*
X115837821Y-107238004D01*
X115869892Y-107243965D01*
X115869984Y-107243973D01*
X115871529Y-107244267D01*
X116025030Y-107272385D01*
X116081919Y-107283008D01*
X116091047Y-107306314D01*
X116092814Y-107310994D01*
X116057838Y-107361989D01*
X116039729Y-107388336D01*
X116039656Y-107388468D01*
X116036938Y-107392429D01*
X115971082Y-107489850D01*
X115970665Y-107490620D01*
X115970109Y-107491294D01*
X115965176Y-107498746D01*
X115907226Y-107587634D01*
X115906256Y-107589497D01*
X115904947Y-107591153D01*
X115900169Y-107598704D01*
X115853281Y-107673953D01*
X115850562Y-107679448D01*
X115846919Y-107684383D01*
X115842393Y-107692088D01*
X115809724Y-107748596D01*
X115800138Y-107769696D01*
X115788030Y-107789461D01*
X115784184Y-107797527D01*
X115768891Y-107830188D01*
X115763982Y-107844057D01*
X115757065Y-107857032D01*
X115743180Y-107902835D01*
X115727217Y-107947937D01*
X115725098Y-107962481D01*
X115720828Y-107976565D01*
X115719144Y-107985341D01*
X115718403Y-107989354D01*
X115714892Y-108030607D01*
X115708665Y-108071546D01*
X115709608Y-108092709D01*
X115707812Y-108113810D01*
X115712380Y-108154951D01*
X115714223Y-108196328D01*
X115719259Y-108216908D01*
X115721596Y-108237953D01*
X115734072Y-108277437D01*
X115743914Y-108317655D01*
X115752846Y-108336853D01*
X115759229Y-108357055D01*
X115779137Y-108393364D01*
X115796602Y-108430903D01*
X115801199Y-108438567D01*
X115814048Y-108459658D01*
X115841586Y-108496268D01*
X115867176Y-108534268D01*
X115872915Y-108541118D01*
X115908419Y-108582898D01*
X115914830Y-108589098D01*
X115920117Y-108596283D01*
X115926137Y-108602887D01*
X115979732Y-108660868D01*
X115981306Y-108662268D01*
X115982591Y-108663941D01*
X115988745Y-108670421D01*
X116055868Y-108740111D01*
X116055888Y-108740128D01*
X116061844Y-108746234D01*
X116137928Y-108823144D01*
X116138021Y-108823221D01*
X116142759Y-108827975D01*
X116223242Y-108907613D01*
X116223343Y-108907695D01*
X116227878Y-108912154D01*
X116308195Y-108990032D01*
X116308269Y-108990091D01*
X116313507Y-108995124D01*
X116389095Y-109066749D01*
X116389507Y-109067069D01*
X116389855Y-109067469D01*
X116396395Y-109073559D01*
X116462689Y-109134443D01*
X116465918Y-109136873D01*
X116468656Y-109139855D01*
X116475355Y-109145769D01*
X116527791Y-109191420D01*
X116541129Y-109200914D01*
X116552966Y-109212233D01*
X116560035Y-109217699D01*
X116594049Y-109243628D01*
X116599288Y-109246866D01*
X116603876Y-109250971D01*
X116639189Y-109271872D01*
X116649258Y-109279717D01*
X116666418Y-109288356D01*
X116700300Y-109309297D01*
X116706063Y-109311454D01*
X116711365Y-109314592D01*
X116719489Y-109318315D01*
X116728899Y-109322547D01*
X116745327Y-109328082D01*
X116760824Y-109335884D01*
X116801611Y-109347212D01*
X116817282Y-109353077D01*
X116821627Y-109353790D01*
X116847267Y-109362429D01*
X116864462Y-109364668D01*
X116881174Y-109369310D01*
X116926279Y-109372719D01*
X116971127Y-109378560D01*
X116988431Y-109377417D01*
X117005725Y-109378724D01*
X117050627Y-109373308D01*
X117095762Y-109370326D01*
X117112518Y-109365842D01*
X117129733Y-109363766D01*
X117172732Y-109349731D01*
X117216423Y-109338040D01*
X117231981Y-109330391D01*
X117248473Y-109325008D01*
X117256631Y-109321362D01*
X117278534Y-109311391D01*
X117305971Y-109295500D01*
X117334815Y-109282325D01*
X117342510Y-109277782D01*
X117387353Y-109250890D01*
X117393005Y-109246700D01*
X117399294Y-109243550D01*
X117406822Y-109238735D01*
X117467301Y-109199451D01*
X117469016Y-109198082D01*
X117470954Y-109197060D01*
X117478380Y-109192089D01*
X117524912Y-109160470D01*
X117525026Y-109160375D01*
X117528015Y-109158349D01*
X117611704Y-109100760D01*
X117710136Y-109033416D01*
X117731568Y-109018820D01*
X117769695Y-109034094D01*
X117816193Y-109047630D01*
X117847403Y-109058224D01*
X117856160Y-109061453D01*
X117857579Y-109061679D01*
X117862090Y-109063210D01*
X117870806Y-109065181D01*
X117881014Y-109067416D01*
X117886317Y-109068044D01*
X117889623Y-109069006D01*
X117908453Y-109070664D01*
X117930388Y-109073260D01*
X117979516Y-109081074D01*
X117992326Y-109080590D01*
X118005055Y-109082097D01*
X118054622Y-109078239D01*
X118104333Y-109076363D01*
X118116811Y-109073399D01*
X118129584Y-109072405D01*
X118177460Y-109058993D01*
X118225858Y-109047497D01*
X118237515Y-109042169D01*
X118249860Y-109038711D01*
X118294236Y-109016246D01*
X118339462Y-108995576D01*
X118349863Y-108988085D01*
X118361300Y-108982295D01*
X118400471Y-108951636D01*
X118440817Y-108922578D01*
X118449562Y-108913212D01*
X118459660Y-108905309D01*
X118492124Y-108867632D01*
X118526064Y-108831285D01*
X118531446Y-108824152D01*
X118543720Y-108807648D01*
X118567895Y-108767475D01*
X118594000Y-108728537D01*
X118598173Y-108720635D01*
X118622389Y-108673995D01*
X118625057Y-108667339D01*
X118628832Y-108661240D01*
X118632715Y-108653192D01*
X118667065Y-108580719D01*
X118667335Y-108579966D01*
X118667746Y-108579278D01*
X118671497Y-108571167D01*
X118714172Y-108477164D01*
X118714216Y-108477035D01*
X118716724Y-108471469D01*
X118765918Y-108360237D01*
X118765968Y-108360085D01*
X118767666Y-108356248D01*
X118821570Y-108232089D01*
X118821615Y-108231949D01*
X118822925Y-108228945D01*
X118879731Y-108096162D01*
X118879774Y-108096027D01*
X118880895Y-108093422D01*
X118938797Y-107956318D01*
X118938837Y-107956189D01*
X118939905Y-107953678D01*
X118989699Y-107834284D01*
X118992494Y-107841053D01*
X118992558Y-107841173D01*
X118993624Y-107843772D01*
X119051128Y-107981224D01*
X119051194Y-107981347D01*
X119052230Y-107983840D01*
X119110087Y-108120429D01*
X119110151Y-108120546D01*
X119111270Y-108123205D01*
X119167673Y-108254634D01*
X119167746Y-108254767D01*
X119169072Y-108257868D01*
X119222212Y-108379837D01*
X119222288Y-108379973D01*
X119224057Y-108384031D01*
X119272125Y-108492235D01*
X119272184Y-108492339D01*
X119274903Y-108498400D01*
X119316092Y-108588540D01*
X119316829Y-108589808D01*
X119317312Y-108591194D01*
X119321120Y-108599279D01*
X119353620Y-108667053D01*
X119358674Y-108675391D01*
X119362289Y-108684449D01*
X119366451Y-108692357D01*
X119388455Y-108733464D01*
X119420744Y-108781771D01*
X119452376Y-108830521D01*
X119457860Y-108837297D01*
X119457867Y-108837308D01*
X119457875Y-108837316D01*
X119457998Y-108837468D01*
X119466859Y-108848264D01*
X119510600Y-108892039D01*
X119554038Y-108935705D01*
X119554633Y-108936106D01*
X119555147Y-108936620D01*
X119606308Y-108970897D01*
X119657649Y-109005464D01*
X119658323Y-109005747D01*
X119658916Y-109006144D01*
X119715789Y-109029844D01*
X119772838Y-109053767D01*
X119773540Y-109053911D01*
X119774211Y-109054190D01*
X119834816Y-109066434D01*
X119895214Y-109078778D01*
X119895938Y-109078782D01*
X119896644Y-109078925D01*
X119958542Y-109079165D01*
X120020118Y-109079541D01*
X120020821Y-109079406D01*
X120021549Y-109079409D01*
X120082249Y-109067634D01*
X120142792Y-109056031D01*
X120144095Y-109055636D01*
X120144169Y-109055622D01*
X120144246Y-109055591D01*
X120151344Y-109053441D01*
X120178420Y-109045034D01*
X120209015Y-109032142D01*
X120240670Y-109022106D01*
X120248001Y-109018904D01*
X120309728Y-109061020D01*
X120403981Y-109125635D01*
X120451063Y-109158085D01*
X120451133Y-109158124D01*
X120457461Y-109162437D01*
X120524706Y-109207594D01*
X120529323Y-109210078D01*
X120533423Y-109213345D01*
X120540956Y-109218152D01*
X120597898Y-109253937D01*
X120608837Y-109259402D01*
X120618788Y-109266517D01*
X120626561Y-109270926D01*
X120665771Y-109292807D01*
X120708775Y-109311562D01*
X120733522Y-109323825D01*
X120741831Y-109328328D01*
X120743912Y-109328974D01*
X120750799Y-109332387D01*
X120759177Y-109335495D01*
X120771912Y-109340120D01*
X120777584Y-109341572D01*
X120780262Y-109342740D01*
X120793364Y-109345612D01*
X120816818Y-109351616D01*
X120861117Y-109365374D01*
X120877231Y-109367082D01*
X120892916Y-109371098D01*
X120939205Y-109373653D01*
X120985327Y-109378543D01*
X121001463Y-109377090D01*
X121017632Y-109377982D01*
X121063534Y-109371498D01*
X121109729Y-109367337D01*
X121125273Y-109362777D01*
X121141311Y-109360512D01*
X121185101Y-109345228D01*
X121229586Y-109332179D01*
X121243943Y-109324690D01*
X121259240Y-109319351D01*
X121299218Y-109295858D01*
X121307137Y-109291728D01*
X121312670Y-109289409D01*
X121316424Y-109286883D01*
X121340331Y-109274413D01*
X121347778Y-109269475D01*
X121366315Y-109256996D01*
X121390390Y-109237117D01*
X121416302Y-109219682D01*
X121423154Y-109213946D01*
X121464177Y-109179113D01*
X121467489Y-109175691D01*
X121471365Y-109172918D01*
X121478049Y-109166986D01*
X121537583Y-109113413D01*
X121537816Y-109113157D01*
X121538092Y-109112954D01*
X121544686Y-109106923D01*
X121618753Y-109038229D01*
X121618829Y-109038143D01*
X121623794Y-109033503D01*
X121708417Y-108953301D01*
X121708525Y-108953176D01*
X121711904Y-108949970D01*
X121765425Y-108898475D01*
X121765505Y-108898382D01*
X121770233Y-108893800D01*
X121863866Y-108801800D01*
X121864524Y-108801014D01*
X121865326Y-108800362D01*
X121871636Y-108794034D01*
X121952558Y-108711747D01*
X121954253Y-108709648D01*
X121956311Y-108707899D01*
X121962478Y-108701432D01*
X122027414Y-108632378D01*
X122031882Y-108626585D01*
X122037277Y-108621647D01*
X122043202Y-108614958D01*
X122088883Y-108562657D01*
X122103417Y-108542308D01*
X122120241Y-108523794D01*
X122125526Y-108516589D01*
X122148679Y-108484561D01*
X122160953Y-108463525D01*
X122161777Y-108462535D01*
X122163389Y-108459575D01*
X122179373Y-108437945D01*
X122194159Y-108406616D01*
X122211628Y-108376677D01*
X122217023Y-108361064D01*
X122221504Y-108352834D01*
X122225358Y-108340511D01*
X122232684Y-108324988D01*
X122235633Y-108316552D01*
X122237854Y-108310052D01*
X122244731Y-108280881D01*
X122252423Y-108258620D01*
X122253574Y-108250284D01*
X122258785Y-108233622D01*
X122261250Y-108210805D01*
X122266513Y-108188479D01*
X122267941Y-108148867D01*
X122269234Y-108136902D01*
X122269512Y-108134889D01*
X122269491Y-108134525D01*
X122272201Y-108109438D01*
X122270187Y-108086580D01*
X122271014Y-108063654D01*
X122264719Y-108024505D01*
X122261240Y-107985013D01*
X122254827Y-107962989D01*
X122251184Y-107940331D01*
X122237405Y-107903153D01*
X122226322Y-107865088D01*
X122222940Y-107856816D01*
X122212632Y-107832094D01*
X122196134Y-107801369D01*
X122182353Y-107769332D01*
X122177983Y-107761537D01*
X122149498Y-107711548D01*
X122145250Y-107705542D01*
X122142093Y-107698891D01*
X122137438Y-107691262D01*
X122093936Y-107621069D01*
X122092631Y-107619361D01*
X122091666Y-107617432D01*
X122086854Y-107609902D01*
X122031494Y-107524565D01*
X122031138Y-107524119D01*
X122030873Y-107523609D01*
X122025944Y-107516155D01*
X121961887Y-107420737D01*
X121961799Y-107420631D01*
X121958572Y-107415847D01*
X121940355Y-107389245D01*
X121940327Y-107389211D01*
X121939935Y-107388632D01*
X121886641Y-107311002D01*
X121897571Y-107282990D01*
X121929346Y-107277023D01*
X122075982Y-107250093D01*
X122107447Y-107244355D01*
X122107562Y-107244322D01*
X122114020Y-107243121D01*
X122209088Y-107224754D01*
X122211765Y-107223959D01*
X122214548Y-107223675D01*
X122223294Y-107221842D01*
X122306173Y-107203873D01*
X122311500Y-107202159D01*
X122317055Y-107201415D01*
X122325739Y-107199308D01*
X122389105Y-107183472D01*
X122406555Y-107177247D01*
X122424700Y-107173476D01*
X122433211Y-107170752D01*
X122469739Y-107158783D01*
X122524456Y-107134716D01*
X122527282Y-107133501D01*
X122559228Y-107121410D01*
X122567744Y-107116103D01*
X122579433Y-107111077D01*
X122583934Y-107108555D01*
X122584074Y-107108493D01*
X122584196Y-107108408D01*
X122587229Y-107106708D01*
X122592127Y-107103918D01*
X122627967Y-107078573D01*
X122665235Y-107055348D01*
X122678867Y-107042578D01*
X122694109Y-107031799D01*
X122724340Y-106999979D01*
X122756391Y-106969954D01*
X122767283Y-106954779D01*
X122780141Y-106941245D01*
X122803624Y-106904147D01*
X122829224Y-106868480D01*
X122836957Y-106851488D01*
X122846947Y-106835706D01*
X122862775Y-106794757D01*
X122880962Y-106754794D01*
X122883792Y-106746318D01*
X122891863Y-106721580D01*
X122904505Y-106664408D01*
X122917853Y-106607354D01*
X122918817Y-106599687D01*
X122918832Y-106599620D01*
X122918833Y-106599559D01*
X122918968Y-106598488D01*
X122925528Y-106543206D01*
X122925794Y-106530155D01*
X122928070Y-106517295D01*
X122928699Y-106508381D01*
X122933745Y-106428980D01*
X122933600Y-106424739D01*
X122934225Y-106420544D01*
X122934611Y-106411616D01*
X122938137Y-106314523D01*
X122938061Y-106313289D01*
X122938223Y-106312052D01*
X122938450Y-106303118D01*
X122940452Y-106194761D01*
X122940444Y-106194661D01*
X122940456Y-106194559D01*
X122940555Y-106185624D01*
X122941029Y-106072612D01*
X122941030Y-106072604D01*
X122941007Y-106063668D01*
X122939948Y-105952056D01*
X122939893Y-105951549D01*
X122939938Y-105951036D01*
X122939776Y-105942101D01*
X122937181Y-105838503D01*
X122936892Y-105836164D01*
X122937047Y-105833802D01*
X122936695Y-105824873D01*
X122932559Y-105735712D01*
X122931512Y-105728496D01*
X122931721Y-105721207D01*
X122931042Y-105712296D01*
X122925359Y-105644000D01*
X122920889Y-105619541D01*
X122919327Y-105594725D01*
X122917836Y-105585914D01*
X122910604Y-105544908D01*
X122902407Y-105515553D01*
X122897192Y-105485531D01*
X122885651Y-105455549D01*
X122877010Y-105424605D01*
X122863270Y-105397408D01*
X122859693Y-105388115D01*
X122855193Y-105375457D01*
X122854140Y-105373689D01*
X122852321Y-105368963D01*
X122848256Y-105361005D01*
X122843896Y-105352613D01*
X122829343Y-105330249D01*
X122820688Y-105313117D01*
X122809693Y-105299045D01*
X122791288Y-105268136D01*
X122782737Y-105258630D01*
X122775769Y-105247922D01*
X122745371Y-105216722D01*
X122743785Y-105214692D01*
X122741323Y-105212567D01*
X122741058Y-105212295D01*
X122707755Y-105175272D01*
X122697518Y-105167606D01*
X122688604Y-105158457D01*
X122647608Y-105130232D01*
X122607774Y-105100403D01*
X122596258Y-105094878D01*
X122585724Y-105087626D01*
X122540022Y-105067900D01*
X122533613Y-105064826D01*
X122532178Y-105063943D01*
X122530380Y-105063275D01*
X122495157Y-105046377D01*
X122486740Y-105043376D01*
X122462467Y-105034910D01*
X122438358Y-105029065D01*
X122415101Y-105020419D01*
X122406445Y-105018198D01*
X122351173Y-105004425D01*
X122347257Y-105003847D01*
X122343512Y-105002566D01*
X122334801Y-105000573D01*
X122254036Y-104982688D01*
X122253925Y-104982675D01*
X122253813Y-104982638D01*
X122245074Y-104980771D01*
X122144324Y-104959969D01*
X122144209Y-104959957D01*
X122137695Y-104958636D01*
X122022466Y-104936111D01*
X122022305Y-104936096D01*
X122017952Y-104935246D01*
X121955171Y-104923441D01*
X121955129Y-104923437D01*
X121954504Y-104923316D01*
X121869940Y-104907508D01*
X121881383Y-104890643D01*
X121918251Y-104836959D01*
X121918300Y-104836871D01*
X121919301Y-104835425D01*
X121988347Y-104734256D01*
X121988409Y-104734143D01*
X121991994Y-104728854D01*
X122053319Y-104637003D01*
X122053351Y-104636943D01*
X122057695Y-104630360D01*
X122108308Y-104552474D01*
X122109106Y-104550936D01*
X122110177Y-104549580D01*
X122114953Y-104542028D01*
X122151861Y-104482753D01*
X122156358Y-104473658D01*
X122162277Y-104465420D01*
X122166704Y-104457658D01*
X122186915Y-104421640D01*
X122206252Y-104377585D01*
X122207944Y-104374158D01*
X122220521Y-104351156D01*
X122222666Y-104344340D01*
X122227559Y-104334430D01*
X122230656Y-104326047D01*
X122233575Y-104317973D01*
X122235172Y-104311698D01*
X122237117Y-104307266D01*
X122242644Y-104282332D01*
X122244599Y-104274648D01*
X122258018Y-104232010D01*
X122259970Y-104214240D01*
X122264376Y-104196925D01*
X122266774Y-104152305D01*
X122271658Y-104107851D01*
X122270121Y-104090037D01*
X122271080Y-104072198D01*
X122264765Y-104027957D01*
X122260922Y-103983407D01*
X122255956Y-103966238D01*
X122253431Y-103948546D01*
X122238638Y-103906360D01*
X122226218Y-103863419D01*
X122218012Y-103847541D01*
X122212098Y-103830676D01*
X122189401Y-103792180D01*
X122181480Y-103776854D01*
X122179754Y-103772835D01*
X122178330Y-103770759D01*
X122168871Y-103752456D01*
X122163960Y-103744990D01*
X122151412Y-103726197D01*
X122129061Y-103698920D01*
X122109109Y-103669827D01*
X122103312Y-103663026D01*
X122068622Y-103622899D01*
X122064693Y-103619163D01*
X122061491Y-103614790D01*
X122055487Y-103608171D01*
X122003087Y-103551208D01*
X122002884Y-103551026D01*
X122002712Y-103550799D01*
X121996610Y-103544270D01*
X121930931Y-103474962D01*
X121930826Y-103474871D01*
X121926698Y-103470538D01*
X121852170Y-103393384D01*
X121852053Y-103393285D01*
X121848819Y-103389940D01*
X121769875Y-103309434D01*
X121769754Y-103309332D01*
X121766695Y-103306214D01*
X121687765Y-103226851D01*
X121687641Y-103226749D01*
X121684205Y-103223300D01*
X121609722Y-103149577D01*
X121609627Y-103149499D01*
X121604925Y-103144879D01*
X121539319Y-103081291D01*
X121538466Y-103080613D01*
X121537758Y-103079783D01*
X121531277Y-103073630D01*
X121478979Y-103024672D01*
X121472281Y-103019531D01*
X121466543Y-103013333D01*
X121459819Y-103007446D01*
X121425262Y-102977613D01*
X121387040Y-102950646D01*
X121350193Y-102921833D01*
X121342616Y-102917095D01*
X121331056Y-102909976D01*
X121325660Y-102907341D01*
X121323200Y-102905606D01*
X121315726Y-102902278D01*
X121303751Y-102894080D01*
X121260810Y-102875680D01*
X121218813Y-102855175D01*
X121203504Y-102851123D01*
X121188941Y-102844883D01*
X121143219Y-102835169D01*
X121098064Y-102823218D01*
X121082261Y-102822217D01*
X121066762Y-102818924D01*
X121020038Y-102818276D01*
X120973408Y-102815322D01*
X120957705Y-102817411D01*
X120941868Y-102817191D01*
X120895917Y-102825629D01*
X120849592Y-102831791D01*
X120834591Y-102836891D01*
X120819016Y-102839751D01*
X120775578Y-102856953D01*
X120731333Y-102871995D01*
X120717614Y-102879908D01*
X120702885Y-102885741D01*
X120694967Y-102889882D01*
X120676143Y-102899893D01*
X120661288Y-102909764D01*
X120645191Y-102917474D01*
X120637580Y-102922156D01*
X120592556Y-102950281D01*
X120591720Y-102950925D01*
X120590778Y-102951396D01*
X120583248Y-102956208D01*
X120516404Y-102999584D01*
X120516289Y-102999676D01*
X120511658Y-103002694D01*
X120427369Y-103058458D01*
X120427246Y-103058558D01*
X120424038Y-103060677D01*
X120326683Y-103125965D01*
X120326573Y-103126056D01*
X120324239Y-103127613D01*
X120250802Y-103177352D01*
X120250747Y-103177398D01*
X120249830Y-103178012D01*
X120180937Y-103224859D01*
X120165197Y-103141367D01*
X120165197Y-103141366D01*
X120081376Y-102696742D01*
X120081181Y-102696074D01*
X120081118Y-102695383D01*
X120063648Y-102636026D01*
X120046368Y-102576842D01*
X120046049Y-102576229D01*
X120045852Y-102575559D01*
X120017163Y-102520683D01*
X119988739Y-102466025D01*
X119988305Y-102465483D01*
X119987983Y-102464867D01*
X119949351Y-102416818D01*
X119910684Y-102368511D01*
X119910151Y-102368062D01*
X119909717Y-102367522D01*
X119862381Y-102327803D01*
X119815173Y-102288017D01*
X119814567Y-102287682D01*
X119814033Y-102287234D01*
X119759605Y-102257312D01*
X119705847Y-102227607D01*
X119705190Y-102227397D01*
X119704577Y-102227060D01*
X119645530Y-102208330D01*
X119586870Y-102189582D01*
X119586179Y-102189503D01*
X119585517Y-102189293D01*
X119524115Y-102182405D01*
X119462773Y-102175390D01*
X119462081Y-102175447D01*
X119461390Y-102175369D01*
X119452454Y-102175307D01*
X118527006Y-102175307D01*
X118526316Y-102175375D01*
X118525621Y-102175308D01*
X118463946Y-102181490D01*
X118402696Y-102187496D01*
X118402032Y-102187696D01*
X118401338Y-102187766D01*
X118342190Y-102205764D01*
X118283121Y-102223598D01*
X118282506Y-102223925D01*
X118281842Y-102224127D01*
X118227382Y-102253234D01*
X118172835Y-102282237D01*
X118172297Y-102282676D01*
X118171683Y-102283004D01*
X118123722Y-102322293D01*
X118076040Y-102361182D01*
X118075600Y-102361714D01*
X118075058Y-102362158D01*
X118035593Y-102410074D01*
X117996422Y-102457424D01*
X117996092Y-102458034D01*
X117995649Y-102458572D01*
X117966371Y-102513003D01*
X117937014Y-102567297D01*
X117936808Y-102567962D01*
X117936479Y-102568574D01*
X117918338Y-102627628D01*
X117900078Y-102686617D01*
X117900005Y-102687308D01*
X117899801Y-102687973D01*
X117898084Y-102696743D01*
X117814269Y-103141340D01*
X117814264Y-103141366D01*
X117798524Y-103224859D01*
X117729630Y-103178012D01*
X117729552Y-103177970D01*
X117728202Y-103177043D01*
X117624291Y-103106793D01*
X117624157Y-103106720D01*
X117621259Y-103104756D01*
X117527329Y-103042032D01*
X117527187Y-103041956D01*
X117523614Y-103039570D01*
X117444049Y-102987236D01*
X117443948Y-102987183D01*
X117438331Y-102983518D01*
X117377513Y-102944437D01*
X117374671Y-102942981D01*
X117372149Y-102941028D01*
X117364551Y-102936325D01*
X117326864Y-102913361D01*
X117302668Y-102901687D01*
X117279921Y-102887390D01*
X117271899Y-102883451D01*
X117261635Y-102878500D01*
X117243202Y-102871736D01*
X117225847Y-102862569D01*
X117214643Y-102859220D01*
X117214366Y-102859086D01*
X117213074Y-102858750D01*
X117184693Y-102850266D01*
X117144374Y-102835471D01*
X117124989Y-102832418D01*
X117106174Y-102826793D01*
X117063399Y-102822717D01*
X117020989Y-102816037D01*
X117001380Y-102816807D01*
X116981831Y-102814944D01*
X116939095Y-102819252D01*
X116896179Y-102820937D01*
X116877086Y-102825503D01*
X116857555Y-102827472D01*
X116816467Y-102840000D01*
X116774698Y-102849989D01*
X116756859Y-102858175D01*
X116738079Y-102863901D01*
X116700202Y-102884173D01*
X116661174Y-102902082D01*
X116645268Y-102913574D01*
X116627954Y-102922841D01*
X116620559Y-102927859D01*
X116602070Y-102940593D01*
X116574968Y-102963461D01*
X116546030Y-102983952D01*
X116539317Y-102989851D01*
X116499806Y-103025057D01*
X116496135Y-103029036D01*
X116491818Y-103032297D01*
X116485290Y-103038399D01*
X116429187Y-103091579D01*
X116429009Y-103091784D01*
X116428795Y-103091951D01*
X116422358Y-103098150D01*
X116354093Y-103164805D01*
X116353999Y-103164916D01*
X116349749Y-103169088D01*
X116273750Y-103244724D01*
X116273651Y-103244844D01*
X116270366Y-103248117D01*
X116191061Y-103328234D01*
X116190961Y-103328357D01*
X116187907Y-103331443D01*
X116109724Y-103411545D01*
X116109628Y-103411665D01*
X116106237Y-103415145D01*
X116033605Y-103490735D01*
X116033526Y-103490835D01*
X116029002Y-103495577D01*
X115966349Y-103562158D01*
X115965709Y-103562988D01*
X115964917Y-103563684D01*
X115958861Y-103570255D01*
X115910617Y-103623328D01*
X115905632Y-103630023D01*
X115899584Y-103635786D01*
X115893795Y-103642593D01*
X115864388Y-103677662D01*
X115838363Y-103715698D01*
X115810422Y-103752341D01*
X115805776Y-103759974D01*
X115798745Y-103771710D01*
X115795846Y-103777835D01*
X115793854Y-103780747D01*
X115788012Y-103794390D01*
X115773968Y-103824066D01*
X115748437Y-103876092D01*
X115747261Y-103880500D01*
X115745315Y-103884612D01*
X115731192Y-103940732D01*
X115716240Y-103996777D01*
X115715943Y-104001328D01*
X115714832Y-104005741D01*
X115711876Y-104063572D01*
X115708096Y-104121418D01*
X115708688Y-104125935D01*
X115708455Y-104130485D01*
X115716798Y-104187847D01*
X115724319Y-104245266D01*
X115725776Y-104249580D01*
X115726432Y-104254091D01*
X115745744Y-104308704D01*
X115751415Y-104325496D01*
X115752365Y-104329515D01*
X115753941Y-104332973D01*
X115764286Y-104363605D01*
X115768015Y-104371726D01*
X115778133Y-104393363D01*
X115792483Y-104417568D01*
X115804152Y-104443179D01*
X115808687Y-104450879D01*
X115837051Y-104498281D01*
X115839677Y-104501830D01*
X115841620Y-104505800D01*
X115846367Y-104513371D01*
X115889997Y-104581902D01*
X115890155Y-104582103D01*
X115890275Y-104582340D01*
X115895133Y-104589840D01*
X115951044Y-104674862D01*
X115951118Y-104674953D01*
X115954860Y-104680597D01*
X116020072Y-104777475D01*
X116020171Y-104777595D01*
X116022706Y-104781358D01*
X116060178Y-104836153D01*
X116060195Y-104836178D01*
X116108965Y-104907623D01*
X116090074Y-104911184D01*
X116025337Y-104923245D01*
X116025221Y-104923278D01*
X116022856Y-104923712D01*
X115902348Y-104946656D01*
X115902223Y-104946693D01*
X115896183Y-104947861D01*
X115787336Y-104969694D01*
X115787262Y-104969716D01*
X115779878Y-104971236D01*
X115688199Y-104990763D01*
X115686861Y-104991188D01*
X115685460Y-104991352D01*
X115676742Y-104993314D01*
X115607736Y-105009340D01*
X115599046Y-105012277D01*
X115589976Y-105013732D01*
X115581349Y-105016063D01*
X115540526Y-105027394D01*
X115502284Y-105042160D01*
X115463116Y-105054326D01*
X115454906Y-105057855D01*
X115446699Y-105061450D01*
X115434651Y-105068198D01*
X115421714Y-105073041D01*
X115380240Y-105098677D01*
X115337725Y-105122492D01*
X115327219Y-105131451D01*
X115315467Y-105138715D01*
X115279760Y-105171921D01*
X115242682Y-105203538D01*
X115234117Y-105214366D01*
X115223999Y-105223775D01*
X115195429Y-105263275D01*
X115165191Y-105301501D01*
X115158889Y-105313793D01*
X115150796Y-105324982D01*
X115130443Y-105369275D01*
X115108205Y-105412650D01*
X115104412Y-105425926D01*
X115098644Y-105438479D01*
X115095782Y-105446945D01*
X115087745Y-105471277D01*
X115074581Y-105529793D01*
X115060971Y-105588133D01*
X115060364Y-105592985D01*
X115060330Y-105593137D01*
X115060326Y-105593290D01*
X115059862Y-105597000D01*
X115053377Y-105651953D01*
X115053116Y-105665178D01*
X115050827Y-105678201D01*
X115050208Y-105687116D01*
X115045271Y-105766265D01*
X115045423Y-105770546D01*
X115044797Y-105774781D01*
X115044422Y-105783710D01*
X115041028Y-105880627D01*
X115041107Y-105881884D01*
X115040945Y-105883134D01*
X115040730Y-105892067D01*
X115038876Y-106000328D01*
X115038885Y-106000433D01*
X115038872Y-106000542D01*
X115038785Y-106009478D01*
X115038466Y-106122464D01*
X115038465Y-106122469D01*
X100660000Y-106122469D01*
X100660000Y-100660000D01*
X135340000Y-100660000D01*
X135340001Y-147600000D01*
G37*
X135340001Y-147600000D02*
X100660000Y-147600000D01*
X100660000Y-134953292D01*
X100709359Y-135056920D01*
X100883412Y-135290269D01*
X101099645Y-135485178D01*
X101349748Y-135634157D01*
X101624109Y-135731481D01*
X101854000Y-135610814D01*
X101854000Y-134417000D01*
X102108000Y-134417000D01*
X102108000Y-135610814D01*
X102337891Y-135731481D01*
X102612252Y-135634157D01*
X102862355Y-135485178D01*
X103078588Y-135290269D01*
X103252641Y-135056920D01*
X103377825Y-134794099D01*
X103422476Y-134646890D01*
X103301155Y-134417000D01*
X102108000Y-134417000D01*
X101854000Y-134417000D01*
X101834000Y-134417000D01*
X101834000Y-134163000D01*
X101854000Y-134163000D01*
X101854000Y-134143000D01*
X102108000Y-134143000D01*
X102108000Y-134163000D01*
X103301155Y-134163000D01*
X103422476Y-133933110D01*
X103377825Y-133785901D01*
X103252641Y-133523080D01*
X103078588Y-133289731D01*
X102862355Y-133094822D01*
X102745466Y-133025195D01*
X102927632Y-132903475D01*
X103134475Y-132696632D01*
X103296990Y-132453411D01*
X103408932Y-132183158D01*
X103466000Y-131896260D01*
X103466000Y-131603740D01*
X103408932Y-131316842D01*
X103296990Y-131046589D01*
X103134475Y-130803368D01*
X102927632Y-130596525D01*
X102753240Y-130480000D01*
X102927632Y-130363475D01*
X103134475Y-130156632D01*
X103296990Y-129913411D01*
X103408932Y-129643158D01*
X103466000Y-129356260D01*
X103466000Y-129063740D01*
X103408932Y-128776842D01*
X103296990Y-128506589D01*
X103134475Y-128263368D01*
X102927632Y-128056525D01*
X102753240Y-127940000D01*
X102927632Y-127823475D01*
X103134475Y-127616632D01*
X103242474Y-127455000D01*
X103923447Y-127455000D01*
X103962000Y-127458797D01*
X104000553Y-127455000D01*
X104000561Y-127455000D01*
X104115887Y-127443641D01*
X104263860Y-127398754D01*
X104400233Y-127325862D01*
X104519764Y-127227764D01*
X104544347Y-127197810D01*
X105487158Y-126254999D01*
X128489456Y-126254999D01*
X128436000Y-126523740D01*
X128436000Y-126816260D01*
X128493068Y-127103158D01*
X128605010Y-127373411D01*
X128767525Y-127616632D01*
X128974368Y-127823475D01*
X129148760Y-127940000D01*
X128974368Y-128056525D01*
X128767525Y-128263368D01*
X128605010Y-128506589D01*
X128493068Y-128776842D01*
X128436000Y-129063740D01*
X128436000Y-129356260D01*
X128493068Y-129643158D01*
X128546022Y-129771000D01*
X120688556Y-129771000D01*
X120650000Y-129767203D01*
X120611444Y-129771000D01*
X120611439Y-129771000D01*
X120571026Y-129774980D01*
X120496113Y-129782358D01*
X120348140Y-129827246D01*
X120211767Y-129900138D01*
X120092236Y-129998236D01*
X120067655Y-130028188D01*
X115423190Y-134672653D01*
X115393236Y-134697236D01*
X115295138Y-134816768D01*
X115222246Y-134953141D01*
X115177359Y-135101114D01*
X115166000Y-135216440D01*
X115166000Y-135216447D01*
X115162203Y-135255000D01*
X115166000Y-135293553D01*
X115166001Y-137977842D01*
X114736843Y-138407000D01*
X112720158Y-138407000D01*
X111783000Y-137469843D01*
X111783000Y-135039552D01*
X111786797Y-135000999D01*
X111783000Y-134962446D01*
X111783000Y-134962439D01*
X111771641Y-134847113D01*
X111755560Y-134794099D01*
X111726754Y-134699140D01*
X111671211Y-134595226D01*
X111653862Y-134562767D01*
X111591531Y-134486817D01*
X111580345Y-134473187D01*
X111580342Y-134473184D01*
X111555764Y-134443236D01*
X111525815Y-134418658D01*
X110740000Y-133632843D01*
X110740000Y-131869465D01*
X110744281Y-131825999D01*
X110740000Y-131782533D01*
X110740000Y-131782523D01*
X110727195Y-131652510D01*
X110676589Y-131485687D01*
X110594411Y-131331941D01*
X110483817Y-131197183D01*
X110450044Y-131169466D01*
X110003534Y-130722956D01*
X109975817Y-130689183D01*
X109841059Y-130578589D01*
X109687313Y-130496411D01*
X109520490Y-130445805D01*
X109390477Y-130433000D01*
X109390469Y-130433000D01*
X109347000Y-130428719D01*
X109303531Y-130433000D01*
X105453469Y-130433000D01*
X105410000Y-130428719D01*
X105366531Y-130433000D01*
X105366523Y-130433000D01*
X105236510Y-130445805D01*
X105069687Y-130496411D01*
X104969430Y-130549999D01*
X104915941Y-130578589D01*
X104814953Y-130661468D01*
X104814951Y-130661470D01*
X104781183Y-130689183D01*
X104753470Y-130722951D01*
X104402956Y-131073465D01*
X104346102Y-131084774D01*
X104157744Y-131162795D01*
X103988226Y-131276063D01*
X103844063Y-131420226D01*
X103730795Y-131589744D01*
X103652774Y-131778102D01*
X103613000Y-131978061D01*
X103613000Y-132181939D01*
X103652774Y-132381898D01*
X103730795Y-132570256D01*
X103844063Y-132739774D01*
X103988226Y-132883937D01*
X104157744Y-132997205D01*
X104346102Y-133075226D01*
X104546061Y-133115000D01*
X104749939Y-133115000D01*
X104949898Y-133075226D01*
X105138256Y-132997205D01*
X105307774Y-132883937D01*
X105451937Y-132739774D01*
X105565205Y-132570256D01*
X105643226Y-132381898D01*
X105654535Y-132325044D01*
X105776579Y-132203000D01*
X108970001Y-132203000D01*
X108970000Y-133491421D01*
X108491421Y-133970001D01*
X108393465Y-133970001D01*
X108349998Y-133965720D01*
X108306532Y-133970001D01*
X108306522Y-133970001D01*
X108176509Y-133982806D01*
X108009686Y-134033412D01*
X107855940Y-134115590D01*
X107721182Y-134226184D01*
X107702494Y-134248955D01*
X107648102Y-134259774D01*
X107459744Y-134337795D01*
X107290226Y-134451063D01*
X107146063Y-134595226D01*
X107032795Y-134764744D01*
X106954774Y-134953102D01*
X106915000Y-135153061D01*
X106915000Y-135356939D01*
X106954774Y-135556898D01*
X107032795Y-135745256D01*
X107146063Y-135914774D01*
X107290226Y-136058937D01*
X107459744Y-136172205D01*
X107648102Y-136250226D01*
X107848061Y-136290000D01*
X108051939Y-136290000D01*
X108251898Y-136250226D01*
X108440256Y-136172205D01*
X108609774Y-136058937D01*
X108753937Y-135914774D01*
X108867205Y-135745256D01*
X108868017Y-135743295D01*
X108901468Y-135740001D01*
X108901476Y-135740001D01*
X109031489Y-135727196D01*
X109198312Y-135676590D01*
X109352058Y-135594412D01*
X109486816Y-135483818D01*
X109514533Y-135450045D01*
X109925710Y-135038868D01*
X110213001Y-135326159D01*
X110213000Y-137756447D01*
X110209203Y-137795000D01*
X110213000Y-137833553D01*
X110213000Y-137833560D01*
X110224359Y-137948886D01*
X110269246Y-138096859D01*
X110342138Y-138233232D01*
X110440236Y-138352764D01*
X110470190Y-138377347D01*
X111812658Y-139719816D01*
X111837236Y-139749764D01*
X111867184Y-139774342D01*
X111867187Y-139774345D01*
X111896559Y-139798450D01*
X111956767Y-139847862D01*
X112093140Y-139920754D01*
X112206672Y-139955194D01*
X112241112Y-139965641D01*
X112255490Y-139967057D01*
X112356439Y-139977000D01*
X112356446Y-139977000D01*
X112394999Y-139980797D01*
X112433552Y-139977000D01*
X115023447Y-139977000D01*
X115062000Y-139980797D01*
X115100553Y-139977000D01*
X115100561Y-139977000D01*
X115215887Y-139965641D01*
X115363860Y-139920754D01*
X115500233Y-139847862D01*
X115619764Y-139749764D01*
X115644347Y-139719810D01*
X116478810Y-138885347D01*
X116508764Y-138860764D01*
X116606862Y-138741233D01*
X116679754Y-138604860D01*
X116700601Y-138536138D01*
X116724642Y-138456887D01*
X116732020Y-138381974D01*
X116736000Y-138341561D01*
X116736000Y-138341556D01*
X116739797Y-138303000D01*
X116736000Y-138264444D01*
X116736000Y-135580157D01*
X117669267Y-134646890D01*
X128479524Y-134646890D01*
X128524175Y-134794099D01*
X128649359Y-135056920D01*
X128823412Y-135290269D01*
X129039645Y-135485178D01*
X129289748Y-135634157D01*
X129564109Y-135731481D01*
X129794000Y-135610814D01*
X129794000Y-134417000D01*
X130048000Y-134417000D01*
X130048000Y-135610814D01*
X130277891Y-135731481D01*
X130552252Y-135634157D01*
X130802355Y-135485178D01*
X131018588Y-135290269D01*
X131191000Y-135059120D01*
X131363412Y-135290269D01*
X131579645Y-135485178D01*
X131829748Y-135634157D01*
X132104109Y-135731481D01*
X132334000Y-135610814D01*
X132334000Y-134417000D01*
X132588000Y-134417000D01*
X132588000Y-135610814D01*
X132817891Y-135731481D01*
X133092252Y-135634157D01*
X133342355Y-135485178D01*
X133558588Y-135290269D01*
X133732641Y-135056920D01*
X133857825Y-134794099D01*
X133902476Y-134646890D01*
X133781155Y-134417000D01*
X132588000Y-134417000D01*
X132334000Y-134417000D01*
X130048000Y-134417000D01*
X129794000Y-134417000D01*
X128600845Y-134417000D01*
X128479524Y-134646890D01*
X117669267Y-134646890D01*
X120975157Y-131341000D01*
X128488263Y-131341000D01*
X128436000Y-131603740D01*
X128436000Y-131896260D01*
X128493068Y-132183158D01*
X128605010Y-132453411D01*
X128767525Y-132696632D01*
X128974368Y-132903475D01*
X129156534Y-133025195D01*
X129039645Y-133094822D01*
X128823412Y-133289731D01*
X128649359Y-133523080D01*
X128524175Y-133785901D01*
X128479524Y-133933110D01*
X128600845Y-134163000D01*
X129794000Y-134163000D01*
X129794000Y-134143000D01*
X130048000Y-134143000D01*
X130048000Y-134163000D01*
X132334000Y-134163000D01*
X132334000Y-134143000D01*
X132588000Y-134143000D01*
X132588000Y-134163000D01*
X133781155Y-134163000D01*
X133902476Y-133933110D01*
X133857825Y-133785901D01*
X133732641Y-133523080D01*
X133558588Y-133289731D01*
X133342355Y-133094822D01*
X133225466Y-133025195D01*
X133407632Y-132903475D01*
X133614475Y-132696632D01*
X133776990Y-132453411D01*
X133888932Y-132183158D01*
X133946000Y-131896260D01*
X133946000Y-131603740D01*
X133888932Y-131316842D01*
X133776990Y-131046589D01*
X133614475Y-130803368D01*
X133407632Y-130596525D01*
X133233240Y-130480000D01*
X133407632Y-130363475D01*
X133614475Y-130156632D01*
X133776990Y-129913411D01*
X133888932Y-129643158D01*
X133946000Y-129356260D01*
X133946000Y-129063740D01*
X133888932Y-128776842D01*
X133776990Y-128506589D01*
X133614475Y-128263368D01*
X133407632Y-128056525D01*
X133233240Y-127940000D01*
X133407632Y-127823475D01*
X133614475Y-127616632D01*
X133776990Y-127373411D01*
X133888932Y-127103158D01*
X133946000Y-126816260D01*
X133946000Y-126523740D01*
X133888932Y-126236842D01*
X133776990Y-125966589D01*
X133614475Y-125723368D01*
X133407632Y-125516525D01*
X133233240Y-125400000D01*
X133407632Y-125283475D01*
X133614475Y-125076632D01*
X133776990Y-124833411D01*
X133888932Y-124563158D01*
X133946000Y-124276260D01*
X133946000Y-123983740D01*
X133888932Y-123696842D01*
X133776990Y-123426589D01*
X133614475Y-123183368D01*
X133407632Y-122976525D01*
X133233240Y-122860000D01*
X133407632Y-122743475D01*
X133614475Y-122536632D01*
X133776990Y-122293411D01*
X133888932Y-122023158D01*
X133946000Y-121736260D01*
X133946000Y-121443740D01*
X133888932Y-121156842D01*
X133776990Y-120886589D01*
X133614475Y-120643368D01*
X133407632Y-120436525D01*
X133233240Y-120320000D01*
X133407632Y-120203475D01*
X133614475Y-119996632D01*
X133776990Y-119753411D01*
X133888932Y-119483158D01*
X133946000Y-119196260D01*
X133946000Y-118903740D01*
X133888932Y-118616842D01*
X133776990Y-118346589D01*
X133614475Y-118103368D01*
X133407632Y-117896525D01*
X133233240Y-117780000D01*
X133407632Y-117663475D01*
X133614475Y-117456632D01*
X133776990Y-117213411D01*
X133888932Y-116943158D01*
X133946000Y-116656260D01*
X133946000Y-116363740D01*
X133888932Y-116076842D01*
X133776990Y-115806589D01*
X133614475Y-115563368D01*
X133407632Y-115356525D01*
X133233240Y-115240000D01*
X133407632Y-115123475D01*
X133614475Y-114916632D01*
X133776990Y-114673411D01*
X133888932Y-114403158D01*
X133946000Y-114116260D01*
X133946000Y-113823740D01*
X133888932Y-113536842D01*
X133776990Y-113266589D01*
X133614475Y-113023368D01*
X133407632Y-112816525D01*
X133164411Y-112654010D01*
X133024732Y-112596153D01*
X130831534Y-110402956D01*
X130803817Y-110369183D01*
X130669059Y-110258589D01*
X130515313Y-110176411D01*
X130348490Y-110125805D01*
X130218477Y-110113000D01*
X130218469Y-110113000D01*
X130175000Y-110108719D01*
X130131531Y-110113000D01*
X104996469Y-110113000D01*
X104953000Y-110108719D01*
X104909531Y-110113000D01*
X104909523Y-110113000D01*
X104779510Y-110125805D01*
X104612687Y-110176411D01*
X104458941Y-110258589D01*
X104357953Y-110341468D01*
X104357951Y-110341470D01*
X104324183Y-110369183D01*
X104296470Y-110402951D01*
X102217494Y-112481928D01*
X101131000Y-112481928D01*
X101006518Y-112494188D01*
X100886820Y-112530498D01*
X100776506Y-112589463D01*
X100679815Y-112668815D01*
X100660000Y-112692960D01*
X100660000Y-106122469D01*
X115038465Y-106122469D01*
X115038465Y-106122655D01*
X115038466Y-106122663D01*
X115038500Y-106131405D01*
X115039711Y-106243075D01*
X115039765Y-106243574D01*
X115039722Y-106244081D01*
X115039896Y-106253016D01*
X115042633Y-106356748D01*
X115042922Y-106359065D01*
X115042772Y-106361403D01*
X115043135Y-106370332D01*
X115047394Y-106459705D01*
X115048438Y-106466834D01*
X115048238Y-106474040D01*
X115048927Y-106482950D01*
X115054703Y-106551535D01*
X115059127Y-106575609D01*
X115060661Y-106600049D01*
X115062150Y-106608860D01*
X115069438Y-106650231D01*
X115076836Y-106676744D01*
X115081289Y-106703898D01*
X115093580Y-106736751D01*
X115103009Y-106770541D01*
X115111590Y-106787536D01*
X115114301Y-106796269D01*
X115119302Y-106805501D01*
X115125057Y-106820884D01*
X115129046Y-106828880D01*
X115133418Y-106837493D01*
X115149769Y-106863146D01*
X115159309Y-106882040D01*
X115164050Y-106888110D01*
X115173793Y-106906097D01*
X115188319Y-106923629D01*
X115200553Y-106942823D01*
X115228069Y-106971604D01*
X115253485Y-107002279D01*
X115271142Y-107016657D01*
X115286869Y-107033107D01*
X115319455Y-107055999D01*
X115350341Y-107081149D01*
X115370446Y-107091820D01*
X115389076Y-107104907D01*
X115425492Y-107121034D01*
X115460670Y-107139705D01*
X115468958Y-107143046D01*
X115495089Y-107153369D01*
X115526423Y-107162328D01*
X115556782Y-107174180D01*
X115565401Y-107176542D01*
X115620771Y-107191301D01*
X115628487Y-107192568D01*
X115635873Y-107195130D01*
X115644576Y-107197160D01*
X115721862Y-107214620D01*
X115725140Y-107215030D01*
X115728284Y-107216036D01*
X115737033Y-107217854D01*
X115828910Y-107236282D01*
X115828976Y-107236289D01*
X115829046Y-107236310D01*
X115837821Y-107238004D01*
X115869892Y-107243965D01*
X115869984Y-107243973D01*
X115871529Y-107244267D01*
X116025030Y-107272385D01*
X116081919Y-107283008D01*
X116091047Y-107306314D01*
X116092814Y-107310994D01*
X116057838Y-107361989D01*
X116039729Y-107388336D01*
X116039656Y-107388468D01*
X116036938Y-107392429D01*
X115971082Y-107489850D01*
X115970665Y-107490620D01*
X115970109Y-107491294D01*
X115965176Y-107498746D01*
X115907226Y-107587634D01*
X115906256Y-107589497D01*
X115904947Y-107591153D01*
X115900169Y-107598704D01*
X115853281Y-107673953D01*
X115850562Y-107679448D01*
X115846919Y-107684383D01*
X115842393Y-107692088D01*
X115809724Y-107748596D01*
X115800138Y-107769696D01*
X115788030Y-107789461D01*
X115784184Y-107797527D01*
X115768891Y-107830188D01*
X115763982Y-107844057D01*
X115757065Y-107857032D01*
X115743180Y-107902835D01*
X115727217Y-107947937D01*
X115725098Y-107962481D01*
X115720828Y-107976565D01*
X115719144Y-107985341D01*
X115718403Y-107989354D01*
X115714892Y-108030607D01*
X115708665Y-108071546D01*
X115709608Y-108092709D01*
X115707812Y-108113810D01*
X115712380Y-108154951D01*
X115714223Y-108196328D01*
X115719259Y-108216908D01*
X115721596Y-108237953D01*
X115734072Y-108277437D01*
X115743914Y-108317655D01*
X115752846Y-108336853D01*
X115759229Y-108357055D01*
X115779137Y-108393364D01*
X115796602Y-108430903D01*
X115801199Y-108438567D01*
X115814048Y-108459658D01*
X115841586Y-108496268D01*
X115867176Y-108534268D01*
X115872915Y-108541118D01*
X115908419Y-108582898D01*
X115914830Y-108589098D01*
X115920117Y-108596283D01*
X115926137Y-108602887D01*
X115979732Y-108660868D01*
X115981306Y-108662268D01*
X115982591Y-108663941D01*
X115988745Y-108670421D01*
X116055868Y-108740111D01*
X116055888Y-108740128D01*
X116061844Y-108746234D01*
X116137928Y-108823144D01*
X116138021Y-108823221D01*
X116142759Y-108827975D01*
X116223242Y-108907613D01*
X116223343Y-108907695D01*
X116227878Y-108912154D01*
X116308195Y-108990032D01*
X116308269Y-108990091D01*
X116313507Y-108995124D01*
X116389095Y-109066749D01*
X116389507Y-109067069D01*
X116389855Y-109067469D01*
X116396395Y-109073559D01*
X116462689Y-109134443D01*
X116465918Y-109136873D01*
X116468656Y-109139855D01*
X116475355Y-109145769D01*
X116527791Y-109191420D01*
X116541129Y-109200914D01*
X116552966Y-109212233D01*
X116560035Y-109217699D01*
X116594049Y-109243628D01*
X116599288Y-109246866D01*
X116603876Y-109250971D01*
X116639189Y-109271872D01*
X116649258Y-109279717D01*
X116666418Y-109288356D01*
X116700300Y-109309297D01*
X116706063Y-109311454D01*
X116711365Y-109314592D01*
X116719489Y-109318315D01*
X116728899Y-109322547D01*
X116745327Y-109328082D01*
X116760824Y-109335884D01*
X116801611Y-109347212D01*
X116817282Y-109353077D01*
X116821627Y-109353790D01*
X116847267Y-109362429D01*
X116864462Y-109364668D01*
X116881174Y-109369310D01*
X116926279Y-109372719D01*
X116971127Y-109378560D01*
X116988431Y-109377417D01*
X117005725Y-109378724D01*
X117050627Y-109373308D01*
X117095762Y-109370326D01*
X117112518Y-109365842D01*
X117129733Y-109363766D01*
X117172732Y-109349731D01*
X117216423Y-109338040D01*
X117231981Y-109330391D01*
X117248473Y-109325008D01*
X117256631Y-109321362D01*
X117278534Y-109311391D01*
X117305971Y-109295500D01*
X117334815Y-109282325D01*
X117342510Y-109277782D01*
X117387353Y-109250890D01*
X117393005Y-109246700D01*
X117399294Y-109243550D01*
X117406822Y-109238735D01*
X117467301Y-109199451D01*
X117469016Y-109198082D01*
X117470954Y-109197060D01*
X117478380Y-109192089D01*
X117524912Y-109160470D01*
X117525026Y-109160375D01*
X117528015Y-109158349D01*
X117611704Y-109100760D01*
X117710136Y-109033416D01*
X117731568Y-109018820D01*
X117769695Y-109034094D01*
X117816193Y-109047630D01*
X117847403Y-109058224D01*
X117856160Y-109061453D01*
X117857579Y-109061679D01*
X117862090Y-109063210D01*
X117870806Y-109065181D01*
X117881014Y-109067416D01*
X117886317Y-109068044D01*
X117889623Y-109069006D01*
X117908453Y-109070664D01*
X117930388Y-109073260D01*
X117979516Y-109081074D01*
X117992326Y-109080590D01*
X118005055Y-109082097D01*
X118054622Y-109078239D01*
X118104333Y-109076363D01*
X118116811Y-109073399D01*
X118129584Y-109072405D01*
X118177460Y-109058993D01*
X118225858Y-109047497D01*
X118237515Y-109042169D01*
X118249860Y-109038711D01*
X118294236Y-109016246D01*
X118339462Y-108995576D01*
X118349863Y-108988085D01*
X118361300Y-108982295D01*
X118400471Y-108951636D01*
X118440817Y-108922578D01*
X118449562Y-108913212D01*
X118459660Y-108905309D01*
X118492124Y-108867632D01*
X118526064Y-108831285D01*
X118531446Y-108824152D01*
X118543720Y-108807648D01*
X118567895Y-108767475D01*
X118594000Y-108728537D01*
X118598173Y-108720635D01*
X118622389Y-108673995D01*
X118625057Y-108667339D01*
X118628832Y-108661240D01*
X118632715Y-108653192D01*
X118667065Y-108580719D01*
X118667335Y-108579966D01*
X118667746Y-108579278D01*
X118671497Y-108571167D01*
X118714172Y-108477164D01*
X118714216Y-108477035D01*
X118716724Y-108471469D01*
X118765918Y-108360237D01*
X118765968Y-108360085D01*
X118767666Y-108356248D01*
X118821570Y-108232089D01*
X118821615Y-108231949D01*
X118822925Y-108228945D01*
X118879731Y-108096162D01*
X118879774Y-108096027D01*
X118880895Y-108093422D01*
X118938797Y-107956318D01*
X118938837Y-107956189D01*
X118939905Y-107953678D01*
X118989699Y-107834284D01*
X118992494Y-107841053D01*
X118992558Y-107841173D01*
X118993624Y-107843772D01*
X119051128Y-107981224D01*
X119051194Y-107981347D01*
X119052230Y-107983840D01*
X119110087Y-108120429D01*
X119110151Y-108120546D01*
X119111270Y-108123205D01*
X119167673Y-108254634D01*
X119167746Y-108254767D01*
X119169072Y-108257868D01*
X119222212Y-108379837D01*
X119222288Y-108379973D01*
X119224057Y-108384031D01*
X119272125Y-108492235D01*
X119272184Y-108492339D01*
X119274903Y-108498400D01*
X119316092Y-108588540D01*
X119316829Y-108589808D01*
X119317312Y-108591194D01*
X119321120Y-108599279D01*
X119353620Y-108667053D01*
X119358674Y-108675391D01*
X119362289Y-108684449D01*
X119366451Y-108692357D01*
X119388455Y-108733464D01*
X119420744Y-108781771D01*
X119452376Y-108830521D01*
X119457860Y-108837297D01*
X119457867Y-108837308D01*
X119457875Y-108837316D01*
X119457998Y-108837468D01*
X119466859Y-108848264D01*
X119510600Y-108892039D01*
X119554038Y-108935705D01*
X119554633Y-108936106D01*
X119555147Y-108936620D01*
X119606308Y-108970897D01*
X119657649Y-109005464D01*
X119658323Y-109005747D01*
X119658916Y-109006144D01*
X119715789Y-109029844D01*
X119772838Y-109053767D01*
X119773540Y-109053911D01*
X119774211Y-109054190D01*
X119834816Y-109066434D01*
X119895214Y-109078778D01*
X119895938Y-109078782D01*
X119896644Y-109078925D01*
X119958542Y-109079165D01*
X120020118Y-109079541D01*
X120020821Y-109079406D01*
X120021549Y-109079409D01*
X120082249Y-109067634D01*
X120142792Y-109056031D01*
X120144095Y-109055636D01*
X120144169Y-109055622D01*
X120144246Y-109055591D01*
X120151344Y-109053441D01*
X120178420Y-109045034D01*
X120209015Y-109032142D01*
X120240670Y-109022106D01*
X120248001Y-109018904D01*
X120309728Y-109061020D01*
X120403981Y-109125635D01*
X120451063Y-109158085D01*
X120451133Y-109158124D01*
X120457461Y-109162437D01*
X120524706Y-109207594D01*
X120529323Y-109210078D01*
X120533423Y-109213345D01*
X120540956Y-109218152D01*
X120597898Y-109253937D01*
X120608837Y-109259402D01*
X120618788Y-109266517D01*
X120626561Y-109270926D01*
X120665771Y-109292807D01*
X120708775Y-109311562D01*
X120733522Y-109323825D01*
X120741831Y-109328328D01*
X120743912Y-109328974D01*
X120750799Y-109332387D01*
X120759177Y-109335495D01*
X120771912Y-109340120D01*
X120777584Y-109341572D01*
X120780262Y-109342740D01*
X120793364Y-109345612D01*
X120816818Y-109351616D01*
X120861117Y-109365374D01*
X120877231Y-109367082D01*
X120892916Y-109371098D01*
X120939205Y-109373653D01*
X120985327Y-109378543D01*
X121001463Y-109377090D01*
X121017632Y-109377982D01*
X121063534Y-109371498D01*
X121109729Y-109367337D01*
X121125273Y-109362777D01*
X121141311Y-109360512D01*
X121185101Y-109345228D01*
X121229586Y-109332179D01*
X121243943Y-109324690D01*
X121259240Y-109319351D01*
X121299218Y-109295858D01*
X121307137Y-109291728D01*
X121312670Y-109289409D01*
X121316424Y-109286883D01*
X121340331Y-109274413D01*
X121347778Y-109269475D01*
X121366315Y-109256996D01*
X121390390Y-109237117D01*
X121416302Y-109219682D01*
X121423154Y-109213946D01*
X121464177Y-109179113D01*
X121467489Y-109175691D01*
X121471365Y-109172918D01*
X121478049Y-109166986D01*
X121537583Y-109113413D01*
X121537816Y-109113157D01*
X121538092Y-109112954D01*
X121544686Y-109106923D01*
X121618753Y-109038229D01*
X121618829Y-109038143D01*
X121623794Y-109033503D01*
X121708417Y-108953301D01*
X121708525Y-108953176D01*
X121711904Y-108949970D01*
X121765425Y-108898475D01*
X121765505Y-108898382D01*
X121770233Y-108893800D01*
X121863866Y-108801800D01*
X121864524Y-108801014D01*
X121865326Y-108800362D01*
X121871636Y-108794034D01*
X121952558Y-108711747D01*
X121954253Y-108709648D01*
X121956311Y-108707899D01*
X121962478Y-108701432D01*
X122027414Y-108632378D01*
X122031882Y-108626585D01*
X122037277Y-108621647D01*
X122043202Y-108614958D01*
X122088883Y-108562657D01*
X122103417Y-108542308D01*
X122120241Y-108523794D01*
X122125526Y-108516589D01*
X122148679Y-108484561D01*
X122160953Y-108463525D01*
X122161777Y-108462535D01*
X122163389Y-108459575D01*
X122179373Y-108437945D01*
X122194159Y-108406616D01*
X122211628Y-108376677D01*
X122217023Y-108361064D01*
X122221504Y-108352834D01*
X122225358Y-108340511D01*
X122232684Y-108324988D01*
X122235633Y-108316552D01*
X122237854Y-108310052D01*
X122244731Y-108280881D01*
X122252423Y-108258620D01*
X122253574Y-108250284D01*
X122258785Y-108233622D01*
X122261250Y-108210805D01*
X122266513Y-108188479D01*
X122267941Y-108148867D01*
X122269234Y-108136902D01*
X122269512Y-108134889D01*
X122269491Y-108134525D01*
X122272201Y-108109438D01*
X122270187Y-108086580D01*
X122271014Y-108063654D01*
X122264719Y-108024505D01*
X122261240Y-107985013D01*
X122254827Y-107962989D01*
X122251184Y-107940331D01*
X122237405Y-107903153D01*
X122226322Y-107865088D01*
X122222940Y-107856816D01*
X122212632Y-107832094D01*
X122196134Y-107801369D01*
X122182353Y-107769332D01*
X122177983Y-107761537D01*
X122149498Y-107711548D01*
X122145250Y-107705542D01*
X122142093Y-107698891D01*
X122137438Y-107691262D01*
X122093936Y-107621069D01*
X122092631Y-107619361D01*
X122091666Y-107617432D01*
X122086854Y-107609902D01*
X122031494Y-107524565D01*
X122031138Y-107524119D01*
X122030873Y-107523609D01*
X122025944Y-107516155D01*
X121961887Y-107420737D01*
X121961799Y-107420631D01*
X121958572Y-107415847D01*
X121940355Y-107389245D01*
X121940327Y-107389211D01*
X121939935Y-107388632D01*
X121886641Y-107311002D01*
X121897571Y-107282990D01*
X121929346Y-107277023D01*
X122075982Y-107250093D01*
X122107447Y-107244355D01*
X122107562Y-107244322D01*
X122114020Y-107243121D01*
X122209088Y-107224754D01*
X122211765Y-107223959D01*
X122214548Y-107223675D01*
X122223294Y-107221842D01*
X122306173Y-107203873D01*
X122311500Y-107202159D01*
X122317055Y-107201415D01*
X122325739Y-107199308D01*
X122389105Y-107183472D01*
X122406555Y-107177247D01*
X122424700Y-107173476D01*
X122433211Y-107170752D01*
X122469739Y-107158783D01*
X122524456Y-107134716D01*
X122527282Y-107133501D01*
X122559228Y-107121410D01*
X122567744Y-107116103D01*
X122579433Y-107111077D01*
X122583934Y-107108555D01*
X122584074Y-107108493D01*
X122584196Y-107108408D01*
X122587229Y-107106708D01*
X122592127Y-107103918D01*
X122627967Y-107078573D01*
X122665235Y-107055348D01*
X122678867Y-107042578D01*
X122694109Y-107031799D01*
X122724340Y-106999979D01*
X122756391Y-106969954D01*
X122767283Y-106954779D01*
X122780141Y-106941245D01*
X122803624Y-106904147D01*
X122829224Y-106868480D01*
X122836957Y-106851488D01*
X122846947Y-106835706D01*
X122862775Y-106794757D01*
X122880962Y-106754794D01*
X122883792Y-106746318D01*
X122891863Y-106721580D01*
X122904505Y-106664408D01*
X122917853Y-106607354D01*
X122918817Y-106599687D01*
X122918832Y-106599620D01*
X122918833Y-106599559D01*
X122918968Y-106598488D01*
X122925528Y-106543206D01*
X122925794Y-106530155D01*
X122928070Y-106517295D01*
X122928699Y-106508381D01*
X122933745Y-106428980D01*
X122933600Y-106424739D01*
X122934225Y-106420544D01*
X122934611Y-106411616D01*
X122938137Y-106314523D01*
X122938061Y-106313289D01*
X122938223Y-106312052D01*
X122938450Y-106303118D01*
X122940452Y-106194761D01*
X122940444Y-106194661D01*
X122940456Y-106194559D01*
X122940555Y-106185624D01*
X122941029Y-106072612D01*
X122941030Y-106072604D01*
X122941007Y-106063668D01*
X122939948Y-105952056D01*
X122939893Y-105951549D01*
X122939938Y-105951036D01*
X122939776Y-105942101D01*
X122937181Y-105838503D01*
X122936892Y-105836164D01*
X122937047Y-105833802D01*
X122936695Y-105824873D01*
X122932559Y-105735712D01*
X122931512Y-105728496D01*
X122931721Y-105721207D01*
X122931042Y-105712296D01*
X122925359Y-105644000D01*
X122920889Y-105619541D01*
X122919327Y-105594725D01*
X122917836Y-105585914D01*
X122910604Y-105544908D01*
X122902407Y-105515553D01*
X122897192Y-105485531D01*
X122885651Y-105455549D01*
X122877010Y-105424605D01*
X122863270Y-105397408D01*
X122859693Y-105388115D01*
X122855193Y-105375457D01*
X122854140Y-105373689D01*
X122852321Y-105368963D01*
X122848256Y-105361005D01*
X122843896Y-105352613D01*
X122829343Y-105330249D01*
X122820688Y-105313117D01*
X122809693Y-105299045D01*
X122791288Y-105268136D01*
X122782737Y-105258630D01*
X122775769Y-105247922D01*
X122745371Y-105216722D01*
X122743785Y-105214692D01*
X122741323Y-105212567D01*
X122741058Y-105212295D01*
X122707755Y-105175272D01*
X122697518Y-105167606D01*
X122688604Y-105158457D01*
X122647608Y-105130232D01*
X122607774Y-105100403D01*
X122596258Y-105094878D01*
X122585724Y-105087626D01*
X122540022Y-105067900D01*
X122533613Y-105064826D01*
X122532178Y-105063943D01*
X122530380Y-105063275D01*
X122495157Y-105046377D01*
X122486740Y-105043376D01*
X122462467Y-105034910D01*
X122438358Y-105029065D01*
X122415101Y-105020419D01*
X122406445Y-105018198D01*
X122351173Y-105004425D01*
X122347257Y-105003847D01*
X122343512Y-105002566D01*
X122334801Y-105000573D01*
X122254036Y-104982688D01*
X122253925Y-104982675D01*
X122253813Y-104982638D01*
X122245074Y-104980771D01*
X122144324Y-104959969D01*
X122144209Y-104959957D01*
X122137695Y-104958636D01*
X122022466Y-104936111D01*
X122022305Y-104936096D01*
X122017952Y-104935246D01*
X121955171Y-104923441D01*
X121955129Y-104923437D01*
X121954504Y-104923316D01*
X121869940Y-104907508D01*
X121881383Y-104890643D01*
X121918251Y-104836959D01*
X121918300Y-104836871D01*
X121919301Y-104835425D01*
X121988347Y-104734256D01*
X121988409Y-104734143D01*
X121991994Y-104728854D01*
X122053319Y-104637003D01*
X122053351Y-104636943D01*
X122057695Y-104630360D01*
X122108308Y-104552474D01*
X122109106Y-104550936D01*
X122110177Y-104549580D01*
X122114953Y-104542028D01*
X122151861Y-104482753D01*
X122156358Y-104473658D01*
X122162277Y-104465420D01*
X122166704Y-104457658D01*
X122186915Y-104421640D01*
X122206252Y-104377585D01*
X122207944Y-104374158D01*
X122220521Y-104351156D01*
X122222666Y-104344340D01*
X122227559Y-104334430D01*
X122230656Y-104326047D01*
X122233575Y-104317973D01*
X122235172Y-104311698D01*
X122237117Y-104307266D01*
X122242644Y-104282332D01*
X122244599Y-104274648D01*
X122258018Y-104232010D01*
X122259970Y-104214240D01*
X122264376Y-104196925D01*
X122266774Y-104152305D01*
X122271658Y-104107851D01*
X122270121Y-104090037D01*
X122271080Y-104072198D01*
X122264765Y-104027957D01*
X122260922Y-103983407D01*
X122255956Y-103966238D01*
X122253431Y-103948546D01*
X122238638Y-103906360D01*
X122226218Y-103863419D01*
X122218012Y-103847541D01*
X122212098Y-103830676D01*
X122189401Y-103792180D01*
X122181480Y-103776854D01*
X122179754Y-103772835D01*
X122178330Y-103770759D01*
X122168871Y-103752456D01*
X122163960Y-103744990D01*
X122151412Y-103726197D01*
X122129061Y-103698920D01*
X122109109Y-103669827D01*
X122103312Y-103663026D01*
X122068622Y-103622899D01*
X122064693Y-103619163D01*
X122061491Y-103614790D01*
X122055487Y-103608171D01*
X122003087Y-103551208D01*
X122002884Y-103551026D01*
X122002712Y-103550799D01*
X121996610Y-103544270D01*
X121930931Y-103474962D01*
X121930826Y-103474871D01*
X121926698Y-103470538D01*
X121852170Y-103393384D01*
X121852053Y-103393285D01*
X121848819Y-103389940D01*
X121769875Y-103309434D01*
X121769754Y-103309332D01*
X121766695Y-103306214D01*
X121687765Y-103226851D01*
X121687641Y-103226749D01*
X121684205Y-103223300D01*
X121609722Y-103149577D01*
X121609627Y-103149499D01*
X121604925Y-103144879D01*
X121539319Y-103081291D01*
X121538466Y-103080613D01*
X121537758Y-103079783D01*
X121531277Y-103073630D01*
X121478979Y-103024672D01*
X121472281Y-103019531D01*
X121466543Y-103013333D01*
X121459819Y-103007446D01*
X121425262Y-102977613D01*
X121387040Y-102950646D01*
X121350193Y-102921833D01*
X121342616Y-102917095D01*
X121331056Y-102909976D01*
X121325660Y-102907341D01*
X121323200Y-102905606D01*
X121315726Y-102902278D01*
X121303751Y-102894080D01*
X121260810Y-102875680D01*
X121218813Y-102855175D01*
X121203504Y-102851123D01*
X121188941Y-102844883D01*
X121143219Y-102835169D01*
X121098064Y-102823218D01*
X121082261Y-102822217D01*
X121066762Y-102818924D01*
X121020038Y-102818276D01*
X120973408Y-102815322D01*
X120957705Y-102817411D01*
X120941868Y-102817191D01*
X120895917Y-102825629D01*
X120849592Y-102831791D01*
X120834591Y-102836891D01*
X120819016Y-102839751D01*
X120775578Y-102856953D01*
X120731333Y-102871995D01*
X120717614Y-102879908D01*
X120702885Y-102885741D01*
X120694967Y-102889882D01*
X120676143Y-102899893D01*
X120661288Y-102909764D01*
X120645191Y-102917474D01*
X120637580Y-102922156D01*
X120592556Y-102950281D01*
X120591720Y-102950925D01*
X120590778Y-102951396D01*
X120583248Y-102956208D01*
X120516404Y-102999584D01*
X120516289Y-102999676D01*
X120511658Y-103002694D01*
X120427369Y-103058458D01*
X120427246Y-103058558D01*
X120424038Y-103060677D01*
X120326683Y-103125965D01*
X120326573Y-103126056D01*
X120324239Y-103127613D01*
X120250802Y-103177352D01*
X120250747Y-103177398D01*
X120249830Y-103178012D01*
X120180937Y-103224859D01*
X120165197Y-103141367D01*
X120165197Y-103141366D01*
X120081376Y-102696742D01*
X120081181Y-102696074D01*
X120081118Y-102695383D01*
X120063648Y-102636026D01*
X120046368Y-102576842D01*
X120046049Y-102576229D01*
X120045852Y-102575559D01*
X120017163Y-102520683D01*
X119988739Y-102466025D01*
X119988305Y-102465483D01*
X119987983Y-102464867D01*
X119949351Y-102416818D01*
X119910684Y-102368511D01*
X119910151Y-102368062D01*
X119909717Y-102367522D01*
X119862381Y-102327803D01*
X119815173Y-102288017D01*
X119814567Y-102287682D01*
X119814033Y-102287234D01*
X119759605Y-102257312D01*
X119705847Y-102227607D01*
X119705190Y-102227397D01*
X119704577Y-102227060D01*
X119645530Y-102208330D01*
X119586870Y-102189582D01*
X119586179Y-102189503D01*
X119585517Y-102189293D01*
X119524115Y-102182405D01*
X119462773Y-102175390D01*
X119462081Y-102175447D01*
X119461390Y-102175369D01*
X119452454Y-102175307D01*
X118527006Y-102175307D01*
X118526316Y-102175375D01*
X118525621Y-102175308D01*
X118463946Y-102181490D01*
X118402696Y-102187496D01*
X118402032Y-102187696D01*
X118401338Y-102187766D01*
X118342190Y-102205764D01*
X118283121Y-102223598D01*
X118282506Y-102223925D01*
X118281842Y-102224127D01*
X118227382Y-102253234D01*
X118172835Y-102282237D01*
X118172297Y-102282676D01*
X118171683Y-102283004D01*
X118123722Y-102322293D01*
X118076040Y-102361182D01*
X118075600Y-102361714D01*
X118075058Y-102362158D01*
X118035593Y-102410074D01*
X117996422Y-102457424D01*
X117996092Y-102458034D01*
X117995649Y-102458572D01*
X117966371Y-102513003D01*
X117937014Y-102567297D01*
X117936808Y-102567962D01*
X117936479Y-102568574D01*
X117918338Y-102627628D01*
X117900078Y-102686617D01*
X117900005Y-102687308D01*
X117899801Y-102687973D01*
X117898084Y-102696743D01*
X117814269Y-103141340D01*
X117814264Y-103141366D01*
X117798524Y-103224859D01*
X117729630Y-103178012D01*
X117729552Y-103177970D01*
X117728202Y-103177043D01*
X117624291Y-103106793D01*
X117624157Y-103106720D01*
X117621259Y-103104756D01*
X117527329Y-103042032D01*
X117527187Y-103041956D01*
X117523614Y-103039570D01*
X117444049Y-102987236D01*
X117443948Y-102987183D01*
X117438331Y-102983518D01*
X117377513Y-102944437D01*
X117374671Y-102942981D01*
X117372149Y-102941028D01*
X117364551Y-102936325D01*
X117326864Y-102913361D01*
X117302668Y-102901687D01*
X117279921Y-102887390D01*
X117271899Y-102883451D01*
X117261635Y-102878500D01*
X117243202Y-102871736D01*
X117225847Y-102862569D01*
X117214643Y-102859220D01*
X117214366Y-102859086D01*
X117213074Y-102858750D01*
X117184693Y-102850266D01*
X117144374Y-102835471D01*
X117124989Y-102832418D01*
X117106174Y-102826793D01*
X117063399Y-102822717D01*
X117020989Y-102816037D01*
X117001380Y-102816807D01*
X116981831Y-102814944D01*
X116939095Y-102819252D01*
X116896179Y-102820937D01*
X116877086Y-102825503D01*
X116857555Y-102827472D01*
X116816467Y-102840000D01*
X116774698Y-102849989D01*
X116756859Y-102858175D01*
X116738079Y-102863901D01*
X116700202Y-102884173D01*
X116661174Y-102902082D01*
X116645268Y-102913574D01*
X116627954Y-102922841D01*
X116620559Y-102927859D01*
X116602070Y-102940593D01*
X116574968Y-102963461D01*
X116546030Y-102983952D01*
X116539317Y-102989851D01*
X116499806Y-103025057D01*
X116496135Y-103029036D01*
X116491818Y-103032297D01*
X116485290Y-103038399D01*
X116429187Y-103091579D01*
X116429009Y-103091784D01*
X116428795Y-103091951D01*
X116422358Y-103098150D01*
X116354093Y-103164805D01*
X116353999Y-103164916D01*
X116349749Y-103169088D01*
X116273750Y-103244724D01*
X116273651Y-103244844D01*
X116270366Y-103248117D01*
X116191061Y-103328234D01*
X116190961Y-103328357D01*
X116187907Y-103331443D01*
X116109724Y-103411545D01*
X116109628Y-103411665D01*
X116106237Y-103415145D01*
X116033605Y-103490735D01*
X116033526Y-103490835D01*
X116029002Y-103495577D01*
X115966349Y-103562158D01*
X115965709Y-103562988D01*
X115964917Y-103563684D01*
X115958861Y-103570255D01*
X115910617Y-103623328D01*
X115905632Y-103630023D01*
X115899584Y-103635786D01*
X115893795Y-103642593D01*
X115864388Y-103677662D01*
X115838363Y-103715698D01*
X115810422Y-103752341D01*
X115805776Y-103759974D01*
X115798745Y-103771710D01*
X115795846Y-103777835D01*
X115793854Y-103780747D01*
X115788012Y-103794390D01*
X115773968Y-103824066D01*
X115748437Y-103876092D01*
X115747261Y-103880500D01*
X115745315Y-103884612D01*
X115731192Y-103940732D01*
X115716240Y-103996777D01*
X115715943Y-104001328D01*
X115714832Y-104005741D01*
X115711876Y-104063572D01*
X115708096Y-104121418D01*
X115708688Y-104125935D01*
X115708455Y-104130485D01*
X115716798Y-104187847D01*
X115724319Y-104245266D01*
X115725776Y-104249580D01*
X115726432Y-104254091D01*
X115745744Y-104308704D01*
X115751415Y-104325496D01*
X115752365Y-104329515D01*
X115753941Y-104332973D01*
X115764286Y-104363605D01*
X115768015Y-104371726D01*
X115778133Y-104393363D01*
X115792483Y-104417568D01*
X115804152Y-104443179D01*
X115808687Y-104450879D01*
X115837051Y-104498281D01*
X115839677Y-104501830D01*
X115841620Y-104505800D01*
X115846367Y-104513371D01*
X115889997Y-104581902D01*
X115890155Y-104582103D01*
X115890275Y-104582340D01*
X115895133Y-104589840D01*
X115951044Y-104674862D01*
X115951118Y-104674953D01*
X115954860Y-104680597D01*
X116020072Y-104777475D01*
X116020171Y-104777595D01*
X116022706Y-104781358D01*
X116060178Y-104836153D01*
X116060195Y-104836178D01*
X116108965Y-104907623D01*
X116090074Y-104911184D01*
X116025337Y-104923245D01*
X116025221Y-104923278D01*
X116022856Y-104923712D01*
X115902348Y-104946656D01*
X115902223Y-104946693D01*
X115896183Y-104947861D01*
X115787336Y-104969694D01*
X115787262Y-104969716D01*
X115779878Y-104971236D01*
X115688199Y-104990763D01*
X115686861Y-104991188D01*
X115685460Y-104991352D01*
X115676742Y-104993314D01*
X115607736Y-105009340D01*
X115599046Y-105012277D01*
X115589976Y-105013732D01*
X115581349Y-105016063D01*
X115540526Y-105027394D01*
X115502284Y-105042160D01*
X115463116Y-105054326D01*
X115454906Y-105057855D01*
X115446699Y-105061450D01*
X115434651Y-105068198D01*
X115421714Y-105073041D01*
X115380240Y-105098677D01*
X115337725Y-105122492D01*
X115327219Y-105131451D01*
X115315467Y-105138715D01*
X115279760Y-105171921D01*
X115242682Y-105203538D01*
X115234117Y-105214366D01*
X115223999Y-105223775D01*
X115195429Y-105263275D01*
X115165191Y-105301501D01*
X115158889Y-105313793D01*
X115150796Y-105324982D01*
X115130443Y-105369275D01*
X115108205Y-105412650D01*
X115104412Y-105425926D01*
X115098644Y-105438479D01*
X115095782Y-105446945D01*
X115087745Y-105471277D01*
X115074581Y-105529793D01*
X115060971Y-105588133D01*
X115060364Y-105592985D01*
X115060330Y-105593137D01*
X115060326Y-105593290D01*
X115059862Y-105597000D01*
X115053377Y-105651953D01*
X115053116Y-105665178D01*
X115050827Y-105678201D01*
X115050208Y-105687116D01*
X115045271Y-105766265D01*
X115045423Y-105770546D01*
X115044797Y-105774781D01*
X115044422Y-105783710D01*
X115041028Y-105880627D01*
X115041107Y-105881884D01*
X115040945Y-105883134D01*
X115040730Y-105892067D01*
X115038876Y-106000328D01*
X115038885Y-106000433D01*
X115038872Y-106000542D01*
X115038785Y-106009478D01*
X115038466Y-106122464D01*
X115038465Y-106122469D01*
X100660000Y-106122469D01*
X100660000Y-100660000D01*
X135340000Y-100660000D01*
X135340001Y-147600000D01*
M02*
