M48
; DRILL file {KiCad 5.1.5+dfsg1-2build2} date lun 04 oct 2021 21:52:58
; FORMAT={-:-/ absolute / metric / decimal}
; #@! TF.CreationDate,2021-10-04T21:52:58-05:00
; #@! TF.GenerationSoftware,Kicad,Pcbnew,5.1.5+dfsg1-2build2
; #@! TF.FileFunction,Plated,1,2,PTH
FMAT,2
METRIC
T1C0.400
T2C1.000
%
G90
G05
T1
X100.965Y-138.938
X100.965Y-140.843
X101.219Y-137.16
X101.346Y-143.51
X102.616Y-136.144
X103.632Y-138.43
X104.648Y-132.08
X105.029Y-137.16
X105.029Y-143.51
X105.283Y-134.747
X106.045Y-139.192
X106.045Y-140.208
X106.553Y-145.034
X106.553Y-147.193
X107.442Y-140.335
X107.442Y-143.383
X107.95Y-135.255
X108.712Y-143.51
X108.712Y-145.161
X108.966Y-147.193
X110.49Y-140.589
X112.014Y-143.764
X112.014Y-147.193
X112.141Y-145.542
X112.395Y-135.382
X113.538Y-140.462
X113.538Y-143.51
X114.808Y-145.415
X114.935Y-143.637
X115.062Y-147.193
X116.586Y-140.716
X118.237Y-143.637
X118.364Y-145.415
X118.364Y-147.066
X119.507Y-140.335
X119.507Y-143.51
X120.777Y-143.637
X120.777Y-145.415
X120.777Y-147.193
X121.92Y-140.589
X123.825Y-147.193
X124.206Y-143.129
X124.206Y-145.415
X124.968Y-140.589
X125.603Y-145.542
X125.73Y-143.129
X125.73Y-147.32
X127.127Y-143.51
X127.254Y-140.589
X127.508Y-138.303
X127.762Y-136.525
X129.413Y-141.859
X130.302Y-143.637
X131.699Y-145.669
X131.826Y-147.193
X134.62Y-147.193
X135.001Y-136.398
T2
X129.921Y-113.97
X129.921Y-116.51
X129.921Y-119.05
X129.921Y-121.59
X129.921Y-124.13
X129.921Y-126.67
X129.921Y-129.21
X129.921Y-131.75
X129.921Y-134.29
X132.461Y-113.97
X132.461Y-116.51
X132.461Y-119.05
X132.461Y-121.59
X132.461Y-124.13
X132.461Y-126.67
X132.461Y-129.21
X132.461Y-131.75
X132.461Y-134.29
X101.981Y-113.97
X101.981Y-116.51
X101.981Y-119.05
X101.981Y-121.59
X101.981Y-124.13
X101.981Y-126.67
X101.981Y-129.21
X101.981Y-131.75
X101.981Y-134.29
T0
M30
